<?xml version="1.0" encoding="UTF-8"?>
<svg width="162px" height="43px" viewBox="0 0 162 43" version="1.1" xmlns="http://www.w3.org/2000/svg" xmlns:xlink="http://www.w3.org/1999/xlink">
    <title>Group 8</title>
    <g id="Favorites-page" stroke="none" stroke-width="1" fill="none" fill-rule="evenodd">
        <g id="Group-8" transform="translate(0.000000, 3.000000)">
            <g id="Group-17" transform="translate(0.000000, 0.331284)" fill="#B8BBBE">
                <path d="M47.6,17.2302083 C47.9630208,16.2828125 48.1666667,15.246875 48.1666667,14.1666667 C48.1666667,9.47395833 44.359375,5.66666667 39.6666667,5.66666667 C37.9223958,5.66666667 36.2932292,6.19791667 34.9473958,7.10104167 C32.4947917,2.85104167 27.9171875,0 22.6666667,0 C14.8395833,0 8.5,6.33958333 8.5,14.1666667 C8.5,14.4057292 8.50885417,14.6447917 8.51770833,14.8838542 C3.559375,16.628125 0,21.35625 0,26.9166667 C0,33.9557292 5.7109375,39.6666667 12.75,39.6666667 L45.3333333,39.6666667 C51.5932292,39.6666667 56.6666667,34.5932292 56.6666667,28.3333333 C56.6666667,22.8526042 52.7708333,18.275 47.6,17.2302083 Z" id="Path"></path>
            </g>
            <g id="Icons-/-Web-Componenta-/-arrow-right" transform="translate(69.000000, 14.000000)" fill="#0066CC">
                <path d="M15.4884982,5.85158562 L9.89193158,0.255018959 C9.67199091,0.0350782771 9.35142038,-0.0508183388 9.05097583,0.0296855352 C8.75053128,0.110189409 8.51585737,0.34486332 8.43535349,0.645307874 C8.35484962,0.945752428 8.44074623,1.26632295 8.66068691,1.48626362 L12.760172,5.58574871 L0.88145925,5.58574871 C0.647681722,5.58574871 0.423479112,5.67861647 0.258173437,5.84392214 C0.0928677615,6.00922782 0,6.23343043 0,6.46720796 C0.00764133668,6.94855176 0.400054802,7.33473644 0.88145925,7.33467579 L12.760172,7.33467579 L8.66068691,11.4481523 C8.49307967,11.6090905 8.3983375,11.83141 8.3983375,12.0637746 C8.3983375,12.2961392 8.49307967,12.5184587 8.66068691,12.679397 C9.0030927,13.0135343 9.5495258,13.0135343 9.89193158,12.679397 L15.4884982,7.08283029 C15.6561055,6.92189206 15.7508477,6.69957255 15.7508477,6.46720796 C15.7508477,6.23484337 15.6561055,6.01252385 15.4884982,5.85158562 Z" id="Arrow-right"></path>
            </g>
            <g id="Group-17-Copy" transform="translate(97.000000, 0.000000)">
                <path d="M47.6,17.5614926 C47.9630208,16.6140968 48.1666667,15.5781593 48.1666667,14.4979509 C48.1666667,9.80524259 44.359375,5.99795092 39.6666667,5.99795092 C37.9223958,5.99795092 36.2932292,6.52920092 34.9473958,7.43232592 C32.4947917,3.18232592 27.9171875,0.331284257 22.6666667,0.331284257 C14.8395833,0.331284257 8.5,6.67086759 8.5,14.4979509 C8.5,14.7370134 8.50885417,14.9760759 8.51770833,15.2151384 C3.559375,16.9594093 0,21.6875343 0,27.2479509 C0,34.2870134 5.7109375,39.9979509 12.75,39.9979509 L45.3333333,39.9979509 C51.5932292,39.9979509 56.6666667,34.9245134 56.6666667,28.6646176 C56.6666667,23.1838884 52.7708333,18.6062843 47.6,17.5614926 Z" id="Path" fill="#B8BBBE"></path>
                <path d="M47.4267247,-1.5 C48.0034877,-1.5 48.5796016,-1.34199812 49.0806729,-1.03178043 C49.5491715,-0.741728842 49.9549162,-0.319672612 50.2328471,0.240928723 L53.1997143,6.25648069 L59.836666,7.22407965 C60.4546504,7.3137057 60.9814685,7.56862968 61.40175,7.9236527 C61.8522845,8.30423132 62.1804184,8.80360024 62.3584275,9.35270306 C62.5363303,9.90147803 62.5637387,10.4982102 62.4222709,11.0709035 C62.2904561,11.6045191 62.0139068,12.1199444 61.5669511,12.5551379 L56.7651244,17.2342982 L57.9010632,23.8454641 C58.0065145,24.4617863 57.9268442,25.0395459 57.7207385,25.5462936 C57.4985918,26.0924811 57.1257859,26.5577421 56.6597318,26.8962403 C56.1928262,27.2353568 55.6336861,27.4460058 55.0466972,27.4895539 C54.4959458,27.5304136 53.9191184,27.426755 53.3687093,27.1373135 L47.4303131,24.0159029 L41.4966161,27.1348339 C40.9456194,27.4269501 40.368438,27.5319374 39.817314,27.4919116 C39.2296985,27.4492357 38.6697841,27.2386853 38.2021001,26.8990034 C37.7358244,26.5603443 37.36263,26.0945339 37.1402318,25.5477957 C36.9338148,25.040345 36.8540922,24.4619133 36.9597434,23.8444246 L38.095504,17.2342981 L33.2941018,12.5555515 C32.8467216,12.1199444 32.5701723,11.6045191 32.4383575,11.0709035 C32.2968897,10.4982102 32.324298,9.90147803 32.5022009,9.35270306 C32.68021,8.80360024 33.0083439,8.30423132 33.4588784,7.9236527 C33.8791599,7.56862968 34.405978,7.3137057 35.0228576,7.22424029 L41.6609141,6.25648064 L44.6280633,0.24035725 C44.9048609,-0.320270829 45.3090075,-0.741389164 45.7739587,-1.03066611 C46.2748639,-1.3423125 46.8502448,-1.5 47.4267247,-1.5 Z" id="star" stroke="#FFFFFF" stroke-width="3" fill="#F4C145"></path>
            </g>
        </g>
    </g>
</svg>