<?xml version="1.0" encoding="utf-8"?>
<!-- Generator: Adobe Illustrator 24.0.2, SVG Export Plug-In . SVG Version: 6.00 Build 0)  -->
<svg version="1.1" id="Layer_1" xmlns="http://www.w3.org/2000/svg" xmlns:xlink="http://www.w3.org/1999/xlink" x="0px" y="0px"
	 viewBox="0 0 993.9 865.6" style="enable-background:new 0 0 993.9 865.6;" xml:space="preserve">
<style type="text/css">
	.st0{fill:#DEDEDE;}
	.st1{fill:none;stroke:#EE0000;stroke-width:2.5;stroke-miterlimit:10;}
	.st2{fill:#FFFFFF;}
	.st3{fill:#AAAAAA;}
	.st4{fill:#FFFFFF;stroke:#FFFFFF;stroke-width:2.5;stroke-miterlimit:10;}
	.st5{clip-path:url(#SVGID_2_);}
	.st6{fill:#F56D6D;}
	.st7{fill:#BE0000;}
	.st8{fill:#EE0000;}
	.st9{fill:none;stroke:#FFFFFF;stroke-width:2.5;stroke-linecap:round;stroke-linejoin:round;}
	.st10{clip-path:url(#SVGID_4_);}
	.st11{clip-path:url(#SVGID_6_);}
	.st12{fill:#8F0000;}
	.st13{fill:none;stroke:#5F0000;stroke-width:2;stroke-miterlimit:10;}
	.st14{fill:#EE0000;stroke:#F56D6D;stroke-width:2.5;stroke-miterlimit:10;}
	.st15{fill:none;stroke:#000000;stroke-width:2.41;stroke-linecap:round;stroke-miterlimit:10;}
	.st16{fill:#8F0000;stroke:#5F0000;stroke-width:2;stroke-linecap:round;stroke-linejoin:round;}
	.st17{fill:none;stroke:#6C6C6C;stroke-width:2;stroke-linecap:round;stroke-linejoin:round;}
	.st18{fill:none;stroke:#FFFFFF;stroke-width:1.09;stroke-linecap:round;stroke-linejoin:round;}
	.st19{clip-path:url(#SVGID_8_);}
	.st20{clip-path:url(#SVGID_10_);}
	.st21{fill:none;stroke:#FFFFFF;stroke-width:2;stroke-linecap:round;stroke-linejoin:round;}
	.st22{stroke:#000000;stroke-width:2.41;stroke-miterlimit:10;}
	.st23{fill:#FAB6B6;}
	.st24{fill:none;stroke:#BE0000;stroke-width:2.5;stroke-linecap:round;stroke-linejoin:round;}
	.st25{fill:none;stroke:#000000;stroke-width:1.73;stroke-linecap:round;stroke-miterlimit:10;}
	.st26{fill:none;stroke:#F56D6D;stroke-width:2;stroke-linecap:round;stroke-linejoin:round;}
	.st27{fill:none;stroke:#000000;stroke-width:1.93;stroke-linecap:round;stroke-miterlimit:10;}
	.st28{fill:#231F20;stroke:#DEDEDE;stroke-width:2.5;stroke-linecap:round;stroke-linejoin:round;}
	.st29{fill:#FFFFFF;stroke:#EE0000;stroke-width:2.5;stroke-linecap:round;stroke-linejoin:round;}
	.st30{clip-path:url(#SVGID_12_);}
	.st31{fill:#EE0000;stroke:#FFFFFF;stroke-width:2.5;stroke-linecap:round;stroke-linejoin:round;}
	.st32{fill:none;stroke:#FFFFFF;stroke-width:2.07;stroke-linecap:round;stroke-linejoin:round;}
	.st33{clip-path:url(#SVGID_14_);}
	.st34{clip-path:url(#SVGID_16_);}
	.st35{clip-path:url(#SVGID_18_);}
	.st36{clip-path:url(#SVGID_20_);}
	.st37{fill:none;stroke:#FFFFFF;stroke-width:0.94;stroke-linecap:round;stroke-linejoin:round;}
	.st38{clip-path:url(#SVGID_22_);}
	.st39{clip-path:url(#SVGID_24_);}
</style>
<g id="container">
	<path class="st0" d="M249.1,307.6c15.9-10.7,31.1-22.4,45.3-37c19.6-20.2,36.6-42.6,50.9-66.8c14.6-24.9,24.6-52.1,40.2-76.4
		c24.2-37.8,57.1-69.2,96.1-91.5c88-50,208.6-50.4,289,15.2c37.8,30.8,60.6,74.9,69.8,122.3c35.2,182.6,5.3,191.7,105.1,287.9
		c38.4,37,53.5,90.4,47,142.7c-6.3,51-28.7,99.4-73.8,126.8c-76.2,46.4-162.9,0.5-242.9-7.7c-40-4.1-80.5,3.4-118.6,16.5
		c-40.9,14.2-80.2,32.5-117.4,54.8c-34.8,20.9-69.3,43.7-108.3,56.1c-59.6,18.8-126.5,18.2-185.5-2.7
		C82.3,825.3,36.2,780.1,13.6,716.4c-6.8-19.1-11.1-39-12.8-59.2C-9.7,530.7,88.8,421,183,349.9C204,334,227.3,322.3,249.1,307.6z"
		/>
</g>
<g id="gfx">
	<circle class="st1" cx="405.7" cy="440.4" r="224.4"/>
	<path class="st2" d="M70,557.1c-0.1,0-0.2,0-0.3,0c-28.9-0.5-51.9-24.4-51.3-53.3c0.5-27.7,22.6-50.2,50.2-51.3
		c2.5-47.1,40-84.9,87.1-87.6c22.3-47.2,69.8-77.3,122-77.4c29.3-0.1,57.9,9.5,81.2,27.2c22.5,17.1,39.2,40.8,47.6,67.8
		c1.7-0.1,3.1-0.1,4.5-0.1c48.2-0.2,87.5,38.8,87.7,87.1c0.2,48.2-38.8,87.5-87.1,87.7L70,557.1L70,557.1z"/>
	<path class="st0" d="M277.7,289c58.9,0,110.9,38.7,127.8,95.1c1.9-0.1,3.7-0.2,5.6-0.2c47.4-0.1,85.9,38.2,86.1,85.7
		c0.1,47.4-38.2,85.9-85.7,86.1H70l0,0C42,555.2,19.6,532.1,20,504c0.4-27.5,22.6-49.7,50.1-50.1c1.7-47.3,39.4-85.3,86.6-87.6
		C178.5,319.2,225.7,289,277.7,289 M277.7,286c-52.5,0-100.3,30.1-123,77.4c-47,3.2-84.4,40.7-87.5,87.7
		c-29.7,2-52.1,27.6-50.2,57.3c1.8,27.8,24.6,49.6,52.5,50.3c0.1,0,0.3,0,0.4,0h341.5h0.3c49.1-0.7,88.3-41,87.6-90.1
		c-0.7-48.4-39.9-87.3-88.3-87.6c-1.1,0-2.2,0-3.4,0.1c-8.6-26.8-25.3-50.4-47.8-67.4C336.2,295.6,307.4,285.9,277.7,286L277.7,286z
		"/>
	<path class="st3" d="M251.7,440.1c0-14.2,11.5-25.7,25.6-25.7c14.2,0,25.7,11.5,25.7,25.6c0,9.7-5.4,18.5-14.1,22.9v25.4
		c-0.2,6.4-5.5,11.5-12,11.3c-6.2-0.2-11.1-5.1-11.3-11.3V463C257.2,458.6,251.7,449.8,251.7,440.1z"/>
	<path class="st4" d="M568.2,491.6c5.2,0,10.3,0.8,15.3,2.3c17.9-33.7,59.8-46.6,93.5-28.7c14.7,7.8,26.1,20.7,32.1,36.3
		c18.3,0.6,34.6,11.8,41.7,28.8c17.7-4.5,35.7,6.1,40.3,23.8c4.5,17.7-6.1,35.7-23.8,40.3c-2.7,0.7-5.5,1-8.2,1H568.2
		c-28.7-0.4-51.6-24-51.2-52.6C517.4,514.7,540.1,492,568.2,491.6z"/>
	<path class="st2" d="M569.5,329.7c-44,0-79.6-35.7-79.6-79.7c0-44,35.7-79.6,79.7-79.6c7.5,0,15,1.1,22.2,3.2
		c27.9-51.2,92.1-70,143.3-42.1c21.7,11.8,38.5,30.9,47.6,53.9c27.3,1.3,51.6,18,62.7,43c27.6-6.3,55.2,10.9,61.5,38.6
		c6.3,27.6-10.9,55.2-38.6,61.5c-3.8,0.9-7.6,1.3-11.4,1.3H569.5z"/>
	<path class="st0" d="M684.4,120c43.1,0,81.7,26.5,97.2,66.8c27.6,0.9,52.2,17.8,62.8,43.3c26.7-6.9,53.8,9.2,60.7,35.9
		s-9.2,53.8-35.9,60.7c-4.1,1-8.2,1.6-12.4,1.6H569.5c-43.2,0-78.1-35-78.1-78.2c0-43.2,35-78.1,78.2-78.1c7.8,0,15.5,1.2,22.9,3.4
		C610.5,141.3,645.9,120,684.4,120 M684.4,117c-38.8,0-74.5,20.9-93.4,54.7c-43.2-11.9-87.9,13.5-99.8,56.7
		c-11.9,43.2,13.5,87.9,56.7,99.8c7,1.9,14.3,2.9,21.6,2.9h287.3c29.2,0,52.8-23.6,52.9-52.8c0-29.2-23.6-52.8-52.8-52.9
		c-3.6,0-7.2,0.4-10.7,1.1c-11.4-24.6-35.4-41.1-62.5-42.7C767.3,143.5,728,117,684.4,117L684.4,117z"/>
	<g>
		<defs>
			<polygon id="SVGID_1_" points="654.3,299.4 654.3,359.6 602.2,389.7 550.1,359.6 550.1,299.4 602.2,269.3 			"/>
		</defs>
		<clipPath id="SVGID_2_">
			<use xlink:href="#SVGID_1_"  style="overflow:visible;"/>
		</clipPath>
		<g class="st5">
			<polygon class="st6" points="654.1,299.3 602.2,269.3 550.3,299.3 602.2,329.3 			"/>
			<polygon class="st7" points="550.1,299.7 550.1,359.6 602,389.6 602,329.7 			"/>
			<polygon class="st8" points="602.5,389.5 654.3,359.6 654.3,299.7 602.5,329.7 			"/>
			<path class="st2" d="M602.1,329.4L602.1,329.4z"/>
			<path class="st2" d="M602,329.5L602,329.5z"/>
			<line class="st9" x1="550.1" y1="299.4" x2="602.2" y2="329.5"/>
			<line class="st9" x1="602.2" y1="329.5" x2="602.2" y2="393.8"/>
			<line class="st9" x1="654.3" y1="299.4" x2="602.2" y2="329.5"/>
		</g>
	</g>
	<g>
		<defs>
			<polygon id="SVGID_3_" points="563.8,391.1 563.8,418.4 540.2,432.1 516.5,418.4 516.5,391.1 540.2,377.4 			"/>
		</defs>
		<clipPath id="SVGID_4_">
			<use xlink:href="#SVGID_3_"  style="overflow:visible;"/>
		</clipPath>
		<g class="st10">
			<polygon class="st6" points="563.7,391 540.2,377.4 516.6,391 540.2,404.6 			"/>
			<polygon class="st7" points="516.5,391.2 516.5,418.4 540.1,432 540.1,404.8 			"/>
			<polygon class="st8" points="540.3,432 563.8,418.4 563.8,391.2 540.3,404.8 			"/>
			<path class="st2" d="M540.1,404.7L540.1,404.7z"/>
			<path class="st2" d="M540.1,404.7L540.1,404.7z"/>
			<line class="st9" x1="516.5" y1="391.1" x2="540.2" y2="404.8"/>
			<line class="st9" x1="540.2" y1="404.8" x2="540.2" y2="433.9"/>
			<line class="st9" x1="563.8" y1="391.1" x2="540.2" y2="404.8"/>
		</g>
	</g>
	<g>
		<defs>
			<path id="SVGID_5_" d="M251.4,309.1c15.9-10.7,31.1-22.4,45.3-37c19.6-20.2,36.6-42.6,50.9-66.8c14.6-24.9,24.6-52.1,40.2-76.4
				c24.2-37.8,57.1-69.2,96.1-91.5c88-50,208.6-50.4,289,15.2c37.8,30.8,60.5,74.9,69.7,122.3c35.2,182.6,5.3,191.7,105.1,287.9
				c38.4,37,53.5,90.4,47,142.7c-6.3,51-28.7,99.4-73.8,126.8c-76.2,46.4-162.9,0.5-242.9-7.7c-40-4.1-80.5,3.4-118.6,16.5
				c-40.9,14.2-80.2,32.5-117.4,54.8c-34.8,20.9-69.3,43.7-108.3,56.1c-59.6,18.8-126.5,18.2-185.5-2.7
				C84.6,826.8,38.5,781.6,15.9,717.9c-6.8-19.1-11.1-39-12.8-59.2c-10.5-126.5,88-236.2,182.3-307.3
				C206.3,335.5,229.6,323.8,251.4,309.1z"/>
		</defs>
		<clipPath id="SVGID_6_">
			<use xlink:href="#SVGID_5_"  style="overflow:visible;"/>
		</clipPath>
		<g class="st11">
			<path class="st12" d="M720.9,414.8l11.5,12l23.8,36.8c0,0,22.8,31.2,34.7,35.2l18.7-11.7l-21-36.2c0,0-20.6-16.8-23-18.4
				c0,0-27-19.1-30.2-27.5"/>
			<path class="st12" d="M826.6,408.4c0,0-17.5,1.2-21.9,5.5l-12.6,14.2c-0.6,0.7-0.9,1.5-0.9,2.4v6.2c0,1.2-0.5,2.3-1.3,3.1
				c-1.6,1.5-4.2,4.4-4.7,7.6c0,0-3.3,20.9-2.6,24s8.8,12.5,8.8,12.5s20.8,4.9,24.2-14.4L826.6,408.4z"/>
			<path class="st13" d="M826.6,408.4c0,0-17.5,1.2-21.9,5.5l-12.6,14.2c-0.6,0.7-0.9,1.5-0.9,2.4v6.2c0,1.2-0.5,2.3-1.3,3.1
				c-1.6,1.5-4.2,4.4-4.7,7.6c0,0-3.3,20.9-2.6,24c0.5,2.2,4.6,7.5,7.1,10.4c1.6,2,4.1,3,6.6,2.8c2.6-0.3,5.4-1.9,6.6-7.3"/>
			<path class="st12" d="M682.5,405c0,0,15.1,26.2,19.1,29.7c4,3.6,15.3,20.2,17.5,29.5c0,0,5.1,8.6,10.4,12.2s24.3,17.4,26.8,20.5
				c0,0,19-1.9,25,7.6l-10.1,56.8l-26.1-20.5c-15-11.7-28.2-25.5-39.3-41c-2.8-3.8-4.7-6.9-4.8-7.8l0,0c-2.6-2.3-4.8-5.1-6.5-8.2
				c-7.9-15.2-30.2-62.5-31-71.4"/>
			<path d="M796,776.1c0.8,16.8-7,106.4-7,106.4c7,16.4,16.7,98.4,16.7,98.4h-36c-4.7-8.4-20.6-87.8-20.6-87.8l-7-27.9
				c-25.2-75.4-7.2-175.5-7.2-175.5l32.1-16.5c0,0,31.3-4,33.7-3.5s32.1,3.1,32.1,3.1l4.5,12c0,0,15,42.6,6.1,74l-24.9,87.8v13.7
				c0,0,7.4,77.6,4.7,106l-19,1.9"/>
			<path class="st8" d="M762.4,537.1c0,0-16,12.6-17.6,33c-1.1,14,4.6,22.2,2.3,29.2s-14.6,54-19.3,104.9c0,0,72.2-14.6,114.8-0.1
				c0,0-6.1-34.9-6.7-41c-0.9-9.7,2.1-27,19.6-60.5v-61.4l-16.6-38.2h-61.1L762.4,537.1z"/>
			<path class="st7" d="M822.7,539c-14.1,17.2-25.1,37.2-30.5,58.9c-1.6,6.2-2.4,12.6-2.4,19c0.2,14,6.7,26.8,8.3,40.6
				c0.9,7.6,0.4,16.3-3.3,23.2c-3.1,5.8-9.6,10.1-10,17.1c19.6-0.2,39.1,0,57.9,6.3c0,0-6.1-34.9-6.7-41c-0.9-9.7,2.1-27,19.6-60.5
				v-61.5l-10.8-24.9C836.8,523.2,829.4,530.8,822.7,539z"/>
			<path class="st12" d="M663.5,412.4c-3.6-6-7.6-12.2-10.9-18.3c-0.9-1.6-0.9-3.6-0.3-5.3c0.3-0.8,0.8-1.6,1.4-2.2
				c0.6-0.6,1.5-1,2-1.9s0.8-2.3,1.2-3.2c0.1-0.4,0.4-0.7,0.7-1c0.3-0.3,0.8-0.5,1.2-0.8c0.9-0.7,1.3-1.9,1-3
				c-0.1-0.3-0.2-0.5-0.3-0.8c-0.5-1.1-1.1-2.1-1.5-3.4l0,0c-0.5-1.2-0.3-2.5,0.6-3.4c1.2-0.9,2.8-1.3,4.3-1c0.3,0,0.6,0,0.9,0
				c0.5-0.2,1.1-0.3,1.6-0.3c1,0,1.7,0,2.3,1c4.8,7.6,9.5,15.3,14.2,23c0.3,0.4,0.5,1,0.3,1.5c-0.4,3.8-0.7,8.1-1.1,12
				c0.1,1-0.6,1.9-1.6,2.1C674.4,409.1,668.9,410.7,663.5,412.4z"/>
			<path class="st12" d="M680.3,409.9l9-20.4l0.9-12c0-0.4-0.1-0.8-0.2-1.2c-0.8-1.4-2.7-5.3-3.1-7.6c-0.1-0.6-0.5-1-1.1-1h-1.9
				c-0.8,0-1.5,0.6-1.7,1.4c-0.4,2.9-0.2,5.8,0.6,8.5l-1.1,6.1l-12-20.6c-0.4-0.7-1.1-1.3-1.9-1.6l-2.1-0.7
				c-0.5-0.2-1.1-0.1-1.6,0.1l-1.1,0.5c-0.9,0.4-1.3,1.3-1,2.2l2.6,7.8"/>
			<path class="st12" d="M732.2,367.4c-0.7-0.4-1.5-0.7-2.3-0.9l0,0c-0.8,0.5-1.2,1.4-1.2,2.4c0.3,3.6,0.5,12.1,0.5,12.1
				s-2.7,5.4-3.1,5.7c-0.7-1.9-1.3-4-1.7-6c-0.1-0.3-0.3-0.6-0.5-0.8c-1.6-1-3.4-4.4-4.2-5.9c-0.2-0.4-0.7-0.6-1.1-0.4
				c0,0-0.1,0-0.1,0l-3.1,2.1c0,0-0.6,5.9,2.3,9.6l1.3,4.1c0.6,1.7,0.3,3.5-0.6,5c-1.2,1.9-2.6,5-2,8.2l1,5.5c0.3,1.6,1,3.1,1.9,4.5
				l1.6,2.2l2,2.1l12.6-11.8l1.2-22.3L732.2,367.4z"/>
			<path class="st14" d="M770.9,558.4c-11.9,0.3-29.5-11.5-29.5-11.5c-5.2-33.7,22.3-49.7,22.3-49.7s10.9,0.4,17.3,5.9"/>
			<path d="M881.7,549c3.4-27.5-5.5-54.9-2.3-82.4c0.8-7.1,1-16.6-0.9-29.3c-5-34-40.9-34.4-40.9-34.4c-12.4-2.1-25.2,0.3-35.9,6.8
				c-1.3,0.8-2,2.4-1.7,3.9c0.5,2.7,2.7,6.9,10.6,9.5c0,0-19.5,6.6-10.2,28.6c10.1,23.9-5.5,38-22.8,48.1c0,0-1.8,35.9,30.1,47
				c0,0-11,22.7,10.1,44.6l0,0c-0.4-4.6,0.3-9.3,2-13.6c0,0,0.1,0.3,0.2,0.7c5.2,15.7,20.8,25.5,37.2,23.5c8.6-1.1,17-3.3,25-6.5
				C874.5,585.3,880.3,560,881.7,549z"/>
			<path class="st15" d="M819.8,577.7c0,0,0.1,0.3,0.2,0.7c5.2,15.7,20.8,25.5,37.2,23.5c8.6-1.1,17-3.3,25-6.5
				c-7.8-10.1-1.9-35.5-0.5-46.5c3.4-27.5-5.5-54.9-2.3-82.4c0.8-7.1,1-16.6-0.9-29.3c-5-34-40.9-34.4-40.9-34.4
				c-12.4-2.1-25.2,0.3-35.9,6.8c-1.3,0.8-2,2.4-1.7,3.9c0.5,2.7,2.7,6.9,10.6,9.5c0,0-19.5,6.6-10.2,28.6
				c10.1,23.9-5.5,38-22.8,48.1c0,0-1.8,35.9,30.1,47"/>
			<path class="st16" d="M800.1,452.8c0,0,1.1-7.4,6.6-7.2c3.5-0.1,6.4,2.4,6.9,5.8l0,0c0.9,3.6,0.4,7.4-1.5,10.7
				c-0.6,1-1.4,2-2.3,2.7c0,0-4,2.5-4.8,3.6c0,0-3.5,2.9-6.8-1"/>
			<path class="st17" d="M808,423.3c0,0,16,6,41.3,5.8"/>
			<line class="st18" x1="273" y1="611.4" x2="273" y2="628.9"/>
			<line class="st18" x1="273" y1="611.4" x2="273" y2="639.5"/>
			<polygon class="st8" points="300.4,595.6 300.4,627.3 272.9,643.1 245.5,627.3 245.5,595.6 272.9,579.7 			"/>
			<g>
				<defs>
					<polygon id="SVGID_7_" points="300.4,595.6 300.4,627.3 272.9,643.1 245.5,627.3 245.5,595.6 272.9,579.7 					"/>
				</defs>
				<clipPath id="SVGID_8_">
					<use xlink:href="#SVGID_7_"  style="overflow:visible;"/>
				</clipPath>
				<g class="st19">
					<path d="M250.6,577.3c-1.5,1.6-2.2,4.8-2.8,6.8c-1.5,4.2-2.3,8.6-2.5,13.1c-0.1,6.1,3.9,11.9,7.8,16.4
						c3.7,4.3,8.6,7.5,12.1,12.1c0.6,0.8,1.2,1.7,1.7,2.6c2.9,5.6,4,11.9,3.3,18.2c0,0.3-0.1,2.2-0.6,2.2l-33.7,1.2l-2.6-71.8
						C233.2,577.9,251.2,576.6,250.6,577.3z"/>
				</g>
			</g>
			<g>
				<defs>
					<polygon id="SVGID_9_" points="300.4,595.6 300.4,627.3 272.9,643.1 245.5,627.3 245.5,595.6 272.9,579.7 					"/>
				</defs>
				<clipPath id="SVGID_10_">
					<use xlink:href="#SVGID_9_"  style="overflow:visible;"/>
				</clipPath>
				<g class="st20">
					<line class="st21" x1="245.5" y1="595.6" x2="273" y2="611.4"/>
					<line class="st21" x1="273" y1="611.4" x2="273" y2="648.2"/>
					<line class="st21" x1="300.4" y1="595.6" x2="273" y2="611.4"/>
				</g>
			</g>
			<path class="st22" d="M198.1,500.3c0,0,12.8,23.8,7.9,45.7c-4.5,19.8-4,42.6,1.1,53.7c2.1,4.3,3.3,9,3.4,13.8
				c0.1,5.1-0.8,11-4.6,15.4l-8.7,4.9l-37.5-52.5v-81L198.1,500.3z"/>
			<path class="st23" d="M147.8,529.6l-17.7,48.8l33.5,17.1c0,0,4.2-18.4,6.9-21.7c0,0,4.6-5.3,6.2-15.5l-15.3-28.6H147.8z"/>
			<path class="st6" d="M161.3,558.8c0,0,9.6,7,13.9,5.2c0.6-1.9,1-3.8,1.3-5.8l-15.2-28.6h-13.6l-9.4,26
				C147.5,555.6,161.3,558.8,161.3,558.8z"/>
			<path class="st23" d="M154.9,535.3v2.6c0,4.7,1.8,9.3,5,12.8c5.8,6.2,16.2,14.9,29.1,14.7c3.2-0.7,5.6-3.5,5.8-6.8
				c0,0,1.5-10.5,4.7-14.5s5.1-13.4,5.1-16.8l1-15.4c0,0,2.7-11.8-6.1-24.9l-31.6-0.3l-15.1,15.1v21.9L154.9,535.3z"/>
			<path class="st22" d="M198.2,486.7c0,0-10.3,14.3-43.1,29.9c0,0-21.5,22.3,3.1,41.3c0,0,17.5,11.5,16,32.6h-44.2
				c0,0-12,29.7-7.3,55.7c0,0-7.1-12.9-9.1-25.1s-6.4-14.6-7.8-20.4s0.4-11.5,2.7-19.5s11.8-40.6,12.6-49s3.2-49.6,22.4-58.5
				S185.9,466.4,198.2,486.7z"/>
			<path d="M122.1,781.9c0,0-18.4,27.6,2.6,70.8c0,0,34.2,57.4,37.6,79.1h66.5c0,0-25.4-83.5-25-108.5c0,0,13.4-35.5,14-41.4"/>
			<path class="st8" d="M159.4,576.3c-3.5-2.1-6.9-4.1-11.4-3.8c-7,0.3-12.4,2.6-17.1,8.9c-1.4,1.9-1.4,1.9-3.1,6.2
				c-9.9,24.8-9.3,57.6-3.7,82.5c5.4,23.7,10.9,39.8,8.4,61.8c-0.2,2,0,0.5-0.8,2.3c-7.4,16.2-16.2,33.1-20.4,50.7
				c16.3,4.6,32.7,9.5,49.3,13c11.5,2.6,23.2,4.1,35,4.5c9.4,0.2,18.4-1.9,27.2-4.9c3.7-26.9,4.5-64.3-6-89.4
				c-6.5-15.5,0.3-19.9-0.1-35.7c-0.1-2.5,1.1-12.2,0.9-15.4c-1.4-17.3-7.8-27.8-18.3-40.9c-9.8-12.3-20.7-23.7-32.6-34
				C164.5,579.8,162,577.9,159.4,576.3z"/>
			<path class="st8" d="M249.3,644.4c-3.4,2.9-6.6,6-9.9,8.9c-8.9,8-17.9,15.4-28.1,21.6c-10.2,6.1-20.8,11.6-31.7,16.6
				c0.6-6.2,0.6-12.5,0.9-18.7c0.6-11,1.2-22.2,0.3-33.2c-0.1-1.7-0.3-3.4-0.7-5.1l-27.3-48.7c0,0-20.2,1.2-21.9,27.3
				s10.2,110.2,31.2,121.9c4.7,4,12,0,12,0l60.7-34.8c12-6.7,33.9-25.3,33.9-25.3L249.3,644.4z"/>
			<path class="st23" d="M250.5,646.2c0,0,7.5-6.4,8-9.3l8.9-11.4c0,0,7.6-4.2,8.1-6.7l8.6-6.7l2.4,2.4c0,0,1.1,5.4-4.8,9.4
				c0,0-7.6,4.9-7.3,8.7c0,0,1.9,1.8,7,0.1c0,0,9.5-9.9,11.6-12.1s6.4-14.1,6.4-14.1l3.4,0.8c-0.3,1.6-0.5,3.3-0.6,5
				c0,0-0.6,2-1.3,4.2l1.9,10.5c0.2,1.6-1.2,3.7-1.2,3.7l-15.4,17.5c-12.8,1.3-26.3,14.6-26.3,14.6L250.5,646.2z"/>
			<path class="st23" d="M259.8,662.8c0,0,13.5-11.3,26.3-12.6l15.4-19.5c0,0,1.5-2.2,1.2-3.7l-2.5-7.1"/>
			<path class="st23" d="M250.5,646.2c2.2-4.5,3.8-8.8,7.3-12.5c3.7-4,8.2-6.8,12.3-10.3c4.5-3.9,9.3-7.6,14-11.3l2.4,2.4
				c0,0,1.1,5.4-4.8,9.4c0,0-7.6,4.9-7.3,8.7c0,0,1.9,1.8,7,0.1c0,0,9.5-9.9,11.6-12.1s6.4-14.1,6.4-14.1l3.4,0.8
				c-0.3,1.6-0.5,3.3-0.6,5c0,0-3.1,9.4-2.8,10.6l-8.9,12.4"/>
			<path class="st24" d="M152.9,585.9c0,0-20.2,1.2-21.9,27.3s10.2,110.2,31.2,121.9"/>
			<path class="st8" d="M179.3,691.7c11-5,21.6-10.6,32-16.7c10.2-6.2,19.2-13.6,28.1-21.6c3.3-3,6.5-6,9.9-8.9l19.5,30.6
				c0,0-22,18.7-34,25.3l-60.7,34.8c0,0-7.2,4-12,0"/>
			<path class="st24" d="M180.5,691.2c10.6-4.8,20.9-10.2,30.9-16.2c10.2-6.2,19.2-13.6,28.1-21.6c3.3-3,6.5-6,9.9-8.9l19.5,30.6
				c0,0-22,18.7-34,25.3l-60.7,34.8c0,0-7.2,4-12,0"/>
			<path class="st23" d="M155.7,516.6c0,0-0.4-6-5.9-6.1c-3.4-0.3-6.6,2-7.2,5.4l0,0c-1.1,3.6-0.8,7.4,0.9,10.7
				c0.6,1.1,1.3,2.1,2.2,2.9c0,0,3.9,2.8,4.5,3.9c0,0,3.3,3.1,6.9-0.7"/>
			<circle cx="201.8" cy="522.6" r="2.2"/>
			<path class="st23" d="M199.6,522.3c1.7-0.6,3.6-0.9,5.5-0.7c0.2,0,0.5-0.1,0.5-0.4c0-0.1,0-0.2,0-0.3c-0.4-1.1-0.8-2.3-1-3.4
				c-0.6-2.6-2.1-3.4-4.2-1.7S199.6,522.3,199.6,522.3z"/>
			<path class="st25" d="M205.8,522.3c-2.3-0.8-4.7-0.8-7-0.1"/>
			<path class="st23" d="M196.9,538.7c2.1,0.2,8.1,0.8,8.3-2.5c0.1-2.8-7.1-9.3-5.4-20c0,0-1.6-9.2-5.5-6.6
				c-3.9,2.6-9.1,20.2-2.7,27.8"/>
			<path class="st8" d="M197,548.9c-0.4,0.3-0.8,0.5-1.3,0.5c-0.4,0-0.9-0.1-1.3-0.3c-0.1,0,0,0.1,0.3,0.1s0,0,0,0h-0.2l-1,0.1
				c-1.3,0.1-2.7,0-4-0.2c-2.6-0.4-5.1-1.6-7.1-3.3c-0.1-0.1-0.2-0.4,0-0.5c0,0,0,0,0,0c0.1-0.1,0.2-0.2,0.4-0.1l0,0
				c2.3,0.7,4.7,1.1,7.1,1.2c1.2,0,2.3,0,3.5-0.1l0.9-0.1h0.2c0.1,0,0.3,0,0.5,0c0.4,0,0.8,0.2,1.1,0.5c0.3,0.2,0.2,0.3,0.4,0.5
				s0.3,0.5,0.6,0.8v0.1C197.3,548.2,197.3,548.6,197,548.9z"/>
			<path class="st8" d="M182.8,546c0.5,0.4,1,0.6,1.6,0.8c0.6,0.2,1.2,0.4,1.8,0.6c1.2,0.4,2.4,0.6,3.6,0.9c1.2,0.2,2.3,0.4,3.5,0.4
				c1.2,0,2.1,0.1,3.4,0.1h0.1c0.3,0,0.5,0.2,0.5,0.5c0,0.1,0,0.2-0.1,0.3c-0.2,0.3-0.5,0.6-0.8,0.9c-0.3,0.2-0.6,0.4-1,0.6
				c-0.4,0.1-0.7,0.2-1.1,0.3c-0.4,0-0.7,0.1-1.1,0.1c-1.4-0.1-2.7-0.4-4-0.8c-1.3-0.4-2.5-1-3.6-1.7c-0.6-0.3-1.1-0.7-1.6-1.2
				c-0.6-0.4-1-1-1.3-1.6c0-0.1,0-0.1,0.1-0.2c0,0,0,0,0,0C182.7,545.9,182.7,545.9,182.8,546L182.8,546z"/>
			<path class="st26" d="M199.6,538.8c2.5,0,5.4-0.4,5.6-2.7c0.1-2.8-8.4-9.6-5.9-21.3"/>
			<path class="st26" d="M193.7,535.6c-0.7,0.9-0.5,2.1,0.3,2.8c0.4,0.3,0.9,0.5,1.5,0.4"/>
			<circle cx="187.7" cy="521.8" r="3.3"/>
			<path class="st23" d="M192.5,521.2c-4.8-1.6-11.3-0.4-11.3-0.4s-2.2-3.3-0.8-5.5s9-3.2,11.3-1.3S192.5,521.2,192.5,521.2z"/>
			<path class="st27" d="M181.2,520.8c0,0,6.5-1.1,11.3,0.4"/>
			<rect x="369.6" y="521.8" class="st28" width="223.2" height="60.7"/>
			<circle class="st2" cx="556.6" cy="552.2" r="7.1"/>
			<circle class="st8" cx="556.6" cy="612.9" r="7.9"/>
			<circle class="st8" cx="556.6" cy="673.6" r="7.9"/>
			<rect x="369.6" y="703.9" class="st28" width="223.2" height="60.7"/>
			<circle class="st2" cx="556.6" cy="734.3" r="7.9"/>
			<rect x="407.6" y="546.4" class="st8" width="118.8" height="11.6"/>
			<rect x="407.6" y="728.5" class="st8" width="118.8" height="11.6"/>
			<rect x="369.6" y="764.6" class="st28" width="223.2" height="92.5"/>
			<circle class="st8" cx="556.6" cy="794.9" r="7.1"/>
			<circle class="st8" cx="556.6" cy="855.6" r="7.9"/>
			<rect x="369.6" y="886" class="st29" width="223.2" height="60.7"/>
			<circle class="st8" cx="556.6" cy="916.3" r="7.9"/>
			<rect x="369.6" y="946.7" class="st29" width="223.2" height="60.7"/>
			<circle class="st8" cx="556.6" cy="977" r="7.9"/>
			<rect x="405.6" y="849.9" class="st8" width="120" height="11.4"/>
			<rect x="405.6" y="910.6" class="st8" width="120" height="11.4"/>
			<rect x="405.6" y="971.3" class="st8" width="120" height="11.4"/>
			<rect x="369.6" y="582.5" class="st28" width="223.2" height="62.3"/>
			<rect x="393.1" y="595" class="st8" width="10.2" height="37.4"/>
			<rect x="410.8" y="595" class="st8" width="10.2" height="37.4"/>
			<circle class="st2" cx="535.2" cy="613.7" r="6.6"/>
			<circle class="st2" cx="556.6" cy="613.7" r="6.6"/>
			<rect x="369.6" y="641.6" class="st28" width="223.2" height="62.3"/>
			<rect x="393.1" y="654.1" class="st8" width="10.2" height="37.4"/>
			<rect x="410.8" y="654.1" class="st8" width="10.2" height="37.4"/>
			<rect x="393.1" y="792.1" class="st8" width="10.2" height="37.4"/>
			<rect x="410.8" y="792.1" class="st8" width="10.2" height="37.4"/>
			<circle class="st2" cx="535.2" cy="672.8" r="6.6"/>
			<circle class="st2" cx="556.6" cy="672.8" r="6.6"/>
		</g>
	</g>
	<path d="M194.7,516.2c-1.5-0.6-3-1.1-4.5-1.5c-1.6-0.4-3.2-0.6-4.8-0.6c-1.6-0.1-3.3,0-4.9,0.4c-1.6,0.3-3.1,0.9-4.5,1.7h0
		c-0.3,0.1-0.6,0-0.8-0.2c-0.1-0.2-0.1-0.5,0.1-0.7c1.4-1.1,3.1-1.9,4.8-2.4c1.7-0.6,3.5-0.9,5.2-1c1.8-0.1,3.6,0,5.3,0.2
		c1.8,0.2,3.6,0.7,5.3,1.3c0.8,0.4,1.1,1.3,0.7,2c-0.3,0.6-1,1-1.7,0.8l-0.1,0L194.7,516.2z"/>
	<path d="M199.7,513.6c0.5-0.1,1-0.1,1.5-0.1c0.5,0,1,0,1.5,0c1,0.1,2.1,0.3,3,0.8c0.6,0.3,0.8,1,0.5,1.5c-0.2,0.5-0.8,0.7-1.3,0.6
		l0,0c-0.7-0.2-1.5-0.3-2.2-0.2c-0.4,0-0.8,0-1.2,0.1c-0.4,0.1-0.7,0.1-1.1,0.2c-0.8,0.3-1.6-0.2-1.9-1c-0.3-0.8,0.2-1.6,1-1.9
		L199.7,513.6L199.7,513.6z"/>
	<g>
		<defs>
			<polygon id="SVGID_11_" points="383.4,668.5 383.4,728.7 331.3,758.8 279.2,728.7 279.2,668.5 331.3,638.4 			"/>
		</defs>
		<clipPath id="SVGID_12_">
			<use xlink:href="#SVGID_11_"  style="overflow:visible;"/>
		</clipPath>
		<g class="st30">
			<polygon class="st6" points="383.2,668.4 331.3,638.4 279.4,668.4 331.4,698.4 			"/>
			<polygon class="st7" points="279.2,668.8 279.2,728.7 331.2,758.7 331.2,698.7 			"/>
			<polygon class="st8" points="331.6,758.6 383.4,728.7 383.4,668.8 331.6,698.7 			"/>
			<path class="st2" d="M331.2,698.5L331.2,698.5z"/>
			<path class="st2" d="M331.2,698.5L331.2,698.5z"/>
			<line class="st9" x1="279.2" y1="668.5" x2="331.4" y2="698.6"/>
			<line class="st9" x1="331.4" y1="698.6" x2="331.4" y2="762.9"/>
			<line class="st9" x1="383.4" y1="668.5" x2="331.4" y2="698.6"/>
		</g>
	</g>
	<path class="st31" d="M180.5,691.2c10.6-4.8,20.9-10.2,30.9-16.2c10.2-6.2,19.2-13.6,28.1-21.6c3.3-3,6.5-6,9.9-8.9l19.5,30.6"/>
	<path class="st24" d="M175.3,708.5c5.3-11.1,4.7-23.7,5.3-35.6c0.6-11,1.2-22.2,0.3-33.2c-0.1-1.7-0.3-3.4-0.7-5.1"/>
	<line class="st32" x1="602.2" y1="329.5" x2="602.2" y2="362.8"/>
	<line class="st32" x1="602.2" y1="329.5" x2="602.2" y2="382.8"/>
	<polygon class="st8" points="654.3,299.4 654.3,359.6 602.2,389.7 550.1,359.6 550.1,299.4 602.2,269.3 	"/>
	<g>
		<defs>
			<polygon id="SVGID_13_" points="654.3,299.4 654.3,359.6 602.2,389.7 550.1,359.6 550.1,299.4 602.2,269.3 			"/>
		</defs>
		<clipPath id="SVGID_14_">
			<use xlink:href="#SVGID_13_"  style="overflow:visible;"/>
		</clipPath>
		<g class="st33">
			<path d="M560,252.3c-3.1,3.4-4.5,10.1-5.9,14.3c-2.8,8.8-5.2,18.1-5.3,27.5c-0.2,12.9,8.2,25,16.4,34.4
				c7.8,9,18.1,15.7,25.3,25.4c1.3,1.7,2.5,3.6,3.5,5.5c6.3,11.6,8.1,25.2,6.9,38.2c-0.1,0.6-0.2,4.5-1.2,4.6l-70.7,2.5l-5.4-150.7
				C523.7,253.7,561.3,250.9,560,252.3z"/>
		</g>
	</g>
	<g>
		<defs>
			<polygon id="SVGID_15_" points="654.3,299.4 654.3,359.6 602.2,389.7 550.1,359.6 550.1,299.4 602.2,269.3 			"/>
		</defs>
		<clipPath id="SVGID_16_">
			<use xlink:href="#SVGID_15_"  style="overflow:visible;"/>
		</clipPath>
		<g class="st34">
			<line class="st9" x1="550.1" y1="299.4" x2="602.2" y2="329.5"/>
			<line class="st9" x1="602.2" y1="329.5" x2="602.2" y2="399.3"/>
			<line class="st9" x1="654.3" y1="299.4" x2="602.2" y2="329.5"/>
		</g>
	</g>
	<line class="st32" x1="331.4" y1="698.6" x2="331.4" y2="731.9"/>
	<line class="st32" x1="331.4" y1="698.6" x2="331.4" y2="751.9"/>
	<polygon class="st8" points="383.4,668.5 383.4,728.7 331.3,758.8 279.2,728.7 279.2,668.5 331.3,638.4 	"/>
	<g>
		<defs>
			<polygon id="SVGID_17_" points="383.4,668.5 383.4,728.7 331.3,758.8 279.2,728.7 279.2,668.5 331.3,638.4 			"/>
		</defs>
		<clipPath id="SVGID_18_">
			<use xlink:href="#SVGID_17_"  style="overflow:visible;"/>
		</clipPath>
		<g class="st35">
			<path d="M289.1,621.3c-3.1,3.4-4.5,10.1-5.9,14.3c-2.8,8.8-5.2,18.2-5.3,27.5c-0.2,12.8,8.2,25,16.4,34.4
				c7.9,9,18.1,15.7,25.3,25.3c1.3,1.7,2.5,3.6,3.5,5.5c6.3,11.6,8.1,25.2,6.9,38.2c0,0.6-0.1,4.5-1.2,4.5l-70.6,2.5l-5.4-150.7
				C252.8,622.8,290.4,620,289.1,621.3z"/>
		</g>
	</g>
	<g>
		<defs>
			<polygon id="SVGID_19_" points="383.4,668.5 383.4,728.7 331.3,758.8 279.2,728.7 279.2,668.5 331.3,638.4 			"/>
		</defs>
		<clipPath id="SVGID_20_">
			<use xlink:href="#SVGID_19_"  style="overflow:visible;"/>
		</clipPath>
		<g class="st36">
			<line class="st9" x1="279.2" y1="668.5" x2="331.4" y2="698.6"/>
			<line class="st9" x1="331.4" y1="698.6" x2="331.4" y2="768.4"/>
			<line class="st9" x1="383.4" y1="668.5" x2="331.4" y2="698.6"/>
		</g>
	</g>
	<line class="st37" x1="540.2" y1="404.8" x2="540.2" y2="419.8"/>
	<line class="st37" x1="540.2" y1="404.8" x2="540.2" y2="428.9"/>
	<polygon class="st8" points="563.8,391.1 563.8,418.4 540.2,432.1 516.5,418.4 516.5,391.1 540.2,377.4 	"/>
	<g>
		<defs>
			<polygon id="SVGID_21_" points="563.8,391.1 563.8,418.4 540.2,432.1 516.5,418.4 516.5,391.1 540.2,377.4 			"/>
		</defs>
		<clipPath id="SVGID_22_">
			<use xlink:href="#SVGID_21_"  style="overflow:visible;"/>
		</clipPath>
		<g class="st38">
			<path d="M521,369.7c-1.4,1.5-2.1,4.6-2.7,6.5c-1.4,4-2.2,8.2-2.4,12.5c-0.1,5.8,3.7,11.3,7.4,15.6c3.5,4.1,8.2,7.1,11.5,11.5
				c0.6,0.8,1.1,1.6,1.6,2.5c2.7,5.3,3.8,11.4,3.1,17.3c0,0.3-0.1,2-0.5,2.1l-32.1,1.1l-2.5-68.4C504.5,370.4,521.6,369.1,521,369.7
				z"/>
		</g>
	</g>
	<g>
		<defs>
			<polygon id="SVGID_23_" points="563.8,391.1 563.8,418.4 540.2,432.1 516.5,418.4 516.5,391.1 540.2,377.4 			"/>
		</defs>
		<clipPath id="SVGID_24_">
			<use xlink:href="#SVGID_23_"  style="overflow:visible;"/>
		</clipPath>
		<g class="st39">
			<line class="st21" x1="516.5" y1="391.1" x2="540.2" y2="404.8"/>
			<line class="st21" x1="540.2" y1="404.8" x2="540.2" y2="436.4"/>
			<line class="st21" x1="563.8" y1="391.1" x2="540.2" y2="404.8"/>
		</g>
	</g>
</g>
</svg>
