<svg xmlns="http://www.w3.org/2000/svg" xmlns:xlink="http://www.w3.org/1999/xlink" width="415.546" height="355.14" viewBox="0 0 415.546 355.14"><defs><style>.a,.d,.f{fill:none;}.b{fill:#f56d6d;}.c{fill:#dedede;}.d{stroke:#e00;}.d,.f{stroke-linecap:round;}.d,.e,.f{stroke-miterlimit:10;stroke-width:2.849px;}.e,.i{fill:#fff;}.e{stroke:#dedede;}.f{stroke:#fff;}.g{clip-path:url(#a);}.h{fill:#e00;}.j{clip-path:url(#b);}.k{clip-path:url(#c);}.l{clip-path:url(#d);}</style><clipPath id="a"><path class="a" d="M221.923,163.586l-.055,17.48,15.111,8.788,15.166-8.692.055-17.48-15.111-8.788Z" transform="translate(-221.867 -154.894)"/></clipPath><clipPath id="b"><path class="b" d="M255.947,177l-.042,13.126,11.347,6.6L278.64,190.2l.042-13.126-11.346-6.6Z" transform="translate(-255.905 -170.471)"/></clipPath><clipPath id="c"><path class="a" d="M133.854,289.178V302.3l11.367,6.563,11.367-6.563V289.178l-11.367-6.563Z" transform="translate(-133.854 -282.615)"/></clipPath><clipPath id="d"><path class="a" d="M110.634,312.26v17.48l15.138,8.74,15.138-8.74V312.26l-15.138-8.74Z" transform="translate(-110.634 -303.52)"/></clipPath></defs><g transform="translate(-29.529 -26.972)"><path class="c" d="M359.336,212.267c-3.83,19.652-12.581,38-25.279,51.547C306.771,292.932,265.2,304.567,230.883,323.7c-30.432,16.964-61.314,34.215-98.857,29.314-31.189-4.072-66.494-19.71-84.233-47.827-20.468-32.441-13.168-66.918-4.708-99.67,8.725-33.776-9.235-63.943-10.5-97.83C31.376,75.2,49.145,44.833,78.935,32.964c30.885-12.306,65.09-4.545,94.257,13.155,14.44,8.763,27.9,19.236,42.815,27.168,15.09,8.025,31.082,11.813,47.245,16.345,31.885,8.941,70.115,20.334,86.964,52.319C361.446,163.269,363.927,188.708,359.336,212.267Z" transform="translate(-3)"/><path class="d" d="M414.556,95.452a185.8,185.8,0,0,0-150.129,44.11" transform="translate(28.898 29.819)"/><path class="e" d="M39.575,227.414a45.761,45.761,0,0,1,91.095,6.386c0,.061-.005.121-.005.183.621-.049,1.246-.079,1.881-.077a22.832,22.832,0,1,1-.145,45.665c-.324,0-.646-.013-.966-.027v.024l-46.672-.148h-.005l-32.88-.1c-.58.035-1.163.059-1.752.057a27.068,27.068,0,0,1-10.549-51.958Z" transform="translate(54.448 -14.139)"/><path class="e" d="M148.575,166.414a45.761,45.761,0,0,1,91.095,6.386c0,.061-.005.121-.005.183.621-.049,1.246-.079,1.881-.077a22.832,22.832,0,1,1-.145,45.665c-.324,0-.646-.013-.966-.027v.024l-46.672-.148h-.005l-32.88-.1c-.58.035-1.163.058-1.752.057a27.068,27.068,0,0,1-10.549-51.958Z" transform="translate(40.22 10.023)"/><path class="c" d="M92.7,242.154a9.86,9.86,0,1,1,14.291,8.83l-.031,9.761a4.46,4.46,0,0,1-8.92-.029l.031-9.76A9.852,9.852,0,0,1,92.7,242.154Z" transform="translate(37.048 -25.254)"/><path class="a" d="M321.212,156.988A176.458,176.458,0,0,0,293.8,175.929" transform="translate(-41.785 -20.557)"/><path class="f" d="M387.723,65.775a197.821,197.821,0,0,0-132.991,50.551" transform="translate(31.323 36.73)"/><path class="f" d="M351.462,117.618a170.711,170.711,0,0,0-67.884,33.891" transform="translate(24.107 23.761)"/><g transform="translate(251.699 166.093)"><g transform="translate(0 0)"><g class="g"><path class="b" d="M222.027,163.549l15.1-8.655,15.046,8.751-15.114,8.663Z" transform="translate(-221.907 -154.894)"/><path class="b" d="M257.257,166.712l-.055,17.406-15.114,8.663.055-17.406Z" transform="translate(-226.925 -157.85)"/><path class="h" d="M236.9,192.734l-15.034-8.743.055-17.406,15.034,8.758Z" transform="translate(-221.867 -157.818)"/><path class="i" d="M242.137,178.157l-.01-.009Z" transform="translate(-226.935 -160.711)"/><path class="i" d="M242.154,178.184l-.005-.011Z" transform="translate(-226.941 -160.717)"/><g transform="translate(0.055 8.692)"><line class="h" x1="15.179" y2="8.699" transform="translate(15.098 0.096)"/><line class="a" x1="0.059" y2="18.667" transform="translate(15.039 8.795)"/><line class="h" x2="15.098" y2="8.795"/></g></g></g></g><g transform="translate(277.222 177.773)"><g transform="translate(0 0)"><path class="b" d="M255.947,177l-.042,13.126,11.347,6.6L278.64,190.2l.042-13.126-11.346-6.6Z" transform="translate(-255.905 -170.471)"/><g class="j"><path class="b" d="M256.025,176.97l11.34-6.5,11.3,6.571-11.349,6.5Z" transform="translate(-255.935 -170.471)"/><path class="b" d="M282.479,179.345l-.041,13.07-11.349,6.5.041-13.07Z" transform="translate(-259.703 -172.691)"/><path class="h" d="M267.194,198.885l-11.289-6.565.041-13.07,11.289,6.576Z" transform="translate(-255.905 -172.666)"/><path class="i" d="M271.125,187.939l-.008-.007Z" transform="translate(-259.71 -174.839)"/><path class="i" d="M271.138,187.959l0-.008Z" transform="translate(-259.714 -174.843)"/><g transform="translate(0.042 6.527)"><line class="h" x1="11.398" y2="6.532" transform="translate(11.337 0.072)"/><line class="a" x1="0.044" y2="14.017" transform="translate(11.293 6.604)"/><line class="h" x2="11.337" y2="6.604"/></g></g></g></g><g transform="translate(160.608 244.781)"><g transform="translate(0 0)"><g class="k"><g transform="translate(0)"><path class="b" d="M133.918,289.15l11.319-6.535,11.319,6.535-11.329,6.541Z" transform="translate(-133.87 -282.615)"/><path class="b" d="M160.393,291.442v13.07l-11.329,6.541v-13.07Z" transform="translate(-137.659 -284.823)"/><path class="h" d="M145.163,311.042l-11.31-6.53v-13.07l11.31,6.541Z" transform="translate(-133.854 -284.823)"/><path class="i" d="M149.046,300.084l-.008-.007Z" transform="translate(-137.652 -286.983)"/><path class="i" d="M149.059,300.1l0-.009Z" transform="translate(-137.656 -286.988)"/></g><g transform="translate(0 6.563)"><line class="h" x1="11.377" y2="6.568" transform="translate(11.358)"/><line class="a" y2="14.017" transform="translate(11.358 6.568)"/><line class="h" x2="11.358" y2="6.568"/></g></g></g></g><path class="d" d="M137.606,431.842a185.306,185.306,0,0,0,3.241-55.649,187.492,187.492,0,0,0-2.728-18.965" transform="translate(25.816 -51.419)"/><path class="f" d="M158.135,410.883a200.588,200.588,0,0,0,1.221-22.147,199.087,199.087,0,0,0-5.42-46.271" transform="translate(21.731 -47.727)"/><path class="a" d="M175.437,373.188a236.307,236.307,0,0,0-10.777-55.564" transform="translate(-21.366 -45.956)"/><path class="f" d="M122.307,383.37q-1.186-16.912-3.928-33.1" transform="translate(30.625 -49.68)"/><g transform="translate(143.197 260.457)"><g transform="translate(0 0)"><g class="l"><g transform="translate(0)"><path class="b" d="M110.719,312.223l15.074-8.7,15.074,8.7-15.087,8.71Z" transform="translate(-110.655 -303.52)"/><path class="b" d="M145.978,315.274v17.406l-15.087,8.71V323.985Z" transform="translate(-115.701 -306.46)"/><path class="h" d="M125.7,341.376l-15.062-8.7V315.274l15.062,8.71Z" transform="translate(-110.634 -306.46)"/><path class="i" d="M130.866,326.783l-.01-.009Z" transform="translate(-115.692 -309.337)"/><path class="i" d="M130.883,326.81l-.005-.011Z" transform="translate(-115.698 -309.343)"/></g><g transform="translate(0 8.74)"><line class="a" x1="15.151" y2="8.747" transform="translate(15.126)"/><line class="a" y2="18.667" transform="translate(15.126 8.747)"/><line class="a" x2="15.126" y2="8.747"/></g></g></g></g></g></svg>