<svg id="uuid-3854c186-e96b-4f35-97aa-68b73220f875" xmlns="http://www.w3.org/2000/svg" viewBox="0 0 1080 1080"><defs><style>.uuid-1651259a-f05c-44c9-94e5-26e5276967dd{fill:#e00}</style></defs><path class="uuid-1651259a-f05c-44c9-94e5-26e5276967dd" d="M679.012 529.383a3.704 3.704 0 0 0 0-7.408 3.704 3.704 0 1 0 0 7.408ZM679.012 559.012a3.705 3.705 0 0 1 3.704 3.704 3.705 3.705 0 0 1-3.704 3.704 3.705 3.705 0 0 1-3.703-3.704 3.705 3.705 0 0 1 3.703-3.704ZM679.012 603.457a3.704 3.704 0 0 0 0-7.408 3.704 3.704 0 0 0 0 7.408ZM679.012 640.494a3.704 3.704 0 0 0 0-7.408 3.704 3.704 0 0 0 0 7.408ZM679.012 677.53a3.704 3.704 0 0 0 0-7.406 3.704 3.704 0 0 0 0 7.407ZM679.012 714.568a3.704 3.704 0 0 0 0-7.408 3.704 3.704 0 0 0 0 7.408ZM679.012 751.605a3.704 3.704 0 0 0 0-7.407 3.704 3.704 0 1 0 0 7.407ZM679.012 788.642a3.704 3.704 0 0 0 0-7.408 3.704 3.704 0 0 0 0 7.408ZM679.012 818.272a3.705 3.705 0 0 1 3.704 3.703 3.705 3.705 0 0 1-3.704 3.704 3.705 3.705 0 0 1-3.703-3.704 3.705 3.705 0 0 1 3.703-3.703ZM679.012 862.716a3.704 3.704 0 0 0 0-7.407 3.704 3.704 0 0 0 0 7.407ZM641.975 492.346a3.704 3.704 0 0 0 0-7.408 3.704 3.704 0 0 0 0 7.408ZM660.494 510.864a3.704 3.704 0 1 0 0-7.407 3.704 3.704 0 0 0 0 7.407ZM641.975 529.383a3.704 3.704 0 0 0 0-7.408 3.704 3.704 0 1 0 0 7.408ZM679.012 492.346a3.704 3.704 0 0 0 0-7.408 3.704 3.704 0 0 0 0 7.408ZM660.494 547.901a3.704 3.704 0 1 0 0-7.407 3.704 3.704 0 0 0 0 7.407Z"/><rect class="uuid-1651259a-f05c-44c9-94e5-26e5276967dd" x="638.271" y="559.012" width="7.407" height="7.407" rx="3.704" ry="3.704"/><path class="uuid-1651259a-f05c-44c9-94e5-26e5276967dd" d="M660.494 584.938a3.704 3.704 0 1 0 0-7.407 3.704 3.704 0 0 0 0 7.407ZM641.975 603.457a3.704 3.704 0 0 0 0-7.408 3.704 3.704 0 0 0 0 7.408ZM660.494 621.975a3.704 3.704 0 1 0 0-7.407 3.704 3.704 0 0 0 0 7.407ZM641.975 640.494a3.704 3.704 0 0 0 0-7.408 3.704 3.704 0 0 0 0 7.408ZM660.494 659.012a3.704 3.704 0 1 0 0-7.407 3.704 3.704 0 0 0 0 7.407ZM641.975 677.53a3.704 3.704 0 0 0 0-7.406 3.704 3.704 0 0 0 0 7.407ZM660.494 696.05a3.704 3.704 0 1 0 0-7.408 3.704 3.704 0 0 0 0 7.407ZM641.975 714.568a3.704 3.704 0 0 0 0-7.408 3.704 3.704 0 0 0 0 7.408ZM660.494 733.087a3.704 3.704 0 1 0 0-7.408 3.704 3.704 0 0 0 0 7.408ZM641.975 751.605a3.704 3.704 0 0 0 0-7.407 3.704 3.704 0 1 0 0 7.407ZM660.494 770.124a3.704 3.704 0 1 0 0-7.408 3.704 3.704 0 0 0 0 7.408ZM641.975 788.642a3.704 3.704 0 0 0 0-7.408 3.704 3.704 0 0 0 0 7.408ZM660.494 807.16a3.704 3.704 0 1 0 0-7.407 3.704 3.704 0 0 0 0 7.407Z"/><rect class="uuid-1651259a-f05c-44c9-94e5-26e5276967dd" x="638.271" y="818.272" width="7.407" height="7.407" rx="3.704" ry="3.704"/><path class="uuid-1651259a-f05c-44c9-94e5-26e5276967dd" d="M660.494 844.198a3.704 3.704 0 1 0 0-7.408 3.704 3.704 0 0 0 0 7.408ZM641.975 862.716a3.704 3.704 0 0 0 0-7.407 3.704 3.704 0 0 0 0 7.407ZM604.938 492.346a3.704 3.704 0 1 0 0-7.408 3.704 3.704 0 0 0 0 7.408ZM623.457 510.864a3.704 3.704 0 1 0 0-7.407 3.704 3.704 0 0 0 0 7.407ZM604.938 529.383a3.704 3.704 0 1 0 0-7.408 3.704 3.704 0 0 0 0 7.408ZM623.457 547.901a3.704 3.704 0 1 0 0-7.407 3.704 3.704 0 0 0 0 7.407ZM601.234 562.716a3.704 3.704 0 0 0 7.408 0 3.704 3.704 0 0 0-7.408 0ZM623.457 584.938a3.704 3.704 0 1 0 0-7.407 3.704 3.704 0 0 0 0 7.407ZM604.938 603.457a3.704 3.704 0 1 0 0-7.408 3.704 3.704 0 0 0 0 7.408ZM623.457 621.975a3.704 3.704 0 1 0 0-7.407 3.704 3.704 0 0 0 0 7.407ZM604.938 640.494a3.704 3.704 0 1 0 0-7.408 3.704 3.704 0 0 0 0 7.408Z"/><circle class="uuid-1651259a-f05c-44c9-94e5-26e5276967dd" cx="623.457" cy="655.309" r="3.704"/><path class="uuid-1651259a-f05c-44c9-94e5-26e5276967dd" d="M604.938 677.53a3.704 3.704 0 1 0 0-7.406 3.704 3.704 0 0 0 0 7.407ZM623.457 696.05a3.704 3.704 0 1 0 0-7.408 3.704 3.704 0 0 0 0 7.407ZM604.938 714.568a3.704 3.704 0 1 0 0-7.407 3.704 3.704 0 0 0 0 7.407ZM623.457 733.087a3.704 3.704 0 1 0 0-7.408 3.704 3.704 0 0 0 0 7.408ZM604.938 751.605a3.704 3.704 0 1 0 0-7.408 3.704 3.704 0 0 0 0 7.408ZM623.457 770.124a3.704 3.704 0 1 0 0-7.408 3.704 3.704 0 0 0 0 7.408ZM604.938 788.642a3.704 3.704 0 1 0 0-7.407 3.704 3.704 0 0 0 0 7.407ZM623.457 807.16a3.704 3.704 0 1 0 0-7.407 3.704 3.704 0 0 0 0 7.407ZM601.234 821.975a3.704 3.704 0 0 0 7.408 0 3.704 3.704 0 0 0-7.408 0ZM623.457 844.198a3.704 3.704 0 1 0 0-7.408 3.704 3.704 0 0 0 0 7.408ZM604.938 862.716a3.704 3.704 0 1 0 0-7.408 3.704 3.704 0 0 0 0 7.408ZM567.901 492.346a3.704 3.704 0 0 0 0-7.408 3.704 3.704 0 1 0 0 7.408ZM586.42 510.864a3.704 3.704 0 1 0 0-7.407 3.704 3.704 0 0 0 0 7.407ZM567.901 529.383a3.704 3.704 0 0 0 0-7.408 3.704 3.704 0 1 0 0 7.408ZM586.42 547.901a3.704 3.704 0 1 0 0-7.407 3.704 3.704 0 0 0 0 7.407ZM567.901 559.012a3.705 3.705 0 0 1 3.704 3.704 3.705 3.705 0 0 1-3.704 3.704 3.705 3.705 0 0 1-3.704-3.704 3.705 3.705 0 0 1 3.704-3.704ZM586.42 584.938a3.704 3.704 0 1 0 0-7.407 3.704 3.704 0 0 0 0 7.407ZM567.901 603.457a3.704 3.704 0 0 0 0-7.408 3.704 3.704 0 1 0 0 7.408ZM586.42 621.975a3.704 3.704 0 1 0 0-7.407 3.704 3.704 0 0 0 0 7.407ZM567.901 640.494a3.704 3.704 0 0 0 0-7.408 3.704 3.704 0 1 0 0 7.408ZM586.42 659.012a3.704 3.704 0 1 0 0-7.407 3.704 3.704 0 0 0 0 7.407ZM567.901 677.53a3.704 3.704 0 0 0 0-7.406 3.704 3.704 0 1 0 0 7.407ZM586.42 696.05a3.704 3.704 0 1 0 0-7.408 3.704 3.704 0 0 0 0 7.407ZM567.901 714.568a3.704 3.704 0 0 0 0-7.408 3.704 3.704 0 0 0 0 7.408ZM586.42 733.087a3.704 3.704 0 1 0 0-7.408 3.704 3.704 0 0 0 0 7.408ZM567.901 751.605a3.704 3.704 0 0 0 0-7.407 3.704 3.704 0 1 0 0 7.407ZM586.42 770.124a3.704 3.704 0 1 0 0-7.408 3.704 3.704 0 0 0 0 7.408ZM567.901 788.642a3.704 3.704 0 0 0 0-7.408 3.704 3.704 0 0 0 0 7.408ZM586.42 807.16a3.704 3.704 0 1 0 0-7.407 3.704 3.704 0 0 0 0 7.407ZM567.901 818.272a3.705 3.705 0 0 1 3.704 3.703 3.705 3.705 0 0 1-3.704 3.704 3.705 3.705 0 0 1-3.704-3.704 3.705 3.705 0 0 1 3.704-3.703ZM586.42 844.198a3.704 3.704 0 1 0 0-7.408 3.704 3.704 0 0 0 0 7.408ZM567.901 862.716a3.704 3.704 0 0 0 0-7.407 3.704 3.704 0 1 0 0 7.407ZM530.864 492.346a3.704 3.704 0 0 0 0-7.408 3.704 3.704 0 0 0 0 7.408ZM549.383 510.864a3.704 3.704 0 1 0 0-7.407 3.704 3.704 0 0 0 0 7.407ZM530.864 529.383a3.704 3.704 0 0 0 0-7.408 3.704 3.704 0 1 0 0 7.408ZM549.383 547.901a3.704 3.704 0 1 0 0-7.407 3.704 3.704 0 0 0 0 7.407ZM530.864 559.012a3.705 3.705 0 0 1 3.704 3.704 3.705 3.705 0 0 1-3.704 3.704 3.705 3.705 0 0 1-3.704-3.704 3.705 3.705 0 0 1 3.704-3.704ZM549.383 584.938a3.704 3.704 0 1 0 0-7.407 3.704 3.704 0 0 0 0 7.407ZM530.864 603.457a3.704 3.704 0 0 0 0-7.408 3.704 3.704 0 0 0 0 7.408ZM549.383 621.975a3.704 3.704 0 1 0 0-7.407 3.704 3.704 0 0 0 0 7.407ZM530.864 640.494a3.704 3.704 0 0 0 0-7.408 3.704 3.704 0 0 0 0 7.408ZM549.383 659.012a3.704 3.704 0 1 0 0-7.407 3.704 3.704 0 0 0 0 7.407ZM530.864 677.53a3.704 3.704 0 0 0 0-7.406 3.704 3.704 0 0 0 0 7.407ZM549.383 696.05a3.704 3.704 0 1 0 0-7.408 3.704 3.704 0 0 0 0 7.407ZM530.864 714.568a3.704 3.704 0 0 0 0-7.408 3.704 3.704 0 0 0 0 7.408ZM549.383 733.087a3.704 3.704 0 1 0 0-7.408 3.704 3.704 0 0 0 0 7.408ZM530.864 751.605a3.704 3.704 0 0 0 0-7.407 3.704 3.704 0 1 0 0 7.407ZM549.383 770.124a3.704 3.704 0 1 0 0-7.408 3.704 3.704 0 0 0 0 7.408ZM530.864 788.642a3.704 3.704 0 0 0 0-7.408 3.704 3.704 0 0 0 0 7.408ZM549.383 807.16a3.704 3.704 0 1 0 0-7.407 3.704 3.704 0 0 0 0 7.407ZM530.864 818.272a3.705 3.705 0 0 1 3.704 3.703 3.705 3.705 0 0 1-3.704 3.704 3.705 3.705 0 0 1-3.704-3.704 3.705 3.705 0 0 1 3.704-3.703ZM549.383 844.198a3.704 3.704 0 1 0 0-7.408 3.704 3.704 0 0 0 0 7.408ZM530.864 862.716a3.704 3.704 0 0 0 0-7.407 3.704 3.704 0 0 0 0 7.407ZM512.346 510.864a3.704 3.704 0 1 0 0-7.407 3.704 3.704 0 0 0 0 7.407ZM493.827 529.383a3.704 3.704 0 1 0 0-7.408 3.704 3.704 0 0 0 0 7.408ZM512.346 547.901a3.704 3.704 0 1 0 0-7.407 3.704 3.704 0 0 0 0 7.407ZM490.123 562.716a3.704 3.704 0 0 0 7.408 0 3.704 3.704 0 0 0-7.408 0ZM512.346 584.938a3.704 3.704 0 1 0 0-7.407 3.704 3.704 0 0 0 0 7.407ZM493.827 603.457a3.704 3.704 0 1 0 0-7.408 3.704 3.704 0 0 0 0 7.408ZM512.346 621.975a3.704 3.704 0 1 0 0-7.407 3.704 3.704 0 0 0 0 7.407ZM493.827 640.494a3.704 3.704 0 1 0 0-7.408 3.704 3.704 0 0 0 0 7.408ZM512.346 659.012a3.704 3.704 0 1 0 0-7.407 3.704 3.704 0 0 0 0 7.407ZM493.827 677.53a3.704 3.704 0 1 0 0-7.406 3.704 3.704 0 0 0 0 7.407ZM512.346 696.05a3.704 3.704 0 1 0 0-7.408 3.704 3.704 0 0 0 0 7.407ZM493.827 714.568a3.704 3.704 0 1 0 0-7.407 3.704 3.704 0 0 0 0 7.407ZM512.346 733.087a3.704 3.704 0 1 0 0-7.408 3.704 3.704 0 0 0 0 7.408ZM493.827 751.605a3.704 3.704 0 1 0 0-7.408 3.704 3.704 0 0 0 0 7.408ZM512.346 770.124a3.704 3.704 0 1 0 0-7.408 3.704 3.704 0 0 0 0 7.408ZM493.827 788.642a3.704 3.704 0 1 0 0-7.407 3.704 3.704 0 0 0 0 7.407ZM512.346 807.16a3.704 3.704 0 1 0 0-7.407 3.704 3.704 0 0 0 0 7.407ZM490.123 821.975a3.704 3.704 0 0 0 7.408 0 3.704 3.704 0 0 0-7.408 0ZM512.346 844.198a3.704 3.704 0 1 0 0-7.408 3.704 3.704 0 0 0 0 7.408ZM493.827 862.716a3.704 3.704 0 1 0 0-7.408 3.704 3.704 0 0 0 0 7.408ZM475.309 547.901a3.704 3.704 0 1 0 0-7.407 3.704 3.704 0 0 0 0 7.407ZM456.79 566.42a3.704 3.704 0 1 0-3.704-3.704 3.704 3.704 0 0 0 3.704 3.704ZM475.309 584.938a3.704 3.704 0 1 0 0-7.407 3.704 3.704 0 0 0 0 7.407ZM456.79 603.457a3.704 3.704 0 1 0 0-7.408 3.704 3.704 0 0 0 0 7.408ZM475.309 621.975a3.704 3.704 0 1 0 0-7.407 3.704 3.704 0 0 0 0 7.407Z"/><circle class="uuid-1651259a-f05c-44c9-94e5-26e5276967dd" cx="456.79" cy="636.79" r="3.704"/><path class="uuid-1651259a-f05c-44c9-94e5-26e5276967dd" d="M475.309 659.012a3.704 3.704 0 1 0 0-7.407 3.704 3.704 0 0 0 0 7.407Z"/><circle class="uuid-1651259a-f05c-44c9-94e5-26e5276967dd" cx="456.79" cy="673.827" r="3.704"/><path class="uuid-1651259a-f05c-44c9-94e5-26e5276967dd" d="M475.309 696.05a3.704 3.704 0 1 0 0-7.408 3.704 3.704 0 0 0 0 7.407ZM456.79 714.568a3.703 3.703 0 1 0 0-7.407 3.703 3.703 0 0 0 0 7.407ZM475.309 733.087a3.704 3.704 0 1 0 0-7.408 3.704 3.704 0 0 0 0 7.408ZM456.79 751.605a3.704 3.704 0 1 0 0-7.407 3.704 3.704 0 0 0 0 7.407ZM475.309 770.124a3.704 3.704 0 1 0 0-7.408 3.704 3.704 0 0 0 0 7.408ZM456.79 788.642a3.703 3.703 0 1 0 0-7.407 3.703 3.703 0 0 0 0 7.407ZM475.309 807.16a3.704 3.704 0 1 0 0-7.407 3.704 3.704 0 0 0 0 7.407ZM453.086 821.975a3.704 3.704 0 0 0 7.408 0 3.704 3.704 0 0 0-7.408 0ZM475.309 844.198a3.704 3.704 0 1 0 0-7.408 3.704 3.704 0 0 0 0 7.408ZM456.79 862.716a3.704 3.704 0 1 0 0-7.407 3.704 3.704 0 0 0 0 7.407ZM438.272 584.938a3.704 3.704 0 1 0 0-7.407 3.704 3.704 0 0 0 0 7.407ZM419.753 603.457a3.704 3.704 0 0 0 0-7.408 3.704 3.704 0 0 0 0 7.408ZM438.272 621.975a3.704 3.704 0 1 0 0-7.407 3.704 3.704 0 0 0 0 7.407ZM419.753 640.494a3.703 3.703 0 0 0 0-7.408 3.704 3.704 0 0 0 0 7.408Z"/><circle class="uuid-1651259a-f05c-44c9-94e5-26e5276967dd" cx="438.272" cy="655.309" r="3.704"/><path class="uuid-1651259a-f05c-44c9-94e5-26e5276967dd" d="M419.753 677.53a3.703 3.703 0 0 0 0-7.406 3.704 3.704 0 0 0 0 7.407ZM438.272 696.05a3.704 3.704 0 1 0 0-7.408 3.704 3.704 0 0 0 0 7.407ZM419.753 714.568a3.703 3.703 0 0 0 0-7.408 3.704 3.704 0 0 0 0 7.408ZM438.272 733.087a3.704 3.704 0 1 0 0-7.408 3.704 3.704 0 0 0 0 7.408ZM419.753 751.605a3.704 3.704 0 0 0 0-7.407 3.704 3.704 0 1 0 0 7.407ZM438.272 770.124a3.704 3.704 0 1 0 0-7.408 3.704 3.704 0 0 0 0 7.408ZM419.753 788.642a3.703 3.703 0 0 0 0-7.408 3.704 3.704 0 0 0 0 7.408ZM438.272 807.16a3.704 3.704 0 1 0 0-7.407 3.704 3.704 0 0 0 0 7.407ZM419.753 818.272a3.705 3.705 0 0 1 3.704 3.703 3.705 3.705 0 0 1-3.704 3.704 3.705 3.705 0 0 1-3.704-3.703 3.705 3.705 0 0 1 3.704-3.704ZM438.272 844.198a3.704 3.704 0 1 0 0-7.408 3.704 3.704 0 0 0 0 7.408ZM419.753 862.716a3.704 3.704 0 0 0 0-7.407 3.704 3.704 0 0 0 0 7.407ZM401.234 621.975a3.704 3.704 0 1 0 0-7.407 3.704 3.704 0 0 0 0 7.407ZM382.716 640.494a3.704 3.704 0 0 0 0-7.408 3.704 3.704 0 0 0 0 7.408ZM401.234 659.012a3.704 3.704 0 1 0 0-7.407 3.704 3.704 0 0 0 0 7.407ZM382.716 677.53a3.704 3.704 0 0 0 0-7.406 3.704 3.704 0 0 0 0 7.407ZM401.234 696.05a3.704 3.704 0 1 0 0-7.408 3.704 3.704 0 0 0 0 7.407ZM382.716 714.568a3.704 3.704 0 0 0 0-7.408 3.704 3.704 0 0 0 0 7.408ZM401.234 733.087a3.704 3.704 0 1 0 0-7.408 3.704 3.704 0 0 0 0 7.408ZM382.716 751.605a3.704 3.704 0 0 0 0-7.407 3.704 3.704 0 1 0 0 7.407ZM401.234 770.124a3.704 3.704 0 1 0 0-7.408 3.704 3.704 0 0 0 0 7.408ZM382.716 788.642a3.704 3.704 0 0 0 0-7.408 3.704 3.704 0 0 0 0 7.408ZM401.234 807.16a3.704 3.704 0 1 0 0-7.407 3.704 3.704 0 0 0 0 7.407Z"/><rect class="uuid-1651259a-f05c-44c9-94e5-26e5276967dd" x="379.012" y="818.272" width="7.407" height="7.407" rx="3.704" ry="3.704"/><path class="uuid-1651259a-f05c-44c9-94e5-26e5276967dd" d="M401.234 844.198a3.704 3.704 0 1 0 0-7.408 3.704 3.704 0 0 0 0 7.408ZM382.716 862.716a3.704 3.704 0 0 0 0-7.407 3.704 3.704 0 0 0 0 7.407ZM364.197 659.012a3.704 3.704 0 1 0 0-7.407 3.704 3.704 0 0 0 0 7.407ZM345.679 677.53a3.704 3.704 0 1 0 0-7.406 3.704 3.704 0 0 0 0 7.407ZM364.197 696.05a3.704 3.704 0 1 0 0-7.408 3.704 3.704 0 0 0 0 7.407ZM345.679 714.568a3.704 3.704 0 1 0 0-7.407 3.704 3.704 0 0 0 0 7.407ZM364.197 733.087a3.704 3.704 0 1 0 0-7.408 3.704 3.704 0 0 0 0 7.408ZM345.679 751.605a3.704 3.704 0 1 0 0-7.408 3.704 3.704 0 0 0 0 7.408ZM364.197 770.124a3.704 3.704 0 1 0 0-7.408 3.704 3.704 0 0 0 0 7.408ZM345.679 788.642a3.704 3.704 0 1 0 0-7.407 3.704 3.704 0 0 0 0 7.407ZM364.197 807.16a3.704 3.704 0 1 0 0-7.407 3.704 3.704 0 0 0 0 7.407ZM341.975 821.975a3.704 3.704 0 0 0 7.408 0 3.704 3.704 0 0 0-7.408 0ZM364.197 844.198a3.704 3.704 0 1 0 0-7.408 3.704 3.704 0 0 0 0 7.408ZM345.679 862.716a3.704 3.704 0 1 0 0-7.408 3.704 3.704 0 0 0 0 7.408ZM327.16 696.05a3.704 3.704 0 1 0 0-7.408 3.704 3.704 0 0 0 0 7.407ZM308.642 714.568a3.704 3.704 0 0 0 0-7.408 3.704 3.704 0 0 0 0 7.408ZM327.16 733.087a3.704 3.704 0 1 0 0-7.408 3.704 3.704 0 0 0 0 7.408ZM308.642 751.605a3.704 3.704 0 0 0 0-7.407 3.704 3.704 0 1 0 0 7.407ZM327.16 770.124a3.704 3.704 0 1 0 0-7.408 3.704 3.704 0 0 0 0 7.408ZM308.642 788.642a3.704 3.704 0 0 0 0-7.408 3.704 3.704 0 0 0 0 7.408ZM327.16 807.16a3.704 3.704 0 1 0 0-7.407 3.704 3.704 0 0 0 0 7.407Z"/><rect class="uuid-1651259a-f05c-44c9-94e5-26e5276967dd" x="304.938" y="818.272" width="7.407" height="7.407" rx="3.704" ry="3.704"/><path class="uuid-1651259a-f05c-44c9-94e5-26e5276967dd" d="M327.16 844.198a3.704 3.704 0 1 0 0-7.408 3.704 3.704 0 0 0 0 7.408ZM308.642 862.716a3.704 3.704 0 0 0 0-7.407 3.704 3.704 0 0 0 0 7.407ZM290.123 733.087a3.704 3.704 0 1 0 0-7.408 3.704 3.704 0 0 0 0 7.408ZM271.605 751.605a3.704 3.704 0 0 0 0-7.407 3.704 3.704 0 1 0 0 7.407ZM290.123 770.124a3.704 3.704 0 1 0 0-7.408 3.704 3.704 0 0 0 0 7.408ZM271.605 788.642a3.704 3.704 0 0 0 0-7.408 3.704 3.704 0 0 0 0 7.408ZM290.123 807.16a3.704 3.704 0 1 0 0-7.407 3.704 3.704 0 0 0 0 7.407Z"/><rect class="uuid-1651259a-f05c-44c9-94e5-26e5276967dd" x="267.901" y="818.272" width="7.407" height="7.407" rx="3.704" ry="3.704"/><path class="uuid-1651259a-f05c-44c9-94e5-26e5276967dd" d="M290.123 844.198a3.704 3.704 0 1 0 0-7.408 3.704 3.704 0 0 0 0 7.408ZM271.605 862.716a3.704 3.704 0 0 0 0-7.407 3.704 3.704 0 0 0 0 7.407ZM253.086 770.124a3.704 3.704 0 1 0 0-7.408 3.704 3.704 0 0 0 0 7.408ZM234.568 788.642a3.704 3.704 0 1 0 0-7.407 3.704 3.704 0 0 0 0 7.407ZM253.086 807.16a3.704 3.704 0 1 0 0-7.407 3.704 3.704 0 0 0 0 7.407ZM230.864 821.975a3.704 3.704 0 0 0 7.407 0 3.704 3.704 0 0 0-7.407 0ZM253.086 844.198a3.704 3.704 0 1 0 0-7.408 3.704 3.704 0 0 0 0 7.408ZM234.568 862.716a3.704 3.704 0 1 0 0-7.408 3.704 3.704 0 0 0 0 7.408ZM216.05 807.16a3.704 3.704 0 1 0 0-7.407 3.704 3.704 0 0 0 0 7.407ZM197.53 825.679a3.704 3.704 0 1 0-3.704-3.704 3.704 3.704 0 0 0 3.705 3.704ZM216.05 844.198a3.704 3.704 0 1 0 0-7.408 3.704 3.704 0 0 0 0 7.408ZM197.53 862.716a3.704 3.704 0 1 0 0-7.408 3.704 3.704 0 0 0 0 7.408ZM175.309 840.494a3.704 3.704 0 1 0 7.407 0 3.704 3.704 0 0 0-7.407 0ZM160.494 855.309a3.704 3.704 0 0 0 0 7.407 3.704 3.704 0 0 0 0-7.407ZM689.114 132.873c-42.927 11.434-80.594 42.623-103.343 85.572a2.5 2.5 0 1 0 4.418 2.34c22.1-41.722 58.625-72.005 100.212-83.08a2.501 2.501 0 0 0-1.287-4.832Z"/><path class="uuid-1651259a-f05c-44c9-94e5-26e5276967dd" d="M1042.497 392.135c.213-31.596-10.861-62.29-31.18-86.427-19.713-23.417-46.941-39.365-76.83-45.043-17.511-94.156-99.445-162.783-195.485-163.43-.454-.003-.905-.005-1.36-.005-49.13 0-96.323 17.937-133.022 50.587a201.635 201.635 0 0 0-17.47 17.597c-29.326-25.521-65.323-46.937-104.302-61.993-39.094-15.1-79.491-23.215-116.823-23.466-46.022-.295-90.577 8.78-132.427 27.017-38.752 16.886-73.362 40.795-102.979 71.072a12.253 12.253 0 0 0-10.3-.975c-6.394 2.268-9.74 9.29-7.471 15.684 2.267 6.395 9.29 9.74 15.684 7.473 6.395-2.268 9.74-9.29 7.473-15.685a12.275 12.275 0 0 0-1.668-3.148c29.133-29.745 63.164-53.238 101.258-69.837 41.206-17.956 85.058-26.865 130.397-26.6 36.733.246 76.518 8.244 115.054 23.13 38.457 14.853 73.954 35.97 102.851 61.125-24.216 28.994-39.82 64.286-44.77 102.008a127.072 127.072 0 0 0-26.408-2.977c-33.81-.19-65.713 12.73-89.792 36.487-13.014 12.84-22.897 28.006-29.275 44.57h-278.19v242.73a589.69 589.69 0 0 0 5 8.454v-123.47H690.64v386.92H120.462V623.618a328.872 328.872 0 0 0 46.294 42.773c-2.197 3.143-2.904 7.258-1.525 11.148 2.268 6.394 9.29 9.74 15.685 7.472s9.74-9.29 7.472-15.684-9.29-9.74-15.684-7.473c-.802.285-1.556.644-2.256 1.067-37.886-28.615-69.357-65.644-91.37-107.614-24.279-46.29-36.925-98.573-36.57-151.195.278-41.362 8.274-81.406 23.735-119.225 2.274.576 4.737.512 7.114-.331 6.394-2.268 9.74-9.29 7.472-15.685-2.267-6.394-9.29-9.74-15.684-7.472-6.395 2.268-9.74 9.29-7.473 15.685a12.218 12.218 0 0 0 4.068 5.604c-15.786 38.501-23.949 79.275-24.233 121.39-.36 53.44 12.485 106.537 37.144 153.552 11.286 21.52 25.025 41.758 40.81 60.266v251.036h46.88v43.246h315.406c21.326 21.367 45.826 39.561 72.456 53.593 41.944 22.1 89.346 33.952 137.08 34.274.696.005 1.385.007 2.08.007 60.67 0 118.59-17.91 168.315-51.94a11.236 11.236 0 0 0 11.25 2.215c5.85-2.075 8.912-8.5 6.837-14.35s-8.5-8.912-14.35-6.837c-5.851 2.075-8.912 8.5-6.837 14.35.065.184.147.357.22.534-48.88 33.436-105.8 51.028-165.436 51.028-.68 0-1.365-.002-2.045-.007-46.937-.316-93.544-11.968-134.783-33.698-24.712-13.021-47.572-29.676-67.692-49.169h252.677V523.031l171.14 1.152c.307.002.613.003.92.003.72 0 1.44-.014 2.159-.026-4.434-6.491-11.47-14.846-22.57-25.434-10.79-10.29-21.53-18.938-26.568-22.877l-125.08-.842v-77.461h-41.88v-48.247H399.03c6.14-15.209 15.381-29.145 27.409-41.011 23.127-22.819 53.74-35.273 86.247-35.046 9.363.063 18.78 1.23 27.99 3.468l2.744.667.329-2.806c4.513-38.565 20.424-74.65 45.475-103.935.016-.016.035-.028.05-.046.017-.019.028-.041.044-.061a196.694 196.694 0 0 1 18.625-18.977c36.114-32.128 82.663-49.68 131.026-49.317 94.21.634 174.498 68.35 190.905 161.013l.306 1.722 1.722.304c24.2 4.265 46.66 15.523 64.633 32.175 6.001 15.128 9.262 31.636 9.146 48.914-.461 68.434-53.541 124.191-120.608 129.19a299.165 299.165 0 0 0-53.26-36.935 11.184 11.184 0 0 0-.597-4.73c-2.075-5.85-8.5-8.911-14.35-6.837-5.85 2.075-8.912 8.5-6.837 14.35 2.075 5.851 8.5 8.912 14.35 6.837a11.193 11.193 0 0 0 5.861-4.779c43.97 24.077 81.123 59.014 107.934 101.653 29.747 47.307 45.27 101.992 44.892 158.14-.389 57.778-17.351 113.127-49.17 160.8a11.189 11.189 0 0 0-6.61.277c-5.85 2.075-8.91 8.5-6.836 14.35s8.5 8.911 14.35 6.837c5.851-2.075 8.912-8.5 6.837-14.35a11.177 11.177 0 0 0-3.293-4.779C970.518 818 987.672 761.87 988.067 703.285c.384-57.103-15.405-112.718-45.66-160.834a300.795 300.795 0 0 0-13.497-19.67c27.851-4.038 53.607-16.769 74.016-36.904 25.278-24.94 39.332-58.232 39.571-93.743ZM384.91 417.506H175.446a2.5 2.5 0 1 1 0-5H384.91a2.5 2.5 0 1 1 0 5Zm242.135-10.755a8.256 8.256 0 1 1-.111 16.511 8.256 8.256 0 0 1 .11-16.511Zm-41.28 0a8.256 8.256 0 1 1-.111 16.511 8.256 8.256 0 0 1 .11-16.511Z"/></svg>