<svg viewBox="0 0 877 477" xmlns="http://www.w3.org/2000/svg" fill-rule="evenodd" clip-rule="evenodd" stroke-linejoin="round" stroke-miterlimit="2"><path d="M484.915 259.434c-.004 7.58.07 15.17-.013 22.746-.179 15.404-8.454 24.642-23.825 25.25-14.833.587-29.72.517-44.558.017-14.096-.471-22.13-7.538-23.53-21.65-1.64-16.571-1.807-33.342.122-49.905 1.625-13.97 9.883-20.725 24.008-20.946 14.85-.229 29.713-.045 44.567-.062 18.446-.017 28.808-17.833 29.496-36.18a678.64 678.64 0 00.008-50.94c-.65-17.147-11.08-35.618-28.363-35.938-15.454-.28-30.92.045-46.383-.105-13.817-.129-21.85-6.525-23.367-20.308-1.854-16.867-1.795-33.946-.058-50.82C394.4 7.204 403.161.22 416.415.104c14.854-.134 29.712-.146 44.567 0 14.55.137 23.675 9.25 23.879 24.029.217 15.77-.03 31.546.079 47.317.113 16.783 9.846 35.87 26.6 36 15.463.12 30.925-.059 46.383.05 15.846.112 24.942 9.079 25.067 24.712.113 14.558.146 29.125-.008 43.68-.154 14.628-8.621 23.1-23.221 23.237-14.854.146-29.717-.109-44.567.066-21.066.259-30.262 19.146-30.279 40.217-.004 6.675 0 13.346 0 20.021" fill="#281e78" fill-rule="nonzero"/><path d="M293.309 152.717c.004-8.35-.192-16.7.05-25.041.413-14.146 9.33-23.254 23.37-23.513a1286.85 1286.85 0 0147.284.004c12.696.23 22.159 8.605 22.696 21.171.708 16.667.7 33.404.013 50.067-.58 13.842-10.025 22.03-24.663 22.337-15.442.33-30.904-.05-46.354.125-19.871.234-28.842 18.784-28.959 38.759-.083 14.841.138 29.683-.062 44.525-.23 17.129-9.517 26.392-26.517 26.579-13.591.146-27.191.167-40.787 0-17.338-.22-26.288-9.27-26.346-26.412-.05-14.221-.096-28.442.017-42.667.133-15.725 8.966-24.7 24.8-24.921 15.758-.225 31.525 0 47.283-.075 18.096-.08 28.062-19.504 28.162-37.75.046-7.73.009-15.458.013-23.188" fill="#0085ad" fill-rule="nonzero"/><path d="M593.183 260.162c0-7.42-.05-14.842.017-22.258.116-14.159 8.587-23.484 22.712-23.892 15.742-.462 31.525-.5 47.267.004 13.558.434 22.133 9.875 22.242 23.425.112 14.838.062 29.68.016 44.513-.054 15.779-7.316 24.383-23.216 25.296-15.088.858-30.296.816-45.4.046-16.321-.842-23.584-9.417-23.634-25.805-.02-7.108-.004-14.22-.004-21.329" fill="#db6b30" fill-rule="nonzero"/><path d="M44.813 383.738L0 476.926h12.925l12.18-25.546h50.024l12.309 25.546h13.191l-44.816-93.188h-11zm25.1 56.659H30.32l19.854-41.704 19.738 41.704zm94.235 20.428l-35.52-77.083h-13.293l43.03 93.187h11.033l43.17-93.187h-12.9l-35.52 77.083zm113.235-77.087l-44.813 93.188h12.925l12.18-25.546H307.7l12.312 25.546H333.2l-44.817-93.188h-11zm25.1 56.659h-39.592l19.855-41.704 19.737 41.704zm151.951 16.831l-59.608-73.487h-14.521v93.192h11.779v-78l62.838 77.408.47.592h10.821V383.74h-11.779v73.487zm57.047-62.504h37.063v82.205h12.045v-82.205h37.2v-10.987h-86.308v10.987zm219.865 16.285c0-17.33-11-27.267-30.18-27.267h-55.333v93.188h12.046v-38.521h35.996l28.6 38.52h14.809l-28.967-38.987c14.683-2.233 23.029-11.92 23.029-26.933m-73.467-16.288h41.434c13.458 0 19.725 5.18 19.725 16.288 0 11.196-6.267 16.408-19.725 16.408h-41.434v-32.696zm173.74-10.983h-11l-44.813 93.188h12.93l12.179-25.546h50.02l12.309 25.546h13.188l-44.813-93.188zm14.1 56.659h-39.583l19.845-41.704 19.738 41.704z" fill="#13294b" fill-rule="nonzero"/><path d="M806.13 440.395l19.854-41.704 19.734 41.704H806.13zm25.483-56.659h-10.987l-44.813 93.196h12.921l12.175-25.55h50.025l12.313 25.55h13.187l-44.82-93.196z" fill="#13294b" fill-rule="nonzero"/></svg>