<?xml version="1.0" encoding="utf-8"?>
<!-- Generator: Adobe Illustrator 28.0.0, SVG Export Plug-In . SVG Version: 6.00 Build 0)  -->
<svg version="1.1" id="Layer_1" xmlns="http://www.w3.org/2000/svg" xmlns:xlink="http://www.w3.org/1999/xlink" x="0px" y="0px"
	 viewBox="0 0 51 29" style="enable-background:new 0 0 51 29;" xml:space="preserve">
<style type="text/css">
	.st0{opacity:0.15;fill:#FCFCFC;}
	.st1{opacity:0.15;}
	.st2{fill:#FCFCFC;}
</style>
<circle class="st0" cx="17.7" cy="12.7" r="3.1"/>
<circle class="st0" cx="32.7" cy="12.7" r="3.1"/>
<g class="st1">
	<g>
		<path class="st2" d="M23.3,26.7c-3.1,0-3.4-0.1-3.7-0.3c-0.6-0.3-1.4-1-2.7-2.1c-0.5-0.4-1.4-1.1-1.4-1.1s0-1.2,0.2-1.5
			c0.2-0.3,1.3-0.5,1.3-0.5s0.4,0.3,0.7,0.6c0.2,0.2,0.5,0.4,0.7,0.6c0.7,0.6,1.7,1.4,2.1,1.7c1.1,0.2,7.5,0.1,13.2-0.2
			c0,0,0.6,0,0.6,1.3c0,0.9-0.5,1.2-0.5,1.2c-2.8,0.1-5.1,0.2-6.6,0.2C25.6,26.6,24.3,26.7,23.3,26.7z M20.6,24.1L20.6,24.1z"/>
	</g>
</g>
<path class="st0" d="M4,10.2h1.2v15H4c-2.1,0-3.7-1.7-3.7-3.7V14C0.2,11.9,1.9,10.2,4,10.2z"/>
<path class="st0" d="M46.4,10.2c2.1,0,3.7,1.7,3.7,3.7v7.5c0,2.1-1.7,3.7-3.7,3.7h-1.2v-15L46.4,10.2L46.4,10.2z"/>
<path class="st0" d="M37.1,0.2h-0.9l1.3-4.8L35.9-5l-1.4,5.2H16.3L14-4.9l-1.5,0.7l2,4.5h-1.2c-3.1,0-5.6,2.5-5.6,5.6v21.2
	c0,3.1,2.5,5.6,5.6,5.6h23.7c3.1,0,5.6-2.5,5.6-5.6V5.9C42.7,2.7,40.2,0.2,37.1,0.2z M40.2,25.5L40.2,25.5c0,2.7-2.2,4.8-4.8,4.8
	H15.1c-2.7,0-4.8-2.1-4.8-4.8V7.4c0-2.7,2.1-4.8,4.8-4.8h20.3c2.7,0,4.8,2.1,4.8,4.8V25.5z M12.9-8.8c1.5,0,2.6,1.2,2.6,2.6
	s-1.2,2.6-2.6,2.6s-2.6-1.2-2.6-2.6S11.4-8.8,12.9-8.8z M37.5-8.8c1.5,0,2.6,1.2,2.6,2.6S39-3.6,37.5-3.6s-2.6-1.2-2.6-2.6
	S36.1-8.8,37.5-8.8z"/>
</svg>
