<?xml version="1.0" encoding="UTF-8"?><svg id="uuid-7e12404f-160b-420d-a536-76d4591dc14d" xmlns="http://www.w3.org/2000/svg" viewBox="0 0 36 36"><path d="M27.24,13.7s0-.08,0-.13c0-.04-.01-.08-.02-.11-.01-.04-.03-.07-.04-.11-.02-.04-.04-.07-.07-.11-.01-.02-.02-.04-.03-.05L18.44,4.56s-.01,0-.02-.01c-.05-.05-.11-.09-.18-.12,0,0,0,0,0,0-.1-.04-.21-.05-.32-.03-.03,0-.05,0-.08,.01-.1,.03-.2,.07-.28,.15L8.93,13.19s-.02,.04-.03,.05c-.03,.03-.05,.07-.07,.11-.02,.04-.03,.07-.04,.11-.01,.04-.02,.08-.02,.11,0,.04,0,.08,0,.13,0,.02,0,.04,0,.06l2.62,12.31v4.93c0,.35,.28,.62,.62,.62h12c.35,0,.62-.28,.62-.62v-4.93l2.62-12.31s0-.04,0-.06Zm-9.24,.93c1.81,.03,1.81,2.72,0,2.75-1.81-.03-1.81-2.72,0-2.75Zm-.62-1.17c-2.97,.76-2.46,5.12,.63,5.17,3.09-.04,3.59-4.41,.62-5.17V6.51l7.32,7.32-2.45,11.54H12.51l-2.45-11.54,7.32-7.32v6.95Zm6,16.92H12.62v-3.75h10.75v3.75Z"/></svg>