<?xml version="1.0" encoding="utf-8"?>
<!-- Generator: Adobe Illustrator 28.0.0, SVG Export Plug-In . SVG Version: 6.00 Build 0)  -->
<svg version="1.1"
	 id="Layer_1" xmlns:rdf="http://www.w3.org/1999/02/22-rdf-syntax-ns#" xmlns:cc="http://creativecommons.org/ns#" xmlns:dc="http://purl.org/dc/elements/1.1/"
	 xmlns="http://www.w3.org/2000/svg" xmlns:xlink="http://www.w3.org/1999/xlink" x="0px" y="0px" viewBox="0 0 15.6 14"
	 style="enable-background:new 0 0 15.6 14;" xml:space="preserve">
<style type="text/css">
	.st0{fill-rule:evenodd;clip-rule:evenodd;fill:#81B5A1;}
</style>
<path class="st0" d="M7.8,0.5C3.6,0.5,0.3,3.8,0.3,8c0,2.2,0.9,4.2,2.3,5.6C3.1,14,4,14,4.6,13.7c0.8-0.7,2-1.1,3.2-1.1
	c1.3,0,2.3,0.4,3.2,1.1c0.6,0.5,1.4,0.4,2-0.2c1.4-1.4,2.3-3.3,2.3-5.5C15.1,3.9,11.8,0.5,7.8,0.5 M7.7,11.9c-2.3,0-3.8-1.7-3.8-3.8
	s1.5-3.8,3.8-3.8s3.8,1.7,3.8,3.8S9.9,11.9,7.7,11.9"/>
</svg>
