<?xml version="1.0" encoding="utf-8"?>
<!-- Generator: Adobe Illustrator 28.0.0, SVG Export Plug-In . SVG Version: 6.00 Build 0)  -->
<svg version="1.1" id="Layer_1" xmlns="http://www.w3.org/2000/svg" xmlns:xlink="http://www.w3.org/1999/xlink" x="0px" y="0px"
	 viewBox="0 0 800 800" style="enable-background:new 0 0 800 800;" xml:space="preserve">
<style type="text/css">
	.st0{fill:#669933;}
</style>
<path class="st0" d="M625,66.7H175c-59.8,0-108.3,48.5-108.3,108.3v450c0,59.8,48.5,108.3,108.3,108.3h450
	c59.8,0,108.3-48.5,108.3-108.3V175C733.3,115.2,684.8,66.7,625,66.7z M560,435c0,1.7,0,3.3-3.3,5L245,596.7c-1.7,1.7-5-1.7-5-3.3
	v-80c0-1.7,0-3.3,1.7-3.3l226.7-113.3l-226.7-115c-1.7,0-1.7-1.7-1.7-3.3v-80c0-1.7,3.3-5,5-3.3l311.7,156.7c2.1,1.6,3.3,4,3.3,6.7
	L560,435z"/>
</svg>
