<?xml version="1.0" encoding="UTF-8"?>
<svg xmlns="http://www.w3.org/2000/svg" xmlns:xlink="http://www.w3.org/1999/xlink" viewBox="0 0 1907.45 1110.49">
  <defs>
    <style>
      .cls-1, .cls-2, .cls-3, .cls-4 {
        fill: none;
      }

      .cls-5 {
        clip-path: url(#clippath);
      }

      .cls-6, .cls-7 {
        fill: #fff;
      }

      .cls-8 {
        fill: #ed1c24;
      }

      .cls-9, .cls-10 {
        fill: #be2025;
      }

      .cls-11, .cls-12 {
        fill: #dbf0f7;
      }

      .cls-13 {
        fill: #25194c;
      }

      .cls-14, .cls-15 {
        fill: #93d2e5;
      }

      .cls-16 {
        fill: #396db5;
      }

      .cls-2 {
        stroke-width: 5px;
      }

      .cls-2, .cls-3, .cls-4 {
        stroke-linecap: round;
      }

      .cls-2, .cls-4 {
        stroke: #fff;
        stroke-linejoin: round;
      }

      .cls-15, .cls-12 {
        mix-blend-mode: multiply;
      }

      .cls-3 {
        stroke-dasharray: 0 0 0 24.31;
        stroke-width: 7.78px;
      }

      .cls-3, .cls-17 {
        stroke: #ed1c24;
      }

      .cls-3, .cls-17, .cls-7, .cls-18 {
        stroke-miterlimit: 10;
      }

      .cls-19 {
        clip-path: url(#clippath-1);
      }

      .cls-20 {
        clip-path: url(#clippath-4);
      }

      .cls-21 {
        clip-path: url(#clippath-3);
      }

      .cls-22 {
        clip-path: url(#clippath-2);
      }

      .cls-17 {
        stroke-width: 4.79px;
      }

      .cls-7 {
        stroke: #dbf0f7;
        stroke-width: 3.89px;
      }

      .cls-23 {
        isolation: isolate;
      }

      .cls-18 {
        stroke: #396db5;
        stroke-width: 3.86px;
      }

      .cls-4 {
        stroke-width: 3.68px;
      }

      .cls-10 {
        opacity: .5;
      }
    </style>
    <clipPath id="clippath">
      <polygon class="cls-1" points="1358.54 0 717.39 0 396.82 555.25 717.39 1110.49 1358.54 1110.49 1679.11 555.25 1358.54 0"/>
    </clipPath>
    <clipPath id="clippath-1">
      <polygon class="cls-1" points="1075.67 377.13 993.35 377.13 952.19 448.43 993.35 519.72 1075.67 519.72 1116.83 448.43 1075.67 377.13"/>
    </clipPath>
    <clipPath id="clippath-2">
      <polygon class="cls-1" points="446.12 875.24 282.85 780.97 59.8 815.48 .04 944.25 163.32 1038.52 386.36 1004.01 446.12 875.24"/>
    </clipPath>
    <clipPath id="clippath-3">
      <polygon class="cls-1" points="513.12 655.19 349.85 560.92 126.8 595.42 67.04 724.2 230.32 818.47 453.36 783.96 513.12 655.19"/>
    </clipPath>
    <clipPath id="clippath-4">
      <polygon class="cls-1" points="612.12 435.16 448.85 340.89 225.8 375.39 166.04 504.17 329.32 598.44 552.36 563.93 612.12 435.16"/>
    </clipPath>
  </defs>
  <g class="cls-23">
    <g id="Layer_2" data-name="Layer 2">
      <g id="Layer_1-2" data-name="Layer 1">
        <g>
          <polygon class="cls-11" points="1358.54 0 717.39 0 396.82 555.25 717.39 1110.49 1358.54 1110.49 1679.11 555.25 1358.54 0"/>
          <g class="cls-5">
            <rect class="cls-14" x="449.93" y="876.8" width="1129.03" height="301.3"/>
          </g>
          <path class="cls-16" d="M1343.23,899.67v-99.92h-135.4v100.21c0,12.87-8.7,24.11-21.16,27.34l-41.98,10.87h265.09l-45.06-11.07c-12.62-3.1-21.5-14.42-21.5-27.42Z"/>
          <polyline points="1206.83 896 1206.83 798.74 1342.23 798.74 1342.23 874.16"/>
          <g>
            <ellipse class="cls-13" cx="1262.94" cy="980.07" rx="191.94" ry="5.95"/>
            <line class="cls-2" x1="1076.13" y1="537.17" x2="1245.05" y2="537.17"/>
          </g>
          <g>
            <rect class="cls-8" x="946.71" y="263.13" width="711.07" height="449.67" transform="translate(1790.21 -814.28) rotate(90)"/>
            <rect class="cls-6" x="1094.44" y="149.46" width="415.6" height="677.01" transform="translate(2604.48 975.93) rotate(180)"/>
            <path class="cls-12" d="M1094.44,143.28s0,683.19,415.6,683.19h-415.6V143.28Z"/>
            <path d="M1094.44,155.39h398.24s11.8-.37,11.8,12.05V826.47h5.56V149.46h-415.6v5.92Z"/>
          </g>
          <rect class="cls-11" x="1144.7" y="938.16" width="265.09" height="36.78"/>
          <rect class="cls-15" x="1094.44" y="149.46" width="415.6" height="42.44"/>
          <g>
            <g>
              <rect class="cls-15" x="834.61" y="287.82" width="407.3" height="499.42"/>
              <g>
                <rect class="cls-17" x="727.6" y="274.26" width="526.63" height="495.18"/>
                <rect class="cls-8" x="727.6" y="274.26" width="526.63" height="58.71"/>
                <line class="cls-4" x1="757.03" y1="303.47" x2="974.61" y2="303.47"/>
                <g>
                  <circle class="cls-6" cx="1182.8" cy="303.47" r="8.58"/>
                  <circle class="cls-6" cx="1216.75" cy="303.47" r="8.58"/>
                </g>
              </g>
            </g>
            <g>
              <polygon class="cls-6" points="1075.67 377.13 993.35 377.13 952.19 448.43 993.35 519.72 1075.67 519.72 1116.83 448.43 1075.67 377.13"/>
              <g class="cls-19">
                <g>
                  <g>
                    <polygon class="cls-14" points="1011.45 475.23 993.99 465.15 970.14 468.84 963.75 482.6 981.21 492.68 1005.06 488.99 1011.45 475.23"/>
                    <polygon class="cls-14" points="1066.74 475.23 1049.28 465.15 1025.43 468.84 1019.04 482.6 1036.5 492.68 1060.35 488.99 1066.74 475.23"/>
                    <polygon class="cls-14" points="1122.03 475.23 1104.57 465.15 1080.72 468.84 1074.33 482.6 1091.79 492.68 1115.64 488.99 1122.03 475.23"/>
                    <polygon class="cls-14" points="1177.32 475.23 1159.86 465.15 1136.01 468.84 1129.63 482.6 1147.08 492.68 1170.93 488.99 1177.32 475.23"/>
                    <polygon class="cls-14" points="1232.61 475.23 1215.15 465.15 1191.31 468.84 1184.92 482.6 1202.37 492.68 1226.22 488.99 1232.61 475.23"/>
                    <polygon class="cls-14" points="1287.9 475.23 1270.44 465.15 1246.6 468.84 1240.21 482.6 1257.66 492.68 1281.51 488.99 1287.9 475.23"/>
                  </g>
                  <g>
                    <polygon class="cls-14" points="981.12 507.64 963.66 497.56 939.81 501.25 933.43 515.02 950.88 525.09 974.73 521.41 981.12 507.64"/>
                    <polygon class="cls-14" points="1036.41 507.64 1018.95 497.56 995.11 501.25 988.72 515.02 1006.17 525.09 1030.02 521.41 1036.41 507.64"/>
                    <polygon class="cls-14" points="1091.7 507.64 1074.24 497.56 1050.4 501.25 1044.01 515.02 1061.46 525.09 1085.31 521.41 1091.7 507.64"/>
                    <polygon class="cls-14" points="1146.99 507.64 1129.53 497.56 1105.69 501.25 1099.3 515.02 1116.75 525.09 1140.6 521.41 1146.99 507.64"/>
                    <polygon class="cls-14" points="1202.28 507.64 1184.82 497.56 1160.98 501.25 1154.59 515.02 1172.04 525.09 1195.89 521.41 1202.28 507.64"/>
                    <polygon class="cls-14" points="1257.57 507.64 1240.11 497.56 1216.27 501.25 1209.88 515.02 1227.34 525.09 1251.18 521.41 1257.57 507.64"/>
                  </g>
                  <g>
                    <polygon class="cls-14" points="1011.45 410.4 993.99 400.33 970.14 404.01 963.75 417.78 981.21 427.86 1005.06 424.17 1011.45 410.4"/>
                    <polygon class="cls-14" points="1066.74 410.4 1049.28 400.33 1025.43 404.01 1019.04 417.78 1036.5 427.86 1060.35 424.17 1066.74 410.4"/>
                    <polygon class="cls-14" points="1122.03 410.4 1104.57 400.33 1080.72 404.01 1074.33 417.78 1091.79 427.86 1115.64 424.17 1122.03 410.4"/>
                    <polygon class="cls-14" points="1177.32 410.4 1159.86 400.33 1136.01 404.01 1129.63 417.78 1147.08 427.86 1170.93 424.17 1177.32 410.4"/>
                    <polygon class="cls-14" points="1232.61 410.4 1215.15 400.33 1191.31 404.01 1184.92 417.78 1202.37 427.86 1226.22 424.17 1232.61 410.4"/>
                    <polygon class="cls-14" points="1287.9 410.4 1270.44 400.33 1246.6 404.01 1240.21 417.78 1257.66 427.86 1281.51 424.17 1287.9 410.4"/>
                  </g>
                  <g>
                    <polygon class="cls-14" points="981.12 442.82 963.66 432.74 939.81 436.43 933.43 450.19 950.88 460.27 974.73 456.58 981.12 442.82"/>
                    <polygon class="cls-14" points="1036.41 442.82 1018.95 432.74 995.11 436.43 988.72 450.19 1006.17 460.27 1030.02 456.58 1036.41 442.82"/>
                    <polygon class="cls-14" points="1091.7 442.82 1074.24 432.74 1050.4 436.43 1044.01 450.19 1061.46 460.27 1085.31 456.58 1091.7 442.82"/>
                    <polygon class="cls-14" points="1146.99 442.82 1129.53 432.74 1105.69 436.43 1099.3 450.19 1116.75 460.27 1140.6 456.58 1146.99 442.82"/>
                    <polygon class="cls-14" points="1202.28 442.82 1184.82 432.74 1160.98 436.43 1154.59 450.19 1172.04 460.27 1195.89 456.58 1202.28 442.82"/>
                    <polygon class="cls-14" points="1257.57 442.82 1240.11 432.74 1216.27 436.43 1209.88 450.19 1227.34 460.27 1251.18 456.58 1257.57 442.82"/>
                  </g>
                  <g>
                    <polygon class="cls-14" points="1011.45 345.58 993.99 335.5 970.14 339.19 963.75 352.96 981.21 363.04 1005.06 359.35 1011.45 345.58"/>
                    <polygon class="cls-14" points="1066.74 345.58 1049.28 335.5 1025.43 339.19 1019.04 352.96 1036.5 363.04 1060.35 359.35 1066.74 345.58"/>
                    <polygon class="cls-14" points="1122.03 345.58 1104.57 335.5 1080.72 339.19 1074.33 352.96 1091.79 363.04 1115.64 359.35 1122.03 345.58"/>
                    <polygon class="cls-14" points="1177.32 345.58 1159.86 335.5 1136.01 339.19 1129.63 352.96 1147.08 363.04 1170.93 359.35 1177.32 345.58"/>
                    <polygon class="cls-14" points="1232.61 345.58 1215.15 335.5 1191.31 339.19 1184.92 352.96 1202.37 363.04 1226.22 359.35 1232.61 345.58"/>
                    <polygon class="cls-14" points="1287.9 345.58 1270.44 335.5 1246.6 339.19 1240.21 352.96 1257.66 363.04 1281.51 359.35 1287.9 345.58"/>
                  </g>
                  <g>
                    <polygon class="cls-14" points="981.12 377.99 963.66 367.91 939.81 371.6 933.43 385.37 950.88 395.45 974.73 391.76 981.12 377.99"/>
                    <polygon class="cls-14" points="1036.41 377.99 1018.95 367.91 995.11 371.6 988.72 385.37 1006.17 395.45 1030.02 391.76 1036.41 377.99"/>
                    <polygon class="cls-14" points="1091.7 377.99 1074.24 367.91 1050.4 371.6 1044.01 385.37 1061.46 395.45 1085.31 391.76 1091.7 377.99"/>
                    <polygon class="cls-14" points="1146.99 377.99 1129.53 367.91 1105.69 371.6 1099.3 385.37 1116.75 395.45 1140.6 391.76 1146.99 377.99"/>
                    <polygon class="cls-14" points="1202.28 377.99 1184.82 367.91 1160.98 371.6 1154.59 385.37 1172.04 395.45 1195.89 391.76 1202.28 377.99"/>
                    <polygon class="cls-14" points="1257.57 377.99 1240.11 367.91 1216.27 371.6 1209.88 385.37 1227.34 395.45 1251.18 391.76 1257.57 377.99"/>
                  </g>
                  <g>
                    <polygon class="cls-14" points="1011.45 280.76 993.99 270.68 970.14 274.37 963.75 288.14 981.21 298.22 1005.06 294.53 1011.45 280.76"/>
                    <polygon class="cls-14" points="1066.74 280.76 1049.28 270.68 1025.43 274.37 1019.04 288.14 1036.5 298.22 1060.35 294.53 1066.74 280.76"/>
                    <polygon class="cls-14" points="1122.03 280.76 1104.57 270.68 1080.72 274.37 1074.33 288.14 1091.79 298.22 1115.64 294.53 1122.03 280.76"/>
                    <polygon class="cls-14" points="1177.32 280.76 1159.86 270.68 1136.01 274.37 1129.63 288.14 1147.08 298.22 1170.93 294.53 1177.32 280.76"/>
                    <polygon class="cls-14" points="1232.61 280.76 1215.15 270.68 1191.31 274.37 1184.92 288.14 1202.37 298.22 1226.22 294.53 1232.61 280.76"/>
                    <polygon class="cls-14" points="1287.9 280.76 1270.44 270.68 1246.6 274.37 1240.21 288.14 1257.66 298.22 1281.51 294.53 1287.9 280.76"/>
                  </g>
                  <g>
                    <polygon class="cls-14" points="981.12 313.17 963.66 303.09 939.81 306.78 933.43 320.55 950.88 330.63 974.73 326.94 981.12 313.17"/>
                    <polygon class="cls-14" points="1036.41 313.17 1018.95 303.09 995.11 306.78 988.72 320.55 1006.17 330.63 1030.02 326.94 1036.41 313.17"/>
                    <polygon class="cls-14" points="1091.7 313.17 1074.24 303.09 1050.4 306.78 1044.01 320.55 1061.46 330.63 1085.31 326.94 1091.7 313.17"/>
                    <polygon class="cls-14" points="1146.99 313.17 1129.53 303.09 1105.69 306.78 1099.3 320.55 1116.75 330.63 1140.6 326.94 1146.99 313.17"/>
                    <polygon class="cls-14" points="1202.28 313.17 1184.82 303.09 1160.98 306.78 1154.59 320.55 1172.04 330.63 1195.89 326.94 1202.28 313.17"/>
                    <polygon class="cls-14" points="1257.57 313.17 1240.11 303.09 1216.27 306.78 1209.88 320.55 1227.34 330.63 1251.18 326.94 1257.57 313.17"/>
                  </g>
                </g>
              </g>
            </g>
            <g>
              <rect class="cls-6" x="854" y="586.97" width="361.02" height="110.42"/>
              <path class="cls-11" d="M854,622.73s24.91,53.86,76.16,53.86c69.09,0,87.85-74.39,145.64-74.39,52.94,0,56.48,53.99,139.22,53.99v41.2h-361.02v-74.66Z"/>
              <path class="cls-12" d="M854,697.39c53.64,0,63.48-85.67,117.12-85.67s52.98,58.18,121.98,58.18,71.54-63.12,121.92-63.12v90.6h-361.02Z"/>
            </g>
          </g>
          <g>
            <g>
              <g>
                <rect class="cls-15" x="1319.54" y="254.28" width="413.53" height="353.03"/>
                <g>
                  <rect class="cls-18" x="1339.09" y="239.69" width="566.43" height="347.01"/>
                  <rect class="cls-16" x="1339.09" y="239.69" width="566.43" height="63.15"/>
                  <line class="cls-4" x1="1370.74" y1="271.11" x2="1604.75" y2="271.11"/>
                  <g>
                    <circle class="cls-6" cx="1828.68" cy="271.11" r="9.23"/>
                    <circle class="cls-6" cx="1865.19" cy="271.11" r="9.23"/>
                  </g>
                </g>
              </g>
              <path class="cls-6" d="M1579.08,420.64c-3.71,0-7.29,.56-10.67,1.6-8.11-15.26-24.16-25.65-42.65-25.65-20.56,0-38.11,12.86-45.07,30.97-13.14,.44-24.32,8.59-29.15,20.09-1.84-.47-3.76-.72-5.75-.72-12.76,0-23.11,10.35-23.11,23.11s10.35,23.11,23.11,23.11h133.28c20.02,0,36.25-16.23,36.25-36.25s-16.23-36.25-36.25-36.25Z"/>
              <path class="cls-14" d="M1837.76,470.64c-1.86-8.2-9.18-14.32-17.94-14.32-.22,0-.45,0-.67,.02-2.19-13.63-13.71-24.14-27.81-24.75-5.77-20.2-24.37-35-46.43-35-25.09,0-45.7,19.14-48.05,43.61-.08,0-.16,0-.24,0-13.23,0-24.16,9.71-26.13,22.39-.21,1.34-.35,2.69-.35,4.09,0,14.57,11.78,26.39,26.33,26.47h0s.14,0,.14,0c0,0,0,0,0,0s0,0,0,0h48.28s0,0,0,0,0,0,0,0h74.9s0,0,0,0,0,0,0,0h.31c10.03-.17,18.1-8.35,18.1-18.41,0-1.41-.17-2.77-.47-4.09Z"/>
            </g>
            <path class="cls-8" d="M1758.81,447.57c0-6.08-4.93-11.01-11.01-11.01s-11.01,4.93-11.01,11.01c0,4.29,2.45,7.99,6.03,9.81v10.9c0,2.74,2.24,4.98,4.98,4.98s4.98-2.24,4.98-4.98v-10.9c3.57-1.82,6.03-5.52,6.03-9.81Z"/>
          </g>
          <polyline class="cls-3" points="1303.74 127.08 1303.74 52.54 771.08 52.54 492.22 563.19 771.22 1040.19 1275.22 1040.19 1275.22 977.19"/>
          <g>
            <polygon class="cls-9" points="445.98 875.2 417.5 878.09 280.19 798.81 57.15 833.31 6.26 942.95 0 944.5 0 962.23 160.66 1056.36 383.7 1021.85 446.29 892.11 445.98 875.2"/>
            <polygon class="cls-8" points="446.12 875.24 282.85 780.97 59.8 815.48 .04 944.25 163.32 1038.52 386.36 1004.01 446.12 875.24"/>
            <polygon class="cls-8" points="446.12 875.24 282.85 780.97 59.8 815.48 .04 944.25 163.32 1038.52 386.36 1004.01 446.12 875.24"/>
            <g class="cls-22">
              <polygon class="cls-10" points="531.43 796.67 368.15 702.41 145.11 736.91 85.34 865.68 248.62 959.95 471.67 925.45 531.43 796.67"/>
            </g>
            <polygon class="cls-8" points="512.98 654.98 484.5 657.87 347.19 578.59 124.15 613.09 73.26 722.73 67 724.28 67 742.01 227.66 836.14 450.7 801.63 513.29 671.89 512.98 654.98"/>
            <polygon class="cls-14" points="513.12 655.19 349.85 560.92 126.8 595.42 67.04 724.2 230.32 818.47 453.36 783.96 513.12 655.19"/>
            <g class="cls-21">
              <polygon class="cls-15" points="599.77 570.02 436.49 475.75 213.45 510.26 153.69 639.03 316.97 733.3 540.01 698.8 599.77 570.02"/>
            </g>
            <polygon class="cls-8" points="604.13 433.77 578.5 437.81 441.19 358.54 218.15 393.04 167.26 502.68 161 504.22 161 521.96 321.66 616.08 544.7 581.58 604.47 452.81 604.13 433.77"/>
            <polygon class="cls-11" points="612.12 435.16 448.85 340.89 225.8 375.39 166.04 504.17 329.32 598.44 552.36 563.93 612.12 435.16"/>
            <g class="cls-20">
              <polygon class="cls-12" points="700.88 357.03 537.6 262.77 314.56 297.27 254.8 426.04 418.08 520.31 641.12 485.81 700.88 357.03"/>
            </g>
            <polygon class="cls-8" points="699.13 213.74 673.5 217.78 536.19 138.51 313.15 173.01 262.26 282.65 253.38 284.05 253.38 301.78 416.66 396.05 639.7 361.55 699.47 232.78 699.13 213.74"/>
            <polygon class="cls-7" points="703.12 213.1 539.85 118.83 316.8 153.34 257.04 282.11 420.32 376.38 643.36 341.87 703.12 213.1"/>
          </g>
        </g>
      </g>
    </g>
  </g>
</svg>