<?xml version="1.0" encoding="UTF-8"?>
<svg id="Layer_2" data-name="Layer 2" xmlns="http://www.w3.org/2000/svg" xmlns:xlink="http://www.w3.org/1999/xlink" viewBox="0 0 2046 1075.5">
  <defs>
    <style>
      .cls-1, .cls-2, .cls-3, .cls-4, .cls-5, .cls-6, .cls-7 {
        fill: none;
      }

      .cls-2, .cls-3 {
        stroke-width: 6px;
      }

      .cls-2, .cls-3, .cls-4, .cls-5, .cls-6, .cls-7 {
        stroke-miterlimit: 10;
      }

      .cls-2, .cls-4, .cls-5, .cls-6 {
        stroke-linecap: round;
      }

      .cls-2, .cls-7 {
        stroke: #b5d0e3;
      }

      .cls-3 {
        stroke: #e1eef6;
      }

      .cls-8 {
        clip-path: url(#clippath);
      }

      .cls-9 {
        fill: #f7f8f9;
      }

      .cls-10 {
        fill: #fff;
      }

      .cls-11 {
        fill: #ed1c24;
      }

      .cls-12 {
        fill: #b5d0e3;
      }

      .cls-13 {
        fill: #64c1e2;
      }

      .cls-14 {
        fill: #8f191c;
      }

      .cls-15 {
        fill: #c8e2ef;
      }

      .cls-16 {
        fill: #e1eef6;
      }

      .cls-17 {
        fill: #085d77;
      }

      .cls-18 {
        fill: #93d2e5;
      }

      .cls-19 {
        fill: #4cb6d6;
      }

      .cls-4 {
        stroke: #ed1c24;
        stroke-dasharray: 0 0 0 24.31;
      }

      .cls-4, .cls-5 {
        stroke-width: 7.78px;
      }

      .cls-5 {
        stroke: #f3f3f4;
        stroke-dasharray: 0 0 0 26.25;
      }

      .cls-6 {
        stroke: #fff;
        stroke-width: 2px;
      }

      .cls-7 {
        stroke-width: 9px;
      }
    </style>
    <clipPath id="clippath">
      <rect class="cls-1" width="2046" height="1075.5"/>
    </clipPath>
  </defs>
  <g id="Layer_1-2" data-name="Layer 1">
    <g class="cls-8">
      <g>
        <g>
          <g>
            <polygon class="cls-14" points="1107.44 814.56 1107.44 962.75 1236.87 1037.48 1236.87 891.47 1107.44 814.56"/>
            <polygon class="cls-12" points="1373.62 803.39 1242.99 727.97 1112.48 803.32 1242.99 880.87 1373.62 803.39"/>
            <polygon class="cls-11" points="1249.11 1037.47 1378.54 962.75 1378.54 814.7 1249.11 891.48 1249.11 1037.47"/>
          </g>
          <polygon class="cls-14" points="1251.32 887.41 1390.68 808.44 1468.4 805.25 1333.39 887.41 1251.32 887.41"/>
          <polygon class="cls-11" points="1236.11 891.64 1107.44 814.56 1019.03 809.48 1154.05 891.64 1236.11 891.64"/>
          <polygon class="cls-11" points="1295.14 631.32 1445.98 717.2 1384.48 799.36 1251.32 720.82 1295.14 631.32"/>
          <polygon class="cls-14" points="1196.23 631.32 1045.39 717.2 1102.51 797.17 1240.05 720.82 1196.23 631.32"/>
          <g>
            <circle class="cls-17" cx="1241.81" cy="757.04" r="38.68"/>
            <circle class="cls-17" cx="1241.81" cy="757.65" r="38.51"/>
            <circle class="cls-17" cx="1241.81" cy="758.25" r="38.35"/>
            <circle class="cls-17" cx="1241.81" cy="758.86" r="38.19"/>
            <circle class="cls-17" cx="1241.81" cy="759.46" r="38.03"/>
            <circle class="cls-17" cx="1241.81" cy="760.07" r="37.87"/>
            <circle class="cls-17" cx="1241.81" cy="760.67" r="37.7"/>
            <circle class="cls-17" cx="1241.81" cy="761.28" r="37.54"/>
            <circle class="cls-17" cx="1241.81" cy="761.88" r="37.38"/>
            <circle class="cls-17" cx="1241.81" cy="762.48" r="37.22"/>
            <circle class="cls-17" cx="1241.81" cy="763.09" r="37.06"/>
            <circle class="cls-17" cx="1241.81" cy="763.69" r="36.9"/>
            <circle class="cls-17" cx="1241.81" cy="764.3" r="36.73"/>
            <circle class="cls-17" cx="1241.81" cy="764.9" r="36.57"/>
            <circle class="cls-17" cx="1241.81" cy="765.51" r="36.41"/>
            <circle class="cls-17" cx="1241.81" cy="766.11" r="36.25"/>
            <circle class="cls-17" cx="1241.81" cy="766.72" r="36.09"/>
            <circle class="cls-17" cx="1241.81" cy="767.32" r="35.92"/>
            <circle class="cls-17" cx="1241.81" cy="767.93" r="35.76"/>
            <circle class="cls-17" cx="1241.81" cy="768.53" r="35.6"/>
            <circle class="cls-17" cx="1241.81" cy="769.13" r="35.44"/>
            <circle class="cls-17" cx="1241.81" cy="769.74" r="35.28"/>
            <circle class="cls-17" cx="1241.81" cy="770.34" r="35.12"/>
            <circle class="cls-17" cx="1241.81" cy="770.95" r="34.95"/>
            <circle class="cls-17" cx="1241.81" cy="771.55" r="34.79"/>
            <circle class="cls-17" cx="1241.81" cy="772.16" r="34.63"/>
            <circle class="cls-17" cx="1241.81" cy="772.76" r="34.47"/>
            <circle class="cls-17" cx="1241.81" cy="773.37" r="34.31"/>
            <circle class="cls-17" cx="1241.81" cy="773.97" r="34.14"/>
            <circle class="cls-17" cx="1241.81" cy="774.58" r="33.98"/>
            <circle class="cls-17" cx="1241.81" cy="775.18" r="33.82"/>
            <circle class="cls-17" cx="1241.81" cy="775.78" r="33.66"/>
            <circle class="cls-17" cx="1241.81" cy="776.39" r="33.5"/>
            <circle class="cls-17" cx="1241.81" cy="776.99" r="33.34"/>
            <circle class="cls-17" cx="1241.81" cy="777.6" r="33.17"/>
            <circle class="cls-17" cx="1241.81" cy="778.2" r="33.01"/>
            <circle class="cls-17" cx="1241.81" cy="778.81" r="32.85"/>
            <circle class="cls-17" cx="1241.81" cy="779.41" r="32.69"/>
            <circle class="cls-17" cx="1241.81" cy="780.02" r="32.53"/>
            <circle class="cls-17" cx="1241.81" cy="780.62" r="32.36"/>
            <circle class="cls-17" cx="1241.81" cy="781.22" r="32.2"/>
            <circle class="cls-17" cx="1241.81" cy="781.83" r="32.04"/>
            <circle class="cls-17" cx="1241.81" cy="782.43" r="31.88"/>
            <circle class="cls-17" cx="1241.81" cy="783.04" r="31.72"/>
            <circle class="cls-17" cx="1241.81" cy="783.64" r="31.55"/>
            <circle class="cls-17" cx="1241.81" cy="784.25" r="31.39"/>
            <circle class="cls-17" cx="1241.81" cy="784.85" r="31.23"/>
            <circle class="cls-17" cx="1241.81" cy="785.46" r="31.07"/>
            <circle class="cls-17" cx="1241.81" cy="786.06" r="30.91"/>
            <circle class="cls-17" cx="1241.81" cy="786.67" r="30.75"/>
            <circle class="cls-17" cx="1241.81" cy="787.27" r="30.58"/>
            <circle class="cls-17" cx="1241.81" cy="787.87" r="30.42"/>
            <circle class="cls-17" cx="1241.81" cy="788.48" r="30.26"/>
            <circle class="cls-17" cx="1241.81" cy="789.08" r="30.1"/>
            <circle class="cls-17" cx="1241.81" cy="789.69" r="29.94"/>
            <circle class="cls-17" cx="1241.81" cy="790.29" r="29.77"/>
            <circle class="cls-17" cx="1241.81" cy="790.9" r="29.61"/>
            <circle class="cls-17" cx="1241.81" cy="791.5" r="29.45"/>
            <circle class="cls-17" cx="1241.81" cy="792.11" r="29.29"/>
            <circle class="cls-17" cx="1241.81" cy="792.71" r="29.13"/>
            <circle class="cls-17" cx="1241.81" cy="793.32" r="28.97"/>
            <circle class="cls-17" cx="1241.81" cy="793.92" r="28.8"/>
            <circle class="cls-17" cx="1241.81" cy="794.52" r="28.64"/>
            <circle class="cls-17" cx="1241.81" cy="795.13" r="28.48"/>
            <circle class="cls-17" cx="1241.81" cy="795.73" r="28.32"/>
            <circle class="cls-17" cx="1241.81" cy="796.34" r="28.16"/>
            <circle class="cls-17" cx="1241.81" cy="796.94" r="27.99"/>
            <circle class="cls-17" cx="1241.81" cy="797.55" r="27.83"/>
            <circle class="cls-17" cx="1241.81" cy="798.15" r="27.67"/>
            <circle class="cls-17" cx="1241.81" cy="798.76" r="27.51"/>
            <circle class="cls-17" cx="1241.81" cy="799.36" r="27.35"/>
          </g>
          <g>
            <line class="cls-7" x1="1420.91" y1="281.09" x2="1302.7" y2="731.37"/>
            <line class="cls-7" x1="1775.99" y1="261.72" x2="1388.63" y2="804.02"/>
            <line class="cls-7" x1="1072.29" y1="281.09" x2="1182.04" y2="752.37"/>
            <line class="cls-7" x1="717.22" y1="261.72" x2="1102.51" y2="797.17"/>
            <path class="cls-10" d="M702.83,252.13c-1.88-40.26,5.94-82.18,29.38-114.97,23.44-32.79,64.32-54.61,104.14-48.4,8.66-107.23,101.12-201.58,208.15-212.42,0,0,120.05-248.9,453.89-169.83,245.32,58.1,234.09,322.29,234.09,322.29,5.78,12.4,18.11,20.12,27.95,29.63,26.46,25.56,35.07,65.35,31.12,101.92-3.95,36.58-18.83,70.95-33.53,104.68-182.62,23.61-367.28,25.07-551.41,26.51-164.29,1.28-330.56,2.34-490.22-36.43-4.86-1.18-10.62-7.31-6.19-9.65"/>
            <path class="cls-16" d="M1621.96,271.81c-46.03-17.67-79.83-57.99-103.87-101.04-12.97-23.23-23.89-48.29-25.97-74.82-2.58-32.88,8.53-65.12,19.47-96.23-31.27,21.85-55.6,53.49-68.66,89.33-21.61,59.28-11.8,126.19,12.1,184.58,.85,2.08,1.83,4.28,3.76,5.43,1.44,.86,3.19,.98,4.86,1.08,52.11,2.95,104.61-.87,155.74-11.33"/>
            <path class="cls-16" d="M1204.23-269.62c-45.75,23.48-81.88,65.1-98.68,113.7-17.2,49.76-14.28,104.75-.69,155.61,35.83,134.16,148.84,244.73,283.75,277.62-111.29-9.87-223.16,2.97-334.82,6.77-111.66,3.8-226.64-2.13-328.99-46.91-5.95-2.6-12.15-5.59-15.75-10.99-3.28-4.92-3.88-11.12-3.98-17.04-1.14-70.97,68.33-134.66,138.93-127.4,21.3-113.53,128.22-242.88,213.36-216.62,11.71-52.08,38.53-77.68,69.81-90.82"/>
            <path class="cls-13" d="M872.16,93.32c5.1,3.96,8.08-149.4,41.96-177.54,0,0-74.24,67.79-80.7,164.63,0,0-90.65-8.22-125.89,87.15,0,0-16.68,59.29-.27,95.82l48.69-2.2s-9.68-112.98,35.51-151.71c0,0,51.65-38.74,80.7-16.14Z"/>
            <path class="cls-15" d="M1759.67,271.39c1.86,7.21,14.12,6.45,16.94-.44,2.82-6.89-2.12-14.98-8.79-18.28-6.67-3.3-14.47-3.07-21.91-2.77-161.88,6.5-323.82,11.46-485.79,14.87-73.24,1.54-146.51,2.77-219.73,.64-108.22-3.15-216.17-13.65-323.29-29.34-8.04-1.18-17.51-1.92-23.02,4.05-6.3,6.83-2.81,18.69,4.61,24.28,7.42,5.58,17.21,6.6,26.46,7.41,116.89,10.31,233.79,20.61,350.68,30.92,97.97,8.64,196.15,17.28,294.48,15.71,121.31-1.94,241.82-19.41,361.38-40.02,17.97-3.1,36.6-6.54,51.45-17.12"/>
            <path class="cls-6" d="M856.02,116.46s83.93,6.46,83.93,96.84"/>
          </g>
          <g>
            <circle class="cls-10" cx="1240.05" cy="582.78" r="94.64"/>
            <circle class="cls-10" cx="1240.05" cy="594.18" r="90.47"/>
            <circle class="cls-10" cx="1240.05" cy="605.58" r="86.3"/>
            <circle class="cls-10" cx="1240.05" cy="616.98" r="82.13"/>
            <circle class="cls-10" cx="1240.05" cy="628.38" r="77.96"/>
            <circle class="cls-10" cx="1240.05" cy="639.78" r="73.79"/>
            <circle class="cls-10" cx="1240.05" cy="651.18" r="69.62"/>
            <circle class="cls-10" cx="1240.05" cy="662.58" r="65.46"/>
            <circle class="cls-10" cx="1240.05" cy="673.98" r="61.29"/>
            <circle class="cls-10" cx="1240.05" cy="685.38" r="57.12"/>
            <circle class="cls-10" cx="1240.05" cy="696.78" r="52.95"/>
            <circle class="cls-10" cx="1240.05" cy="708.18" r="48.78"/>
            <circle class="cls-10" cx="1240.05" cy="719.58" r="44.61"/>
            <circle class="cls-10" cx="1240.05" cy="730.98" r="40.44"/>
          </g>
          <ellipse class="cls-9" cx="1240.05" cy="749.62" rx="33.56" ry="21.65"/>
          <path class="cls-12" d="M1225.13,747.78c1.86-16.35-.85-32.82-4.84-48.66s-9.64-32.09-14-48.27c-1.06-3.92-2.04-7.87-2.9-11.84s-1.75-7.64-1.45-11.56,1.61-7.76,3.54-11.16c1.75-3.09,4.15-5.83,7.5-7.2,2.97-1.21,6.25-1.07,8.86,.88s4.29,5.39,5.35,8.53,1.94,6.63,1.96,10.04c.02,2.29-.21,5.96-2.6,7.14-2.82,1.39-4.98-2.2-5.81-4.38-1.26-3.3-1.23-7.12-.62-10.57,1.18-6.62,4.9-13.35,11.22-16.26s13.62-1.17,18.15,3.77,5.72,12.41,4.16,18.69c-.41,1.63-1,3.2-1.84,4.65-.61,1.06-1.75,3.15-3.25,2.92-.93-.14-1.48-1.27-1.79-2.04-.56-1.38-.78-2.91-.81-4.39-.07-3.25,.87-6.62,1.91-9.67s2.5-6.14,4.65-8.61c1.88-2.16,4.39-3.94,7.33-4.13,3.14-.2,5.95,1.37,8.08,3.56,5.71,5.87,6.35,14.58,5.18,22.28-1.35,8.82-4.43,17.42-7,25.94s-5.21,17.37-7.45,26.16c-4.35,17.1-7.45,34.86-6.03,52.56,.34,4.28,.95,8.54,1.82,12.74,.39,1.89,3.28,1.09,2.89-.8-3.98-19.25-1.61-39.02,2.81-57.97,2.26-9.67,5.04-19.22,7.89-28.73,1.44-4.8,2.9-9.59,4.32-14.39s2.82-9.56,3.6-14.48c1.36-8.59,.72-17.82-5.2-24.66-2.31-2.67-5.44-4.72-8.99-5.15-3.36-.41-6.62,.78-9.22,2.87-5.66,4.52-8.34,12.48-9.36,19.4-.47,3.2-.28,6.88,1.38,9.75s5.17,3.6,7.73,1.19,4.09-6.61,4.64-10.13c.59-3.73,.4-7.58-.66-11.22-2.09-7.2-7.77-13.04-15.34-14.24s-14.85,2.35-19.26,8.66-6.4,15.14-4.06,22.39c1,3.1,3.11,6.78,6.58,7.46s6-1.71,7.1-4.66c1.2-3.19,1-6.88,.41-10.18-.68-3.84-1.83-7.76-3.7-11.19-1.74-3.21-4.42-6.07-8.01-7.13s-7.31-.16-10.36,1.71c-6.94,4.25-10.64,13.57-10.77,21.45-.07,4.27,1.09,8.6,2.03,12.74s2.1,8.63,3.29,12.91c2.47,8.86,5.25,17.62,7.89,26.42,5.25,17.47,10.24,35.39,10.64,53.75,.09,4.37-.09,8.73-.58,13.07-.22,1.92,2.78,1.9,3,0h0Z"/>
          <path class="cls-2" d="M1166.86,592.11c-.39-3.06-.59-6.17-.59-9.34,0-40.74,33.03-73.77,73.77-73.77,3.83,0,7.6,.29,11.28,.86"/>
        </g>
        <path class="cls-10" d="M1991.9,562.41c-9.83-73.87-73.06-130.86-149.62-130.86-83.37,0-150.95,67.58-150.95,150.95,0,.2,0,.4,0,.6-2.04-.17-4.11-.27-6.19-.27-41.59,0-75.31,33.72-75.31,75.31s33.72,75.31,75.31,75.31c1.07,0,2.13-.04,3.19-.08v.08h153.93s.02,0,.02,0c0,0,.02,0,.02,0h108.44c1.91,.12,3.84,.21,5.78,.21,49.3,0,89.27-39.97,89.27-89.27,0-36.73-22.19-68.27-53.9-81.97Z"/>
        <g>
          <polygon class="cls-18" points="1758.62 901.03 1785.15 916.35 1785.15 886.42 1758.62 870.65 1758.62 901.03"/>
          <polygon class="cls-18" points="1786.41 852.9 1759.65 868.34 1786.41 884.24 1813.19 868.36 1786.41 852.9"/>
          <polygon class="cls-18" points="1787.66 916.35 1814.2 901.03 1814.2 870.68 1787.66 886.42 1787.66 916.35"/>
          <path class="cls-18" d="M1680.86,759.06c-.45,.15-.86,.37-1.19,.73-1.22,1.33-.55,3.63,.9,4.72,.47,.35,.98,.6,1.52,.79,.05,.12,.09,.25,.14,.37l1.02-.05c.48,.1,.96,.17,1.45,.22l72.98,103.91,1.03-.72-72.37-103.03c22.39,1.97,44.77,3.95,67.16,5.92l20.39,87.57,1.22-.28-20.3-87.17c18.73,1.65,37.49,3.27,56.29,2.97,2.49-.04,4.97-.13,7.46-.23l-20.82,84.43,1.22,.3,20.9-84.77c20.62-.95,41.13-3.99,61.48-7.5,1.85-.32,3.72-.66,5.51-1.21,.1,.24,.26,.44,.46,.57l-73.17,102.44,1.02,.73,73.55-102.97c.58-.12,1.13-.46,1.35-1.01,.14-.35,.18-.71,.14-1.07l.11-.15c.35-.2,.7-.42,1.03-.65l-.94,.41-.37-.26c-.3-.77-.92-1.45-1.67-1.82-.24-.12-.5-.19-.75-.27"/>
          <path class="cls-18" d="M1674.29,764.16c.56,5.71,218.05,0,218.05,0,0,0,24.92-57.38-43.61-68.86,0,0-12.46-45.9-68.53-45.9s-62.3,63.12-62.3,63.12c0,0-49.84-11.48-43.61,51.64Z"/>
        </g>
        <polyline class="cls-4" points="210.76 385.07 210.76 914.36 706.25 914.36"/>
        <g>
          <g>
            <path class="cls-10" d="M603.25,389.72c0-35.21-28.28-63.8-63.37-64.33-2.17-59.86-49.95-108.09-109.63-110.94-26.78-57.79-85.3-97.89-153.19-97.89-76.38,0-140.9,50.75-161.7,120.37-2.35-.15-4.71-.24-7.1-.24C48.24,236.69-.43,285.35-.43,345.38s48.39,108.41,108.19,108.68h0s.49,0,.49,0c0,0,.01,0,.02,0s.01,0,.02,0h168.78s0,0,.01,0c0,0,0,0,.01,0h261.81s0,0,0,0c0,0,0,0,0,0h1.07v-.03c35.04-.58,63.28-29.15,63.28-64.33Z"/>
            <path class="cls-3" d="M539.47,423.82l-1.36,.02H107.9c-43.06-.2-78.09-35.4-78.09-78.46s35.2-78.46,78.46-78.46c1.65,0,3.34,.06,5.17,.17l24.01,1.54,6.89-23.05c8.35-27.96,25.86-53.12,49.28-70.83,24.18-18.29,53.04-27.96,83.46-27.96"/>
          </g>
          <g>
            <polygon class="cls-14" points="399.84 777.55 445.66 804 445.66 752.32 399.84 725.09 399.84 777.55"/>
            <polygon class="cls-12" points="447.82 694.44 401.62 721.11 447.82 748.57 494.06 721.14 447.82 694.44"/>
            <polygon class="cls-11" points="449.99 804 495.8 777.55 495.8 725.14 449.99 752.32 449.99 804"/>
            <path class="cls-19" d="M265.59,532.42c-.78,.25-1.49,.64-2.06,1.26-2.11,2.29-.94,6.27,1.55,8.15,.8,.6,1.69,1.04,2.63,1.37,.09,.21,.15,.43,.24,.64l1.77-.08c.82,.17,1.66,.29,2.51,.39l126.01,179.4,1.77-1.24-124.95-177.89c38.65,3.41,77.31,6.82,115.96,10.22l35.21,151.2,2.11-.49-35.05-150.51c32.33,2.85,64.73,5.65,97.18,5.13,4.29-.07,8.58-.23,12.87-.41l-35.94,145.78,2.1,.52,36.09-146.37c35.61-1.65,71.01-6.9,106.16-12.95,3.19-.55,6.43-1.14,9.52-2.09,.17,.42,.44,.75,.8,.98l-126.34,176.87,1.76,1.26,126.99-177.78c1.01-.21,1.94-.79,2.34-1.75,.25-.6,.31-1.23,.24-1.86l.18-.26c.61-.35,1.2-.72,1.78-1.13l-1.63,.7-.63-.45c-.52-1.32-1.6-2.5-2.89-3.14-.42-.21-.86-.33-1.29-.47"/>
            <path class="cls-19" d="M254.23,541.22c.97,9.87,376.49,0,376.49,0,0,0,43.03-99.07-75.3-118.88,0,0-21.51-79.26-118.33-79.26s-107.57,108.98-107.57,108.98c0,0-86.05-19.81-75.3,89.16Z"/>
          </g>
        </g>
        <g>
          <path class="cls-10" d="M803.66,931.97c-8.23,0-16.13,1.33-23.52,3.75-11.63-46.72-55.26-81.45-107.34-81.45-45.95,0-85.33,27.04-101.96,65.49-.77-.03-1.54-.06-2.32-.06-38.39,0-69.52,31.12-69.52,69.52,0,.03,0,.07,0,.1-22.76,1.07-40.9,19.81-40.9,42.83s18.14,41.76,40.89,42.83v.1h304.65c40.65,0,73.61-32.04,73.61-71.56s-32.96-71.56-73.61-71.56Z"/>
          <g>
            <polygon class="cls-17" points="758.9 1059.49 777.74 1070.38 777.74 1049.12 758.9 1037.92 758.9 1059.49"/>
            <polygon class="cls-17" points="778.64 1025.31 759.63 1036.28 778.64 1047.57 797.66 1036.29 778.64 1025.31"/>
            <polygon class="cls-17" points="779.53 1070.38 798.37 1059.49 798.37 1037.94 779.53 1049.12 779.53 1070.38"/>
            <path class="cls-17" d="M703.67,958.66c-.32,.1-.61,.26-.85,.52-.87,.94-.39,2.58,.64,3.35,.33,.25,.7,.43,1.08,.56,.04,.09,.06,.18,.1,.26l.73-.03c.34,.07,.68,.12,1.03,.16l51.83,73.8,.73-.51-51.4-73.17c15.9,1.4,31.8,2.8,47.7,4.21l14.48,62.2,.87-.2-14.42-61.91c13.3,1.17,26.63,2.32,39.98,2.11,1.77-.03,3.53-.09,5.29-.17l-14.79,59.96,.87,.21,14.85-60.21c14.65-.68,29.21-2.84,43.67-5.33,1.31-.23,2.64-.47,3.92-.86,.07,.17,.18,.31,.33,.4l-51.97,72.76,.73,.52,52.24-73.13c.41-.09,.8-.32,.96-.72,.1-.25,.13-.51,.1-.76l.08-.11c.25-.14,.49-.3,.73-.46l-.67,.29-.26-.19c-.21-.54-.66-1.03-1.19-1.29-.17-.08-.35-.14-.53-.19"/>
            <path class="cls-17" d="M699,962.28c.4,4.06,154.87,0,154.87,0,0,0,17.7-40.75-30.97-48.9,0,0-8.85-32.6-48.67-32.6s-44.25,44.83-44.25,44.83c0,0-35.4-8.15-30.97,36.68Z"/>
          </g>
        </g>
        <polyline class="cls-5" points="1938.63 627.98 1938.63 176.27 1275.1 176.27"/>
      </g>
    </g>
  </g>
</svg>