<?xml version="1.0" encoding="UTF-8"?>
<svg id="Layer_2" data-name="Layer 2" xmlns="http://www.w3.org/2000/svg" xmlns:xlink="http://www.w3.org/1999/xlink" viewBox="0 0 2181.48 1074.55">
  <defs>
    <style>
      .cls-1, .cls-2 {
        fill: none;
      }

      .cls-3, .cls-4, .cls-5, .cls-6, .cls-7 {
        fill: #fff;
      }

      .cls-3, .cls-8, .cls-9, .cls-6, .cls-2 {
        stroke-miterlimit: 10;
      }

      .cls-3, .cls-6, .cls-2 {
        stroke: #ed1c24;
      }

      .cls-3, .cls-2 {
        stroke-width: 5.66px;
      }

      .cls-4 {
        font-family: RedHatMono-Medium, 'Red Hat Mono';
        font-size: 110.44px;
      }

      .cls-10 {
        clip-path: url(#clippath);
      }

      .cls-11 {
        fill: #023d4f;
      }

      .cls-12, .cls-8, .cls-9 {
        fill: #ed1c24;
      }

      .cls-13 {
        fill: #8e191b;
      }

      .cls-14 {
        fill: #be2025;
      }

      .cls-15 {
        fill: #232323;
      }

      .cls-16 {
        fill: #93d2e5;
      }

      .cls-17 {
        fill: #396db5;
      }

      .cls-18 {
        fill: #4cb6d6;
      }

      .cls-8 {
        stroke-linecap: round;
        stroke-width: 9px;
      }

      .cls-8, .cls-9 {
        stroke: #fff;
      }

      .cls-9, .cls-6 {
        stroke-width: .25px;
      }

      .cls-7 {
        font-family: RedHatMono-Regular, 'Red Hat Mono';
        font-size: 202.5px;
      }
    </style>
    <clipPath id="clippath">
      <circle class="cls-1" cx="332.96" cy="497.39" r="332.96"/>
    </clipPath>
  </defs>
  <g id="Layer_1-2" data-name="Layer 1">
    <g>
      <path class="cls-16" d="M1566.12,120.44c-58.03-.24-113.58,10.29-164.76,29.69-68.81,26.08-143.35,33.87-215.74,20.66-20.98-3.83-42.64-5.69-64.8-5.38-182.78,2.58-328.28,151.11-327.28,333.91,1,182.55,149.29,330.22,332.07,330.22,.23,0,.47,0,.7,0,30.84-.06,59.91,13.88,79.2,37.93,84.23,105,213.61,172.22,358.69,172.22,253.84,0,459.62-205.78,459.62-459.62,0-253.53-204.18-458.59-457.71-459.62Z"/>
      <circle class="cls-16" cx="333.84" cy="497.39" r="332.08"/>
      <g class="cls-10">
        <g>
          <g>
            <rect class="cls-6" x="-5.61" y="73.32" width="416.87" height="851.75"/>
            <line class="cls-3" x1="-5.78" y1="662.52" x2="407.7" y2="662.52"/>
            <line class="cls-6" x1="-5.78" y1="497.94" x2="407.7" y2="497.94"/>
            <rect class="cls-12" x="218.28" y="859.04" width="160.61" height="14.14"/>
            <rect class="cls-16" x="25.06" y="397.36" width="133.68" height="14.14"/>
            <rect class="cls-16" x="25.06" y="443.6" width="133.68" height="14.14"/>
            <circle class="cls-12" cx="37.37" cy="866.59" r="10.7"/>
            <circle class="cls-12" cx="101.64" cy="866.59" r="10.7"/>
            <circle class="cls-12" cx="165.16" cy="866.59" r="10.7"/>
            <circle class="cls-12" cx="221.25" cy="427.81" r="10.7"/>
            <circle class="cls-12" cx="285.52" cy="427.81" r="10.7"/>
            <circle class="cls-12" cx="63.31" cy="577.83" r="10.7"/>
            <circle class="cls-12" cx="127.58" cy="577.83" r="10.7"/>
            <circle class="cls-12" cx="43.3" cy="273.31" r="10.7"/>
            <g>
              <circle class="cls-5" cx="334.43" cy="143.43" r="7.23"/>
              <circle class="cls-5" cx="311.49" cy="143.43" r="7.23"/>
              <circle class="cls-5" cx="358.86" cy="143.43" r="7.23"/>
              <line class="cls-9" x1="47.27" y1="143.43" x2="279.27" y2="143.43"/>
            </g>
            <rect class="cls-16" x="18.88" y="694.88" width="366.1" height="75.85"/>
            <rect class="cls-16" x="185.71" y="531.71" width="199.27" height="90.84"/>
          </g>
          <circle class="cls-12" cx="334.43" cy="732.8" r="7.23"/>
          <circle class="cls-12" cx="357.81" cy="732.8" r="7.23"/>
          <circle class="cls-12" cx="311.49" cy="732.8" r="7.23"/>
        </g>
        <rect class="cls-2" x="-5.61" y="73.32" width="416.87" height="851.75"/>
        <line class="cls-3" x1="-5.78" y1="497.94" x2="407.7" y2="497.94"/>
        <circle class="cls-12" cx="373.41" cy="273.31" r="10.7"/>
        <circle class="cls-12" cx="349.04" cy="427.81" r="10.7"/>
        <line class="cls-3" x1="-5.78" y1="339.88" x2="411.74" y2="339.88"/>
        <line class="cls-3" x1="-5.78" y1="206.6" x2="411.74" y2="206.6"/>
        <rect class="cls-16" x="102.82" y="266.24" width="214.84" height="14.14"/>
      </g>
      <g>
        <polygon class="cls-11" points="534.2 49.71 534.2 126.1 600.36 164.3 666.52 126.1 666.52 49.71 600.36 11.51 534.2 49.71"/>
        <polygon class="cls-3" points="549.47 41.08 549.47 116.71 614.97 154.53 680.47 116.71 680.47 41.08 614.97 3.27 549.47 41.08"/>
      </g>
      <g>
        <polygon class="cls-11" points="1727.42 714.36 1727.42 773.36 1778.51 802.87 1829.61 773.36 1829.61 714.36 1778.51 684.86 1727.42 714.36"/>
        <polygon class="cls-3" points="1739.21 707.7 1739.21 766.11 1789.8 795.32 1840.38 766.11 1840.38 707.7 1789.8 678.5 1739.21 707.7"/>
      </g>
      <path class="cls-5" d="M2103.67,390.12c-9.63,0-18.85,1.75-27.37,4.95-17.98-33.36-52.48-56.49-92.54-58.45-22.64-65.82-85.1-113.12-158.61-113.12-64.97,0-121.31,36.95-149.16,90.99-11.63-3.51-23.96-5.41-36.74-5.41-70.09,0-126.91,56.82-126.91,126.91,0,70.09,56.82,126.91,126.91,126.91,34.19,0,439.17,0,457.63,0,59.17,0,84.58-52.01,84.58-94.98,0-42.97-34.83-77.8-77.8-77.8Z"/>
      <polygon class="cls-11" points="720.54 105.43 720.54 208.18 809.52 259.56 898.51 208.18 898.51 105.43 809.52 54.05 720.54 105.43"/>
      <polygon class="cls-3" points="740.71 93.87 740.71 196.62 829.7 248 918.68 196.62 918.68 93.87 829.7 42.49 740.71 93.87"/>
      <g>
        <polygon class="cls-11" points="868.05 958.53 868.05 1035.88 935.03 1074.55 1002.01 1035.88 1002.01 958.53 935.03 919.86 868.05 958.53"/>
        <polygon class="cls-3" points="883.51 949.8 883.51 1026.37 949.82 1064.66 1016.13 1026.37 1016.13 949.8 949.82 911.52 883.51 949.8"/>
      </g>
      <g>
        <polygon class="cls-16" points="1585.16 893.06 1585.02 926.13 571.26 921.82 574.17 237.48 603.01 237.6 1585.16 893.06"/>
        <g>
          <g>
            <g>
              <rect class="cls-15" x="601.66" y="221.31" width="1005" height="669.7" transform="translate(2.37 -4.69) rotate(.24)"/>
              <rect class="cls-17" x="602.83" y="221.31" width="1005" height="116.73" transform="translate(1.2 -4.7) rotate(.24)"/>
            </g>
            <line class="cls-8" x1="650.5" y1="273.13" x2="1064.83" y2="274.9"/>
            <circle class="cls-5" cx="1563.03" cy="277.01" r="12.6"/>
            <circle class="cls-5" cx="1522.11" cy="276.84" r="12.6"/>
          </g>
          <rect x="674.56" y="404.18" width="396.03" height="420.92"/>
          <rect class="cls-12" x="1136.21" y="404.04" width="396.03" height="162.52"/>
          <rect class="cls-16" x="1136.21" y="612.03" width="396.03" height="212.42"/>
        </g>
      </g>
      <path class="cls-18" d="M245.13,802.1c8.66,0,16.96,1.58,24.62,4.46,16.18-30.01,47.21-50.82,83.26-52.59,20.37-59.22,76.56-101.77,142.69-101.77,58.45,0,109.14,33.24,134.19,81.85,10.46-3.16,21.56-4.86,33.05-4.86,63.06,0,114.17,51.12,114.17,114.17,0,63.06-51.12,114.17-114.17,114.17-30.76,0-395.09,0-411.7,0-53.23,0-76.09-46.79-76.09-85.45,0-38.66,31.34-69.99,69.99-69.99Z"/>
      <g>
        <polygon class="cls-11" points="486.93 341.67 486.93 455.07 585.13 511.76 683.33 455.07 683.33 341.67 585.13 284.98 486.93 341.67"/>
        <polygon class="cls-3" points="503.24 329.41 503.24 441.48 600.3 497.52 697.36 441.48 697.36 329.41 600.3 273.37 503.24 329.41"/>
      </g>
      <g>
        <polygon class="cls-11" points="1228.42 932.36 1228.42 991.36 1279.51 1020.87 1330.61 991.36 1330.61 932.36 1279.51 902.86 1228.42 932.36"/>
        <polygon class="cls-3" points="1240.21 925.7 1240.21 984.11 1290.8 1013.32 1341.38 984.11 1341.38 925.7 1290.8 896.5 1240.21 925.7"/>
      </g>
      <text class="cls-7" transform="translate(742.06 660.07)"><tspan x="0" y="0">&gt;_</tspan></text>
      <text class="cls-4" transform="translate(382.06 867.74) scale(.84 1)"><tspan x="0" y="0">{...}</tspan></text>
      <g>
        <g>
          <path class="cls-12" d="M1858.24,338.02c7.97,3.72,14.89,8.8,20.71,14.76l38.36-13.96c-10.62-14.91-25.1-27.36-42.83-35.64-54.82-25.56-120.23-1.75-145.8,53.06-8.27,17.73-11.34,36.58-9.91,54.82l38.36-13.95c.63-8.31,2.66-16.64,6.38-24.62,16.61-35.62,59.1-51.08,94.72-34.47"/>
          <path class="cls-12" d="M1740.18,422.57l-36.45,13.27c3.35,13.29,9.15,25.92,17.13,37.14l38.28-13.92c-9.82-10.09-16.36-22.86-18.96-36.49"/>
          <path class="cls-12" d="M1899.14,408.1c-.61,8.3-2.71,16.64-6.44,24.62-16.61,35.63-59.09,51.09-94.71,34.48-7.99-3.73-14.95-8.77-20.76-14.74l-38.27,13.94c10.59,14.91,25.05,27.37,42.79,35.65,54.82,25.56,120.23,1.75,145.79-53.07,8.28-17.74,11.34-36.58,9.87-54.8l-38.27,13.92Z"/>
          <path class="cls-12" d="M1908.57,361.27l-36.44,13.27c6.77,12.14,9.97,26.1,8.92,40.12l38.28-13.92c-1.1-13.73-4.76-27.13-10.76-39.48"/>
        </g>
        <g>
          <path class="cls-14" d="M1773.1,391.29l-38.36,13.97c.49,6.14,1.55,12.23,3.04,18.17l36.44-13.26c-1.18-6.15-1.6-12.51-1.12-18.88"/>
          <path class="cls-14" d="M1942.63,348.88c-2.68-5.53-5.77-10.86-9.36-15.89l-38.35,13.97c4.46,4.56,8.2,9.69,11.27,15.18l36.45-13.26Z"/>
          <path class="cls-14" d="M1738.96,466.4c2.95,4.15,6.21,8.11,9.75,11.85l41.67-15.2c-4.87-3.04-9.27-6.6-13.15-10.59l-38.27,13.94Zm198.45-72.22l-38.27,13.92c-.4,5.52-1.48,11.04-3.24,16.47l41.66-15.2c.3-5.09,.26-10.16-.15-15.19"/>
        </g>
        <g>
          <path class="cls-13" d="M1772.95,399c-.08-2.56-.05-5.13,.15-7.71l-38.36,13.97c.19,2.47,.51,4.9,.88,7.33l37.33-13.59Z"/>
          <path class="cls-13" d="M1937.07,338.78c-1.21-1.96-2.46-3.9-3.8-5.78l-38.35,13.97c1.69,1.71,3.24,3.55,4.72,5.43l37.43-13.63Z"/>
        </g>
      </g>
    </g>
  </g>
</svg>