<?xml version="1.0" encoding="UTF-8"?>
<svg id="Layer_2" data-name="Layer 2" xmlns="http://www.w3.org/2000/svg" xmlns:xlink="http://www.w3.org/1999/xlink" viewBox="0 0 1928.63 958.66">
  <defs>
    <style>
      .cls-1, .cls-2, .cls-3, .cls-4, .cls-5 {
        fill: none;
      }

      .cls-2, .cls-3 {
        stroke-width: 3px;
      }

      .cls-2, .cls-3, .cls-4, .cls-5, .cls-6 {
        stroke-miterlimit: 10;
      }

      .cls-2, .cls-4 {
        stroke: #fff;
      }

      .cls-2, .cls-4, .cls-5 {
        stroke-linecap: round;
      }

      .cls-3 {
        stroke: #0199c5;
      }

      .cls-7 {
        clip-path: url(#clippath);
      }

      .cls-8 {
        fill: #f5823e;
      }

      .cls-9 {
        fill: #0199c5;
      }

      .cls-10 {
        fill: #010101;
      }

      .cls-11 {
        fill: #f26d6d;
      }

      .cls-12 {
        fill: #fff;
      }

      .cls-13 {
        fill: #ed1c24;
      }

      .cls-14 {
        fill: #8e191b;
      }

      .cls-15 {
        fill: #be2025;
      }

      .cls-16 {
        fill: #42adaf;
      }

      .cls-17 {
        fill: #93d2e5;
      }

      .cls-18 {
        fill: #5c0b0c;
      }

      .cls-19 {
        fill: #396db5;
      }

      .cls-20 {
        fill: #4cb6d6;
      }

      .cls-21 {
        fill: #4d4d4e;
      }

      .cls-4 {
        stroke-width: 7px;
      }

      .cls-5 {
        stroke: #ed1c24;
        stroke-dasharray: 0 0 0 24.31;
        stroke-width: 7.78px;
      }

      .cls-22 {
        clip-path: url(#clippath-1);
      }

      .cls-23 {
        clip-path: url(#clippath-2);
      }

      .cls-6 {
        stroke: #396db5;
        stroke-width: 3.86px;
      }
    </style>
    <clipPath id="clippath">
      <polygon class="cls-1" points="505.67 752.81 505.67 854.02 593.33 904.63 680.98 854.02 680.98 752.81 593.33 702.2 505.67 752.81"/>
    </clipPath>
    <clipPath id="clippath-1">
      <polygon class="cls-1" points="399.98 630.47 399.98 688.13 449.91 716.96 499.85 688.13 499.85 630.47 449.91 601.64 399.98 630.47"/>
    </clipPath>
    <clipPath id="clippath-2">
      <polygon class="cls-1" points="1158.22 24.97 1158.22 69.64 1196.91 91.98 1235.6 69.64 1235.6 24.97 1196.91 2.63 1158.22 24.97"/>
    </clipPath>
  </defs>
  <g id="Layer_1-2" data-name="Layer 1">
    <g>
      <g>
        <path class="cls-5" d="M1315.59,860.23c-74.49,41.47-161.83,61.69-253.13,53.27-241.09-22.22-418.52-235.67-396.31-476.76,1.54-16.66,3.98-33.02,7.29-49.03"/>
        <path class="cls-5" d="M1270.92,72.02c172.61,71.64,286.35,249.28,268.3,445.17-9.65,104.75-55.41,197.49-123.85,267.05"/>
        <path class="cls-5" d="M755.77,208.88c86.42-111.61,224.9-179.2,375.28-169.38"/>
      </g>
      <g class="cls-7">
        <g>
          <polygon class="cls-11" points="506.05 752.59 593.33 702.2 680.61 752.59 593.25 803.03 506.05 752.59"/>
          <polygon class="cls-11" points="680.98 753.24 680.98 854.02 593.63 904.45 593.63 803.67 680.98 753.24"/>
          <polygon class="cls-13" points="592.88 904.37 505.67 854.02 505.67 753.24 592.88 803.67 592.88 904.37"/>
          <path class="cls-12" d="M593.53,803.22s-.04-.04-.06-.05c.02,.02,.04,.03,.06,.05Z"/>
          <path class="cls-12" d="M593.6,803.34s-.02-.04-.03-.06c.01,.02,.02,.04,.03,.06Z"/>
        </g>
        <g>
          <line class="cls-1" x1="680.98" y1="752.81" x2="593.25" y2="803.46"/>
          <line class="cls-1" x1="593.25" y1="803.46" x2="593.25" y2="911.54"/>
          <line class="cls-1" x1="505.67" y1="752.81" x2="593.25" y2="803.46"/>
        </g>
      </g>
      <path class="cls-20" d="M391.7,854.87c0-22.85-18.35-41.4-41.12-41.74-1.41-38.84-32.41-70.13-71.14-71.99-17.38-37.5-55.35-63.52-99.4-63.52-49.56,0-91.43,32.93-104.92,78.1-1.52-.1-3.06-.15-4.61-.15-38.95,0-70.53,31.58-70.53,70.53s31.4,70.34,70.2,70.52h0s.32,0,.32,0c0,0,0,0,.01,0s0,0,.01,0h109.51s0,0,0,0c0,0,0,0,0,0h169.88s0,0,0,0c0,0,0,0,0,0h.69v-.02c22.74-.37,41.06-18.91,41.06-41.74Z"/>
      <g>
        <path class="cls-12" d="M1820.56,82.75c-11.07,0-21.74,1.67-31.79,4.76-24.18-45.48-72.03-76.46-127.13-76.46-61.29,0-113.6,38.33-134.35,92.32-39.17,1.3-72.51,25.62-86.9,59.88-5.48-1.4-11.22-2.15-17.14-2.15-38.05,0-68.89,30.84-68.89,68.89s30.84,68.89,68.89,68.89h397.32c59.69,0,108.07-48.38,108.07-108.07s-48.38-108.07-108.07-108.07Z"/>
        <path class="cls-17" d="M1712.7,130.77c-10.45,.3-20.6,3.46-29.25,9.1-3.75,2.42-7.2,5.23-10.28,8.4l-5.43,5.58-.32-8.74c-.12-3.32-3.04-5.91-6.52-5.78s-6.2,2.92-6.08,6.24l.88,24.04c.07,1.63,.82,3.16,2.09,4.26h0c1.15,.89,2.6,1.35,4.08,1.29l25.18-.92c3.48-.13,6.2-2.92,6.08-6.24-.12-3.32-3.04-5.91-6.52-5.78l-9.99,.37,5.75-5.83c2.46-2.58,5.19-4.92,8.15-6.96,19.5-12.7,46.03-7.95,59.27,10.63,13.24,18.57,8.17,43.93-11.33,56.63-6.61,4.31-14.36,6.76-22.35,7.08-16.12,.59-26.5-7.53-39.45-19.02l-36.16-32.46-17.38-15.41c-12.26-11.03-27.46-22.1-47.77-21.36-30.5,1.12-54.37,25.64-53.3,54.76,1.07,29.12,26.66,51.82,57.17,50.7,14.83-.78,28.77-7.05,38.86-17.48l5.91-6.08,.34,9.14c.12,3.32,3.04,5.91,6.52,5.78s6.2-2.92,6.08-6.24l-.88-24.04h0c-.08-.57-.24-1.14-.48-1.67-.12-.33-.27-.65-.46-.95l-.53-.62c-1.19-1.5-3.07-2.36-5.04-2.3l-25.1,.92c-3.48,.13-6.2,2.92-6.08,6.24,.12,3.32,3.04,5.91,6.52,5.78l10.16-.37-5.75,5.99c-7.72,8.42-18.65,13.53-30.33,14.19-23.55,.86-43.31-16.66-44.14-39.15-.83-22.48,17.6-41.41,41.15-42.28,15.61-.57,28.31,8.83,38.66,18.08l17.38,15.41,36.25,32.53c14.6,13.11,27.49,23.07,48.48,22.29,30.5-1.12,54.37-25.64,53.3-54.76-1.07-29.12-26.66-51.82-57.17-50.7l-.18-.31Z"/>
      </g>
      <g>
        <circle class="cls-17" cx="1101.3" cy="476.98" r="373.79"/>
        <g>
          <g>
            <path class="cls-13" d="M1150.09,368.88c12.1,5.65,22.59,13.36,31.44,22.4l58.22-21.19c-16.12-22.63-38.1-41.53-65.01-54.09-83.21-38.79-182.49-2.66-221.29,80.54-12.55,26.91-17.22,55.52-15.03,83.21l58.22-21.18c.96-12.61,4.04-25.25,9.69-37.37,25.21-54.06,89.7-77.53,143.76-52.33"/>
            <path class="cls-13" d="M970.89,497.21l-55.32,20.14c5.09,20.16,13.89,39.34,26,56.37l58.1-21.13c-14.91-15.31-24.83-34.69-28.78-55.38"/>
            <path class="cls-13" d="M1212.17,475.25c-.93,12.6-4.11,25.25-9.78,37.37-25.21,54.08-89.69,77.55-143.75,52.33-12.12-5.66-22.69-13.31-31.51-22.37l-58.09,21.15c16.08,22.63,38.02,41.54,64.95,54.11,83.21,38.79,182.48,2.66,221.28-80.55,12.57-26.92,17.21-55.51,14.98-83.17l-58.08,21.13Z"/>
            <path class="cls-13" d="M1226.48,404.18l-55.31,20.14c10.27,18.42,15.13,39.61,13.54,60.9l58.1-21.12c-1.67-20.84-7.23-41.18-16.32-59.92"/>
          </g>
          <g>
            <path class="cls-15" d="M1020.87,449.74l-58.22,21.2c.74,9.32,2.36,18.56,4.61,27.59l55.31-20.13c-1.8-9.33-2.43-18.99-1.7-28.65"/>
            <path class="cls-15" d="M1278.18,385.38c-4.06-8.39-8.76-16.49-14.21-24.12l-58.21,21.21c6.77,6.93,12.45,14.71,17.1,23.04l55.32-20.13Z"/>
            <path class="cls-15" d="M969.04,563.74c4.47,6.3,9.43,12.31,14.8,17.98l63.25-23.07c-7.39-4.61-14.07-10.02-19.96-16.07l-58.09,21.15Zm301.21-109.62l-58.08,21.12c-.61,8.38-2.25,16.76-4.91,25l63.22-23.07c.46-7.72,.39-15.42-.23-23.06"/>
          </g>
          <g>
            <path class="cls-14" d="M1020.64,461.44c-.13-3.88-.08-7.79,.23-11.7l-58.22,21.2c.29,3.74,.77,7.44,1.33,11.13l56.66-20.63Z"/>
            <path class="cls-14" d="M1269.73,370.04c-1.84-2.97-3.73-5.91-5.76-8.78l-58.2,21.21c2.56,2.6,4.91,5.39,7.16,8.25l56.8-20.68Z"/>
          </g>
        </g>
      </g>
      <g class="cls-22">
        <g>
          <polygon class="cls-11" points="400.19 630.35 449.91 601.64 499.64 630.35 449.87 659.08 400.19 630.35"/>
          <polygon class="cls-11" points="499.85 630.72 499.85 688.13 450.08 716.87 450.08 659.45 499.85 630.72"/>
          <polygon class="cls-13" points="449.66 716.82 399.98 688.13 399.98 630.72 449.66 659.45 449.66 716.82"/>
          <path class="cls-12" d="M450.03,659.19s-.02-.02-.03-.03c.01,0,.02,.02,.03,.03Z"/>
          <path class="cls-12" d="M450.07,659.26s-.01-.02-.02-.04c0,.01,.01,.02,.02,.04Z"/>
        </g>
        <g>
          <line class="cls-1" x1="499.85" y1="630.47" x2="449.87" y2="659.33"/>
          <line class="cls-1" x1="449.87" y1="659.33" x2="449.87" y2="720.9"/>
          <line class="cls-1" x1="399.98" y1="630.47" x2="449.87" y2="659.33"/>
        </g>
      </g>
      <g class="cls-23">
        <g>
          <polygon class="cls-11" points="1158.39 24.87 1196.91 2.63 1235.44 24.87 1196.88 47.13 1158.39 24.87"/>
          <polygon class="cls-11" points="1235.6 25.16 1235.6 69.64 1197.04 91.9 1197.04 47.42 1235.6 25.16"/>
          <polygon class="cls-13" points="1196.72 91.87 1158.22 69.64 1158.22 25.16 1196.72 47.42 1196.72 91.87"/>
          <path class="cls-12" d="M1197,47.22s-.02-.02-.03-.02c0,0,.02,.01,.03,.02Z"/>
          <path class="cls-12" d="M1197.03,47.27s0-.02-.01-.03c0,0,.01,.02,.01,.03Z"/>
        </g>
        <g>
          <line class="cls-1" x1="1235.6" y1="24.97" x2="1196.88" y2="47.32"/>
          <line class="cls-1" x1="1196.88" y1="47.32" x2="1196.88" y2="95.03"/>
          <line class="cls-1" x1="1158.22" y1="24.97" x2="1196.88" y2="47.32"/>
        </g>
      </g>
      <g>
        <circle class="cls-12" cx="720.18" cy="42.48" r="12.61"/>
        <circle class="cls-12" cx="770.96" cy="42.48" r="12.61"/>
        <g>
          <rect class="cls-17" x="20.8" y="35.67" width="797.56" height="515.67"/>
          <rect class="cls-6" x="57.22" y="1.93" width="797.56" height="515.84"/>
          <rect class="cls-19" x="57.22" y="1.93" width="797.56" height="79.11"/>
          <line class="cls-4" x1="146.19" y1="42.48" x2="603.32" y2="42.48"/>
        </g>
        <g>
          <path class="cls-16" d="M336.55,419.95l28.26-28.26c.98-.99,.98-2.58,0-3.57l-28.26-28.26c-2.65-2.65-6.18,.96-3.57,3.57,0,0,26.48,26.48,26.48,26.48l-26.48,26.48c-2.66,2.66,.93,6.21,3.57,3.57Z"/>
          <path class="cls-16" d="M364.55,417.86c0,1.39,1.13,2.52,2.52,2.52h28.26c1.39,0,2.52-1.13,2.52-2.52s-1.13-2.52-2.52-2.52h-28.26c-1.39,0-2.52,1.13-2.52,2.52Z"/>
          <path class="cls-16" d="M415.52,334.89h-104.98c-1.39,0-2.52,1.13-2.52,2.52v104.98c0,1.39,1.13,2.52,2.52,2.52h104.98c1.39,0,2.52-1.13,2.52-2.52v-104.98c0-1.39-1.13-2.52-2.52-2.52Zm-2.52,104.98h-99.93v-99.93h99.93v99.93Z"/>
        </g>
        <g>
          <path class="cls-13" d="M653.04,177.74l-61.41-35.44c-.97-.56-2.17-.56-3.14,0l-61.41,35.44c-.97,.57-1.56,1.61-1.57,2.73v70.88c0,1.12,.6,2.16,1.57,2.73l61.41,35.44c.98,.54,2.16,.54,3.14,0l61.41-35.44c.97-.57,1.56-1.61,1.57-2.73v-70.88c0-1.12-.6-2.16-1.57-2.73Zm-4.76,71.79l-58.22,33.62-58.22-33.62v-67.23l58.22-33.62,58.22,33.62v67.23Z"/>
          <path class="cls-13" d="M583.78,230.03c-.36,1.71,.72,3.38,2.43,3.75,1.71,.36,3.38-.72,3.75-2.43h0l6.28-29.57c.2-1.72-1.04-3.28-2.77-3.47-1.58-.18-3.05,.86-3.41,2.41l-6.28,29.31Z"/>
          <path class="cls-13" d="M605.25,231.1c1.24,1.21,3.22,1.21,4.46,0l12.96-12.96c.6-.61,.92-1.43,.91-2.28,0-.83-.32-1.64-.91-2.23l-12.96-12.91c-2.89-2.94-7.44,1.62-4.46,4.46l10.73,10.73-10.73,10.68c-1.24,1.21-1.27,3.19-.07,4.44,.02,.02,.04,.05,.07,.07Z"/>
          <path class="cls-13" d="M574.87,200.72c-1.18-1.23-3.14-1.27-4.37-.09-.03,.03-.06,.06-.09,.09l-12.96,12.96c-.59,.59-.92,1.39-.91,2.23-.01,.85,.32,1.67,.91,2.28l12.96,12.91c1.39,1.09,3.39,.84,4.48-.55,.91-1.17,.9-2.81-.02-3.96l-10.73-10.68,10.73-10.78c1.22-1.2,1.23-3.15,.04-4.37-.01-.01-.02-.02-.04-.04Z"/>
        </g>
        <g>
          <g>
            <polygon class="cls-8" points="374.41 207.41 332.06 167.43 336.13 163.11 378.48 203.09 374.41 207.41"/>
            <rect class="cls-8" x="353.06" y="186.36" width="5.94" height="32.05"/>
            <circle class="cls-8" cx="376.95" cy="205.42" r="6.41"/>
            <circle class="cls-8" cx="355.86" cy="186.52" r="6.41"/>
            <circle class="cls-8" cx="355.86" cy="219.42" r="6.41"/>
          </g>
          <path class="cls-8" d="M363.18,269.88c-3.68,0-7.38-1.37-10.22-4.11l-51.51-51.67c-5.52-5.51-5.53-14.65-.03-20.35l51.67-51.67c5.52-5.52,14.66-5.54,20.35-.04l51.67,51.67c5.57,5.57,5.5,14.72-.17,20.39l-51.63,51.63c-2.77,2.77-6.44,4.15-10.13,4.15Zm.06-126.03c-2.17,0-4.33,.81-5.95,2.43l-51.63,51.63c-3.23,3.35-3.25,8.75,0,12l51.47,51.63c3.35,3.22,8.75,3.24,11.99,0l51.63-51.63c3.35-3.36,3.43-8.74,.17-12l-51.63-51.63c-1.68-1.62-3.87-2.43-6.04-2.43Z"/>
        </g>
        <g>
          <path class="cls-9" d="M538.65,340.87c1.36-.06,2.4-1.21,2.34-2.57-.06-1.36-1.21-2.4-2.57-2.34-.46,.02-.9,.17-1.28,.43-1.09,.84-1.3,2.41-.46,3.5,.47,.61,1.2,.97,1.97,.98Z"/>
          <path class="cls-9" d="M548.72,334.81c1.36-.06,2.41-1.21,2.35-2.56-.06-1.36-1.21-2.41-2.56-2.35-.29,.01-.58,.08-.85,.19-1.25,.53-1.83,1.97-1.3,3.22,.4,.94,1.35,1.54,2.37,1.49Z"/>
          <path class="cls-9" d="M532.35,348.13c.74-1.14,.41-2.66-.72-3.4-1.05-.68-2.45-.46-3.24,.51-1.94,2.58,2.14,5.55,3.96,2.89Z"/>
          <path class="cls-9" d="M525.25,359.82c1.35,.24,2.63-.66,2.87-2,.24-1.35-.66-2.63-2-2.87h0c-1.35-.24-2.63,.66-2.87,2-.24,1.35,.66,2.63,2,2.87Z"/>
          <path class="cls-9" d="M527.83,404.53c-.17-1.37-1.42-2.34-2.79-2.16-1.13,.14-2.02,1.03-2.16,2.16,.17,1.37,1.42,2.34,2.79,2.16,1.13-.14,2.02-1.03,2.16-2.16Z"/>
          <path class="cls-9" d="M559.7,330.65c1.36,0,2.45-1.12,2.44-2.47,0-1.36-1.12-2.45-2.47-2.44-.2,0-.41,.03-.6,.08-1.31,.34-2.1,1.68-1.76,3,.28,1.09,1.27,1.85,2.39,1.84Z"/>
          <path class="cls-9" d="M525.33,395.22c1.37-.17,2.34-1.42,2.16-2.79-.14-1.13-1.03-2.02-2.16-2.16-1.37,.17-2.34,1.42-2.16,2.79,.14,1.13,1.03,2.02,2.16,2.16Z"/>
          <path class="cls-9" d="M525.33,371.63c1.37-.17,2.34-1.42,2.16-2.79-.14-1.13-1.03-2.02-2.16-2.16-1.37,.17-2.34,1.42-2.16,2.79,.14,1.13,1.03,2.02,2.16,2.16Z"/>
          <path class="cls-9" d="M525.33,378.45c-1.37,.17-2.34,1.42-2.16,2.79,.14,1.13,1.03,2.02,2.16,2.16,1.37-.17,2.34-1.42,2.16-2.79-.14-1.13-1.03-2.02-2.16-2.16Z"/>
          <path class="cls-9" d="M525.49,413.85c-1.28,.5-1.92,1.95-1.41,3.24,.42,1.08,1.53,1.72,2.68,1.56,1.28-.5,1.92-1.95,1.41-3.24-.42-1.08-1.53-1.72-2.68-1.56Z"/>
          <path class="cls-9" d="M627.2,336.31c1.24,.6,2.74,.07,3.33-1.17,.55-1.14,.15-2.51-.91-3.19-1.24-.6-2.74-.07-3.33,1.17-.55,1.14-.15,2.51,.91,3.19Z"/>
          <path class="cls-9" d="M571.2,328.07c1.36-.07,2.4-1.22,2.34-2.58-.07-1.36-1.22-2.4-2.58-2.34-1.36,.07-2.4,1.22-2.34,2.58,.07,1.36,1.22,2.4,2.58,2.34h0Z"/>
          <path class="cls-9" d="M645.79,361.29c.17,1.37,1.42,2.34,2.79,2.16,1.13-.14,2.02-1.03,2.16-2.16-.17-1.37-1.42-2.34-2.79-2.16-1.13,.14-2.02,1.03-2.16,2.16Z"/>
          <path class="cls-9" d="M616.86,331.72c1.29,.46,2.71-.21,3.17-1.51,.46-1.29-.21-2.71-1.51-3.17-1.29-.46-2.71,.21-3.17,1.51-.46,1.29,.21,2.71,1.51,3.17Z"/>
          <path class="cls-9" d="M638.02,343.37c1.38-.02,2.48-1.16,2.46-2.54-.01-.68-.3-1.32-.79-1.78-3.65-2.77-6.26,3.96-1.66,4.32Z"/>
          <path class="cls-9" d="M582.85,326.96c1.37-.17,2.34-1.42,2.16-2.79-.14-1.13-1.03-2.02-2.16-2.16-1.37,.17-2.34,1.42-2.16,2.79,.14,1.13,1.03,2.02,2.16,2.16Z"/>
          <path class="cls-9" d="M605.84,328.74c1.38,.02,2.51-1.09,2.53-2.47,.01-1.1-.69-2.08-1.74-2.41-1.38-.02-2.51,1.09-2.53,2.47-.01,1.1,.69,2.08,1.74,2.41Z"/>
          <path class="cls-9" d="M594.46,327.16c1.32-.3,2.16-1.61,1.86-2.94-.19-.83-.78-1.5-1.58-1.78-1.32,.3-2.16,1.61-1.86,2.94,.19,.83,.78,1.5,1.58,1.78Z"/>
          <path class="cls-9" d="M648.25,370.6c-1.37,.17-2.34,1.42-2.16,2.79,.14,1.13,1.03,2.02,2.16,2.16,1.37-.17,2.34-1.42,2.16-2.79-.14-1.13-1.03-2.02-2.16-2.16Z"/>
          <path class="cls-9" d="M647.22,417.57c-1.25-.56-2.71,0-3.27,1.25-.56,1.25,0,2.71,1.25,3.27h0c1.25,.56,2.71,0,3.27-1.25,.56-1.25,0-2.71-1.25-3.27Z"/>
          <path class="cls-9" d="M529.97,424.67c-1.09,.86-1.28,2.45-.42,3.55s2.45,1.28,3.55,.42h0c1.09-.86,1.28-2.45,.42-3.55-.86-1.09-2.45-1.28-3.55-.42Z"/>
          <path class="cls-9" d="M637.71,427.76c-.96,.96-.96,2.52,0,3.49,.96,.96,2.52,.96,3.49,0,2.3-2.22-1.27-5.75-3.49-3.49Z"/>
          <path class="cls-9" d="M628.83,434.5c-1.17,.7-1.55,2.22-.85,3.39,.7,1.17,2.22,1.55,3.39,.85,1.17-.7,1.55-2.22,.85-3.39-.7-1.17-2.22-1.55-3.39-.85Z"/>
          <path class="cls-9" d="M648.25,406c-1.37,.17-2.34,1.42-2.16,2.79,.14,1.13,1.03,2.02,2.16,2.16,1.37-.17,2.34-1.42,2.16-2.79-.14-1.13-1.03-2.02-2.16-2.16Z"/>
          <path class="cls-9" d="M648.25,382.41c-1.37,.17-2.34,1.42-2.16,2.79,.14,1.13,1.03,2.02,2.16,2.16,1.37-.17,2.34-1.42,2.16-2.79-.14-1.13-1.03-2.02-2.16-2.16Z"/>
          <path class="cls-9" d="M648.25,394.19c-1.37,.17-2.34,1.42-2.16,2.79,.14,1.13,1.03,2.02,2.16,2.16,1.37-.17,2.34-1.42,2.16-2.79-.14-1.13-1.03-2.02-2.16-2.16Z"/>
          <path class="cls-9" d="M618.52,439.37c-1.27,.49-1.9,1.92-1.41,3.19,.49,1.27,1.92,1.9,3.19,1.41h0c1.27-.49,1.9-1.92,1.41-3.19-.49-1.27-1.92-1.9-3.19-1.41Z"/>
          <path class="cls-9" d="M645.36,352.49c1.35-.08,2.39-1.24,2.31-2.6-.08-1.35-1.24-2.39-2.6-2.31-.31,.02-.62,.1-.9,.23-1.2,.67-1.64,2.19-.96,3.4,.44,.78,1.26,1.27,2.15,1.28Z"/>
          <path class="cls-9" d="M551.49,437.91c-1.29-.49-2.73,.16-3.22,1.45-.45,1.19,.07,2.53,1.2,3.11,1.29,.49,2.73-.16,3.22-1.45,.45-1.19-.07-2.53-1.2-3.11Z"/>
          <path class="cls-9" d="M573.45,443.93c-1.38-.03-2.52,1.07-2.55,2.44-.02,1.16,.75,2.18,1.87,2.47,1.38,.03,2.52-1.07,2.55-2.44,.02-1.16-.75-2.18-1.87-2.47Z"/>
          <path class="cls-9" d="M562.24,441.67c-1.36-.23-2.65,.68-2.88,2.04-.2,1.18,.46,2.33,1.58,2.76,1.36,.23,2.65-.68,2.88-2.04,.2-1.18-.46-2.33-1.58-2.76Z"/>
          <path class="cls-9" d="M538.18,433.07c-.61,1.21-.13,2.69,1.08,3.3,.96,.49,2.13,.29,2.88-.49,.61-1.21,.13-2.69-1.08-3.3-.96-.49-2.13-.29-2.88,.49Z"/>
          <path class="cls-9" d="M596.37,444.37c-1.34,.34-2.15,1.69-1.81,3.03,.27,1.06,1.19,1.82,2.29,1.88,1.34-.34,2.15-1.69,1.81-3.03-.27-1.06-1.19-1.82-2.29-1.88Z"/>
          <path class="cls-9" d="M584.87,444.84c-1.37,.17-2.34,1.42-2.16,2.79,.14,1.13,1.03,2.02,2.16,2.16,1.37-.17,2.34-1.42,2.16-2.79-.14-1.13-1.03-2.02-2.16-2.16Z"/>
          <path class="cls-9" d="M607.66,442.58c-1.34,.34-2.14,1.7-1.8,3.04,.32,1.27,1.58,2.08,2.87,1.84,1.34-.34,2.14-1.7,1.8-3.04-.32-1.27-1.58-2.08-2.87-1.84Z"/>
          <path class="cls-9" d="M640.92,393.79v-31.71c0-17-23.78-30.32-54.11-30.32s-54.11,13.32-54.11,30.32v47.57c0,17,23.78,30.32,54.11,30.32s54.11-13.32,54.11-30.32v-15.86Zm-5.15,15.86c0,13.64-22.4,25.17-48.95,25.17s-48.95-11.53-48.95-25.17v-2.81c8.56,10.31,26.99,17.28,48.95,17.28s40.39-6.98,48.95-17.28v2.81Zm0-15.86c0,13.64-22.4,25.17-48.95,25.17s-48.95-11.53-48.95-25.17v-2.81c8.56,10.31,26.99,17.28,48.95,17.28s40.39-6.98,48.95-17.28v2.81Zm0-15.86c0,13.64-22.4,25.17-48.95,25.17s-48.95-11.53-48.95-25.17v-2.81c8.56,10.31,26.99,17.28,48.95,17.28s40.39-6.98,48.95-17.28v2.81Zm-48.95,9.31c-26.56,0-48.95-11.53-48.95-25.17s22.4-25.17,48.95-25.17,48.95,11.53,48.95,25.17-22.4,25.17-48.95,25.17Z"/>
        </g>
      </g>
      <g>
        <g>
          <g>
            <polygon class="cls-18" points="1345.15 417.74 1219.38 827.07 841.34 875.49 843.17 913.27 1339.43 958.66 1740.04 877.14 1742.73 846.19 1764.29 847.39 1903.62 438.26 1893.95 417.74 1345.15 417.74"/>
            <polygon class="cls-6" points="1372.07 453.19 1848.74 455.17 1732.95 811.23 1262.82 798.26 1372.07 453.19"/>
            <g>
              <polygon class="cls-13" points="1739.02 520.24 1440.87 520.24 1429.81 555.19 1727.72 555.19 1739.02 520.24"/>
              <polygon class="cls-12" points="1429.81 555.19 1372.54 736.07 1666.6 744.18 1727.72 555.19 1429.81 555.19"/>
            </g>
            <circle class="cls-12" cx="1681.03" cy="537.71" r="7.22"/>
            <circle class="cls-12" cx="1705.32" cy="537.71" r="7.22"/>
            <line class="cls-2" x1="1455.13" y1="538.78" x2="1649.64" y2="538.78"/>
            <polygon points="1429.81 555.19 1423.53 575 1721.06 575 1727.72 555.19 1429.81 555.19"/>
            <polygon class="cls-21" points="1498.74 575 1450.25 738.21 1372.54 736.07 1423.53 575 1498.74 575"/>
          </g>
          <polygon class="cls-13" points="1331.89 921.82 1742.73 847.39 1217.4 829.04 840.41 879.44 1331.89 921.82"/>
          <polygon class="cls-13" points="1893.95 417.74 1741.53 846.19 1761.89 849.78 1903.62 438.26 1893.95 417.74"/>
        </g>
        <circle class="cls-3" cx="1515.55" cy="628.82" r="20.11"/>
        <circle class="cls-3" cx="1613.16" cy="628.82" r="20.11"/>
        <circle class="cls-3" cx="1555.51" cy="684.39" r="20.11"/>
        <circle class="cls-3" cx="1636.27" cy="688.2" r="20.11"/>
        <g>
          <line class="cls-2" x1="1429.81" y1="591.38" x2="1479.68" y2="591.38"/>
          <line class="cls-2" x1="1419.71" y1="623.17" x2="1469.59" y2="623.17"/>
          <line class="cls-2" x1="1409.62" y1="654.97" x2="1459.49" y2="654.97"/>
          <line class="cls-2" x1="1399.52" y1="686.77" x2="1449.4" y2="686.77"/>
          <line class="cls-2" x1="1389.43" y1="718.56" x2="1439.31" y2="718.56"/>
        </g>
        <g>
          <path class="cls-10" d="M1517.26,636.85h-2.62v-15.79l-3.33,1.4v-2.33l4.28-1.8h1.67v18.51Z"/>
          <path class="cls-10" d="M1606.98,636.29l7.14-6.64c2.14-2.04,2.83-3.15,2.83-4.63,0-1.93-1.64-3.31-3.86-3.31-1.8,0-3.2,.63-5.05,2.27l-1.51-1.8c2.06-1.85,4.26-2.75,6.61-2.75,3.76,0,6.37,2.25,6.37,5.42,0,2.14-.85,3.6-3.7,6.27l-5.21,4.81h9.2v2.25h-12.83v-1.9Z"/>
          <path class="cls-10" d="M1555.51,693.93c-2.75,0-5.24-.95-7.01-2.72l1.77-1.67c1.56,1.51,3.07,2.12,5.21,2.12,2.59,0,4.36-1.32,4.36-3.23,0-1.75-1.66-2.94-4.2-2.94h-1.61v-2.14h1.4c2.17,0,3.78-1.38,3.78-3.23,0-1.69-1.64-2.96-3.81-2.96-1.93,0-3.28,.61-4.92,2.22l-1.77-1.69c1.82-1.83,4.18-2.83,6.74-2.83,3.7,0,6.37,2.12,6.37,5.08,0,1.88-1.14,3.44-3.01,4.31,2.25,.66,3.7,2.27,3.7,4.31,0,3.12-2.94,5.37-7.01,5.37Z"/>
        </g>
        <path class="cls-10" d="M1641.8,690.57h2.29v2.29h-2.29v4.77h-2.67v-4.77h-10.69v-2.15l10.37-11.93h2.99v11.79Zm-2.67,0v-8.64l-7.51,8.64h7.51Z"/>
      </g>
    </g>
  </g>
</svg>