<svg id="a3d50151-6eee-413c-9060-1f26b75f02bd" data-name="Icon" xmlns="http://www.w3.org/2000/svg" viewBox="0 0 36 36">
  <defs>
    <style>
      .ff6887f9-7287-4a2e-9054-911157234983 {
        fill: #e00;
      }
    </style>
  </defs>
  <g>
    <path class="ff6887f9-7287-4a2e-9054-911157234983" d="M29,21.37a.63.63,0,0,0-.62.63.63.63,0,0,0,1.25,0A.63.63,0,0,0,29,21.37Z"/>
    <path class="ff6887f9-7287-4a2e-9054-911157234983" d="M27,21.37a.63.63,0,0,0-.62.63.63.63,0,0,0,1.25,0A.63.63,0,0,0,27,21.37Z"/>
    <g>
      <path class="ff6887f9-7287-4a2e-9054-911157234983" d="M19,24.38H10.5a5.88,5.88,0,1,1,1.09-11.65.63.63,0,0,0,.69-.36,7.87,7.87,0,0,1,15.1,3.13c0,.13,0,.26,0,.39V16a.63.63,0,0,0,1.25.08V16c0-.15,0-.31,0-.47a9.12,9.12,0,0,0-17.28-4.07,7.12,7.12,0,1,0-.84,14.19H19a.62.62,0,0,0,0-1.24Z"/>
      <path class="ff6887f9-7287-4a2e-9054-911157234983" d="M32,18.38H22a.61.61,0,0,0-.62.62V29a.61.61,0,0,0,.62.62H32a.61.61,0,0,0,.62-.62V19A.61.61,0,0,0,32,18.38Zm-.62,10H22.62V19.62h8.76Z"/>
    </g>
  </g>
</svg>
