<?xml version="1.0" encoding="UTF-8"?>
<svg width="37px" height="37px" viewBox="0 0 37 37" version="1.1" xmlns="http://www.w3.org/2000/svg" xmlns:xlink="http://www.w3.org/1999/xlink">
    <title>Product_Icon-Red_Hat-Ansible-RGB@1x</title>
    <g id="Homepage-design" stroke="none" stroke-width="1" fill="none" fill-rule="evenodd">
        <g id="Product_Icon-Red_Hat-Ansible-RGB" transform="translate(0.283730, 0.500000)" fill-rule="nonzero">
            <g id="Group-3" fill="#000000">
                <rect id="Rectangle" x="0.6251" y="0.6252" width="34.75" height="34.75" rx="8.375"></rect>
                <path d="M27,1.25 C31.2782193,1.25479458 34.7452054,4.72178074 34.75,9 L34.75,27 C34.7452054,31.2782193 31.2782193,34.7452054 27,34.75 L9,34.75 C4.72178074,34.7452054 1.25479458,31.2782193 1.25,27 L1.25,9 C1.25479458,4.72178074 4.72178074,1.25479458 9,1.25 L27,1.25 M27,0 L9,0 C4.02943725,0 0,4.02943725 0,9 L0,27 C0,31.9705627 4.02943725,36 9,36 L27,36 C31.9705627,36 36,31.9705627 36,27 L36,9 C36,4.02943725 31.9705627,0 27,0 L27,0 Z" id="Shape"></path>
            </g>
            <path d="M14,22.6252 C13.9115537,22.6252946 13.8241293,22.6062952 13.7437,22.5695 C13.5925905,22.5014934 13.4747047,22.3762183 13.4159992,22.2212582 C13.3572937,22.0662981 13.3625821,21.8943593 13.4307,21.7433 L15.4517,17.2619 L15.46,17.2443 L17.43,12.8752 C17.5440977,12.6670259 17.7626085,12.53761 18,12.53761 C18.2373915,12.53761 18.4559023,12.6670259 18.57,12.8752 L22.57,21.7433 C22.6874315,22.0034295 22.6137588,22.3100658 22.3909687,22.4884534 C22.1681787,22.666841 21.8528533,22.6716748 21.6247,22.5002 L16.274,18.4787 L14.57,22.257 C14.4689501,22.4811548 14.2458789,22.6252509 14,22.6252 L14,22.6252 Z M16.8013,17.3107 L20.4297,20.0383 L18,14.6525 L16.8013,17.3107 Z" id="Shape" fill="#FFFFFF"></path>
            <path d="M18,29.1252 C11.8558712,29.1252 6.8751,24.1443288 6.8751,18.0002 C6.8751,11.8560712 11.8558712,6.8752 18,6.8752 C24.1441288,6.8752 29.1251,11.8558712 29.1251,18 C29.1183763,24.1414521 24.141452,29.1184211 18,29.1252 Z M18,8.1252 C14.0059262,8.1252 10.4051609,10.5312542 8.87674178,14.2213166 C7.34832263,17.9113789 8.19324706,22.1587918 11.0175266,24.9829855 C13.8418062,27.8071793 18.0892447,28.6519747 21.7792606,27.1234434 C25.4692765,25.5949122 27.8751,21.9940738 27.8751,18 C27.8689825,12.5487174 23.4512828,8.13115191 18,8.1252 Z" id="Shape" fill="#EE0000"></path>
        </g>
    </g>
</svg>