<?xml version="1.0" encoding="UTF-8"?><svg id="uuid-3e74c712-fde4-407f-81b6-27b3d29ba6ea" xmlns="http://www.w3.org/2000/svg" viewBox="0 0 38 38"><defs><style>.uuid-9ff50cd3-1e21-4151-863b-70c26d004035{fill:#e00;}.uuid-d0bdc3e2-ca8e-46bd-aef4-5291e597359e{fill:#fff;}</style></defs><path d="m28,1H10C5.0294,1,1,5.0294,1,10v18c0,4.9706,4.0294,9,9,9h18c4.9706,0,9-4.0294,9-9V10c0-4.9706-4.0294-9-9-9h0Z"/><path class="uuid-d0bdc3e2-ca8e-46bd-aef4-5291e597359e" d="m25.9277,18.625c-.3057,0-.5732-.2246-.6182-.5366-.3975-2.7808-2.6172-5.001-5.3984-5.3989-.3418-.0488-.5791-.3652-.5303-.707.0498-.3418.3633-.5806.708-.5303,3.3271.4761,5.9824,3.1318,6.459,6.4595.0488.3418-.1885.6582-.5303.707-.0303.0044-.0605.0063-.0898.0063Z"/><path class="uuid-d0bdc3e2-ca8e-46bd-aef4-5291e597359e" d="m19.999,30.5801c-.3193,0-.5918-.2441-.6211-.5688-.0312-.3438.2227-.6475.5664-.6787,5.376-.4844,9.4307-4.9268,9.4307-10.3325s-4.0547-9.8481-9.4307-10.3325c-.3438-.0312-.5977-.335-.5664-.6787.0312-.3447.3633-.5894.6777-.5664,6.0254.543,10.5693,5.5205,10.5693,11.5776s-4.5439,11.0347-10.5693,11.5776c-.0186.0015-.0381.0024-.0566.0024Z"/><path class="uuid-9ff50cd3-1e21-4151-863b-70c26d004035" d="m19,26.625c-4.2046,0-7.625-3.4204-7.625-7.625,0-3.77,2.8101-7.0146,6.5366-7.5479.335-.0498.6582.1875.707.5303.0488.3418-.1885.6582-.5303.707-3.1147.4458-5.4634,3.1587-5.4634,6.3105,0,3.5151,2.8599,6.375,6.375,6.375,3.1514,0,5.8643-2.3486,6.3096-5.4634.0498-.3418.3633-.5767.708-.5303.3418.0488.5791.3652.5303.707-.5332,3.7266-3.7783,6.5366-7.5479,6.5366Z"/><path class="uuid-9ff50cd3-1e21-4151-863b-70c26d004035" d="m18.0005,30.5801c-.0186,0-.0376-.001-.0566-.0024-6.0254-.543-10.5688-5.5205-10.5688-11.5776s4.5435-11.0347,10.5688-11.5776c.3501-.0244.6475.2231.6787.5664.0308.3438-.2227.6475-.5664.6787-5.3765.4844-9.4312,4.9268-9.4312,10.3325s4.0547,9.8481,9.4312,10.3325c.3438.0312.5972.335.5664.6787-.0293.3247-.3022.5688-.6221.5688Z"/><path class="uuid-d0bdc3e2-ca8e-46bd-aef4-5291e597359e" d="m18,21.625c-.1602,0-.3198-.061-.4419-.1831l-2-2c-.2441-.2441-.2441-.6396,0-.8838s.6396-.2441.8838,0l1.5581,1.5581,3.5576-3.5581c.2441-.2441.6406-.2441.8848,0,.2432.2441.2432.6396,0,.8838l-4.0005,4c-.1221.1221-.2817.1831-.4419.1831Z"/></svg>