<svg class="pf-v5-svg" viewBox="0 0 1024 1024" fill="currentColor" aria-hidden="true" color="var(--pf-v5-global--Color--100)" xmlns="http://www.w3.org/2000/svg"><path d="M768 256v1.4a42.38 42.38 0 0 0-8.8-.8 258.72 258.72 0 0 0-151.4 45.8 52 52 0 1 0 59 85.6 154.66 154.66 0 0 1 90.8-27.4 59.22 59.22 0 0 0 10.4-.8v.4c83.8 0 152 68.2 152 151.9-.067 59.155-34.378 112.92-88 137.9v110.2c110.4-28.4 192-128.6 192-247.9C1024 370.6 909.4 256 768 256m-21.4 196c-15.2-6.2-28.2-3.6-38.8 7.8l-72.6 72-16 16-251.6-254.9c-38.6-32-63-36.9-111.6-36.9C114.6 256 0 371.5 0 512.8S114.6 768 256 768c48 0 88.2-17.1 124-45.1l-.6-.4 5.4-3.6a52.06 52.06 0 1 0-60.4-84.8 154.94 154.94 0 0 1-78.6 28.4C163.2 661.4 104 595.8 104 512.8c0-82.4 61.8-149.5 143.6-151.9h4.6c.8.2 1.6 0 2.2.2h.4c14.6-.2 37.8 5.2 57.8 21.2l234 238.3-87.8 87.8c-11.4 11.2-14 23.8-7.8 38.4 6.2 14.8 17.2 21.2 32.8 21.2h248.8c9.6 0 18-2.6 25-9.6a34.352 34.352 0 0 0 10.6-25V484.8c0-15.6-7.2-26.6-21.6-32.8"/></svg>