<?xml version="1.0" encoding="UTF-8"?>
<svg width="580px" height="420px" viewBox="0 0 580 420" version="1.1" xmlns="http://www.w3.org/2000/svg" xmlns:xlink="http://www.w3.org/1999/xlink">
    <title>Group 13</title>
    <g id="Homepage-design" stroke="none" stroke-width="1" fill="none" fill-rule="evenodd">
        <g id="Console-Dot-landing-page---ROSA-_-annotations" transform="translate(-894.000000, -749.000000)" fill="#FAFAFA">
            <g id="Group-13" transform="translate(894.000000, 749.000000)">
                <path d="M580,275.547268 C580,262.594959 569.554115,252.094537 556.669078,252.094537 C556.385585,252.094537 556.104315,252.105712 555.823046,252.11577 C553.052596,234.752524 538.445478,221.365491 520.583192,220.582094 C513.272407,194.843989 489.699126,176 461.747823,176 C429.953244,176 403.827415,200.380291 400.852405,231.556354 C400.751237,231.555237 400.651181,231.548531 400.550013,231.548531 C382.020685,231.548531 367,246.648756 367,265.274824 C367,283.838311 381.922852,298.896069 400.367688,298.99553 L400.367688,299 L400.546677,299 C400.547789,299 400.548901,299 400.550013,299 C400.551124,299 400.552236,299 400.553348,299 L461.741153,299 C461.743377,299 461.7456,299 461.747823,299 C461.750047,299 461.751159,299 461.753382,299 L556.666855,299 C556.666855,299 556.667966,299 556.669078,299 C556.67019,299 556.671302,299 556.672413,299 L557.059298,299 L557.059298,298.989942 C569.763122,298.779844 580,288.368825 580,275.547268" id="Fill-1"></path>
                <path d="M450,121.399108 C450,105.603609 437.298196,92.7982156 421.630475,92.7982156 C421.285758,92.7982156 420.943745,92.8118441 420.601732,92.8241098 C417.232969,71.649419 399.471262,55.3237691 377.751394,54.3684072 C368.861753,22.9804748 340.197529,0 306.209795,0 C267.548781,0 235.780753,29.7320625 232.163253,67.7516513 C232.040237,67.7502885 231.918572,67.7421113 231.795555,67.7421113 C209.264588,67.7421113 191,86.1570192 191,108.871737 C191,131.510135 209.145627,149.873254 231.573855,149.994549 L231.573855,150 L231.7915,150 C231.792851,150 231.794203,150 231.795555,150 C231.796907,150 231.798259,150 231.799611,150 L306.201684,150 C306.204387,150 306.207091,150 306.209795,150 C306.212498,150 306.21385,150 306.216554,150 L421.627772,150 C421.627772,150 421.629123,150 421.630475,150 C421.631827,150 421.633179,150 421.634531,150 L422.104968,150 L422.104968,149.987734 C437.55234,149.731517 450,137.035153 450,121.399108" id="Fill-1"></path>
                <path d="M356,380.912114 C356,359.324932 338.54115,341.824228 317.005595,341.824228 C316.531776,341.824228 316.061673,341.842854 315.59157,341.859617 C310.961147,312.920873 286.547371,290.609151 256.693035,289.30349 C244.47407,246.406649 205.074596,215 158.357865,215 C105.217629,215 61.5519228,255.633819 56.5796067,307.593923 C56.4105182,307.592061 56.2432878,307.580885 56.0741993,307.580885 C25.1049939,307.580885 0,332.747926 0,363.791374 C0,394.730518 24.9414798,419.826781 55.7694685,419.99255 L55.7694685,420 L56.068625,420 C56.0704831,420 56.0723412,420 56.0741993,420 C56.0760575,420 56.0779156,420 56.0797737,420 L158.346716,420 C158.350432,420 158.354148,420 158.357865,420 C158.361581,420 158.363439,420 158.367155,420 L317.001879,420 C317.001879,420 317.003737,420 317.005595,420 C317.007453,420 317.009311,420 317.01117,420 L317.657794,420 L317.657794,419.983237 C338.890476,419.633074 356,402.281375 356,380.912114" id="Fill-1" transform="translate(178.000000, 317.500000) scale(-1, 1) translate(-178.000000, -317.500000) "></path>
            </g>
        </g>
    </g>
</svg>