<?xml version="1.0" encoding="UTF-8"?>
<svg width="140px" height="387px" viewBox="0 0 140 387" version="1.1" xmlns="http://www.w3.org/2000/svg" xmlns:xlink="http://www.w3.org/1999/xlink">
    <title>lightbulb_half</title>
    <defs>
        <rect id="path-1" x="0" y="0" width="140" height="396"></rect>
    </defs>
    <g id="lightbulb_half" stroke="none" stroke-width="1" fill="none" fill-rule="evenodd">
        <g id="Shape">
            <mask id="mask-2" fill="white">
                <use xlink:href="#path-1"></use>
            </mask>
            <g id="Mask"></g>
            <path d="M72.185387,343.642329 C72.1931651,348.37212 73.6398809,353.004157 76.3544177,356.944396 L89.647092,376.262096 C94.2590918,382.969184 102.03703,387 110.367797,387 L158.366096,387 C166.696862,387 174.474801,382.969184 179.086801,376.262096 L192.379475,356.944396 C195.092839,353.00359 196.543071,348.376358 196.548506,343.642329 L196.579618,314.804891 L72.1464968,314.804891 L72.185387,343.642329 Z M-1,132.355238 C-1,165.721971 11.3375,196.163382 31.67,219.423086 C44.06,233.598496 63.44,263.212694 70.8275,288.194504 C70.8575,288.390027 70.88,288.58555 70.91,288.781073 L191.09,288.781073 C191.12,288.58555 191.1425,288.397547 191.1725,288.194504 C198.56,263.212694 217.94,233.598496 230.33,219.423086 C250.6625,196.163382 263,165.721971 263,132.355238 C263,59.1168736 203.6825,-0.224324676 130.5875,0.000637515116 C54.08,0.234402114 -1,62.3956422 -1,132.355238 Z M134.678344,73.2450939 C100.779317,73.2450939 73.1974522,100.78476 73.1974522,134.631923 C73.1974522,141.415168 67.6949124,146.909289 60.9012739,146.909289 C54.1076354,146.909289 48.6050955,141.415168 48.6050955,134.631923 C48.6050955,87.241291 87.2150955,48.6903621 134.678344,48.6903621 C141.471982,48.6903621 146.974522,54.1844833 146.974522,60.967728 C146.974522,67.7509726 141.471982,73.2450939 134.678344,73.2450939 Z" fill-opacity="0.06" fill="#6A6E73" fill-rule="nonzero" mask="url(#mask-2)"></path>
        </g>
    </g>
</svg>