<?xml version="1.0" encoding="UTF-8"?>
<svg width="1162px" height="1311px" viewBox="0 0 1162 1311" version="1.1" xmlns="http://www.w3.org/2000/svg" xmlns:xlink="http://www.w3.org/1999/xlink">
    <title>ctl_background_pattern</title>
    <defs>
        <rect id="path-1" x="0" y="0" width="140" height="397"></rect>
        <rect id="path-3" x="0" y="0" width="140" height="397"></rect>
        <rect id="path-5" x="0" y="0" width="140" height="397"></rect>
        <rect id="path-7" x="0" y="0" width="194" height="389"></rect>
        <rect id="path-9" x="0" y="0" width="194" height="389"></rect>
        <rect id="path-11" x="0" y="0" width="194" height="389"></rect>
    </defs>
    <g id="ctl_background_pattern" stroke="none" stroke-width="1" fill="none" fill-rule="evenodd">
        <g id="Shape" transform="translate(1022.000000, 0.000000)">
            <mask id="mask-2" fill="white">
                <use xlink:href="#path-1"></use>
            </mask>
            <g id="Mask"></g>
            <path d="M71.4626044,344.530294 C71.4704119,349.272307 72.9226078,353.916313 75.6474269,357.866733 L88.9904522,377.23435 C93.6199217,383.958769 101.427322,388 109.789644,388 L157.969755,388 C166.332078,388 174.139478,383.958769 178.768948,377.23435 L192.111973,357.866733 C194.835615,353.915744 196.29134,349.276556 196.296795,344.530294 L196.328025,315.61834 L71.4235669,315.61834 L71.4626044,344.530294 Z M-2,132.697241 C-2,166.150194 10.384233,196.670264 30.79375,219.990071 C43.2306818,234.20211 62.6840909,263.892831 70.0995739,288.939193 C70.1296875,289.135221 70.1522727,289.331249 70.1823864,289.527277 L190.817614,289.527277 C190.847727,289.331249 190.870312,289.14276 190.900426,288.939193 C198.315909,263.892831 217.769318,234.20211 230.20625,219.990071 C250.615767,196.670264 263,166.150194 263,132.697241 C263,59.2696304 203.457813,-0.224904326 130.085938,0.000639162442 C53.2886364,0.235007804 -2,62.5568712 -2,132.697241 Z M134.192277,73.4343577 C100.164845,73.4343577 72.4785032,101.045186 72.4785032,134.979809 C72.4785032,141.780582 66.9551204,147.2889 60.1357484,147.2889 C53.3163764,147.2889 47.7929936,141.780582 47.7929936,134.979809 C47.7929936,87.4667207 86.5492436,48.816177 134.192277,48.816177 C141.011649,48.816177 146.535032,54.3244949 146.535032,61.1252673 C146.535032,67.9260397 141.011649,73.4343577 134.192277,73.4343577 Z" fill-opacity="0.06" fill="#6A6E73" fill-rule="nonzero" mask="url(#mask-2)"></path>
        </g>
        <g id="Shape-Copy" transform="translate(1022.000000, 437.000000)">
            <mask id="mask-4" fill="white">
                <use xlink:href="#path-3"></use>
            </mask>
            <g id="Mask"></g>
            <path d="M71.4626044,344.530294 C71.4704119,349.272307 72.9226078,353.916313 75.6474269,357.866733 L88.9904522,377.23435 C93.6199217,383.958769 101.427322,388 109.789644,388 L157.969755,388 C166.332078,388 174.139478,383.958769 178.768948,377.23435 L192.111973,357.866733 C194.835615,353.915744 196.29134,349.276556 196.296795,344.530294 L196.328025,315.61834 L71.4235669,315.61834 L71.4626044,344.530294 Z M-2,132.697241 C-2,166.150194 10.384233,196.670264 30.79375,219.990071 C43.2306818,234.20211 62.6840909,263.892831 70.0995739,288.939193 C70.1296875,289.135221 70.1522727,289.331249 70.1823864,289.527277 L190.817614,289.527277 C190.847727,289.331249 190.870312,289.14276 190.900426,288.939193 C198.315909,263.892831 217.769318,234.20211 230.20625,219.990071 C250.615767,196.670264 263,166.150194 263,132.697241 C263,59.2696304 203.457813,-0.224904326 130.085938,0.000639162442 C53.2886364,0.235007804 -2,62.5568712 -2,132.697241 Z M134.192277,73.4343577 C100.164845,73.4343577 72.4785032,101.045186 72.4785032,134.979809 C72.4785032,141.780582 66.9551204,147.2889 60.1357484,147.2889 C53.3163764,147.2889 47.7929936,141.780582 47.7929936,134.979809 C47.7929936,87.4667207 86.5492436,48.816177 134.192277,48.816177 C141.011649,48.816177 146.535032,54.3244949 146.535032,61.1252673 C146.535032,67.9260397 141.011649,73.4343577 134.192277,73.4343577 Z" id="Shape" fill-opacity="0.06" fill="#6A6E73" fill-rule="nonzero" mask="url(#mask-4)"></path>
        </g>
        <g id="Shape-Copy-2" transform="translate(1022.000000, 874.000000)">
            <mask id="mask-6" fill="white">
                <use xlink:href="#path-5"></use>
            </mask>
            <g id="Mask"></g>
            <path d="M71.4626044,344.530294 C71.4704119,349.272307 72.9226078,353.916313 75.6474269,357.866733 L88.9904522,377.23435 C93.6199217,383.958769 101.427322,388 109.789644,388 L157.969755,388 C166.332078,388 174.139478,383.958769 178.768948,377.23435 L192.111973,357.866733 C194.835615,353.915744 196.29134,349.276556 196.296795,344.530294 L196.328025,315.61834 L71.4235669,315.61834 L71.4626044,344.530294 Z M-2,132.697241 C-2,166.150194 10.384233,196.670264 30.79375,219.990071 C43.2306818,234.20211 62.6840909,263.892831 70.0995739,288.939193 C70.1296875,289.135221 70.1522727,289.331249 70.1823864,289.527277 L190.817614,289.527277 C190.847727,289.331249 190.870312,289.14276 190.900426,288.939193 C198.315909,263.892831 217.769318,234.20211 230.20625,219.990071 C250.615767,196.670264 263,166.150194 263,132.697241 C263,59.2696304 203.457813,-0.224904326 130.085938,0.000639162442 C53.2886364,0.235007804 -2,62.5568712 -2,132.697241 Z M134.192277,73.4343577 C100.164845,73.4343577 72.4785032,101.045186 72.4785032,134.979809 C72.4785032,141.780582 66.9551204,147.2889 60.1357484,147.2889 C53.3163764,147.2889 47.7929936,141.780582 47.7929936,134.979809 C47.7929936,87.4667207 86.5492436,48.816177 134.192277,48.816177 C141.011649,48.816177 146.535032,54.3244949 146.535032,61.1252673 C146.535032,67.9260397 141.011649,73.4343577 134.192277,73.4343577 Z" id="Shape" fill-opacity="0.06" fill="#6A6E73" fill-rule="nonzero" mask="url(#mask-6)"></path>
        </g>
        <g id="cog">
            <mask id="mask-8" fill="white">
                <use xlink:href="#path-7"></use>
            </mask>
            <g id="Mask"></g>
            <path d="M-0.286154231,419.422199 C4.86842195,418.307607 8.52293592,413.753027 8.52293592,408.548571 L8.52293592,362.820336 C29.3288628,355.47746 48.6356427,344.417764 65.5051648,330.196729 L105.429334,353.0613 C110.021959,355.663528 115.738487,354.826677 119.299647,350.923788 C142.448563,326.107773 160.161927,296.179882 170.564433,262.998978 C171.970227,257.887102 169.908213,252.496578 165.316504,249.89435 L125.391419,227.029779 C129.421177,205.467683 129.421177,183.346476 125.391419,161.78438 L165.316504,138.919809 C169.908213,136.317581 171.970227,130.927057 170.47108,125.907761 C160.067659,92.8203455 142.35521,62.8924541 119.206294,37.9838585 C115.645133,34.1726428 109.834337,33.2432108 105.335981,35.8463465 L65.4108961,58.7100102 C48.6356427,44.3963946 29.3288628,33.3366986 8.42958245,26.0873107 L8.42958245,-19.5483442 C8.42958245,-24.7528002 4.77415324,-29.30738 -0.380422936,-30.4228799 C-34.7747718,-38.043496 -70.0138781,-37.6722678 -102.721458,-30.4228799 C-107.876034,-29.30738 -111.531463,-24.7528002 -111.531463,-19.5483442 L-111.531463,26.1798908 C-132.33739,33.5227666 -151.643255,44.5824626 -168.512777,58.8025903 L-208.343593,35.9389267 C-212.936218,33.3366986 -218.652745,34.1726428 -222.213906,38.0764387 C-245.362822,62.8924541 -263.076186,92.8203455 -273.478692,126.001249 C-275.072107,131.019637 -272.916741,136.410161 -268.324116,139.013296 L-228.399946,161.87696 C-232.429705,183.439964 -232.429705,205.560263 -228.399946,227.123267 L-268.324116,249.986931 C-272.916741,252.589159 -274.978754,257.98059 -273.478692,262.998978 C-263.076186,296.087301 -245.362822,326.014285 -222.213906,350.923788 C-218.652745,354.734096 -212.841949,355.663528 -208.343593,353.0613 L-168.419423,330.196729 C-151.643255,344.510345 -132.33739,355.570948 -111.43811,362.820336 L-111.43811,408.548571 C-111.43811,413.753027 -107.782681,418.307607 -102.628104,419.422199 C-68.2328403,427.043723 -32.9946492,426.672495 -0.286154231,419.422199 Z M-51,271 C-91.7921387,271 -125,237.792139 -125,197 C-125,156.207861 -91.7921387,123 -51,123 C-10.2078613,123 23,156.207861 23,197 C23,237.792139 -10.2078613,271 -51,271 Z" fill-opacity="0.06" fill="#6A6E73" mask="url(#mask-8)"></path>
        </g>
        <g id="cog-copy" transform="translate(0.000000, 437.000000)">
            <mask id="mask-10" fill="white">
                <use xlink:href="#path-9"></use>
            </mask>
            <g id="Mask"></g>
            <path d="M-0.286154231,419.422199 C4.86842195,418.307607 8.52293592,413.753027 8.52293592,408.548571 L8.52293592,362.820336 C29.3288628,355.47746 48.6356427,344.417764 65.5051648,330.196729 L105.429334,353.0613 C110.021959,355.663528 115.738487,354.826677 119.299647,350.923788 C142.448563,326.107773 160.161927,296.179882 170.564433,262.998978 C171.970227,257.887102 169.908213,252.496578 165.316504,249.89435 L125.391419,227.029779 C129.421177,205.467683 129.421177,183.346476 125.391419,161.78438 L165.316504,138.919809 C169.908213,136.317581 171.970227,130.927057 170.47108,125.907761 C160.067659,92.8203455 142.35521,62.8924541 119.206294,37.9838585 C115.645133,34.1726428 109.834337,33.2432108 105.335981,35.8463465 L65.4108961,58.7100102 C48.6356427,44.3963946 29.3288628,33.3366986 8.42958245,26.0873107 L8.42958245,-19.5483442 C8.42958245,-24.7528002 4.77415324,-29.30738 -0.380422936,-30.4228799 C-34.7747718,-38.043496 -70.0138781,-37.6722678 -102.721458,-30.4228799 C-107.876034,-29.30738 -111.531463,-24.7528002 -111.531463,-19.5483442 L-111.531463,26.1798908 C-132.33739,33.5227666 -151.643255,44.5824626 -168.512777,58.8025903 L-208.343593,35.9389267 C-212.936218,33.3366986 -218.652745,34.1726428 -222.213906,38.0764387 C-245.362822,62.8924541 -263.076186,92.8203455 -273.478692,126.001249 C-275.072107,131.019637 -272.916741,136.410161 -268.324116,139.013296 L-228.399946,161.87696 C-232.429705,183.439964 -232.429705,205.560263 -228.399946,227.123267 L-268.324116,249.986931 C-272.916741,252.589159 -274.978754,257.98059 -273.478692,262.998978 C-263.076186,296.087301 -245.362822,326.014285 -222.213906,350.923788 C-218.652745,354.734096 -212.841949,355.663528 -208.343593,353.0613 L-168.419423,330.196729 C-151.643255,344.510345 -132.33739,355.570948 -111.43811,362.820336 L-111.43811,408.548571 C-111.43811,413.753027 -107.782681,418.307607 -102.628104,419.422199 C-68.2328403,427.043723 -32.9946492,426.672495 -0.286154231,419.422199 Z M-51,271 C-91.7921387,271 -125,237.792139 -125,197 C-125,156.207861 -91.7921387,123 -51,123 C-10.2078613,123 23,156.207861 23,197 C23,237.792139 -10.2078613,271 -51,271 Z" id="cog" fill-opacity="0.06" fill="#6A6E73" mask="url(#mask-10)"></path>
        </g>
        <g id="cog-copy-2" transform="translate(0.000000, 874.000000)">
            <mask id="mask-12" fill="white">
                <use xlink:href="#path-11"></use>
            </mask>
            <g id="Mask"></g>
            <path d="M-0.286154231,419.422199 C4.86842195,418.307607 8.52293592,413.753027 8.52293592,408.548571 L8.52293592,362.820336 C29.3288628,355.47746 48.6356427,344.417764 65.5051648,330.196729 L105.429334,353.0613 C110.021959,355.663528 115.738487,354.826677 119.299647,350.923788 C142.448563,326.107773 160.161927,296.179882 170.564433,262.998978 C171.970227,257.887102 169.908213,252.496578 165.316504,249.89435 L125.391419,227.029779 C129.421177,205.467683 129.421177,183.346476 125.391419,161.78438 L165.316504,138.919809 C169.908213,136.317581 171.970227,130.927057 170.47108,125.907761 C160.067659,92.8203455 142.35521,62.8924541 119.206294,37.9838585 C115.645133,34.1726428 109.834337,33.2432108 105.335981,35.8463465 L65.4108961,58.7100102 C48.6356427,44.3963946 29.3288628,33.3366986 8.42958245,26.0873107 L8.42958245,-19.5483442 C8.42958245,-24.7528002 4.77415324,-29.30738 -0.380422936,-30.4228799 C-34.7747718,-38.043496 -70.0138781,-37.6722678 -102.721458,-30.4228799 C-107.876034,-29.30738 -111.531463,-24.7528002 -111.531463,-19.5483442 L-111.531463,26.1798908 C-132.33739,33.5227666 -151.643255,44.5824626 -168.512777,58.8025903 L-208.343593,35.9389267 C-212.936218,33.3366986 -218.652745,34.1726428 -222.213906,38.0764387 C-245.362822,62.8924541 -263.076186,92.8203455 -273.478692,126.001249 C-275.072107,131.019637 -272.916741,136.410161 -268.324116,139.013296 L-228.399946,161.87696 C-232.429705,183.439964 -232.429705,205.560263 -228.399946,227.123267 L-268.324116,249.986931 C-272.916741,252.589159 -274.978754,257.98059 -273.478692,262.998978 C-263.076186,296.087301 -245.362822,326.014285 -222.213906,350.923788 C-218.652745,354.734096 -212.841949,355.663528 -208.343593,353.0613 L-168.419423,330.196729 C-151.643255,344.510345 -132.33739,355.570948 -111.43811,362.820336 L-111.43811,408.548571 C-111.43811,413.753027 -107.782681,418.307607 -102.628104,419.422199 C-68.2328403,427.043723 -32.9946492,426.672495 -0.286154231,419.422199 Z M-51,271 C-91.7921387,271 -125,237.792139 -125,197 C-125,156.207861 -91.7921387,123 -51,123 C-10.2078613,123 23,156.207861 23,197 C23,237.792139 -10.2078613,271 -51,271 Z" id="cog" fill-opacity="0.06" fill="#6A6E73" mask="url(#mask-12)"></path>
        </g>
    </g>
</svg>