<?xml version="1.0" encoding="UTF-8"?>
<svg width="112px" height="100px" viewBox="0 0 112 100" version="1.1" xmlns="http://www.w3.org/2000/svg" xmlns:xlink="http://www.w3.org/1999/xlink">
    <!-- Generator: Sketch 64 (93537) - https://sketch.com -->
    <title>exclamation-triangle</title>
    <desc>Created with Sketch.</desc>
    <g id="Symbols" stroke="none" stroke-width="1" fill="none" fill-rule="evenodd">
        <g id="Icons/4.-Size-xl-(54px)---Empty-state/exclamation-triangle" fill="#F0AB00">
            <path d="M102.696147,100 C105.030954,100 107.041482,99.2516685 108.727732,97.7550025 C110.413983,96.2583364 111.451674,94.4363104 111.840809,92.2889215 C112.229943,90.1415325 111.905664,88.0266808 110.867972,85.9443632 L64.1718257,4.7340173 C63.004422,2.65169975 61.3506001,1.25264529 59.2103601,0.536847983 C57.07012,-0.178949328 54.92988,-0.178949328 52.7896399,0.536847983 C50.6493999,1.25264529 48.995578,2.65169975 47.8281743,4.7340173 L1.13202764,85.9443632 C0.0943364789,88.0266808 -0.229943307,90.1415325 0.159191249,92.2889215 C0.548325804,94.4363104 1.58601696,96.2583364 3.27226769,97.7550025 C4.95851843,99.2516685 6.96904597,100 9.30385331,100 L102.696147,100 Z M60.6696147,65.6417767 L51.3303853,65.6417767 C50.6818287,65.6417767 50.1305528,65.4140224 49.6765635,64.9585166 C49.2225741,64.5030109 48.995578,64.0149679 48.995578,63.4943878 L47.4390398,36.9448516 C47.4390398,36.1639829 47.6660359,35.5457942 48.1200252,35.0902884 C48.5740146,34.6347827 49.1252905,34.4070283 49.7738471,34.4070283 L62.2261529,34.4070283 C62.8747095,34.4070283 63.4259854,34.6347827 63.8799748,35.0902884 C64.3339641,35.5457942 64.5609602,36.1639829 64.5609602,36.9448516 L63.004422,63.4943878 C63.004422,64.0149679 62.7774259,64.5030109 62.3234365,64.9585166 C61.8694472,65.4140224 61.3181713,65.6417767 60.6696147,65.6417767 Z M56,87.1156663 C53.5354802,87.1156663 51.427669,86.237189 49.6765635,84.4802344 C47.925458,82.7232798 47.0499052,80.608428 47.0499052,78.1356761 C47.0499052,75.6629242 47.925458,73.5480724 49.6765635,71.7911178 C51.427669,70.0341632 53.5354802,69.1556859 56,69.1556859 C58.4645198,69.1556859 60.572331,70.0341632 62.3234365,71.7911178 C64.074542,73.5480724 64.9500948,75.6629242 64.9500948,78.1356761 C64.9500948,80.608428 64.074542,82.7232798 62.3234365,84.4802344 C60.572331,86.237189 58.4645198,87.1156663 56,87.1156663 Z" id="exclamation-triangle"></path>
        </g>
    </g>
</svg>