<svg id="Art" xmlns="http://www.w3.org/2000/svg" viewBox="0 0 700 600"><defs><style>.cls-1{fill:#dedede;}.cls-2{fill:#ffb2b4;}.cls-11,.cls-14,.cls-15,.cls-16,.cls-22,.cls-23,.cls-28,.cls-3,.cls-30,.cls-4,.cls-6,.cls-9{fill:none;}.cls-13,.cls-17,.cls-18,.cls-29,.cls-3,.cls-30,.cls-7,.cls-9{stroke:#e00;}.cls-10,.cls-11,.cls-13,.cls-14,.cls-16,.cls-17,.cls-18,.cls-19,.cls-20,.cls-21,.cls-22,.cls-23,.cls-24,.cls-25,.cls-26,.cls-27,.cls-28,.cls-29,.cls-3,.cls-30,.cls-4,.cls-7{stroke-linecap:round;}.cls-10,.cls-11,.cls-13,.cls-14,.cls-16,.cls-17,.cls-18,.cls-19,.cls-20,.cls-21,.cls-22,.cls-23,.cls-24,.cls-25,.cls-26,.cls-27,.cls-28,.cls-29,.cls-3,.cls-4,.cls-7{stroke-linejoin:round;}.cls-10,.cls-12,.cls-14,.cls-17,.cls-19,.cls-20,.cls-21,.cls-22,.cls-23,.cls-24,.cls-25,.cls-26,.cls-28,.cls-3,.cls-6,.cls-7{stroke-width:1.57px;}.cls-14,.cls-4{stroke:#fff;}.cls-11,.cls-13,.cls-16,.cls-18,.cls-4{stroke-width:2.36px;}.cls-10,.cls-12,.cls-18,.cls-5,.cls-7{fill:#fff;}.cls-10,.cls-6{stroke:#fddbdb;}.cls-12,.cls-30,.cls-6,.cls-9{stroke-miterlimit:10;}.cls-13,.cls-17,.cls-29,.cls-8{fill:#e00;}.cls-9{stroke-width:10.23px;}.cls-11,.cls-12,.cls-16{stroke:red;}.cls-16{stroke-dasharray:0 6.42;}.cls-19,.cls-22,.cls-27{stroke:#000;}.cls-20,.cls-26,.cls-31{fill:#8f0000;}.cls-20{stroke:#8f0000;}.cls-21{fill:#5f0000;}.cls-21,.cls-23,.cls-26{stroke:#5f0000;}.cls-24{fill:#570000;stroke:#570000;}.cls-25{fill:#380000;stroke:#380000;}.cls-27{stroke-width:1.18px;}.cls-28{stroke:#be0000;}.cls-29{stroke-width:0.39px;}.cls-30{stroke-width:1.68px;}</style></defs><path class="cls-1" d="M62.39,405.86c28.43-55.28,91.07-89.94,109.44-149.33,9.76-31.54,5.45-66.12,15.15-97.68,13.94-45.39,57.7-79,104.89-84.28s95.67,16.49,126,53c0,5,15.59,21.33,18.76,26.09,5.93,8.9,11.74,17.88,18.27,26.37,11.63,15.13,22.35,27.93,36.67,40.79L601.9,319.9c36.46,32.74,75,69.14,83.77,117.36,6.18,34.08-4.06,69.74-22.74,98.91q-3.73,5.83-7.86,11.31H67.72A150.16,150.16,0,0,1,52.11,512,145.88,145.88,0,0,1,62.39,405.86Z"/><path class="cls-2" d="M655.08,547.48H477.68V286.35h86.87L601.9,319.9c22.68,20.37,46.18,42.16,62.8,67.32V533.34c-.58.95-1.17,1.89-1.77,2.83Q659.2,542,655.08,547.48Z"/><path class="cls-2" d="M417.88,127.57c0,5,15.59,21.33,18.76,26.09,5.93,8.9,11.74,17.88,18.27,26.37,11.63,15.13,22.35,27.93,36.67,40.79L552,275.12H405.92V119.79h5Q414.54,123.56,417.88,127.57Z"/><rect class="cls-2" x="111.8" y="191.88" width="179.66" height="179.66" transform="translate(403.26 563.43) rotate(-180)"/><path class="cls-3" d="M485.63,111.92V66.48a7.08,7.08,0,0,0-7.08-7.08H200.84a7.08,7.08,0,0,0-7.08,7.08v99.88"/><path class="cls-4" d="M412,268.69a16.21,16.21,0,0,0,4.2-4,5.56,5.56,0,0,0,.57-5.52c-.61-1.11-1.72-1.94-2.07-3.16-.57-2,1.07-3.81,2.15-5.57a6.82,6.82,0,0,0,1.14-4.4,3.88,3.88,0,0,0-2.82-3.33"/><path class="cls-4" d="M376.19,210.47a9.6,9.6,0,0,0-11.79,1.75,7.39,7.39,0,0,1-1.33,1.35,5.36,5.36,0,0,1-3.15.53l-4.48-.18a18.54,18.54,0,0,0-5.31.32,6.17,6.17,0,0,0-4.13,3.1,3.79,3.79,0,0,0,1.17,4.74"/><path class="cls-4" d="M375.24,235.8a4.74,4.74,0,0,1,5.62,4.17,5.83,5.83,0,0,0,.1,1.32,5.3,5.3,0,0,0,1.32,1.79,5.84,5.84,0,0,1-3.89,9.63"/><path class="cls-4" d="M346.07,258.49a10,10,0,0,0-9.33-5.39,26.55,26.55,0,0,1-3.32.28,3.27,3.27,0,0,1-2.8-1.52c-.6-1.16-.09-2.6-.49-3.84s-1.62-2-2.46-3a5.79,5.79,0,0,1,4-9.53"/><path class="cls-5" d="M200.57,150.16a44.69,44.69,0,0,0-13.21,2,59.83,59.83,0,0,0-108.69,6.59,40.66,40.66,0,0,0-36.12,24.89A28.64,28.64,0,1,0,35.42,240H200.57a44.92,44.92,0,0,0,0-89.84Z"/><path class="cls-6" d="M200.57,150.16a44.69,44.69,0,0,0-13.21,2,59.83,59.83,0,0,0-108.69,6.59,40.66,40.66,0,0,0-36.12,24.89A28.64,28.64,0,1,0,35.42,240H200.57a44.92,44.92,0,0,0,0-89.84Z"/><rect class="cls-7" x="103.93" y="184.02" width="179.66" height="179.66"/><rect class="cls-8" x="103.93" y="184.02" width="179.66" height="33.58"/><circle class="cls-5" cx="250.34" cy="201.02" r="4.58"/><circle class="cls-5" cx="268.12" cy="201.02" r="4.58"/><line class="cls-4" x1="114.64" y1="201.02" x2="211.17" y2="201.02"/><line class="cls-9" x1="179.23" y1="337.19" x2="208.29" y2="242.69"/><polyline class="cls-9" points="223.95 266.34 247.56 289.95 223.95 313.57"/><polyline class="cls-9" points="163.58 266.34 139.96 289.95 163.58 313.57"/><rect class="cls-10" x="469.81" y="286.35" width="187.03" height="52.23" transform="translate(1126.65 624.93) rotate(-180)"/><circle class="cls-8" cx="500.13" cy="312.47" r="5.98"/><rect class="cls-8" x="525.48" y="307.62" width="101.83" height="9.69" transform="translate(1152.79 624.93) rotate(-180)"/><rect class="cls-10" x="469.81" y="390.81" width="187.03" height="52.23" transform="translate(1126.65 833.84) rotate(-180)"/><circle class="cls-8" cx="500.13" cy="416.92" r="5.98"/><rect class="cls-8" x="525.48" y="412.07" width="101.83" height="9.69" transform="translate(1152.79 833.84) rotate(-180)"/><rect class="cls-10" x="469.81" y="495.26" width="187.03" height="52.23" transform="translate(1126.65 1042.74) rotate(-180)"/><circle class="cls-8" cx="500.13" cy="521.37" r="5.98"/><rect class="cls-8" x="525.48" y="516.53" width="101.83" height="9.69" transform="translate(1152.79 1042.74) rotate(-180)"/><rect class="cls-10" x="469.81" y="338.58" width="187.03" height="52.23" transform="translate(1126.65 729.39) rotate(-180)"/><rect class="cls-8" x="628.65" y="349.03" width="8.51" height="31.34" transform="translate(1265.81 729.39) rotate(-180)"/><rect class="cls-8" x="613.8" y="349.03" width="8.51" height="31.34" transform="translate(1236.11 729.39) rotate(-180)"/><circle class="cls-5" cx="514.43" cy="364.69" r="5.51"/><circle class="cls-8" cx="496.5" cy="364.69" r="5.51"/><rect class="cls-10" x="469.81" y="443.03" width="187.03" height="52.23" transform="translate(1126.65 938.29) rotate(-180)"/><rect class="cls-8" x="628.65" y="453.48" width="8.51" height="31.34" transform="translate(1265.81 938.29) rotate(-180)"/><rect class="cls-8" x="613.8" y="453.48" width="8.51" height="31.34" transform="translate(1236.11 938.29) rotate(-180)"/><circle class="cls-8" cx="514.43" cy="469.14" r="5.51"/><circle class="cls-8" cx="496.5" cy="469.14" r="5.51"/><line class="cls-11" x1="111.43" y1="322.78" x2="71.96" y2="322.78"/><line class="cls-11" x1="111.43" y1="299.67" x2="90.32" y2="299.67"/><line class="cls-11" x1="119.41" y1="311.23" x2="56.01" y2="311.23"/><line class="cls-11" x1="45.56" y1="311.23" x2="32.49" y2="311.23"/><line class="cls-11" x1="193.76" y1="424.39" x2="193.76" y2="461.98"/><line class="cls-11" x1="175.81" y1="445.96" x2="175.81" y2="357.41"/><line class="cls-11" x1="211.71" y1="375.25" x2="211.71" y2="418.99"/><line class="cls-11" x1="193.76" y1="348.9" x2="193.76" y2="408.12"/><rect class="cls-12" x="405.92" y="111.92" width="159.13" height="155.33"/><rect class="cls-13" x="405.92" y="111.92" width="159.13" height="33.38"/><line class="cls-14" x1="421.45" y1="128.61" x2="498.16" y2="128.61"/><circle class="cls-5" cx="534.94" cy="128.61" r="4.43"/><circle class="cls-5" cx="548.23" cy="128.61" r="4.43"/><polygon class="cls-15" points="446.43 182.05 446.43 226.98 485.34 249.44 524.25 226.98 524.25 182.05 485.34 159.58 446.43 182.05"/><line class="cls-11" x1="446.43" y1="182.05" x2="446.43" y2="182.05"/><line class="cls-16" x1="446.43" y1="188.47" x2="446.43" y2="223.77"/><line class="cls-11" x1="446.43" y1="226.98" x2="446.43" y2="226.98"/><line class="cls-16" x1="451.99" y1="230.19" x2="482.56" y2="247.84"/><line class="cls-11" x1="485.34" y1="249.44" x2="485.34" y2="249.44"/><line class="cls-16" x1="490.9" y1="246.23" x2="521.47" y2="228.58"/><line class="cls-11" x1="524.25" y1="226.98" x2="524.25" y2="226.98"/><line class="cls-16" x1="524.25" y1="220.56" x2="524.25" y2="185.26"/><line class="cls-11" x1="524.25" y1="182.05" x2="524.25" y2="182.05"/><line class="cls-16" x1="518.69" y1="178.84" x2="488.12" y2="161.19"/><line class="cls-11" x1="485.34" y1="159.58" x2="485.34" y2="159.58"/><line class="cls-16" x1="479.78" y1="162.79" x2="449.21" y2="180.44"/><line class="cls-11" x1="553.47" y1="166.36" x2="582.46" y2="166.36"/><line class="cls-11" x1="553.47" y1="189.48" x2="588.69" y2="189.48"/><line class="cls-11" x1="553.47" y1="177.92" x2="602.32" y2="177.92"/><line class="cls-11" x1="615.16" y1="177.92" x2="630.55" y2="177.92"/><path class="cls-17" d="M520.53,547.48H387.4a29.28,29.28,0,0,0-2.71-5.71,14.27,14.27,0,0,0-5.67-5.6c-6.73-3.22-14.42,2.22-21.88,2.06-2.76-5.55-5-12.87-8.85-17.75-4.92,7.63-12,16.63-18.75,22.64a17,17,0,0,1-5.75,3.73c-2.46.8-5.12.54-7.69.27l-30.75-3.24c-.15-6.58-6.68-12.48-13.24-12a72.75,72.75,0,0,0,13.12-7.37c8.51-6.48,13.75-16.37,17.49-26.39,8.93-23.89,10.74-49.75,15.79-74.74a64,64,0,0,1,3.23-11.72c5.93-14.52,20.85-23.79,36.16-27.19,18.8-4.18,36.69-13.18,53-23.43a11.33,11.33,0,0,1,3.71-1.77,11.11,11.11,0,0,1,3.81.14l17.19,2.71c14.39,2.28,29.08,4.71,41.89,11.63a39.89,39.89,0,0,1,11.65,9c6.82,8.06,8.64,19.13,9.56,29.65.8,9.16,3,56.39,7.72,83.9C510.41,519.59,520.53,547.48,520.53,547.48Z"/><path d="M444.65,547.48l-4.13-17.57,25.62-128.22,30.07,41.21s7.32,68.72.75,104.58Z"/><line class="cls-7" x1="693.21" y1="547.48" x2="34.82" y2="547.48"/><path class="cls-18" d="M242.71,548.1c1.76,6.28,7.1,11.19,13.24,13.39s12.95,1.94,19.27.31c5.89-1.52,11.68-4.36,15.37-9.2a19.47,19.47,0,0,0,4-11.74,8.64,8.64,0,0,0-.83-4.08,9.15,9.15,0,0,0-3.76-3.42c-3.07-1.74-7.66-3.67-11.29-3.43-3.81.27-8.17,3.31-11.56,5C264.81,536,242.3,546.64,242.71,548.1Z"/><path class="cls-19" d="M386.11,568.15c-2.46.05-6.95-4.85-7.68-7.2a7.14,7.14,0,0,1,4.82-2.26c2.26-.2,5.58-.46,5.51,2.36C388.7,563.24,388,568.11,386.11,568.15Z"/><path class="cls-17" d="M285.23,524.56c8.51-6.48,13.75-16.37,17.49-26.39,8.93-23.89,10.74-49.75,15.79-74.74a64,64,0,0,1,3.23-11.72c5.93-14.52,20.85-23.79,36.16-27.19,18.8-4.18,36.69-13.18,53-23.43a11.33,11.33,0,0,1,3.71-1.77,11.11,11.11,0,0,1,3.81.14l17.19,2.71c14.39,2.28,29.08,4.71,41.89,11.63a39.89,39.89,0,0,1,11.65,9c6.82,8.06,8.64,19.13,9.56,29.65a258.52,258.52,0,0,1,.93,27.55l-14,110.86a12.78,12.78,0,0,1-4.37,7.33,14.06,14.06,0,0,1-5.22,2.23,261.48,261.48,0,0,1-50.39,8.44c-13.23.92-26.6,2.24-39.53-.71,2.26-2.12,2.91-7.81,2.93-10.91a29.22,29.22,0,0,0-4.35-15.47,14.27,14.27,0,0,0-5.67-5.6,10.23,10.23,0,0,0-3.73-1l-14.84,3.55c-1,.23-1.94.43-2.95.57-3-5.33-6.3-12.08-9.34-18.65-1.5,2.05-12.09,16.4-18.62,22.48a16.08,16.08,0,0,1-5.75,3.73c-2.46.8-5.12.54-7.69.27l-30.75-3.24c-.15-6.58-6.68-12.48-13.24-12A72.75,72.75,0,0,0,285.23,524.56Z"/><path class="cls-19" d="M317,547.21l-.87-.09-.23,0h0c8.63-9.56,15.82-20.31,18.52-32.76,1.81-8.32,1-26,1-26.26a43.53,43.53,0,0,0,2,7.32c1.43,4.36,3.28,8.67,5.12,12.87,1.64,3.75,5.55,12.53,5.51,12.62-4.91,7.55-11.8,16.33-18.48,22.24a17,17,0,0,1-5.75,3.73c-.31.1-.62.18-.93.25A19,19,0,0,1,317,547.21Z"/><path class="cls-20" d="M306.77,294.31a29,29,0,0,1,3.33-8,33.14,33.14,0,0,1,6.15-6.81c3.57-3.17,7.71-6.22,12.48-6.41,11.07-.44,21.56-.3,31.36,4.85,10.48,5.51,20.59,12,28.73,20.59,4.45,4.69,8.35,10.14,9.95,16.41,1.43,5.58,1,11.54,2.55,17.09,1.06,3.74,3,7.15,4.46,10.76,1.38,3.45,2.32,7.11,4.2,10.32s5,6,8.71,6.24c-.76,9.16-2.56,18.39-6.92,26.48a37,37,0,0,1-22.68,17.66c-8.64,2.42-22.56,3-28.51-5.17-2.63-3.62-2.81-8.41-2.66-12.88-3.81,1.08-7.71,2.16-11.66,1.93s-8.38-1.82-10.08-5.4a82.86,82.86,0,0,0-11.77-18.12c-1-1.16-2-2.32-3-3.52a3.9,3.9,0,0,1-1.7-.85,5.06,5.06,0,0,1-1.53-3.95c0-.12,0-.25,0-.38s-.21-.52-.3-.79c-1.36-4.16-.5-8.84-2.1-12.91a28.39,28.39,0,0,0-2.66-4.67A54,54,0,0,1,306.77,294.31Z"/><path class="cls-21" d="M387.27,316.44a68.49,68.49,0,0,1,1-8.34,11.91,11.91,0,0,1,3.48-6.3,34.6,34.6,0,0,1,7,13.11c1.43,5.58,1,11.54,2.55,17.09,1.06,3.74,3,7.15,4.46,10.76,1.38,3.45,2.32,7.11,4.2,10.32s5,6,8.71,6.24c-.76,9.16-2.56,18.39-6.92,26.48a33.77,33.77,0,0,1-5.26,7.25,65.35,65.35,0,0,0-4.89-45,16.73,16.73,0,0,0-3-4.46c-3.28-3.27-6.89-2.46-11-2.78-2.73-.21-4.61-1.19-5.16-4-.58-3,1-6.09,2-8.79A47,47,0,0,0,387.27,316.44Z"/><path class="cls-22" d="M344.6,331.62a14.66,14.66,0,0,1-10,4.4,5.68,5.68,0,0,1-4.15-1.23"/><path class="cls-22" d="M318.47,337.43a8.88,8.88,0,0,1-5.53.41"/><path class="cls-23" d="M316.08,330.51a13.7,13.7,0,0,1,4.45,8.65c.53,4-.34,8.15-1.48,12.07a17.06,17.06,0,0,0-.87,4.27,5.06,5.06,0,0,0,1.53,3.95c2,1.72,5.07.86,7.5-.2"/><path class="cls-23" d="M333.41,351.07a3.49,3.49,0,0,1,3,1.46,4.86,4.86,0,0,1,.84,3.34,3.51,3.51,0,0,1-.43,1.52,3.61,3.61,0,0,1-3,1.61,10.69,10.69,0,0,1-3.51-.66"/><path class="cls-24" d="M343.35,370.43a24.66,24.66,0,0,1-4.34,4.83,8.4,8.4,0,0,1-6,2,5.13,5.13,0,0,1-4.5-4.05,2.75,2.75,0,0,1,.33-1.87,3.63,3.63,0,0,1,2.05-1.26,52.11,52.11,0,0,1,7.95-1.41c2.05-.31,5.38-2.09,7.21-1.84C345.24,368.06,344.25,369.24,343.35,370.43Z"/><path class="cls-25" d="M332.72,371.35a7.66,7.66,0,0,1-3.66-.16,2.64,2.64,0,0,1-1.79-2.88,3,3,0,0,1,1.88-1.82,12.24,12.24,0,0,1,5.05-.58c3.14.11,6.12.86,11.46,1C341.19,370.77,336.53,370.87,332.72,371.35Z"/><path class="cls-23" d="M378.64,351.71A20.39,20.39,0,0,1,376.77,362a54.28,54.28,0,0,1-5.41,9c-3.07,4.38-6.31,8.76-10.56,12s-9.67,5.34-15,4.51"/><path class="cls-19" d="M333.5,322a82,82,0,0,0-9.27,3.11c-1,.4-2.15,1.23-1.77,2.21s1.66.85,2.59.54c3.65-1.18,7-3.41,10.75-4a22.14,22.14,0,0,1,9.5,1S338.42,320.66,333.5,322Z"/><path class="cls-19" d="M307.92,328.23a2.81,2.81,0,0,1,2.45-.86h.95a1.58,1.58,0,0,1,.88.41h0a1.33,1.33,0,0,1,.63,1.87,2.62,2.62,0,0,1-1.81,1.21,3.16,3.16,0,0,1-2.52-.33A1.77,1.77,0,0,1,307.92,328.23Z"/><path d="M346.18,256.6c-9.54.19-19.7,1.38-27,7.48a34.24,34.24,0,0,0-7.77,9.86A59.43,59.43,0,0,0,304,306.18a25.16,25.16,0,0,1,26.42-10.81c7.59,1.8,13.86,7.07,21.14,9.88,3.32,1.28,6.86,2.06,9.94,3.84,4.58,2.65,7.68,7.28,9.81,12.13a12.87,12.87,0,0,0,2.25,3.95,3.72,3.72,0,0,0,4.15,1c.11-3.1.32-6.45,2.3-8.84a7.24,7.24,0,0,1,7.81-2.13c3.7,1.31,5.64,5.4,6.35,9.27s.6,7.91,2,11.57,6.31,6.68,10.14,5.8a79.38,79.38,0,0,1-2-13.71c-.11-1.92-.18-13.79,0-18.58.34-7.86.14-15.85-2-23.42-2.62-9.11-9.47-19.6-18.37-23.55C372.2,257.39,358.88,256.34,346.18,256.6Z"/><path d="M384.54,272.16c3.1.91,6.33,1.91,8.57,4.23,1.28,1.34,2.13,3,3.33,4.44,4.35,5.13,13.07,5.33,18.06.83a6.71,6.71,0,0,1,1.85-1.39,7.3,7.3,0,0,1,2.56-.24c5.51-.1,10.18-5.88,9.12-11.29,3.88-1,5.21-6,4.62-10s-2.38-7.83-2-11.82c.3-3,1.83-5.79,2.46-8.77s0-6.66-2.76-8c-.83-.39-1.85-.6-2.32-1.39s-.08-1.93-.13-2.92c-.1-1.9-1.92-3.23-3.68-4s-3.73-1.23-5-2.64c-1.53-1.68-1.63-4.16-2.16-6.37-1.09-4.53-5.39-8.8-9.91-7.71-1.34-3.85-5.92-6.95-9.91-6.13-2.92.59-5.77,2.71-8.6,1.78-1.79-.59-3-2.26-4.5-3.36a8.22,8.22,0,0,0-9.26,0,15.12,15.12,0,0,1-2.79,2c-2.85,1.17-5.78-1.19-8.3-3a13.83,13.83,0,0,0-6.68-2.73,7.33,7.33,0,0,0-6.48,2.65,7.31,7.31,0,0,1-1.53,1.9c-1,.64-2.3.48-3.24,1.15s-1.19,1.94-2,2.68c-2.39,2-5.71-1.71-8.86-1.59-3.83.15-5.19,5.66-8.83,6.87-1.39.46-2.91.21-4.37.4a7.38,7.38,0,0,0-6.18,7.3c.07,1.88.84,3.93-.11,5.55-1.1,1.87-3.77,2-5.46,3.34-2.31,1.86-2.15,5.45-1.24,8.27s2.37,5.67,1.91,8.61c-.29,1.83-1.3,3.46-1.8,5.25s-.28,4,1.29,5a14.13,14.13,0,0,1,2,1c1.22,1.07.76,3,.67,4.62a8.27,8.27,0,0,0,4.82,7.81c4.66,2,10.16-.61,15.1.59,2.86.69,5.25,2.59,7.94,3.76,4.55,2,9.78,1.71,14.58.52a15.44,15.44,0,0,1,5-.78c4.08.36,6.9,4.38,10.83,5.57S380.79,274.1,384.54,272.16Z"/><path class="cls-26" d="M376.84,326.2A40.62,40.62,0,0,1,377,315a8.4,8.4,0,0,1,4.85-6.28,9.91,9.91,0,0,1,4.5-.37,9.67,9.67,0,0,1,5.18,1.84c2.54,2.08,3,5.75,2.94,9a57.5,57.5,0,0,1-1.12,10.71c-.73,3.67-2.3,7.78-5.86,8.91a7.7,7.7,0,0,1-6.11-1"/><path class="cls-27" d="M339.94,335.61s.68,3.64-2.28,3.64-2.62-3.16-2.62-3.16"/><path class="cls-27" d="M317.86,338.11s.61,3.32-1.95,3.6a2.47,2.47,0,0,0-.1-.29,18.22,18.22,0,0,0-1.57-3Z"/><path class="cls-23" d="M365.44,378.7a53.65,53.65,0,0,1,.34,11.55"/><path class="cls-28" d="M447.1,429.11c-4.23,29.37-8.43,89.06-8.43,89.06"/><path class="cls-28" d="M336.4,440.35c1,27.7-4.67,37.35,1.15,55,1.43,4.36,3.18,8.61,5,12.81,4.1,9.35,9.91,22.2,14.93,31.09"/><path class="cls-20" d="M298.9,545.19c8.34,1.29,16.77,2.75,25.17,1.89,5.33-.54,10.51-2,15.69-3.41,10.52-2.83,23.62-6.36,34.36-8.22.52-.1,1-.17,1.5-.24a10.19,10.19,0,0,1,3.4,1,14.27,14.27,0,0,1,5.67,5.6A29.22,29.22,0,0,1,389,557.24a20.67,20.67,0,0,1-.19,2.6l-.47,0q-4.44.27-8.88.62-17.78,1.39-35.42,3.88Q334,565.78,324,567.56a11.44,11.44,0,0,0-4.27,1.36,17.72,17.72,0,0,0-2.72,2.55C311.72,576.75,290.56,543.91,298.9,545.19Z"/><path class="cls-28" d="M298.9,545.19c8.34,1.29,16.77,2.75,25.17,1.89,5.33-.54,10.51-2,15.69-3.41,10.52-2.83,23.62-6.36,34.36-8.22.52-.1,1-.17,1.5-.24"/><path class="cls-3" d="M477.5,373.8a39.89,39.89,0,0,1,11.65,9c6.82,8.06,8.64,19.13,9.56,29.65a258.52,258.52,0,0,1,.93,27.55l-14,110.86a12.78,12.78,0,0,1-4.37,7.33,14.06,14.06,0,0,1-5.22,2.23,261.48,261.48,0,0,1-50.39,8.44"/><path d="M284.71,576.38l3.92-9.44a1.13,1.13,0,0,1,1.06-.71h66.67a1.17,1.17,0,0,1,1,.64,1.15,1.15,0,0,1-.13,1.21l-7.38,9.45a1.15,1.15,0,0,1-.91.44h-63.2a1.14,1.14,0,0,1-1.06-1.59Z"/><path class="cls-29" d="M287.32,570.09l1.31-3.15a1.13,1.13,0,0,1,1.06-.71h66.67a1.17,1.17,0,0,1,1,.64,1.15,1.15,0,0,1-.13,1.21L355.74,570Z"/><path d="M121.59,462.84a7.82,7.82,0,0,1,6-2.82H288a7.85,7.85,0,0,1,7.74,6.48l18.37,102.25a7.87,7.87,0,0,1-7.75,9.25H146a7.86,7.86,0,0,1-7.75-6.48L119.88,469.27A7.83,7.83,0,0,1,121.59,462.84Z"/><path class="cls-21" d="M378.71,353.58v0Z"/><path class="cls-21" d="M378.73,353.48a.36.36,0,0,0,0,.1s0-.05,0-.07Z"/><path class="cls-21" d="M365.44,378.7h0q1.45-1.62,2.79-3.36l.27-.34c.41-.54.81-1.09,1.21-1.64l.3-.4,1.37-1.93.52-.76c1.08-1.56,2.14-3.14,3.09-4.77.22-.38.43-.77.64-1.15.42-.78.81-1.56,1.16-2.37a21.72,21.72,0,0,0,1.94-8.32c0,.45.42,1.45.47,1.75a15.48,15.48,0,0,1,.2,2.15,23.37,23.37,0,0,1-.37,4.72,51,51,0,0,1-3.64,11.27,65.27,65.27,0,0,1-4.33,8.8,23,23,0,0,1-5.18,5.9A46.07,46.07,0,0,0,365.44,378.7Z"/><path class="cls-28" d="M386.11,568.15c2.26-2.12,2.91-7.81,2.93-10.91a29.22,29.22,0,0,0-4.35-15.47,14.27,14.27,0,0,0-5.67-5.6,10.23,10.23,0,0,0-3.73-1l-6,1.18c11.49-6.44,29.65-7.74,43.66-10.88A238.81,238.81,0,0,0,446.8,515.2"/><path class="cls-30" d="M119.88,469.27a7.87,7.87,0,0,1,7.74-9.25H288a7.85,7.85,0,0,1,7.74,6.48"/><path class="cls-31" d="M392.41,275.87c-4.89.24-6.56-6.35-8.7-9.6a10,10,0,0,0-4.8-4.24,6.74,6.74,0,0,0-3.15-.27c-1.43.18-2.89.83-4.34.66-1.92-.22-3.3-2-4.56-3.24a9.79,9.79,0,0,0-4.65-3.08c-2.36-.51-4.42.69-6.59,1.4a4.07,4.07,0,0,1-3.33-.06c-1.11-.59-2-1.45-3.2-1.94-2.64-1.1-5.25.53-7.47,1.88a15.38,15.38,0,0,1-2.17,1.3,8.46,8.46,0,0,1-3.21.28,1.18,1.18,0,0,0,0,2.36,9.19,9.19,0,0,0,5.14-1c.74-.44,1.45-.93,2.19-1.35,1.13-.64,2.59-1.68,3.95-1.5,1.16.15,2.15,1.14,3.12,1.73a6,6,0,0,0,3.24,1c2.4,0,4.36-1.63,6.7-1.86,2-.21,3.51,1.37,4.82,2.71a12.31,12.31,0,0,0,4.52,3.42c2.58.89,4.89-.76,7.43-.42,2.28.3,3.81,2.48,4.88,4.3,2.34,4,4.5,10.15,10.18,9.87,1.51-.07,1.52-2.43,0-2.36Z"/></svg>