<svg id="Art" xmlns="http://www.w3.org/2000/svg" width="700" height="600" viewBox="0 0 700 600"><defs><style>.cls-1,.cls-10,.cls-11,.cls-12,.cls-4,.cls-6,.cls-9{fill:none;}.cls-1,.cls-12{stroke:red;}.cls-1,.cls-4,.cls-6,.cls-9{stroke-linecap:round;}.cls-1,.cls-6,.cls-9{stroke-linejoin:round;}.cls-1{stroke-width:3.41px;}.cls-2{fill:red;}.cls-3{fill:#e2e2e2;}.cls-4{stroke:#fff;stroke-width:3.55px;}.cls-10,.cls-11,.cls-12,.cls-4,.cls-7{stroke-miterlimit:10;}.cls-5,.cls-7{fill:#fff;}.cls-6,.cls-9{stroke:#000;}.cls-6{stroke-width:2.51px;}.cls-7{stroke:#dedede;}.cls-10,.cls-11,.cls-12,.cls-7{stroke-width:2.27px;}.cls-8{fill:#aaa;}.cls-9{stroke-width:2.61px;}.cls-10{stroke:#c9c9c9;}.cls-11{stroke:#e2e2e2;}</style></defs><path class="cls-1" d="M317.55,329.53A161.46,161.46,0,0,1,75.84,156.21"/><path class="cls-1" d="M94.19,109.79a161.51,161.51,0,0,1,276.91-2.24"/><circle class="cls-2" cx="93.92" cy="110.4" r="4.9"/><circle class="cls-2" cx="76.47" cy="155.2" r="4.9"/><path class="cls-1" d="M336.25,294.09a161.46,161.46,0,1,1,0,228.35"/><path class="cls-3" d="M441.59,48.78c83.78,17.62,81.24,84.33,120.9,108,31.79,19,70,61,70,96.64,0,76.74-71.09,109.8-83.53,152.58-10.4,35.78-13,69.39-40.93,98.4-23.22,24.13-58.48,38.75-92.59,34.09-49.64-6.79-77.46-41.91-129.2-46.32-20.69-1.76-53.37-2.73-73.43-8.2-24.36-6.63-50.07-14.08-72.58-26.27-46.74-25.31-84.29-82-75.32-139.89,8.81-56.82,55.67-98.88,102.55-120.69,17.94-8.34,36.87-15.24,52.81-26.67,18.11-13,31.28-31.06,46.92-46.68C317.61,73.43,376.35,35.06,441.59,48.78Z"/><path class="cls-4" d="M317.55,329.53A161.48,161.48,0,0,1,95.57,276q-4.16-6.81-7.57-13.84"/><path class="cls-4" d="M336.25,294.09A161.58,161.58,0,0,1,595.84,338"/><rect class="cls-5" x="448.58" y="395.22" width="169.46" height="155.14"/><circle cx="577.9" cy="411.47" r="5.4"/><circle cx="598.83" cy="411.47" r="5.4"/><line class="cls-6" x1="471.27" y1="438.4" x2="596.16" y2="438.4"/><path class="cls-7" d="M331.53,149a40.45,40.45,0,0,1,14.23,2.57,57.91,57.91,0,0,1,48.15-30.4A87.26,87.26,0,0,1,554,109.63a66,66,0,1,1,19.12,129.23H335.05c-30.78,0-44-27.05-44-49.41A40.47,40.47,0,0,1,331.53,149Z"/><rect class="cls-8" x="181.49" y="141.63" width="299.7" height="285.74"/><rect class="cls-5" x="126.71" y="59.81" width="161.15" height="147.54"/><circle cx="249.69" cy="75.27" r="5.13"/><circle cx="269.59" cy="75.27" r="5.13"/><line class="cls-9" x1="148.29" y1="100.87" x2="267.06" y2="100.87"/><polyline class="cls-10" points="126.71 59.81 126.71 207.34 181.52 207.34"/><rect x="181.49" y="157.78" width="64.17" height="49.56"/><line class="cls-11" x1="181.5" y1="207.24" x2="210.04" y2="207.24"/><line class="cls-9" x1="256.76" y1="189.76" x2="256.76" y2="161.2"/><line class="cls-9" x1="199.65" y1="189.76" x2="199.65" y2="161.2"/><circle class="cls-9" cx="228.2" cy="175.48" r="14.28"/><circle class="cls-9" cx="171.1" cy="175.48" r="14.28"/><line class="cls-9" x1="256.76" y1="146.93" x2="256.76" y2="118.38"/><line class="cls-9" x1="237.72" y1="146.93" x2="237.72" y2="118.38"/><line class="cls-9" x1="180.62" y1="146.93" x2="180.62" y2="118.38"/><line class="cls-9" x1="161.58" y1="146.93" x2="161.58" y2="118.38"/><circle class="cls-9" cx="209.17" cy="132.65" r="14.28"/><rect x="448.43" y="384.72" width="47.09" height="42.66"/><line class="cls-11" x1="448.57" y1="427.38" x2="448.57" y2="384.72"/><rect class="cls-5" x="210.4" y="128.16" width="299.7" height="274.37"/><rect class="cls-2" x="210.4" y="128.16" width="299.7" height="58.22"/><circle class="cls-5" cx="439.11" cy="156.9" r="9.55"/><circle class="cls-5" cx="476.12" cy="156.9" r="9.55"/><rect class="cls-3" x="374.25" y="274.14" width="121.57" height="109.78"/><rect class="cls-3" x="230.51" y="204.87" width="129.74" height="177.85"/><rect class="cls-3" x="374.25" y="204.87" width="121.57" height="54.04"/><polyline class="cls-12" points="510.1 402.53 210.4 402.53 210.4 128.16 510.1 128.16"/><path class="cls-7" d="M376.4,400.11a41.34,41.34,0,0,0-14.6,2.65,59.43,59.43,0,0,0-49.39-31.2,89.52,89.52,0,0,0-164.23-11.81,67.73,67.73,0,1,0-19.61,132.57H372.78c31.58,0,45.14-27.76,45.14-50.69A41.52,41.52,0,0,0,376.4,400.11Z"/><circle class="cls-5" cx="371.48" cy="107.63" r="4.9"/><circle class="cls-2" cx="335.11" cy="521.78" r="4.9"/><polyline class="cls-10" points="618.04 550.36 448.58 550.36 448.58 427.38"/></svg>