<?xml version="1.0" encoding="utf-8"?>
<!-- Generator: Adobe Illustrator 24.2.3, SVG Export Plug-In . SVG Version: 6.00 Build 0)  -->
<svg version="1.1" id="Layer_1" xmlns="http://www.w3.org/2000/svg" xmlns:xlink="http://www.w3.org/1999/xlink" x="0px" y="0px"
	 viewBox="0 0 358.6 331" style="enable-background:new 0 0 358.6 331;" xml:space="preserve">
<style type="text/css">
	.st0{fill:#F3F3F3;}
	.st1{fill:none;stroke:#8B8B8B;stroke-width:0.25;stroke-miterlimit:10;}
	.st2{fill:none;stroke:#EE0000;stroke-width:0.25;stroke-miterlimit:10;}
	.st3{fill:#EE0000;}
	.st4{fill:none;stroke:#EE0000;stroke-width:0.5;stroke-miterlimit:10;}
	.st5{fill:#AAAAAA;}
	.st6{fill:none;stroke:#AAAAAA;stroke-miterlimit:10;}
	.st7{fill:#FFFFFF;}
	.st8{fill:#BABABA;}
	.st9{fill:#316DC1;}
	.st10{fill:#FDDBDB;}
	.st11{fill:#E8E4F6;}
	.st12{fill:#E2EAF6;}
	.st13{fill:#DBF0F7;}
	.st14{fill:#E4F3F4;}
	.st15{fill:#EDF6F0;}
	.st16{fill:#FAB6B6;}
	.st17{fill:#BAADE3;}
	.st18{fill:#A7C0E4;}
	.st19{fill:#93D3E6;}
	.st20{fill:#AEDCDD;}
	.st21{fill:#C9E5D3;}
	.st22{fill:#F2F7E6;}
	.st23{fill:#FEE7CD;}
	.st24{fill:#FDDBC7;}
	.st25{fill:#F56D6D;}
	.st26{fill:#8C77D1;}
	.st27{fill:#6C97D3;}
	.st28{fill:#4CB6D6;}
	.st29{fill:#79C4C6;}
	.st30{fill:#A6D3B6;}
	.st31{fill:#D9E6B4;}
	.st32{fill:#FFF7C4;}
	.st33{fill:#FCCE9A;}
	.st34{fill:#FAB890;}
	.st35{fill:#5E40BE;}
	.st36{fill:#0499C5;}
	.st37{fill:#43ADAF;}
	.st38{fill:#82C299;}
	.st39{fill:#C0D682;}
	.st40{fill:#FFEA6C;}
	.st41{fill:#FAAA4F;}
	.st42{fill:#F7823C;}
	.st43{fill:#BE0000;}
	.st44{fill:#4B3398;}
	.st45{fill:#27579A;}
	.st46{fill:#037A9E;}
	.st47{fill:#368A8C;}
	.st48{fill:#689B7A;}
	.st49{fill:#9AAB68;}
	.st50{fill:#CCBB56;}
	.st51{fill:#C8883F;}
	.st52{fill:#C65E2B;}
	.st53{fill:#8F0000;}
	.st54{fill:#382672;}
	.st55{fill:#1D4174;}
	.st56{fill:#025C76;}
	.st57{fill:#286869;}
	.st58{fill:#4E745C;}
	.st59{fill:#73804E;}
	.st60{fill:#998C41;}
	.st61{fill:#96662F;}
	.st62{fill:#944620;}
	.st63{fill:#5F0000;}
	.st64{fill:#261A4C;}
	.st65{fill:#142C4D;}
	.st66{fill:#023D4F;}
	.st67{fill:#1B4546;}
	.st68{fill:#344E3D;}
	.st69{fill:#632F16;}
	.st70{fill:#DEDEDE;}
	.st71{fill:#C9C9C9;}
	.st72{fill:#8B8B8B;}
	.st73{fill:#2E2E2E;}
	.st74{fill:#6C6C6C;}
	.st75{fill:#4D4D4D;}
	.st76{fill:#C22133;}
	.st77{fill:#DB212E;}
	.st78{fill:#EB2126;}
	.st79{fill:#AD213B;}
	.st80{fill:#BA2133;}
	.st81{fill:none;stroke:#EE0000;stroke-miterlimit:10;}
	.st82{fill:none;stroke:#FFFFFF;stroke-width:4;stroke-linecap:round;stroke-miterlimit:10;}
	.st83{fill:none;stroke:#EE0000;stroke-width:0.75;stroke-linejoin:round;stroke-miterlimit:10;}
	.st84{fill:#EE0000;stroke:#FFFFFF;stroke-linejoin:round;stroke-miterlimit:10;}
	.st85{fill:#EA4335;}
	.st86{fill:#4285F4;}
	.st87{fill:#34A853;}
	.st88{fill:#FBBC05;}
	.st89{fill:none;stroke:#AAAAAA;stroke-width:2;stroke-linecap:round;stroke-linejoin:round;}
	.st90{fill:none;stroke:#AAAAAA;stroke-width:2;stroke-linecap:round;stroke-linejoin:round;stroke-dasharray:0,3.6667;}
	.st91{fill:none;stroke:#AAAAAA;stroke-width:2;stroke-linecap:round;stroke-linejoin:round;stroke-dasharray:0,4;}
	.st92{fill-rule:evenodd;clip-rule:evenodd;fill:#EE0000;}
	.st93{fill:#252F3E;}
	.st94{fill-rule:evenodd;clip-rule:evenodd;fill:#FF9900;}
	.st95{enable-background:new    ;}
	.st96{fill:#B6CBE4;}
	.st97{fill:#CDDBEC;}
	.st98{fill:#E6EDF6;}
	.st99{fill:none;stroke:#8B8B8B;stroke-miterlimit:10;}
	.st100{fill:none;}
	.st101{fill:none;stroke:#AAAAAA;stroke-width:2;stroke-linecap:round;stroke-linejoin:round;stroke-dasharray:0,4.2428;}
	.st102{fill:none;stroke:#AAAAAA;stroke-width:2;stroke-linecap:round;stroke-linejoin:round;stroke-dasharray:0,4.2623;}
	.st103{fill:none;stroke:#AAAAAA;stroke-width:2;stroke-linecap:round;stroke-linejoin:round;stroke-dasharray:0,4.1511;}
	
		.st104{fill:none;stroke:#AAAAAA;stroke-width:2;stroke-linecap:round;stroke-linejoin:round;stroke-miterlimit:10;stroke-dasharray:0,4;}
	.st105{fill:none;stroke:#000000;stroke-width:0.25;stroke-linecap:round;stroke-miterlimit:10;}
	.st106{fill:#FFFFFF;stroke:#8B8B8B;stroke-linecap:round;stroke-linejoin:round;stroke-miterlimit:10;}
	.st107{fill:none;stroke:#8B8B8B;stroke-linecap:round;stroke-linejoin:round;stroke-miterlimit:10;}
	
		.st108{fill:none;stroke:#EE0000;stroke-width:2;stroke-linecap:round;stroke-linejoin:round;stroke-miterlimit:10;stroke-dasharray:0,4;}
	.st109{fill:none;stroke:#8B8B8B;stroke-width:0.75;stroke-linecap:round;stroke-miterlimit:10;}
	.st110{fill:none;stroke:#FFFFFF;stroke-width:0.75;stroke-linecap:round;stroke-miterlimit:10;}
	.st111{fill:none;stroke:#000000;stroke-width:0.75;stroke-linecap:round;stroke-miterlimit:10;}
	.st112{fill:none;stroke:#000000;stroke-miterlimit:10;}
	.st113{fill:none;stroke:#8B8B8B;stroke-width:2;stroke-linecap:round;stroke-linejoin:round;stroke-miterlimit:10;}
	.st114{fill:none;stroke:#261A4C;stroke-miterlimit:10;}
	.st115{fill:none;stroke:#FFFFFF;stroke-width:2;stroke-miterlimit:10;}
	.st116{fill:#020202;stroke:#EE0000;stroke-width:0.5;stroke-miterlimit:10;}
	.st117{fill:none;stroke:#FFFFFF;stroke-width:0.25;stroke-linecap:round;stroke-miterlimit:10;}
	.st118{stroke:#FFFFFF;stroke-width:2;stroke-miterlimit:10;}
	.st119{fill:none;stroke:#CC0000;stroke-width:2;stroke-miterlimit:10;}
	.st120{fill:none;stroke:#EDF21C;stroke-width:2;stroke-linecap:round;stroke-linejoin:round;stroke-miterlimit:10;}
	.st121{fill:none;stroke:#35BA4D;stroke-width:2;stroke-linecap:round;stroke-linejoin:round;stroke-miterlimit:10;}
	.st122{fill:none;stroke:#1FCCC7;stroke-width:2;stroke-linecap:round;stroke-linejoin:round;stroke-miterlimit:10;}
	.st123{fill:none;stroke:#FFFFFF;stroke-width:2;stroke-linecap:round;stroke-linejoin:round;stroke-miterlimit:10;}
	.st124{fill:#020202;stroke:#EE0000;stroke-width:0.25;stroke-miterlimit:10;}
	.st125{fill:#020202;stroke:#8B8B8B;stroke-width:0.25;stroke-miterlimit:10;}
	.st126{fill:#020202;}
	.st127{fill:none;stroke:#000000;stroke-width:2;stroke-linecap:round;stroke-miterlimit:10;}
</style>
<g>
	<path class="st0" d="M324.6,200.6c4.5-4.3,6.7-10.6,8.2-16.7c4.2-16.7-0.1-35.2-11.1-48.4c-11-13.2-28.5-20.7-45.6-19.6
		c-12.7,0.8-24.8,6-37.4,7.9c-22,3.3-45.4-4.2-61.4-19.7c-7.1-7-12.8-15.3-19.6-22.6c-17.5-18.9-44.1-30.7-69.4-25.8
		c-11.9,2.3-23,8.1-32.2,16c-10.8,9.3-19,21.9-21.4,36c-2.4,14,1.5,29.4,11.6,39.4c10.6,10.4,26.1,13.9,38.9,21.4
		c11.8,6.9,21.4,17.4,27.1,29.7c9.6,20.4,8.9,45.4,22.7,63.3c11.2,14.6,30.8,21.6,49.2,19.8c18.4-1.7,35.4-11.4,48.5-24.4
		c8.2-8.2,14.4-18.6,22.5-26.8c0,0,16.5-24.1,44.4-24.6C299.7,205.5,315.8,208.9,324.6,200.6z"/>
</g>
<g>
	<path class="st72" d="M205.5,211.1c1.2,0,2.1-0.9,2.1-2.1c0-1.2-0.9-2.1-2.1-2.1c-1.2,0-2.1,0.9-2.1,2.1
		C203.4,210.1,204.3,211.1,205.5,211.1C205.5,211.1,205.5,211.1,205.5,211.1z"/>
	<path class="st72" d="M205.5,184.2c1.2,0,2.1-0.9,2.1-2.1s-0.9-2.1-2.1-2.1c-1.2,0-2.1,0.9-2.1,2.1
		C203.4,183.3,204.3,184.2,205.5,184.2C205.5,184.2,205.5,184.2,205.5,184.2z"/>
	<path class="st72" d="M205.5,157.3c1.2,0,2.1-0.9,2.1-2.1c0-1.2-0.9-2.1-2.1-2.1c-1.2,0-2.1,0.9-2.1,2.1
		C203.4,156.4,204.3,157.3,205.5,157.3C205.5,157.3,205.5,157.3,205.5,157.3z"/>
	<g>
		<path class="st72" d="M145,157.3h20.2c1.2,0,2.1-0.9,2.1-2.1c0-1.1-0.9-2.1-2.1-2.1H145c-1.2,0-2.1,0.9-2.1,2.1
			C143,156.4,143.9,157.3,145,157.3z"/>
		<path class="st72" d="M145,211.1h20.2c1.2,0,2.1-0.9,2.1-2.1c0-1.1-0.9-2.1-2.1-2.1H145c-1.2,0-2.1,0.9-2.1,2.1
			C142.9,210.1,143.9,211.1,145,211.1C145,211.1,145,211.1,145,211.1z"/>
		<path class="st72" d="M145,184.2h20.2c1.2,0,2.1-0.9,2.1-2.1c0-1.1-0.9-2.1-2.1-2.1H145c-1.2,0-2.1,0.9-2.1,2.1
			C143,183.3,143.9,184.2,145,184.2z"/>
	</g>
</g>
<g>
	<g>
		<g>
			<path class="st3" d="M109.1,184.6v-10.1c0-5.4-7.6-9.7-17.2-9.7s-17.2,4.2-17.2,9.7v15.1c0,5.4,7.6,9.7,17.2,9.7
				s17.2-4.2,17.2-9.7V184.6z M107.5,189.7c0,4.3-7.1,8-15.6,8s-15.6-3.7-15.6-8v-0.9c2.7,3.3,8.6,5.5,15.6,5.5s12.9-2.2,15.6-5.5
				V189.7z M107.5,184.6c0,4.3-7.1,8-15.6,8s-15.6-3.7-15.6-8v-0.9c2.7,3.3,8.6,5.5,15.6,5.5s12.9-2.2,15.6-5.5V184.6z M107.5,179.6
				c0,4.3-7.1,8-15.6,8s-15.6-3.7-15.6-8v-0.9c2.7,3.3,8.6,5.5,15.6,5.5s12.9-2.2,15.6-5.5V179.6z M91.9,182.6
				c-8.5,0-15.6-3.7-15.6-8c0-4.3,7.1-8,15.6-8s15.6,3.7,15.6,8C107.5,178.9,100.3,182.6,91.9,182.6z"/>
		</g>
	</g>
</g>
<g>
	<g>
		<g>
			<g>
				<path class="st3" d="M91.5,126.8v11.7c0,0.4,0.3,0.7,0.7,0.7c0.4,0,0.7-0.3,0.7-0.7v-11.7c0-0.4-0.3-0.7-0.7-0.7
					C91.9,126,91.5,126.4,91.5,126.8z"/>
			</g>
		</g>
	</g>
	<g>
		<g>
			<g>
				<path class="st3" d="M83.3,126.8v7c0,0.4,0.3,0.7,0.7,0.7c0.4,0,0.7-0.3,0.7-0.7v-7c0-0.4-0.3-0.7-0.7-0.7
					C83.6,126,83.3,126.4,83.3,126.8z"/>
			</g>
		</g>
	</g>
	<g>
		<g>
			<g>
				<path class="st3" d="M99.8,126.8v7c0,0.4,0.3,0.7,0.7,0.7c0.4,0,0.7-0.3,0.7-0.7v-7c0-0.4-0.3-0.7-0.7-0.7
					C100.1,126,99.8,126.4,99.8,126.8z"/>
			</g>
		</g>
	</g>
	<g>
		<g>
			<g>
				<path class="st3" d="M77,142.8c0.4,0,0.7-0.3,0.7-0.7l0,0V124h29.1v5.1c0,0.4,0.3,0.7,0.7,0.7c0.4,0,0.7-0.3,0.7-0.7v-5.9
					c0-0.4-0.3-0.7-0.7-0.7H77c-0.4,0-0.7,0.3-0.7,0.7V142C76.3,142.4,76.6,142.8,77,142.8L77,142.8z"/>
			</g>
		</g>
	</g>
	<g>
		<g>
			<g>
				<path class="st3" d="M107.5,136.6c-0.4,0-0.7,0.3-0.7,0.7l0,0V153H77.7v-2.8c0-0.4-0.3-0.7-0.7-0.7c-0.4,0-0.7,0.3-0.7,0.7v3.5
					c0,0.4,0.3,0.7,0.7,0.7l0,0h30.5c0.4,0,0.7-0.3,0.7-0.7l0,0v-16.4C108.3,136.9,107.9,136.6,107.5,136.6L107.5,136.6z"/>
			</g>
		</g>
	</g>
	<g>
		<g>
			<g>
				<path class="st3" d="M109.2,130.9c-0.3-0.3-0.7-0.3-1,0c0,0,0,0,0,0l-14.7,14.7l-7.7-7.7c-0.3-0.3-0.7-0.3-1,0c0,0,0,0,0,0
					l-9.4,9.4c-0.3,0.3-0.3,0.7,0,1c0.3,0.3,0.7,0.3,1,0l0,0l8.9-8.9l7.7,7.7c0.3,0.3,0.7,0.3,1,0c0,0,0,0,0,0l15.3-15.3
					C109.5,131.7,109.5,131.2,109.2,130.9C109.2,131,109.2,130.9,109.2,130.9z"/>
			</g>
		</g>
	</g>
</g>
<g>
	<g>
		<g>
			<g>
				<path class="st3" d="M245.3,85.5c0.3,0,0.6,0.3,0.6,0.6v27.9c0,0.3-0.3,0.6-0.6,0.6h-29c-0.3,0-0.6-0.3-0.6-0.6V86.1
					c0-0.3,0.3-0.6,0.6-0.6H245.3 M245.3,84h-29c-1.1,0-2.1,0.9-2.1,2.1v27.9c0,1.1,0.9,2.1,2.1,2.1h29c1.1,0,2.1-0.9,2.1-2.1V86.1
					C247.4,85,246.5,84,245.3,84L245.3,84z"/>
			</g>
			<g>
				<path class="st3" d="M245.3,116.2h-29c-1.3,0-2.3-1-2.3-2.3V86.1c0-1.3,1-2.3,2.3-2.3h29c1.3,0,2.3,1,2.3,2.3v27.9
					C247.6,115.2,246.6,116.2,245.3,116.2z M216.4,84.3c-1,0-1.8,0.8-1.8,1.8v27.9c0,1,0.8,1.8,1.8,1.8h29c1,0,1.8-0.8,1.8-1.8V86.1
					c0-1-0.8-1.8-1.8-1.8H216.4z M245.3,114.8h-29c-0.5,0-0.9-0.4-0.9-0.9V86.1c0-0.5,0.4-0.9,0.9-0.9h29c0.5,0,0.9,0.4,0.9,0.9
					v27.9C246.2,114.4,245.8,114.8,245.3,114.8z M216.4,85.7c-0.2,0-0.4,0.2-0.4,0.4v27.9c0,0.2,0.2,0.4,0.4,0.4h29
					c0.2,0,0.4-0.2,0.4-0.4V86.1c0-0.2-0.2-0.4-0.4-0.4H216.4z"/>
			</g>
		</g>
	</g>
	<g>
		<g>
			<g>
				<path class="st3" d="M221.2,99.7c-0.2,0-0.4-0.1-0.5-0.2c-0.3-0.3-0.2-0.8,0.1-1l3.9-3.3l-4.4-3.4c-0.3-0.2-0.4-0.7-0.1-1
					c0.2-0.3,0.7-0.4,1-0.1l5.1,3.9c0.2,0.1,0.3,0.3,0.3,0.5c0,0.2-0.1,0.4-0.2,0.6l-4.5,3.9C221.5,99.6,221.4,99.7,221.2,99.7z"/>
			</g>
			<g>
				<path class="st3" d="M221.2,99.9c-0.3,0-0.5-0.1-0.7-0.3c-0.2-0.2-0.2-0.4-0.2-0.7c0-0.3,0.1-0.5,0.3-0.7l3.6-3.2l-4.2-3.2
					c-0.2-0.2-0.3-0.4-0.4-0.6c0-0.3,0-0.5,0.2-0.7s0.4-0.3,0.6-0.4c0.3,0,0.5,0,0.7,0.2l5.1,3.9c0.2,0.2,0.4,0.4,0.4,0.7
					c0,0.3-0.1,0.6-0.3,0.8l-4.5,3.9C221.6,99.8,221.4,99.9,221.2,99.9z M220.6,90.6C220.6,90.6,220.6,90.6,220.6,90.6
					c-0.2,0-0.3,0.1-0.4,0.2c-0.1,0.1-0.1,0.2-0.1,0.4c0,0.1,0.1,0.2,0.2,0.3L225,95l-4.1,3.5c-0.1,0.1-0.2,0.2-0.2,0.3
					c0,0.1,0,0.2,0.1,0.3c0.2,0.2,0.5,0.2,0.7,0l4.5-3.9c0.1-0.1,0.2-0.2,0.2-0.4c0-0.1-0.1-0.3-0.2-0.4l-5.1-3.9
					C220.8,90.7,220.7,90.6,220.6,90.6z"/>
			</g>
		</g>
	</g>
	<g>
		<g>
			<g>
				<path class="st3" d="M235.4,102.6h-7.9c-0.4,0-0.7-0.3-0.7-0.7c0-0.4,0.3-0.7,0.7-0.7h7.9c0.4,0,0.7,0.3,0.7,0.7
					C236.1,102.3,235.8,102.6,235.4,102.6z"/>
			</g>
			<g>
				<path class="st3" d="M235.4,102.8h-7.9c-0.5,0-1-0.4-1-1s0.4-1,1-1h7.9c0.5,0,1,0.4,1,1S236,102.8,235.4,102.8z M227.5,101.4
					c-0.3,0-0.5,0.2-0.5,0.5s0.2,0.5,0.5,0.5h7.9c0.3,0,0.5-0.2,0.5-0.5s-0.2-0.5-0.5-0.5H227.5z"/>
			</g>
		</g>
	</g>
</g>
<path class="st3" d="M281.2,136.4L266,121.2c-1.3-1.3-3.5-1.3-4.8,0L246,136.4c-1.3,1.3-1.3,3.4,0,4.8l15.2,15.2
	c0.6,0.6,1.5,1,2.4,1s1.7-0.3,2.4-1l15.2-15.2C282.5,139.9,282.5,137.7,281.2,136.4z M279.9,139.9l-15.2,15.2
	c-0.6,0.6-1.6,0.6-2.2,0l-15.2-15.2c-0.6-0.6-0.6-1.6,0-2.2l8.3-8.3l4.3,4.1c-0.1,0.2-0.1,0.4-0.1,0.5c0,0.7,0.4,1.2,0.9,1.5v6
	c-0.5,0.3-0.9,0.9-0.9,1.5c0,1,0.8,1.8,1.8,1.8s1.8-0.8,1.8-1.8c0-0.6-0.3-1.2-0.8-1.5v-5.7l3.2,3c0,0.1,0,0.2,0,0.3
	c0,1,0.8,1.8,1.8,1.8s1.8-0.8,1.8-1.8s-0.8-1.8-1.8-1.8c-0.2,0-0.4,0-0.6,0.1l-3.5-3.3c0-0.1,0-0.1,0-0.2c0-1-0.8-1.8-1.8-1.8
	c-0.1,0-0.2,0-0.3,0l-4.4-4.2l5.7-5.7c0.3-0.3,0.7-0.5,1.1-0.5s0.8,0.2,1.1,0.5l15.2,15.2C280.5,138.3,280.5,139.3,279.9,139.9z"/>
<g>
	<g>
		<g>
			<path class="st3" d="M276.4,195.1C276.4,195.1,276.4,195.1,276.4,195.1c-0.8,0-1.5-0.3-2-0.9c-1.2-1.2-1.1-2.8,0.2-4.1
				c1.6-1.6,3.2-3.1,4.8-4.7l1.5-1.5l-5.8-5.6c-0.3-0.3-0.6-0.6-0.9-1c-1-1.4-0.9-2.8,0.2-3.9c1.2-1.1,2.7-1,3.8,0
				c3.3,3.1,6.1,5.9,8.6,8.6c1.1,1.1,1,2.8-0.2,4c-2.9,2.9-5.6,5.6-8.3,8.2C277.9,194.7,277.1,195.1,276.4,195.1z M276.4,174.1
				c-0.3,0-0.6,0.1-0.9,0.4c-0.4,0.4-0.8,0.9,0,1.9c0.2,0.3,0.5,0.5,0.7,0.8l6.9,6.7l-2.6,2.6c-1.7,1.6-3.2,3.2-4.8,4.7
				c-1,1-0.4,1.7-0.2,2c0.3,0.3,0.6,0.5,0.9,0.5c0.4,0,0.8-0.3,1.1-0.5c2.7-2.6,5.4-5.3,8.3-8.2c0.3-0.3,0.9-1.1,0.1-1.9
				c-2.5-2.6-5.3-5.4-8.6-8.5C277,174.2,276.7,174.1,276.4,174.1z"/>
		</g>
	</g>
	<g>
		<g>
			<path class="st3" d="M254.1,195c-0.7,0-1.6-0.3-2.5-1.3c-2.5-2.5-5-4.9-7.5-7.4c-1.6-1.6-1.6-3.2,0-4.8c2.6-2.6,5.1-5.1,7.7-7.7
				c1.3-1.3,3-1.4,4.2-0.2c0.6,0.6,0.9,1.2,0.9,2c0,0.8-0.3,1.6-1,2.2c-1.5,1.5-3.1,3-4.7,4.6l-1.5,1.5l1.4,1.4
				c1.6,1.5,3.1,3,4.5,4.4c0.8,0.8,1.3,1.7,1.3,2.5c0,0.7-0.3,1.3-0.9,1.9C255.7,194.5,255,195,254.1,195z M254.1,174.3
				c-0.5,0-0.9,0.3-1.2,0.6c-2.6,2.5-5.1,5.1-7.7,7.6c-1,1-1,1.7,0,2.7c2.5,2.5,5,5,7.5,7.4c1.4,1.4,2,0.7,2.3,0.4
				c0.3-0.3,0.4-0.6,0.4-0.8c0-0.4-0.3-0.9-0.8-1.5c-1.5-1.4-2.9-2.9-4.5-4.4l-2.5-2.5l2.6-2.6c1.6-1.6,3.2-3.1,4.7-4.6
				c0.4-0.4,0.6-0.8,0.6-1.2c0-0.3-0.2-0.6-0.4-0.9C254.7,174.4,254.4,174.3,254.1,174.3z"/>
		</g>
	</g>
	<g>
		<g>
			<path class="st3" d="M263.4,196.1c-0.3,0-0.5,0-0.8-0.1c-1.7-0.4-2.5-1.7-2.1-3.5l3.9-18.1c0-0.2,0.1-0.5,0.2-0.7
				c0.5-1.6,1.7-2.3,3.3-2c0.8,0.2,2.3,0.8,2.2,3l0,0.1l-3.1,14.6c-0.3,1.5-0.6,2.9-1,4.4C265.7,195.3,264.7,196.1,263.4,196.1z
				 M267.2,173.1c-0.6,0-1,0.3-1.2,1c-0.1,0.2-0.1,0.4-0.1,0.6l-3.9,18.1c-0.3,1.2,0.3,1.6,0.9,1.7c0.6,0.1,1.3,0.2,1.6-1.1
				c0.3-1.4,0.7-2.9,1-4.4l3.1-14.5c0-1.1-0.5-1.3-1-1.4C267.5,173.1,267.3,173.1,267.2,173.1z"/>
		</g>
	</g>
</g>
<g>
	<g>
		<g>
			<path class="st3" d="M114.7,117l-16.4-9.5v-19l16.4-9.5l16.4,9.5v19L114.7,117z M100,106.5l14.7,8.5l14.7-8.5v-17l-14.7-8.5
				L100,89.5V106.5z"/>
		</g>
	</g>
	<g>
		<g>
			<polygon class="st3" points="114.7,100.1 98.6,89.8 99.6,88.3 114.7,98 129.8,88.3 130.7,89.8 			"/>
		</g>
	</g>
	<g>
		<g>
			<rect x="113.8" y="99.1" class="st3" width="1.7" height="16.9"/>
		</g>
	</g>
</g>
<g>
	<g id="path44560_13_">
		<path class="st76" d="M201.1,90c-0.6-1.2-1.2-2.3-2-3.4l-8.2,3c1,1,1.8,2.1,2.4,3.3L201.1,90z M164.7,99.1l-8.2,3
			c0.1,1.3,0.3,2.6,0.7,3.9l7.8-2.8C164.7,101.8,164.6,100.5,164.7,99.1"/>
	</g>
	<g id="path44564_13_">
		<path class="st77" d="M183,87.7c1.7,0.8,3.2,1.9,4.4,3.2l8.2-3c-2.3-3.2-5.4-5.9-9.2-7.7c-11.8-5.5-25.8-0.4-31.3,11.4
			c-1.8,3.8-2.4,7.9-2.1,11.8l8.2-3c0.1-1.8,0.6-3.6,1.4-5.3C166.3,87.4,175.4,84.1,183,87.7"/>
	</g>
	<g id="path44572_13_">
		<path class="st77" d="M191.8,102.7c-0.1,1.8-0.6,3.6-1.4,5.3c-3.6,7.6-12.7,11-20.3,7.4c-1.7-0.8-3.2-1.9-4.5-3.2l-8.2,3
			c2.3,3.2,5.4,5.9,9.2,7.7c11.8,5.5,25.8,0.4,31.3-11.4c1.8-3.8,2.4-7.9,2.1-11.8L191.8,102.7L191.8,102.7z"/>
	</g>
	<g id="path44576_13_">
		<path class="st78" d="M193.8,92.7l-7.8,2.8c1.5,2.6,2.1,5.6,1.9,8.6l8.2-3C195.9,98.2,195.1,95.3,193.8,92.7 M157.7,105.8
			l-7.8,2.8c0.7,2.9,2,5.6,3.7,8l8.2-3C159.6,111.5,158.2,108.7,157.7,105.8"/>
	</g>
	<g id="path44584_13_">
		<path class="st79" d="M199.9,87.8c-0.3-0.4-0.5-0.8-0.8-1.2l-8.2,3c0.4,0.4,0.7,0.8,1,1.2L199.9,87.8z M164.7,100.7
			c0-0.5,0-1.1,0-1.7l-8.2,3c0,0.5,0.1,1.1,0.2,1.6L164.7,100.7L164.7,100.7z"/>
	</g>
	<g id="path44588_13_">
		<path class="st80" d="M200,99.7l-8.2,3c-0.1,1.2-0.3,2.4-0.7,3.5l8.9-3.3C200.1,101.9,200.1,100.8,200,99.7 M157.4,115.2
			c0.6,0.9,1.3,1.7,2.1,2.5l4.4-1.6l4.6-1.7c-1-0.7-2-1.4-2.8-2.3L157.4,115.2z"/>
	</g>
</g>
<g>
	<g>
		<path class="st100" d="M133.7,223.7h83.2v-70.2c-4.7-1-8.3-5.2-8.3-10.2v-2.8h-74.9V223.7z"/>
		<path class="st72" d="M219,153.8c-0.7,0-1.5-0.1-2.1-0.2v70.2h-83.2v-83.2h74.9v-4.2h-77c-1.1,0-2.1,0.9-2.1,2c0,0,0,0,0,0.1v87.3
			c0,1.1,0.9,2.1,2,2.1c0,0,0,0,0.1,0h87.3c1.1,0,2.1-0.9,2.1-2c0,0,0,0,0-0.1v-72.2C220.4,153.7,219.7,153.8,219,153.8L219,153.8z"
			/>
	</g>
	<g>
		<path class="st3" d="M210.8,133.6c-0.2,0-0.4,0.2-0.4,0.4v9.3c0,4,4.9,7.3,7.4,8.3v-19.5L210.8,133.6z"/>
		<path class="st3" d="M227.2,133.6l-7-1.5v19.4c2.5-1,7.3-4.3,7.3-8.2V134C227.6,133.8,227.4,133.6,227.2,133.6z"/>
	</g>
</g>
</svg>
