<?xml version="1.0" encoding="utf-8"?>
<!-- Generator: Adobe Illustrator 24.2.3, SVG Export Plug-In . SVG Version: 6.00 Build 0)  -->
<svg version="1.1" id="Layer_1" xmlns="http://www.w3.org/2000/svg" xmlns:xlink="http://www.w3.org/1999/xlink" x="0px" y="0px"
	 viewBox="0 0 360.9 331" style="enable-background:new 0 0 360.9 331;" xml:space="preserve">
<style type="text/css">
	.st0{fill:#F3F3F3;}
	.st1{fill:none;stroke:#8B8B8B;stroke-width:0.25;stroke-miterlimit:10;}
	.st2{fill:none;stroke:#EE0000;stroke-width:0.25;stroke-miterlimit:10;}
	.st3{fill:#EE0000;}
	.st4{fill:none;stroke:#EE0000;stroke-width:0.5;stroke-miterlimit:10;}
	.st5{fill:#AAAAAA;}
	.st6{fill:none;stroke:#AAAAAA;stroke-miterlimit:10;}
	.st7{fill:#FFFFFF;}
	.st8{fill:#BABABA;}
	.st9{fill:#316DC1;}
	.st10{fill:#FDDBDB;}
	.st11{fill:#E8E4F6;}
	.st12{fill:#E2EAF6;}
	.st13{fill:#DBF0F7;}
	.st14{fill:#E4F3F4;}
	.st15{fill:#EDF6F0;}
	.st16{fill:#FAB6B6;}
	.st17{fill:#BAADE3;}
	.st18{fill:#A7C0E4;}
	.st19{fill:#93D3E6;}
	.st20{fill:#AEDCDD;}
	.st21{fill:#C9E5D3;}
	.st22{fill:#F2F7E6;}
	.st23{fill:#FEE7CD;}
	.st24{fill:#FDDBC7;}
	.st25{fill:#F56D6D;}
	.st26{fill:#8C77D1;}
	.st27{fill:#6C97D3;}
	.st28{fill:#4CB6D6;}
	.st29{fill:#79C4C6;}
	.st30{fill:#A6D3B6;}
	.st31{fill:#D9E6B4;}
	.st32{fill:#FFF7C4;}
	.st33{fill:#FCCE9A;}
	.st34{fill:#FAB890;}
	.st35{fill:#5E40BE;}
	.st36{fill:#0499C5;}
	.st37{fill:#43ADAF;}
	.st38{fill:#82C299;}
	.st39{fill:#C0D682;}
	.st40{fill:#FFEA6C;}
	.st41{fill:#FAAA4F;}
	.st42{fill:#F7823C;}
	.st43{fill:#BE0000;}
	.st44{fill:#4B3398;}
	.st45{fill:#27579A;}
	.st46{fill:#037A9E;}
	.st47{fill:#368A8C;}
	.st48{fill:#689B7A;}
	.st49{fill:#9AAB68;}
	.st50{fill:#CCBB56;}
	.st51{fill:#C8883F;}
	.st52{fill:#C65E2B;}
	.st53{fill:#8F0000;}
	.st54{fill:#382672;}
	.st55{fill:#1D4174;}
	.st56{fill:#025C76;}
	.st57{fill:#286869;}
	.st58{fill:#4E745C;}
	.st59{fill:#73804E;}
	.st60{fill:#998C41;}
	.st61{fill:#96662F;}
	.st62{fill:#944620;}
	.st63{fill:#5F0000;}
	.st64{fill:#261A4C;}
	.st65{fill:#142C4D;}
	.st66{fill:#023D4F;}
	.st67{fill:#1B4546;}
	.st68{fill:#344E3D;}
	.st69{fill:#632F16;}
	.st70{fill:#DEDEDE;}
	.st71{fill:#C9C9C9;}
	.st72{fill:#8B8B8B;}
	.st73{fill:#2E2E2E;}
	.st74{fill:#6C6C6C;}
	.st75{fill:#4D4D4D;}
	.st76{fill:#C22133;}
	.st77{fill:#DB212E;}
	.st78{fill:#EB2126;}
	.st79{fill:#AD213B;}
	.st80{fill:#BA2133;}
	.st81{fill:none;stroke:#EE0000;stroke-miterlimit:10;}
	.st82{fill:none;stroke:#FFFFFF;stroke-width:4;stroke-linecap:round;stroke-miterlimit:10;}
	.st83{fill:none;stroke:#EE0000;stroke-width:0.75;stroke-linejoin:round;stroke-miterlimit:10;}
	.st84{fill:#EE0000;stroke:#FFFFFF;stroke-linejoin:round;stroke-miterlimit:10;}
	.st85{fill:#EA4335;}
	.st86{fill:#4285F4;}
	.st87{fill:#34A853;}
	.st88{fill:#FBBC05;}
	.st89{fill:none;stroke:#AAAAAA;stroke-width:2;stroke-linecap:round;stroke-linejoin:round;}
	.st90{fill:none;stroke:#AAAAAA;stroke-width:2;stroke-linecap:round;stroke-linejoin:round;stroke-dasharray:0,3.6667;}
	.st91{fill:none;stroke:#AAAAAA;stroke-width:2;stroke-linecap:round;stroke-linejoin:round;stroke-dasharray:0,4;}
	.st92{fill-rule:evenodd;clip-rule:evenodd;fill:#EE0000;}
	.st93{fill:#252F3E;}
	.st94{fill-rule:evenodd;clip-rule:evenodd;fill:#FF9900;}
	.st95{enable-background:new    ;}
	.st96{fill:#B6CBE4;}
	.st97{fill:#CDDBEC;}
	.st98{fill:#E6EDF6;}
	.st99{fill:none;stroke:#8B8B8B;stroke-miterlimit:10;}
	.st100{fill:none;}
	.st101{fill:none;stroke:#AAAAAA;stroke-width:2;stroke-linecap:round;stroke-linejoin:round;stroke-dasharray:0,4.2428;}
	.st102{fill:none;stroke:#AAAAAA;stroke-width:2;stroke-linecap:round;stroke-linejoin:round;stroke-dasharray:0,4.2623;}
	.st103{fill:none;stroke:#AAAAAA;stroke-width:2;stroke-linecap:round;stroke-linejoin:round;stroke-dasharray:0,4.1511;}
	
		.st104{fill:none;stroke:#AAAAAA;stroke-width:2;stroke-linecap:round;stroke-linejoin:round;stroke-miterlimit:10;stroke-dasharray:0,4;}
	.st105{fill:none;stroke:#000000;stroke-width:0.25;stroke-linecap:round;stroke-miterlimit:10;}
	.st106{fill:#FFFFFF;stroke:#8B8B8B;stroke-linecap:round;stroke-linejoin:round;stroke-miterlimit:10;}
	.st107{fill:none;stroke:#8B8B8B;stroke-linecap:round;stroke-linejoin:round;stroke-miterlimit:10;}
	
		.st108{fill:none;stroke:#EE0000;stroke-width:2;stroke-linecap:round;stroke-linejoin:round;stroke-miterlimit:10;stroke-dasharray:0,4;}
	.st109{fill:none;stroke:#8B8B8B;stroke-width:0.75;stroke-linecap:round;stroke-miterlimit:10;}
	.st110{fill:none;stroke:#FFFFFF;stroke-width:0.75;stroke-linecap:round;stroke-miterlimit:10;}
	.st111{fill:none;stroke:#000000;stroke-width:0.75;stroke-linecap:round;stroke-miterlimit:10;}
	.st112{fill:none;stroke:#000000;stroke-miterlimit:10;}
	.st113{fill:none;stroke:#8B8B8B;stroke-width:2;stroke-linecap:round;stroke-linejoin:round;stroke-miterlimit:10;}
	.st114{fill:none;stroke:#261A4C;stroke-miterlimit:10;}
	.st115{fill:none;stroke:#FFFFFF;stroke-width:2;stroke-miterlimit:10;}
	.st116{fill:#020202;stroke:#EE0000;stroke-width:0.5;stroke-miterlimit:10;}
	.st117{fill:none;stroke:#FFFFFF;stroke-width:0.25;stroke-linecap:round;stroke-miterlimit:10;}
	.st118{stroke:#FFFFFF;stroke-width:2;stroke-miterlimit:10;}
	.st119{fill:none;stroke:#CC0000;stroke-width:2;stroke-miterlimit:10;}
	.st120{fill:none;stroke:#EDF21C;stroke-width:2;stroke-linecap:round;stroke-linejoin:round;stroke-miterlimit:10;}
	.st121{fill:none;stroke:#35BA4D;stroke-width:2;stroke-linecap:round;stroke-linejoin:round;stroke-miterlimit:10;}
	.st122{fill:none;stroke:#1FCCC7;stroke-width:2;stroke-linecap:round;stroke-linejoin:round;stroke-miterlimit:10;}
	.st123{fill:none;stroke:#FFFFFF;stroke-width:2;stroke-linecap:round;stroke-linejoin:round;stroke-miterlimit:10;}
	.st124{fill:#020202;stroke:#EE0000;stroke-width:0.25;stroke-miterlimit:10;}
	.st125{fill:#020202;stroke:#8B8B8B;stroke-width:0.25;stroke-miterlimit:10;}
	.st126{fill:#020202;}
	.st127{fill:none;stroke:#000000;stroke-width:2;stroke-linecap:round;stroke-miterlimit:10;}
</style>
<path class="st0" d="M292.3,79.1c-36.6-8.9-73.4,22.9-110.4,15.8c-10.7-2-20.4-7.2-30.4-11.4c-12.3-5.1-25.2-8.6-38.4-10.6
	c-15.9-2.4-33.2-2.1-46.7,6.6c-19.9,12.8-25.5,39.9-22,63.2c2,13.5,7.1,27.5,18.2,35.5c10.3,7.5,23.9,8.4,35.7,13.3
	c20.7,8.8,34.2,30,39.3,51.9c1.3,5.6,2.5,11.8,4.8,17.2c1.8,5.9,5.1,11.5,9.9,16.1c5.2,5.1,11.6,8.4,18.2,9.9
	c6.2,2.6,12.9,3.5,19.5,2.7c11.2,1.1,22.7-2.7,31.2-11.4c5.4-5.5,8.7-12.3,10.1-19.3c0.9-1.7,1.6-3.5,2.3-5.3
	c7.4-19.5,8.9-43.2,25.4-55.8c16.1-12.3,40-8.6,57-19.6c14.6-9.5,20.9-28.4,19.4-45.8C333.2,108,315.9,84.9,292.3,79.1z"/>
<g>
	<path class="st5" d="M154.5,248.4c-1.5-0.5-2.4-2-1.9-3.6l0,0c0.5-1.5,2.1-2.4,3.6-1.9l0,0c1.5,0.5,2.4,2.1,1.9,3.6l0,0
		c-0.4,1.2-1.5,2-2.7,2l0,0C155,248.5,154.7,248.5,154.5,248.4z M209.2,245.6c-0.5-1.5,0.3-3.1,1.8-3.7l0,0c1.5-0.5,3.1,0.3,3.7,1.8
		l0,0c0.5,1.5-0.3,3.1-1.8,3.6l0,0l0,0l0,0c-0.3,0.1-0.6,0.2-0.9,0.2l0,0C210.7,247.6,209.6,246.8,209.2,245.6z M143.3,244.3
		c-1.4-0.7-2.1-2.4-1.4-3.8l0,0c0.6-1.5,2.3-2.1,3.8-1.5l0,0c1.4,0.6,2.1,2.4,1.4,3.8l0,0c-0.5,1.1-1.5,1.7-2.6,1.7l0,0
		C144.1,244.5,143.7,244.4,143.3,244.3z M220,241.6c-0.7-1.4-0.1-3.1,1.3-3.8l0,0c1.4-0.7,3.1-0.1,3.9,1.3l0,0
		c0.7,1.4,0.1,3.1-1.4,3.9l0,0l0,0l0,0c-0.4,0.2-0.8,0.3-1.2,0.3l0,0C221.5,243.2,220.5,242.6,220,241.6z M132.8,238.8
		c-1.4-0.8-1.8-2.6-1-4l0,0c0.8-1.4,2.6-1.8,3.9-1v0c1.4,0.8,1.8,2.6,1,4l0,0c-0.5,0.9-1.5,1.4-2.5,1.4l0,0
		C133.8,239.2,133.3,239,132.8,238.8z M230.1,236.2c-0.9-1.4-0.5-3.1,0.9-4l0,0c1.3-0.9,3.1-0.5,4,0.9l0,0c0.9,1.3,0.5,3.1-0.8,4
		l0,0l0,0l0,0c-0.5,0.3-1,0.5-1.6,0.5l0,0C231.6,237.5,230.7,237.1,230.1,236.2z M123,232c-1.2-1-1.5-2.8-0.5-4l0,0
		c1-1.3,2.8-1.5,4-0.5l0,0c1.2,1,1.5,2.8,0.5,4.1l0,0c-0.5,0.7-1.4,1.1-2.2,1.1l0,0C124.2,232.6,123.6,232.4,123,232z M239.6,229.6
		c-1-1.2-0.9-3,0.4-4.1h0c1.2-1,3.1-0.9,4.1,0.3l0,0c1,1.2,0.9,3-0.3,4.1l0,0l0,0l0,0c-0.5,0.5-1.2,0.7-1.9,0.7l0,0
		C241,230.7,240.2,230.3,239.6,229.6z M114.2,224.1c-1.1-1.2-1.1-3,0-4.1l0,0c1.1-1.1,2.9-1.1,4.1,0l0,0c1.1,1.1,1.1,2.9,0,4.1l0,0
		c-0.5,0.6-1.3,0.8-2,0.8l0,0C115.5,225,114.8,224.7,114.2,224.1z M248.2,222c-1.2-1.1-1.2-2.9-0.1-4.1l0,0c1.1-1.2,2.9-1.2,4.1-0.2
		l0,0c1.2,1.1,1.2,2.9,0.1,4.1l0,0c0,0,0,0,0,0l0,0c-0.5,0.6-1.3,0.9-2.1,0.9l0,0C249.4,222.7,248.7,222.5,248.2,222z M106.4,215.2
		c-1-1.3-0.7-3.1,0.5-4l0,0c1.3-1,3.1-0.7,4.1,0.5l0,0c1,1.3,0.7,3.1-0.5,4l0,0c-0.5,0.4-1.1,0.6-1.8,0.6l0,0
		C107.8,216.3,107,215.9,106.4,215.2z M255.7,213.3c-1.3-0.9-1.6-2.7-0.7-4l0,0c1-1.3,2.7-1.6,4-0.7l0,0c1.3,0.9,1.6,2.7,0.7,4l0,0
		c-0.6,0.8-1.4,1.2-2.3,1.2l0,0C256.8,213.8,256.2,213.6,255.7,213.3z M99.8,205.3c-0.8-1.4-0.4-3.1,1-3.9l0,0
		c1.4-0.8,3.1-0.3,3.9,1l0,0c0.8,1.4,0.3,3.1-1,3.9l0,0c-0.5,0.3-1,0.4-1.4,0.4l0,0C101.2,206.8,100.3,206.2,99.8,205.3z
		 M262.2,203.7c-1.4-0.7-1.9-2.5-1.2-3.9l0,0c0.8-1.4,2.5-1.9,3.9-1.2l0,0c1.4,0.8,1.9,2.5,1.2,3.9l0,0c-0.5,1-1.5,1.5-2.5,1.5l0,0
		C263.1,204.1,262.6,204,262.2,203.7z M94.4,194.8L94.4,194.8L94.4,194.8c-0.6-1.4,0.1-3.1,1.5-3.8l0,0c1.5-0.6,3.2,0,3.8,1.5l0,0
		c0.6,1.5-0.1,3.2-1.5,3.8l0,0c-0.4,0.1-0.8,0.2-1.2,0.2l0,0C95.9,196.5,94.9,195.8,94.4,194.8z M267.3,193.4
		c-1.5-0.6-2.2-2.2-1.6-3.7l0,0c0.6-1.5,2.2-2.2,3.7-1.6l0,0c1.5,0.6,2.2,2.2,1.6,3.7l0,0c0,0,0,0,0,0l0,0c-0.4,1.1-1.5,1.8-2.7,1.8
		l0,0C268,193.6,267.7,193.6,267.3,193.4z M90.4,183.6c-0.4-1.5,0.4-3.1,2-3.6l0,0c1.5-0.4,3.1,0.5,3.6,2l0,0c0.4,1.5-0.4,3.1-2,3.6
		l0,0c-0.3,0.1-0.5,0.1-0.8,0.1l0,0C91.9,185.7,90.8,184.8,90.4,183.6z M271.2,182.6c-1.6-0.4-2.5-2-2.1-3.5v0
		c0.4-1.6,2-2.5,3.5-2.1l0,0c1.5,0.4,2.5,2,2.1,3.5l0,0l0,0l0,0c-0.3,1.3-1.5,2.2-2.8,2.2l0,0C271.7,182.7,271.4,182.6,271.2,182.6z
		 M267.4,129.1c-0.5-1.5,0.3-3.1,1.8-3.6l0,0c1.5-0.5,3.1,0.3,3.6,1.8l0,0c0.5,1.5-0.3,3.1-1.8,3.7l0,0c-0.3,0.1-0.6,0.1-0.9,0.1
		l0,0C269,131.1,267.8,130.3,267.4,129.1z M93.8,128.9c-1.5-0.5-2.3-2.2-1.8-3.7l0,0l0,0l0,0c0.5-1.5,2.2-2.3,3.7-1.8l0,0
		c1.5,0.5,2.3,2.2,1.8,3.7l0,0c-0.4,1.2-1.5,1.9-2.7,1.9l0,0C94.4,129,94.1,129,93.8,128.9z M263.3,118.8c-0.7-1.4-0.1-3.2,1.4-3.8
		l0,0c1.4-0.7,3.1-0.1,3.8,1.4l0,0c0.7,1.4,0.1,3.2-1.4,3.9l0,0c-0.4,0.2-0.8,0.3-1.2,0.3l0,0C264.8,120.4,263.8,119.8,263.3,118.8z
		 M98,118.1c-1.4-0.7-2-2.4-1.3-3.9l0,0c0.7-1.4,2.4-2,3.9-1.3l0,0c1.4,0.7,2,2.4,1.3,3.9l0,0c-0.5,1-1.5,1.6-2.6,1.6l0,0
		C98.8,118.4,98.4,118.3,98,118.1z M257.9,109c-0.8-1.4-0.4-3.1,0.9-4l0,0c1.4-0.9,3.1-0.5,4,0.9l0,0c0,0,0,0,0,0l0,0
		c0.9,1.4,0.5,3.1-0.9,4l0,0c-0.5,0.3-1,0.5-1.5,0.5l0,0C259.4,110.3,258.5,109.9,257.9,109z M103.5,108c-1.3-0.9-1.7-2.7-0.8-4l0,0
		l0,0l0,0c0.9-1.3,2.6-1.7,4-0.8l0,0c1.3,0.9,1.7,2.7,0.8,4l0,0c-0.5,0.8-1.5,1.3-2.4,1.3l0,0C104.5,108.5,103.9,108.3,103.5,108z
		 M251.4,100c-1-1.2-0.8-3,0.4-4l0,0c1.2-1,3-0.9,4.1,0.4l0,0c1,1.2,0.8,3.1-0.4,4.1l0,0c-0.5,0.4-1.2,0.7-1.8,0.7l0,0
		C252.8,101,252,100.7,251.4,100z M110.1,98.6c-1.2-1.1-1.3-2.9-0.3-4.1l0,0c1-1.2,2.9-1.4,4.1-0.3l0,0c1.2,1,1.4,2.9,0.3,4.1l0,0
		c-0.6,0.6-1.4,1-2.2,1l0,0C111.4,99.3,110.7,99.1,110.1,98.6z M243.8,91.8c-1.2-1.1-1.2-2.9-0.1-4.1l0,0c1.1-1.2,2.9-1.2,4.1-0.1
		l0,0c1.2,1.1,1.2,2.9,0.1,4.1l0,0c-0.5,0.6-1.3,0.9-2.1,0.9l0,0C245.1,92.6,244.3,92.3,243.8,91.8z M117.9,90.1
		c-1.1-1.2-1-3,0.2-4.1l0,0c1.2-1.1,3-1,4.1,0.2l0,0c1.1,1.2,1,3-0.2,4.1l0,0c-0.5,0.5-1.2,0.7-1.9,0.7l0,0
		C119.3,91.1,118.5,90.8,117.9,90.1z M235.2,84.7L235.2,84.7c-1.3-1-1.6-2.8-0.6-4l0,0c0.9-1.3,2.7-1.6,4-0.6l0,0
		c1.3,0.9,1.6,2.7,0.6,4l0,0c-0.6,0.8-1.4,1.2-2.3,1.2l0,0C236.3,85.2,235.8,85,235.2,84.7z M126.7,82.7c-0.9-1.3-0.6-3.1,0.7-4l0,0
		l0,0l0,0c1.3-0.9,3.1-0.6,4,0.7l0,0c0.9,1.3,0.6,3.1-0.7,4h0c-0.5,0.4-1.1,0.5-1.7,0.5l0,0C128.2,84,127.3,83.5,126.7,82.7z
		 M225.9,78.6c-1.4-0.8-1.9-2.5-1.1-3.9l0,0c0.8-1.4,2.5-1.9,3.9-1.1l0,0c1.4,0.7,1.9,2.5,1.1,3.9l0,0c-0.5,0.9-1.5,1.5-2.5,1.5l0,0
		C226.8,79,226.3,78.9,225.9,78.6z M136.4,76.4c-0.7-1.4-0.2-3.1,1.2-3.9l0,0l0,0l0,0c1.4-0.8,3.1-0.2,3.9,1.2l0,0
		c0.8,1.4,0.2,3.2-1.2,3.9h0c-0.4,0.2-0.9,0.3-1.3,0.3l0,0C137.9,77.9,136.9,77.4,136.4,76.4z M215.8,73.8c-1.5-0.6-2.2-2.3-1.6-3.7
		l0,0c0.6-1.5,2.3-2.2,3.7-1.6l0,0c1.5,0.6,2.2,2.3,1.6,3.7l0,0c-0.5,1.1-1.5,1.8-2.6,1.8l0,0C216.5,74,216.2,73.9,215.8,73.8z
		 M146.7,71.3c-0.6-1.5,0.2-3.1,1.7-3.7l0,0l0,0l0,0c1.5-0.5,3.1,0.2,3.7,1.7l0,0c0.5,1.5-0.2,3.2-1.7,3.7l0,0
		c-0.3,0.1-0.7,0.2-1,0.2l0,0C148.2,73.2,147.1,72.5,146.7,71.3z M205.2,70.3L205.2,70.3c-1.6-0.4-2.5-2-2-3.5l0,0
		c0.4-1.5,2-2.4,3.5-2l0,0c1.5,0.4,2.4,2,2,3.5l0,0c-0.3,1.3-1.5,2.1-2.8,2.1l0,0C205.7,70.4,205.5,70.3,205.2,70.3z M157.6,67.6
		c-0.4-1.6,0.6-3.1,2.1-3.5l0,0l0,0l0,0c1.6-0.4,3.1,0.6,3.5,2.1l0,0c0.4,1.6-0.6,3.1-2.1,3.5v0c-0.2,0.1-0.5,0.1-0.7,0.1l0,0
		C159.1,69.8,157.9,68.9,157.6,67.6z"/>
</g>
<path class="st3" d="M113.9,157.8v-12.6c0-6.8-9.4-12-21.5-12s-21.5,5.3-21.5,12v18.9c0,6.8,9.4,12,21.5,12s21.5-5.3,21.5-12V157.8z
	 M111.9,164.1c0,5.4-8.9,10-19.4,10s-19.4-4.6-19.4-10V163c3.4,4.1,10.7,6.9,19.4,6.9s16-2.8,19.4-6.9V164.1z M111.9,157.8
	c0,5.4-8.9,10-19.4,10s-19.4-4.6-19.4-10v-1.1c3.4,4.1,10.7,6.9,19.4,6.9s16-2.8,19.4-6.9V157.8z M111.9,151.5c0,5.4-8.9,10-19.4,10
	s-19.4-4.6-19.4-10v-1.1c3.4,4.1,10.7,6.9,19.4,6.9s16-2.8,19.4-6.9V151.5z M92.5,155.2c-10.5,0-19.4-4.6-19.4-10
	c0-5.4,8.9-10,19.4-10s19.4,4.6,19.4,10C111.9,150.6,103,155.2,92.5,155.2z"/>
<g>
	<path id="path44560_10_" class="st76" d="M232.4,134.2c-1.1-2.3-2.4-4.5-3.9-6.6l-16,5.8c1.9,1.9,3.4,4.1,4.7,6.3L232.4,134.2z
		 M161.5,151.9l-16,5.8c0.2,2.6,0.6,5.1,1.3,7.6l15.2-5.5C161.5,157.2,161.3,154.6,161.5,151.9"/>
	<path id="path44564_10_" class="st77" d="M197.1,129.7c3.3,1.6,6.2,3.7,8.7,6.2l16-5.8c-4.4-6.2-10.5-11.4-17.9-14.9
		c-22.9-10.7-50.3-0.7-60.9,22.2c-3.5,7.4-4.7,15.3-4.1,22.9l16-5.8c0.3-3.5,1.1-7,2.7-10.3C164.5,129.2,182.2,122.7,197.1,129.7"/>
	<path id="path44572_10_" class="st77" d="M214.2,158.9c-0.3,3.5-1.1,7-2.7,10.3c-6.9,14.9-24.7,21.3-39.6,14.4
		c-3.3-1.6-6.3-3.7-8.7-6.2l-16,5.8c4.4,6.2,10.5,11.4,17.9,14.9c22.9,10.7,50.2,0.7,60.9-22.2c3.5-7.4,4.7-15.3,4.1-22.9
		L214.2,158.9L214.2,158.9z"/>
	<path id="path44576_10_" class="st78" d="M218.1,139.4l-15.2,5.5c2.8,5.1,4.2,10.9,3.7,16.8l16-5.8
		C222.2,150.1,220.6,144.5,218.1,139.4 M147.8,165l-15.2,5.5c1.4,5.6,3.8,10.8,7.2,15.5l16-5.8C151.6,176,148.8,170.7,147.8,165"/>
	<path id="path44584_10_" class="st79" d="M230.1,130c-0.5-0.8-1-1.6-1.6-2.4l-16,5.8c0.7,0.7,1.4,1.5,2,2.3L230.1,130z
		 M161.5,155.1c0-1.1,0-2.1,0.1-3.2l-16,5.8c0.1,1,0.2,2,0.4,3.1L161.5,155.1L161.5,155.1z"/>
	<path id="path44588_10_" class="st80" d="M230.2,153.1l-16,5.8c-0.2,2.3-0.6,4.6-1.4,6.9l17.4-6.3
		C230.4,157.3,230.4,155.2,230.2,153.1 M147.3,183.3c1.2,1.7,2.6,3.4,4.1,4.9l8.5-3.1l8.9-3.3c-2-1.3-3.9-2.8-5.5-4.4L147.3,183.3z"
		/>
</g>
<g>
	<path class="st5" d="M227,273c3,0,5.5-2.4,5.5-5.5c0-3-2.4-5.5-5.5-5.5c-3,0-5.5,2.4-5.5,5.5C221.5,270.5,223.9,273,227,273
		C227,273,227,273,227,273z M227,263.8c2.1,0,3.7,1.7,3.7,3.7c0,2.1-1.7,3.7-3.7,3.7s-3.7-1.7-3.7-3.7c0,0,0,0,0,0
		C223.3,265.5,224.9,263.8,227,263.8z"/>
	<path class="st5" d="M212.7,271.1h3.2c0.2,0.6,0.4,1.1,0.7,1.7l-2.3,2.3c-0.3,0.3-0.4,0.8-0.1,1.2c1.1,1.6,2.4,2.9,4,4
		c0.4,0.3,0.9,0.2,1.2-0.1l2.3-2.3c0.5,0.3,1.1,0.5,1.6,0.7v3.2c0,0.4,0.3,0.8,0.7,0.9c0.9,0.2,1.8,0.3,2.7,0.3c1,0,1.9-0.1,2.9-0.3
		c0.4-0.1,0.7-0.4,0.7-0.9v-3.3c0.5-0.2,1.1-0.4,1.6-0.7l2.3,2.3c0.3,0.3,0.8,0.4,1.2,0.1c1.5-1.1,2.9-2.4,3.9-4
		c0.2-0.4,0.2-0.8-0.1-1.1l-2.3-2.3c0.3-0.5,0.5-1,0.6-1.5h3.2c0.4,0,0.8-0.3,0.9-0.7c0.4-1.9,0.4-3.8,0-5.6
		c-0.1-0.4-0.4-0.7-0.9-0.7h-3.3c-0.2-0.5-0.4-1-0.6-1.5l2.3-2.3c0.3-0.3,0.3-0.8,0.1-1.1c-1.1-1.6-2.4-2.9-3.9-4
		c-0.4-0.3-0.9-0.2-1.2,0.1l-2.2,2.3c-0.5-0.2-1-0.5-1.6-0.6v-3.3c0-0.4-0.3-0.8-0.7-0.9c-1.8-0.4-3.8-0.4-5.6,0
		c-0.4,0.1-0.7,0.4-0.7,0.9v3.2c-0.6,0.2-1.1,0.4-1.6,0.7l-2.3-2.3c-0.3-0.3-0.8-0.4-1.2-0.1c-1.6,1.1-2.9,2.4-4,4
		c-0.3,0.4-0.2,0.9,0.1,1.2l2.3,2.3c-0.2,0.5-0.5,1-0.6,1.6h-3.2c-0.4,0-0.8,0.3-0.9,0.7c-0.2,0.9-0.3,1.9-0.3,2.8
		c0,0.9,0.1,1.9,0.3,2.8C211.9,270.7,212.3,271.1,212.7,271.1z M213.5,265.8h3.1c0.4,0,0.8-0.3,0.9-0.7c0.2-0.9,0.6-1.7,1-2.5
		c0.2-0.3,0.2-0.8-0.1-1.1l-2.2-2.2c0.7-0.9,1.5-1.8,2.4-2.5l2.2,2.2c0.3,0.3,0.8,0.3,1.1,0.1c0.7-0.4,1.5-0.7,2.4-0.9
		c0.4-0.1,0.7-0.5,0.7-0.9v-3.1c1.2-0.2,2.3-0.2,3.5,0v3.2c0,0.4,0.3,0.7,0.7,0.9c0.8,0.2,1.6,0.6,2.4,1c0.3,0.2,0.8,0.2,1.1-0.1
		l2.2-2.2c1,0.7,1.8,1.5,2.5,2.5l-2.3,2.2c-0.3,0.3-0.3,0.7-0.1,1.1c0.4,0.7,0.8,1.5,1,2.4c0.1,0.4,0.5,0.7,0.9,0.7h3.1
		c0.1,0.6,0.1,1.2,0.1,1.8c0,0.6,0,1.2-0.1,1.7h-3.1c-0.4,0-0.8,0.3-0.9,0.7c-0.2,0.8-0.5,1.6-0.9,2.3c-0.2,0.4-0.1,0.8,0.1,1.1
		l2.2,2.3c-0.7,0.9-1.5,1.8-2.5,2.5l-2.3-2.2c-0.3-0.3-0.7-0.3-1.1-0.1c-0.7,0.4-1.5,0.8-2.4,1c-0.4,0.1-0.7,0.5-0.7,0.9v3.1
		c-1.2,0.2-2.3,0.2-3.5,0v-3.1c0-0.4-0.3-0.8-0.7-0.9c-0.8-0.2-1.6-0.5-2.4-1c-0.4-0.2-0.8-0.1-1.1,0.1l-2.2,2.2
		c-0.9-0.7-1.8-1.5-2.5-2.5l2.2-2.2c0.3-0.3,0.3-0.7,0.1-1.1c-0.5-0.8-0.8-1.6-1-2.5c-0.1-0.4-0.5-0.7-0.9-0.7h-3.2
		C213.3,268.1,213.3,266.9,213.5,265.8L213.5,265.8z"/>
</g>
<g>
	<path class="st5" d="M95.1,85.3c3,0,5.5-2.4,5.5-5.5c0-3-2.4-5.5-5.5-5.5c-3,0-5.5,2.4-5.5,5.5C89.6,82.8,92.1,85.3,95.1,85.3
		L95.1,85.3z M95.1,76.1c2.1,0,3.7,1.7,3.7,3.7c0,2.1-1.7,3.7-3.7,3.7c-2.1,0-3.7-1.7-3.7-3.7c0,0,0,0,0,0
		C91.4,77.7,93.1,76.1,95.1,76.1z"/>
	<path class="st5" d="M80.9,83.3h3.2c0.2,0.6,0.4,1.1,0.7,1.7l-2.3,2.3c-0.3,0.3-0.4,0.8-0.1,1.2c1.1,1.6,2.4,2.9,4,4
		c0.4,0.3,0.9,0.2,1.2-0.1l2.3-2.3c0.5,0.3,1.1,0.5,1.6,0.7v3.2c0,0.4,0.3,0.8,0.7,0.9C93.1,94.9,94,95,95,95c1,0,1.9-0.1,2.9-0.3
		c0.4-0.1,0.7-0.4,0.7-0.9v-3.3c0.5-0.2,1.1-0.4,1.6-0.7l2.3,2.3c0.3,0.3,0.8,0.4,1.2,0.1c1.5-1.1,2.9-2.4,3.9-4
		c0.2-0.4,0.2-0.8-0.1-1.1l-2.3-2.3c0.3-0.5,0.5-1,0.6-1.5h3.2c0.4,0,0.8-0.3,0.9-0.7c0.4-1.9,0.4-3.8,0-5.6
		c-0.1-0.4-0.4-0.7-0.9-0.7h-3.3c-0.2-0.5-0.4-1-0.6-1.5l2.3-2.3c0.3-0.3,0.3-0.8,0.1-1.1c-1.1-1.6-2.4-2.9-3.9-4
		c-0.4-0.3-0.9-0.2-1.2,0.1l-2.2,2.3c-0.5-0.2-1-0.5-1.6-0.6v-3.3c0-0.4-0.3-0.8-0.7-0.9c-1.8-0.4-3.8-0.4-5.6,0
		c-0.4,0.1-0.7,0.4-0.7,0.9V69c-0.6,0.2-1.1,0.4-1.6,0.7l-2.3-2.3c-0.3-0.3-0.8-0.4-1.2-0.1c-1.6,1.1-2.9,2.4-4,4
		c-0.3,0.4-0.2,0.9,0.1,1.2l2.3,2.3c-0.2,0.5-0.5,1-0.6,1.6h-3.2c-0.4,0-0.8,0.3-0.9,0.7c-0.2,0.9-0.3,1.9-0.3,2.8
		c0,0.9,0.1,1.9,0.3,2.8C80.1,83,80.5,83.3,80.9,83.3z M81.7,78.1h3.1c0.4,0,0.8-0.3,0.9-0.7c0.2-0.9,0.6-1.7,1-2.5
		c0.2-0.3,0.2-0.8-0.1-1.1l-2.2-2.2c0.7-0.9,1.5-1.8,2.4-2.5l2.2,2.2c0.3,0.3,0.8,0.3,1.1,0.1c0.7-0.4,1.5-0.7,2.4-0.9
		c0.4-0.1,0.7-0.5,0.7-0.9v-3.1c1.2-0.2,2.3-0.2,3.5,0v3.2c0,0.4,0.3,0.7,0.7,0.9c0.8,0.2,1.6,0.6,2.4,1c0.3,0.2,0.8,0.2,1.1-0.1
		l2.2-2.2c1,0.7,1.8,1.5,2.5,2.5l-2.3,2.2c-0.3,0.3-0.3,0.7-0.1,1.1c0.4,0.7,0.8,1.5,1,2.4c0.1,0.4,0.5,0.7,0.9,0.7h3.1
		c0.1,0.6,0.1,1.2,0.1,1.8c0,0.6,0,1.2-0.1,1.7H105c-0.4,0-0.8,0.3-0.9,0.7c-0.2,0.8-0.5,1.6-0.9,2.3c-0.2,0.4-0.1,0.8,0.1,1.1
		l2.2,2.3c-0.7,0.9-1.5,1.8-2.5,2.5l-2.3-2.2c-0.3-0.3-0.7-0.3-1.1-0.1c-0.7,0.4-1.5,0.8-2.4,1c-0.4,0.1-0.7,0.5-0.7,0.9V93
		c-1.2,0.2-2.3,0.2-3.5,0v-3.1c0-0.4-0.3-0.8-0.7-0.9c-0.8-0.2-1.6-0.5-2.4-1c-0.4-0.2-0.8-0.1-1.1,0.1l-2.2,2.2
		c-0.9-0.7-1.8-1.5-2.5-2.5l2.2-2.2c0.3-0.3,0.3-0.7,0.1-1.1c-0.5-0.8-0.8-1.6-1-2.5c-0.1-0.4-0.5-0.7-0.9-0.7h-3.2
		C81.5,80.4,81.5,79.2,81.7,78.1L81.7,78.1z"/>
</g>
<g>
	<path class="st5" d="M272.8,82.4c3,0,5.5-2.4,5.5-5.5c0-3-2.4-5.5-5.5-5.5c-3,0-5.5,2.4-5.5,5.5C267.3,79.9,269.7,82.4,272.8,82.4
		L272.8,82.4z M272.8,73.2c2.1,0,3.7,1.7,3.7,3.7c0,2.1-1.7,3.7-3.7,3.7c-2.1,0-3.7-1.7-3.7-3.7c0,0,0,0,0,0
		C269.1,74.9,270.7,73.2,272.8,73.2z"/>
	<path class="st5" d="M258.5,80.5h3.2c0.2,0.6,0.4,1.1,0.7,1.7l-2.3,2.3c-0.3,0.3-0.4,0.8-0.1,1.2c1.1,1.6,2.4,2.9,4,4
		c0.4,0.3,0.9,0.2,1.2-0.1l2.3-2.3c0.5,0.3,1.1,0.5,1.6,0.7V91c0,0.4,0.3,0.8,0.7,0.9c0.9,0.2,1.8,0.3,2.7,0.3c1,0,1.9-0.1,2.9-0.3
		c0.4-0.1,0.7-0.4,0.7-0.9v-3.3c0.5-0.2,1.1-0.4,1.6-0.7l2.3,2.3c0.3,0.3,0.8,0.4,1.2,0.1c1.5-1.1,2.9-2.4,3.9-4
		c0.2-0.4,0.2-0.8-0.1-1.1l-2.3-2.3c0.3-0.5,0.5-1,0.6-1.5h3.2c0.4,0,0.8-0.3,0.9-0.7c0.4-1.9,0.4-3.8,0-5.6
		c-0.1-0.4-0.4-0.7-0.9-0.7h-3.3c-0.2-0.5-0.4-1-0.6-1.5l2.3-2.3c0.3-0.3,0.3-0.8,0.1-1.1c-1.1-1.6-2.4-2.9-3.9-4
		c-0.4-0.3-0.9-0.2-1.2,0.1l-2.2,2.3c-0.5-0.2-1-0.5-1.6-0.6v-3.3c0-0.4-0.3-0.8-0.7-0.9c-1.8-0.4-3.8-0.4-5.6,0
		c-0.4,0.1-0.7,0.4-0.7,0.9v3.2c-0.6,0.2-1.1,0.4-1.6,0.7l-2.3-2.3c-0.3-0.3-0.8-0.4-1.2-0.1c-1.6,1.1-2.9,2.4-4,4
		c-0.3,0.4-0.2,0.9,0.1,1.2l2.3,2.3c-0.2,0.5-0.5,1-0.6,1.6h-3.2c-0.4,0-0.8,0.3-0.9,0.7c-0.2,0.9-0.3,1.9-0.3,2.8
		c0,0.9,0.1,1.9,0.3,2.8C257.7,80.1,258.1,80.5,258.5,80.5z M259.3,75.2h3.1c0.4,0,0.8-0.3,0.9-0.7c0.2-0.9,0.6-1.7,1-2.5
		c0.2-0.3,0.2-0.8-0.1-1.1l-2.2-2.2c0.7-0.9,1.5-1.8,2.4-2.5l2.2,2.2c0.3,0.3,0.8,0.3,1.1,0.1c0.7-0.4,1.5-0.7,2.4-0.9
		c0.4-0.1,0.7-0.5,0.7-0.9v-3.1c1.2-0.2,2.3-0.2,3.5,0v3.2c0,0.4,0.3,0.7,0.7,0.9c0.8,0.2,1.6,0.6,2.4,1c0.3,0.2,0.8,0.2,1.1-0.1
		l2.2-2.2c1,0.7,1.8,1.5,2.5,2.5l-2.3,2.2c-0.3,0.3-0.3,0.7-0.1,1.1c0.4,0.7,0.8,1.5,1,2.4c0.1,0.4,0.5,0.7,0.9,0.7h3.1
		c0.1,0.6,0.1,1.2,0.1,1.8c0,0.6,0,1.2-0.1,1.7h-3.1c-0.4,0-0.8,0.3-0.9,0.7c-0.2,0.8-0.5,1.6-0.9,2.3c-0.2,0.4-0.1,0.8,0.1,1.1
		l2.2,2.3c-0.7,0.9-1.5,1.8-2.5,2.5l-2.3-2.2c-0.3-0.3-0.7-0.3-1.1-0.1c-0.7,0.4-1.5,0.8-2.4,1c-0.4,0.1-0.7,0.5-0.7,0.9v3.1
		c-1.2,0.2-2.3,0.2-3.5,0v-3.1c0-0.4-0.3-0.8-0.7-0.9c-0.8-0.2-1.6-0.5-2.4-1c-0.4-0.2-0.8-0.1-1.1,0.1l-2.2,2.2
		c-0.9-0.7-1.8-1.5-2.5-2.5l2.2-2.2c0.3-0.3,0.3-0.7,0.1-1.1c-0.5-0.8-0.8-1.6-1-2.5c-0.1-0.4-0.5-0.7-0.9-0.7h-3.2
		C259.2,77.5,259.2,76.3,259.3,75.2L259.3,75.2z"/>
</g>
<path class="st0" d="M266.3,177.8c-0.7,0-1.4-0.2-2-0.5l-16.6-9.6c-1.2-0.7-2-2-2-3.4l0.1-19.8c0-1.4,0.8-2.7,2-3.4l16.4-9.6
	c0.6-0.4,1.3-0.5,2-0.5c0.7,0,1.4,0.2,2,0.5l2.3,1.3l10.1-5.9c0.6-0.4,1.3-0.5,2-0.5c0.7,0,1.4,0.2,2,0.5l12.3,7.1
	c1.2,0.7,2,2,2,3.4l0,14.7c0,1.4-0.8,2.7-2,3.4l-10.2,5.9l0,2.7c0,1.4-0.8,2.7-2,3.4l-16.5,9.6C267.7,177.6,267,177.8,266.3,177.8z
	 M262.4,167l0-10.6l-8.7-5l0,10.6L262.4,167z M270.3,167l8.5-4.9l0-1.8c-0.1-0.2-0.1-0.5-0.1-0.8l0-7.9l-8.4,4.9L270.3,167z
	 M286.7,152.4l4.2-2.4l0-5.6l-4.2,2.4L286.7,152.4z M266.3,149.5l8.4-4.9l-6.3-3.7c-0.3-0.2-0.6-0.4-0.9-0.7l-1.2-0.7l-8.6,5
	L266.3,149.5z M282.9,140l4.2-2.4l-4.4-2.6l-4.2,2.4L282.9,140z"/>
<path class="st3" d="M296,137.5c0-0.4-0.2-0.7-0.5-0.9l-12.3-7.1c-0.3-0.2-0.7-0.2-1.1,0l-11.5,6.7l-3.8-2.2c-0.3-0.2-0.7-0.2-1.1,0
	l-16.4,9.6c0,0,0,0,0,0c-0.3,0.2-0.5,0.5-0.5,0.9l-0.1,19.8c0,0.4,0.2,0.7,0.5,0.9l16.6,9.6c0.2,0.1,0.4,0.1,0.5,0.1s0.4,0,0.5-0.1
	c0,0,0,0,0,0l0,0l16.4-9.6c0.3-0.2,0.5-0.5,0.5-0.9l0-4.4l11.6-6.7c0.3-0.2,0.5-0.5,0.5-0.9L296,137.5
	C296,137.5,296,137.5,296,137.5C296,137.5,296,137.5,296,137.5z M282.6,131.7l10.2,5.9l-9.9,5.8l-10.2-5.9L282.6,131.7z
	 M266.2,136.2l3.2,1.8c0.1,0.2,0.2,0.3,0.4,0.4l10.6,6.1l-14.1,8.2l-14.4-8.3L266.2,136.2z M250.9,146.4l14.4,8.3l0,13.2l0,4.1
	l-14.4-8.3L250.9,146.4z M267.4,172l0-3.6l0-13.7l14.2-8.2l0,12.9c0,0.1,0.1,0.3,0.1,0.4l0,3.9L267.4,172z M283.8,157.4l0-12.2
	l10-5.8l0,12.2L283.8,157.4z"/>
<g>
	<path class="st3" d="M183,232v14.1c0,0.5,0.4,0.9,0.9,0.9c0.5,0,0.9-0.4,0.9-0.9V232c0-0.5-0.4-0.9-0.9-0.9
		C183.3,231.2,183,231.6,183,232z"/>
	<path class="st3" d="M173.1,232v8.4c0,0.5,0.4,0.9,0.9,0.9c0.5,0,0.9-0.4,0.9-0.9V232c0-0.5-0.4-0.9-0.9-0.9
		C173.5,231.2,173.1,231.6,173.1,232z"/>
	<path class="st3" d="M192.8,232v8.4c0,0.5,0.4,0.9,0.9,0.9c0.5,0,0.9-0.4,0.9-0.9V232c0-0.5-0.4-0.9-0.9-0.9
		C193.2,231.2,192.8,231.6,192.8,232z"/>
	<path class="st3" d="M165.5,251.2c0.5,0,0.9-0.4,0.9-0.9l0,0v-21.6h34.8v6.2c0,0.5,0.4,0.9,0.9,0.9c0.5,0,0.9-0.4,0.9-0.9v-7
		c0-0.5-0.4-0.9-0.9-0.9h-36.6c-0.5,0-0.9,0.4-0.9,0.9v22.5C164.7,250.8,165,251.2,165.5,251.2L165.5,251.2z"/>
	<path class="st3" d="M202.1,243.8c-0.5,0-0.9,0.4-0.9,0.9l0,0v18.8h-34.8v-3.3c0-0.5-0.4-0.9-0.9-0.9c-0.5,0-0.9,0.4-0.9,0.9v4.2
		c0,0.5,0.4,0.9,0.9,0.9l0,0h36.6c0.5,0,0.9-0.4,0.9-0.9l0,0v-19.7C203,244.2,202.6,243.8,202.1,243.8L202.1,243.8z"/>
	<path class="st3" d="M204.1,237c-0.3-0.3-0.9-0.4-1.2,0c0,0,0,0,0,0l-17.7,17.7l-9.2-9.2c-0.3-0.3-0.9-0.4-1.2,0c0,0,0,0,0,0
		l-11.3,11.3c-0.3,0.3-0.3,0.9,0,1.2c0.3,0.3,0.9,0.3,1.2,0l0,0l10.6-10.6l9.2,9.2c0.3,0.3,0.9,0.4,1.2,0c0,0,0,0,0,0l18.3-18.3
		C204.5,238,204.5,237.4,204.1,237C204.2,237.1,204.2,237.1,204.1,237z"/>
</g>
<path class="st3" d="M197.9,52.1h-5.4v-3.8c0-5-4-9-9-9s-9,4-9,9v3.8H169c-0.5,0-1,0.4-1,1V82c0,0.5,0.4,1,1,1l0,0h28.9
	c0.5,0,1-0.4,1-1v0V53.1C198.9,52.5,198.5,52.1,197.9,52.1L197.9,52.1z M176.5,48.3c0-3.9,3.1-7,7-7s7,3.1,7,7v3.8h-14.1V48.3z
	 M170,81V54.1h26.9v6h-13.4c-0.5,0-1,0.4-1,1c0,0.5,0.4,1,1,1h13.4v4.4h-13.4c-0.5,0-1,0.4-1,1c0,0.5,0.4,1,1,1h13.4v4.4h-13.4
	c-0.5,0-1,0.4-1,1c0,0.5,0.4,1,1,1h13.4v6H170z"/>
</svg>
