<?xml version="1.0" encoding="utf-8"?>
<!-- Generator: Adobe Illustrator 24.2.3, SVG Export Plug-In . SVG Version: 6.00 Build 0)  -->
<svg version="1.1" id="Layer_1" xmlns="http://www.w3.org/2000/svg" xmlns:xlink="http://www.w3.org/1999/xlink" x="0px" y="0px"
	 viewBox="0 0 443 331" style="enable-background:new 0 0 443 331;" xml:space="preserve">
<style type="text/css">
	.st0{fill:#F3F3F3;}
	.st1{fill:none;stroke:#8B8B8B;stroke-width:0.25;stroke-miterlimit:10;}
	.st2{fill:none;stroke:#EE0000;stroke-width:0.25;stroke-miterlimit:10;}
	.st3{fill:#EE0000;}
	.st4{fill:none;stroke:#EE0000;stroke-width:0.5;stroke-miterlimit:10;}
	.st5{fill:#AAAAAA;}
	.st6{fill:none;stroke:#AAAAAA;stroke-miterlimit:10;}
	.st7{fill:#FFFFFF;}
	.st8{fill:#BABABA;}
	.st9{fill:#316DC1;}
	.st10{fill:#FDDBDB;}
	.st11{fill:#E8E4F6;}
	.st12{fill:#E2EAF6;}
	.st13{fill:#DBF0F7;}
	.st14{fill:#E4F3F4;}
	.st15{fill:#EDF6F0;}
	.st16{fill:#FAB6B6;}
	.st17{fill:#BAADE3;}
	.st18{fill:#A7C0E4;}
	.st19{fill:#93D3E6;}
	.st20{fill:#AEDCDD;}
	.st21{fill:#C9E5D3;}
	.st22{fill:#F2F7E6;}
	.st23{fill:#FEE7CD;}
	.st24{fill:#FDDBC7;}
	.st25{fill:#F56D6D;}
	.st26{fill:#8C77D1;}
	.st27{fill:#6C97D3;}
	.st28{fill:#4CB6D6;}
	.st29{fill:#79C4C6;}
	.st30{fill:#A6D3B6;}
	.st31{fill:#D9E6B4;}
	.st32{fill:#FFF7C4;}
	.st33{fill:#FCCE9A;}
	.st34{fill:#FAB890;}
	.st35{fill:#5E40BE;}
	.st36{fill:#0499C5;}
	.st37{fill:#43ADAF;}
	.st38{fill:#82C299;}
	.st39{fill:#C0D682;}
	.st40{fill:#FFEA6C;}
	.st41{fill:#FAAA4F;}
	.st42{fill:#F7823C;}
	.st43{fill:#BE0000;}
	.st44{fill:#4B3398;}
	.st45{fill:#27579A;}
	.st46{fill:#037A9E;}
	.st47{fill:#368A8C;}
	.st48{fill:#689B7A;}
	.st49{fill:#9AAB68;}
	.st50{fill:#CCBB56;}
	.st51{fill:#C8883F;}
	.st52{fill:#C65E2B;}
	.st53{fill:#8F0000;}
	.st54{fill:#382672;}
	.st55{fill:#1D4174;}
	.st56{fill:#025C76;}
	.st57{fill:#286869;}
	.st58{fill:#4E745C;}
	.st59{fill:#73804E;}
	.st60{fill:#998C41;}
	.st61{fill:#96662F;}
	.st62{fill:#944620;}
	.st63{fill:#5F0000;}
	.st64{fill:#261A4C;}
	.st65{fill:#142C4D;}
	.st66{fill:#023D4F;}
	.st67{fill:#1B4546;}
	.st68{fill:#344E3D;}
	.st69{fill:#632F16;}
	.st70{fill:#DEDEDE;}
	.st71{fill:#C9C9C9;}
	.st72{fill:#8B8B8B;}
	.st73{fill:#2E2E2E;}
	.st74{fill:#6C6C6C;}
	.st75{fill:#4D4D4D;}
	.st76{fill:#C22133;}
	.st77{fill:#DB212E;}
	.st78{fill:#EB2126;}
	.st79{fill:#AD213B;}
	.st80{fill:#BA2133;}
	.st81{fill:none;stroke:#EE0000;stroke-miterlimit:10;}
	.st82{fill:none;stroke:#FFFFFF;stroke-width:4;stroke-linecap:round;stroke-miterlimit:10;}
	.st83{fill:none;stroke:#EE0000;stroke-width:0.75;stroke-linejoin:round;stroke-miterlimit:10;}
	.st84{fill:#EE0000;stroke:#FFFFFF;stroke-linejoin:round;stroke-miterlimit:10;}
	.st85{fill:#EA4335;}
	.st86{fill:#4285F4;}
	.st87{fill:#34A853;}
	.st88{fill:#FBBC05;}
	.st89{fill:none;stroke:#AAAAAA;stroke-width:2;stroke-linecap:round;stroke-linejoin:round;}
	.st90{fill:none;stroke:#AAAAAA;stroke-width:2;stroke-linecap:round;stroke-linejoin:round;stroke-dasharray:0,3.6667;}
	.st91{fill:none;stroke:#AAAAAA;stroke-width:2;stroke-linecap:round;stroke-linejoin:round;stroke-dasharray:0,4;}
	.st92{fill-rule:evenodd;clip-rule:evenodd;fill:#EE0000;}
	.st93{fill:#252F3E;}
	.st94{fill-rule:evenodd;clip-rule:evenodd;fill:#FF9900;}
	.st95{enable-background:new    ;}
	.st96{fill:#B6CBE4;}
	.st97{fill:#CDDBEC;}
	.st98{fill:#E6EDF6;}
	.st99{fill:none;stroke:#8B8B8B;stroke-miterlimit:10;}
	.st100{fill:none;}
	.st101{fill:none;stroke:#AAAAAA;stroke-width:2;stroke-linecap:round;stroke-linejoin:round;stroke-dasharray:0,4.2428;}
	.st102{fill:none;stroke:#AAAAAA;stroke-width:2;stroke-linecap:round;stroke-linejoin:round;stroke-dasharray:0,4.2623;}
	.st103{fill:none;stroke:#AAAAAA;stroke-width:2;stroke-linecap:round;stroke-linejoin:round;stroke-dasharray:0,4.1511;}
	
		.st104{fill:none;stroke:#AAAAAA;stroke-width:2;stroke-linecap:round;stroke-linejoin:round;stroke-miterlimit:10;stroke-dasharray:0,4;}
	.st105{fill:none;stroke:#000000;stroke-width:0.25;stroke-linecap:round;stroke-miterlimit:10;}
	.st106{fill:#FFFFFF;stroke:#8B8B8B;stroke-linecap:round;stroke-linejoin:round;stroke-miterlimit:10;}
	.st107{fill:none;stroke:#8B8B8B;stroke-linecap:round;stroke-linejoin:round;stroke-miterlimit:10;}
	
		.st108{fill:none;stroke:#EE0000;stroke-width:2;stroke-linecap:round;stroke-linejoin:round;stroke-miterlimit:10;stroke-dasharray:0,4;}
	.st109{fill:none;stroke:#8B8B8B;stroke-width:0.75;stroke-linecap:round;stroke-miterlimit:10;}
	.st110{fill:none;stroke:#FFFFFF;stroke-width:0.75;stroke-linecap:round;stroke-miterlimit:10;}
	.st111{fill:none;stroke:#000000;stroke-width:0.75;stroke-linecap:round;stroke-miterlimit:10;}
	.st112{fill:none;stroke:#000000;stroke-miterlimit:10;}
	.st113{fill:none;stroke:#8B8B8B;stroke-width:2;stroke-linecap:round;stroke-linejoin:round;stroke-miterlimit:10;}
	.st114{fill:none;stroke:#261A4C;stroke-miterlimit:10;}
	.st115{fill:none;stroke:#FFFFFF;stroke-width:2;stroke-miterlimit:10;}
	.st116{fill:#020202;stroke:#EE0000;stroke-width:0.5;stroke-miterlimit:10;}
	.st117{fill:none;stroke:#FFFFFF;stroke-width:0.25;stroke-linecap:round;stroke-miterlimit:10;}
	.st118{stroke:#FFFFFF;stroke-width:2;stroke-miterlimit:10;}
	.st119{fill:none;stroke:#CC0000;stroke-width:2;stroke-miterlimit:10;}
	.st120{fill:none;stroke:#EDF21C;stroke-width:2;stroke-linecap:round;stroke-linejoin:round;stroke-miterlimit:10;}
	.st121{fill:none;stroke:#35BA4D;stroke-width:2;stroke-linecap:round;stroke-linejoin:round;stroke-miterlimit:10;}
	.st122{fill:none;stroke:#1FCCC7;stroke-width:2;stroke-linecap:round;stroke-linejoin:round;stroke-miterlimit:10;}
	.st123{fill:none;stroke:#FFFFFF;stroke-width:2;stroke-linecap:round;stroke-linejoin:round;stroke-miterlimit:10;}
	.st124{fill:#020202;stroke:#EE0000;stroke-width:0.25;stroke-miterlimit:10;}
	.st125{fill:#020202;stroke:#8B8B8B;stroke-width:0.25;stroke-miterlimit:10;}
	.st126{fill:#020202;}
	.st127{fill:none;stroke:#000000;stroke-width:2;stroke-linecap:round;stroke-miterlimit:10;}
</style>
<g>
	<path class="st0" d="M236,158.9c-24.3-11.7-54.8,5-79.6-5.5c-7.2-3-13.2-8.1-19.6-12.5c-7.9-5.4-16.4-9.8-25.3-13.2
		c-10.8-4-22.9-6.4-33.7-2.4c-15.8,6-23.8,24.1-24.9,41c-0.6,9.8,0.8,20.3,7.4,27.6c6.1,6.8,15.5,9.4,23,14.7
		c13.2,9.3,19.5,26.1,19.7,42.2c0,2.7,0.1,5.6,0.3,8.5H176c4.8-9.2,9.9-18.1,19-22.4c13.1-6.2,29.3,0,42.8-5.2
		c11.7-4.5,18.9-16.8,20.4-29.2C260.3,185.2,251.7,166.5,236,158.9z"/>
</g>
<path class="st99" d="M244.6,141.2c-0.9-1.1-2.2-1.8-3.6-2c-0.5-6-5.7-10.5-11.8-10c-3.4,0.3-6.5,2.1-8.3,5c-0.1,0-0.3,0-0.4,0
	c-0.1,0-0.3,0-0.4,0c-4.7,0-8.4,3.8-8.4,8.4c0,4.7,3.8,8.4,8.4,8.4h20c3.3,0,5.9-2.7,5.9-5.9C246.1,143.6,245.6,142.2,244.6,141.2
	L244.6,141.2z"/>
<g id="Path_53_13_">
	<path class="st99" d="M70.8,198.1c-0.4,0-0.8,0-1.2,0.1c1-6.2-3.3-12.1-9.6-13.1c-6.3-1-12.3,3.2-13.3,9.5c0,0.3-0.1,0.6-0.1,0.8
		c-0.1,0-0.1,0-0.2,0c-2.8,0-5.2,1.8-6,4.4c-0.1,0-0.2,0-0.2,0c-2.2,0-4.1,1.8-4.1,4s1.8,4,4.1,4l0,0c0,0,0,0,0,0l0,0h30.6
		c2.7,0,4.9-2.2,4.9-4.9C75.8,200.3,73.6,198.1,70.8,198.1L70.8,198.1z"/>
</g>
<g>
	<path class="st41" d="M140.1,153c1.7,5.7,2.5,11.7,2.4,17.6c4,0.9,8.2,1,12.3,1.1c3,0.1,6,0.1,9,0.2c7.5,0.1,15.1,0.2,22.3-1.5
		c0.3-0.1,0.7-0.2,0.9-0.4c0.2-0.2,0.3-0.6,0.4-0.9c1.4-4.9,2.7-9.9,2.2-15c-0.6-5.2-3.2-10.1-4-15.3c-0.3-2.3-0.5-5-2.6-6.1
		c-0.8-0.4-1.8-0.5-2.7-0.5c-11.2-0.5-22.4-0.4-33.5,0.3c-0.7,0-1.4,0.1-2,0.5c-0.5,0.3-0.9,0.9-1.2,1.5c-2,3.8-2.6,8.2-3.1,12.4
		c-0.3,2.2-0.5,4.3-0.8,6.5"/>
</g>
<g>
	<path class="st51" d="M166.8,136c-4.4,0.1-8.8,0.2-13.1,0.2c-0.7,0-1.5,0.1-2,0.6c-0.3,0.3-0.5,0.8-0.6,1.2
		c-0.4,1.1-0.7,2.3-1.1,3.4c-0.4,1.4-0.9,2.8-0.5,4.2c0.3,1.4,1.6,2.7,3,2.5c-1.9,0.6-3.9,1.2-5.3,2.6s-1.9,4-0.5,5.4
		c-2,1.5-2.3,4.4-1.8,6.9c0.5,2.5,1.5,4.9,1.3,7.4c-1.1,0-5.2,0.6-6.4,0.7c-0.3-4.5-1.2-9-2.7-13.3c-0.3-1,2.3-2.5,2.2-3.5
		c-0.1-0.8,0-1.6,0.1-2.3c0.2-1.9,0.4-3.8,0.7-5.6c0.4-3.3,0.8-6.5,1.7-9.7c0.7-2.4,2.1-5.1,4.5-5.5c1.2-0.2,2.4,0.2,3.5,0.5
		c8.5,2.4,17.4,2.9,26.1,1.5c2.9-0.5,6.6-0.9,8.4,1.4c1.9,2.5,0.3,6.1,1.1,9.1c0.5,2,2.1,3.5,3.2,5.3c2,3.3,6.4,7.7,5.7,11.5
		s-2.2,7.3-3.8,10.9c-1-0.3-6.2-0.9-7.3-0.9c1.9-1.5,2.3-4.2,2.5-6.7c0.1-1.3,0.2-2.6-0.4-3.8c-0.6-1.1-2.3-1.7-3.2-0.8
		c1.6-1.3,2-3.9,0.9-5.6c-0.8-1.3-2.3-2.1-3.2-3.4c-1.3-1.9-1.1-4.7-2.5-6.6c-0.4-0.6-1.1-1.1-1.2-1.8c-0.1-0.6,0.1-1.2,0.1-1.8
		c0-1.8-2-3-3.8-3.2c-1.8-0.2-3.8,0-5.4-0.9"/>
</g>
<g>
	<g>
		<path class="st5" d="M193.2,141.2c0.4-0.2,0.8-0.5,1.2-0.7c0.1-0.1,0.2-0.2,0.2-0.3c0-0.1,0-0.3-0.1-0.4c-0.1-0.1-0.2-0.2-0.3-0.2
			c-0.1,0-0.3,0-0.4,0.1c-0.4,0.2-0.8,0.5-1.2,0.7c-0.1,0.1-0.2,0.2-0.2,0.3c0,0.1,0,0.3,0.1,0.4c0.1,0.1,0.2,0.2,0.3,0.2
			C192.9,141.3,193.1,141.3,193.2,141.2L193.2,141.2z"/>
	</g>
</g>
<g>
	<path d="M163.1,153.1c-2.7,1.3-6,0.4-9-0.4c-1.8-0.5-3.7-1-5.6-1.4c-0.8-0.2-1.7-0.4-2.5-0.2c-1.5,0.3-2.4,1.8-3.1,3.1
		c2.7-0.9,5.7-0.5,8.5,0.2c2.8,0.7,5.5,1.8,8.4,2c1.2,0.1,2.7-0.1,3.3-1.1c0.3-0.5,0.3-0.8,0.1-1.4"/>
</g>
<g>
	<path d="M169.8,152.6c2.1-2,4.3-4,7-5.1c2.7-1.1,6.1-0.9,8,1.3c-1.5-0.3-3-0.4-4.5-0.3c-0.7,0-1.4,0.1-2,0.4c-1.4,0.6-2.3,2-3.5,3
		c-0.6,0.4-1.3,0.7-1.9,1c-1.3,0.6-3,1.2-4.1,0.2"/>
</g>
<g>
	<g>
		<path class="st51" d="M168.8,146.8c1.2,0.2,2.2-0.2,3.2-1c0.8-0.7,1.5-1.4,2.5-1.9c2-1,4.4-1.2,6.5-1.7c1.3-0.3,0.7-2.2-0.5-1.9
			c-2.1,0.4-4.2,0.8-6.2,1.6c-1,0.4-1.8,0.9-2.6,1.6c-0.6,0.5-1.4,1.6-2.3,1.5c-0.5-0.1-1.1,0.1-1.2,0.7
			C168,146,168.3,146.7,168.8,146.8L168.8,146.8z"/>
	</g>
</g>
<path class="st127" d="M187.7,157.7c0,0-0.3,12-8.4,11.9c0,0-10,1.1-10.2-8C169,161.6,168.7,152.7,187.7,157.7z"/>
<path class="st127" d="M143.6,157.3c0,0,0.3,12,8.4,11.9c0,0,10,1.1,10.2-8C162.2,161.2,162.5,152.3,143.6,157.3z"/>
<path class="st127" d="M161.9,159.5c0,0,4.9-1.7,7.4,0.2"/>
<g>
	<g>
		<path d="M161,163.1c-0.8,2.9-1.8,5.8-2.9,8.6c-0.2,0.5,0.2,1.1,0.7,1.2c0.6,0.2,1-0.2,1.2-0.7c1.1-2.8,2.1-5.7,2.9-8.6
			C163.3,162.4,161.3,161.9,161,163.1L161,163.1z"/>
	</g>
</g>
<g>
	<g>
		<path d="M168.1,162.8c0.1,1.7,0.9,3.1,1.7,4.6c0.9,1.7,1.9,3.4,3.1,4.9c0.3,0.4,0.9,0.7,1.4,0.4c0.4-0.2,0.7-0.9,0.4-1.4
			c-1.1-1.5-2-3.1-2.9-4.7c-0.7-1.2-1.5-2.4-1.6-3.9c0-0.5-0.4-1-1-1C168.6,161.8,168.1,162.2,168.1,162.8L168.1,162.8z"/>
	</g>
</g>
<g>
	<path d="M177,131.3c-2.9,0.1-5.2,2.3-7.3,4.3c-4.9,4.8-9.7,9.6-14.6,14.4c-6.2,6.1-12.6,12.8-14,21.3c-5.5-0.5-11.1-0.6-16.6-0.2
		c4-7.6,6-16.1,8.5-24.3s5.7-16.5,11.6-22.8"/>
</g>
<g>
	<path class="st127" d="M174.3,161c0,0-0.5-3.1,6.7-3.3c0,0,2.7,0,3.8,1.9"/>
	<path d="M178.5,161.2c0,0-2.3,0.2-2.4-2.6c0-0.7,0.1-0.3,0.1-0.3s2.9-0.6,4.3-0.5C180.5,157.8,181.6,160.8,178.5,161.2z"/>
	<path class="st127" d="M147.3,159.9c0.1-0.2,6.5-5.7,11.3,1.2"/>
	<path d="M152.6,158.3c0,0-2.5,1.3-0.3,3.2l2.7,0c0,0,1.8-1.5,1.2-2.9L152.6,158.3z"/>
</g>
<g>
	<path d="M175.9,133.3c4.8,6.8,9.6,13.6,12.8,21.2c3.3,7.6,4.9,16.1,3.2,24.2c6-0.3,12-0.6,18.1-0.8c-0.1-11.7-8.5-21.5-12.5-32.4
		c-2.1-5.8-3-11.9-4.8-17.8c-1.9-5.8-5-11.6-10.2-14.8c-4.7-2.8-10.5-3.2-16-3.1c-4.3,0.1-8.8,0.6-12.7,2.4
		c-7.9,3.8-12,12.5-15.4,20.6c3,1.2,5.9,2.3,8.9,3.5c3.4,1.3,6.8,2.7,10.3,3.3c3.2,0.5,0.1,3.6,3.3,2.9c2.6-0.6,0.8-3.6,3.5-3.4
		c2.7,0.2,8.5-4.9,9.5-5.1"/>
</g>
<g>
	<path d="M178.2,136c2.9,6.9,7.1,13.6,10,20.6c0.8,1.9,1.6,3.8,1.7,5.8c0.1,1.8-0.3,3.6-0.7,5.3c-0.7,2.9-1.4,5.9-3,8.4
		c4.5-1.8,7.9-6.1,8.6-10.8c0.7-4.6-1.1-9.3-2.8-13.6"/>
</g>
<path class="st64" d="M233.3,257H95.1c-3.2,0-5.8-2.6-5.8-5.8l-2-74.7c0-3.2,2.6-5.8,5.8-5.8h142.3c3.2,0,5.8,2.6,5.8,5.8l-2,74.7
	C239.2,254.3,236.6,257,233.3,257z"/>
<g>
	<path class="st73" d="M168.4,132.8c-6.6,4.8-12.9,10.1-18.7,15.8c-0.6,0.6-1.3,1.3-2.2,1.5c0.9-2.2,1.8-4.3,2.6-6.5
		c0.2-0.6,0.5-1.2,0.5-1.8c0-0.2,0-0.4-0.1-0.6c-0.2-0.5-0.9-0.4-1.4-0.2s-1,0.5-1.5,0.5c-0.5-0.1-0.9-0.5-1-1c-0.1-0.5,0-1,0.1-1.4
		c0.5-1.6,1.8-2.8,2.6-4.2c0.1-0.2,0.2-0.4,0.1-0.6c-0.2-0.8-1.7,0-2.1-0.7c-0.1-0.2-0.1-0.5,0-0.7c0.5-1.5,1.4-2.9,2.6-3.9
		c0.4-0.3,0.9-0.8,0.8-1.3c0-0.2-0.1-0.3-0.2-0.4c-1.2-1.9-0.9-4.6,0.7-6.1c0.7,1.6,1.4,3.3,2,4.9c0.3,0.7,0.7,1.5,1.5,1.7
		c0.8,0.2,1.8-0.5,2.4,0.1c0.4,0.4,0.3,1.1,0,1.7c-0.2,0.5-0.5,1.2-0.2,1.7c0.2,0.5,0.9,0.7,1.4,0.6c0.5-0.1,1-0.4,1.4-0.8
		c2.1-1.6,4.4-3.2,7.1-3.2c0.2,0,0.5,0,0.7,0.1c0.6,0.4,0.3,1.3,0,1.9c-1.5,2.7-3.8,5.1-6.5,6.6"/>
</g>
<g>
	<path class="st51" d="M173.1,134.3c3.4-3,3.4-4.4,4.9-8.6c-0.3,1-0.5,2-0.7,3.1c-0.2,1-0.4,1.9-0.6,2.9c-0.1,0.4-0.2,0.9-0.2,1.3
		c-0.1,0.9,0.1,1.4,0.4,2.3"/>
</g>
<g>
	<path class="st74" d="M154.4,145.7c2.8-2.7,5.8-5.2,8.9-7.6c0.6-0.4,1.2-0.9,1.6-1.5c0.4-0.6,0.6-1.3,0.9-2c0.3-1,0.6-2,0.9-2.9
		c-1.2,0.5-2.2,1.3-3.1,2.1c-2,1.7-4,3.3-5.7,5.3c-1.7,2-3,4.3-3.5,6.9"/>
</g>
<g>
	<path class="st74" d="M180.3,133.8c-0.3-0.4-0.1-1,0.3-1.2s1,0,1.3,0.3s0.6,0.7,0.8,1.2c1.4,2.9,2.5,5.8,3.7,8.8
		c0.6,1.4,1.1,3.1,0.5,4.5c-1.1-3.6-2.2-7.2-4.6-10c-1-1.1-1.7-1.5-1.8-3L180.3,133.8z"/>
</g>
<g>
	<g>
		<path d="M146.6,143.7c5.4-5.5,10.7-11,16.4-16.1c0.5-0.4-0.2-1.1-0.7-0.7c-5.7,5.2-11,10.7-16.4,16.1
			C145.4,143.5,146.1,144.2,146.6,143.7L146.6,143.7z"/>
	</g>
</g>
<g>
	<g>
		<path d="M145.1,138.4c2.7-2.7,5.5-5.3,8.4-7.9c1.4-1.3,2.9-2.6,4.3-3.8c1.3-1.1,2.6-2.5,4.3-2.8c0.6-0.1,0.4-1.1-0.3-1
			c-1.7,0.3-3,1.5-4.2,2.6c-1.5,1.3-3,2.6-4.5,4c-3,2.7-5.9,5.4-8.7,8.2C143.9,138.2,144.6,138.9,145.1,138.4L145.1,138.4z"/>
	</g>
</g>
<line class="st113" x1="37.2" y1="257.1" x2="314.2" y2="257.1"/>
<g>
	<g id="path44560_58_">
		<path class="st76" d="M293.9,101c-0.5-1.1-1.1-2.1-1.8-3.1l-7.5,2.7c0.9,0.9,1.6,1.9,2.2,3L293.9,101z M260.8,109.3l-7.5,2.7
			c0.1,1.2,0.3,2.4,0.6,3.5l7.1-2.6C260.8,111.7,260.7,110.5,260.8,109.3"/>
	</g>
	<g id="path44564_58_">
		<path class="st77" d="M277.5,98.9c1.6,0.7,2.9,1.7,4,2.9L289,99c-2.1-2.9-4.9-5.3-8.4-7c-10.7-5-23.5-0.3-28.4,10.4
			c-1.6,3.5-2.2,7.1-1.9,10.7l7.5-2.7c0.1-1.6,0.5-3.2,1.2-4.8C262.2,98.6,270.5,95.6,277.5,98.9"/>
	</g>
	<g id="path44572_58_">
		<path class="st77" d="M285.4,112.5c-0.1,1.6-0.5,3.2-1.3,4.8c-3.2,7-11.5,10-18.5,6.7c-1.6-0.7-2.9-1.7-4.1-2.9l-7.5,2.7
			c2.1,2.9,4.9,5.3,8.3,7c10.7,5,23.5,0.3,28.4-10.4c1.6-3.5,2.2-7.1,1.9-10.7L285.4,112.5L285.4,112.5z"/>
	</g>
	<g id="path44576_58_">
		<path class="st78" d="M287.3,103.4l-7.1,2.6c1.3,2.4,1.9,5.1,1.7,7.8l7.5-2.7C289.2,108.4,288.4,105.8,287.3,103.4 M254.4,115.4
			l-7.1,2.6c0.7,2.6,1.8,5.1,3.3,7.2l7.5-2.7C256.2,120.5,254.9,118,254.4,115.4"/>
	</g>
	<g id="path44584_58_">
		<path class="st79" d="M292.8,99c-0.2-0.4-0.5-0.8-0.7-1.1l-7.5,2.7c0.3,0.3,0.6,0.7,0.9,1.1L292.8,99z M260.8,110.8
			c0-0.5,0-1,0-1.5l-7.5,2.7c0,0.5,0.1,1,0.2,1.4L260.8,110.8L260.8,110.8z"/>
	</g>
	<g id="path44588_58_">
		<path class="st80" d="M292.9,109.8l-7.5,2.7c-0.1,1.1-0.3,2.2-0.6,3.2l8.1-3C293,111.8,293,110.8,292.9,109.8 M254.2,123.9
			c0.6,0.8,1.2,1.6,1.9,2.3l4-1.4l4.2-1.5c-0.9-0.6-1.8-1.3-2.6-2.1L254.2,123.9z"/>
	</g>
</g>
<g>
	<g id="path44560_57_">
		<path class="st74" d="M376.2,162.3c-0.8-1.6-1.7-3.2-2.8-4.7l-11.3,4.1c1.3,1.3,2.4,2.9,3.3,4.5L376.2,162.3z M326.3,174.8
			l-11.3,4.1c0.1,1.8,0.5,3.6,0.9,5.4l10.7-3.9C326.2,178.5,326.1,176.7,326.3,174.8"/>
	</g>
	<g id="path44564_57_">
		<path class="st72" d="M351.3,159.1c2.3,1.1,4.4,2.6,6.1,4.3l11.3-4.1c-3.1-4.4-7.4-8.1-12.6-10.5c-16.1-7.5-35.4-0.5-42.9,15.6
			c-2.4,5.2-3.3,10.8-2.9,16.1l11.3-4.1c0.2-2.4,0.8-4.9,1.9-7.2C328.3,158.8,340.8,154.2,351.3,159.1"/>
	</g>
	<g id="path44572_57_">
		<path class="st72" d="M363.4,179.7c-0.2,2.4-0.8,4.9-1.9,7.2c-4.9,10.5-17.4,15-27.9,10.1c-2.4-1.1-4.4-2.6-6.1-4.3l-11.3,4.1
			c3.1,4.4,7.4,8.1,12.6,10.5c16.1,7.5,35.4,0.5,42.9-15.6c2.4-5.2,3.3-10.8,2.9-16.1L363.4,179.7L363.4,179.7z"/>
	</g>
	<g id="path44576_57_">
		<path class="st5" d="M366.1,166l-10.7,3.9c2,3.6,2.9,7.7,2.6,11.8l11.3-4.1C369,173.5,367.9,169.6,366.1,166 M316.6,184l-10.7,3.9
			c1,3.9,2.7,7.6,5,10.9l11.3-4.1C319.3,191.8,317.3,188,316.6,184"/>
	</g>
	<g id="path44584_57_">
		<path class="st75" d="M374.5,159.3c-0.4-0.6-0.7-1.1-1.1-1.7l-11.3,4.1c0.5,0.5,1,1,1.4,1.6L374.5,159.3z M326.2,177.1
			c0-0.8,0-1.5,0-2.3l-11.3,4.1c0.1,0.7,0.1,1.4,0.3,2.2L326.2,177.1L326.2,177.1z"/>
	</g>
	<g id="path44588_57_">
		<path class="st74" d="M374.6,175.6l-11.3,4.1c-0.1,1.6-0.4,3.2-1,4.8l12.3-4.5C374.8,178.6,374.7,177.1,374.6,175.6 M316.2,196.9
			c0.9,1.2,1.8,2.4,2.9,3.5l6-2.2l6.3-2.3c-1.4-0.9-2.7-1.9-3.9-3.1L316.2,196.9z"/>
	</g>
</g>
<g>
	<g>
		<path class="st3" d="M311.3,138.2c-0.1,0.1-0.2,0.3-0.2,0.5l0.6,12.1L293,132.1c-0.3-0.3-0.8-0.3-1.1-0.1
			c-0.3,0.3-0.3,0.8,0.1,1.1l18.7,18.7l-12.1-0.6c-0.4,0-0.7,0.3-0.7,0.7s0.4,0.8,0.8,0.8l0,0l13.9,0.7c0.4,0,0.7-0.3,0.7-0.7
			c0,0-0.7-13.9-0.7-13.9c0-0.4-0.4-0.8-0.8-0.8C311.6,138.1,311.4,138.1,311.3,138.2z"/>
	</g>
</g>
<g>
	<g>
		<path class="st72" d="M352.6,139.1c-0.2,0-0.4-0.1-0.5-0.2l-22.2-20.9c-0.3-0.3-0.3-0.8,0-1.1c0.3-0.3,0.8-0.3,1.1,0l22.2,20.9
			c0.3,0.3,0.3,0.8,0,1.1C353,139.1,352.8,139.1,352.6,139.1z"/>
	</g>
	<g>
		<path class="st100" d="M345.6,116.1c0-2.4-1.9-4.3-4.3-4.3c-2.4,0-4.3,1.9-4.3,4.3v2.3h8.6V116.1z"/>
		<path class="st100" d="M341.3,128.4c-0.2,0-0.3-0.1-0.4-0.2l3.1,2.9h2.1l-2.9-2.7H341.3z"/>
		<path class="st100" d="M340.7,127.8c0-0.3,0.3-0.6,0.6-0.6h0.5l-8.1-7.6h-0.7v1.3l7.8,7.3C340.7,128.1,340.7,128,340.7,127.8z"/>
		<polygon class="st100" points="349.1,136 349.5,136 349.5,134.4 347.3,132.4 345.2,132.4 		"/>
		<path class="st72" d="M333.1,119.6h0.7l-1.3-1.2c-0.3,0-0.6,0.3-0.6,0.6v0.8l1.2,1.1V119.6z"/>
		<path class="st72" d="M341.3,131.1c-0.3,0-0.6,0.3-0.6,0.6c0,0.3,0.3,0.6,0.6,0.6h1.7l-1.3-1.2H341.3z"/>
		<path class="st72" d="M349.5,136h-0.3l1.2,1.1c0.2-0.1,0.3-0.3,0.3-0.5l0,0v-1.1l-1.2-1.1V136z"/>
		<path class="st72" d="M333.1,136v-13l-1.2-1.1v14.8c0,0.3,0.3,0.6,0.6,0.6h15.8l-1.3-1.2H333.1z"/>
		<path class="st72" d="M349.5,119.6v3.7h-8.2c-0.3,0-0.6,0.3-0.6,0.6c0,0.1,0,0.1,0,0.2l0.4,0.4c0,0,0.1,0,0.1,0h8.2v2.7H344
			l1.3,1.2h4.2v2.7h-1.3l2.5,2.3V119c0-0.3-0.3-0.6-0.6-0.6h-3.3v-2.3c0-3-2.5-5.5-5.5-5.5c-3,0-5.5,2.5-5.5,5.5v2.3h-1.1l1.3,1.2
			H349.5z M337,116.1c0-2.4,1.9-4.3,4.3-4.3c2.4,0,4.3,1.9,4.3,4.3v2.3H337V116.1z"/>
	</g>
</g>
<g>
	<g>
		<path class="st72" d="M406.8,187.2c-0.2,0-0.4-0.1-0.5-0.2L384,166.1c-0.3-0.3-0.3-0.8,0-1.1c0.3-0.3,0.8-0.3,1.1,0l22.2,20.9
			c0.3,0.3,0.3,0.8,0,1.1C407.2,187.1,407,187.2,406.8,187.2z"/>
	</g>
	<g>
		<path class="st72" d="M392.3,168.2l1.7,1c0.1,0.1,0.1,0.2,0.2,0.2l5.8,3.3l-2.8,1.6l0.9,0.8l2.5-1.4l0,3.8l1.2,1.2l0-5.6l5.4-3.2
			l0,6.7l-4.7,2.8l0.9,0.8l4.7-2.7c0.2-0.1,0.3-0.3,0.3-0.5l0-8c0,0,0,0,0,0c0,0,0,0,0,0c0-0.2-0.1-0.4-0.3-0.5l-6.7-3.9
			c-0.2-0.1-0.4-0.1-0.6,0l-6.3,3.6l-2-1.2c-0.2-0.1-0.4-0.1-0.6,0l-1.6,0.9l0.9,0.8L392.3,168.2z M401.2,165.7l5.5,3.2l-5.4,3.1
			l-5.5-3.2L401.2,165.7z"/>
		<path class="st72" d="M392.9,187.6l0-1.9l0-7.5l1.2-0.7l-0.9-0.8l-0.9,0.5l-7.8-4.5l2.8-1.6l-0.9-0.8l-3.3,1.9c0,0,0,0,0,0
			c-0.2,0.1-0.3,0.3-0.3,0.5l0,10.8c0,0.2,0.1,0.4,0.3,0.5l9,5.2c0.1,0.1,0.2,0.1,0.3,0.1s0.2,0,0.3-0.1c0,0,0,0,0,0l8.6-5l-0.9-0.8
			L392.9,187.6z M391.7,185.4l0,2.2l-7.8-4.5l0-9.4l7.8,4.5L391.7,185.4z"/>
	</g>
</g>
<g>
	<g>
		<path class="st72" d="M298.2,187.2c-0.2,0-0.4-0.1-0.5-0.2l-22.2-20.9c-0.3-0.3-0.3-0.8,0-1.1c0.3-0.3,0.8-0.3,1.1,0l22.2,20.9
			c0.3,0.3,0.3,0.8,0,1.1C298.6,187.1,298.4,187.2,298.2,187.2z"/>
	</g>
	<g>
		<path class="st72" d="M285.6,165.8c5.7,0,10.5,2.5,10.5,5.4c0,2-2.4,3.9-5.7,4.8l0.9,0.9c2.1-0.7,3.8-1.6,4.8-2.9v0.6
			c0,1.5-1.2,2.8-3.1,3.8l0.9,0.8c0.9-0.5,1.7-1.1,2.3-1.8v0.6c0,0.8-0.4,1.6-1.1,2.3l0.8,0.8c0.1-0.1,0.2-0.2,0.3-0.3v0.5l1,0.9
			c0.1-0.3,0.1-0.6,0.1-0.9V178v-6.8c0-3.7-5.1-6.5-11.6-6.5c-2.3,0-4.4,0.4-6.2,1l0.9,0.9C281.9,166.1,283.7,165.8,285.6,165.8z"/>
		<path class="st72" d="M285.6,186.9c-5.7,0-10.5-2.5-10.5-5.4v-0.6c1.8,2.2,5.8,3.7,10.5,3.7c2.4,0,4.5-0.4,6.3-1l-0.9-0.9
			c-1.6,0.5-3.4,0.8-5.4,0.8c-5.7,0-10.5-2.5-10.5-5.4v-0.6c1.8,2.2,5.8,3.7,10.5,3.7c1.2,0,2.4-0.1,3.5-0.3l-1-1
			c-0.8,0.1-1.6,0.2-2.4,0.2c-5.7,0-10.5-2.5-10.5-5.4V174c1.8,2.2,5.8,3.7,10.5,3.7c0,0,0.1,0,0.1,0l-1.2-1.1
			c-5.2-0.3-9.5-2.6-9.5-5.4c0-0.9,0.4-1.7,1.2-2.4l-0.8-0.8c-0.9,0.9-1.4,2-1.4,3.2v10.2c0,3.7,5.1,6.5,11.6,6.5
			c3.5,0,6.6-0.8,8.7-2.2l-0.9-0.8C291.6,186.1,288.7,186.9,285.6,186.9z"/>
	</g>
</g>
<g>
	<path class="st72" d="M351.9,240.4c-0.2,0-0.4-0.1-0.5-0.2l-22.2-20.9c-0.3-0.3-0.3-0.8,0-1.1c0.3-0.3,0.8-0.3,1.1,0l22.2,20.9
		c0.3,0.3,0.3,0.8,0,1.1C352.3,240.4,352.1,240.4,351.9,240.4z"/>
</g>
<g>
	<polygon class="st100" points="331.5,219.5 330.7,219.5 330.7,220.7 334.5,224.3 334.5,222.3 	"/>
	<path class="st100" d="M340,227.5l-4.6-4.3v1.9l4.6,4.3c0-0.1,0-0.1,0-0.2V227.5z"/>
	<polygon class="st100" points="343.8,233 350.3,239.1 350.3,239.1 350.3,237.2 344.8,232 	"/>
	<path class="st100" d="M341,228.4v0.9c0,0.3-0.2,0.5-0.5,0.5c-0.1,0-0.1,0-0.2,0l2.8,2.6l1-1L341,228.4z"/>
	<path class="st72" d="M341,221.4c0-0.3-0.2-0.5-0.5-0.5s-0.5,0.2-0.5,0.5v4.1l1,0.9V221.4z"/>
	<path class="st72" d="M345.6,221.4v4.8c0,0.3,0.2,0.5,0.5,0.5c0.3,0,0.5-0.2,0.5-0.5v-4.8c0-0.3-0.2-0.5-0.5-0.5
		C345.8,220.9,345.6,221.1,345.6,221.4z"/>
	<path class="st72" d="M329.7,231.7c0,0.3,0.2,0.5,0.5,0.5c0.3,0,0.5-0.2,0.5-0.5v-8.9l-1-0.9V231.7z"/>
	<path class="st72" d="M350.3,219.5v3.5c0,0.3,0.2,0.5,0.5,0.5c0.3,0,0.5-0.2,0.5-0.5v-4c0-0.3-0.2-0.5-0.5-0.5h-18.2l1,1H350.3z"/>
	<path class="st72" d="M330.7,239.1v-1.9c0-0.3-0.2-0.5-0.5-0.5c-0.3,0-0.5,0.2-0.5,0.5v2.4c0,0.3,0.2,0.5,0.5,0.5h18.9l-1-1H330.7z
		"/>
	<path class="st72" d="M351.3,228.5c0-0.3-0.2-0.5-0.5-0.5s-0.5,0.2-0.5,0.5v6.6l1,0.9V228.5z"/>
	<path class="st72" d="M352,224.9c0.2-0.2,0.2-0.5,0-0.7c0,0,0,0,0,0c-0.2-0.2-0.5-0.2-0.7,0c0,0,0,0,0,0l-6.1,6.1l0.7,0.7
		L352,224.9z"/>
	<path class="st72" d="M341.3,234.2l-5.2-5.2c-0.2-0.2-0.5-0.2-0.7,0c0,0,0,0,0,0l-6.3,6.3c-0.2,0.2-0.2,0.5,0,0.7s0.5,0.2,0.7,0
		l6-6l5.2,5.2c0.2,0.2,0.5,0.2,0.7,0c0,0,0,0,0,0l1.1-1.1l-0.7-0.7L341.3,234.2z"/>
</g>
<g>
	<path class="st72" d="M98.4,120.1c-4.7,0-8.6,3.8-8.6,8.5c-0.1,0.6,0.3,1.1,0.9,1.2c0.6,0.1,1.1-0.3,1.2-0.9c0-0.1,0-0.2,0-0.3
		c0-3.6,3-6.4,6.6-6.4c3.6,0,6.4,3,6.4,6.6c0,2.2-1.2,4.3-3.1,5.4c-2.3,1.5-5.6,2.6-5.7,6.2c0.1,0.6,0.6,1,1.2,0.9
		c0.5-0.1,0.9-0.4,0.9-0.9c-0.2-2,2.9-3.3,4.7-4.4c4-2.6,5.2-7.9,2.6-11.9C104,121.6,101.3,120.1,98.4,120.1z"/>
	<path class="st72" d="M97.6,144c-0.5-0.2-1.2,0-1.4,0.6c-0.2,0.5,0,1.2,0.6,1.4s1.2,0,1.4-0.6S98.1,144.2,97.6,144z"/>
	<path class="st72" d="M98.4,108.1c-13.8,0-24.9,11.2-24.9,24.9c1.4,33.1,48.5,33.1,49.9,0C123.3,119.3,112.2,108.2,98.4,108.1z
		 M98.4,155.9c-12.6,0-22.8-10.2-22.8-22.8c1.3-30.2,44.4-30.2,45.6,0C121.2,145.7,111,155.9,98.4,155.9z"/>
</g>
<path class="st54" d="M116.4,254.1l80.3-80.3h26.9l-80.4,80.4C143.2,254.2,117.1,253.4,116.4,254.1z"/>
<path class="st54" d="M159.6,254.1l81.2-81.2l-0.4,27.4l-53.9,53.9C186.4,254.2,160.3,253.4,159.6,254.1z"/>
<circle class="st114" cx="165.2" cy="217.4" r="12.2"/>
<path class="st44" d="M87.4,182.4c0,0-1.3-6.8,6.6-8.8h138.5c4.5,0,8.4,3.5,8.4,8c0,0.1,0,0.1,0,0.2l0.5-6.2
	c0.2-2.7-1.9-5.1-4.7-5.1H91.5c-2.7,0-4.9,2.3-4.7,5.1L87.4,182.4z"/>
</svg>
