<?xml version="1.0" encoding="utf-8"?>
<!-- Generator: Adobe Illustrator 24.0.3, SVG Export Plug-In . SVG Version: 6.00 Build 0)  -->
<svg version="1.1" id="Layer_1" xmlns="http://www.w3.org/2000/svg" xmlns:xlink="http://www.w3.org/1999/xlink" x="0px" y="0px"
	 viewBox="0 0 277 348" style="enable-background:new 0 0 277 348;" xml:space="preserve">
<style type="text/css">
	.st0{fill:#E50107;}
	.st1{fill:#F06F73;}
	.st2{fill:#D2EBF4;}
	.st3{fill:#E50006;}
	.st4{fill:#E5040A;}
	.st5{fill:#010101;}
	.st6{fill:#E50409;}
	.st7{fill:#D3EBF4;}
	.st8{fill:#D2EBF3;}
	.st9{fill:#E60A10;}
	.st10{fill:#E50309;}
	.st11{fill:#E4090F;}
	.st12{fill:#E40B11;}
	.st13{fill:#E50E14;}
	.st14{fill:#E6090F;}
	.st15{fill:#E70E13;}
	.st16{fill:#231940;}
	.st17{fill:#241941;}
	.st18{fill:#0F0C0C;}
	.st19{fill:#E71419;}
	.st20{fill:#E6282D;}
	.st21{fill:#FEFEFE;}
	.st22{fill:#FAFAFA;}
	.st23{fill:#FEFDFD;}
	.st24{fill:#F9F7F7;}
	.st25{fill:#F3F3F3;}
	.st26{fill:#E5070D;}
	.st27{fill:#E4070E;}
	.st28{fill:#FEFBFB;}
	.st29{fill:#2F254B;}
	.st30{fill:#D2E8F1;}
	.st31{fill:#D2E9F2;}
	.st32{fill:#E6060C;}
	.st33{fill:#E6050B;}
	.st34{fill:#E50C12;}
	.st35{fill:#E6070D;}
	.st36{fill:#E5060C;}
	.st37{fill:#E6080E;}
	.st38{fill:#FEFCFC;}
	.st39{fill:#E0EFF5;}
	.st40{fill:#FEFAFA;}
	.st41{fill:#D2E7F0;}
</style>
<title>Automation-monitors-Spot-3color</title>
<desc>Created with Sketch.</desc>
<g id="Page-1">
	<g>
		<path class="st0" d="M160.7,150.8c0.1-2,0.1-4,0.2-6c0.7-0.4,1.4-0.2,2.1-0.2c34.7,0,69.3,0,104,0c0.7,0,1.5-0.2,2.2,0.2
			c0,0.7,0.1,1.3,0.1,2c0,19,0,38.1,0,57.1c0,1.7-0.3,2.4-2.1,2.2c-1.4-0.2-2.9,0-4.4,0.1c-0.9,0.8-2.1,0.7-3.2,0.7
			c-10.3,0-20.5,0-30.8,0c-3.3,0-3.8,0-3.6,3.1c0,0.5-0.2,1-0.5,1.5c0,3.3,0,6.5-0.1,9.8c0,1,0.3,1.3,1.3,1.5
			c6.6,1.4,12.7,4,18.2,8.1c0.9,0.7,2,1.2,2.5,2.5c0.3,0.9,1.2,0.4,1.7,0.4c8.8,0,17.5,0,26.3,0c0.8,0,1.6-0.2,2.2,0.5
			c0,0.1,0,0.3,0,0.4c-1,0.1-2,0.2-2.9,0.2c-30.4,0-60.8,0-91.2,0c-1.7,0-2.9,0.4-4.3,1.5c-6.2,5.3-13.6,8.1-21.3,10.2
			c-0.7,0.2-1.4,0.3-2.1,0.5c-2.2,1.4-8,1.3-10-0.3c-0.8-0.6-1.7-1.3-1.3-2.6c-0.3-3.4,1.6-5.4,4.4-6.8c2.8-1.3,5.7-2,8.7-2.7
			c3.4-0.8,6.4-2.4,9-4.7c2.7-2.4,5.5-4.8,8.3-7.1c2.2-1.7,4.5-3.3,7.5-3.4c-1.3-1.1-2.6-0.7-3.7-0.3c-1.9,0.7-3.6,1.9-5.2,3.2
			c-1.2,0.9-2.4,1.8-3.5,2.9c-5,4.9-10.8,8.5-17.9,9.6c-1.5,0.2-2.9,0.9-4.3,1.5c-2,0.9-3.8,2.2-4.2,4.6c-0.2-0.1-0.4,0-0.5-0.1
			c-3.3-4.2-3.3-4.5,1-7.5c4.2-2.8,8-6.5,12.6-8.2c4.7-1.7,9.5-3.2,14.2-4.9c2-0.8,4.1-1.4,6.2-2.1c5.6-1.9,10.3,3.5,8.6,9
			c-0.7,2.4-2.1,4.4-3.5,6.3c1.8,1,2.2-0.7,3.1-1.4c3.1-2.6,6.6-4.7,10.3-6.3c3.2-1.4,6.5-2.5,10-3.1c1-0.2,1.5-0.4,1.5-1.6
			c-0.1-3.2-0.1-6.4-0.1-9.6c-0.6-0.7-0.6-1.6-0.6-2.5c0.1-1.6-0.7-2.1-2.2-2.1c-0.7,0-1.3,0-2,0c-11.8,0-23.6,0-35.4,0
			c-0.8,0-1.6,0.1-2.4-0.1c-0.7-0.1-1.5-0.2-1.4-1.3c0.6-1,1.6-0.5,2.4-0.5c33.7,0,67.3,0,101,0c2.8,0,2.5,0.4,2.5-2.6
			c0-18.2,0-36.3,0-54.5c0-0.8,0.2-1.6-0.2-2.4c-0.7-0.4-1.4-0.2-2.2-0.2c-33.9,0-67.8,0-101.7,0c-0.7,0-1.5-0.2-2.1,0.2l0,0
			c-0.4,0.7-0.2,1.4-0.2,2.1c0,11.1,0,22.2,0,33.2c0,0.7,0.2,1.5-0.2,2.1c-0.3,0.2-0.6,0.6-0.9,0c-0.6-0.8-0.6-1.7-0.6-2.7
			c0-9,0-18,0-27C160.2,152.6,160.1,151.6,160.7,150.8z"/>
		<path class="st1" d="M149.7,0c0,0.1,0,0.3,0,0.4C149.1,1,148.3,1,147.6,1C112.5,1,77.4,1,42.3,1c-0.1,0-0.3,0-0.4-0.1
			c-0.3-0.1-0.5-0.2-0.7-0.4c0.1-0.2,0.1-0.3,0.2-0.5C77.5,0,113.6,0,149.7,0z"/>
		<path class="st1" d="M160.9,0.4c0-0.1,0-0.3,0-0.4c36.1,0,72.2,0,108.3,0c0,0.1,0,0.3,0,0.4c-1,0.8-2.1,0.5-3.2,0.5
			c-32.7,0-65.5,0-98.2,0c-1.6,0-3.2,0-4.8,0C162.2,1,161.5,1,160.9,0.4z"/>
		<path class="st2" d="M99.9,128.9c-13.5,0-26.9-0.1-40.4,0c-2.9,0-5.1-1.1-7.2-2.8c-1.7-1.4-3.1-3-5.3-3.8
			c-1.1-0.4-0.9-1.3-0.9-2.2c0-12.4,0-24.7,0-37.1c0-1.4,0.1-2.8,0-4.2c-0.1-1.2,0.4-1.6,1.5-1.5c0.3,0,0.7,0,1,0
			c31.3,0,62.5,0,93.8,0c2,0,2.6,0.4,2.6,2.5c-0.1,7.6-0.1,15.2-0.1,22.7c-0.9,0.7-1.9,0.5-2.9,0.5c-11.5,0-22.9,0.1-34.4,0
			c-4-0.1-7,2.6-7.1,7.1c-0.1,5.3,0,10.6,0,15.9c0,0.9,0.1,1.7-0.3,2.5C100.1,128.8,100,128.8,99.9,128.9z"/>
		<path class="st3" d="M79.4,281c-10,0.4-19.8-4.1-28.7-10.8c-17.2-13-29.7-29.6-37.8-49.6c-0.6-1.6-0.3-2.1,1.3-2.4
			c6.9-1.4,13.4,0.1,19.8,2.7c7.6,3.1,14.5,7.5,21.3,12c7.3,4.8,14.4,10,22,14.4c8.7,5.1,18.2,7.5,28.1,8.5
			c6.9,0.7,13.9,0.6,20.7,2.3c2.5,0.6,4.7,1.7,7,2.9c1.2,0.7,1.2,1.2,0.2,2.1c-5.8,5.6-12.6,9.4-20.1,12.2
			C102.7,279.2,91.9,280.7,79.4,281z"/>
		<path class="st2" d="M154.6,320.1c0.7,3.1,0.7,3,4.3,3.6c6.3,0.9,12.6,2.1,18.7,4.4c2.2,0.8,4.3,1.6,6,3.4c1.6,1.7,1.7,3-0.2,4.6
			c-1.8,1.6-4,2.5-6.3,3.3c-7.2,2.4-14.6,3.7-22,4.8c-6.8,1-13.6,1.5-20.4,2.3c-2,0.2-4,0.3-5.9,0.3c-3.6,0.1-7.3,0.4-10.9,0.6
			c-10.7,0.5-21.5,0.5-32.2,0.3c-8.5-0.1-17-0.5-25.5-1.2c-12.3-1-24.5-2.2-36.6-5.1c-4-1-8-2-11.5-4.3c-3.5-2.4-3.6-4.5,0-6.7
			c4.4-2.7,9.4-3.8,14.4-4.9c7.5-1.7,15-2.7,22.6-3.5c5.9-0.6,11.8-1.3,17.8-1.3c0.4,0,0.9-0.2,1.4,0.4c-3.8,1.9-7.6,3.7-11.4,5.6
			c-1.7,0.8-3.4,1.6-5,2.4c-1.1,0.6-2,1.4-1.6,2.8c0.4,1.5,1.5,2,3,2c2-0.1,3.6-1.2,5.4-1.9c6.1-2.5,12.1-5.1,18.1-7.7
			c0.9-0.4,1.6-0.2,2.3,0.1c7.6,3,15.3,6,22.9,9c2.5,1,4.3-0.1,4-2.7c-0.1-1.1-0.9-1.4-1.7-1.8c-6-2.8-12-5.6-18-8.5
			c-0.2-0.1-0.4-0.2-0.5-0.2c0.1-0.2,0.1-0.3,0.2-0.5c9.7,0,19.4,0,29.1,0c0.7,0.8,0.5,1.7,0.6,2.6c0.1,1.9-0.1,3.7,0.2,5.6
			c0.4,2.3,1.1,3.1,3.3,3.6c3,0.7,6.1,0.6,9.1,0c7.6-1.5,15.1-3.4,22.4-6.2c2-0.8,3.9-1.5,3.5-4.2
			C154,320.7,154.2,320.3,154.6,320.1z"/>
		<path class="st2" d="M165.6,171.6c0-6.7,0-13.4,0-20.1c0-1.3,0.3-1.9,1.8-1.9c22.4,0,44.7,0,67.1,0c0.8,0,1.5,0.1,2,1
			c3.4,6.4,8.1,11.9,12.2,17.8c5.5,7.8,9,16.3,10.5,25.7c0.3,1.6,0.4,3.3,0.7,4.9c0.3,1.7-0.1,2.2-1.9,2.2c-13.9-0.1-27.9,0-41.8,0
			c-0.8-0.8-0.6-1.9-0.6-2.8c0-6.5-0.2-13,0.1-19.5c0.2-3.8-2.8-7.1-7.1-7c-8.8,0.1-17.6,0-26.5,0c-4.8,0-9.5,0-14.3,0
			C167.1,171.8,166.3,171.9,165.6,171.6z"/>
		<path class="st2" d="M144.9,172.3c0,2.7,0,5.3,0.1,8c0,1.1-0.2,1.8-1.5,1.7c-4.6-0.4-9.2-0.7-13.8-1.1c-1.6-0.1-3.2-0.2-4.8-0.1
			c-1.5,0.2-2.4,1.2-2.8,2.7c-1.5,5.1-3.1,10.3-4.5,15.4c-0.5,1.7-1.3,2.2-3.1,2.2c-14.1-0.1-28.1-0.1-42.2,0c-1.4,0-2.2-0.5-3-1.7
			c-1.6-2.5-3.2-5-5.1-7.4c-1.9-2.4-4.3-4.1-6.9-5.6c-2.7-1.5-5.5-2.9-8.5-3.9c-0.4-0.1-0.7-0.3-1.1-0.5c-1.1-0.5-0.8-1.5-0.7-2.3
			c0.2-1.1,1-0.5,1.6-0.4c4.4,0.7,9.1-1.3,10.1-4.8c1.1-3.7,2.5-7.3,3.6-10.9c0.3-1,0.4-1.8-0.4-2.6c-0.2-0.2-0.5-0.6-0.5-0.8
			c0.3-3.3,0.2-6.7,1.1-9.9c0.4-1.2,1.3-0.8,2-0.8c10.9,0,21.9,0,32.8,0c0.9,0,1.7,0,2.6,0c0.1,0.1,0.2,0.2,0.3,0.3
			c0.4,0.8,0.3,1.7,0.3,2.5c0,4,0,8,0,12c0,3.8,1.6,6.2,4.5,7.2c0.9,0.3,1.7,0.2,2.6,0.2c11.5,0,22.9,0,34.4,0
			C143,171.8,144,171.6,144.9,172.3z"/>
		<path d="M143.6,244.2c0.8,2.1,2.4,3,4.5,3.2c2.3,0.2,4.6,0,6.8-0.3c-3,9.2-6.1,18.3-8.6,27.7c-2.5,9.4-4.6,18.8-4.9,28.6
			c0,1.6-1.2,2-2.3,2.3c-4.9,1.6-9.8,1.5-14.6-0.3c-1.5-0.6-1.8-0.2-1.9,1.2c0,0.8-0.1,1.6-0.2,2.4c0,0.3-0.1,0.7-0.6,0.7
			c-0.5,0-0.5-0.4-0.5-0.7c0-0.6,0-1.2,0.1-1.8c0.5-1.8,0.6-3.3-1.5-4.3c-0.6-0.3-0.5-1-0.5-1.6c0.1-9.2,1.1-18.3,2.9-27.3
			c0.2-0.9,0.5-1.5,1.4-2c5.2-2.9,9.9-6.7,14-11.1c0.6-0.7,1.2-1.1,2.2-0.8c0.5,0.2,1.2,0.1,1.8,0.1c0.5,0,1.2,0.1,1.2-0.7
			c0-0.7-0.7-0.4-1.1-0.5c-0.6,0-1.3,0.2-2-0.2c0.9-1.2,1.8-2.3,2.7-3.4c0.2-0.3,0.6-0.6,0.2-1c-0.5-0.4-0.8,0-1.1,0.3
			c-1.6,1.9-3.2,3.7-4.7,5.6c-0.6,0.7-1.1,0.9-2,0.3c-5.1-3.5-10.9-4.7-16.9-5.2c-8.8-0.7-17.8-1-26.3-3.6c-1.8-0.5-3.5-1.2-5.3-1.7
			c-0.6-0.6-0.5-1.4-0.5-2.2c-0.1-0.7,0.1-1.4-0.6-2c-8.6-5.8-17.2-11.6-25.8-17.3c0.1-1,0.9-0.6,1.5-0.7c0.8,0.2,1.4,0.7,2.1,1.1
			c6.6,4.4,13.2,8.7,19.7,13.2c2.1,1.5,4.1,2,6.7,1.6c7.7-1.2,15.5-2.4,23-4.5c5-1.4,9.5-3.8,13.9-6.4c3.1-1.8,4.5-5.3,1.4-8.7
			c-1.1-1.2-2.3-2-4.1-1.3c-0.6,0.2-1.2,0.4-1.8,0.2c-1.2-0.3-2.3-0.8-3.3,0.3c-1.4,1.4-3,2.7-3,5c0,0.9-0.1,1.7,0,2.6
			c0.2,1.3-0.5,1.7-1.6,1.6c-6-0.3-11.9-0.7-17.8-1.2c-0.5,0-1.1-0.2-1.6-0.1c-3.8,0.5-6.7-1.1-9-4c-3.5-4.4-7.9-7.9-11.4-12.2
			c-0.2-0.3-0.5-0.6-0.7-1c-0.2-0.6,0-1.1,0.6-1.3c3.1,3.3,6.3,6.5,9.4,9.8c0.5,0.5,0.9,1.3,1.9,1.2c1.3-0.6,2.6-0.4,3.9-0.3
			c2.3,0.1,4.3-0.5,6.3-1.5c2.2-1.2,4.5-2.3,6.6-3.7c2.4-1.6,4.8-2,7.5-0.9c0.9,0.4,1.9,0.6,2.9,0.9c1.5,0.4,3.1,0.6,4.1,2.1
			c0.4,0.7,1.1,0.6,1.8,0.3c1-0.5,2-0.5,3.1-0.1c0.7,0.3,1.4,0.2,2.1,0c1.7-0.6,3.1,0,4.4,1c4.5,3.4,4.5,10.1-0.4,13
			c-3.7,2.2-7.5,4.5-11.7,5.9c-1.3,0.3-2.4,1.1-3.3,1c3.6,1,7.5,2.6,11.5,3.9c0.7,1.6,1.4,0.3,2-0.1c4.1-2.8,8.2-5.6,12.4-8.5
			C139.9,239.5,141.2,242.2,143.6,244.2z"/>
		<path d="M56.5,160c0.6,0.8,1.1,1.7,1.8,2.3c1.1,1.1,0.8,2.1-0.3,2.6c-1.1,0.5-0.8,1-0.6,1.7c0.1,0.4,0.3,0.9,0.1,1.1
			c-1.3,1.6-1.1,3.7-1.7,5.5c-0.7,2.2-2.7,2.8-4.7,3c-2.6,0.2-4.7-0.6-6.1-2.9c-1.6-2.7-1.9-5.6-1.4-8.7c0.4-2.6,1-5.2,1.2-7.9
			c0.2-2.9-0.8-5.5-2.7-7.7c-0.8-0.9-1.7-1.6-3-1c-1.1,0.5-1.3,1.6-1.3,2.7c0,1.9,0.6,3.7,1.6,5.2c0.5,0.8,0.5,1.4,0.1,2.2
			c-0.7,1.5-1.4,2.9-2.3,4.2c-3.2,4.6-6.6,5.9-12,4.5c-0.5,0.3-0.8-0.2-1.1-0.4c-3.8-2.1-6.6-5.1-7.4-9.5c-0.2-0.8-0.5-0.7-1.1-0.7
			c-1.5-0.1-2.1-0.8-1.7-2.4c0.3-1.1,0.5-2.2,0.6-3.3c0.1-1.2,0.7-2.9-1.7-2.7c-0.7,0.1-1.8-0.7-0.8-1.7c1.6-1.6,2-3.6,2.2-5.8
			c0.2-3,0.7-5.9,2.1-8.6c1.1-2.2,2.7-4,5.4-4.1c0.7,0,1-0.5,1.4-1c2.2-2.8,5.2-3.8,8.5-2.7c4.4,1.4,8.7,2.2,13.3,1.4
			c1.6-0.3,2.7,0.9,3.8,1.9c2.4,2.2,4.8,4.2,8,4.9c0.6,0.1,1.2,0.2,1.7,0.4c0.7,0.2,1.8-0.3,2,0.7c0.3,1.2-0.5,1.8-1.7,2.1
			c0.3,0.3,0.6,0.5,0.7,0.8c0.4,0.6,1.8,0,1.5,1.3c-0.3,1.3-1,2.3-2.5,2.5c-1.2,0.1-2.4,0.1-3.6,0.1c-1-1-1,0-1.1,0.6
			c-0.6,0.8-0.7,1.8-1,2.8c-0.6,2.4-1.6,3-4,2.6c-1.2-0.2-2.5-1.1-3.8-0.2c-1.2,0.3-2.3,0-3.3-0.3c1.2,2.1,3.6,2.6,5.6,3.9
			c0.2,2.6,1.3,4.8,3.1,6.6c1,1.1,1.6,2.4,2.3,3.7c0.5,1,1.1,1.7,2.1,0.4c0.4-0.5,0.9-0.8,1.6-0.6c0.1,0.1,0.2,0.2,0.1,0.3
			C56.5,159.9,56.5,160,56.5,160z"/>
		<path class="st2" d="M215.1,201.1c-16,0-32,0-48,0.1c-1.3,0-1.5-0.5-1.6-1.6c-0.2-3.6,0.4-7.1,1.6-10.5c0.6-1.5,0.5-2.9-0.8-4
			c-0.6-0.6-0.9-1.3-0.8-2.1c0-3.5,0-7,0.1-10.6c0.7-0.6,1.6-0.5,2.5-0.5c13.4,0,26.8,0,40.2,0c4.7,0,7.2,2.5,7.2,7.2
			c0,6.5,0,13,0,19.5C215.6,199.4,215.7,200.3,215.1,201.1z"/>
		<path class="st2" d="M144.8,103.6c0,8,0,15.9,0.1,23.9c0,1.7-1.1,1.4-2,1.4c-10.5,0-21,0-31.4,0c-3.6,0-7.3-0.4-10.9,0.3
			c-0.2,0-0.5-0.2-0.7-0.3c0,0,0.1-0.1,0.1-0.1c0.7-0.6,0.5-1.5,0.5-2.2c0-5.1,0-10.2,0-15.3c0-1.1,0.1-2.1,0.3-3.1
			c0.8-3.1,2.9-4.9,6.1-4.9c12,0,24,0,36,0C143.6,103.2,144.2,103.2,144.8,103.6z"/>
		<path class="st2" d="M99.9,149.6c1.3-0.9,2.5,0.1,3.8,0.1c12.9-0.1,25.9,0,38.8-0.1c1.9,0,2.5,0.4,2.5,2.4
			c-0.1,6.4-0.1,12.9-0.1,19.3c-0.8,0.6-1.8,0.4-2.7,0.4c-11.4,0-22.8,0-34.2,0c-5,0-7.4-2.4-7.5-7.5c-0.1-4.1,0-8.2,0-12.3
			c0-0.8,0.2-1.6-0.5-2.2L99.9,149.6z"/>
		<path class="st2" d="M143.3,61.9c0,1-0.1,2,0,3c0.2,1.8-0.6,2.2-2.3,2.2c-34.2,0-68.5,0-102.7,0c-1.8,0-2.2-0.5-2.2-2.2
			c0.1-18.6,0.1-37.2,0-55.9c0-1.7,0.4-2.4,2.2-2.3c2.6,0.1,2.6,0,2.7-2.7c0-1.2-0.3-2.4,0.2-3.5c0.1,0,0.2,0,0.2-0.1
			c0.8,0.9,0.6,2,0.6,3.1c0,18.3,0,36.5,0,54.8c0,0.9-0.2,1.7,0.2,2.5c0.9,0.8,2,0.5,3.1,0.5c31.6,0,63.1,0,94.7,0
			C141.1,61.3,142.3,60.9,143.3,61.9z"/>
		<path class="st2" d="M262.8,134.1c0,5.2,0,5.2-5.2,5.2c-33,0-66.1,0-99.1,0c-2.8,0-2.8,0-2.8-2.7c0-18.4,0-36.8,0-55.2
			c0-2.7,0-2.7,2.7-2.7c0.8,0,1.6,0,2.4,0c1,0.8,0.7,2,0.7,3c0,16.4,0,32.8,0,49.2c0,2.6,0,2.6,2.6,2.6c31.8,0,63.7,0,95.5,0
			C260.7,133.5,261.9,133.2,262.8,134.1z"/>
		<path class="st2" d="M262.8,61.9c0,0.9-0.1,1.9,0,2.8c0.3,2-0.6,2.4-2.5,2.4c-34.1-0.1-68.2-0.1-102.4,0c-1.9,0-2.4-0.6-2.4-2.5
			c0.1-18.4,0-36.8,0-55.3c0-2.6,0-2.6,2.6-2.6c0.9,0,1.7,0.2,2.5-0.4c1,0.8,0.6,2,0.6,3c0,16.2,0,32.4,0,48.7
			c0,0.9-0.2,1.9,0.3,2.7c0.9,0.8,2,0.5,3.1,0.5c31.6,0,63.1,0,94.7,0C260.5,61.3,261.8,60.9,262.8,61.9z"/>
		<path class="st3" d="M154.6,320.1c0.7,3.6-1.5,4.9-4.4,6c-7.9,2.7-15.9,5-24.2,6.2c-2.7,0.4-5.4,0.4-8-0.6
			c-1.6-0.6-2.6-1.5-2.7-3.4c-0.2-2.9-0.1-5.7-0.2-8.6c0.6-1.9,0.4-3.9,1.1-5.8c0.4-1.1,0.8-1.7,2.1-1.5c1.7,0.3,3.4,0.4,5.1,0.7
			c1.6,0.3,3,1,3.5,2.8c0.3,1.1,1.3,1.5,2.3,1.4c3.5-0.1,6.4-1.3,8.3-4.5c0.1-0.5,0.3-0.9,0.7-1.2c1.2-2,1.2-2,2.9-0.4
			c1.9,1.7,4.2,2.9,6.7,3.7C150.6,315.8,153.1,317.3,154.6,320.1z"/>
		<path class="st3" d="M112.5,218.7c-0.3,0-0.6,0-0.8-0.1c-4-2-7.7-1.5-11.3,1.3c-0.8,0.6-1.9,1-2.7,1.6c-3.8,2.5-8,3-12.4,2.3
			c2.2-7.5,2.7-7.9,10.4-8.6c5.8-0.6,11.6-0.6,17.4,0.8c1.7,0.4,2.8-0.4,3.4-2.5c2.7-9.1,5.4-18.1,8-27.3c0.5-1.7,1.2-2.2,3-2.1
			c11.7,1,23.4,1.9,35.1,2.8c2,0.2,2.7,1.1,2.1,3c-3.2,11-6.4,22-9.6,33c-0.3,1.1-0.9,1.8-1.9,2.4c-9.7,6.7-19.4,13.4-29.1,20.1
			c-0.4,0.1-0.9,0.2-1.4,0c-3.7-1.3-7.3-2.5-11.4-3.9c1.7-0.6,2.9-1,4.2-1.4c2.1,0.2,4,1.1,5.9,1.7c1.1,0.4,2.2,0.4,3.2-0.3
			c8.3-5.5,16.6-11,24.8-16.6c0.2-0.1,0.3-0.2,0.3-0.6c-4.7-1.2-9.5-2.2-14.3-3.3c-5.4-1.2-10.7-2.4-16.1-3.7
			c-1.9-0.5-3.6-0.5-5.2,0.8C113.8,218.3,113.2,218.5,112.5,218.7z"/>
		<path class="st2" d="M143.3,134.1c0,5.2,0,5.2-5.2,5.2c-23.7,0-47.4,0-71.1,0c-2.8,0-2.8,0-2.5-2.7c0.1-0.9,0.3-1.7,0.4-2.5
			c0.7-0.6,1.5-0.5,2.3-0.5c24.6,0,49.2,0,73.7,0C141.7,133.5,142.6,133.4,143.3,134.1z"/>
		<path class="st4" d="M262.8,134.1c-0.8,0-1.6-0.1-2.4-0.1c-32.4,0-64.9,0-97.3,0c-2,0-2.3-0.6-2.3-2.4c0.1-16.9,0-33.9,0-50.8
			c0-0.7,0-1.5-0.1-2.2c0-1.7,0.1-3.5,0.1-5.2c0-0.8,0.3-1.2,1.1-1.1c0.3,0,0.7,0,1,0c34.7,0,69.4,0,104.1,0c1.9,0,2.2,0.6,2.2,2.3
			c-0.1,19-0.1,38,0,57c0,2.1-0.6,2.6-2.5,2.4C265.5,133.9,264.1,134.1,262.8,134.1z"/>
		<path class="st4" d="M143.3,134.1c-0.8,0-1.6-0.1-2.4-0.1c-25.3,0-50.7,0-76,0c0-0.6-0.7-0.5-1-1.1c0.8,0,1.5,0,2.2,0
			c26.8,0,53.6,0,80.4,0c1.8,0,2.2-0.5,2.2-2.2c-0.1-18.4-0.1-36.8,0-55.2c0-1.6-0.4-2.1-2-2.1c-34,0.1-68.1,0.1-102.1,0
			c-1.6,0-2.1,0.3-2.1,2c0.1,15,0,29.9,0,44.9c0,0.8,0.2,1.8-0.9,2.1c-0.9-0.7-0.8-1.6-0.8-2.5c0-13-0.2-26.1,0.1-39.1
			c0.1-2.8,0-5.6,0.6-8.4c35.4,0,70.8,0,106.1,0c1.9,0,2.3,0.5,2.2,2.3c-0.1,19.1-0.1,38.3,0,57.4c0,1.7-0.4,2.2-2.1,2
			C146.2,133.9,144.8,134.1,143.3,134.1z"/>
		<path class="st5" d="M79.8,300.6c0,5.5,0,10.9,0,16.4c0,1.3,0.4,1.9,1.5,2.4c7.2,3.3,14.3,6.6,21.4,10c0.5,0.2,1,0.4,1.4,0.7
			c0.7,0.4,0.9,1,0.6,1.7c-0.3,0.8-0.9,1-1.6,0.8c-1.3-0.4-2.5-0.9-3.7-1.4c-6.7-2.6-13.4-5.2-20.1-7.9c-1.1-0.4-2-0.5-3.2,0
			c-6.9,3-13.9,5.9-20.8,8.8c-0.9,0.4-1.7,0.7-2.7,0.6c-0.7-0.1-1.1-0.4-1.3-1c-0.1-0.6,0.1-1.2,0.7-1.5c0.5-0.3,0.9-0.5,1.4-0.7
			c7-3.4,13.9-6.8,20.9-10c1.4-0.7,1.8-1.5,1.8-3c-0.1-10.6,0-21.3,0-31.9c0-1-0.3-2.1,1.4-1.8c1.2,0.2,2.4-0.4,2.4,1.8
			C79.7,289.6,79.8,295.1,79.8,300.6z"/>
		<path class="st4" d="M41.4,61.5c0-2.1-0.1-4.3-0.1-6.4c0-17.6,0-35.1,0-52.7c0-0.7,0-1.3,0.1-2c36.1,0,72.2,0,108.3,0
			c0,5.5,0.1,10.9,0.1,16.4c0,14.2,0,28.3,0,42.5c0,0.7-0.1,1.5-0.1,2.2c-0.7,0.4-1.4,0.2-2.1,0.2c-34.7,0-69.3,0-104,0
			C42.8,61.7,42.1,61.8,41.4,61.5z"/>
		<path class="st6" d="M160.9,61.5c0-5.6-0.1-11.2-0.1-16.8c0-12.8,0-25.5-0.1-38.3c0-2,0.1-4,0.1-6c25.1,0,50.3,0,75.4,0
			c10.9,0,21.9,0,32.8,0c0,0.7,0.1,1.5,0.1,2.2c0,18.8,0,37.7,0,56.5c0,0.8-0.1,1.6-0.1,2.4c-0.7,0.4-1.4,0.2-2.1,0.2
			c-34.7,0-69.3,0-104,0C162.3,61.7,161.6,61.8,160.9,61.5z"/>
		<path class="st7" d="M162.3,205.6c0.4,1.1,1.4,0.6,2,0.6c13.2,0,26.4,0.1,39.6,0c2,0,2.6,0.5,2.3,2.4c-0.1,1-0.1,2-0.1,3
			c-14.4,0-28.8,0-43.2,0c-1.8,0-2.4-0.4-1.7-2.2C161.7,208.1,162,206.8,162.3,205.6z"/>
		<path class="st8" d="M41.4,72.3c0,2.7-0.1,5.3-0.1,8c0,13.3,0,26.5,0,39.8c0,0.8-0.1,1.6,0.2,2.4c-0.2,0-0.4,0.1-0.6,0.1
			c-4.4,0.2-4.7-0.1-4.7-4.4c0-12.3,0-24.7,0-37c0-1.9,0.5-2.8,2.4-2.4c2.1,0.4,2.6-0.6,2.5-2.5C40.9,74.9,40.5,73.5,41.4,72.3z"/>
		<path class="st7" d="M224.6,211.5c-0.3-5.3-0.3-5.3,5-5.3c10.3,0,20.7,0,31,0c0.7,0,1.4,0.1,2.2,0.1c0,5.2,0,5.2-5.1,5.2
			C246.7,211.5,235.6,211.5,224.6,211.5z"/>
		<path class="st2" d="M160.7,150.8c0,10.8,0,21.6,0,32.3c-5.1-0.1-5.1-0.1-5.1-5.2c0-8.3,0.1-16.6,0-24.9c0-1.9,0.6-2.5,2.4-2.3
			C158.9,150.9,159.8,150.8,160.7,150.8z"/>
		<path class="st0" d="M74.4,206.3c-0.3-0.3-0.8-0.4-0.9-1c0.4-0.4,0.9-0.2,1.3-0.2c13,0,26,0,39,0c0.5,0,2.3-0.8,1.2,1.1
			c-0.5,0.6-1.3,0.6-2,0.7c-1,0-2,0-3,0c-1.2,0-2.6-0.4-3.7,0.3c-1.3,0.7-0.5,2.2-0.8,3.3c-0.1,0.4-0.3,0.7-0.6,1
			c-6.1-0.1-12.1,0.1-18,2.1c-0.5-0.6-0.1-1.4-0.3-2c-0.6-0.7-0.6-1.6-0.5-2.4c0.1-1.7-0.7-2.2-2.3-2.1c-2.2,0.1-4.5,0-6.7,0
			C76.2,206.9,75.2,206.9,74.4,206.3z"/>
		<path class="st9" d="M59,144.5c0.7,0,1.3,0,2,0c28.9,0,57.7,0,86.6,0c1.9,0,2.2,0.5,2.2,2.3c-0.1,11.2,0,22.5,0,33.7
			c0,0.5,0,0.9,0,1.4c0,0.3,0,0.5-0.4,0.6c-0.4,0-0.7-0.1-0.7-0.5c0-0.5,0-1.1,0-1.6c0-10.9,0-21.8,0-32.7c0-1.6-0.4-1.9-2-1.9
			c-27.8,0-55.6,0-83.4,0C61.8,145.7,60.3,145.5,59,144.5z"/>
		<path class="st10" d="M60.7,228.1c-0.4,0.1-1,0-1.3,0.4c-2,0.8-3.5,0-5.1-1.1c-3-2-5.7-4.4-8.5-6.6c-1.1-0.9-2.1-1.9-3.7-1.4
			c-0.2,0.1-0.6-0.1-0.7-0.2c-0.2-0.3,0.1-0.6,0.4-0.8c0.9-0.4,1.8-0.4,2.7,0.1c1.1,0.7,2.2,1.5,3.2,2.3c2.3,1.9,4.7,3.8,7.2,5.6
			c1.7,1.3,3.3,1.3,5.1,0.5c6.8-2.8,10.3-8.4,12.9-14.9c0.2-0.6,0-1-0.4-1.4c-3.7-3.4-6.4-7.7-8.9-11.9c-2.9-4.8-6.8-7.9-12-9.8
			c-7.8-2.9-15.7-5.6-24-6.7c-0.5-0.1-1.3,0-1.2-0.7c0.1-0.7,0.8-0.5,1.3-0.5c3.2,0.4,6.4,1.1,9.5,1.9c5.9,1.6,11.6,3.6,17.2,5.9
			c3.8,1.6,6.8,4.1,9,7.5c1.6,2.6,3.4,5.1,5.1,7.6c1.4,2,2.8,4,4.7,5.6c1,0.9,1.3,1.7,0.9,2.9c-0.1,0.4-0.3,0.8-0.4,1.2
			c-0.1,2.1-1.3,3.7-2.3,5.4c-2.1,3.4-4.7,6.3-8.3,8.2C62.2,227.9,61.5,228.2,60.7,228.1z"/>
		<path class="st11" d="M215.1,201.1c0-7.4,0-14.8,0-22.1c0-4.3-2.2-6.5-6.5-6.5c-13.5,0-27.1,0-40.6,0c-0.8,0-1.6-0.1-2.4-0.1
			c0-0.2,0-0.5,0-0.7c0.6-0.6,1.4-0.3,2.1-0.3c13.6,0,27.2,0,40.8,0c5.1,0,7.7,2.6,7.7,7.7c0,7.4,0,14.8-0.1,22.1
			C215.9,201.1,215.5,201.1,215.1,201.1z"/>
		<path class="st12" d="M144.8,103.6c-12.1,0-24.3,0-36.4,0.1c-5.4,0-7.2,1.9-7.2,7.3c0,5.5,0,11,0,16.5c0,0.8,0.2,1.8-1.2,1.3
			c0-5.9,0.2-11.8,0-17.7c-0.2-5.5,2.8-8.8,8.5-8.7c11.4,0.2,22.8,0.1,34.2,0.1c0.7,0,1.5,0.1,2.2,0.1
			C144.8,103,144.8,103.3,144.8,103.6z"/>
		<path class="st11" d="M100,149.7c1.4-0.6,1.2,0.5,1.2,1.2c0,4.5,0,9,0,13.6c0,4.7,2.1,6.8,6.8,6.8c12.3,0,24.5,0,36.8,0.1
			c0,0.3,0,0.7,0,1c-8.9,0-17.7,0.1-26.6,0.1c-3.6,0-7.3,0-10.9,0c-4.4,0-7.2-2.7-7.3-7.2C100,160.1,100,154.9,100,149.7z"/>
		<path class="st4" d="M11.2,208.8"/>
		<path class="st4" d="M9.5,203.5c-0.3-0.7-0.3-1.5-0.5-2.3c-1.5-6.9,1.2-12.4,5.7-17.4c1.7-1.8,3.5-3.6,5.1-5.5
			c3-3.4,4.5-7.3,4.3-11.8c0.4,0.1,0.7,0.3,1.1,0.4c0.1,4.8-1.6,8.8-4.7,12.3c-1.4,1.6-2.8,3.2-4.3,4.7c-6.1,5.7-7.7,12.6-5.4,20.5
			c1,3.6,2,7.3,3.2,10.8c0.1,0.4,1,1.1,0,1.4c-0.9,0.3-0.9-0.6-1-1.1"/>
		<path class="st0" d="M47.2,149.7c-2.4-0.7-4.5-1.9-6-4.2c1.2-0.6,2.3,0.1,3.5,0.1c0.6-0.4,1.3-0.2,1.9,0c2.7,0.7,5.5,1,8.3,1.6
			c0.5,0.1,0.9,0.2,1.1,0.7c3.7,1,3.8,1.1,2.6,5c-0.3,0.9-0.7,1.8-1.1,2.7c0,0.6-0.3,0.9-0.6,1.3c-0.4,0.3-0.7,0.5-1.2,0.7
			c-0.5,0.1-0.9,0-1.2-0.4c-0.3-0.5,0-0.9,0.3-1.2c1-0.8,1.7-1.8,2.1-3.1c0.6-2,0.6-2.1-1.5-2.1c-0.4,0-0.9,0-1.3,0
			c-1.6-0.3-3.1-0.4-4.7-0.3C48.7,150.3,47.9,150.2,47.2,149.7z"/>
		<path class="st7" d="M74.4,206.3c3.8,0,7.5,0,11.3-0.1c0.9,0,1.1,0.4,1.1,1.2c-0.1,1.4-0.1,2.8-0.1,4.2c-2.4,0-4.8,0-7.1,0
			c-0.9,0-1.6,0-1.6-1.2c0-1.2-1.2-1.4-1.9-2.1C75.5,207.6,75,206.9,74.4,206.3z"/>
		<path class="st7" d="M105,211.4c0-1.3,0.1-2.6,0.1-3.9c0-1,0.3-1.4,1.3-1.3c2.9,0.1,5.8,0.1,8.7,0.1c-0.6,5.1-0.8,5.3-5.7,5.3
			C107.8,211.5,106.4,211.5,105,211.4z"/>
		<path class="st13" d="M160.9,61.5c36.1,0,72.2,0,108.3,0c-2.1,0.9-4.3,0-6.4,0.5c-0.8,0-1.6-0.1-2.4-0.1c-32.5,0-64.9,0-97.4,0
			C162.3,61.8,161.5,62.2,160.9,61.5z"/>
		<path class="st14" d="M269.1,144.9c-36.1,0-72.2,0-108.3,0c0.4-0.8,1.2-0.4,1.8-0.4c34.9,0,69.8,0,104.7,0
			C268,144.5,268.7,144.1,269.1,144.9z"/>
		<path class="st13" d="M41.4,61.5c36.1,0,72.2,0,108.3,0c-2.1,0.9-4.2,0.1-6.3,0.5c-0.8,0-1.6-0.1-2.4-0.1c-32.5,0-64.9,0-97.4,0
			C42.8,61.8,42,62.2,41.4,61.5z"/>
		<path class="st14" d="M162,145.7c0.6-0.7,1.4-0.4,2.1-0.4c33.9,0,67.9,0,101.8,0c0.7,0,1.5-0.3,2.1,0.4
			C232.7,145.7,197.3,145.7,162,145.7z"/>
		<path class="st15" d="M14.2,204.1c0-0.3,0-0.7,0.4-0.8c0.6-0.1,0.7,0.5,0.8,0.9c0.9,2.8,1.7,5.7,2.5,8.5c0.3,0.9,0.6,1.7,0.9,2.6
			c0.1,0.3,0.3,0.7-0.1,0.8c-0.4,0.2-0.8,0.1-0.9-0.4c-0.1-0.3-0.3-0.6-0.4-0.9c-1-3.3-2.1-6.5-3.1-9.8
			C14.2,204.8,14.2,204.4,14.2,204.1z"/>
		<path class="st14" d="M161.6,183.2c0-11.9,0-23.8,0-35.7c0-0.6-0.2-1.3,0.4-1.9c0,11.8,0,23.6-0.1,35.5
			C161.9,181.8,162.3,182.6,161.6,183.2z"/>
		<path class="st16" d="M56.1,147.8c-0.4-0.1-0.7-0.1-1.1-0.2c-0.7-2.3-1.4-4.6-1.4-7c0-0.2,0-0.4,0-0.6c-0.1-0.5-0.7-1.2,0.2-1.4
			c0.7-0.2,0.6,0.7,0.8,1c0.1,0.2,0.2,0.3,0.3,0.5C55.2,142.7,56.6,145.1,56.1,147.8z"/>
		<path class="st17" d="M56.9,156.3c0.2-0.3,0.5-0.6,0.7-0.9c2.2,2.4,2,3.4-1.2,4.5c0,0-0.1-0.1-0.1-0.1l0.1-0.1
			c-0.3-0.3-0.3-0.7-0.1-0.9C57.3,158.1,57.2,157.3,56.9,156.3z"/>
		<path class="st18" d="M138.1,311.6c-0.1,0.5-0.3,0.9-0.7,1.2c-0.8-1.1-1.3-2.5-1.4-3.9c-0.1-0.5-0.2-1.2,0.5-1.3
			c0.7-0.1,0.5,0.6,0.6,1C137.3,309.6,137.3,310.7,138.1,311.6z"/>
		<path class="st19" d="M12.5,196.1c0-0.7-0.1-1.2,0.4-1.3c0.7-0.1,0.6,0.5,0.7,0.9c0.2,0.9,0.3,1.8,0.5,2.7c0.1,0.4,0.1,0.8-0.4,1
			c-0.5,0.2-0.6-0.3-0.7-0.7C12.8,197.7,12.6,196.8,12.5,196.1z"/>
		<path class="st20" d="M85.2,245.9c0.8-0.2,1.2,0.1,1.2,1c0,1.1,0,2.1-0.1,3.2c-0.7-0.1-1.1-0.4-1.1-1.3
			C85.4,247.8,85.3,246.9,85.2,245.9z"/>
		<path class="st21" d="M245.4,233.7c-20.3,0-40.4,0-60.5,0C198.6,220,228.9,218.4,245.4,233.7z"/>
		<path class="st2" d="M150.7,246.6c-1.3-0.2-2.1-0.2-2.9-0.4c-3.1-0.6-4.1-3.4-2-5.8c1-1.3,2.5-2,4-2.5c2.3-0.8,4.5-1.5,6.8-2
			c4-0.9,7.4-2.7,10.4-5.5c2.5-2.3,5.1-4.4,7.7-6.6c1.5-1.3,3.2-2.4,5.1-3c2.1-0.7,3.6,0.2,4.2,2.4c0.4,1.6,0.1,3-0.4,4.5
			c-0.8,2.2-2,4-3.6,5.6C171.7,241.6,161.3,244.9,150.7,246.6z"/>
		<path class="st21" d="M60.7,228.1c6.4-2.9,10-8.2,12.9-14.3c4.9,5.1,9.8,10.1,14.6,15.2c0.8,0.9,1.7,1.3,2.9,1.4
			c7.7,0.5,15.3,1,23,1.5c1,0.1,1.6,0.3,0.8-1.3c-1.1-2.3,2-7.9,4.5-8.9c0.2-0.1,0.5-0.2,0.6-0.1c1.7,1.5,3.4,0.5,5.2,0.1
			c0.6-0.1,1.1,0.4,1.6,0.8c4.4,3.6,4.5,7.8-0.5,10.9c-6.8,4.3-14.3,7.1-22.3,8.4c-5.4,0.9-10.7,1.8-16.1,2.7
			c-1.5,0.3-2.8,0-4.1-0.9C76.2,238.4,68.4,233.3,60.7,228.1z"/>
		<path class="st21" d="M112.5,218.7c1.1-0.8,2.3-1.6,3.4-2.4c0.5-0.3,0.9-0.3,1.5-0.2c11.2,2.6,22.5,5.2,33.7,7.8
			c0.1,0.7-0.5,0.8-0.8,1c-8.5,5.7-17.1,11.4-25.6,17.2c-0.9,0.6-1.7,0.8-2.7,0.3c-2.1-0.9-4.3-1.3-6.3-2.4c4.2-1.4,8-3.8,11.9-5.9
			c2.4-1.3,3.4-3.8,3.7-6.3c0.5-3.8-4.5-7.7-8.1-6.6c-0.5,0.2-1,0.5-1.5,0.1c-1.3-1.1-2.6-0.8-3.7,0.3c-0.4,0.4-0.8,0.6-1.1,0
			C116,219.7,114.3,219.1,112.5,218.7z"/>
		<path class="st21" d="M106.8,224.2c0.6-2.1,2-2.4,3.8-2.1c0.5,0.1,1.4,0.3,1.5-0.5c0-0.8-0.9-0.6-1.4-0.6c-1.5,0-2.9,0-4.4,0
			c-0.5,0-1.4,0.5-0.8,0.8c1.3,0.7,0.4,1.2,0.2,1.9c-0.5,1.3,0.4,1.7,1.5,1.6c1-0.1,2.1-0.5,3.1-0.6c0.9-0.1,1.8-0.2,2.7,0.4
			c-3.3,1-5.7,3.4-8.7,5c-0.7,0.4-1.4,0.1-2.2,0.1c-2.9-0.2-5.8-0.6-8.7-0.6c-2.5,0-4.4-0.6-5.8-2.7c-0.4-0.6-1-1-1.5-1.6
			c0.2-0.2,0.3-0.3,0.4-0.3c5.2,0.9,9.7-1,13.8-3.8c3.8-2.7,7.5-3.4,11.8-1.4c1.5,0.7,3.1,0.9,4,2.6c0.7,1.3-0.5,1.6-1,2.3
			c-0.7,1-0.9-0.1-1.2-0.4c-1.1-0.9-2.4-0.8-3.6-0.7C109.2,223.7,108.1,224,106.8,224.2z"/>
		<path class="st22" d="M106.7,230.2c1.9-2.1,4.4-3,6.9-3.9c0.1,0.1,0.2,0.2,0.2,0.3c0.1,4.3,0.1,4.3-4.1,4.1
			C108.7,230.6,107.7,230.7,106.7,230.2z"/>
		<path class="st23" d="M56.9,156.3c0.8,0.9,2,1.8-0.2,2.5c-0.4,0.1-0.2,0.6-0.3,0.9c-0.6,0.3-1.3,0.4-1.6,1.1c-1,2-1.8,0.9-2.3-0.2
			c-1-2.2-2.4-4.1-3.9-5.9c-1.2-1.4-1.8-3.1-1.4-5c2.5-0.1,4.9-0.1,7.3,0.4c0.6,0.7,0.3,1.6,0.5,2.5c0.2-0.8-0.1-1.8,0.7-2.4
			c2.6,0,2.6,0,1.8,2.5c-0.4,1.3-1,2.5-2.1,3.3c-0.4,0.3-1.2,0.4-0.7,1.1c0.4,0.5,0.8,0.1,1.2-0.1C56.3,156.7,56.6,156.5,56.9,156.3
			z"/>
		<path class="st24" d="M53.7,140.6c0.7,2.3,1.6,4.6,1.4,7c-3.4-0.7-6.8-1.3-10.3-2c0-0.9,0.7-0.8,1.3-0.7c1,0.2,1.9,0.4,2.9,0.6
			c2.4,0.5,3.3-0.1,3.5-2.6C52.5,141.9,52.5,141,53.7,140.6z"/>
		<path class="st25" d="M39.1,134.3c-0.7,3-0.9,3.1-3.5,1.5c-0.9-0.6-1.7-1.3-2.5-1.9c-0.2-0.2-0.4-0.6-0.1-0.9
			c0.3-0.3,0.6-0.1,0.9,0.1c0.5,0.4,1,0.9,1.5,1.3c1,0.7,2.1,1.9,2.7-0.5c0.3-0.9,1.1-1.6,2.1-0.4c0.5,0.6,1.2,0.8,1.9,0.9
			c0.3,0,0.7,0.1,0.7,0.5c0,0.5-0.5,0.5-0.9,0.6C40.9,135.6,40.1,134.9,39.1,134.3z"/>
		<path class="st26" d="M208.4,183.2c-2.2,0-4-1.9-4-4c0-2.2,1.9-4,4.1-4c2.2,0,4,1.9,4,4C212.5,181.4,210.6,183.2,208.4,183.2z"/>
		<path class="st27" d="M111.9,110.1c0,2.2-1.9,4-4.1,4c-2.2-0.1-4-2-4-4.1c0-2.2,1.9-4,4.1-3.9C110.3,106,112,107.8,111.9,110.1z"
			/>
		<path class="st26" d="M111.9,164.6c0,2.3-1.8,4-4,4c-2.2,0-4-1.9-4-4c0-2.2,1.9-4,4.1-4C110.2,160.5,112,162.3,111.9,164.6z"/>
		<path class="st28" d="M153.2,321.8c0.6,1.4-0.3,1.8-1.2,2.2c-5.4,2.3-11,3.8-16.6,5.2c-4.5,1.1-9,2.3-13.7,2
			c-1.3-0.1-2.5-0.3-3.6-0.9c-0.7-0.3-1.5-0.6-1.4-1.8c6.9,2.9,13.5,0.4,20.1-1.2C142.3,326,147.8,324.2,153.2,321.8z"/>
		<path class="st21" d="M162.9,188.2c-2.9,9.8-5.8,19.7-8.6,29.5c-0.5,1.7-0.6,4.1-1.7,4.9c-1.2,0.9-3.4-0.4-5.1-0.8
			c-9.6-2.2-19.1-4.4-28.6-6.6c-1.2-0.3-1.5-0.5-1.1-1.8c2.7-8.9,5.4-17.9,8-26.9c0.3-1,0.6-1.5,1.7-1.4c11.7,1,23.4,1.9,35.1,2.8
			C162.6,188,162.7,188.1,162.9,188.2z"/>
		<path class="st21" d="M215.2,73.5c17,0,34,0,51,0c1.5,0,2,0.3,2,1.9c-0.1,18.6-0.1,37.1,0,55.7c0,1.4-0.3,1.9-1.8,1.9
			c-34.2-0.1-68.4,0-102.6,0c-1.4,0-1.9-0.3-1.9-1.8c0.1-18.6,0.1-37.2,0-55.9c0-1.6,0.5-1.8,1.9-1.8
			C181,73.5,198.1,73.5,215.2,73.5z"/>
		<path class="st21" d="M42.5,60.7c0-0.7-0.1-1.3-0.1-2c0-18.4,0-36.8,0-55.2c0-1.7,0.4-2.2,2.2-2.2c34,0.1,68,0.1,101.9,0
			c1.8,0,2.2,0.5,2.2,2.2c-0.1,18.5,0,37,0,55.4c0,0.6-0.1,1.2-0.1,1.8c-0.7,0.4-1.4,0.2-2.2,0.2c-33.9,0-67.8,0-101.6,0
			C44,60.9,43.2,61,42.5,60.7z"/>
		<path class="st13" d="M42.5,60.7c35.3,0,70.6,0,106,0c-0.6,0.6-1.4,0.4-2.1,0.4c-33.9,0-67.9,0-101.8,0
			C43.9,61.1,43.1,61.3,42.5,60.7z"/>
		<path class="st21" d="M162.1,1.3c16.9,0,33.8,0,50.8,0c17.7,0,35.3,0,53,0c1.7,0,2.4,0.3,2.4,2.2c-0.1,18.4,0,36.8-0.1,55.2
			c0,0.7-0.1,1.3-0.2,2c-0.7,0.3-1.4,0.2-2.2,0.2c-33.9,0-67.8,0-101.6,0c-0.7,0-1.5,0.2-2.1-0.2l0,0c-0.4-0.6-0.2-1.3-0.2-1.9
			c0-18.5,0-37.1,0-55.6C161.8,2.5,161.6,1.8,162.1,1.3z"/>
		<path class="st13" d="M162,60.7c35.3,0,70.6,0,105.9,0c-0.6,0.6-1.4,0.4-2.1,0.4c-33.9,0-67.9,0-101.8,0
			C163.4,61.1,162.6,61.3,162,60.7z"/>
		<path class="st13" d="M162.1,1.3c-0.1,0.5-0.2,1.1-0.2,1.6c0,18.9,0,37.9,0,56.8c0,0.3,0,0.7,0.1,1c-0.7-0.6-0.4-1.4-0.4-2
			c0-18.5,0-36.9,0-55.4C161.6,2.6,161.3,1.7,162.1,1.3z"/>
		<path class="st29" d="M55.7,150.1c-0.1,1.1-0.1,2.1-0.2,3.2c0,0.4-0.2,0.8-0.7,0.7c-0.4-0.1-0.4-0.5-0.4-0.8
			c0-1.1,0.1-2.1,0.1-3.2C55,150.1,55.3,150.1,55.7,150.1z"/>
		<path class="st30" d="M208.4,176.3c1.6,0,2.9,1.3,2.9,2.8c0,1.6-1.3,2.9-2.9,2.9c-1.6,0-2.9-1.3-2.9-2.8
			C205.5,177.6,206.8,176.3,208.4,176.3z"/>
		<path class="st31" d="M105.1,110c0-1.6,1.4-2.9,3-2.8c1.5,0.1,2.7,1.3,2.8,2.9c0,1.6-1.3,2.9-2.9,2.9
			C106.4,112.9,105.1,111.6,105.1,110z"/>
		<path class="st30" d="M110.8,164.5c0,1.6-1.2,2.9-2.8,3c-1.5,0-2.9-1.3-2.9-2.8c0-1.6,1.2-2.9,2.8-3
			C109.5,161.6,110.8,162.9,110.8,164.5z"/>
		<path class="st32" d="M125.5,207.8c7.5,1.4,15,2.7,22.4,4.2c0.8,0.2,2.3-0.1,2.2,1c-0.2,1.1-1.5,0.2-2.2,0.1
			c-7.4-1.3-14.7-2.7-22-4c-1.2-0.2-1.8-0.5-1.3-2c1.5-4.5,2.8-9.1,4.2-13.7c0.2-0.6,0-1.8,1.1-1.5c0.9,0.3,0.1,1.2,0,1.7
			C128.4,198.3,126.9,203,125.5,207.8z"/>
		<path class="st33" d="M133.2,200.9c-1.2,1.3-2.4,2.5-3.5,3.7c-0.3,0.3-0.6,0.7-1,0.4c-0.5-0.4-0.2-0.8,0.2-1.2
			c1.4-1.5,2.7-2.9,4.1-4.4c0.6-0.7,1.1-0.7,1.4,0.3c0.1,0.5,0.2,1,0.4,1.8c1.8-2,2.4-0.5,3.1,0.9c0.6,1.3,1.2,1.3,2.2,0.4
			c0.7-0.6,1.5-1.1,2.2-1.6c0.9-0.7,1.6-1.2,2.4,0.1c0.5,0.9,1,0.2,1.4-0.2c1.6-1.4,3.2-2.8,4.8-4.2c0.3-0.3,0.7-0.9,1.1-0.4
			c0.6,0.6-0.1,0.9-0.4,1.3c-1.9,1.7-3.8,3.3-5.6,5c-0.6,0.5-1.1,0.6-1.5-0.1c-0.7-1.2-1.4-0.8-2.2-0.1c-0.4,0.3-0.9,0.6-1.3,0.9
			c-2.3,1.7-2.4,1.7-4.1-0.7c-0.3-0.5-0.6-1-1.1-0.3c-1.3,1.7-1.8,1-2-0.7C133.6,201.7,133.4,201.4,133.2,200.9z"/>
		<path class="st2" d="M228.5,103.8c0.5,5.8,1.1,11.6,1.6,17.3c0.2,2,0,4,0.4,5.9c0.3,1.5-0.4,1.9-1.9,1.9c-11.4-0.1-22.8,0-34.2,0
			c-9,0-17.9,0-26.9,0c-1.4,0-2-0.3-2-1.9c0.1-7.9,0.1-15.8,0.1-23.7c0.6-0.3,1.3-0.2,2-0.2c19.4,0,38.7,0,58.1,0
			C226.7,103.2,227.7,103,228.5,103.8z"/>
		<path class="st2" d="M227.8,98.9c0,3.2,0,3.2,3.3,3.2c0.5,0,1,0,1.6,0.1c-0.5,1.2-1.7,0.9-2.6,0.9c-6.5,0-13,0-19.5,0
			c-14,0-28,0-42,0c-1,0-2,0.2-2.9-0.5c0-7.8,0-15.7-0.1-23.5c0-1.3,0.4-1.7,1.7-1.7c17.6,0,35.2,0,52.8,0c1.3,0,1.8,0.5,2.2,1.7
			c1.5,4.4,2.8,8.8,3.9,13.3c0.1,0.5,0.3,1,0.5,1.5C226.8,95.7,227.3,97.3,227.8,98.9z"/>
		<path class="st34" d="M165.7,102.7c0.9,0,1.7-0.1,2.6-0.1c20.6,0,41.2,0,61.8,0c0.8,0,1.7,0.2,2.5-0.3c3-0.7,4.5-2.5,4.5-5.9
			c0-5.6,0-11.1,0-16.7c0-0.5,0-0.9,0-1.4c0-0.4,0-0.9,0.5-0.9c0.6,0,0.6,0.4,0.6,0.8c0,6.6,0.1,13.3-0.2,19.9
			c-0.1,3.1-3.1,5.3-6.5,5.5c-1,0.1-2,0.1-3,0.1c-0.7,0-1.5-0.1-2.2-0.1c-19.5,0-38.9,0-58.4,0c-0.8,0-1.6,0.2-2.3-0.3
			C165.6,103.1,165.7,102.9,165.7,102.7z"/>
		<path class="st35" d="M227.8,98.9c-1.4-1.4-1.7-3.1-1.1-5c2.5-3,6-2.9,7.4,0.1c0.8,1.7,0.5,3.2-0.8,4.6
			C231.8,100,230.2,100.1,227.8,98.9z"/>
		<path class="st2" d="M144.8,19.4c0,12,0,23.9,0.1,35.9c0,1-0.4,1.5-1.4,1.4c-0.4,0-0.8,0-1.2,0c-30.8,0-61.6,0-92.4,0
			c-0.6,0-1.3,0.2-2-0.3C52.7,50.6,57.6,45,63.2,40c3.2-2.9,6.9-5.1,10-8.1c0.7-0.8,1.7-0.6,2.6-0.6c4.3,0,8.6,0,12.9,0
			c3.8,0,6-1.9,6.6-5.7c0.8-4.9,2.8-6.6,7.7-6.6c12.9,0,25.9,0,38.8,0C142.9,19,143.9,18.8,144.8,19.4z"/>
		<path class="st2" d="M100.3,18.3c6.5-2.8,13.2-4.5,20.1-5.9c7.4-1.4,14.9-2.3,22.4-2.1c1.6,0,2.3,0.4,2.1,2.1c-0.1,2-0.1,4-0.1,6
			c-0.7,0.7-1.6,0.5-2.5,0.5c-13.2,0-26.3,0-39.5,0C102,19,101,19.1,100.3,18.3z"/>
		<path class="st36" d="M100.3,18.3c14.3,0,28.7,0,43,0c0.5,0,1.1,0.1,1.6,0.1c0,0.3,0,0.7-0.1,1c-13.8,0-27.6,0-41.3,0.1
			c-5.3,0-6.7,1.2-7.5,6.5c-0.5,3.5-3.2,5.8-6.9,5.9C83.8,32,78.5,32,73.2,32c-8.2,0-16.3-0.1-24.5-0.1c-0.5,0-0.9,0-1.4,0
			c-0.5,0-1.2,0.2-1.1-0.7c0.1-0.7,0.7-0.5,1.1-0.5c5.2,0,10.4,0,15.5,0c4.4,0,8.8,0,13.1-0.1c1.5-0.7,3.1-0.5,4.7-0.5
			c2.5,0,5,0,7.6,0c3.9,0,5.9-1.7,6.3-5.7c0.2-2.5,1.2-4.3,3.6-5.3C98.8,18.9,99.6,18.6,100.3,18.3z"/>
		<path class="st2" d="M98.1,19.2c-1.9,1.6-3,3.5-3.2,6.1c-0.2,3.4-2.5,5.4-5.9,5.4c-4.4,0-8.7,0-13.1-0.1c2.5-2.2,5.5-3.7,8.4-5.1
			c0.8-0.1,1.1,0.6,1.6,1c1.3,1.1,2.7,1.2,4,0.4c1.3-0.8,2.1-2,1.7-3.7c-0.1-0.6-0.4-1.1-0.1-1.7c1.9-0.2,3.3-1.5,5-2
			C97.1,19.5,97.5,19.1,98.1,19.2z"/>
		<path class="st26" d="M91.6,21.6c0.9,1.6,1.1,3.3-0.1,4.8c-1,1.3-2.3,1.8-3.9,1.5c-1.5-0.2-2.4-1.3-3.2-2.4
			c-0.3-1.8-0.2-3.4,1.3-4.7C87.5,19.5,89.4,19.7,91.6,21.6z"/>
		<path class="st2" d="M173.6,19.6c3.6,2,7.2,3.9,10.7,6c7,4,12.5,9.8,17.5,16c3.5,4.3,6.5,9,9.3,13.8c0.8,1.3,0.3,1.4-0.8,1.4
			c-14.4,0-28.8,0-43.2,0c-1.5,0-1.5-0.8-1.5-1.9c0-11.9,0-23.8,0-35.7C168.3,19.1,171,18.5,173.6,19.6z"/>
		<path class="st35" d="M173.6,19.6c-2,0-4-0.1-6.1-0.1c-0.6,0-1.3,0.2-1.9-0.3c0-1.1,0.8-0.8,1.4-0.8c14.2,0,28.4,0,42.6,0
			c3.7,0,6.5,2.8,6.6,6.6c0.1,2.6,0,5.2,0,7.8c0,4.2,2.2,6.4,6.4,6.4c2.9,0,5.7,0,8.6,0c4.2,0.1,6.9,2.8,7,7c0,3.1,0,6.1,0,9.2
			c0,0.5,0.3,1.4-0.6,1.4c-0.8,0-0.5-0.9-0.5-1.5c0-2.9,0-5.7,0-8.6c0-4.2-2.2-6.4-6.4-6.4c-2.7,0-5.4,0-8.2,0
			c-4.5,0-7.3-2.7-7.4-7.3c0-2.5,0-4.9,0-7.4c-0.1-4-2.2-6.2-6.2-6.2C197.2,19.5,185.4,19.5,173.6,19.6z"/>
		<path class="st37" d="M223.1,36.4c-2.2,0-4.1-1.8-4.1-4c0-2.2,1.9-4.1,4-4.1c2.2,0,4,1.8,4,4C227.1,34.7,225.3,36.4,223.1,36.4z"
			/>
		<path class="st37" d="M212.5,26.1c0.1,2.1-1.8,4.1-4,4.2c-2.1,0.1-4.1-1.8-4.1-4c-0.1-2.2,1.8-4.1,3.9-4.1
			C210.5,22.1,212.4,23.9,212.5,26.1z"/>
		<path class="st37" d="M230.4,43.1c2.2,0,4,1.9,4,4.1c0,2.2-2,4-4.1,4c-2.2,0-4-1.9-4-4.1C226.4,44.8,228.2,43,230.4,43.1z"/>
		<path class="st38" d="M230.4,98.6c-1.6,0-2.9-1.2-3-2.8c0-1.6,1.3-2.9,2.9-2.9c1.6,0,2.9,1.2,3,2.8
			C233.3,97.3,232,98.6,230.4,98.6z"/>
		<path class="st36" d="M106.8,26.1c0,2.2-1.8,4.1-3.9,4.1c-2.1,0-4.1-1.8-4.1-4c-0.1-2.2,1.8-4.1,4-4.1
			C105,22.1,106.8,23.9,106.8,26.1z"/>
		<path class="st39" d="M91.1,24c0,1.6-1.3,2.8-2.9,2.8c-1.6,0-2.9-1.3-2.9-2.9c0-1.6,1.3-2.8,2.9-2.8C89.8,21.1,91.1,22.4,91.1,24z
			"/>
		<path class="st38" d="M225.9,32.5c0,1.7-1.3,2.9-3,2.8c-1.6-0.1-2.7-1.3-2.7-2.8c0-1.6,1.3-2.9,2.9-2.9
			C224.7,29.6,225.9,30.8,225.9,32.5z"/>
		<path class="st40" d="M208.5,29.1c-1.5,0-2.9-1.3-3-2.8c0-1.5,1.3-2.9,2.8-3c1.5,0,2.9,1.3,3,2.8
			C211.4,27.6,210.1,29.1,208.5,29.1z"/>
		<path class="st28" d="M233.3,47.1c0,1.6-1.3,2.9-2.9,2.8c-1.6,0-2.9-1.3-2.9-2.9c0-1.6,1.3-2.8,2.9-2.8
			C232,44.2,233.3,45.5,233.3,47.1z"/>
		<path class="st41" d="M105.7,26.3c-0.1,1.6-1.5,2.9-3,2.8c-1.6-0.1-2.9-1.4-2.8-3c0.1-1.6,1.5-2.9,3-2.8
			C104.5,23.3,105.8,24.7,105.7,26.3z"/>
	</g>
</g>
</svg>
