<?xml version="1.0" encoding="UTF-8"?>
<svg width="42px" height="42px" viewBox="0 0 42 42" version="1.1" xmlns="http://www.w3.org/2000/svg" xmlns:xlink="http://www.w3.org/1999/xlink">
    <title>Group 10</title>
    <g id="Page-1" stroke="none" stroke-width="1" fill="none" fill-rule="evenodd">
        <g id="Mockup" transform="translate(-344.000000, -1259.000000)">
            <g id="Group-10" transform="translate(344.000000, 1259.000000)">
                <path d="M31.5,0 L10.5,0 C4.70101013,0 0,4.70101013 0,10.5 L0,31.5 C0,37.2989899 4.70101013,42 10.5,42 L31.5,42 C37.2989899,42 42,37.2989899 42,31.5 L42,10.5 C42,4.70101013 37.2989899,0 31.5,0 Z" id="Path-Copy" fill="#000000" fill-rule="nonzero"></path>
                <g id="Group-9" transform="translate(7.000000, 6.758173)">
                    <path d="M13.8760591,26.7914926 C13.8760591,26.3815827 14.2136957,26.0445484 14.6230033,26.0445484 L14.6230033,26.0445484 C15.0441156,26.0445484 15.3817522,26.3815827 15.3817522,26.7914926 L15.3817522,26.7914926 C15.3817522,27.2126049 15.0441156,27.5502415 14.6230033,27.5502415 L14.6230033,27.5502415 C14.2136957,27.5502415 13.8760591,27.2126049 13.8760591,26.7914926 Z M12.0927161,27.3213761 L12.0927161,27.3213761 C11.6834085,27.2489824 11.4069633,26.8514794 11.4904389,26.4420513 L11.4904389,26.4420513 C11.5633144,26.0321414 11.9492537,25.7550939 12.3585613,25.8397741 L12.3585613,25.8397741 C12.7678689,25.9121678 13.0443142,26.2973844 12.9726432,26.706692 L12.9726432,26.706692 C12.8997677,27.0684197 12.5868244,27.3330603 12.225699,27.3330603 L12.225699,27.3330603 C12.189201,27.3330603 12.1410188,27.3212557 12.0927161,27.3212557 L12.0927161,27.3213761 Z M9.6483137,26.6344187 C9.25069026,26.4779471 9.05784108,26.0445484 9.20250808,25.6592114 L9.20250808,25.6592114 C9.35897971,25.2733926 9.7929807,25.0804229 10.1777154,25.2250899 L10.1777154,25.2250899 C10.5635342,25.3697569 10.7565038,25.8032761 10.6118368,26.2008995 L10.6118368,26.2008995 C10.5036679,26.5020382 10.2142134,26.6826009 9.91307478,26.6826009 L9.91307478,26.6826009 C9.81658996,26.6826009 9.73190978,26.6707962 9.64843416,26.6344187 L9.6483137,26.6344187 Z M7.35917833,25.5145444 C6.99805289,25.2974837 6.88988389,24.8398734 7.10622188,24.4781457 L7.10622188,24.4781457 C7.32268032,24.1293067 7.78029058,24.0088513 8.14262057,24.2251892 L8.14262057,24.2251892 C8.49194138,24.44225 8.61191501,24.9121467 8.39557702,25.2615879 L8.39557702,25.2615879 C8.25091002,25.4903328 7.99795358,25.6227134 7.74511759,25.6227134 L7.74511759,25.6227134 C7.61213477,25.6227134 7.47927241,25.5868177 7.35929878,25.5145444 L7.35917833,25.5145444 Z M5.31119476,23.9964443 C4.9982515,23.7193968 4.97476269,23.2501024 5.25120795,22.9365568 L5.25120795,22.9365568 C5.52885776,22.6236136 6.00995683,22.5995225 6.31109546,22.87657 L6.31109546,22.87657 C6.62403871,23.1536176 6.66041626,23.6353189 6.383971,23.9364575 L6.383971,23.9364575 C6.22749937,24.1052156 6.02164101,24.189414 5.8169872,24.189414 L5.8169872,24.189414 C5.63702676,24.189414 5.45586176,24.1294272 5.31119476,23.9964443 L5.31119476,23.9964443 Z" id="Shape" fill="#EE0000" fill-rule="nonzero"></path>
                    <path d="M27.6084622,16.2757318 C27.19795,16.2033381 26.9215048,15.8299262 26.9814916,15.4082117 L26.9814916,15.4082117 C27.0414784,14.998904 27.4272972,14.7218565 27.8367253,14.7818433 L27.8367253,14.7818433 C28.2460329,14.8418301 28.5354874,15.2276489 28.4755005,15.637077 L28.4755005,15.637077 C28.4155137,16.0106094 28.0896817,16.2758523 27.7285563,16.2758523 L27.6085827,16.2758523 L27.6084622,16.2757318 Z M27.114354,13.1437697 L27.114354,13.1437697 C27.1014652,12.7338598 27.4272972,12.3850208 27.8484095,12.3727343 L27.8484095,12.3727343 C28.2577171,12.3609297 28.6071584,12.6862799 28.6200471,13.0955875 L28.6200471,13.0955875 C28.6318517,13.517302 28.3060197,13.8666228 27.8965917,13.8784274 L27.8612982,13.8784274 C27.4636748,13.8784274 27.1260381,13.5531977 27.114354,13.1437697 Z M26.8367042,10.8911323 L26.8367042,10.8911323 C26.752024,10.4935088 27.0178691,10.0842012 27.4154926,10.0001233 L27.4154926,10.0001233 C27.8248002,9.91544314 28.2224236,10.1682791 28.3060197,10.5783095 L28.3060197,10.5783095 C28.4025045,10.9876171 28.1378639,11.3852405 27.7284358,11.4693184 L27.7284358,11.4693184 C27.6802537,11.4817254 27.631951,11.4934095 27.5719642,11.4934095 L27.5719642,11.4934095 C27.2226434,11.4934095 26.9215048,11.2522577 26.8367042,10.8911323 Z M26.1626355,8.73497973 C26.0061638,8.3497632 26.1861243,7.90395758 26.5602589,7.74748595 L26.5602589,7.74748595 C26.9448731,7.59101432 27.3907992,7.77157704 27.5471504,8.14510939 L27.5471504,8.14510939 C27.7165108,8.53032592 27.5236616,8.97613154 27.149527,9.13260317 L27.149527,9.13260317 C27.0530421,9.18078535 26.9577619,9.19258998 26.8612771,9.19258998 L26.8612771,9.19258998 C26.5601384,9.19258998 26.2824886,9.02443417 26.162515,8.73497973 L26.1626355,8.73497973 Z M25.1027479,6.72349417 C24.8734008,6.37417336 24.9697651,5.90415619 25.3192064,5.68769775 L25.3192064,5.68769775 C25.6685272,5.45895285 26.1379421,5.55471493 26.3556051,5.90415619 L26.3556051,5.90415619 C26.5838682,6.253477 26.4873833,6.72349417 26.1379421,6.94055489 L26.1379421,6.94055489 C26.0179685,7.02463279 25.8733015,7.07293543 25.7286345,7.07293543 L25.7286345,7.07293543 C25.4874827,7.07293543 25.2463308,6.95235952 25.1028684,6.72361462 L25.1027479,6.72349417 Z" id="Shape" fill="#EE0000" fill-rule="nonzero"></path>
                    <path d="M3.10686003,6.94043443 C2.75753922,6.71108725 2.66105441,6.253477 2.89040158,5.90403574 L2.89040158,5.90403574 C3.10686003,5.55471493 3.57735902,5.4588324 3.92680028,5.68757729 L3.92680028,5.68757729 C4.27612108,5.91632219 4.3726059,6.37393245 4.14325872,6.72337371 L4.14325872,6.72337371 C3.99859172,6.94043443 3.75743991,7.07269452 3.51749266,7.07269452 L3.51749266,7.07269452 C3.37282566,7.07269452 3.22815867,7.02451234 3.10698048,6.94031398 L3.10686003,6.94043443 Z M4.49257952,4.97652877 C4.1914409,4.68779706 4.17963627,4.20609571 4.45608152,3.90495709 L4.45608152,3.90495709 C4.74541551,3.60381846 5.22771914,3.59141155 5.52885776,3.880866 L5.52885776,3.880866 C5.82999639,4.16959771 5.84180102,4.63961488 5.55234657,4.9407535 L5.55234657,4.9407535 C5.40767958,5.09722513 5.20302577,5.18190532 5.01005614,5.18190532 L5.01005614,5.18190532 C4.81708651,5.18190532 4.63712607,5.10951159 4.49245907,4.97664923 L4.49257952,4.97652877 Z M6.20292646,3.27846829 C5.96177465,2.94083167 6.03477065,2.47153723 6.37108227,2.23038542 L6.37108227,2.23038542 C6.7087189,1.98923361 7.17801333,2.06162734 7.41916514,2.39914351 L7.41916514,2.39914351 C7.67212159,2.72437322 7.5885255,3.20607457 7.25100933,3.4466241 L7.26281397,3.4466241 C7.11814697,3.54310892 6.97347998,3.5912911 6.81700835,3.5912911 L6.81700835,3.5912911 C6.57585653,3.5912911 6.34771391,3.4831221 6.20292646,3.27834784 L6.20292646,3.27846829 Z M8.20272784,1.9292468 C8.02156285,1.55571445 8.17803448,1.09822465 8.55204865,0.917661927 L8.55204865,0.917661927 C8.92497872,0.73649693 9.37078434,0.893570837 9.55194934,1.26698273 L9.55194934,1.26698273 C9.73190978,1.65219926 9.57543815,2.09800488 9.20262853,2.2785676 L9.20262853,2.2785676 C9.09445954,2.32674978 8.98496554,2.35096133 8.87679654,2.35096133 L8.87679654,2.35096133 C8.60035128,2.35096133 8.32270147,2.19388742 8.20272784,1.9292468 Z M10.407183,0.953437195 C10.2860049,0.555813755 10.5271567,0.146506135 10.9247801,0.0259302297 L10.9247801,0.0259302297 C11.3340877,-0.0822387645 11.7435158,0.158310769 11.8528893,0.555813755 L11.8528893,0.555813755 C11.9610583,0.965723651 11.7317112,1.37515173 11.3224035,1.48332072 L11.3224035,1.48332072 C11.2624167,1.50741181 11.1894207,1.50741181 11.1294339,1.50741181 L11.1294339,1.50741181 C10.7917973,1.50741181 10.4906587,1.29035109 10.407183,0.95331674 L10.407183,0.953437195 Z" id="Shape" fill="#EE0000" fill-rule="nonzero"></path>
                    <path d="M19.6862244,14.0877463 L24.0722434,15.8004825 L24.3890653,20.2575903 C24.3890653,21.5335079 23.8718975,22.6886345 23.0357503,23.5247817 C22.1996031,24.3609289 21.0444765,24.8780967 19.7685589,24.8780967 C18.4926362,24.8780967 17.3374944,24.3609253 16.5013345,23.5247733 C15.6651804,22.6886272 15.1480033,21.5335042 15.1480033,20.2575903 L15.1479939,16.1568026 L19.6862244,14.0877463 Z" id="Path" stroke="#FFFFFF" stroke-width="1.05" fill="#000000"></path>
                    <circle id="Oval" stroke="#FFFFFF" stroke-width="1.15" fill="#000000" cx="17.5281054" cy="6.0306415" r="5.16434792"></circle>
                    <circle id="Oval-Copy" stroke="#FFFFFF" stroke-width="1.15" fill="#000000" cx="5.73934792" cy="15.0293722" r="5.16434792"></circle>
                </g>
            </g>
        </g>
    </g>
</svg>