<?xml version="1.0" encoding="UTF-8"?>
<svg width="36px" height="37px" viewBox="0 0 36 37" version="1.1" xmlns="http://www.w3.org/2000/svg" xmlns:xlink="http://www.w3.org/1999/xlink">
    <title>Group 3@1x</title>
    <g id="Homepage-design" stroke="none" stroke-width="1" fill="none" fill-rule="evenodd">
        <g id="Group-3" transform="translate(0.000000, 0.500000)" fill-rule="nonzero">
            <path d="M27,0 L9,0 C4.02943725,0 0,4.02943725 0,9 L0,27 C0,31.9705627 4.02943725,36 9,36 L27,36 C31.9705627,36 36,31.9705627 36,27 L36,9 C36,4.02943725 31.9705627,0 27,0 L27,0 Z" id="Path" fill="#F5F5F5"></path>
            <g id="Icon-Red_Hat-Edge-A-2_Color-RGB" transform="translate(7.000000, 7.000000)">
                <path d="M21.7224406,18.1170036 L1.28149034,18.1170036 C1.01011474,18.1170036 0.790121347,17.8970102 0.790121347,17.6256346 C0.790121347,17.354259 1.01011474,17.1342656 1.28149034,17.1342656 L21.7224406,17.1342656 C21.9938162,17.1342656 22.2138096,17.354259 22.2138096,17.6256346 C22.2138096,17.8970102 21.9938162,18.1170036 21.7224406,18.1170036 L21.7224406,18.1170036 Z" id="Path" fill="#EE0000"></path>
                <path d="M15.9604512,14.1200218 L8.15829773,14.1200218 C6.91982875,14.1170104 5.78165375,13.4385835 5.18988094,12.3506408 C4.59810812,11.2626981 4.64701885,9.93857079 5.31744254,8.89725121 C5.98786624,7.85593162 7.17299086,7.263323 8.40830627,7.35169856 C9.32877446,5.65575525 11.2701033,4.78527326 13.1487015,5.22612939 C15.0272997,5.66698553 16.3787344,7.31018997 16.4486754,9.23855551 C17.5648278,9.5689344 18.303627,10.6279376 18.2283218,11.7895208 C18.1530166,12.9511039 17.2836662,13.9058511 16.1341993,14.0893502 C16.0786167,14.1100036 16.0197457,14.1203926 15.9604512,14.1200218 Z M8.15829773,8.32421608 C6.82920857,8.32421608 5.75176893,9.40165572 5.75176893,10.7307449 C5.75176893,12.059834 6.82920857,13.1372776 8.15829773,13.1372776 L15.7371731,13.1372776 C16.5415656,13.1390937 17.2060723,12.509809 17.2480201,11.706509 C17.2899679,10.903209 16.6946182,10.2081356 15.8944112,10.1261645 C15.6320078,10.0980693 15.4382787,9.86829756 15.4549308,9.60492023 C15.4620065,9.50428786 15.4667236,9.44768216 15.4667236,9.39343502 C15.4664983,7.83056846 14.3693746,6.48244322 12.8391455,6.16471568 C11.3089164,5.84698814 9.76578584,6.64690691 9.14339429,8.08049706 C9.05263374,8.29149598 8.82725627,8.41089043 8.60170911,8.36745655 C8.45558195,8.33921397 8.30712823,8.3247371 8.15829773,8.32421608 Z" id="Shape" fill="#030303"></path>
                <path d="M0.990599897,8.03411183 C0.867151628,7.9909007 0.766113673,7.90011063 0.709996262,7.78196871 C0.653878852,7.66382679 0.647343979,7.52814776 0.691847547,7.40515951 L0.691847547,7.40515951 C0.736210886,7.28074625 0.82843052,7.17920662 0.948011413,7.12310695 C1.06759231,7.06700727 1.20462739,7.0609953 1.32866177,7.10640716 L1.32866177,7.10640716 C1.58180148,7.20069947 1.71162783,7.48140508 1.61955221,7.73535948 L1.61955221,7.73535948 C1.55090869,7.93180788 1.36375407,8.06186448 1.15569988,8.05769754 L1.15569988,8.05769754 C1.09983531,8.0575822 1.04426218,8.04964318 0.990599897,8.03411183 Z M21.3835925,7.72749757 C21.3362334,7.60567188 21.3404757,7.46982131 21.3953436,7.35118787 C21.4502116,7.23255444 21.550983,7.14134859 21.674483,7.09854526 L21.674483,7.09854526 C21.9284175,7.00693048 22.2088047,7.13660955 22.3034353,7.3894357 L22.3034353,7.3894357 C22.3945919,7.64335012 22.265059,7.9234213 22.0125449,8.01838802 L22.0125449,8.01838802 C21.9572761,8.04024938 21.8982219,8.05093792 21.8387968,8.04983563 L21.8387968,8.04983563 C21.6347993,8.04749081 21.4535444,7.919141 21.3835925,7.72749757 Z M2.75166638,4.63776932 C2.65165146,4.55394563 2.58949215,4.43346588 2.57914442,4.30338006 C2.56879668,4.17329424 2.61112759,4.04450276 2.69663305,3.94592177 L2.69663305,3.94592177 C2.77957558,3.84513264 2.89942369,3.78175345 3.02941698,3.76993588 C3.15941028,3.75811831 3.2887227,3.79884654 3.3884806,3.88302654 L3.3884806,3.88302654 C3.59193873,4.06029173 3.61638954,4.36767327 3.44351393,4.57487409 L3.44351393,4.57487409 C3.35159862,4.6891878 3.21282603,4.755683 3.06614254,4.75569788 L3.06614254,4.75569788 C2.95069453,4.75468032 2.83931684,4.71291368 2.75166638,4.63776932 L2.75166638,4.63776932 Z M19.5525551,4.56701218 C19.4674587,4.4682521 19.4253938,4.339561 19.435731,4.20960676 C19.4460683,4.07965252 19.5079491,3.95922983 19.6075884,3.87516464 L19.6075884,3.87516464 C19.7072164,3.79102814 19.8364028,3.75031938 19.966268,3.76213874 C20.0961333,3.77395811 20.2158479,3.83731997 20.2986498,3.93805987 L20.2986498,3.93805987 C20.4725854,4.14477743 20.4484316,4.45282571 20.2444027,4.62990742 L20.2444027,4.62990742 C20.1536536,4.70410207 20.0392398,4.74317022 19.9220646,4.73997407 L19.9220646,4.73997407 C19.7790425,4.7413211 19.6431334,4.67770409 19.5525551,4.56701218 L19.5525551,4.56701218 Z M5.566228,2.05120292 C5.50123607,1.93868791 5.48377667,1.8049069 5.51771553,1.6794807 C5.55165438,1.5540545 5.63419138,1.44733135 5.74705179,1.38294109 L5.74705179,1.38294109 C5.85945463,1.31542699 5.99420665,1.2957189 6.12123641,1.32821488 C6.24826618,1.36071087 6.35700102,1.4427063 6.42317553,1.55590297 L6.42317553,1.55590297 C6.55696752,1.79292871 6.47660075,2.09343055 6.24235173,2.23202671 L6.24235173,2.23202671 C6.16692038,2.27117018 6.08358596,2.29267583 5.99863271,2.29493137 L5.99863271,2.29493137 C5.82150332,2.29600748 5.65701911,2.2032982 5.566228,2.05120292 Z M16.7537173,2.22416481 C16.5204827,2.08861347 16.4398353,1.79056883 16.5728935,1.55590297 L16.5728935,1.55590297 C16.6338837,1.43949971 16.7406667,1.35381494 16.8675184,1.31949038 C16.99437,1.28516581 17.12979,1.30531327 17.2411554,1.37507918 L17.2411554,1.37507918 C17.3540158,1.43946944 17.4365528,1.5461926 17.4704916,1.6716188 C17.5044305,1.797045 17.4869711,1.93082601 17.4219791,2.04334102 L17.4219791,2.04334102 C17.3343582,2.19478284 17.172398,2.28775999 16.9974363,2.28706004 L16.9974363,2.28706004 C16.9118806,2.28959067 16.8273644,2.26778005 16.7537173,2.22416481 Z M9.10408477,0.581026883 C9.08008627,0.453710915 9.10818698,0.322089782 9.18208634,0.215674706 C9.2559857,0.10925963 9.36950077,0.0369540329 9.49717997,0.0149697985 L9.49717997,0.0149697985 C9.62655374,-0.0087717746 9.76004779,0.020262128 9.86787413,0.0955928528 C9.97570046,0.170923577 10.0488856,0.28628199 10.071099,0.4159269 L10.071099,0.4159269 C10.1148334,0.68253512 9.93615816,0.934782568 9.67014186,0.981983984 L9.67014186,0.981983984 C9.63869424,0.981983984 9.61510853,0.989845888 9.58366091,0.989845888 L9.58366091,0.989845888 C9.34560134,0.988475157 9.14312018,0.815868272 9.10408477,0.581026883 Z M13.3180653,0.97412208 C13.1904876,0.951938798 13.0771073,0.879587695 13.0032457,0.773226888 C12.929384,0.666866081 12.9011936,0.535355388 12.9249701,0.408064996 L12.9249701,0.408064996 C12.9466881,0.279742605 13.0185847,0.16534006 13.1247881,0.0901126877 C13.2309914,0.0148853153 13.362768,-0.014980672 13.4910272,0.00710789453 L13.4910272,0.00710789453 C13.7593989,0.0561706119 13.9382386,0.312156937 13.8919843,0.581026883 L13.8919843,0.581026883 C13.8461566,0.813964221 13.6419488,0.981941577 13.4045462,0.981983984 L13.4045462,0.981983984 C13.3755053,0.982940607 13.3464576,0.980299907 13.3180653,0.97412208 Z" id="Shape" fill="#EE0000"></path>
                <circle id="Oval" fill="#EE0000" cx="0.491368997" cy="11.3361115" r="1"></circle>
                <circle id="Oval" fill="#EE0000" cx="22.508631" cy="11.3376839" r="1"></circle>
            </g>
        </g>
    </g>
</svg>