<svg id="a047f47e-1cff-44c3-b5fa-a0d382910552" data-name="Icon" xmlns="http://www.w3.org/2000/svg" viewBox="0 0 36 36">
  <defs>
    <style>
      .a9cedfa9-9a26-452d-9a1d-2a33de029db0 {
        fill: #e00;
      }
    </style>
  </defs>
  <g>
    <path class="a9cedfa9-9a26-452d-9a1d-2a33de029db0" d="M23.62,22a4.88,4.88,0,0,0-9.13-2.14h-.24a3.87,3.87,0,0,0,0,7.74H23a.71.71,0,0,0,.21,0A2.87,2.87,0,0,0,23.62,22Zm-.87,4.36h-8.5a2.63,2.63,0,1,1,.49-5.21.62.62,0,0,0,.69-.36,3.62,3.62,0,0,1,7,1.44c0,.06,0,.12,0,.23a.64.64,0,0,0,.56.67,1.61,1.61,0,0,1,1.46,1.6A1.63,1.63,0,0,1,22.75,26.38Z"/>
    <g>
      <path class="a9cedfa9-9a26-452d-9a1d-2a33de029db0" d="M4,23.38a.63.63,0,0,0-.62.63.63.63,0,0,0,1.25,0A.63.63,0,0,0,4,23.38Z"/>
      <path class="a9cedfa9-9a26-452d-9a1d-2a33de029db0" d="M4.84,18.58a.63.63,0,0,0-.62.63.63.63,0,0,0,1.25,0A.63.63,0,0,0,4.84,18.58Z"/>
      <path class="a9cedfa9-9a26-452d-9a1d-2a33de029db0" d="M7.27,14.38a.63.63,0,0,0-.62.63A.63.63,0,0,0,7.9,15,.63.63,0,0,0,7.27,14.38Z"/>
      <path class="a9cedfa9-9a26-452d-9a1d-2a33de029db0" d="M11,11.25a.63.63,0,0,0-.62.63.63.63,0,0,0,1.25,0A.63.63,0,0,0,11,11.25Z"/>
      <path class="a9cedfa9-9a26-452d-9a1d-2a33de029db0" d="M15.56,9.59a.63.63,0,0,0-.62.63.63.63,0,0,0,1.25,0A.63.63,0,0,0,15.56,9.59Z"/>
      <path class="a9cedfa9-9a26-452d-9a1d-2a33de029db0" d="M20.42,9.59a.63.63,0,0,0-.62.63.63.63,0,0,0,1.25,0A.63.63,0,0,0,20.42,9.59Z"/>
      <path class="a9cedfa9-9a26-452d-9a1d-2a33de029db0" d="M25,11.24a.63.63,0,0,0-.62.63.63.63,0,0,0,1.25,0A.63.63,0,0,0,25,11.24Z"/>
      <path class="a9cedfa9-9a26-452d-9a1d-2a33de029db0" d="M28.71,14.36a.63.63,0,0,0-.62.63.63.63,0,0,0,1.25,0A.63.63,0,0,0,28.71,14.36Z"/>
      <path class="a9cedfa9-9a26-452d-9a1d-2a33de029db0" d="M31.15,18.57a.63.63,0,0,0-.62.63.63.63,0,0,0,1.25,0A.63.63,0,0,0,31.15,18.57Z"/>
      <path class="a9cedfa9-9a26-452d-9a1d-2a33de029db0" d="M32,23.38a.63.63,0,0,0-.62.63.63.63,0,0,0,1.25,0A.63.63,0,0,0,32,23.38Z"/>
    </g>
  </g>
</svg>
