<?xml version="1.0" encoding="UTF-8"?>
<svg id="Layer_2" data-name="Layer 2" xmlns="http://www.w3.org/2000/svg" xmlns:xlink="http://www.w3.org/1999/xlink" viewBox="0 0 1792.81 1096.19">
  <defs>
    <style>
      .cls-1, .cls-2, .cls-3, .cls-4, .cls-5, .cls-6, .cls-7 {
        fill: none;
      }

      .cls-8, .cls-9, .cls-10 {
        fill: #fff;
      }

      .cls-8, .cls-2, .cls-10, .cls-5, .cls-6, .cls-7 {
        stroke-width: 5.66px;
      }

      .cls-8, .cls-3, .cls-4, .cls-10, .cls-5, .cls-7 {
        stroke-miterlimit: 10;
      }

      .cls-8, .cls-3, .cls-4, .cls-7 {
        stroke: #ed1c24;
      }

      .cls-11 {
        clip-path: url(#clippath);
      }

      .cls-12 {
        fill: #0199c5;
      }

      .cls-13 {
        fill: #023d4f;
      }

      .cls-14 {
        fill: #f26d6d;
      }

      .cls-15 {
        fill: #ed1c24;
      }

      .cls-16 {
        fill: #93d2e5;
      }

      .cls-17 {
        fill: #4cb6d6;
      }

      .cls-2 {
        stroke: #fff;
      }

      .cls-2, .cls-3, .cls-4, .cls-10, .cls-6, .cls-7 {
        stroke-linecap: round;
      }

      .cls-2, .cls-6 {
        stroke-linejoin: round;
      }

      .cls-18 {
        clip-path: url(#clippath-1);
      }

      .cls-19 {
        clip-path: url(#clippath-4);
      }

      .cls-20 {
        clip-path: url(#clippath-3);
      }

      .cls-21 {
        clip-path: url(#clippath-2);
      }

      .cls-3 {
        stroke-width: 11.33px;
      }

      .cls-4 {
        stroke-width: 5.53px;
      }

      .cls-10, .cls-5, .cls-6 {
        stroke: #0199c5;
      }

      .cls-6 {
        stroke-dasharray: 0 0 12.09 24.19;
      }
    </style>
    <clipPath id="clippath">
      <polygon class="cls-1" points="686.43 1016.02 686.43 1061.53 725.84 1084.29 765.26 1061.53 765.26 1016.02 725.84 993.26 686.43 1016.02"/>
    </clipPath>
    <clipPath id="clippath-1">
      <polygon class="cls-1" points="355.59 400.15 355.59 445.66 395 468.42 434.42 445.66 434.42 400.15 395 377.39 355.59 400.15"/>
    </clipPath>
    <clipPath id="clippath-2">
      <polygon class="cls-1" points="749.93 1052 749.93 1077.84 772.3 1090.76 794.68 1077.84 794.68 1052 772.3 1039.08 749.93 1052"/>
    </clipPath>
    <clipPath id="clippath-3">
      <polygon class="cls-1" points="372.47 455.97 372.47 481.81 394.84 494.73 417.22 481.81 417.22 455.97 394.84 443.05 372.47 455.97"/>
    </clipPath>
    <clipPath id="clippath-4">
      <polygon class="cls-1" points="1347.58 185.53 1347.58 231.04 1386.99 253.8 1426.41 231.04 1426.41 185.53 1386.99 162.77 1347.58 185.53"/>
    </clipPath>
  </defs>
  <g id="Layer_1-2" data-name="Layer 1">
    <g>
      <g>
        <path class="cls-3" d="M1400.01,284.67c51.31,92.16,76.32,200.22,65.91,313.19-27.49,298.29-291.58,517.83-589.88,490.34-20.61-1.9-40.85-4.93-60.66-9.02"/>
        <path class="cls-3" d="M424.79,339.95C513.43,126.39,733.22-14.35,975.58,7.99c129.61,11.94,244.35,68.56,330.42,153.24"/>
        <path class="cls-3" d="M594.12,977.33c-138.09-106.92-221.72-278.26-209.56-464.32"/>
      </g>
      <circle class="cls-16" cx="925.16" cy="547.89" r="462.48"/>
      <path class="cls-17" d="M888.1,324.77c0-35.21-28.28-63.8-63.37-64.33-2.17-59.86-49.95-108.09-109.63-110.94-26.78-57.79-85.3-97.89-153.19-97.89-76.38,0-140.9,50.75-161.7,120.37-2.35-.15-4.71-.24-7.1-.24-60.03,0-108.69,48.66-108.69,108.69s48.39,108.41,108.19,108.68h0s.49,0,.49,0c0,0,.01,0,.02,0s.01,0,.02,0h168.78s0,0,.01,0c0,0,0,0,.01,0h261.81s0,0,0,0c0,0,0,0,0,0h1.07v-.03c35.04-.58,63.28-29.15,63.28-64.33Z"/>
      <path class="cls-5" d="M824.32,358.87l-1.36,.02H392.75c-43.06-.2-78.09-35.4-78.09-78.46s35.2-78.46,78.46-78.46c1.65,0,3.34,.06,5.17,.17l24.01,1.54,6.89-23.05c8.35-27.96,25.86-53.12,49.28-70.83,24.18-18.29,53.04-27.96,83.46-27.96"/>
      <g>
        <ellipse class="cls-17" cx="191.22" cy="785.01" rx="191.22" ry="16.63"/>
        <g>
          <rect class="cls-17" x="50.83" y="295.41" width="88.2" height="487.72"/>
          <g>
            <rect class="cls-9" x="73.96" y="294.61" width="256.61" height="69.78"/>
            <circle class="cls-16" cx="288.97" cy="329.5" r="8.2"/>
            <rect class="cls-9" x="73.96" y="364.39" width="256.61" height="69.78"/>
            <circle class="cls-16" cx="288.97" cy="399.28" r="9.12"/>
            <rect class="cls-9" x="73.96" y="434.17" width="256.61" height="69.78"/>
            <circle class="cls-16" cx="288.97" cy="469.06" r="9.12"/>
            <rect class="cls-9" x="73.96" y="503.95" width="256.61" height="69.78"/>
            <rect class="cls-16" x="114.48" y="322.85" width="139.71" height="13.29"/>
            <rect class="cls-16" x="115.34" y="392.71" width="137.99" height="13.13"/>
            <rect class="cls-16" x="115.34" y="462.49" width="137.99" height="13.13"/>
            <rect class="cls-16" x="115.34" y="532.27" width="137.99" height="13.13"/>
            <circle class="cls-16" cx="288.97" cy="538.84" r="9.12"/>
            <rect class="cls-9" x="73.96" y="574.01" width="256.61" height="69.78"/>
            <circle class="cls-16" cx="288.97" cy="608.9" r="8.2"/>
            <rect class="cls-9" x="73.96" y="643.79" width="256.61" height="69.78"/>
            <circle class="cls-16" cx="288.97" cy="678.68" r="9.12"/>
            <rect class="cls-9" x="73.96" y="713.57" width="256.61" height="69.78"/>
            <circle class="cls-16" cx="288.97" cy="748.46" r="9.12"/>
            <rect class="cls-16" x="114.48" y="602.25" width="139.71" height="13.29"/>
            <rect class="cls-16" x="115.34" y="672.12" width="137.99" height="13.13"/>
            <rect class="cls-16" x="115.34" y="741.89" width="137.99" height="13.13"/>
          </g>
        </g>
      </g>
      <g>
        <path class="cls-9" d="M1738.91,338.61c-9.83-73.87-73.06-130.86-149.62-130.86-83.37,0-150.95,67.58-150.95,150.95,0,.2,0,.4,0,.6-2.04-.17-4.11-.27-6.19-.27-41.59,0-75.31,33.72-75.31,75.31s33.72,75.31,75.31,75.31c1.07,0,2.13-.04,3.19-.08v.08h153.93s.02,0,.02,0c0,0,.02,0,.02,0h108.44c1.91,.12,3.84,.21,5.78,.21,49.3,0,89.27-39.97,89.27-89.27,0-36.73-22.19-68.27-53.9-81.97Z"/>
        <path class="cls-16" d="M1620.99,366.3c0-17.96-14.56-32.52-32.52-32.52s-32.52,14.56-32.52,32.52c0,12.66,7.25,23.6,17.81,28.98v32.19c0,8.09,6.62,14.71,14.71,14.71s14.71-6.62,14.71-14.71v-32.19c10.56-5.37,17.81-16.32,17.81-28.98Z"/>
      </g>
      <rect class="cls-12" x="563.07" y="262.53" width="417.64" height="58.16"/>
      <g>
        <ellipse class="cls-17" cx="1555.9" cy="978.03" rx="191.22" ry="16.63"/>
        <g>
          <g>
            <rect class="cls-16" x="1445.11" y="698.43" width="256.61" height="69.78"/>
            <rect class="cls-9" x="1486.49" y="726.76" width="137.99" height="13.13"/>
            <circle class="cls-9" cx="1660.12" cy="733.32" r="9.12"/>
            <rect class="cls-16" x="1445.11" y="767.08" width="256.61" height="71.19"/>
            <circle class="cls-9" cx="1660.12" cy="803.39" r="8.2"/>
            <rect class="cls-16" x="1445.11" y="838.28" width="256.61" height="69.78"/>
            <circle class="cls-9" cx="1660.12" cy="873.17" r="9.12"/>
            <rect class="cls-16" x="1445.11" y="908.05" width="256.61" height="69.78"/>
            <circle class="cls-9" cx="1660.12" cy="942.94" r="9.12"/>
            <rect class="cls-9" x="1485.63" y="796.74" width="139.71" height="13.29"/>
            <rect class="cls-16" x="1445.11" y="628.9" width="256.61" height="69.78"/>
            <rect class="cls-9" x="1486.49" y="657.22" width="137.99" height="13.13"/>
            <circle class="cls-9" cx="1660.12" cy="663.79" r="9.12"/>
            <circle class="cls-9" cx="1660.12" cy="733.85" r="8.2"/>
            <rect class="cls-9" x="1485.63" y="727.21" width="139.71" height="13.29"/>
            <rect class="cls-9" x="1486.49" y="866.6" width="137.99" height="13.13"/>
            <rect class="cls-9" x="1486.49" y="936.38" width="137.99" height="13.13"/>
            <rect class="cls-12" x="1419.5" y="630.37" width="25.78" height="346.98"/>
          </g>
          <polyline class="cls-6" points="1389.48 946.29 1389.48 598.62 1732.61 598.62 1732.61 946.29"/>
        </g>
      </g>
      <g>
        <rect class="cls-13" x="586.71" y="278.63" width="673.2" height="597.77"/>
        <g>
          <rect class="cls-8" x="619.94" y="245.4" width="673.2" height="597.77"/>
          <rect class="cls-15" x="619.94" y="245.4" width="673.2" height="93.23"/>
          <line class="cls-2" x1="666.67" y1="291.78" x2="909.13" y2="291.78"/>
          <g>
            <circle class="cls-9" cx="1179.7" cy="291.78" r="13.63"/>
            <circle class="cls-9" cx="1233.61" cy="291.78" r="13.63"/>
          </g>
        </g>
        <g>
          <line class="cls-7" x1="957.55" y1="516.82" x2="957.55" y2="624.19"/>
          <path class="cls-4" d="M1116.97,643.64v-54.73c0-8.59-6.97-15.56-15.56-15.56h-289.43c-8.59,0-15.56,6.97-15.56,15.56v52.65"/>
          <line class="cls-7" x1="838.43" y1="672.13" x2="910.01" y2="672.13"/>
          <line class="cls-7" x1="1004.94" y1="672.13" x2="1076.51" y2="672.13"/>
          <rect class="cls-10" x="908.11" y="616.55" width="95.76" height="111.53" transform="translate(1628.31 -283.68) rotate(90)"/>
          <rect class="cls-10" x="1069.34" y="616.55" width="95.76" height="111.53" transform="translate(1789.54 -444.91) rotate(90)"/>
          <rect class="cls-10" x="748.44" y="616.55" width="95.76" height="111.53" transform="translate(1468.63 -124) rotate(90)"/>
          <rect class="cls-10" x="909.67" y="412.7" width="95.76" height="111.53" transform="translate(1426.01 -489.08) rotate(90)"/>
        </g>
      </g>
      <g class="cls-11">
        <g>
          <polygon class="cls-14" points="686.59 1015.92 725.84 993.26 765.09 1015.92 725.81 1038.6 686.59 1015.92"/>
          <polygon class="cls-15" points="765.26 1016.21 765.26 1061.53 725.97 1084.21 725.97 1038.89 765.26 1016.21"/>
          <polygon class="cls-15" points="725.64 1084.17 686.43 1061.53 686.43 1016.21 725.64 1038.89 725.64 1084.17"/>
          <path class="cls-9" d="M725.93,1038.69s-.02-.02-.03-.02c0,0,.02,.01,.03,.02Z"/>
          <path class="cls-9" d="M725.96,1038.74s0-.02-.01-.03c0,0,.01,.02,.01,.03Z"/>
        </g>
        <g>
          <line class="cls-1" x1="765.26" y1="1016.02" x2="725.81" y2="1038.79"/>
          <line class="cls-1" x1="725.81" y1="1038.79" x2="725.81" y2="1087.4"/>
          <line class="cls-1" x1="686.43" y1="1016.02" x2="725.81" y2="1038.79"/>
        </g>
      </g>
      <g class="cls-18">
        <g>
          <polygon class="cls-14" points="355.75 400.05 395 377.39 434.25 400.05 394.97 422.73 355.75 400.05"/>
          <polygon class="cls-15" points="434.42 400.34 434.42 445.66 395.14 468.34 395.14 423.02 434.42 400.34"/>
          <polygon class="cls-15" points="394.8 468.3 355.59 445.66 355.59 400.34 394.8 423.02 394.8 468.3"/>
          <path class="cls-9" d="M395.09,422.82s-.02-.02-.03-.02c0,0,.02,.01,.03,.02Z"/>
          <path class="cls-9" d="M395.13,422.87s0-.02-.01-.03c0,0,.01,.02,.01,.03Z"/>
        </g>
        <g>
          <line class="cls-1" x1="434.42" y1="400.15" x2="394.97" y2="422.92"/>
          <line class="cls-1" x1="394.97" y1="422.92" x2="394.97" y2="471.53"/>
          <line class="cls-1" x1="355.59" y1="400.15" x2="394.97" y2="422.92"/>
        </g>
      </g>
      <g class="cls-21">
        <g>
          <polygon class="cls-14" points="750.02 1051.94 772.3 1039.08 794.59 1051.94 772.28 1064.82 750.02 1051.94"/>
          <polygon class="cls-15" points="794.68 1052.11 794.68 1077.84 772.38 1090.71 772.38 1064.98 794.68 1052.11"/>
          <polygon class="cls-15" points="772.19 1090.69 749.93 1077.84 749.93 1052.11 772.19 1064.98 772.19 1090.69"/>
          <path class="cls-9" d="M772.36,1064.87s0,0-.02-.01c0,0,.01,0,.02,.01Z"/>
          <path class="cls-9" d="M772.37,1064.9s0-.01,0-.02c0,0,0,.01,0,.02Z"/>
        </g>
        <g>
          <line class="cls-15" x1="794.68" y1="1052" x2="772.28" y2="1064.93"/>
          <line class="cls-1" x1="772.28" y1="1064.93" x2="772.28" y2="1092.52"/>
          <line class="cls-15" x1="749.93" y1="1052" x2="772.28" y2="1064.93"/>
        </g>
      </g>
      <g class="cls-20">
        <g>
          <polygon class="cls-14" points="372.56 455.92 394.84 443.05 417.13 455.92 394.83 468.79 372.56 455.92"/>
          <polygon class="cls-15" points="417.22 456.08 417.22 481.81 394.92 494.68 394.92 468.96 417.22 456.08"/>
          <polygon class="cls-15" points="394.73 494.66 372.47 481.81 372.47 456.08 394.73 468.96 394.73 494.66"/>
          <path class="cls-9" d="M394.9,468.84s0,0-.02-.01c0,0,.01,0,.02,.01Z"/>
          <path class="cls-9" d="M394.91,468.87s0-.01,0-.02c0,0,0,.01,0,.02Z"/>
        </g>
        <g>
          <line class="cls-15" x1="417.22" y1="455.97" x2="394.83" y2="468.9"/>
          <line class="cls-1" x1="394.83" y1="468.9" x2="394.83" y2="496.49"/>
          <line class="cls-15" x1="372.47" y1="455.97" x2="394.83" y2="468.9"/>
        </g>
      </g>
      <g class="cls-19">
        <g>
          <polygon class="cls-14" points="1347.74 185.43 1386.99 162.77 1426.24 185.43 1386.96 208.11 1347.74 185.43"/>
          <polygon class="cls-14" points="1426.41 185.72 1426.41 231.04 1387.13 253.72 1387.13 208.4 1426.41 185.72"/>
          <polygon class="cls-15" points="1386.79 253.68 1347.58 231.04 1347.58 185.72 1386.79 208.4 1386.79 253.68"/>
          <path class="cls-9" d="M1387.08,208.19s-.02-.02-.03-.02c0,0,.02,.01,.03,.02Z"/>
          <path class="cls-9" d="M1387.11,208.25s0-.02-.01-.03c0,0,.01,.02,.01,.03Z"/>
        </g>
        <g>
          <line class="cls-1" x1="1426.41" y1="185.53" x2="1386.96" y2="208.3"/>
          <line class="cls-1" x1="1386.96" y1="208.3" x2="1386.96" y2="256.91"/>
          <line class="cls-1" x1="1347.58" y1="185.53" x2="1386.96" y2="208.3"/>
        </g>
      </g>
      <path class="cls-12" d="M267.93,759.16c7.05-52.97,52.39-93.84,107.3-93.84,59.79,0,108.25,48.47,108.25,108.25,0,.14,0,.29,0,.43,1.47-.12,2.95-.2,4.44-.2,29.83,0,54.01,24.18,54.01,54.01,0,29.83-24.18,54.01-54.01,54.01-.77,0-1.53-.03-2.28-.06v.06h-110.39s-.01,0-.02,0c0,0-.01,0-.02,0h-77.76c-1.37,.09-2.75,.15-4.14,.15-35.36,0-64.02-28.66-64.02-64.02,0-26.34,15.92-48.96,38.65-58.79Z"/>
      <g>
        <path class="cls-9" d="M277.5,765.59c7.05-52.97,52.39-93.84,107.3-93.84,59.79,0,108.25,48.47,108.25,108.25,0,.14,0,.29,0,.43,1.47-.12,2.95-.2,4.44-.2,29.83,0,54.01,24.18,54.01,54.01,0,29.83-24.18,54.01-54.01,54.01-.77,0-1.53-.03-2.28-.06v.06h-110.39s-.01,0-.02,0c0,0-.01,0-.02,0h-77.76c-1.37,.09-2.75,.15-4.14,.15-35.36,0-64.02-28.66-64.02-64.02,0-26.34,15.92-48.96,38.65-58.79Z"/>
        <path class="cls-16" d="M362.06,785.45c0-12.88,10.44-23.32,23.32-23.32s23.32,10.44,23.32,23.32c0,9.08-5.2,16.93-12.77,20.78v23.09c0,5.8-4.75,10.55-10.55,10.55s-10.55-4.75-10.55-10.55v-23.09c-7.57-3.85-12.77-11.7-12.77-20.78Z"/>
      </g>
    </g>
  </g>
</svg>