<?xml version="1.0" encoding="UTF-8"?>
<svg viewBox="0 0 64 59" version="1.1" xmlns="http://www.w3.org/2000/svg" xmlns:xlink="http://www.w3.org/1999/xlink">
    <title>Group 15@1x</title>
    <g id="Widgets" stroke="none" stroke-width="1" fill="none" fill-rule="evenodd">
        <g id="Explore" transform="translate(-1310, -3394)" fill="#0066CC" fill-rule="nonzero">
            <g id="Group-15" transform="translate(1310, 3394)">
                <path d="M40.8525587,28.6208417 L40.8525714,28.6208417 C40.9828244,28.6208417 41.0884138,28.515246 41.0884138,28.384993 C41.0884138,28.25474 40.9828244,28.1491442 40.8525714,28.1491442 L40.8525587,28.1491442 C40.7223057,28.1491442 40.6167099,28.2547272 40.6167099,28.384993 C40.6167099,28.5152587 40.7223057,28.6208417 40.8525587,28.6208417 Z" id="Path"></path>
                <path d="M40.8525587,30.5076827 L40.8525714,30.5076827 C40.9827353,30.5076827 41.0884138,30.6133613 41.0884138,30.7435251 L41.0884138,30.743557 C41.0884138,30.8737208 40.9827353,30.9793994 40.8525714,30.9793994 L40.8525587,30.9793994 C40.7223884,30.9793994 40.6167099,30.8737208 40.6167099,30.7435506 L40.6167099,30.7435379 C40.6167099,30.6133676 40.7223884,30.5076827 40.8525587,30.5076827 L40.8525587,30.5076827 Z" id="Path"></path>
                <path d="M40.8525587,33.337957 L40.8525714,33.337957 C40.9828244,33.3379442 41.0884138,33.2323485 41.0884138,33.1020891 C41.0884138,32.9718297 40.9828244,32.8662404 40.8525714,32.8662404 L40.8525587,32.8662404 C40.7223057,32.8662404 40.6167099,32.9718361 40.6167099,33.1020891 C40.6167099,33.2323421 40.7223057,33.337957 40.8525587,33.337957 Z" id="Path"></path>
                <path d="M40.8525587,35.6964955 L40.8525714,35.6964955 C40.9828244,35.6964955 41.0884138,35.5908998 41.0884138,35.4606467 C41.0884138,35.3303937 40.9828244,35.224798 40.8525714,35.224798 L40.8525587,35.224798 C40.7223057,35.224798 40.6167099,35.3303937 40.6167099,35.4606467 C40.6167099,35.5908998 40.7223057,35.6964955 40.8525587,35.6964955 Z" id="Path"></path>
                <path d="M40.8525587,38.0550595 L40.8525714,38.0550595 C40.9828244,38.0550595 41.0884138,37.9494637 41.0884138,37.8192107 C41.0884138,37.6889577 40.9828244,37.583362 40.8525714,37.583362 L40.8525587,37.583362 C40.7223057,37.583362 40.6167099,37.6889577 40.6167099,37.8192107 C40.6167099,37.9494637 40.7223057,38.0550595 40.8525587,38.0550595 Z" id="Path"></path>
                <path d="M40.8525587,40.4136171 L40.8525714,40.4136171 C40.9828244,40.4136171 41.0884138,40.3080214 41.0884138,40.1777684 C41.0884138,40.0475153 40.9828244,39.9419196 40.8525714,39.9419005 L40.8525587,39.9419005 C40.7223057,39.9419005 40.6167099,40.0474962 40.6167099,40.1777684 C40.6167099,40.3080405 40.7223057,40.4136171 40.8525587,40.4136171 Z" id="Path"></path>
                <path d="M40.8525587,42.7721747 L40.8525714,42.7721747 C40.9828244,42.772162 41.0884138,42.6665663 41.0884138,42.5363069 C41.0884138,42.4060475 40.9828244,42.3004581 40.8525714,42.3004581 L40.8525587,42.3004581 C40.7223057,42.3004581 40.6167099,42.4060411 40.6167099,42.5363069 C40.6167099,42.6665726 40.7223057,42.7721747 40.8525587,42.7721747 Z" id="Path"></path>
                <path d="M40.8525587,45.1307133 L40.8525714,45.1307133 C40.9828244,45.1307133 41.0884138,45.0251175 41.0884138,44.8948645 C41.0884138,44.7646115 40.9828244,44.6590157 40.8525714,44.6589966 L40.8525587,44.6589966 C40.7223057,44.6589966 40.6167099,44.7645924 40.6167099,44.8948645 C40.6167099,45.0251366 40.7223057,45.1307133 40.8525587,45.1307133 Z" id="Path"></path>
                <path d="M40.8525587,47.0175606 L40.8525714,47.0175606 C40.9827353,47.0175606 41.0884138,47.1232392 41.0884138,47.253403 L41.0884138,47.2534349 C41.0884138,47.3835987 40.9827353,47.4892773 40.8525714,47.4892773 L40.8525587,47.4892773 C40.7223884,47.4892773 40.6167099,47.3835987 40.6167099,47.2534285 L40.6167099,47.2534158 C40.6167099,47.1232455 40.7223884,47.0175606 40.8525587,47.0175606 L40.8525587,47.0175606 Z" id="Path"></path>
                <path d="M40.8525587,49.8478349 L40.8525714,49.8478349 C40.9828244,49.8478221 41.0884138,49.7422264 41.0884138,49.611967 C41.0884138,49.4817076 40.9828244,49.3761183 40.8525714,49.3761183 L40.8525587,49.3761183 C40.7223057,49.3761183 40.6167099,49.481714 40.6167099,49.611967 C40.6167099,49.74222 40.7223057,49.8478349 40.8525587,49.8478349 Z" id="Path"></path>
                <path d="M38.494001,26.2622968 L38.4940138,26.2622968 C38.6242668,26.2622841 38.7298625,26.1567011 38.7298625,26.026429 C38.7298625,25.8961569 38.6242668,25.790593 38.4940138,25.7905802 L38.494001,25.7905802 C38.363748,25.7905802 38.2581523,25.896176 38.2581523,26.026429 C38.2581523,26.156682 38.363748,26.2622968 38.494001,26.2622968 Z" id="Path"></path>
                <path d="M39.6732767,27.4415725 C39.803536,27.4415725 39.9091318,27.3359767 39.9091318,27.2057046 C39.9091318,27.0754325 39.803536,26.9698559 39.6732767,26.9698559 C39.5430173,26.9698559 39.4374279,27.0754516 39.4374279,27.2057046 C39.4374279,27.3359576 39.5430237,27.4415725 39.6732767,27.4415725 Z" id="Path"></path>
                <path d="M38.494001,28.6208417 L38.4940138,28.6208417 C38.6242668,28.6208417 38.7298625,28.515246 38.7298625,28.384993 C38.7298625,28.25474 38.6242668,28.1491442 38.4940138,28.1491442 L38.494001,28.1491442 C38.363748,28.1491442 38.2581523,28.2547272 38.2581523,28.384993 C38.2581523,28.5152587 38.363748,28.6208417 38.494001,28.6208417 Z" id="Path"></path>
                <path d="M40.8525587,26.2622968 L40.8525714,26.2622968 C40.9828244,26.2622841 41.0884138,26.1567011 41.0884138,26.026429 C41.0884138,25.8961569 40.9828244,25.790593 40.8525714,25.7905802 L40.8525587,25.7905802 C40.7223057,25.7905802 40.6167099,25.896176 40.6167099,26.026429 C40.6167099,26.156682 40.7223057,26.2622968 40.8525587,26.2622968 Z" id="Path"></path>
                <path d="M39.6732767,29.8001174 C39.803536,29.8001174 39.9091318,29.6945216 39.9091318,29.5642686 C39.9091318,29.4340156 39.803536,29.3284007 39.6732767,29.3284007 C39.5430173,29.3284007 39.4374279,29.4339965 39.4374279,29.5642686 C39.4374279,29.6945407 39.5430237,29.8001174 39.6732767,29.8001174 Z" id="Path"></path>
                <rect id="Rectangle" x="38.2581523" y="30.5076827" width="1" height="1" rx="0.5"></rect>
                <path d="M39.6732767,32.158675 C39.803536,32.158675 39.9091318,32.0530792 39.9091318,31.9228071 C39.9091318,31.792535 39.803536,31.6869584 39.6732767,31.6869584 C39.5430173,31.6869584 39.4374279,31.7925541 39.4374279,31.9228071 C39.4374279,32.0530601 39.5430237,32.158675 39.6732767,32.158675 Z" id="Path"></path>
                <path d="M38.494001,33.337957 L38.4940138,33.337957 C38.6242668,33.3379442 38.7298625,33.2323485 38.7298625,33.1020891 C38.7298625,32.9718297 38.6242668,32.8662404 38.4940138,32.8662404 L38.494001,32.8662404 C38.363748,32.8662404 38.2581523,32.9718361 38.2581523,33.1020891 C38.2581523,33.2323421 38.363748,33.337957 38.494001,33.337957 Z" id="Path"></path>
                <path d="M39.6732767,34.5172326 C39.803536,34.5172326 39.9091318,34.4116369 39.9091318,34.2813647 C39.9091318,34.1510926 39.803536,34.045516 39.6732767,34.045516 C39.5430173,34.045516 39.4374279,34.1511117 39.4374279,34.2813647 C39.4374279,34.4116178 39.5430237,34.5172326 39.6732767,34.5172326 Z" id="Path"></path>
                <path d="M38.494001,35.6964955 L38.4940138,35.6964955 C38.6242668,35.6964955 38.7298625,35.5908998 38.7298625,35.4606467 C38.7298625,35.3303937 38.6242668,35.224798 38.4940138,35.224798 L38.494001,35.224798 C38.363748,35.224798 38.2581523,35.3303937 38.2581523,35.4606467 C38.2581523,35.5908998 38.363748,35.6964955 38.494001,35.6964955 Z" id="Path"></path>
                <path d="M39.6732767,36.8757775 C39.803536,36.8757775 39.9091318,36.7701817 39.9091318,36.6399287 C39.9091318,36.5096757 39.803536,36.40408 39.6732767,36.40408 C39.5430173,36.40408 39.4374279,36.5096757 39.4374279,36.6399287 C39.4374279,36.7701817 39.5430237,36.8757775 39.6732767,36.8757775 Z" id="Path"></path>
                <path d="M38.494001,38.0550595 L38.4940138,38.0550595 C38.6242668,38.0550595 38.7298625,37.9494637 38.7298625,37.8192107 C38.7298625,37.6889577 38.6242668,37.583362 38.4940138,37.583362 L38.494001,37.583362 C38.363748,37.583362 38.2581523,37.6889577 38.2581523,37.8192107 C38.2581523,37.9494637 38.363748,38.0550595 38.494001,38.0550595 Z" id="Path"></path>
                <path d="M39.6732767,39.2343351 C39.803536,39.2343351 39.9091318,39.1287394 39.9091318,38.9984864 C39.9091318,38.8682334 39.803536,38.7626185 39.6732767,38.7626185 C39.5430173,38.7626185 39.4374279,38.8682142 39.4374279,38.9984864 C39.4374279,39.1287585 39.5430237,39.2343351 39.6732767,39.2343351 Z" id="Path"></path>
                <path d="M38.494001,40.4136171 L38.4940138,40.4136171 C38.6242668,40.4136171 38.7298625,40.3080214 38.7298625,40.1777684 C38.7298625,40.0475153 38.6242668,39.9419196 38.4940138,39.9419005 L38.494001,39.9419005 C38.363748,39.9419005 38.2581523,40.0474962 38.2581523,40.1777684 C38.2581523,40.3080405 38.363748,40.4136171 38.494001,40.4136171 Z" id="Path"></path>
                <path d="M39.6732767,41.5928927 C39.803536,41.5928927 39.9091318,41.487297 39.9091318,41.3570249 C39.9091318,41.2267528 39.803536,41.1211761 39.6732767,41.1211761 C39.5430173,41.1211761 39.4374279,41.2267719 39.4374279,41.3570249 C39.4374279,41.4872779 39.5430237,41.5928927 39.6732767,41.5928927 Z" id="Path"></path>
                <path d="M38.494001,42.7721747 L38.4940138,42.7721747 C38.6242668,42.772162 38.7298625,42.6665663 38.7298625,42.5363069 C38.7298625,42.4060475 38.6242668,42.3004581 38.4940138,42.3004581 L38.494001,42.3004581 C38.363748,42.3004581 38.2581523,42.4060411 38.2581523,42.5363069 C38.2581523,42.6665726 38.363748,42.7721747 38.494001,42.7721747 Z" id="Path"></path>
                <path d="M39.6732767,43.9514504 C39.803536,43.9514504 39.9091318,43.8458546 39.9091318,43.7155825 C39.9091318,43.5853104 39.803536,43.4797338 39.6732767,43.4797338 C39.5430173,43.4797338 39.4374279,43.5853295 39.4374279,43.7155825 C39.4374279,43.8458355 39.5430237,43.9514504 39.6732767,43.9514504 Z" id="Path"></path>
                <path d="M38.494001,45.1307133 L38.4940138,45.1307133 C38.6242668,45.1307133 38.7298625,45.0251175 38.7298625,44.8948645 C38.7298625,44.7646115 38.6242668,44.6590157 38.4940138,44.6589966 L38.494001,44.6589966 C38.363748,44.6589966 38.2581523,44.7645924 38.2581523,44.8948645 C38.2581523,45.0251366 38.363748,45.1307133 38.494001,45.1307133 Z" id="Path"></path>
                <path d="M39.6732767,46.3099953 C39.803536,46.3099953 39.9091318,46.2043995 39.9091318,46.0741465 C39.9091318,45.9438935 39.803536,45.8382786 39.6732767,45.8382786 C39.5430173,45.8382786 39.4374279,45.9438744 39.4374279,46.0741465 C39.4374279,46.2044186 39.5430237,46.3099953 39.6732767,46.3099953 Z" id="Path"></path>
                <rect id="Rectangle" x="38.2581523" y="47.0175606" width="1" height="1" rx="0.5"></rect>
                <path d="M39.6732767,48.6685529 C39.803536,48.6685529 39.9091318,48.5629571 39.9091318,48.432685 C39.9091318,48.3024129 39.803536,48.1968363 39.6732767,48.1968363 C39.5430173,48.1968363 39.4374279,48.302432 39.4374279,48.432685 C39.4374279,48.562938 39.5430237,48.6685529 39.6732767,48.6685529 Z" id="Path"></path>
                <path d="M38.494001,49.8478349 L38.4940138,49.8478349 C38.6242668,49.8478221 38.7298625,49.7422264 38.7298625,49.611967 C38.7298625,49.4817076 38.6242668,49.3761183 38.4940138,49.3761183 L38.494001,49.3761183 C38.363748,49.3761183 38.2581523,49.481714 38.2581523,49.611967 C38.2581523,49.74222 38.363748,49.8478349 38.494001,49.8478349 Z" id="Path"></path>
                <path d="M36.1354562,26.2622968 C36.2657092,26.2622841 36.3713049,26.1567011 36.3713049,26.026429 C36.3713049,25.8961569 36.2657092,25.790593 36.1354562,25.7905802 C36.005184,25.7905802 35.8995883,25.896176 35.8995883,26.026429 C35.8995883,26.156682 36.005184,26.2622968 36.1354562,26.2622968 Z" id="Path"></path>
                <path d="M37.3147318,27.4415725 C37.4449912,27.4415725 37.5505869,27.3359767 37.5505869,27.2057046 C37.5505869,27.0754325 37.4449912,26.9698559 37.3147318,26.9698559 C37.1844724,26.9698559 37.0788767,27.0754516 37.0788767,27.2057046 C37.0788767,27.3359576 37.1844724,27.4415725 37.3147318,27.4415725 Z" id="Path"></path>
                <path d="M36.1354562,28.6208417 C36.2657092,28.6208417 36.3713049,28.515246 36.3713049,28.384993 C36.3713049,28.25474 36.2657092,28.1491442 36.1354562,28.1491442 C36.0052031,28.1491442 35.8995883,28.2547272 35.8995883,28.384993 C35.8995883,28.5152587 36.005184,28.6208417 36.1354562,28.6208417 Z" id="Path"></path>
                <path d="M37.3147318,29.8001174 C37.4449912,29.8001174 37.5505869,29.6945216 37.5505869,29.5642686 C37.5505869,29.4340156 37.4449912,29.3284007 37.3147318,29.3284007 C37.1844724,29.3284007 37.0788767,29.4339965 37.0788767,29.5642686 C37.0788767,29.6945407 37.1844724,29.8001174 37.3147318,29.8001174 Z" id="Path"></path>
                <path d="M35.8995947,30.7435506 C35.8995947,30.8738036 36.0051904,30.9793994 36.1354625,30.9793994 C36.2657155,30.9793866 36.3713113,30.8738036 36.3713113,30.7435506 L36.3713113,30.7435379 C36.3713113,30.6132849 36.2657155,30.5077018 36.1354625,30.5076891 C36.0051904,30.5076891 35.8995947,30.6132849 35.8995947,30.7435379 L35.8995947,30.7435506 Z" id="Path"></path>
                <path d="M37.3147318,32.158675 C37.4449912,32.158675 37.5505869,32.0530792 37.5505869,31.9228071 C37.5505869,31.792535 37.4449912,31.6869584 37.3147318,31.6869584 C37.1844724,31.6869584 37.0788767,31.7925541 37.0788767,31.9228071 C37.0788767,32.0530601 37.1844724,32.158675 37.3147318,32.158675 Z" id="Path"></path>
                <path d="M36.1354562,33.337957 C36.2657092,33.3379442 36.3713049,33.2323485 36.3713049,33.1020891 C36.3713049,32.9718297 36.2657092,32.8662404 36.1354562,32.8662404 C36.0052031,32.8662404 35.8995883,32.9718361 35.8995883,33.1020891 C35.8995883,33.2323421 36.005184,33.337957 36.1354562,33.337957 Z" id="Path"></path>
                <path d="M37.3147318,34.5172326 C37.4449912,34.5172326 37.5505869,34.4116369 37.5505869,34.2813647 C37.5505869,34.1510926 37.4449912,34.045516 37.3147318,34.045516 C37.1844724,34.045516 37.0788767,34.1511117 37.0788767,34.2813647 C37.0788767,34.4116178 37.1844724,34.5172326 37.3147318,34.5172326 Z" id="Path"></path>
                <path d="M36.1354562,35.6964955 C36.2657092,35.6964955 36.3713049,35.5908998 36.3713049,35.4606467 C36.3713049,35.3303937 36.2657092,35.224798 36.1354562,35.224798 C36.0052031,35.224798 35.8995883,35.3303937 35.8995883,35.4606467 C35.8995883,35.5908998 36.005184,35.6964955 36.1354562,35.6964955 Z" id="Path"></path>
                <circle id="Oval" cx="37.3147318" cy="36.6399287" r="1"></circle>
                <path d="M36.1354562,38.0550595 C36.2657092,38.0550595 36.3713049,37.9494637 36.3713049,37.8192107 C36.3713049,37.6889577 36.2657092,37.583362 36.1354562,37.583362 C36.0052031,37.583362 35.8995883,37.6889577 35.8995883,37.8192107 C35.8995883,37.9494637 36.005184,38.0550595 36.1354562,38.0550595 Z" id="Path"></path>
                <path d="M37.3147318,39.2343351 C37.4449912,39.2343351 37.5505869,39.1287394 37.5505869,38.9984864 C37.5505869,38.8682334 37.4449912,38.7626185 37.3147318,38.7626185 C37.1844724,38.7626185 37.0788767,38.8682142 37.0788767,38.9984864 C37.0788767,39.1287585 37.1844724,39.2343351 37.3147318,39.2343351 Z" id="Path"></path>
                <path d="M36.1354562,40.4136171 C36.2657092,40.4136171 36.3713049,40.3080214 36.3713049,40.1777684 C36.3713049,40.0475153 36.2657092,39.9419196 36.1354562,39.9419005 C36.005184,39.9419005 35.8995883,40.0474962 35.8995883,40.1777684 C35.8995883,40.3080405 36.005184,40.4136171 36.1354562,40.4136171 Z" id="Path"></path>
                <path d="M37.3147318,41.5928927 C37.4449912,41.5928927 37.5505869,41.487297 37.5505869,41.3570249 C37.5505869,41.2267528 37.4449912,41.1211761 37.3147318,41.1211761 C37.1844724,41.1211761 37.0788767,41.2267719 37.0788767,41.3570249 C37.0788767,41.4872779 37.1844724,41.5928927 37.3147318,41.5928927 Z" id="Path"></path>
                <path d="M36.1354562,42.7721747 C36.2657092,42.772162 36.3713049,42.6665663 36.3713049,42.5363069 C36.3713049,42.4060475 36.2657092,42.3004581 36.1354562,42.3004581 C36.0052031,42.3004581 35.8995883,42.4060411 35.8995883,42.5363069 C35.8995883,42.6665726 36.005184,42.7721747 36.1354562,42.7721747 Z" id="Path"></path>
                <path d="M37.3147318,43.9514504 C37.4449912,43.9514504 37.5505869,43.8458546 37.5505869,43.7155825 C37.5505869,43.5853104 37.4449912,43.4797338 37.3147318,43.4797338 C37.1844724,43.4797338 37.0788767,43.5853295 37.0788767,43.7155825 C37.0788767,43.8458355 37.1844724,43.9514504 37.3147318,43.9514504 Z" id="Path"></path>
                <path d="M36.1354562,45.1307133 C36.2657092,45.1307133 36.3713049,45.0251175 36.3713049,44.8948645 C36.3713049,44.7646115 36.2657092,44.6590157 36.1354562,44.6589966 C36.005184,44.6589966 35.8995883,44.7645924 35.8995883,44.8948645 C35.8995883,45.0251366 36.005184,45.1307133 36.1354562,45.1307133 Z" id="Path"></path>
                <path d="M37.3147318,46.3099953 C37.4449912,46.3099953 37.5505869,46.2043995 37.5505869,46.0741465 C37.5505869,45.9438935 37.4449912,45.8382786 37.3147318,45.8382786 C37.1844724,45.8382786 37.0788767,45.9438744 37.0788767,46.0741465 C37.0788767,46.2044186 37.1844724,46.3099953 37.3147318,46.3099953 Z" id="Path"></path>
                <path d="M35.8995947,47.2534221 C35.8995947,47.3836751 36.0051904,47.4892709 36.1354625,47.4892709 C36.2657155,47.4892581 36.3713113,47.3836751 36.3713113,47.2534221 L36.3713113,47.2534094 C36.3713113,47.1231564 36.2657155,47.0175734 36.1354625,47.0175606 C36.0051904,47.0175606 35.8995947,47.1231564 35.8995947,47.2534094 L35.8995947,47.2534221 Z" id="Path"></path>
                <path d="M37.3147318,48.6685529 C37.4449912,48.6685529 37.5505869,48.5629571 37.5505869,48.432685 C37.5505869,48.3024129 37.4449912,48.1968363 37.3147318,48.1968363 C37.1844724,48.1968363 37.0788767,48.302432 37.0788767,48.432685 C37.0788767,48.562938 37.1844724,48.6685529 37.3147318,48.6685529 Z" id="Path"></path>
                <path d="M36.1354562,49.8478349 C36.2657092,49.8478221 36.3713049,49.7422264 36.3713049,49.611967 C36.3713049,49.4817076 36.2657092,49.3761183 36.1354562,49.3761183 C36.0052031,49.3761183 35.8995883,49.481714 35.8995883,49.611967 C35.8995883,49.74222 36.005184,49.8478349 36.1354562,49.8478349 Z" id="Path"></path>
                <path d="M33.7768985,26.2622968 L33.7769049,26.2622968 C33.9071579,26.2622841 34.0127473,26.1567011 34.0127473,26.026429 C34.0127473,25.8961569 33.9071579,25.790593 33.7769049,25.7905802 L33.7768985,25.7905802 C33.6466392,25.7905802 33.5410434,25.896176 33.5410434,26.026429 C33.5410434,26.156682 33.6466392,26.2622968 33.7768985,26.2622968 Z" id="Path"></path>
                <path d="M34.9561805,27.4415725 C35.0864335,27.4415725 35.1920293,27.3359767 35.1920293,27.2057046 C35.1920293,27.0754325 35.0864335,26.9698559 34.9561805,26.9698559 C34.8259275,26.9698559 34.7203254,27.0754516 34.7203254,27.2057046 C34.7203254,27.3359576 34.8259211,27.4415725 34.9561805,27.4415725 Z" id="Path"></path>
                <path d="M33.7768985,28.6208417 L33.7769049,28.6208417 C33.9071579,28.6208417 34.0127473,28.515246 34.0127473,28.384993 C34.0127473,28.25474 33.9071579,28.1491442 33.7769049,28.1491442 L33.7768985,28.1491442 C33.6466392,28.1491442 33.5410434,28.2547272 33.5410434,28.384993 C33.5410434,28.5152587 33.6466392,28.6208417 33.7768985,28.6208417 Z" id="Path"></path>
                <path d="M34.9561805,29.8001174 C35.0864335,29.8001174 35.1920293,29.6945216 35.1920293,29.5642686 C35.1920293,29.4340156 35.0864335,29.3284007 34.9561805,29.3284007 C34.8259275,29.3284007 34.7203254,29.4339965 34.7203254,29.5642686 C34.7203254,29.6945407 34.8259211,29.8001174 34.9561805,29.8001174 Z" id="Path"></path>
                <path d="M33.7768985,30.5076827 L33.7769049,30.5076827 C33.9070688,30.5076827 34.0127473,30.6133613 34.0127473,30.7435251 L34.0127473,30.743557 C34.0127473,30.8737208 33.9070688,30.9793994 33.7769049,30.9793994 L33.7768985,30.9793994 C33.6467283,30.9793994 33.5410434,30.8737145 33.5410434,30.7435442 L33.5410434,30.7435442 C33.5410434,30.6133676 33.6467283,30.5076827 33.7768985,30.5076827 L33.7768985,30.5076827 Z" id="Path"></path>
                <path d="M34.9561805,32.158675 C35.0864335,32.158675 35.1920293,32.0530792 35.1920293,31.9228071 C35.1920293,31.792535 35.0864335,31.6869584 34.9561805,31.6869584 C34.8259275,31.6869584 34.7203254,31.7925541 34.7203254,31.9228071 C34.7203254,32.0530601 34.8259211,32.158675 34.9561805,32.158675 Z" id="Path"></path>
                <path d="M33.7768985,33.337957 L33.7769049,33.337957 C33.9071579,33.3379442 34.0127473,33.2323485 34.0127473,33.1020891 C34.0127473,32.9718297 33.9071579,32.8662404 33.7769049,32.8662404 L33.7768985,32.8662404 C33.6466392,32.8662404 33.5410434,32.9718361 33.5410434,33.1020891 C33.5410434,33.2323421 33.6466392,33.337957 33.7768985,33.337957 Z" id="Path"></path>
                <path d="M34.9561805,34.5172326 C35.0864335,34.5172326 35.1920293,34.4116369 35.1920293,34.2813647 C35.1920293,34.1510926 35.0864335,34.045516 34.9561805,34.045516 C34.8259275,34.045516 34.7203254,34.1511117 34.7203254,34.2813647 C34.7203254,34.4116178 34.8259211,34.5172326 34.9561805,34.5172326 Z" id="Path"></path>
                <path d="M33.7768985,35.6964955 L33.7769049,35.6964955 C33.9071579,35.6964955 34.0127473,35.5908998 34.0127473,35.4606467 C34.0127473,35.3303937 33.9071579,35.224798 33.7769049,35.224798 L33.7768985,35.224798 C33.6466392,35.224798 33.5410434,35.3303937 33.5410434,35.4606467 C33.5410434,35.5908998 33.6466392,35.6964955 33.7768985,35.6964955 Z" id="Path"></path>
                <path d="M34.9561805,36.8757775 C35.0864335,36.8757775 35.1920293,36.7701817 35.1920293,36.6399287 C35.1920293,36.5096757 35.0864335,36.40408 34.9561805,36.40408 C34.8259275,36.40408 34.7203254,36.5096757 34.7203254,36.6399287 C34.7203254,36.7701817 34.8259211,36.8757775 34.9561805,36.8757775 Z" id="Path"></path>
                <path d="M33.7768985,38.0550595 L33.7769049,38.0550595 C33.9071579,38.0550595 34.0127473,37.9494637 34.0127473,37.8192107 C34.0127473,37.6889577 33.9071579,37.583362 33.7769049,37.583362 L33.7768985,37.583362 C33.6466392,37.583362 33.5410434,37.6889577 33.5410434,37.8192107 C33.5410434,37.9494637 33.6466392,38.0550595 33.7768985,38.0550595 Z" id="Path"></path>
                <path d="M34.9561805,39.2343351 C35.0864335,39.2343351 35.1920293,39.1287394 35.1920293,38.9984864 C35.1920293,38.8682334 35.0864335,38.7626185 34.9561805,38.7626185 C34.8259275,38.7626185 34.7203254,38.8682142 34.7203254,38.9984864 C34.7203254,39.1287585 34.8259211,39.2343351 34.9561805,39.2343351 Z" id="Path"></path>
                <path d="M33.7768985,40.4136171 L33.7769049,40.4136171 C33.9071579,40.4136171 34.0127473,40.3080214 34.0127473,40.1777684 C34.0127473,40.0475153 33.9071579,39.9419196 33.7769049,39.9419005 L33.7768985,39.9419005 C33.6466392,39.9419005 33.5410434,40.0474962 33.5410434,40.1777684 C33.5410434,40.3080405 33.6466392,40.4136171 33.7768985,40.4136171 Z" id="Path"></path>
                <path d="M34.9561805,41.5928927 C35.0864335,41.5928927 35.1920293,41.487297 35.1920293,41.3570249 C35.1920293,41.2267528 35.0864335,41.1211761 34.9561805,41.1211761 C34.8259275,41.1211761 34.7203254,41.2267719 34.7203254,41.3570249 C34.7203254,41.4872779 34.8259211,41.5928927 34.9561805,41.5928927 Z" id="Path"></path>
                <path d="M33.7768985,42.7721747 L33.7769049,42.7721747 C33.9071579,42.772162 34.0127473,42.6665663 34.0127473,42.5363069 C34.0127473,42.4060475 33.9071579,42.3004581 33.7769049,42.3004581 L33.7768985,42.3004581 C33.6466392,42.3004581 33.5410434,42.4060411 33.5410434,42.5363069 C33.5410434,42.6665726 33.6466392,42.7721747 33.7768985,42.7721747 Z" id="Path"></path>
                <path d="M34.9561805,43.9514504 C35.0864335,43.9514504 35.1920293,43.8458546 35.1920293,43.7155825 C35.1920293,43.5853104 35.0864335,43.4797338 34.9561805,43.4797338 C34.8259275,43.4797338 34.7203254,43.5853295 34.7203254,43.7155825 C34.7203254,43.8458355 34.8259211,43.9514504 34.9561805,43.9514504 Z" id="Path"></path>
                <path d="M33.7768985,45.1307133 L33.7769049,45.1307133 C33.9071579,45.1307133 34.0127473,45.0251175 34.0127473,44.8948645 C34.0127473,44.7646115 33.9071579,44.6590157 33.7769049,44.6589966 L33.7768985,44.6589966 C33.6466392,44.6589966 33.5410434,44.7645924 33.5410434,44.8948645 C33.5410434,45.0251366 33.6466392,45.1307133 33.7768985,45.1307133 Z" id="Path"></path>
                <path d="M34.9561805,46.3099953 C35.0864335,46.3099953 35.1920293,46.2043995 35.1920293,46.0741465 C35.1920293,45.9438935 35.0864335,45.8382786 34.9561805,45.8382786 C34.8259275,45.8382786 34.7203254,45.9438744 34.7203254,46.0741465 C34.7203254,46.2044186 34.8259211,46.3099953 34.9561805,46.3099953 Z" id="Path"></path>
                <path d="M33.7768985,47.0175606 L33.7769049,47.0175606 C33.9070688,47.0175606 34.0127473,47.1232392 34.0127473,47.253403 L34.0127473,47.2534349 C34.0127473,47.3835987 33.9070688,47.4892773 33.7769049,47.4892773 L33.7768985,47.4892773 C33.6467283,47.4892773 33.5410434,47.3835924 33.5410434,47.2534221 L33.5410434,47.2534221 C33.5410434,47.1232455 33.6467283,47.0175606 33.7768985,47.0175606 L33.7768985,47.0175606 Z" id="Path"></path>
                <path d="M34.9561805,48.6685529 C35.0864335,48.6685529 35.1920293,48.5629571 35.1920293,48.432685 C35.1920293,48.3024129 35.0864335,48.1968363 34.9561805,48.1968363 C34.8259275,48.1968363 34.7203254,48.302432 34.7203254,48.432685 C34.7203254,48.562938 34.8259211,48.6685529 34.9561805,48.6685529 Z" id="Path"></path>
                <path d="M33.7768985,49.8478349 L33.7769049,49.8478349 C33.9071579,49.8478221 34.0127473,49.7422264 34.0127473,49.611967 C34.0127473,49.4817076 33.9071579,49.3761183 33.7769049,49.3761183 L33.7768985,49.3761183 C33.6466392,49.3761183 33.5410434,49.481714 33.5410434,49.611967 C33.5410434,49.74222 33.6466392,49.8478349 33.7768985,49.8478349 Z" id="Path"></path>
                <path d="M31.4183409,26.2622968 L31.4183536,26.2622968 C31.5486067,26.2622841 31.654196,26.1567011 31.654196,26.026429 C31.654196,25.8961569 31.5486067,25.790593 31.4183536,25.7905802 L31.4183409,25.7905802 C31.2880879,25.7905802 31.1824921,25.896176 31.1824921,26.026429 C31.1824921,26.156682 31.2880879,26.2622968 31.4183409,26.2622968 Z" id="Path"></path>
                <path d="M32.5976229,27.4415725 C32.7278823,27.4415725 32.833478,27.3359767 32.833478,27.2057046 C32.833478,27.0754325 32.7278823,26.9698559 32.5976229,26.9698559 C32.4673635,26.9698559 32.3617741,27.0754516 32.3617741,27.2057046 C32.3617741,27.3359576 32.4673699,27.4415725 32.5976229,27.4415725 Z" id="Path"></path>
                <path d="M31.4183409,28.6208417 L31.4183536,28.6208417 C31.5486067,28.6208417 31.654196,28.515246 31.654196,28.384993 C31.654196,28.25474 31.5486067,28.1491442 31.4183536,28.1491442 L31.4183409,28.1491442 C31.2880879,28.1491442 31.1824921,28.2547272 31.1824921,28.384993 C31.1824921,28.5152587 31.2880879,28.6208417 31.4183409,28.6208417 Z" id="Path"></path>
                <path d="M32.5976229,29.8001174 C32.7278823,29.8001174 32.833478,29.6945216 32.833478,29.5642686 C32.833478,29.4340156 32.7278823,29.3284007 32.5976229,29.3284007 C32.4673635,29.3284007 32.3617741,29.4339965 32.3617741,29.5642686 C32.3617741,29.6945407 32.4673699,29.8001174 32.5976229,29.8001174 Z" id="Path"></path>
                <path d="M31.4183409,30.5076827 L31.4183536,30.5076827 C31.5485175,30.5076827 31.654196,30.6133613 31.654196,30.7435251 L31.654196,30.743557 C31.654196,30.8737208 31.5485175,30.9793994 31.4183536,30.9793994 L31.4183409,30.9793994 C31.2881707,30.9793994 31.1824921,30.8737208 31.1824921,30.7435506 L31.1824921,30.7435379 C31.1824921,30.6133676 31.2881707,30.5076827 31.4183409,30.5076827 L31.4183409,30.5076827 Z" id="Path"></path>
                <path d="M32.5976229,32.158675 C32.7278823,32.158675 32.833478,32.0530792 32.833478,31.9228071 C32.833478,31.792535 32.7278823,31.6869584 32.5976229,31.6869584 C32.4673635,31.6869584 32.3617741,31.7925541 32.3617741,31.9228071 C32.3617741,32.0530601 32.4673699,32.158675 32.5976229,32.158675 Z" id="Path"></path>
                <path d="M31.4183409,33.337957 L31.4183536,33.337957 C31.5486067,33.3379442 31.654196,33.2323485 31.654196,33.1020891 C31.654196,32.9718297 31.5486067,32.8662404 31.4183536,32.8662404 L31.4183409,32.8662404 C31.2880879,32.8662404 31.1824921,32.9718361 31.1824921,33.1020891 C31.1824921,33.2323421 31.2880879,33.337957 31.4183409,33.337957 Z" id="Path"></path>
                <path d="M32.5976229,34.5172326 C32.7278823,34.5172326 32.833478,34.4116369 32.833478,34.2813647 C32.833478,34.1510926 32.7278823,34.045516 32.5976229,34.045516 C32.4673635,34.045516 32.3617741,34.1511117 32.3617741,34.2813647 C32.3617741,34.4116178 32.4673699,34.5172326 32.5976229,34.5172326 Z" id="Path"></path>
                <path d="M31.4183409,35.6964955 L31.4183536,35.6964955 C31.5486067,35.6964955 31.654196,35.5908998 31.654196,35.4606467 C31.654196,35.3303937 31.5486067,35.224798 31.4183536,35.224798 L31.4183409,35.224798 C31.2880879,35.224798 31.1824921,35.3303937 31.1824921,35.4606467 C31.1824921,35.5908998 31.2880879,35.6964955 31.4183409,35.6964955 Z" id="Path"></path>
                <path d="M32.5976229,36.8757775 C32.7278823,36.8757775 32.833478,36.7701817 32.833478,36.6399287 C32.833478,36.5096757 32.7278823,36.40408 32.5976229,36.40408 C32.4673635,36.40408 32.3617741,36.5096757 32.3617741,36.6399287 C32.3617741,36.7701817 32.4673699,36.8757775 32.5976229,36.8757775 Z" id="Path"></path>
                <path d="M31.4183409,38.0550595 L31.4183536,38.0550595 C31.5486067,38.0550595 31.654196,37.9494637 31.654196,37.8192107 C31.654196,37.6889577 31.5486067,37.583362 31.4183536,37.583362 L31.4183409,37.583362 C31.2880879,37.583362 31.1824921,37.6889577 31.1824921,37.8192107 C31.1824921,37.9494637 31.2880879,38.0550595 31.4183409,38.0550595 Z" id="Path"></path>
                <path d="M32.5976229,39.2343351 C32.7278823,39.2343351 32.833478,39.1287394 32.833478,38.9984864 C32.833478,38.8682334 32.7278823,38.7626185 32.5976229,38.7626185 C32.4673635,38.7626185 32.3617741,38.8682142 32.3617741,38.9984864 C32.3617741,39.1287585 32.4673699,39.2343351 32.5976229,39.2343351 Z" id="Path"></path>
                <path d="M31.4183409,40.4136171 L31.4183536,40.4136171 C31.5486067,40.4136171 31.654196,40.3080214 31.654196,40.1777684 C31.654196,40.0475153 31.5486067,39.9419196 31.4183536,39.9419005 L31.4183409,39.9419005 C31.2880879,39.9419005 31.1824921,40.0474962 31.1824921,40.1777684 C31.1824921,40.3080405 31.2880879,40.4136171 31.4183409,40.4136171 Z" id="Path"></path>
                <path d="M32.5976229,41.5928927 C32.7278823,41.5928927 32.833478,41.487297 32.833478,41.3570249 C32.833478,41.2267528 32.7278823,41.1211761 32.5976229,41.1211761 C32.4673635,41.1211761 32.3617741,41.2267719 32.3617741,41.3570249 C32.3617741,41.4872779 32.4673699,41.5928927 32.5976229,41.5928927 Z" id="Path"></path>
                <path d="M31.4183409,42.7721747 L31.4183536,42.7721747 C31.5486067,42.772162 31.654196,42.6665663 31.654196,42.5363069 C31.654196,42.4060475 31.5486067,42.3004581 31.4183536,42.3004581 L31.4183409,42.3004581 C31.2880879,42.3004581 31.1824921,42.4060411 31.1824921,42.5363069 C31.1824921,42.6665726 31.2880879,42.7721747 31.4183409,42.7721747 Z" id="Path"></path>
                <path d="M32.5976229,43.9514504 C32.7278823,43.9514504 32.833478,43.8458546 32.833478,43.7155825 C32.833478,43.5853104 32.7278823,43.4797338 32.5976229,43.4797338 C32.4673635,43.4797338 32.3617741,43.5853295 32.3617741,43.7155825 C32.3617741,43.8458355 32.4673699,43.9514504 32.5976229,43.9514504 Z" id="Path"></path>
                <path d="M31.4183409,45.1307133 L31.4183536,45.1307133 C31.5486067,45.1307133 31.654196,45.0251175 31.654196,44.8948645 C31.654196,44.7646115 31.5486067,44.6590157 31.4183536,44.6589966 L31.4183409,44.6589966 C31.2880879,44.6589966 31.1824921,44.7645924 31.1824921,44.8948645 C31.1824921,45.0251366 31.2880879,45.1307133 31.4183409,45.1307133 Z" id="Path"></path>
                <path d="M32.5976229,46.3099953 C32.7278823,46.3099953 32.833478,46.2043995 32.833478,46.0741465 C32.833478,45.9438935 32.7278823,45.8382786 32.5976229,45.8382786 C32.4673635,45.8382786 32.3617741,45.9438744 32.3617741,46.0741465 C32.3617741,46.2044186 32.4673699,46.3099953 32.5976229,46.3099953 Z" id="Path"></path>
                <path d="M31.4183409,47.0175606 L31.4183536,47.0175606 C31.5485175,47.0175606 31.654196,47.1232392 31.654196,47.253403 L31.654196,47.2534349 C31.654196,47.3835987 31.5485175,47.4892773 31.4183536,47.4892773 L31.4183409,47.4892773 C31.2881707,47.4892773 31.1824921,47.3835987 31.1824921,47.2534285 L31.1824921,47.2534158 C31.1824921,47.1232455 31.2881707,47.0175606 31.4183409,47.0175606 L31.4183409,47.0175606 Z" id="Path"></path>
                <path d="M32.5976229,48.6685529 C32.7278823,48.6685529 32.833478,48.5629571 32.833478,48.432685 C32.833478,48.3024129 32.7278823,48.1968363 32.5976229,48.1968363 C32.4673635,48.1968363 32.3617741,48.302432 32.3617741,48.432685 C32.3617741,48.562938 32.4673699,48.6685529 32.5976229,48.6685529 Z" id="Path"></path>
                <path d="M31.4183409,49.8478349 L31.4183536,49.8478349 C31.5486067,49.8478221 31.654196,49.7422264 31.654196,49.611967 C31.654196,49.4817076 31.5486067,49.3761183 31.4183536,49.3761183 L31.4183409,49.3761183 C31.2880879,49.3761183 31.1824921,49.481714 31.1824921,49.611967 C31.1824921,49.74222 31.2880879,49.8478349 31.4183409,49.8478349 Z" id="Path"></path>
                <path d="M30.239078,27.4415725 C30.369331,27.4415725 30.4749268,27.3359767 30.4749268,27.2057046 C30.4749268,27.0754325 30.369331,26.9698559 30.239078,26.9698559 C30.108825,26.9698559 30.0032102,27.0754516 30.0032102,27.2057046 C30.0032102,27.3359576 30.1088059,27.4415725 30.239078,27.4415725 Z" id="Path"></path>
                <path d="M29.059796,28.6208417 C29.190049,28.6208417 29.2956448,28.515246 29.2956448,28.384993 C29.2956448,28.25474 29.190049,28.1491442 29.059796,28.1491442 C28.929543,28.1491442 28.8239282,28.2547272 28.8239282,28.384993 C28.8239282,28.5152587 28.9295239,28.6208417 29.059796,28.6208417 Z" id="Path"></path>
                <path d="M30.239078,29.8001174 C30.369331,29.8001174 30.4749268,29.6945216 30.4749268,29.5642686 C30.4749268,29.4340156 30.369331,29.3284007 30.239078,29.3284007 C30.108825,29.3284007 30.0032102,29.4339965 30.0032102,29.5642686 C30.0032102,29.6945407 30.1088059,29.8001174 30.239078,29.8001174 Z" id="Path"></path>
                <path d="M28.8239345,30.7435506 C28.8239345,30.8738036 28.9295303,30.9793994 29.0598024,30.9793994 C29.1900554,30.9793866 29.2956511,30.8738036 29.2956511,30.7435506 L29.2956511,30.7435379 C29.2956511,30.6132849 29.1900554,30.5077018 29.0598024,30.5076891 C28.9295303,30.5076891 28.8239345,30.6132849 28.8239345,30.7435379 L28.8239345,30.7435506 Z" id="Path"></path>
                <path d="M30.239078,32.158675 C30.369331,32.158675 30.4749268,32.0530792 30.4749268,31.9228071 C30.4749268,31.792535 30.369331,31.6869584 30.239078,31.6869584 C30.108825,31.6869584 30.0032102,31.7925541 30.0032102,31.9228071 C30.0032102,32.0530601 30.1088059,32.158675 30.239078,32.158675 Z" id="Path"></path>
                <path d="M29.059796,33.337957 C29.190049,33.3379442 29.2956448,33.2323485 29.2956448,33.1020891 C29.2956448,32.9718297 29.190049,32.8662404 29.059796,32.8662404 C28.929543,32.8662404 28.8239282,32.9718361 28.8239282,33.1020891 C28.8239282,33.2323421 28.9295239,33.337957 29.059796,33.337957 Z" id="Path"></path>
                <path d="M30.239078,34.5172326 C30.369331,34.5172326 30.4749268,34.4116369 30.4749268,34.2813647 C30.4749268,34.1510926 30.369331,34.045516 30.239078,34.045516 C30.108825,34.045516 30.0032102,34.1511117 30.0032102,34.2813647 C30.0032102,34.4116178 30.1088059,34.5172326 30.239078,34.5172326 Z" id="Path"></path>
                <path d="M29.059796,35.6964955 C29.190049,35.6964955 29.2956448,35.5908998 29.2956448,35.4606467 C29.2956448,35.3303937 29.190049,35.224798 29.059796,35.224798 C28.929543,35.224798 28.8239282,35.3303937 28.8239282,35.4606467 C28.8239282,35.5908998 28.9295239,35.6964955 29.059796,35.6964955 Z" id="Path"></path>
                <path d="M30.239078,36.8757775 C30.369331,36.8757775 30.4749268,36.7701817 30.4749268,36.6399287 C30.4749268,36.5096757 30.369331,36.40408 30.239078,36.40408 C30.108825,36.40408 30.0032102,36.5096757 30.0032102,36.6399287 C30.0032102,36.7701817 30.1088059,36.8757775 30.239078,36.8757775 Z" id="Path"></path>
                <path d="M29.059796,38.0550595 C29.190049,38.0550595 29.2956448,37.9494637 29.2956448,37.8192107 C29.2956448,37.6889577 29.190049,37.583362 29.059796,37.583362 C28.929543,37.583362 28.8239282,37.6889577 28.8239282,37.8192107 C28.8239282,37.9494637 28.9295239,38.0550595 29.059796,38.0550595 Z" id="Path"></path>
                <path d="M30.239078,39.2343351 C30.369331,39.2343351 30.4749268,39.1287394 30.4749268,38.9984864 C30.4749268,38.8682334 30.369331,38.7626185 30.239078,38.7626185 C30.108825,38.7626185 30.0032102,38.8682142 30.0032102,38.9984864 C30.0032102,39.1287585 30.1088059,39.2343351 30.239078,39.2343351 Z" id="Path"></path>
                <path d="M29.059796,40.4136171 C29.190049,40.4136171 29.2956448,40.3080214 29.2956448,40.1777684 C29.2956448,40.0475153 29.190049,39.9419196 29.059796,39.9419005 C28.9295239,39.9419005 28.8239282,40.0474962 28.8239282,40.1777684 C28.8239282,40.3080405 28.9295239,40.4136171 29.059796,40.4136171 Z" id="Path"></path>
                <path d="M30.239078,41.5928927 C30.369331,41.5928927 30.4749268,41.487297 30.4749268,41.3570249 C30.4749268,41.2267528 30.369331,41.1211761 30.239078,41.1211761 C30.108825,41.1211761 30.0032102,41.2267719 30.0032102,41.3570249 C30.0032102,41.4872779 30.1088059,41.5928927 30.239078,41.5928927 Z" id="Path"></path>
                <path d="M29.059796,42.7721747 C29.190049,42.772162 29.2956448,42.6665663 29.2956448,42.5363069 C29.2956448,42.4060475 29.190049,42.3004581 29.059796,42.3004581 C28.929543,42.3004581 28.8239282,42.4060411 28.8239282,42.5363069 C28.8239282,42.6665726 28.9295239,42.7721747 29.059796,42.7721747 Z" id="Path"></path>
                <path d="M30.239078,43.9514504 C30.369331,43.9514504 30.4749268,43.8458546 30.4749268,43.7155825 C30.4749268,43.5853104 30.369331,43.4797338 30.239078,43.4797338 C30.108825,43.4797338 30.0032102,43.5853295 30.0032102,43.7155825 C30.0032102,43.8458355 30.1088059,43.9514504 30.239078,43.9514504 Z" id="Path"></path>
                <path d="M29.059796,45.1307133 C29.190049,45.1307133 29.2956448,45.0251175 29.2956448,44.8948645 C29.2956448,44.7646115 29.190049,44.6590157 29.059796,44.6589966 C28.9295239,44.6589966 28.8239282,44.7645924 28.8239282,44.8948645 C28.8239282,45.0251366 28.9295239,45.1307133 29.059796,45.1307133 Z" id="Path"></path>
                <path d="M30.239078,46.3099953 C30.369331,46.3099953 30.4749268,46.2043995 30.4749268,46.0741465 C30.4749268,45.9438935 30.369331,45.8382786 30.239078,45.8382786 C30.108825,45.8382786 30.0032102,45.9438744 30.0032102,46.0741465 C30.0032102,46.2044186 30.1088059,46.3099953 30.239078,46.3099953 Z" id="Path"></path>
                <path d="M28.8239345,47.2534221 C28.8239345,47.3836751 28.9295303,47.4892709 29.0598024,47.4892709 C29.1900554,47.4892581 29.2956511,47.3836751 29.2956511,47.2534221 L29.2956511,47.2534094 C29.2956511,47.1231564 29.1900554,47.0175734 29.0598024,47.0175606 C28.9295303,47.0175606 28.8239345,47.1231564 28.8239345,47.2534094 L28.8239345,47.2534221 Z" id="Path"></path>
                <path d="M30.239078,48.6685529 C30.369331,48.6685529 30.4749268,48.5629571 30.4749268,48.432685 C30.4749268,48.3024129 30.369331,48.1968363 30.239078,48.1968363 C30.108825,48.1968363 30.0032102,48.302432 30.0032102,48.432685 C30.0032102,48.562938 30.1088059,48.6685529 30.239078,48.6685529 Z" id="Path"></path>
                <path d="M29.059796,49.8478349 C29.190049,49.8478221 29.2956448,49.7422264 29.2956448,49.611967 C29.2956448,49.4817076 29.190049,49.3761183 29.059796,49.3761183 C28.929543,49.3761183 28.8239282,49.481714 28.8239282,49.611967 C28.8239282,49.74222 28.9295239,49.8478349 29.059796,49.8478349 Z" id="Path"></path>
                <path d="M27.8805204,29.8001174 C28.0107734,29.8001174 28.1163691,29.6945216 28.1163691,29.5642686 C28.1163691,29.4340156 28.0107734,29.3284007 27.8805204,29.3284007 C27.7502674,29.3284007 27.6446525,29.4339965 27.6446525,29.5642686 C27.6446525,29.6945407 27.7502483,29.8001174 27.8805204,29.8001174 Z" id="Path"></path>
                <path d="M26.7012384,30.9793994 C26.8315105,30.9793866 26.9370871,30.8738036 26.9370871,30.7435506 L26.9370871,30.7435379 C26.9370871,30.6132849 26.8315041,30.5077018 26.7012384,30.5076891 C26.5709854,30.5076891 26.4653896,30.6132849 26.4653896,30.7435379 L26.4653896,30.7435506 C26.4653896,30.8738036 26.5709854,30.9793994 26.7012384,30.9793994 Z" id="Path"></path>
                <path d="M27.8805204,32.158675 C28.0107734,32.158675 28.1163691,32.0530792 28.1163691,31.9228071 C28.1163691,31.792535 28.0107734,31.6869584 27.8805204,31.6869584 C27.7502674,31.6869584 27.6446525,31.7925541 27.6446525,31.9228071 C27.6446525,32.0530601 27.7502483,32.158675 27.8805204,32.158675 Z" id="Path"></path>
                <path d="M26.7012384,33.337957 C26.8315105,33.3379442 26.9370871,33.2323485 26.9370871,33.1020891 C26.9370871,32.9718297 26.8315041,32.8662404 26.7012384,32.8662404 C26.5709726,32.8662404 26.4653896,32.9718361 26.4653896,33.1020891 C26.4653896,33.2323421 26.5709854,33.337957 26.7012384,33.337957 Z" id="Path"></path>
                <path d="M27.8805204,34.5172326 C28.0107734,34.5172326 28.1163691,34.4116369 28.1163691,34.2813647 C28.1163691,34.1510926 28.0107734,34.045516 27.8805204,34.045516 C27.7502674,34.045516 27.6446525,34.1511117 27.6446525,34.2813647 C27.6446525,34.4116178 27.7502483,34.5172326 27.8805204,34.5172326 Z" id="Path"></path>
                <circle id="Oval" cx="26.7012384" cy="35.4606467" r="1"></circle>
                <path d="M27.8805204,36.8757775 C28.0107734,36.8757775 28.1163691,36.7701817 28.1163691,36.6399287 C28.1163691,36.5096757 28.0107734,36.40408 27.8805204,36.40408 C27.7502674,36.40408 27.6446525,36.5096757 27.6446525,36.6399287 C27.6446525,36.7701817 27.7502483,36.8757775 27.8805204,36.8757775 Z" id="Path"></path>
                <circle id="Oval" cx="26.7012384" cy="37.8192044" r="1"></circle>
                <path d="M27.8805204,39.2343351 C28.0107734,39.2343351 28.1163691,39.1287394 28.1163691,38.9984864 C28.1163691,38.8682334 28.0107734,38.7626185 27.8805204,38.7626185 C27.7502674,38.7626185 27.6446525,38.8682142 27.6446525,38.9984864 C27.6446525,39.1287585 27.7502483,39.2343351 27.8805204,39.2343351 Z" id="Path"></path>
                <path d="M26.7012384,40.4136171 C26.8315105,40.4136171 26.9370871,40.3080214 26.9370871,40.1777684 C26.9370871,40.0475153 26.8315041,39.9419196 26.7012384,39.9419005 C26.5709854,39.9419005 26.4653896,40.0474962 26.4653896,40.1777684 C26.4653896,40.3080405 26.5709854,40.4136171 26.7012384,40.4136171 Z" id="Path"></path>
                <path d="M27.8805204,41.5928927 C28.0107734,41.5928927 28.1163691,41.487297 28.1163691,41.3570249 C28.1163691,41.2267528 28.0107734,41.1211761 27.8805204,41.1211761 C27.7502674,41.1211761 27.6446525,41.2267719 27.6446525,41.3570249 C27.6446525,41.4872779 27.7502483,41.5928927 27.8805204,41.5928927 Z" id="Path"></path>
                <path d="M26.7012384,42.7721747 C26.8315105,42.772162 26.9370871,42.6665663 26.9370871,42.5363069 C26.9370871,42.4060475 26.8315041,42.3004581 26.7012384,42.3004581 C26.5709726,42.3004581 26.4653896,42.4060411 26.4653896,42.5363069 C26.4653896,42.6665726 26.5709854,42.7721747 26.7012384,42.7721747 Z" id="Path"></path>
                <path d="M27.8805204,43.9514504 C28.0107734,43.9514504 28.1163691,43.8458546 28.1163691,43.7155825 C28.1163691,43.5853104 28.0107734,43.4797338 27.8805204,43.4797338 C27.7502674,43.4797338 27.6446525,43.5853295 27.6446525,43.7155825 C27.6446525,43.8458355 27.7502483,43.9514504 27.8805204,43.9514504 Z" id="Path"></path>
                <path d="M26.7012384,45.1307133 C26.8315105,45.1307133 26.9370871,45.0251175 26.9370871,44.8948645 C26.9370871,44.7646115 26.8315041,44.6590157 26.7012384,44.6589966 C26.5709854,44.6589966 26.4653896,44.7645924 26.4653896,44.8948645 C26.4653896,45.0251366 26.5709854,45.1307133 26.7012384,45.1307133 Z" id="Path"></path>
                <path d="M27.8805204,46.3099953 C28.0107734,46.3099953 28.1163691,46.2043995 28.1163691,46.0741465 C28.1163691,45.9438935 28.0107734,45.8382786 27.8805204,45.8382786 C27.7502674,45.8382786 27.6446525,45.9438744 27.6446525,46.0741465 C27.6446525,46.2044186 27.7502483,46.3099953 27.8805204,46.3099953 Z" id="Path"></path>
                <path d="M26.4653896,47.2534221 C26.4653896,47.3836751 26.5709854,47.4892709 26.7012384,47.4892709 C26.8315105,47.4892581 26.9370871,47.3836751 26.9370871,47.2534221 L26.9370871,47.2534094 C26.9370871,47.1231564 26.8315041,47.0175734 26.7012384,47.0175606 C26.5709854,47.0175606 26.4653896,47.1231564 26.4653896,47.2534094 L26.4653896,47.2534221 Z" id="Path"></path>
                <path d="M27.8805204,48.6685529 C28.0107734,48.6685529 28.1163691,48.5629571 28.1163691,48.432685 C28.1163691,48.3024129 28.0107734,48.1968363 27.8805204,48.1968363 C27.7502674,48.1968363 27.6446525,48.302432 27.6446525,48.432685 C27.6446525,48.562938 27.7502483,48.6685529 27.8805204,48.6685529 Z" id="Path"></path>
                <path d="M26.7012384,49.8478349 C26.8315105,49.8478221 26.9370871,49.7422264 26.9370871,49.611967 C26.9370871,49.4817076 26.8315041,49.3761183 26.7012384,49.3761183 C26.5709726,49.3761183 26.4653896,49.481714 26.4653896,49.611967 C26.4653896,49.74222 26.5709854,49.8478349 26.7012384,49.8478349 Z" id="Path"></path>
                <path d="M25.5219628,32.158675 C25.6522158,32.158675 25.7578115,32.0530792 25.7578115,31.9228071 C25.7578115,31.792535 25.6522158,31.6869584 25.5219628,31.6869584 C25.3917098,31.6869584 25.286114,31.7925541 25.286114,31.9228071 C25.286114,32.0530601 25.3917098,32.158675 25.5219628,32.158675 Z" id="Path"></path>
                <path d="M24.3426808,33.337957 L24.3426935,33.337957 C24.4729465,33.3379442 24.5785295,33.2323485 24.5785295,33.1020891 C24.5785295,32.9718297 24.4729465,32.8662404 24.3426935,32.8662404 L24.3426808,32.8662404 C24.2124278,32.8662404 24.106832,32.9718361 24.106832,33.1020891 C24.106832,33.2323421 24.2124278,33.337957 24.3426808,33.337957 Z" id="Path"></path>
                <path d="M25.5219628,34.5172326 C25.6522158,34.5172326 25.7578115,34.4116369 25.7578115,34.2813647 C25.7578115,34.1510926 25.6522158,34.045516 25.5219628,34.045516 C25.3917098,34.045516 25.286114,34.1511117 25.286114,34.2813647 C25.286114,34.4116178 25.3917098,34.5172326 25.5219628,34.5172326 Z" id="Path"></path>
                <path d="M24.3426808,35.6964955 L24.3426935,35.6964955 C24.4729465,35.6964955 24.5785295,35.5908998 24.5785295,35.4606467 C24.5785295,35.3303937 24.4729465,35.224798 24.3426935,35.224798 L24.3426808,35.224798 C24.2124278,35.224798 24.106832,35.3303937 24.106832,35.4606467 C24.106832,35.5908998 24.2124278,35.6964955 24.3426808,35.6964955 Z" id="Path"></path>
                <circle id="Oval" cx="25.5219628" cy="36.6399287" r="1"></circle>
                <path d="M24.3426808,38.0550595 L24.3426935,38.0550595 C24.4729465,38.0550595 24.5785295,37.9494637 24.5785295,37.8192107 C24.5785295,37.6889577 24.4729465,37.583362 24.3426935,37.583362 L24.3426808,37.583362 C24.2124278,37.583362 24.106832,37.6889577 24.106832,37.8192107 C24.106832,37.9494637 24.2124278,38.0550595 24.3426808,38.0550595 Z" id="Path"></path>
                <path d="M25.5219628,39.2343351 C25.6522158,39.2343351 25.7578115,39.1287394 25.7578115,38.9984864 C25.7578115,38.8682334 25.6522158,38.7626185 25.5219628,38.7626185 C25.3917098,38.7626185 25.286114,38.8682142 25.286114,38.9984864 C25.286114,39.1287585 25.3917098,39.2343351 25.5219628,39.2343351 Z" id="Path"></path>
                <path d="M24.3426808,40.4136171 L24.3426935,40.4136171 C24.4729465,40.4136171 24.5785295,40.3080214 24.5785295,40.1777684 C24.5785295,40.0475153 24.4729465,39.9419196 24.3426935,39.9419005 L24.3426808,39.9419005 C24.2124278,39.9419005 24.106832,40.0474962 24.106832,40.1777684 C24.106832,40.3080405 24.2124278,40.4136171 24.3426808,40.4136171 Z" id="Path"></path>
                <path d="M25.5219628,41.5928927 C25.6522158,41.5928927 25.7578115,41.487297 25.7578115,41.3570249 C25.7578115,41.2267528 25.6522158,41.1211761 25.5219628,41.1211761 C25.3917098,41.1211761 25.286114,41.2267719 25.286114,41.3570249 C25.286114,41.4872779 25.3917098,41.5928927 25.5219628,41.5928927 Z" id="Path"></path>
                <path d="M24.3426808,42.7721747 L24.3426935,42.7721747 C24.4729465,42.772162 24.5785295,42.6665663 24.5785295,42.5363069 C24.5785295,42.4060475 24.4729465,42.3004581 24.3426935,42.3004581 L24.3426808,42.3004581 C24.2124278,42.3004581 24.106832,42.4060411 24.106832,42.5363069 C24.106832,42.6665726 24.2124278,42.7721747 24.3426808,42.7721747 Z" id="Path"></path>
                <path d="M25.5219628,43.9514504 C25.6522158,43.9514504 25.7578115,43.8458546 25.7578115,43.7155825 C25.7578115,43.5853104 25.6522158,43.4797338 25.5219628,43.4797338 C25.3917098,43.4797338 25.286114,43.5853295 25.286114,43.7155825 C25.286114,43.8458355 25.3917098,43.9514504 25.5219628,43.9514504 Z" id="Path"></path>
                <path d="M24.3426808,45.1307133 L24.3426935,45.1307133 C24.4729465,45.1307133 24.5785295,45.0251175 24.5785295,44.8948645 C24.5785295,44.7646115 24.4729465,44.6590157 24.3426935,44.6589966 L24.3426808,44.6589966 C24.2124278,44.6589966 24.106832,44.7645924 24.106832,44.8948645 C24.106832,45.0251366 24.2124278,45.1307133 24.3426808,45.1307133 Z" id="Path"></path>
                <path d="M25.5219628,46.3099953 C25.6522158,46.3099953 25.7578115,46.2043995 25.7578115,46.0741465 C25.7578115,45.9438935 25.6522158,45.8382786 25.5219628,45.8382786 C25.3917098,45.8382786 25.286114,45.9438744 25.286114,46.0741465 C25.286114,46.2044186 25.3917098,46.3099953 25.5219628,46.3099953 Z" id="Path"></path>
                <path d="M24.3426808,47.0175606 L24.3426935,47.0175606 C24.472851,47.0175606 24.5785295,47.1232328 24.5785295,47.2533967 L24.5785295,47.2534412 C24.5785295,47.3835987 24.4728574,47.4892773 24.3426935,47.4892773 L24.3426808,47.4892773 C24.2125105,47.4892773 24.106832,47.3835987 24.106832,47.2534285 L24.106832,47.2534158 C24.106832,47.1232455 24.2125105,47.0175606 24.3426808,47.0175606 L24.3426808,47.0175606 Z" id="Path"></path>
                <path d="M25.5219628,48.6685529 C25.6522158,48.6685529 25.7578115,48.5629571 25.7578115,48.432685 C25.7578115,48.3024129 25.6522158,48.1968363 25.5219628,48.1968363 C25.3917098,48.1968363 25.286114,48.302432 25.286114,48.432685 C25.286114,48.562938 25.3917098,48.6685529 25.5219628,48.6685529 Z" id="Path"></path>
                <path d="M24.3426808,49.8478349 L24.3426935,49.8478349 C24.4729465,49.8478221 24.5785295,49.7422264 24.5785295,49.611967 C24.5785295,49.4817076 24.4729465,49.3761183 24.3426935,49.3761183 L24.3426808,49.3761183 C24.2124278,49.3761183 24.106832,49.481714 24.106832,49.611967 C24.106832,49.74222 24.2124278,49.8478349 24.3426808,49.8478349 Z" id="Path"></path>
                <path d="M23.1634051,34.5172326 C23.2936773,34.5172326 23.399273,34.4116369 23.399273,34.2813647 C23.399273,34.1510926 23.2936773,34.045516 23.1634051,34.045516 C23.033133,34.045516 22.9275564,34.1511117 22.9275564,34.2813647 C22.9275564,34.4116178 23.0331521,34.5172326 23.1634051,34.5172326 Z" id="Path"></path>
                <path d="M21.9841231,35.6964955 L21.9841359,35.6964955 C22.1143889,35.6964955 22.2199846,35.5908998 22.2199846,35.4606467 C22.2199846,35.3303937 22.1143889,35.224798 21.9841359,35.224798 L21.9841231,35.224798 C21.8538701,35.224798 21.7482744,35.3303937 21.7482744,35.4606467 C21.7482744,35.5908998 21.8538701,35.6964955 21.9841231,35.6964955 Z" id="Path"></path>
                <path d="M23.1634051,36.8757775 C23.2936773,36.8757775 23.399273,36.7701817 23.399273,36.6399287 C23.399273,36.5096757 23.2936773,36.40408 23.1634051,36.40408 C23.033133,36.40408 22.9275564,36.5096757 22.9275564,36.6399287 C22.9275564,36.7701817 23.0331521,36.8757775 23.1634051,36.8757775 Z" id="Path"></path>
                <path d="M21.9841231,38.0550595 L21.9841359,38.0550595 C22.1143889,38.0550595 22.2199846,37.9494637 22.2199846,37.8192107 C22.2199846,37.6889577 22.1143889,37.583362 21.9841359,37.583362 L21.9841231,37.583362 C21.8538701,37.583362 21.7482744,37.6889577 21.7482744,37.8192107 C21.7482744,37.9494637 21.8538701,38.0550595 21.9841231,38.0550595 Z" id="Path"></path>
                <path d="M23.1634051,39.2343351 C23.2936773,39.2343351 23.399273,39.1287394 23.399273,38.9984864 C23.399273,38.8682334 23.2936773,38.7626185 23.1634051,38.7626185 C23.033133,38.7626185 22.9275564,38.8682142 22.9275564,38.9984864 C22.9275564,39.1287585 23.0331521,39.2343351 23.1634051,39.2343351 Z" id="Path"></path>
                <path d="M21.9841231,40.4136171 L21.9841359,40.4136171 C22.1143889,40.4136171 22.2199846,40.3080214 22.2199846,40.1777684 C22.2199846,40.0475153 22.1143889,39.9419196 21.9841359,39.9419005 L21.9841231,39.9419005 C21.8538701,39.9419005 21.7482744,40.0474962 21.7482744,40.1777684 C21.7482744,40.3080405 21.8538701,40.4136171 21.9841231,40.4136171 Z" id="Path"></path>
                <path d="M23.1634051,41.5928927 C23.2936773,41.5928927 23.399273,41.487297 23.399273,41.3570249 C23.399273,41.2267528 23.2936773,41.1211761 23.1634051,41.1211761 C23.033133,41.1211761 22.9275564,41.2267719 22.9275564,41.3570249 C22.9275564,41.4872779 23.0331521,41.5928927 23.1634051,41.5928927 Z" id="Path"></path>
                <path d="M21.9841231,42.7721747 L21.9841359,42.7721747 C22.1143889,42.772162 22.2199846,42.6665663 22.2199846,42.5363069 C22.2199846,42.4060475 22.1143889,42.3004581 21.9841359,42.3004581 L21.9841231,42.3004581 C21.8538701,42.3004581 21.7482744,42.4060411 21.7482744,42.5363069 C21.7482744,42.6665726 21.8538701,42.7721747 21.9841231,42.7721747 Z" id="Path"></path>
                <path d="M23.1634051,43.9514504 C23.2936773,43.9514504 23.399273,43.8458546 23.399273,43.7155825 C23.399273,43.5853104 23.2936773,43.4797338 23.1634051,43.4797338 C23.033133,43.4797338 22.9275564,43.5853295 22.9275564,43.7155825 C22.9275564,43.8458355 23.0331521,43.9514504 23.1634051,43.9514504 Z" id="Path"></path>
                <path d="M21.9841231,45.1307133 L21.9841359,45.1307133 C22.1143889,45.1307133 22.2199846,45.0251175 22.2199846,44.8948645 C22.2199846,44.7646115 22.1143889,44.6590157 21.9841359,44.6589966 L21.9841231,44.6589966 C21.8538701,44.6589966 21.7482744,44.7645924 21.7482744,44.8948645 C21.7482744,45.0251366 21.8538701,45.1307133 21.9841231,45.1307133 Z" id="Path"></path>
                <path d="M23.1634051,46.3099953 C23.2936773,46.3099953 23.399273,46.2043995 23.399273,46.0741465 C23.399273,45.9438935 23.2936773,45.8382786 23.1634051,45.8382786 C23.033133,45.8382786 22.9275564,45.9438744 22.9275564,46.0741465 C22.9275564,46.2044186 23.0331521,46.3099953 23.1634051,46.3099953 Z" id="Path"></path>
                <rect id="Rectangle" x="21.7482744" y="47.0175606" width="1" height="1" rx="0.5"></rect>
                <path d="M23.1634051,48.6685529 C23.2936773,48.6685529 23.399273,48.5629571 23.399273,48.432685 C23.399273,48.3024129 23.2936773,48.1968363 23.1634051,48.1968363 C23.033133,48.1968363 22.9275564,48.302432 22.9275564,48.432685 C22.9275564,48.562938 23.0331521,48.6685529 23.1634051,48.6685529 Z" id="Path"></path>
                <path d="M21.9841231,49.8478349 L21.9841359,49.8478349 C22.1143889,49.8478221 22.2199846,49.7422264 22.2199846,49.611967 C22.2199846,49.4817076 22.1143889,49.3761183 21.9841359,49.3761183 L21.9841231,49.3761183 C21.8538701,49.3761183 21.7482744,49.481714 21.7482744,49.611967 C21.7482744,49.74222 21.8538701,49.8478349 21.9841231,49.8478349 Z" id="Path"></path>
                <path d="M20.8048475,36.8757775 C20.9351196,36.8757775 21.0407154,36.7701817 21.0407154,36.6399287 C21.0407154,36.5096757 20.9351196,36.40408 20.8048475,36.40408 C20.6745754,36.40408 20.5689988,36.5096757 20.5689988,36.6399287 C20.5689988,36.7701817 20.6745945,36.8757775 20.8048475,36.8757775 Z" id="Path"></path>
                <path d="M19.6255783,38.0550595 C19.7558313,38.0550595 19.861427,37.9494637 19.861427,37.8192107 C19.861427,37.6889577 19.7558313,37.583362 19.6255783,37.583362 C19.4953252,37.583362 19.3897104,37.6889577 19.3897104,37.8192107 C19.3897104,37.9494637 19.4953061,38.0550595 19.6255783,38.0550595 Z" id="Path"></path>
                <path d="M20.8048475,39.2343351 C20.9351196,39.2343351 21.0407154,39.1287394 21.0407154,38.9984864 C21.0407154,38.8682334 20.9351196,38.7626185 20.8048475,38.7626185 C20.6745754,38.7626185 20.5689988,38.8682142 20.5689988,38.9984864 C20.5689988,39.1287585 20.6745945,39.2343351 20.8048475,39.2343351 Z" id="Path"></path>
                <path d="M19.6255783,40.4136171 C19.7558313,40.4136171 19.861427,40.3080214 19.861427,40.1777684 C19.861427,40.0475153 19.7558313,39.9419196 19.6255783,39.9419005 C19.4953061,39.9419005 19.3897104,40.0474962 19.3897104,40.1777684 C19.3897104,40.3080405 19.4953061,40.4136171 19.6255783,40.4136171 Z" id="Path"></path>
                <path d="M20.8048475,41.5928927 C20.9351196,41.5928927 21.0407154,41.487297 21.0407154,41.3570249 C21.0407154,41.2267528 20.9351196,41.1211761 20.8048475,41.1211761 C20.6745754,41.1211761 20.5689988,41.2267719 20.5689988,41.3570249 C20.5689988,41.4872779 20.6745945,41.5928927 20.8048475,41.5928927 Z" id="Path"></path>
                <path d="M19.6255783,42.7721747 C19.7558313,42.772162 19.861427,42.6665663 19.861427,42.5363069 C19.861427,42.4060475 19.7558313,42.3004581 19.6255783,42.3004581 C19.4953252,42.3004581 19.3897104,42.4060411 19.3897104,42.5363069 C19.3897104,42.6665726 19.4953061,42.7721747 19.6255783,42.7721747 Z" id="Path"></path>
                <path d="M20.8048475,43.9514504 C20.9351196,43.9514504 21.0407154,43.8458546 21.0407154,43.7155825 C21.0407154,43.5853104 20.9351196,43.4797338 20.8048475,43.4797338 C20.6745754,43.4797338 20.5689988,43.5853295 20.5689988,43.7155825 C20.5689988,43.8458355 20.6745945,43.9514504 20.8048475,43.9514504 Z" id="Path"></path>
                <path d="M19.6255783,45.1307133 C19.7558313,45.1307133 19.861427,45.0251175 19.861427,44.8948645 C19.861427,44.7646115 19.7558313,44.6590157 19.6255783,44.6589966 C19.4953061,44.6589966 19.3897104,44.7645924 19.3897104,44.8948645 C19.3897104,45.0251366 19.4953061,45.1307133 19.6255783,45.1307133 Z" id="Path"></path>
                <path d="M20.8048475,46.3099953 C20.9351196,46.3099953 21.0407154,46.2043995 21.0407154,46.0741465 C21.0407154,45.9438935 20.9351196,45.8382786 20.8048475,45.8382786 C20.6745754,45.8382786 20.5689988,45.9438744 20.5689988,46.0741465 C20.5689988,46.2044186 20.6745945,46.3099953 20.8048475,46.3099953 Z" id="Path"></path>
                <path d="M19.3897168,47.2534221 C19.3897168,47.3836751 19.4953125,47.4892709 19.6255846,47.4892709 C19.7558376,47.4892581 19.8614334,47.3836751 19.8614334,47.2534221 L19.8614334,47.2534094 C19.8614334,47.1231564 19.7558376,47.0175734 19.6255846,47.0175606 C19.4953125,47.0175606 19.3897168,47.1231564 19.3897168,47.2534094 L19.3897168,47.2534221 Z" id="Path"></path>
                <path d="M20.8048475,48.6685529 C20.9351196,48.6685529 21.0407154,48.5629571 21.0407154,48.432685 C21.0407154,48.3024129 20.9351196,48.1968363 20.8048475,48.1968363 C20.6745754,48.1968363 20.5689988,48.302432 20.5689988,48.432685 C20.5689988,48.562938 20.6745945,48.6685529 20.8048475,48.6685529 Z" id="Path"></path>
                <path d="M19.6255783,49.8478349 C19.7558313,49.8478221 19.861427,49.7422264 19.861427,49.611967 C19.861427,49.4817076 19.7558313,49.3761183 19.6255783,49.3761183 C19.4953252,49.3761183 19.3897104,49.481714 19.3897104,49.611967 C19.3897104,49.74222 19.4953061,49.8478349 19.6255783,49.8478349 Z" id="Path"></path>
                <path d="M18.4463026,39.2343351 C18.5765556,39.2343351 18.6821514,39.1287394 18.6821514,38.9984864 C18.6821514,38.8682334 18.5765556,38.7626185 18.4463026,38.7626185 C18.3160496,38.7626185 18.2104348,38.8682142 18.2104348,38.9984864 C18.2104348,39.1287585 18.3160305,39.2343351 18.4463026,39.2343351 Z" id="Path"></path>
                <path d="M17.2670206,40.4136171 L17.2670334,40.4136171 C17.3972864,40.4136171 17.5028821,40.3080214 17.5028821,40.1777684 C17.5028821,40.0475153 17.3972864,39.9419196 17.2670334,39.9419005 L17.2670206,39.9419005 C17.1367676,39.9419005 17.0311719,40.0474962 17.0311719,40.1777684 C17.0311719,40.3080405 17.1367676,40.4136171 17.2670206,40.4136171 Z" id="Path"></path>
                <path d="M18.4463026,41.5928927 C18.5765556,41.5928927 18.6821514,41.487297 18.6821514,41.3570249 C18.6821514,41.2267528 18.5765556,41.1211761 18.4463026,41.1211761 C18.3160496,41.1211761 18.2104348,41.2267719 18.2104348,41.3570249 C18.2104348,41.4872779 18.3160305,41.5928927 18.4463026,41.5928927 Z" id="Path"></path>
                <path d="M17.2670206,42.7721747 L17.2670334,42.7721747 C17.3972864,42.772162 17.5028821,42.6665663 17.5028821,42.5363069 C17.5028821,42.4060475 17.3972864,42.3004581 17.2670334,42.3004581 L17.2670206,42.3004581 C17.1367676,42.3004581 17.0311719,42.4060411 17.0311719,42.5363069 C17.0311719,42.6665726 17.1367676,42.7721747 17.2670206,42.7721747 Z" id="Path"></path>
                <path d="M18.4463026,43.9514504 C18.5765556,43.9514504 18.6821514,43.8458546 18.6821514,43.7155825 C18.6821514,43.5853104 18.5765556,43.4797338 18.4463026,43.4797338 C18.3160496,43.4797338 18.2104348,43.5853295 18.2104348,43.7155825 C18.2104348,43.8458355 18.3160305,43.9514504 18.4463026,43.9514504 Z" id="Path"></path>
                <path d="M17.2670206,45.1307133 L17.2670334,45.1307133 C17.3972864,45.1307133 17.5028821,45.0251175 17.5028821,44.8948645 C17.5028821,44.7646115 17.3972864,44.6590157 17.2670334,44.6589966 L17.2670206,44.6589966 C17.1367676,44.6589966 17.0311719,44.7645924 17.0311719,44.8948645 C17.0311719,45.0251366 17.1367676,45.1307133 17.2670206,45.1307133 Z" id="Path"></path>
                <path d="M18.4463026,46.3099953 C18.5765556,46.3099953 18.6821514,46.2043995 18.6821514,46.0741465 C18.6821514,45.9438935 18.5765556,45.8382786 18.4463026,45.8382786 C18.3160496,45.8382786 18.2104348,45.9438744 18.2104348,46.0741465 C18.2104348,46.2044186 18.3160305,46.3099953 18.4463026,46.3099953 Z" id="Path"></path>
                <rect id="Rectangle" x="17.0311719" y="47.0175606" width="1" height="1" rx="0.5"></rect>
                <path d="M18.4463026,48.6685529 C18.5765556,48.6685529 18.6821514,48.5629571 18.6821514,48.432685 C18.6821514,48.3024129 18.5765556,48.1968363 18.4463026,48.1968363 C18.3160496,48.1968363 18.2104348,48.302432 18.2104348,48.432685 C18.2104348,48.562938 18.3160305,48.6685529 18.4463026,48.6685529 Z" id="Path"></path>
                <path d="M17.2670206,49.8478349 L17.2670334,49.8478349 C17.3972864,49.8478221 17.5028821,49.7422264 17.5028821,49.611967 C17.5028821,49.4817076 17.3972864,49.3761183 17.2670334,49.3761183 L17.2670206,49.3761183 C17.1367676,49.3761183 17.0311719,49.481714 17.0311719,49.611967 C17.0311719,49.74222 17.1367676,49.8478349 17.2670206,49.8478349 Z" id="Path"></path>
                <path d="M16.087745,41.5928927 C16.2180171,41.5928927 16.3236129,41.487297 16.3236129,41.3570249 C16.3236129,41.2267528 16.2180171,41.1211761 16.087745,41.1211761 C15.9574729,41.1211761 15.8518962,41.2267719 15.8518962,41.3570249 C15.8518962,41.4872779 15.957492,41.5928927 16.087745,41.5928927 Z" id="Path"></path>
                <path d="M14.908463,42.7721747 L14.9084757,42.7721747 C15.0387288,42.772162 15.1443245,42.6665663 15.1443245,42.5363069 C15.1443245,42.4060475 15.0387288,42.3004581 14.9084757,42.3004581 L14.908463,42.3004581 C14.77821,42.3004581 14.6726142,42.4060411 14.6726142,42.5363069 C14.6726142,42.6665726 14.77821,42.7721747 14.908463,42.7721747 Z" id="Path"></path>
                <path d="M16.087745,43.9514504 C16.2180171,43.9514504 16.3236129,43.8458546 16.3236129,43.7155825 C16.3236129,43.5853104 16.2180171,43.4797338 16.087745,43.4797338 C15.9574729,43.4797338 15.8518962,43.5853295 15.8518962,43.7155825 C15.8518962,43.8458355 15.957492,43.9514504 16.087745,43.9514504 Z" id="Path"></path>
                <path d="M14.908463,45.1307133 L14.9084757,45.1307133 C15.0387288,45.1307133 15.1443245,45.0251175 15.1443245,44.8948645 C15.1443245,44.7646115 15.0387288,44.6590157 14.9084757,44.6589966 L14.908463,44.6589966 C14.77821,44.6589966 14.6726142,44.7645924 14.6726142,44.8948645 C14.6726142,45.0251366 14.77821,45.1307133 14.908463,45.1307133 Z" id="Path"></path>
                <path d="M16.087745,46.3099953 C16.2180171,46.3099953 16.3236129,46.2043995 16.3236129,46.0741465 C16.3236129,45.9438935 16.2180171,45.8382786 16.087745,45.8382786 C15.9574729,45.8382786 15.8518962,45.9438744 15.8518962,46.0741465 C15.8518962,46.2044186 15.957492,46.3099953 16.087745,46.3099953 Z" id="Path"></path>
                <rect id="Rectangle" x="14.6726142" y="47.0175606" width="1" height="1" rx="0.5"></rect>
                <path d="M16.087745,48.6685529 C16.2180171,48.6685529 16.3236129,48.5629571 16.3236129,48.432685 C16.3236129,48.3024129 16.2180171,48.1968363 16.087745,48.1968363 C15.9574729,48.1968363 15.8518962,48.302432 15.8518962,48.432685 C15.8518962,48.562938 15.957492,48.6685529 16.087745,48.6685529 Z" id="Path"></path>
                <path d="M14.908463,49.8478349 L14.9084757,49.8478349 C15.0387288,49.8478221 15.1443245,49.7422264 15.1443245,49.611967 C15.1443245,49.4817076 15.0387288,49.3761183 14.9084757,49.3761183 L14.908463,49.3761183 C14.77821,49.3761183 14.6726142,49.481714 14.6726142,49.611967 C14.6726142,49.74222 14.77821,49.8478349 14.908463,49.8478349 Z" id="Path"></path>
                <path d="M13.7292001,43.9514504 C13.8594531,43.9514504 13.9650489,43.8458546 13.9650489,43.7155825 C13.9650489,43.5853104 13.8594531,43.4797338 13.7292001,43.4797338 C13.5989471,43.4797338 13.4933323,43.5853295 13.4933323,43.7155825 C13.4933323,43.8458355 13.598928,43.9514504 13.7292001,43.9514504 L13.7292001,43.9514504 Z" id="Path"></path>
                <path d="M12.5499245,45.1307133 C12.6801775,45.1307133 12.7857732,45.0251175 12.7857732,44.8948645 C12.7857732,44.7646115 12.6801775,44.6590157 12.5499245,44.6589966 C12.4196524,44.6589966 12.3140566,44.7645924 12.3140566,44.8948645 C12.3140566,45.0251366 12.4196524,45.1307133 12.5499245,45.1307133 Z" id="Path"></path>
                <path d="M13.7292001,46.3099953 C13.8594531,46.3099953 13.9650489,46.2043995 13.9650489,46.0741465 C13.9650489,45.9438935 13.8594531,45.8382786 13.7292001,45.8382786 C13.5989471,45.8382786 13.4933323,45.9438744 13.4933323,46.0741465 C13.4933323,46.2044186 13.598928,46.3099953 13.7292001,46.3099953 L13.7292001,46.3099953 Z" id="Path"></path>
                <path d="M12.3140566,47.2534221 C12.3140566,47.3836751 12.4196524,47.4892709 12.5499245,47.4892709 C12.6801775,47.4892581 12.7857732,47.3836751 12.7857732,47.2534221 L12.7857732,47.2534094 C12.7857732,47.1231564 12.6801775,47.0175734 12.5499245,47.0175606 C12.4196524,47.0175606 12.3140566,47.1231564 12.3140566,47.2534094 L12.3140566,47.2534221 Z" id="Path"></path>
                <path d="M13.7292001,48.6685529 C13.8594531,48.6685529 13.9650489,48.5629571 13.9650489,48.432685 C13.9650489,48.3024129 13.8594531,48.1968363 13.7292001,48.1968363 C13.5989471,48.1968363 13.4933323,48.302432 13.4933323,48.432685 C13.4933323,48.562938 13.598928,48.6685529 13.7292001,48.6685529 L13.7292001,48.6685529 Z" id="Path"></path>
                <path d="M12.5499245,49.8478349 C12.6801775,49.8478221 12.7857732,49.7422264 12.7857732,49.611967 C12.7857732,49.4817076 12.6801775,49.3761183 12.5499245,49.3761183 C12.4196715,49.3761183 12.3140566,49.481714 12.3140566,49.611967 C12.3140566,49.74222 12.4196524,49.8478349 12.5499245,49.8478349 Z" id="Path"></path>
                <path d="M11.3706425,46.3099953 C11.5008955,46.3099953 11.6064912,46.2043995 11.6064912,46.0741465 C11.6064912,45.9438935 11.5008955,45.8382786 11.3706425,45.8382786 C11.2403895,45.8382786 11.1347937,45.9438744 11.1347937,46.0741465 C11.1347937,46.2044186 11.2403895,46.3099953 11.3706425,46.3099953 Z" id="Path"></path>
                <path d="M10.1913605,47.4892709 C10.3216135,47.4892581 10.4272093,47.3836751 10.4272093,47.2534221 L10.4272093,47.2534094 C10.4272093,47.1231564 10.3216135,47.0175734 10.1913605,47.0175606 C10.0611075,47.0175606 9.95551174,47.1231564 9.95551174,47.2534094 L9.95551174,47.2534221 C9.95551174,47.3836751 10.0611075,47.4892709 10.1913605,47.4892709 Z" id="Path"></path>
                <path d="M11.3706425,48.6685529 C11.5008955,48.6685529 11.6064912,48.5629571 11.6064912,48.432685 C11.6064912,48.3024129 11.5008955,48.1968363 11.3706425,48.1968363 C11.2403895,48.1968363 11.1347937,48.302432 11.1347937,48.432685 C11.1347937,48.562938 11.2403895,48.6685529 11.3706425,48.6685529 Z" id="Path"></path>
                <path d="M10.1913605,49.8478349 C10.3216135,49.8478221 10.4272093,49.7422264 10.4272093,49.611967 C10.4272093,49.4817076 10.3216135,49.3761183 10.1913605,49.3761183 C10.0611075,49.3761183 9.95551174,49.481714 9.95551174,49.611967 C9.95551174,49.74222 10.0611075,49.8478349 10.1913605,49.8478349 Z" id="Path"></path>
                <path d="M8.77623611,48.432685 C8.77623611,48.5629571 8.88183186,48.6685529 9.01208487,48.6685529 C9.14233788,48.6685529 9.24793362,48.5629571 9.24793362,48.432685 C9.24793362,48.3024129 9.14233788,48.1968363 9.01208487,48.1968363 C8.88183186,48.1968363 8.77623611,48.302432 8.77623611,48.432685 Z" id="Path"></path>
                <path d="M7.83280287,49.3761183 C7.70254986,49.3761183 7.59695411,49.481714 7.59695411,49.611967 C7.59695411,49.74222 7.70254986,49.8478349 7.83280287,49.8478349 L7.83281561,49.8478349 C7.96306862,49.8478221 8.06865163,49.7422264 8.06865163,49.611967 C8.06865163,49.4817076 7.96306862,49.3761183 7.83281561,49.3761183 L7.83280287,49.3761183 Z" id="Path"></path>
                <path d="M41.4958381,3.37073467 C38.7621934,4.09883715 36.3635231,6.0850077 34.9148707,8.82005982 C34.873701,8.89773148 34.9033317,8.99406165 34.9810097,9.03523138 C35.0047627,9.04785294 35.0302606,9.05382621 35.0554209,9.05382621 C35.112479,9.05382621 35.1676713,9.02304284 35.196245,8.96906051 C36.6035366,6.31211943 38.9295405,4.38372024 41.5778019,3.67844101 C41.6627523,3.65580243 41.7132767,3.56855317 41.6906764,3.48360278 C41.6680059,3.39871608 41.5809732,3.34796873 41.4958381,3.3707283 L41.4958381,3.37073467 Z" id="Path"></path>
                <path d="M63.9998134,19.8807718 C64.0131792,17.8687277 63.3079637,15.9140855 62.014005,14.3770313 C60.7586689,12.8858145 59.0247959,11.870218 57.1214551,11.5086503 C56.0062935,5.51269429 50.7886842,1.1424619 44.6727596,1.10129217 C44.6438421,1.10110749 44.6151092,1.10098013 44.5861917,1.10098013 C41.4575531,1.10098013 38.4522391,2.24319345 36.1151674,4.32240186 C35.7193203,4.6745766 35.3484743,5.04926256 35.0026804,5.44297639 C33.135192,3.81774308 30.8428625,2.45395191 28.3606174,1.49519067 C25.8710617,0.53357015 23.2985743,0.0168502046 20.9212627,0.00042295694 C17.9905381,-0.0179132247 15.1531953,0.560004111 12.4881412,1.72130898 C10.0203771,2.79667003 7.81642413,4.31919871 5.93037277,6.24729223 C5.73840018,6.13529018 5.50038627,6.1050672 5.27450359,6.1851651 C4.86729577,6.32959985 4.65425116,6.7767611 4.79866681,7.18397529 C4.94306973,7.59118311 5.39026281,7.80424045 5.797477,7.65981206 C6.20468482,7.51540915 6.41772943,7.06824153 6.27331378,6.66100187 C6.24722369,6.58743127 6.21095739,6.52045802 6.16711306,6.46050878 C8.02234921,4.56631262 10.1894628,3.07030707 12.6153503,2.01322881 C15.2393938,0.869767344 18.0319307,0.302484727 20.9191548,0.319277393 C23.2583407,0.335012955 25.7918681,0.844333174 28.2458835,1.79221134 C30.6948617,2.73812814 32.9553188,4.08282776 34.795539,5.68474111 C33.2534475,7.53114471 32.2597127,9.77854087 31.9445111,12.1807263 C31.3897609,12.0587136 30.82493,11.994969 30.2628756,11.9911736 C28.1097591,11.9791061 26.078184,12.8018002 24.5448041,14.3146558 C23.7160793,15.1323064 23.0867014,16.0981235 22.6805635,17.1529984 L4.96514154,17.1529984 L4.96514154,32.6102111 C5.06787801,32.7871677 5.17434619,32.9675122 5.28354628,33.1485762 L5.28354628,25.2858769 L41.5930025,25.2859087 L41.5930025,49.9253028 L5.28354628,49.9253028 L5.28354628,34.6218477 C6.17604113,35.6207789 7.16410834,36.5349825 8.23157296,37.3456665 C8.09166592,37.5457902 8.04665623,37.8078819 8.13449773,38.0555753 C8.27891338,38.4627831 8.72609373,38.6758086 9.13330792,38.5314121 C9.54052211,38.3870155 9.75356035,37.9398161 9.60914469,37.5326019 C9.46472904,37.1253877 9.01756143,36.9123367 8.61035361,37.0567651 C8.55929422,37.0748632 8.511317,37.0977502 8.46669576,37.1246745 C6.05411122,35.3024887 4.04999538,32.9444278 2.64822489,30.2717576 C1.10209606,27.3239028 0.296754954,23.9945228 0.31932985,20.6434976 C0.337084098,18.009539 0.846283324,15.4594736 1.83084809,13.0511302 C1.97565219,13.0878232 2.132492,13.0837158 2.28386161,13.0300455 C2.69106943,12.8856107 2.90411404,12.4384495 2.75969839,12.0312353 C2.61529547,11.6240275 2.16811512,11.4109701 1.7608882,11.5553985 C1.35368038,11.6998014 1.14065487,12.1469945 1.28505142,12.5542087 C1.33719338,12.7011907 1.42915504,12.8223946 1.54408004,12.9111086 C0.538818972,15.3628887 0.0190041333,17.9593775 0.000450006219,20.641377 C-0.0220000289,24.0443913 0.795937166,27.4256968 2.36625839,30.4196375 C3.08499977,31.7900515 3.95986773,33.0788456 4.96514154,34.2574398 L4.96514154,50.2436884 L7.95045342,50.2436884 L7.95045342,52.9976092 L28.0358064,52.9976092 C29.3938281,54.3582609 30.9540686,55.5168911 32.6498795,56.4104813 C35.3209004,57.8178685 38.3394983,58.5725832 41.3792702,58.5934769 C41.4235794,58.5934769 41.4674555,58.5934769 41.511701,58.5934769 C45.3752496,58.5934769 49.0636246,57.4530339 52.2301725,55.285863 C52.4189164,55.4543947 52.691299,55.5174834 52.9465895,55.4269673 C53.3191613,55.2948484 53.5140759,54.8857111 53.3819443,54.5131393 C53.2498127,54.1405676 52.8406817,53.9456402 52.4681163,54.0777909 C52.0955446,54.2099097 51.9006299,54.6190471 52.0327488,54.9916188 C52.0369008,55.0033107 52.0420908,55.0142893 52.0467714,55.0256054 C48.934053,57.1548097 45.3092762,58.2750722 41.511631,58.2750722 C41.4683471,58.2750722 41.4247256,58.2749448 41.3814098,58.2746392 C38.3924172,58.2545542 35.4244138,57.5125183 32.7983198,56.1287632 C31.2246426,55.2995417 29.7689025,54.2389164 28.4876036,52.9976092 L44.5783144,52.9976092 L44.5783271,28.2163913 L55.4766336,28.2897454 C55.4962218,28.2898727 55.5156891,28.2899301 55.5352137,28.2899301 C55.5811404,28.2899301 55.626927,28.2890003 55.6727454,28.2882807 C55.3903713,27.8748831 54.9423568,27.3428288 54.2354792,26.6686131 C53.5483299,26.0132725 52.8644729,25.4626233 52.5435974,25.2117841 L44.5783335,25.1581456 L44.5783335,20.2253303 L41.9114136,20.2253303 L41.9114136,17.1529729 L23.023046,17.1529729 C23.413996,16.1844175 24.002529,15.2969599 24.7684261,14.541309 C26.2412327,13.0882117 28.1906211,12.2951228 30.2607232,12.3095529 C30.8570188,12.3135966 31.4567278,12.3878486 32.0431338,12.5303857 L32.2179444,12.5728609 L32.2388381,12.3941912 C32.5262875,9.93831 33.5395087,7.64035117 35.1347737,5.7755374 C35.1357672,5.7744803 35.1369644,5.77373523 35.1379387,5.77261444 C35.1390276,5.77140451 35.139709,5.76997169 35.1407534,5.76869807 C35.5062374,5.3421185 35.9020973,4.93813931 36.3268238,4.5602502 C38.6265848,2.51431508 41.5908883,1.39659982 44.6706454,1.41967143 C50.6700848,1.46003242 55.7828434,5.77223873 56.8276758,11.6731127 L56.8471431,11.7828159 L56.9568462,11.8021558 C58.4979379,12.0737614 59.9282247,12.7907006 61.0727242,13.8510776 C61.4548863,14.8144366 61.662518,15.8656689 61.6551183,16.9659738 C61.6257677,21.3239221 58.245583,24.8745998 53.9747184,25.1929091 C52.9359803,24.2912696 51.7995301,23.5019761 50.5830011,22.8408469 C50.5916744,22.7418103 50.5804411,22.6394814 50.5450409,22.539636 C50.4129156,22.1670961 50.0037783,21.9721687 49.6312065,22.1042876 C49.2586412,22.2364064 49.0637201,22.6455438 49.1958581,23.0181155 C49.327977,23.3906873 49.7371143,23.5856147 50.1096861,23.4534958 C50.2719197,23.395941 50.4003705,23.2858366 50.4828946,23.1491455 C53.2828886,24.6823725 55.6489033,26.9072256 57.3562213,29.6224921 C59.2505448,32.6350849 60.2390896,36.117452 60.2150246,39.6929717 C60.19024,43.3723486 59.1100519,46.8970317 57.0838515,49.9328872 C56.9495739,49.8975315 56.8036617,49.9006455 56.6629205,49.9505459 C56.2903551,50.0826647 56.0954341,50.4918021 56.2275657,50.8643738 C56.3596973,51.2369456 56.7688282,51.4318411 57.1413936,51.2997223 C57.5139654,51.1676034 57.70888,50.7584661 57.5767612,50.3858943 C57.5332734,50.2632894 57.4593908,50.1604319 57.3670725,50.0816076 C59.4159561,47.0002012 60.50832,43.4258597 60.5334357,39.6950859 C60.5579401,36.0587446 59.5524753,32.5171096 57.6258146,29.4530244 C57.3554253,29.0230251 57.0682879,28.6055201 56.7662874,28.2004583 C58.5398909,27.9433083 60.1800638,27.1325925 61.4796964,25.8503894 C63.0894425,24.2621611 63.9843954,22.142095 63.9998134,19.8807336 L63.9998134,19.8807718 Z M22.1237691,21.4964275 L8.78500498,21.4964275 C8.69706795,21.4964275 8.62580261,21.4251621 8.62580261,21.3372251 C8.62580261,21.2492881 8.69706795,21.1780227 8.78500498,21.1780227 L22.1237691,21.1780227 C22.2117061,21.1780227 22.2829715,21.2492881 22.2829715,21.3372251 C22.2829715,21.4251621 22.2117061,21.4964275 22.1237691,21.4964275 L22.1237691,21.4964275 Z M37.5431553,20.8115134 C37.833515,20.8134429 38.0673132,21.0504443 38.0653582,21.3407976 C38.0634032,21.6311509 37.82644,21.8649555 37.536074,21.8629941 C37.245708,21.8610327 37.0119098,21.6240632 37.0138711,21.3337099 C37.0158198,21.0433503 37.2527893,20.809552 37.5431553,20.8115134 Z M34.9144186,20.8115134 C35.2047782,20.8134429 35.4385828,21.0504443 35.4366214,21.3407976 C35.4346728,21.6311572 35.1977033,21.8649555 34.9073372,21.8629941 C34.6169712,21.8610327 34.383173,21.6240632 34.3851344,21.3337099 C34.387083,21.0433503 34.6240653,20.809552 34.9144186,20.8115134 Z" id="Shape"></path>
            </g>
        </g>
    </g>
</svg>