<?xml version="1.0" encoding="UTF-8"?>
<svg viewBox="0 0 64 64" version="1.1" xmlns="http://www.w3.org/2000/svg" xmlns:xlink="http://www.w3.org/1999/xlink">
    <title>Group 5@1x</title>
    <g id="Widgets" stroke="none" stroke-width="1" fill="none" fill-rule="evenodd">
        <g id="Explore" transform="translate(-1302, -3623)" fill-rule="nonzero">
            <g id="Group-5" transform="translate(1302, 3623)">
                <path d="M16,0 L48,0 C56.836556,0 64,7.163444 64,16 L64,48 C64,56.836556 56.836556,64 48,64 L16,64 C7.163444,64 0,56.836556 0,48 L0,16 C0,7.163444 7.163444,0 16,0 Z" id="Rectangle" fill="#000000"></path>
                <path d="M48,2.22222222 C55.59712,2.22222222 61.7777778,8.40291556 61.7777778,16 L61.7777778,48 C61.7777778,55.5970844 55.59712,61.7777778 48,61.7777778 L16,61.7777778 C8.40288,61.7777778 2.22222222,55.5970844 2.22222222,48 L2.22222222,16 C2.22222222,8.40291556 8.40288,2.22222222 16,2.22222222 L48,2.22222222 M48,0 L16,0 C7.16341333,0 0,7.16343111 0,16 L0,48 C0,56.8365689 7.16341333,64 16,64 L48,64 C56.8365867,64 64,56.8365689 64,48 L64,16 C64,7.16343111 56.8365867,0 48,0 L48,0 Z" id="Shape" fill="#4D4D4D"></path>
                <path d="M46.8578489,18.5899556 C46.9458489,18.3732622 46.94336,18.1375822 46.8885511,17.9123378 C46.8423289,17.7203911 46.7636622,17.5351644 46.6145778,17.3854222 C46.6126222,17.3834667 46.6100267,17.3829333 46.6080711,17.3810844 C42.704,13.48112 37.5169244,11.3333333 32,11.3333333 C31.3871467,11.3333333 30.8888889,11.8315911 30.8888889,12.4444444 L30.8888889,27.4817778 C28.8532978,27.9836267 27.3333333,29.8118578 27.3333333,32 C27.3333333,34.5729244 29.4270756,36.6666667 32,36.6666667 C34.5729244,36.6666667 36.6666667,34.5729244 36.6666667,32 C36.6666667,31.1170844 36.4061333,30.2994844 35.9782933,29.5946133 L46.6145778,18.9583289 C46.7227556,18.8497067 46.8038222,18.7240711 46.8578489,18.5899556 Z M44.2203733,18.2067022 L34.4053689,28.0217067 C34.0076978,27.7802844 33.5745244,27.5960356 33.1110933,27.4817778 L33.1110933,13.5885511 C37.2480356,13.8323733 41.1190222,15.4539022 44.2203733,18.20672 L44.2203733,18.2067022 Z M32,34.4444444 C30.6527822,34.4444444 29.5555556,33.3472178 29.5555556,32 C29.5555556,30.6527822 30.6527822,29.5555556 32,29.5555556 C33.3472178,29.5555556 34.4444444,30.6527822 34.4444444,32 C34.4444444,33.3472178 33.3472178,34.4444444 32,34.4444444 Z" id="Shape" fill="#FFFFFF"></path>
                <path d="M32,50.8888889 C21.5850667,50.8888889 13.1111111,42.4149333 13.1111111,32 C13.1111111,23.7031289 18.4253511,16.4600711 26.3332978,13.9756978 C26.9236089,13.7916622 27.5434133,14.1180622 27.7274311,14.7031289 C27.9114489,15.2881956 27.5850667,15.9131911 26.9999644,16.0972267 C20.0208356,18.2881956 15.3333333,24.6788267 15.3333333,32 C15.3333333,41.1892444 22.8107556,48.6666667 32,48.6666667 C41.1892444,48.6666667 48.6666667,41.1892444 48.6666667,32 C48.6666667,29.0711822 47.89584,26.1892444 46.4374933,23.6666667 C46.1302044,23.1354133 46.3124978,22.4566044 46.8437511,22.1492978 C47.3715378,21.8420089 48.0538133,22.02256 48.36112,22.5555556 C50.0156267,25.4149333 50.8889067,28.6805511 50.8889067,32 C50.8889067,42.4149333 42.4149511,50.8888889 32.0000178,50.8888889 L32,50.8888889 Z" id="Path" fill="#EE0000"></path>
                <path d="M32,43.7777778 C25.5052089,43.7777778 20.2222222,38.4947911 20.2222222,32 C20.2222222,27.8072889 22.4791644,23.8975644 26.1110756,21.7986133 C26.6423644,21.4913244 27.3194489,21.6736178 27.62848,22.2048711 C27.9357689,22.7361244 27.7534756,23.4149333 27.2221867,23.72224 C24.2760533,25.4270933 22.4444444,28.5989689 22.4444444,32.0000178 C22.4444444,37.26912 26.7308978,41.5555733 32,41.5555733 C37.2691022,41.5555733 41.5555556,37.26912 41.5555556,32.0000178 C41.5555556,30.9045333 41.3732622,29.8333511 41.01216,28.8159822 C40.8073067,28.2378489 41.1093867,27.6024356 41.6875022,27.3975822 C42.26736,27.1927289 42.8993067,27.4948089 43.1059022,28.0729244 C43.5520889,29.3298667 43.7777778,30.6510578 43.7777778,32 C43.7777778,38.4947911 38.4947911,43.7777778 32,43.7777778 Z" id="Path" fill="#EE0000"></path>
            </g>
        </g>
    </g>
</svg>