<?xml version="1.0" encoding="UTF-8"?>
<svg width="64px" height="64px" viewBox="0 0 64 64" version="1.1" xmlns="http://www.w3.org/2000/svg" xmlns:xlink="http://www.w3.org/1999/xlink">
    <title>Group 21</title>
    <g id="Widgets" stroke="none" stroke-width="1" fill="none" fill-rule="evenodd">
        <g id="Explore" transform="translate(-1007, -6261)" fill-rule="nonzero">
            <g id="Group-8-Copy-5" transform="translate(15, 6180)">
                <g id="Group-21" transform="translate(992, 81)">
                    <path d="M48,1 C52.1421356,1 55.8921356,2.67893219 58.6066017,5.39339828 C61.3210678,8.10786438 63,11.8578644 63,16 L63,48 C63,52.1421356 61.3210678,55.8921356 58.6066017,58.6066017 C55.8921356,61.3210678 52.1421356,63 48,63 L16,63 C11.8578644,63 8.10786438,61.3210678 5.39339828,58.6066017 C2.67893219,55.8921356 1,52.1421356 1,48 L1,16 C1,11.8578644 2.67893219,8.10786438 5.39339828,5.39339828 C8.10786438,2.67893219 11.8578644,1 16,1 Z" id="Path" stroke="#4D4D4D" stroke-width="2" fill="#000000"></path>
                    <path d="M31.230805,48.4617421 C31.0492473,48.4617421 30.8676895,48.4159226 30.7030903,48.3243009 L13.5005556,38.7677137 C13.1561014,38.5776592 12.9422945,38.2128409 12.9422945,37.819179 C12.9422945,37.4255171 13.1561014,37.0606987 13.5005556,36.8706442 L20.2777224,33.1053662 C20.8054371,32.8118053 21.4621137,33.0035625 21.7539718,33.5261862 C22.04583,34.0505127 21.8574784,34.7122803 21.3331519,35.0024357 L16.2647029,37.819179 L31.230805,46.1336879 L46.1969072,37.819179 L41.1284582,35.0024357 C40.6041317,34.7122803 40.4157801,34.0505127 40.7076382,33.5261862 C40.9994964,33.0035625 41.656173,32.8118226 42.1838877,33.1053662 L48.9610545,36.8706442 C49.3055087,37.0606987 49.5193156,37.4255171 49.5193156,37.819179 C49.5193156,38.2128409 49.3055087,38.5776592 48.9610545,38.7677137 L31.7585198,48.3243009 C31.5939206,48.4159226 31.4123628,48.4617421 31.230805,48.4617421 L31.230805,48.4617421 Z" id="Path" fill="#EE0000"></path>
                    <path d="M31.230805,32.8237076 C31.0492473,32.8237076 30.8676895,32.7778707 30.7030903,32.6862491 L13.5005556,23.1296618 C13.1561014,22.9396074 12.9422945,22.574789 12.9422945,22.1811271 C12.9422945,21.7874652 13.1561014,21.4226468 13.5005556,21.2325924 L30.7030903,11.6760051 C31.230805,11.3824441 31.8891844,11.5742014 32.1793398,12.0968251 C32.4711979,12.6211516 32.2828463,13.2829192 31.7585198,13.5730746 L16.2647029,22.1811271 L31.230805,30.495636 L47.905625,21.2326097 C48.4350426,20.9390488 49.0917191,21.130806 49.3818745,21.6534297 C49.6737327,22.1777562 49.485381,22.8395238 48.9610545,23.1296792 L31.7585198,32.6862665 C31.5939206,32.7778881 31.4123628,32.8237076 31.230805,32.8237076 L31.230805,32.8237076 Z" id="Path" fill="#EE0000"></path>
                    <path d="M22.9790916,28.1421092 C22.5972972,28.1421092 22.2273878,27.9401872 22.0288541,27.5838481 C21.7369959,27.0595216 21.9253475,26.397754 22.449674,26.1075987 L34.1782129,19.5917437 C34.7059277,19.2981827 35.3626042,19.48994 35.6544624,20.0125637 C35.9463206,20.5368902 35.7579689,21.1986578 35.2336424,21.4888132 L23.5051035,28.0046681 C23.3371161,28.0979925 23.1572437,28.1421092 22.9790916,28.1421092 L22.9790916,28.1421092 Z" id="Path" fill="#EE0000"></path>
                    <path d="M31.230805,40.7394288 C31.0492473,40.7394288 30.8676895,40.6936093 30.7030903,40.6019877 L13.3274771,30.9486878 C12.8031506,30.6585324 12.6147989,29.9967648 12.9066571,29.4724383 C13.1951271,28.9498146 13.8568947,28.7597601 14.3829066,29.0516183 L31.230805,38.4113746 L48.0787035,29.0516183 C48.6047154,28.7597601 49.2630948,28.9498146 49.554953,29.4724383 C49.8468111,29.9967648 49.6584595,30.6585324 49.134133,30.9486878 L31.7585198,40.6019877 C31.5939206,40.6936093 31.4123628,40.7394288 31.230805,40.7394288 Z" id="Path" fill="#FFFFFF"></path>
                </g>
            </g>
        </g>
    </g>
</svg>