<?xml version="1.0" encoding="UTF-8"?>
<svg width="64px" height="58px" viewBox="0 0 64 58" version="1.1" xmlns="http://www.w3.org/2000/svg" xmlns:xlink="http://www.w3.org/1999/xlink">
    <title>Group 10@2x</title>
    <g id="Widgets" stroke="none" stroke-width="1" fill="none" fill-rule="evenodd">
        <g id="Explore" transform="translate(-1343, -3883)" fill="#0066CC" fill-rule="nonzero">
            <g id="Group-10" transform="translate(1343, 3883)">
                <rect id="Rectangle" x="57.1313916" y="11.1277274" width="1" height="1" rx="0.5"></rect>
                <path d="M55.0033866,4.03434973 L55.0033739,4.03434973 C54.8727883,4.03434973 54.7669282,4.14020989 54.7669282,4.27078905 C54.7669282,4.40136822 54.8727883,4.50724753 55.0033739,4.50724753 L55.0033866,4.50724753 C55.1339722,4.50723476 55.239826,4.4013746 55.239826,4.27078905 C55.239826,4.14020351 55.1339722,4.03434973 55.0033866,4.03434973 Z" id="Path"></path>
                <path d="M55.0033866,6.39881959 L55.0033739,6.39881959 C54.8727883,6.39881959 54.7669282,6.50467975 54.7669282,6.63525892 C54.7669282,6.76583808 54.8727883,6.87169824 55.0033739,6.87169824 L55.0033866,6.87169824 C55.1339722,6.87169824 55.239826,6.76583808 55.239826,6.63525892 C55.239826,6.50467975 55.1339722,6.39881959 55.0033866,6.39881959 Z" id="Path"></path>
                <path d="M56.1856024,8.05392679 C56.316188,8.05392679 56.4220481,7.94806663 56.4220481,7.81748746 C56.4220481,7.6869083 56.316188,7.58104814 56.1856024,7.58104814 C56.0550169,7.58104814 55.9491567,7.6869083 55.9491567,7.81748746 C55.9491567,7.94806663 56.0550169,8.05392679 56.1856024,8.05392679 Z" id="Path"></path>
                <path d="M55.0033866,8.76328307 L55.0033739,8.76328307 C54.8727883,8.76328307 54.7669282,8.86914323 54.7669282,8.99972239 C54.7669282,9.13030156 54.8727883,9.23616172 55.0033739,9.23616172 L55.0033866,9.23616172 C55.1339722,9.23616172 55.239826,9.13030156 55.239826,8.99972239 C55.239826,8.86914323 55.1339722,8.76328307 55.0033866,8.76328307 Z" id="Path"></path>
                <path d="M56.1856024,10.4183903 C56.316188,10.4183903 56.4220481,10.3125301 56.4220481,10.1819509 C56.4220481,10.0513718 56.316188,9.94549246 56.1856024,9.94549246 C56.0550169,9.94549246 55.9491567,10.0513526 55.9491567,10.1819509 C55.9491567,10.3125493 56.0550169,10.4183903 56.1856024,10.4183903 Z" id="Path"></path>
                <rect id="Rectangle" x="54.7669282" y="11.1277274" width="1" height="1" rx="0.5"></rect>
                <path d="M57.367831,9.23616172 L57.3678437,9.23616172 C57.4984293,9.23616172 57.6042831,9.13030156 57.6042831,8.99972239 C57.6042831,8.86914323 57.4984293,8.76328307 57.3678437,8.76328307 L57.367831,8.76328307 C57.2372454,8.76328307 57.1313853,8.86914323 57.1313853,8.99972239 C57.1313853,9.13030156 57.2372454,9.23616172 57.367831,9.23616172 Z" id="Path"></path>
                <path d="M53.8211453,2.85212118 C53.6905598,2.85212118 53.5846996,2.95798134 53.5846996,3.08856051 C53.5846996,3.21913967 53.6905598,3.32501899 53.8211453,3.32501899 C53.9517309,3.32501899 54.057591,3.21915882 54.057591,3.08856051 C54.057591,2.95796219 53.9517309,2.85212118 53.8211453,2.85212118 Z" id="Path"></path>
                <path d="M52.6389232,4.03434973 L52.6389168,4.03434973 C52.5083312,4.03434973 52.4024711,4.14020989 52.4024711,4.27078905 C52.4024711,4.40136822 52.5083312,4.50724753 52.6389168,4.50724753 L52.6389232,4.50724753 C52.7695023,4.50723476 52.8753625,4.4013746 52.8753625,4.27078905 C52.8753625,4.14020351 52.7695087,4.03434973 52.6389232,4.03434973 Z" id="Path"></path>
                <path d="M53.8211453,5.21658466 C53.6905598,5.21658466 53.5846996,5.32244482 53.5846996,5.45302399 C53.5846996,5.58360315 53.6905598,5.68946331 53.8211453,5.68946331 C53.9517309,5.68946331 54.057591,5.58360315 54.057591,5.45302399 C54.057591,5.32244482 53.9517309,5.21658466 53.8211453,5.21658466 Z" id="Path"></path>
                <path d="M52.6389232,6.39881959 L52.6389168,6.39881959 C52.5083312,6.39881959 52.4024711,6.50467975 52.4024711,6.63525892 C52.4024711,6.76583808 52.5083312,6.87169824 52.6389168,6.87169824 L52.6389232,6.87169824 C52.7695023,6.87169824 52.8753625,6.76583808 52.8753625,6.63525892 C52.8753625,6.50467975 52.7695087,6.39881959 52.6389232,6.39881959 Z" id="Path"></path>
                <path d="M53.8211453,7.58104814 C53.6905598,7.58104814 53.5846996,7.6869083 53.5846996,7.81748746 C53.5846996,7.94806663 53.6905598,8.05392679 53.8211453,8.05392679 C53.9517309,8.05392679 54.057591,7.94806663 54.057591,7.81748746 C54.057591,7.6869083 53.9517309,7.58104814 53.8211453,7.58104814 Z" id="Path"></path>
                <path d="M52.6389232,8.76328307 L52.6389168,8.76328307 C52.5083312,8.76328307 52.4024711,8.86914323 52.4024711,8.99972239 C52.4024711,9.13030156 52.5083312,9.23616172 52.6389168,9.23616172 L52.6389232,9.23616172 C52.7695023,9.23616172 52.8753625,9.13030156 52.8753625,8.99972239 C52.8753625,8.86914323 52.7695087,8.76328307 52.6389232,8.76328307 Z" id="Path"></path>
                <path d="M53.8211453,9.94549885 C53.6905598,9.94549885 53.5846996,10.051359 53.5846996,10.1819573 C53.5846996,10.3125556 53.6905598,10.4183967 53.8211453,10.4183967 C53.9517309,10.4183967 54.057591,10.3125365 54.057591,10.1819573 C54.057591,10.0513782 53.9517309,9.94549885 53.8211453,9.94549885 Z" id="Path"></path>
                <rect id="Rectangle" x="52.4024711" y="11.1277274" width="1" height="1" rx="0.5"></rect>
                <rect id="Rectangle" x="50.0380076" y="1.66988625" width="1" height="1" rx="0.5"></rect>
                <path d="M51.4566818,2.85212118 C51.3260963,2.85212118 51.2202361,2.95798134 51.2202361,3.08856051 C51.2202361,3.21913967 51.3260963,3.32501899 51.4566818,3.32501899 C51.5872674,3.32501899 51.6931276,3.21915882 51.6931276,3.08856051 C51.6931276,2.95796219 51.5872674,2.85212118 51.4566818,2.85212118 Z" id="Path"></path>
                <path d="M50.2744661,4.03434973 L50.2744597,4.03434973 C50.1438741,4.03434973 50.038014,4.14020989 50.038014,4.27078905 C50.038014,4.40136822 50.1438741,4.50724753 50.2744597,4.50724753 L50.2744661,4.50724753 C50.4050452,4.50723476 50.5109054,4.4013746 50.5109054,4.27078905 C50.5109054,4.14020351 50.4050516,4.03434973 50.2744661,4.03434973 Z" id="Path"></path>
                <path d="M51.4566818,5.21658466 C51.3260963,5.21658466 51.2202361,5.32244482 51.2202361,5.45302399 C51.2202361,5.58360315 51.3260963,5.68946331 51.4566818,5.68946331 C51.5872674,5.68946331 51.6931276,5.58360315 51.6931276,5.45302399 C51.6931276,5.32244482 51.5872674,5.21658466 51.4566818,5.21658466 Z" id="Path"></path>
                <path d="M50.2744661,6.39881959 L50.2744597,6.39881959 C50.1438741,6.39881959 50.038014,6.50467975 50.038014,6.63525892 C50.038014,6.76583808 50.1438741,6.87169824 50.2744597,6.87169824 L50.2744661,6.87169824 C50.4050452,6.87169824 50.5109054,6.76583808 50.5109054,6.63525892 C50.5109054,6.50467975 50.4050516,6.39881959 50.2744661,6.39881959 Z" id="Path"></path>
                <path d="M51.4566818,7.58104814 C51.3260963,7.58104814 51.2202361,7.6869083 51.2202361,7.81748746 C51.2202361,7.94806663 51.3260963,8.05392679 51.4566818,8.05392679 C51.5872674,8.05392679 51.6931276,7.94806663 51.6931276,7.81748746 C51.6931276,7.6869083 51.5872674,7.58104814 51.4566818,7.58104814 Z" id="Path"></path>
                <path d="M50.2744661,8.76328307 L50.2744597,8.76328307 C50.1438741,8.76328307 50.038014,8.86914323 50.038014,8.99972239 C50.038014,9.13030156 50.1438741,9.23616172 50.2744597,9.23616172 L50.2744661,9.23616172 C50.4050452,9.23616172 50.5109054,9.13030156 50.5109054,8.99972239 C50.5109054,8.86914323 50.4050516,8.76328307 50.2744661,8.76328307 Z" id="Path"></path>
                <path d="M51.4566818,9.94549885 C51.3260963,9.94549885 51.2202361,10.051359 51.2202361,10.1819573 C51.2202361,10.3125556 51.3260963,10.4183967 51.4566818,10.4183967 C51.5872674,10.4183967 51.6931276,10.3125365 51.6931276,10.1819573 C51.6931276,10.0513782 51.5872674,9.94549885 51.4566818,9.94549885 Z" id="Path"></path>
                <rect id="Rectangle" x="50.0380076" y="11.1277274" width="1" height="1" rx="0.5"></rect>
                <path d="M51.4566818,12.3099623 C51.3260963,12.3099623 51.2202361,12.4158225 51.2202361,12.5464017 C51.2202361,12.6769808 51.3260963,12.7828601 51.4566818,12.7828601 C51.5872674,12.7828601 51.6931276,12.677 51.6931276,12.5464017 C51.6931276,12.4158033 51.5872674,12.3099623 51.4566818,12.3099623 Z" id="Path"></path>
                <path d="M50.2744661,13.4921909 L50.2744597,13.4921909 C50.1438741,13.4921909 50.038014,13.5980383 50.038014,13.7286302 C50.038014,13.8592221 50.1438741,13.9650887 50.2744597,13.9650887 L50.2744661,13.9650887 C50.4050452,13.9650759 50.5109054,13.8592157 50.5109054,13.7286302 C50.5109054,13.5980446 50.4050516,13.4921909 50.2744661,13.4921909 Z" id="Path"></path>
                <rect id="Rectangle" x="47.6735505" y="1.66988625" width="1" height="1" rx="0.5"></rect>
                <path d="M49.0922247,2.85212118 C48.9616392,2.85212118 48.855779,2.95798134 48.855779,3.08856051 C48.855779,3.21913967 48.9616392,3.32501899 49.0922247,3.32501899 C49.2228103,3.32501899 49.3286705,3.21915882 49.3286705,3.08856051 C49.3286705,2.95796219 49.2228103,2.85212118 49.0922247,2.85212118 Z" id="Path"></path>
                <path d="M47.9100026,4.03434973 L47.9099962,4.03434973 C47.7794107,4.03434973 47.6735505,4.14020989 47.6735505,4.27078905 C47.6735505,4.40136822 47.7794107,4.50724753 47.9099962,4.50724753 L47.9100026,4.50724753 C48.0405817,4.50723476 48.1464419,4.4013746 48.1464419,4.27078905 C48.1464419,4.14020351 48.0405881,4.03434973 47.9100026,4.03434973 Z" id="Path"></path>
                <path d="M49.0922247,5.21658466 C48.9616392,5.21658466 48.855779,5.32244482 48.855779,5.45302399 C48.855779,5.58360315 48.9616392,5.68946331 49.0922247,5.68946331 C49.2228103,5.68946331 49.3286705,5.58360315 49.3286705,5.45302399 C49.3286705,5.32244482 49.2228103,5.21658466 49.0922247,5.21658466 Z" id="Path"></path>
                <path d="M47.9100026,6.39881959 L47.9099962,6.39881959 C47.7794107,6.39881959 47.6735505,6.50467975 47.6735505,6.63525892 C47.6735505,6.76583808 47.7794107,6.87169824 47.9099962,6.87169824 L47.9100026,6.87169824 C48.0405817,6.87169824 48.1464419,6.76583808 48.1464419,6.63525892 C48.1464419,6.50467975 48.0405881,6.39881959 47.9100026,6.39881959 Z" id="Path"></path>
                <path d="M49.0922247,7.58104814 C48.9616392,7.58104814 48.855779,7.6869083 48.855779,7.81748746 C48.855779,7.94806663 48.9616392,8.05392679 49.0922247,8.05392679 C49.2228103,8.05392679 49.3286705,7.94806663 49.3286705,7.81748746 C49.3286705,7.6869083 49.2228103,7.58104814 49.0922247,7.58104814 Z" id="Path"></path>
                <path d="M47.9100026,8.76328307 L47.9099962,8.76328307 C47.7794107,8.76328307 47.6735505,8.86914323 47.6735505,8.99972239 C47.6735505,9.13030156 47.7794107,9.23616172 47.9099962,9.23616172 L47.9100026,9.23616172 C48.0405817,9.23616172 48.1464419,9.13030156 48.1464419,8.99972239 C48.1464419,8.86914323 48.0405881,8.76328307 47.9100026,8.76328307 Z" id="Path"></path>
                <path d="M49.0922247,9.94549885 C48.9616392,9.94549885 48.855779,10.051359 48.855779,10.1819573 C48.855779,10.3125556 48.9616392,10.4183967 49.0922247,10.4183967 C49.2228103,10.4183967 49.3286705,10.3125365 49.3286705,10.1819573 C49.3286705,10.0513782 49.2228103,9.94549885 49.0922247,9.94549885 Z" id="Path"></path>
                <rect id="Rectangle" x="47.6735505" y="11.1277274" width="1" height="1" rx="0.5"></rect>
                <path d="M49.0922247,12.3099623 C48.9616392,12.3099623 48.855779,12.4158225 48.855779,12.5464017 C48.855779,12.6769808 48.9616392,12.7828601 49.0922247,12.7828601 C49.2228103,12.7828601 49.3286705,12.677 49.3286705,12.5464017 C49.3286705,12.4158033 49.2228103,12.3099623 49.0922247,12.3099623 Z" id="Path"></path>
                <path d="M46.7277613,0.487657705 C46.5971757,0.487657705 46.4913156,0.593517865 46.4913156,0.724116182 C46.4913156,0.854714499 46.5971757,0.960555507 46.7277613,0.960555507 C46.8583468,0.960555507 46.964207,0.854695347 46.964207,0.724116182 C46.964207,0.593537017 46.8583468,0.487657705 46.7277613,0.487657705 Z" id="Path"></path>
                <rect id="Rectangle" x="45.3090934" y="1.66988625" width="1" height="1" rx="0.5"></rect>
                <path d="M46.7277613,2.85212118 C46.5971757,2.85212118 46.4913156,2.95798134 46.4913156,3.08856051 C46.4913156,3.21913967 46.5971757,3.32501899 46.7277613,3.32501899 C46.8583468,3.32501899 46.964207,3.21915882 46.964207,3.08856051 C46.964207,2.95796219 46.8583468,2.85212118 46.7277613,2.85212118 Z" id="Path"></path>
                <path d="M45.5455455,4.03434973 L45.5455327,4.03434973 C45.4149472,4.03434973 45.309087,4.14020989 45.309087,4.27078905 C45.309087,4.40136822 45.4149472,4.50724753 45.5455327,4.50724753 L45.5455455,4.50724753 C45.676131,4.50723476 45.7819848,4.4013746 45.7819848,4.27078905 C45.7819848,4.14020351 45.676131,4.03434973 45.5455455,4.03434973 Z" id="Path"></path>
                <path d="M46.7277613,5.21658466 C46.5971757,5.21658466 46.4913156,5.32244482 46.4913156,5.45302399 C46.4913156,5.58360315 46.5971757,5.68946331 46.7277613,5.68946331 C46.8583468,5.68946331 46.964207,5.58360315 46.964207,5.45302399 C46.964207,5.32244482 46.8583468,5.21658466 46.7277613,5.21658466 Z" id="Path"></path>
                <path d="M45.5455455,6.39881959 L45.5455327,6.39881959 C45.4149472,6.39881959 45.309087,6.50467975 45.309087,6.63525892 C45.309087,6.76583808 45.4149472,6.87169824 45.5455327,6.87169824 L45.5455455,6.87169824 C45.676131,6.87169824 45.7819848,6.76583808 45.7819848,6.63525892 C45.7819848,6.50467975 45.676131,6.39881959 45.5455455,6.39881959 Z" id="Path"></path>
                <path d="M46.7277613,7.58104814 C46.5971757,7.58104814 46.4913156,7.6869083 46.4913156,7.81748746 C46.4913156,7.94806663 46.5971757,8.05392679 46.7277613,8.05392679 C46.8583468,8.05392679 46.964207,7.94806663 46.964207,7.81748746 C46.964207,7.6869083 46.8583468,7.58104814 46.7277613,7.58104814 Z" id="Path"></path>
                <path d="M45.5455455,8.76328307 L45.5455327,8.76328307 C45.4149472,8.76328307 45.309087,8.86914323 45.309087,8.99972239 C45.309087,9.13030156 45.4149472,9.23616172 45.5455327,9.23616172 L45.5455455,9.23616172 C45.676131,9.23616172 45.7819848,9.13030156 45.7819848,8.99972239 C45.7819848,8.86914323 45.676131,8.76328307 45.5455455,8.76328307 Z" id="Path"></path>
                <path d="M46.7277613,9.94549885 C46.5971757,9.94549885 46.4913156,10.051359 46.4913156,10.1819573 C46.4913156,10.3125556 46.5971757,10.4183967 46.7277613,10.4183967 C46.8583468,10.4183967 46.964207,10.3125365 46.964207,10.1819573 C46.964207,10.0513782 46.8583468,9.94549885 46.7277613,9.94549885 Z" id="Path"></path>
                <rect id="Rectangle" x="42.9446299" y="1.66988625" width="1" height="1" rx="0.5"></rect>
                <path d="M44.3633106,2.85212118 C44.232725,2.85212118 44.1268649,2.95798134 44.1268649,3.08856051 C44.1268649,3.21913967 44.232725,3.32501899 44.3633106,3.32501899 C44.4938961,3.32501899 44.5997563,3.21915882 44.5997563,3.08856051 C44.5997563,2.95796219 44.4938961,2.85212118 44.3633106,2.85212118 Z" id="Path"></path>
                <path d="M43.1810884,4.03434973 L43.1810756,4.03434973 C43.0504901,4.03434973 42.9446299,4.14020989 42.9446299,4.27078905 C42.9446299,4.40136822 43.0504901,4.50724753 43.1810756,4.50724753 L43.1810884,4.50724753 C43.3116739,4.50723476 43.4175277,4.4013746 43.4175277,4.27078905 C43.4175277,4.14020351 43.3116739,4.03434973 43.1810884,4.03434973 Z" id="Path"></path>
                <path d="M44.3633106,5.21658466 C44.232725,5.21658466 44.1268649,5.32244482 44.1268649,5.45302399 C44.1268649,5.58360315 44.232725,5.68946331 44.3633106,5.68946331 C44.4938961,5.68946331 44.5997563,5.58360315 44.5997563,5.45302399 C44.5997563,5.32244482 44.4938961,5.21658466 44.3633106,5.21658466 Z" id="Path"></path>
                <path d="M43.1810884,6.39881959 L43.1810756,6.39881959 C43.0504901,6.39881959 42.9446299,6.50467975 42.9446299,6.63525892 C42.9446299,6.76583808 43.0504901,6.87169824 43.1810756,6.87169824 L43.1810884,6.87169824 C43.3116739,6.87169824 43.4175277,6.76583808 43.4175277,6.63525892 C43.4175277,6.50467975 43.3116739,6.39881959 43.1810884,6.39881959 Z" id="Path"></path>
                <path d="M44.3633106,7.58104814 C44.232725,7.58104814 44.1268649,7.6869083 44.1268649,7.81748746 C44.1268649,7.94806663 44.232725,8.05392679 44.3633106,8.05392679 C44.4938961,8.05392679 44.5997563,7.94806663 44.5997563,7.81748746 C44.5997563,7.6869083 44.4938961,7.58104814 44.3633106,7.58104814 Z" id="Path"></path>
                <path d="M43.1810884,8.76328307 L43.1810756,8.76328307 C43.0504901,8.76328307 42.9446299,8.86914323 42.9446299,8.99972239 C42.9446299,9.13030156 43.0504901,9.23616172 43.1810756,9.23616172 L43.1810884,9.23616172 C43.3116739,9.23616172 43.4175277,9.13030156 43.4175277,8.99972239 C43.4175277,8.86914323 43.3116739,8.76328307 43.1810884,8.76328307 Z" id="Path"></path>
                <path d="M44.3633106,9.94549885 C44.232725,9.94549885 44.1268649,10.051359 44.1268649,10.1819573 C44.1268649,10.3125556 44.232725,10.4183967 44.3633106,10.4183967 C44.4938961,10.4183967 44.5997563,10.3125365 44.5997563,10.1819573 C44.5997563,10.0513782 44.4938961,9.94549885 44.3633106,9.94549885 Z" id="Path"></path>
                <path d="M41.9988471,2.85212118 C41.8682615,2.85212118 41.7624014,2.95798134 41.7624014,3.08856051 C41.7624014,3.21913967 41.8682615,3.32501899 41.9988471,3.32501899 C42.1294326,3.32501899 42.2352928,3.21915882 42.2352928,3.08856051 C42.2352928,2.95796219 42.1294326,2.85212118 41.9988471,2.85212118 Z" id="Path"></path>
                <path d="M40.8166249,4.03434973 L40.8166122,4.03434973 C40.6860266,4.03434973 40.5801664,4.14020989 40.5801664,4.27078905 C40.5801664,4.40136822 40.6860266,4.50724753 40.8166122,4.50724753 L40.8166249,4.50724753 C40.9472105,4.50723476 41.0530642,4.4013746 41.0530642,4.27078905 C41.0530642,4.14020351 40.9472105,4.03434973 40.8166249,4.03434973 Z" id="Path"></path>
                <path d="M41.9988471,5.21658466 C41.8682615,5.21658466 41.7624014,5.32244482 41.7624014,5.45302399 C41.7624014,5.58360315 41.8682615,5.68946331 41.9988471,5.68946331 C42.1294326,5.68946331 42.2352928,5.58360315 42.2352928,5.45302399 C42.2352928,5.32244482 42.1294326,5.21658466 41.9988471,5.21658466 Z" id="Path"></path>
                <path d="M40.8166249,6.39881959 L40.8166122,6.39881959 C40.6860266,6.39881959 40.5801664,6.50467975 40.5801664,6.63525892 C40.5801664,6.76583808 40.6860266,6.87169824 40.8166122,6.87169824 L40.8166249,6.87169824 C40.9472105,6.87169824 41.0530642,6.76583808 41.0530642,6.63525892 C41.0530642,6.50467975 40.9472105,6.39881959 40.8166249,6.39881959 Z" id="Path"></path>
                <path d="M41.9988471,7.58104814 C41.8682615,7.58104814 41.7624014,7.6869083 41.7624014,7.81748746 C41.7624014,7.94806663 41.8682615,8.05392679 41.9988471,8.05392679 C42.1294326,8.05392679 42.2352928,7.94806663 42.2352928,7.81748746 C42.2352928,7.6869083 42.1294326,7.58104814 41.9988471,7.58104814 Z" id="Path"></path>
                <path d="M39.63439,5.21658466 C39.5038044,5.21658466 39.3979443,5.32244482 39.3979443,5.45302399 C39.3979443,5.58360315 39.5038044,5.68946331 39.63439,5.68946331 C39.7649755,5.68946331 39.8708357,5.58360315 39.8708357,5.45302399 C39.8708357,5.32244482 39.7649755,5.21658466 39.63439,5.21658466 Z" id="Path"></path>
                <path d="M38.4521678,6.39881959 L38.4521614,6.39881959 C38.3215759,6.39881959 38.2157157,6.50467975 38.2157157,6.63525892 C38.2157157,6.76583808 38.3215759,6.87169824 38.4521614,6.87169824 L38.4521678,6.87169824 C38.582747,6.87169824 38.6886072,6.76583808 38.6886072,6.63525892 C38.6886072,6.50467975 38.5827534,6.39881959 38.4521678,6.39881959 Z" id="Path"></path>
                <path d="M39.63439,7.58104814 C39.5038044,7.58104814 39.3979443,7.6869083 39.3979443,7.81748746 C39.3979443,7.94806663 39.5038044,8.05392679 39.63439,8.05392679 C39.7649755,8.05392679 39.8708357,7.94806663 39.8708357,7.81748746 C39.8708357,7.6869083 39.7649755,7.58104814 39.63439,7.58104814 Z" id="Path"></path>
                <path d="M14.8075714,44.230165 L14.807565,44.230165 C14.6769794,44.230165 14.5711193,44.3360252 14.5711193,44.4666043 C14.5711193,44.5971835 14.6769794,44.7030628 14.807565,44.7030628 L14.8075714,44.7030628 C14.9381569,44.70305 15.0440107,44.5972027 15.0440107,44.4666043 C15.0440107,44.336006 14.9381569,44.2301778 14.8075714,44.230165 Z" id="Path"></path>
                <path d="M14.8075714,46.5946285 L14.807565,46.5946285 C14.6769794,46.5946285 14.5711193,46.7004886 14.5711193,46.8310678 C14.5711193,46.961647 14.6769794,47.0675263 14.807565,47.0675263 L14.8075714,47.0675263 C14.9381569,47.0675135 15.0440107,46.9616534 15.0440107,46.8310678 C15.0440107,46.7004823 14.9381569,46.5946285 14.8075714,46.5946285 Z" id="Path"></path>
                <path d="M15.9897935,47.7768443 C15.859208,47.7768443 15.7533478,47.8827044 15.7533478,48.0133027 C15.7533478,48.1439011 15.859208,48.2497421 15.9897935,48.2497421 C16.1203791,48.2497421 16.2262392,48.1438819 16.2262392,48.0133027 C16.2262392,47.8827236 16.1203791,47.7768443 15.9897935,47.7768443 Z" id="Path"></path>
                <rect id="Rectangle" x="14.5711129" y="48.9590792" width="1" height="1" rx="0.5"></rect>
                <path d="M12.4431143,41.8657015 L12.4431079,41.8657015 C12.3125223,41.8657015 12.2066622,41.9715617 12.2066622,42.10216 C12.2066622,42.2327583 12.3125223,42.3385993 12.4431079,42.3385993 L12.4431143,42.3385993 C12.5736934,42.3385993 12.6795472,42.2327392 12.6795472,42.10216 C12.6795472,41.9715808 12.5736934,41.8657207 12.4431143,41.8657015 Z" id="Path"></path>
                <path d="M13.6253364,43.0479301 C13.4947509,43.0479301 13.3888907,43.1537902 13.3888907,43.2843886 C13.3888907,43.4149869 13.4947509,43.5208279 13.6253364,43.5208279 C13.755922,43.5208279 13.8617757,43.4149677 13.8617757,43.2843886 C13.8617757,43.1538094 13.7559156,43.0479301 13.6253364,43.0479301 Z" id="Path"></path>
                <path d="M12.4431143,44.230165 L12.4431079,44.230165 C12.3125223,44.230165 12.2066622,44.3360252 12.2066622,44.4666043 C12.2066622,44.5971835 12.3125223,44.7030628 12.4431079,44.7030628 L12.4431143,44.7030628 C12.5736934,44.70305 12.6795472,44.5972027 12.6795472,44.4666043 C12.6795472,44.336006 12.5736934,44.2301778 12.4431143,44.230165 Z" id="Path"></path>
                <path d="M13.6253364,45.4123936 C13.4947509,45.4123936 13.3888907,45.5182537 13.3888907,45.6488329 C13.3888907,45.779412 13.4947509,45.8852914 13.6253364,45.8852914 C13.755922,45.8852914 13.8617757,45.7794312 13.8617757,45.6488329 C13.8617757,45.5182346 13.7559156,45.4123936 13.6253364,45.4123936 Z" id="Path"></path>
                <path d="M12.4431143,46.5946285 L12.4431079,46.5946285 C12.3125223,46.5946285 12.2066622,46.7004886 12.2066622,46.8310678 C12.2066622,46.961647 12.3125223,47.0675263 12.4431079,47.0675263 L12.4431143,47.0675263 C12.5736934,47.0675135 12.6795472,46.9616534 12.6795472,46.8310678 C12.6795472,46.7004823 12.5736934,46.5946285 12.4431143,46.5946285 Z" id="Path"></path>
                <path d="M13.6253364,47.7768443 C13.4947509,47.7768443 13.3888907,47.8827044 13.3888907,48.0133027 C13.3888907,48.1439011 13.4947509,48.2497421 13.6253364,48.2497421 C13.755922,48.2497421 13.8617757,48.1438819 13.8617757,48.0133027 C13.8617757,47.8827236 13.7559156,47.7768443 13.6253364,47.7768443 Z" id="Path"></path>
                <path d="M12.4430887,48.9590728 L12.4430951,48.9590728 C12.5735913,48.9590728 12.6795408,49.0650287 12.6795408,49.1955249 L12.6795408,49.1955249 C12.6795408,49.3260275 12.5735913,49.4319706 12.4430951,49.4319706 L12.4430887,49.4319706 C12.3125989,49.4319706 12.2066558,49.3260275 12.2066558,49.1955377 L12.2066558,49.1955058 C12.2066558,49.065016 12.3125989,48.9590728 12.4430887,48.9590728 L12.4430887,48.9590728 Z" id="Path"></path>
                <path d="M13.6253364,50.1413077 C13.4947509,50.1413077 13.3888907,50.2471679 13.3888907,50.3777471 C13.3888907,50.5083262 13.4947509,50.6142055 13.6253364,50.6142055 C13.755922,50.6142055 13.8617757,50.5083454 13.8617757,50.3777471 C13.8617757,50.2471488 13.7559156,50.1413077 13.6253364,50.1413077 Z" id="Path"></path>
                <path d="M10.0786572,39.5012508 L10.0786444,39.5012508 C9.94806523,39.5012508 9.84220507,39.6070982 9.84220507,39.7376901 C9.84220507,39.8682821 9.94806523,39.9741295 10.0786444,39.9741295 L10.0786572,39.9741295 C10.2092363,39.9741295 10.3150901,39.8682693 10.3150901,39.7376901 C10.3150901,39.607111 10.2092363,39.5012508 10.0786572,39.5012508 Z" id="Path"></path>
                <path d="M11.2608729,40.6834858 C11.1302938,40.6834858 11.0244336,40.7893459 11.0244336,40.9199251 C11.0244336,41.0505042 11.1302938,41.1563644 11.2608729,41.1563644 C11.3914521,41.1563644 11.4973187,41.0505042 11.4973187,40.9199251 C11.4973187,40.7893459 11.3914585,40.6834858 11.2608729,40.6834858 Z" id="Path"></path>
                <path d="M10.0786572,41.8657015 L10.0786444,41.8657015 C9.94806523,41.8657015 9.84220507,41.9715617 9.84220507,42.10216 C9.84220507,42.2327583 9.94806523,42.3385993 10.0786444,42.3385993 L10.0786572,42.3385993 C10.2092363,42.3385993 10.3150901,42.2327392 10.3150901,42.10216 C10.3150901,41.9715808 10.2092363,41.8657207 10.0786572,41.8657015 Z" id="Path"></path>
                <path d="M11.2608729,43.0479301 C11.1302938,43.0479301 11.0244336,43.1537902 11.0244336,43.2843886 C11.0244336,43.4149869 11.1302938,43.5208279 11.2608729,43.5208279 C11.3914521,43.5208279 11.4973187,43.4149677 11.4973187,43.2843886 C11.4973187,43.1538094 11.3914585,43.0479301 11.2608729,43.0479301 Z" id="Path"></path>
                <path d="M10.0786572,44.230165 L10.0786444,44.230165 C9.94806523,44.230165 9.84220507,44.3360252 9.84220507,44.4666043 C9.84220507,44.5971835 9.94806523,44.7030628 10.0786444,44.7030628 L10.0786572,44.7030628 C10.2092363,44.70305 10.3150901,44.5972027 10.3150901,44.4666043 C10.3150901,44.336006 10.2092363,44.2301778 10.0786572,44.230165 Z" id="Path"></path>
                <path d="M11.2608729,45.4123936 C11.1302938,45.4123936 11.0244336,45.5182537 11.0244336,45.6488329 C11.0244336,45.779412 11.1302938,45.8852914 11.2608729,45.8852914 C11.3914521,45.8852914 11.4973187,45.7794312 11.4973187,45.6488329 C11.4973187,45.5182346 11.3914585,45.4123936 11.2608729,45.4123936 Z" id="Path"></path>
                <path d="M10.0786572,46.5946285 L10.0786444,46.5946285 C9.94806523,46.5946285 9.84220507,46.7004886 9.84220507,46.8310678 C9.84220507,46.961647 9.94806523,47.0675263 10.0786444,47.0675263 L10.0786572,47.0675263 C10.2092363,47.0675135 10.3150901,46.9616534 10.3150901,46.8310678 C10.3150901,46.7004823 10.2092363,46.5946285 10.0786572,46.5946285 Z" id="Path"></path>
                <path d="M11.2608729,47.7768443 C11.1302938,47.7768443 11.0244336,47.8827044 11.0244336,48.0133027 C11.0244336,48.1439011 11.1302938,48.2497421 11.2608729,48.2497421 C11.3914521,48.2497421 11.4973187,48.1438819 11.4973187,48.0133027 C11.4973187,47.8827236 11.3914585,47.7768443 11.2608729,47.7768443 Z" id="Path"></path>
                <path d="M10.078638,48.9590728 L10.0786444,48.9590728 C10.2091406,48.9590728 10.3150837,49.0650224 10.3150837,49.1955185 L10.3150837,49.1955313 C10.3150837,49.3260275 10.2091406,49.4319706 10.0786444,49.4319706 L10.0786316,49.4319706 C9.94814184,49.4319706 9.84219869,49.3260275 9.84219869,49.1955377 L9.84219869,49.1955121 C9.84219869,49.065016 9.94814184,48.9590728 10.078638,48.9590728 L10.078638,48.9590728 Z" id="Path"></path>
                <path d="M11.2608729,50.1413077 C11.1302938,50.1413077 11.0244336,50.2471679 11.0244336,50.3777471 C11.0244336,50.5083262 11.1302938,50.6142055 11.2608729,50.6142055 C11.3914521,50.6142055 11.4973187,50.5083454 11.4973187,50.3777471 C11.4973187,50.2471488 11.3914585,50.1413077 11.2608729,50.1413077 Z" id="Path"></path>
                <path d="M10.0786572,51.3235427 L10.0786444,51.3235427 C9.94806523,51.3235427 9.84220507,51.4294028 9.84220507,51.559982 C9.84220507,51.6905612 9.94806523,51.7964405 10.0786444,51.7964405 L10.0786572,51.7964405 C10.2092363,51.7964277 10.3150901,51.6905676 10.3150901,51.559982 C10.3150901,51.4293965 10.2092363,51.3235427 10.0786572,51.3235427 Z" id="Path"></path>
                <path d="M7.71419369,39.5012508 L7.7141873,39.5012508 C7.58360175,39.5012508 7.47774159,39.6070982 7.47774159,39.7376901 C7.47774159,39.8682821 7.58360175,39.9741295 7.7141873,39.9741295 L7.71419369,39.9741295 C7.84477924,39.9741295 7.95063301,39.8682693 7.95063301,39.7376901 C7.95063301,39.607111 7.84477924,39.5012508 7.71419369,39.5012508 Z" id="Path"></path>
                <path d="M8.89640947,40.6834858 C8.7658303,40.6834858 8.65997014,40.7893459 8.65997014,40.9199251 C8.65997014,41.0505042 8.7658303,41.1563644 8.89640947,41.1563644 C9.02698863,41.1563644 9.13286794,41.0505042 9.13286794,40.9199251 C9.13286794,40.7893459 9.02700778,40.6834858 8.89640947,40.6834858 Z" id="Path"></path>
                <path d="M7.71419369,41.8657015 L7.7141873,41.8657015 C7.58360175,41.8657015 7.47774159,41.9715617 7.47774159,42.10216 C7.47774159,42.2327583 7.58360175,42.3385993 7.7141873,42.3385993 L7.71419369,42.3385993 C7.84477924,42.3385993 7.95063301,42.2327392 7.95063301,42.10216 C7.95063301,41.9715808 7.84477924,41.8657207 7.71419369,41.8657015 Z" id="Path"></path>
                <path d="M8.89640947,43.0479301 C8.7658303,43.0479301 8.65997014,43.1537902 8.65997014,43.2843886 C8.65997014,43.4149869 8.7658303,43.5208279 8.89640947,43.5208279 C9.02698863,43.5208279 9.13286794,43.4149677 9.13286794,43.2843886 C9.13286794,43.1538094 9.02700778,43.0479301 8.89640947,43.0479301 Z" id="Path"></path>
                <path d="M7.71419369,44.230165 L7.7141873,44.230165 C7.58360175,44.230165 7.47774159,44.3360252 7.47774159,44.4666043 C7.47774159,44.5971835 7.58360175,44.7030628 7.7141873,44.7030628 L7.71419369,44.7030628 C7.84477924,44.70305 7.95063301,44.5972027 7.95063301,44.4666043 C7.95063301,44.336006 7.84477924,44.2301778 7.71419369,44.230165 Z" id="Path"></path>
                <path d="M8.89640947,45.4123936 C8.7658303,45.4123936 8.65997014,45.5182537 8.65997014,45.6488329 C8.65997014,45.779412 8.7658303,45.8852914 8.89640947,45.8852914 C9.02698863,45.8852914 9.13286794,45.7794312 9.13286794,45.6488329 C9.13286794,45.5182346 9.02700778,45.4123936 8.89640947,45.4123936 Z" id="Path"></path>
                <path d="M7.71419369,46.5946285 L7.7141873,46.5946285 C7.58360175,46.5946285 7.47774159,46.7004886 7.47774159,46.8310678 C7.47774159,46.961647 7.58360175,47.0675263 7.7141873,47.0675263 L7.71419369,47.0675263 C7.84477924,47.0675135 7.95063301,46.9616534 7.95063301,46.8310678 C7.95063301,46.7004823 7.84477924,46.5946285 7.71419369,46.5946285 Z" id="Path"></path>
                <path d="M8.89640947,47.7768443 C8.7658303,47.7768443 8.65997014,47.8827044 8.65997014,48.0133027 C8.65997014,48.1439011 8.7658303,48.2497421 8.89640947,48.2497421 C9.02698863,48.2497421 9.13286794,48.1438819 9.13286794,48.0133027 C9.13286794,47.8827236 9.02700778,47.7768443 8.89640947,47.7768443 Z" id="Path"></path>
                <rect id="Rectangle" x="7.47773521" y="48.9590792" width="1" height="1" rx="0.5"></rect>
                <path d="M8.89640947,50.1413077 C8.7658303,50.1413077 8.65997014,50.2471679 8.65997014,50.3777471 C8.65997014,50.5083262 8.7658303,50.6142055 8.89640947,50.6142055 C9.02698863,50.6142055 9.13286794,50.5083454 9.13286794,50.3777471 C9.13286794,50.2471488 9.02700778,50.1413077 8.89640947,50.1413077 Z" id="Path"></path>
                <path d="M5.34973659,39.5012508 L5.34973021,39.5012508 C5.21914466,39.5012508 5.1132845,39.6070982 5.1132845,39.7376901 C5.1132845,39.8682821 5.21914466,39.9741295 5.34973021,39.9741295 L5.34973659,39.9741295 C5.48032214,39.9741295 5.58616953,39.8682693 5.58616953,39.7376901 C5.58616953,39.607111 5.48032214,39.5012508 5.34973659,39.5012508 Z" id="Path"></path>
                <path d="M6.53195876,40.6834858 C6.40136044,40.6834858 6.29550028,40.7893459 6.29550028,40.9199251 C6.29550028,41.0505042 6.40136044,41.1563644 6.53195876,41.1563644 C6.66255707,41.1563644 6.76839808,41.0505042 6.76839808,40.9199251 C6.76839808,40.7893459 6.66253792,40.6834858 6.53195876,40.6834858 Z" id="Path"></path>
                <path d="M5.34973659,41.8657015 L5.34973021,41.8657015 C5.21914466,41.8657015 5.1132845,41.9715617 5.1132845,42.10216 C5.1132845,42.2327583 5.21914466,42.3385993 5.34973021,42.3385993 L5.34973659,42.3385993 C5.48032214,42.3385993 5.58616953,42.2327392 5.58616953,42.10216 C5.58616953,41.9715808 5.48032214,41.8657207 5.34973659,41.8657015 Z" id="Path"></path>
                <path d="M6.53195876,43.0479301 C6.40136044,43.0479301 6.29550028,43.1537902 6.29550028,43.2843886 C6.29550028,43.4149869 6.40136044,43.5208279 6.53195876,43.5208279 C6.66255707,43.5208279 6.76839808,43.4149677 6.76839808,43.2843886 C6.76839808,43.1538094 6.66253792,43.0479301 6.53195876,43.0479301 Z" id="Path"></path>
                <path d="M5.34973659,44.230165 L5.34973021,44.230165 C5.21914466,44.230165 5.1132845,44.3360252 5.1132845,44.4666043 C5.1132845,44.5971835 5.21914466,44.7030628 5.34973021,44.7030628 L5.34973659,44.7030628 C5.48032214,44.70305 5.58616953,44.5972027 5.58616953,44.4666043 C5.58616953,44.336006 5.48032214,44.2301778 5.34973659,44.230165 Z" id="Path"></path>
                <path d="M6.53195876,45.4123936 C6.40136044,45.4123936 6.29550028,45.5182537 6.29550028,45.6488329 C6.29550028,45.779412 6.40136044,45.8852914 6.53195876,45.8852914 C6.66255707,45.8852914 6.76839808,45.7794312 6.76839808,45.6488329 C6.76839808,45.5182346 6.66253792,45.4123936 6.53195876,45.4123936 Z" id="Path"></path>
                <path d="M5.34973659,46.5946285 L5.34973021,46.5946285 C5.21914466,46.5946285 5.1132845,46.7004886 5.1132845,46.8310678 C5.1132845,46.961647 5.21914466,47.0675263 5.34973021,47.0675263 L5.34973659,47.0675263 C5.48032214,47.0675135 5.58616953,46.9616534 5.58616953,46.8310678 C5.58616953,46.7004823 5.48032214,46.5946285 5.34973659,46.5946285 Z" id="Path"></path>
                <path d="M6.53195876,47.7768443 C6.40136044,47.7768443 6.29550028,47.8827044 6.29550028,48.0133027 C6.29550028,48.1439011 6.40136044,48.2497421 6.53195876,48.2497421 C6.66255707,48.2497421 6.76839808,48.1438819 6.76839808,48.0133027 C6.76839808,47.8827236 6.66253792,47.7768443 6.53195876,47.7768443 Z" id="Path"></path>
                <path d="M5.34971106,48.9590728 L5.34971744,48.9590728 C5.48021361,48.9590728 5.58616315,49.0650287 5.58616315,49.1955249 L5.58616315,49.1955249 C5.58616315,49.3260275 5.48021361,49.4319706 5.34971744,49.4319706 L5.34971106,49.4319706 C5.21922127,49.4319706 5.11327812,49.3260275 5.11327812,49.1955377 L5.11327812,49.1955058 C5.11327812,49.065016 5.21922127,48.9590728 5.34971106,48.9590728 L5.34971106,48.9590728 Z" id="Path"></path>
                <path d="M6.53195876,50.1413077 C6.40136044,50.1413077 6.29550028,50.2471679 6.29550028,50.3777471 C6.29550028,50.5083262 6.40136044,50.6142055 6.53195876,50.6142055 C6.66255707,50.6142055 6.76839808,50.5083454 6.76839808,50.3777471 C6.76839808,50.2471488 6.66253792,50.1413077 6.53195876,50.1413077 Z" id="Path"></path>
                <path d="M2.9852795,37.1367873 L2.98526673,37.1367873 C2.85468757,37.1367873 2.74882741,37.2426475 2.74882741,37.3732267 C2.74882741,37.5038058 2.85468757,37.609666 2.98526673,37.609666 L2.9852795,37.609666 C3.11585866,37.609666 3.22171244,37.5038058 3.22171244,37.3732267 C3.22171244,37.2426475 3.11585866,37.1367873 2.9852795,37.1367873 Z" id="Path"></path>
                <path d="M4.16749528,38.3190223 C4.03690973,38.3190223 3.93104957,38.4248824 3.93104957,38.5554616 C3.93104957,38.6860408 4.03690973,38.7919009 4.16749528,38.7919009 C4.29808083,38.7919009 4.4039346,38.6860408 4.4039346,38.5554616 C4.4039346,38.4248824 4.29807444,38.3190223 4.16749528,38.3190223 Z" id="Path"></path>
                <path d="M2.9852795,39.5012508 L2.98526673,39.5012508 C2.85468757,39.5012508 2.74882741,39.6070982 2.74882741,39.7376901 C2.74882741,39.8682821 2.85468757,39.9741295 2.98526673,39.9741295 L2.9852795,39.9741295 C3.11585866,39.9741295 3.22171244,39.8682693 3.22171244,39.7376901 C3.22171244,39.607111 3.11585866,39.5012508 2.9852795,39.5012508 Z" id="Path"></path>
                <path d="M4.16749528,40.6834858 C4.03690973,40.6834858 3.93104957,40.7893459 3.93104957,40.9199251 C3.93104957,41.0505042 4.03690973,41.1563644 4.16749528,41.1563644 C4.29808083,41.1563644 4.4039346,41.0505042 4.4039346,40.9199251 C4.4039346,40.7893459 4.29807444,40.6834858 4.16749528,40.6834858 Z" id="Path"></path>
                <path d="M2.9852795,41.8657015 L2.98526673,41.8657015 C2.85468757,41.8657015 2.74882741,41.9715617 2.74882741,42.10216 C2.74882741,42.2327583 2.85468757,42.3385993 2.98526673,42.3385993 L2.9852795,42.3385993 C3.11585866,42.3385993 3.22171244,42.2327392 3.22171244,42.10216 C3.22171244,41.9715808 3.11585866,41.8657207 2.9852795,41.8657015 Z" id="Path"></path>
                <path d="M4.16749528,43.0479301 C4.03690973,43.0479301 3.93104957,43.1537902 3.93104957,43.2843886 C3.93104957,43.4149869 4.03690973,43.5208279 4.16749528,43.5208279 C4.29808083,43.5208279 4.4039346,43.4149677 4.4039346,43.2843886 C4.4039346,43.1538094 4.29807444,43.0479301 4.16749528,43.0479301 Z" id="Path"></path>
                <path d="M2.9852795,44.230165 L2.98526673,44.230165 C2.85468757,44.230165 2.74882741,44.3360252 2.74882741,44.4666043 C2.74882741,44.5971835 2.85468757,44.7030628 2.98526673,44.7030628 L2.9852795,44.7030628 C3.11585866,44.70305 3.22171244,44.5972027 3.22171244,44.4666043 C3.22171244,44.336006 3.11585866,44.2301778 2.9852795,44.230165 Z" id="Path"></path>
                <path d="M4.16749528,45.4123936 C4.03690973,45.4123936 3.93104957,45.5182537 3.93104957,45.6488329 C3.93104957,45.779412 4.03690973,45.8852914 4.16749528,45.8852914 C4.29808083,45.8852914 4.4039346,45.7794312 4.4039346,45.6488329 C4.4039346,45.5182346 4.29807444,45.4123936 4.16749528,45.4123936 Z" id="Path"></path>
                <path d="M2.9852795,46.5946285 L2.98526673,46.5946285 C2.85468757,46.5946285 2.74882741,46.7004886 2.74882741,46.8310678 C2.74882741,46.961647 2.85468757,47.0675263 2.98526673,47.0675263 L2.9852795,47.0675263 C3.11585866,47.0675135 3.22171244,46.9616534 3.22171244,46.8310678 C3.22171244,46.7004823 3.11585866,46.5946285 2.9852795,46.5946285 Z" id="Path"></path>
                <path d="M4.16749528,47.7768443 C4.03690973,47.7768443 3.93104957,47.8827044 3.93104957,48.0133027 C3.93104957,48.1439011 4.03690973,48.2497421 4.16749528,48.2497421 C4.29808083,48.2497421 4.4039346,48.1438819 4.4039346,48.0133027 C4.4039346,47.8827236 4.29807444,47.7768443 4.16749528,47.7768443 Z" id="Path"></path>
                <path d="M1.8030318,38.3190223 C1.67245264,38.3190223 1.56659248,38.4248824 1.56659248,38.5554616 C1.56659248,38.6860408 1.67245264,38.7919009 1.8030318,38.7919009 C1.93361097,38.7919009 2.03947751,38.6860408 2.03947751,38.5554616 C2.03947751,38.4248824 1.93361735,38.3190223 1.8030318,38.3190223 Z" id="Path"></path>
                <path d="M1.8030318,40.6834858 C1.67245264,40.6834858 1.56659248,40.7893459 1.56659248,40.9199251 C1.56659248,41.0505042 1.67245264,41.1563644 1.8030318,41.1563644 C1.93361097,41.1563644 2.03947751,41.0505042 2.03947751,40.9199251 C2.03947751,40.7893459 1.93361735,40.6834858 1.8030318,40.6834858 Z" id="Path"></path>
                <path d="M1.8030318,43.0479301 C1.67245264,43.0479301 1.56659248,43.1537902 1.56659248,43.2843886 C1.56659248,43.4149869 1.67245264,43.5208279 1.8030318,43.5208279 C1.93361097,43.5208279 2.03947751,43.4149677 2.03947751,43.2843886 C2.03947751,43.1538094 1.93361735,43.0479301 1.8030318,43.0479301 Z" id="Path"></path>
                <path d="M1.8030318,45.4123936 C1.67245264,45.4123936 1.56659248,45.5182537 1.56659248,45.6488329 C1.56659248,45.779412 1.67245264,45.8852914 1.8030318,45.8852914 C1.93361097,45.8852914 2.03947751,45.7794312 2.03947751,45.6488329 C2.03947751,45.5182346 1.93361735,45.4123936 1.8030318,45.4123936 Z" id="Path"></path>
                <path d="M43.1303608,49.0177741 C40.0871589,50.5560533 36.8027424,51.3359788 33.3683904,51.3359788 C27.5803,51.3359788 22.1386524,49.0819911 18.0458823,44.9891572 C15.8628341,42.8061473 14.2033155,40.2392204 13.1295582,37.4408081 C14.5016801,36.2397147 15.3684221,34.4755362 15.3684221,32.5087027 C15.3684221,30.0034328 13.9622797,27.8268772 11.8963531,26.7243534 C12.3637032,23.2640055 13.6571098,19.9881628 15.7052824,17.1125994 L16.5686409,22.5134722 C16.5811727,22.5919639 16.6490032,22.6478881 16.7260585,22.6478881 C16.7344152,22.6478881 16.7428932,22.6472625 16.7514351,22.6458963 C16.8384687,22.6319919 16.8977573,22.5501357 16.8838529,22.4631021 L15.9285514,16.4872316 C15.9213183,16.4418474 15.8948245,16.4018195 15.8559202,16.3773175 C15.8170797,16.3528821 15.7693845,16.3464571 15.7254368,16.3594231 L10.050561,18.0488253 C9.96602354,18.0740104 9.9179581,18.1628507 9.9430793,18.2473307 C9.96826434,18.3318043 10.0573536,18.3798123 10.1415847,18.3548124 L15.5862392,16.7338981 C15.5809149,16.7393501 15.5755012,16.7447127 15.5708855,16.7510712 C15.2079401,17.2503542 14.8683474,17.7621053 14.5510606,18.2846135 C12.8220071,20.6355811 11.5621358,23.3523479 10.9071141,26.2970185 C10.2503432,26.0760094 9.54708365,25.9560916 8.81579819,25.9560916 C5.19685159,25.9560916 2.26316152,28.889788 2.26316152,32.5087091 C2.26316152,33.3318992 2.41538259,34.1194025 2.69249463,34.8452105 C1.01979302,36.7003871 0,39.1551528 0,41.8438426 C0,47.6127361 4.69332955,52.3060721 10.4622231,52.3060721 C13.8174577,52.3060721 16.9269898,50.7068763 18.8836089,48.0525071 C22.480505,50.7824314 26.9651466,52.4034478 31.8289556,52.4034478 C35.2972452,52.4034478 38.5723538,51.5783744 41.4707018,50.1156311 C42.080467,49.8729865 42.681965,49.6021308 43.2743784,49.3026938 C43.3530553,49.2629212 43.3846052,49.1669053 43.3448263,49.0882283 C43.3050537,49.0096153 43.2089803,48.9780653 43.1303608,49.0177805 L43.1303608,49.0177741 Z M18.5750427,47.9306805 C18.5414371,47.8409975 18.4556547,47.7768443 18.3542506,47.7768443 C18.2236714,47.7768443 18.1178113,47.8827044 18.1178113,48.0133027 C18.1178113,48.1347974 18.2097862,48.2337181 18.3276994,48.2470608 C18.0407815,48.5996194 17.732228,48.9309 17.4040883,49.2390641 C17.4067313,49.2249106 17.4084742,49.2104508 17.4084742,49.1955313 L17.4084742,49.1955185 C17.4084742,49.0649394 17.302614,48.959092 17.1720348,48.9590792 L17.1720221,48.9590792 C17.0414429,48.9590792 16.9355827,49.0649394 16.9355827,49.1955185 L16.9355827,49.1955313 C16.9355827,49.3261105 17.0414429,49.4319706 17.1720221,49.4319706 L17.1720348,49.4319706 C17.1801234,49.4319706 17.1877587,49.430381 17.195643,49.429583 C16.8709635,49.7179246 16.5285555,49.9841646 16.1711003,50.2276647 C16.1277399,50.1753411 16.0630759,50.1413014 15.9897935,50.1413014 C15.859208,50.1413014 15.7533478,50.2471615 15.7533478,50.3777407 C15.7533478,50.4155087 15.7623557,50.4511061 15.7781115,50.4827582 C14.7900982,51.0909721 13.6987337,51.5295493 12.5480743,51.7708213 C12.625717,51.7320447 12.6795408,51.6526463 12.6795408,51.5599756 C12.6795408,51.4293965 12.573687,51.3235363 12.4431079,51.3235363 L12.4431015,51.3235363 C12.3125159,51.3235363 12.2066558,51.4293965 12.2066558,51.5599756 C12.2066558,51.6846304 12.3034123,51.7856451 12.4257433,51.7946849 C11.7862156,51.9205909 11.1293745,51.9868509 10.4622167,51.9868509 C9.58639657,51.9868509 8.73617005,51.8752132 7.92496279,51.665523 C7.94101865,51.6337113 7.95063301,51.5980947 7.95063301,51.5599756 C7.95063301,51.4293965 7.84477924,51.3235363 7.71419369,51.3235363 L7.7141873,51.3235363 C7.59071996,51.3235363 7.49052883,51.4184989 7.47983556,51.5391828 C4.23235075,50.5381844 1.6758681,47.9470364 0.722979823,44.6789758 C0.80218023,44.6407737 0.857261731,44.5604306 0.857261731,44.466598 C0.857261731,44.3360188 0.751401571,44.2301714 0.620822406,44.2301586 L0.620816022,44.2301586 C0.615019313,44.2301586 0.609580111,44.2314546 0.603879162,44.2318568 C0.41828872,43.46574 0.319202027,42.66619 0.319202027,41.8438298 C0.319202027,41.1929896 0.381184676,40.5563923 0.49893192,39.9393428 C0.534625091,39.9609784 0.576038362,39.9741295 0.620816022,39.9741295 L0.620822406,39.9741295 C0.751401571,39.9741295 0.857261731,39.8682693 0.857261731,39.7376901 C0.857261731,39.607111 0.751401571,39.5012508 0.620822406,39.5012508 L0.620816022,39.5012508 C0.610895223,39.5012508 0.601453227,39.5029809 0.59185163,39.5041811 C0.856419038,38.3882827 1.30582996,37.343177 1.90587869,36.4029993 C1.98186793,36.3660421 2.03476609,36.2901104 2.03850075,36.2008359 C2.2784896,35.8438085 2.54032464,35.5026262 2.8224737,35.1795937 C2.82668716,35.1836476 2.83157734,35.1869162 2.83609086,35.1906445 C3.51724883,36.7070393 4.75822332,37.9168788 6.29580033,38.5582387 C6.29732611,38.6875091 6.40233081,38.7919073 6.53197791,38.7919073 C6.60139158,38.7919073 6.66320186,38.7614491 6.7064665,38.7138241 C7.36842128,38.9388105 8.07773926,39.0613585 8.81581095,39.0613585 C9.60213323,39.0613585 10.3558841,38.9224418 11.0543812,38.6683889 C11.0945495,38.7416458 11.1714453,38.7919073 11.2608985,38.7919073 C11.391484,38.7919073 11.4973442,38.6860472 11.4973442,38.555468 C11.4973442,38.5335069 11.4933861,38.5126694 11.4877809,38.492483 C11.5637318,38.4585199 11.6391976,38.4236695 11.7135844,38.3869165 C11.870868,38.8133066 12.042005,39.2329424 12.2251312,39.6460792 C12.213276,39.6742583 12.2066749,39.7051954 12.2066749,39.7376965 C12.2066749,39.84175 12.2743266,39.9290901 12.3676996,39.9607038 C13.2951602,41.9647882 14.522741,43.8013809 15.99326,45.4127447 C15.9920854,45.4127319 15.9909937,45.4123999 15.9898063,45.4123999 C15.8592207,45.4123999 15.7533606,45.5182601 15.7533606,45.6488393 C15.7533606,45.7794184 15.8592207,45.8852977 15.9898063,45.8852977 C16.1156421,45.8852977 16.217525,45.7867345 16.2248539,45.6627309 C16.5267999,45.9832736 16.83859,46.2944318 17.1596051,46.5958989 C17.0349248,46.6024936 16.9355955,46.7047532 16.9355955,46.8310742 C16.9355955,46.9616725 17.0414557,47.0675327 17.1720348,47.0675327 L17.1720476,47.0675327 C17.3026268,47.0675199 17.4084869,46.9616597 17.4084869,46.8310742 C17.4084869,46.8290951 17.4079507,46.8272565 17.4078996,46.8252775 C17.8022992,47.1841946 18.2096712,47.5291116 18.6301114,47.8581514 C18.6120892,47.8826342 18.5932755,47.9063892 18.5750554,47.9306869 L18.5750427,47.9306805 Z" id="Shape"></path>
                <path d="M15.0131502,11.4314864 C16.9077292,11.4314864 18.44906,9.89014922 18.44906,7.99557666 C18.44906,6.1010041 16.9077228,4.55966689 15.0131502,4.55966689 C13.1185777,4.55966689 11.5772405,6.1010041 11.5772405,7.99557666 C11.5772405,9.89014922 13.1185777,11.4314864 15.0131502,11.4314864 L15.0131502,11.4314864 Z M15.0131502,4.87886892 C16.7317276,4.87886892 18.129858,6.27699933 18.129858,7.99557666 C18.129858,9.71415399 16.7317276,11.1122844 15.0131502,11.1122844 C13.2945729,11.1122844 11.8964425,9.71415399 11.8964425,7.99557666 C11.8964425,6.27699933 13.2945729,4.87886892 15.0131502,4.87886892 L15.0131502,4.87886892 Z" id="Shape"></path>
                <path d="M20.7368384,52.5201481 C19.4081599,52.5201481 18.3272397,53.6010683 18.3272397,54.9297467 C18.3272397,56.2584252 19.4081599,57.3393454 20.7368384,57.3393454 C22.0655168,57.3393454 23.146437,56.2584252 23.146437,54.9297467 C23.146437,53.6010683 22.0655168,52.5201481 20.7368384,52.5201481 Z M20.7368384,57.0201497 C19.5841552,57.0201497 18.6464418,56.0824299 18.6464418,54.9297531 C18.6464418,53.7770763 19.5841616,52.8393565 20.7368384,52.8393565 C21.8895152,52.8393565 22.827235,53.7770763 22.827235,54.9297531 C22.827235,56.0824299 21.8895152,57.0201497 20.7368384,57.0201497 Z" id="Shape"></path>
                <circle id="Oval" cx="59.4210533" cy="45.1402866" r="3.434218"></circle>
                <path d="M64,20.4495055 C64,16.8165268 61.5880456,13.7473865 58.2782717,12.754681 C58.3480429,12.247852 58.3849746,11.7329536 58.3849746,11.212284 C58.3849746,5.0298004 53.3551742,0 47.1727544,0 C44.7024946,0 42.359788,0.787720378 40.3978765,2.27799165 C38.5407272,3.68865393 37.1475189,5.67839977 36.4610941,7.8939555 C35.4450102,7.75177653 34.4124491,7.67811747 33.3684478,7.67811747 C30.8352797,7.67811747 28.3519901,8.10517787 25.9876479,8.94750733 C23.702487,9.76160018 21.5777953,10.9443905 19.6726252,12.4631538 C19.603735,12.5181395 19.5923906,12.6185158 19.6473125,12.6874698 C19.7022408,12.7562961 19.8024894,12.7677044 19.8716285,12.7127825 C21.7491238,11.2160889 23.8429486,10.0504397 26.0947593,9.24819564 C28.4246213,8.41820653 30.8718794,7.9973195 33.3684478,7.9973195 C34.4187566,7.9973195 35.4574272,8.07253627 36.4789375,8.2184882 C36.4988302,8.23214366 36.5215318,8.24158566 36.5459444,8.24514157 C40.1134037,8.76465564 43.5260564,10.1886606 46.4148986,12.3632818 C46.567924,12.4784627 46.7190279,12.5960759 46.8688422,12.7152148 C46.9133581,12.7508122 46.9580081,12.7861607 47.0022878,12.8221347 C47.0489423,12.8598517 47.0954629,12.8977601 47.1417982,12.9358473 C47.6767489,13.3778336 48.1939775,13.8471627 48.6909559,14.3441411 C49.0412546,14.6944525 49.3770359,15.0553296 49.7001386,15.4247549 C48.5955272,16.800688 47.9342109,18.5477317 47.9342109,20.4495055 C47.9342109,24.5591358 51.0204795,27.9474781 55.0016183,28.4244425 C55.0247604,28.8365707 55.0377775,29.2505629 55.0377775,29.6666491 C55.0377775,36.0762514 52.2432148,42.0843549 47.3562764,46.2167124 L48.0924521,40.6216372 C48.103988,40.5342333 48.0424523,40.4540561 47.9550484,40.442584 C47.8676445,40.431048 47.7874673,40.4926476 47.7759952,40.5799877 L46.9899474,46.5540515 C46.9740512,46.6036747 46.9825611,46.6600649 47.0179542,46.7034891 C47.0494978,46.7422658 47.0954501,46.7623436 47.1418301,46.7623436 C47.149574,46.7623436 47.1573051,46.7615328 47.1650042,46.7604093 L53.0657665,46.7604093 C53.1539237,46.7604093 53.2253675,46.6889655 53.2253675,46.6008082 C53.2253675,46.512651 53.1539237,46.4412072 53.0657665,46.4412072 L47.5849655,46.4412072 C52.529871,42.2485971 55.3569731,36.1607505 55.3569731,29.6666428 C55.3569731,29.2614669 55.345003,28.8581615 55.3233675,28.4567011 C55.5357582,28.4735358 55.7503768,28.4823841 55.9671022,28.4823841 C60.4035444,28.4823841 64,24.8859349 64,20.4494991 L64,20.4495055 Z M54.0317867,12.6517511 C54.0477596,12.6199075 54.057591,12.5844633 54.057591,12.546408 C54.057591,12.4158289 53.9517309,12.3099687 53.8211453,12.3099687 C53.6905598,12.3099687 53.5846996,12.4158289 53.5846996,12.546408 C53.5846996,12.6292793 53.6275046,12.7019424 53.6920345,12.7441473 C52.2074897,13.1818818 50.9015704,14.036309 49.9105374,15.1728598 C49.1238321,14.2779386 48.2647446,13.4455555 47.3420081,12.6871378 C47.2939554,12.6474227 47.2454687,12.6084609 47.1971223,12.5692118 C47.1529128,12.5334867 47.1085438,12.4979532 47.064047,12.4625728 C46.63548,12.1200563 46.1955813,11.7954406 45.745915,11.487883 C45.7684123,11.451909 45.7819912,11.4098445 45.7819912,11.3641923 L45.7819912,11.3641795 C45.7819912,11.2336003 45.6761374,11.1277529 45.5455519,11.1277402 L45.5455391,11.1277402 C45.4668111,11.1277402 45.3975634,11.1666254 45.3545861,11.2257926 C43.9986286,10.3404922 42.5550183,9.61307547 41.0468015,9.05210345 C41.0506575,9.03523681 41.0530642,9.01779561 41.0530642,8.99973516 C41.0530642,8.869156 40.9472105,8.76329584 40.8166249,8.76329584 L40.8166122,8.76329584 C40.7245288,8.76329584 40.6456092,8.81647489 40.6065644,8.89331321 C39.5497631,8.5259819 38.4626887,8.24011733 37.3531169,8.03810714 C37.4424999,8.0043611 37.5063722,7.91868727 37.5063722,7.81750023 C37.5063722,7.68692107 37.4005121,7.58106091 37.2699265,7.58106091 C37.139341,7.58106091 37.0334808,7.68692107 37.0334808,7.81750023 C37.0334808,7.88903979 37.0659309,7.95238224 37.1161414,7.99574264 C37.0044781,7.9766799 36.8926169,7.95833855 36.7805132,7.94097396 C37.3311112,6.19292152 38.3353782,4.59182968 39.6654994,3.32189719 C39.7657735,3.30858646 39.8464295,3.23344631 39.8661179,3.13532999 C40.0987332,2.92417146 40.3403244,2.72256346 40.5909555,2.53217861 C41.667126,1.71468945 42.8613501,1.11495353 44.1292206,0.747590299 C44.1411651,0.866978241 44.2407561,0.960555507 44.3633042,0.960555507 C44.4938897,0.960555507 44.5997499,0.854695347 44.5997499,0.724116182 C44.5997499,0.689718972 44.5917635,0.657454031 44.5784846,0.628119364 C45.4181328,0.423785379 46.286956,0.319202027 47.1727544,0.319202027 C47.8262823,0.319202027 48.4665058,0.377169115 49.0886688,0.488015211 C48.9597751,0.489962343 48.8557854,0.594730832 48.8557854,0.724109798 C48.8557854,0.854688963 48.9616456,0.960549123 49.0922311,0.960549123 C49.2228167,0.960549123 49.3286768,0.854688963 49.3286768,0.724109798 C49.3286768,0.625808342 49.2686541,0.541615615 49.1832931,0.505935213 C50.3675581,0.727831694 51.4847589,1.14193887 52.5014492,1.71461922 C52.4417265,1.75752636 52.4024711,1.82718263 52.4024711,1.90632558 L52.4024711,1.90633834 C52.4024711,2.03691751 52.5083312,2.14277767 52.6389168,2.14277767 L52.6389232,2.14277767 C52.760271,2.1427649 52.8591151,2.05100709 52.8726429,1.93328538 C54.2329862,2.77200147 55.3956412,3.90129994 56.2740022,5.23403224 C56.246653,5.22298147 56.2169161,5.21657828 56.1856088,5.21657828 C56.0550232,5.21657828 55.9491631,5.32243844 55.9491631,5.4530176 C55.9491631,5.58359677 56.0550232,5.68945693 56.1856088,5.68945693 C56.3126831,5.68945693 56.4155428,5.58899128 56.4210203,5.4632576 C57.4627489,7.1330034 58.0657726,9.10339283 58.0657726,11.2122776 C58.0657726,11.7034274 58.0319946,12.1893359 57.9680329,12.6678899 C57.4595952,12.5375151 56.9314882,12.456559 56.3894065,12.4284565 C56.3484848,12.357932 56.2730127,12.3099559 56.1856088,12.3099559 C56.102878,12.3099559 56.0303042,12.3526013 55.9880547,12.4169397 C55.9810514,12.4169269 55.9741183,12.4166141 55.967115,12.4166141 C55.2998168,12.4166141 54.6516835,12.4983809 54.0317867,12.6517447 L54.0317867,12.6517511 Z" id="Shape"></path>
                <path d="M28.8683249,36.2998779 C28.9195696,36.2998779 28.969946,36.2752547 29.0007426,36.2294939 L38.1585977,22.6505631 C38.2079144,22.5774977 38.1886474,22.4783089 38.1155182,22.429056 C38.0424529,22.3797393 37.943264,22.3988786 37.8940112,22.4721355 L28.7361561,36.0510663 C28.6868394,36.1241317 28.7061064,36.2233205 28.7792356,36.2725734 C28.806604,36.2910297 28.8375921,36.2998779 28.8683249,36.2998779 L28.8683249,36.2998779 Z" id="Path"></path>
                <path d="M40.3758069,24.2129101 C40.3069167,24.1577967 40.206483,24.1693327 40.1514909,24.238159 C40.0965626,24.3070492 40.1078496,24.4074829 40.1768036,24.4624112 L46.2559168,29.3103558 L40.1777995,34.0804918 C40.1084114,34.1349157 40.0963136,34.2352282 40.150744,34.3045588 C40.18223,34.3447081 40.2291081,34.3656541 40.2764329,34.3656541 C40.3109068,34.3656541 40.3456359,34.3545586 40.374811,34.3316144 L46.6116547,29.4369131 C46.6500611,29.4067995 46.6725649,29.3607898 46.6727511,29.3119774 C46.6729351,29.263165 46.6508017,29.2169637 46.6126506,29.1865438 L40.3758069,24.2129165 L40.3758069,24.2129101 Z" id="Path"></path>
                <path d="M26.9183899,24.2961389 C26.8634042,24.2272487 26.7629641,24.2158404 26.6940739,24.27089 L20.4572302,29.2445172 C20.4190728,29.2749436 20.3969457,29.3211385 20.3971297,29.3699509 C20.3973159,29.4187632 20.4198261,29.4647794 20.4582261,29.4948865 L26.6950698,34.3895879 C26.7242449,34.4125321 26.758974,34.4236276 26.7934479,34.4236276 C26.8407664,34.4236276 26.8876508,34.4026815 26.9191368,34.3625323 C26.9735608,34.293208 26.9614694,34.1928956 26.8920813,34.1384653 L20.813964,29.3683293 L26.8930772,24.5203847 C26.9620312,24.4654564 26.9733118,24.3650227 26.9183899,24.2961325 L26.9183899,24.2961389 Z" id="Path"></path>
            </g>
        </g>
    </g>
</svg>