<?xml version="1.0" encoding="UTF-8"?>
<svg width="64px" height="64px" viewBox="0 0 64 64" version="1.1" xmlns="http://www.w3.org/2000/svg" xmlns:xlink="http://www.w3.org/1999/xlink">
    <title>Group 6@1x</title>
    <g id="Widgets" stroke="none" stroke-width="1" fill="none" fill-rule="evenodd">
        <g id="Explore" transform="translate(-1289, -3736)" fill-rule="nonzero">
            <g id="Group-6" transform="translate(1289, 3736)">
                <path d="M16,0 L48,0 C56.836556,0 64,7.163444 64,16 L64,48 C64,56.836556 56.836556,64 48,64 L16,64 C7.163444,64 0,56.836556 0,48 L0,16 C0,7.163444 7.163444,0 16,0 Z" id="Rectangle" fill="#000000"></path>
                <path d="M48,2.22222222 C55.59712,2.22222222 61.7777778,8.40288 61.7777778,16 L61.7777778,48 C61.7777778,55.59712 55.59712,61.7777778 48,61.7777778 L16,61.7777778 C8.40288,61.7777778 2.22222222,55.59712 2.22222222,48 L2.22222222,16 C2.22222222,8.40288 8.40288,2.22222222 16,2.22222222 L48,2.22222222 M48,0 L16,0 C7.16341333,0 0,7.16341333 0,16 L0,48 C0,56.8365867 7.16341333,64 16,64 L48,64 C56.8365867,64 64,56.8365867 64,48 L64,16 C64,7.16341333 56.8365867,0 48,0 L48,0 Z" id="Shape" fill="#4D4D4D"></path>
                <path d="M44.865648,31 C44.3122034,31 43.8277085,30.5932318 43.7463739,30.0290699 C43.0267112,24.9922328 39.0075475,20.9723072 33.9716651,20.2525081 C33.3527835,20.1640771 32.9231152,19.5893027 33.0115295,18.9703037 C33.1017,18.3530795 33.6746092,17.9286179 34.2934908,18.009986 C40.3160349,18.873035 45.1255855,23.6834973 45.9884709,29.7071832 C46.0768852,30.3261821 45.6471988,30.9009565 45.0283353,30.9893876 C44.9735267,30.9964686 44.9187001,31 44.8656661,31 L44.865648,31 Z" id="Path" fill="#FFFFFF"></path>
                <path d="M34.1088173,53 C33.5410852,53 33.0566977,52.5678031 33.0046251,51.9921071 C32.9490679,51.3835723 33.4004766,50.8459196 34.0116056,50.7923332 C43.5691824,49.9348435 50.7777129,42.0705737 50.7777129,32.4999812 C50.7777129,22.9293887 43.5691646,15.0651188 34.0116056,14.2076292 C33.4004766,14.1540427 32.9490679,13.61639 33.0046251,13.0078553 C33.0601823,12.3975856 33.6365902,11.9463759 34.2095136,12.0051493 C44.9216308,12.9646249 53,21.7762794 53,32.4999812 C53,43.2236829 44.9216308,52.0353374 34.2095136,52.9948131 C34.1765349,52.9982651 34.1417961,53 34.1088173,53 Z" id="Path" fill="#FFFFFF"></path>
                <path d="M31.5629521,46 C24.0849184,46 18,39.9149044 18,32.436653 C18,25.7314145 22.9992597,19.9589964 29.6261269,19.0105404 C30.2479949,18.9271503 30.7986419,19.347534 30.8854982,19.9537845 C30.9723544,20.5617782 30.5502398,21.1245904 29.9422816,21.2131924 C24.401073,22.0053096 20.2234348,26.8309973 20.2234348,32.436653 C20.2234348,38.6902365 25.3095507,43.7765005 31.5629521,43.7765005 C37.1684445,43.7765005 41.9939917,39.5987584 42.7860859,34.0573707 C42.8746675,33.4511202 43.4374811,33.0411603 44.0454571,33.1141266 C44.6534331,33.2027109 45.07553,33.7655408 44.9886737,34.3735345 C44.0402454,41.0006126 38.2679953,46 31.5629521,46 L31.5629521,46 Z" id="Path" fill="#ED0000"></path>
                <path d="M29.8911827,52 C29.8564617,52 29.8234651,51.9982652 29.7904864,51.9948133 C19.0783692,51.0353773 11,42.2240872 11,31.5008288 C11,20.7775705 19.0783692,11.9662804 29.7904864,11.0068444 C30.3964063,10.9377 30.9398177,11.4009993 30.9953749,12.0095089 C31.0509321,12.6180185 30.5995234,13.155649 29.9883944,13.2092332 C20.4308176,14.0666874 13.2222871,21.9306321 13.2222871,31.5008288 C13.2222871,41.0710256 20.4308354,48.9349702 29.9883944,49.7924245 C30.5995234,49.8460087 31.0509321,50.3836391 30.9953749,50.9921487 C30.9432845,51.567821 30.458897,52 29.8911827,52 Z" id="Path" fill="#ED0000"></path>
                <path d="M30.7067599,36 C30.4195574,36 30.1323729,35.8962098 29.9134743,35.6869667 L26.3270299,32.2587185 C25.89099,31.8402322 25.89099,31.1606163 26.3270299,30.7421129 C26.7648272,30.3236266 27.4758039,30.3236266 27.9136191,30.7421129 L30.7067778,33.4137296 L37.0863809,27.3138647 C37.5241782,26.8953784 38.2351549,26.8953784 38.6729701,27.3138647 C39.10901,27.7323509 39.10901,28.4119669 38.6729701,28.8304703 L31.5000814,35.6869667 C31.2811828,35.8962098 30.9939803,36 30.7067958,36 L30.7067599,36 Z" id="Path" fill="#FFFFFF"></path>
            </g>
        </g>
    </g>
</svg>