<?xml version="1.0" encoding="UTF-8"?>
<svg width="64px" height="62px" viewBox="0 0 64 62" version="1.1" xmlns="http://www.w3.org/2000/svg" xmlns:xlink="http://www.w3.org/1999/xlink">
    <title>Group 12@1x</title>
    <g id="Widgets" stroke="none" stroke-width="1" fill="none" fill-rule="evenodd">
        <g id="Explore" transform="translate(-1204, -3663)" fill="#0066CC" fill-rule="nonzero">
            <g id="Group-12" transform="translate(1204, 3663)">
                <path d="M10.9356885,48.5117978 L10.9356821,48.5117978 C10.8054214,48.5117978 10.6998246,48.6173946 10.6998246,48.747668 C10.6998246,48.8779414 10.8054214,48.9835191 10.9356821,48.9835191 L10.9356885,48.9835191 C11.0659428,48.9835191 11.1715396,48.8779223 11.1715396,48.747668 C11.1715396,48.6174137 11.0659428,48.5118169 10.9356885,48.5117978 Z" id="Path"></path>
                <path d="M35.317782,3.37898315 L47.8084856,3.37898315 C47.8898579,4.39216991 48.7397651,5.19185779 49.7735656,5.19185779 C50.8610051,5.19185779 51.7456442,4.30721868 51.7456442,3.21977918 C51.7456442,2.13233969 50.8610051,1.24770057 49.7735656,1.24770057 C48.7397651,1.24770057 47.8898579,2.04738845 47.8084856,3.06057522 L35.317782,3.06057522 C35.2298441,3.06057522 35.158578,3.13184128 35.158578,3.21977918 C35.158578,3.30771708 35.2298441,3.37898315 35.317782,3.37898315 L35.317782,3.37898315 Z" id="Path"></path>
                <circle id="Oval" cx="4.06542606" cy="27.4906082" r="1.97207861"></circle>
                <path d="M6.02475562,6.94794757 C6.02475562,5.86050807 5.1401165,4.97586896 4.05267701,4.97586896 C2.96523752,4.97586896 2.0805984,5.86050807 2.0805984,6.94794757 C2.0805984,8.03538706 2.96523752,8.92008986 4.05267701,8.92008986 C5.1401165,8.92008986 6.02475562,8.03538706 6.02475562,6.94794757 Z" id="Path"></path>
                <path d="M30.4909215,58.045205 L18.9483539,58.045205 C18.8669816,57.0320182 18.0170744,56.2323303 16.9832739,56.2323303 C15.8958344,56.2323303 15.0111953,57.1169694 15.0111953,58.2044089 C15.0111953,59.2918484 15.8958344,60.1764875 16.9832739,60.1764875 C18.0170744,60.1764875 18.8669816,59.3767997 18.9483539,58.3636129 L30.4909215,58.3636129 C30.5788594,58.3636129 30.6501255,58.2923468 30.6501255,58.2044089 C30.6501255,58.116471 30.5788594,58.045205 30.4909215,58.045205 Z" id="Path"></path>
                <circle id="Oval" cx="60.0805321" cy="54.2772993" r="1.97207861"></circle>
                <circle id="Oval" cx="59.9901106" cy="35.2491268" r="1.97207861"></circle>
                <path d="M18.1656117,6.439552 L22.8788578,6.439552 C22.9667957,6.439552 23.0380618,6.36828593 23.0380618,6.28034803 C23.0380618,6.19241013 22.9667957,6.12114407 22.8788578,6.12114407 L18.1656117,6.12114407 C18.0776738,6.12114407 18.0064078,6.19241013 18.0064078,6.28034803 C18.0064078,6.36828593 18.0776738,6.439552 18.1656117,6.439552 Z" id="Path"></path>
                <path d="M18.1656117,3.37898315 L26.8117561,3.37898315 C26.899694,3.37898315 26.9709601,3.30771708 26.9709601,3.21977918 C26.9709601,3.13184128 26.899694,3.06057522 26.8117561,3.06057522 L18.1656117,3.06057522 C18.0776738,3.06057522 18.0064078,3.13184128 18.0064078,3.21977918 C18.0064078,3.30771708 18.0776738,3.37898315 18.1656117,3.37898315 Z" id="Path"></path>
                <path d="M32.7869993,3.06057522 L28.0738169,3.06057522 C27.985879,3.06057522 27.9146129,3.13184128 27.9146129,3.21977918 C27.9146129,3.30771708 27.985879,3.37898315 28.0738169,3.37898315 L32.7869993,3.37898315 C32.8749372,3.37898315 32.9462033,3.30771708 32.9462033,3.21977918 C32.9462033,3.13184128 32.8749372,3.06057522 32.7869993,3.06057522 Z" id="Path"></path>
                <path d="M24.1409186,0.318407929 L32.7869993,0.318407929 C32.8749372,0.318407929 32.9462033,0.247141866 32.9462033,0.159203964 C32.9462033,0.0712660626 32.8749372,0 32.7869993,0 L24.1409186,0 C24.0529807,0 23.9817146,0.0712660626 23.9817146,0.159203964 C23.9817146,0.247141866 24.0529807,0.318407929 24.1409186,0.318407929 Z" id="Path"></path>
                <path d="M18.1656117,0.318407929 L22.8788578,0.318407929 C22.9667957,0.318407929 23.0380618,0.247141866 23.0380618,0.159203964 C23.0380618,0.0712660626 22.9667957,0 22.8788578,0 L18.1656117,0 C18.0776738,0 18.0064078,0.0712660626 18.0064078,0.159203964 C18.0064078,0.247141866 18.0776738,0.318407929 18.1656117,0.318407929 Z" id="Path"></path>
                <path d="M32.7869993,6.12114407 L28.0738169,6.12114407 C27.985879,6.12114407 27.9146129,6.19241013 27.9146129,6.28034803 C27.9146129,6.36828593 27.985879,6.439552 28.0738169,6.439552 L32.7869993,6.439552 C32.8749372,6.439552 32.9462033,6.36828593 32.9462033,6.28034803 C32.9462033,6.19241013 32.8749372,6.12114407 32.7869993,6.12114407 Z" id="Path"></path>
                <path d="M26.8117561,6.12114407 L24.4551617,6.12114407 C24.3672238,6.12114407 24.2959578,6.19241013 24.2959578,6.28034803 C24.2959578,6.36828593 24.3672238,6.439552 24.4551617,6.439552 L26.8117561,6.439552 C26.899694,6.439552 26.9709601,6.36828593 26.9709601,6.28034803 C26.9709601,6.19241013 26.899694,6.12114407 26.8117561,6.12114407 Z" id="Path"></path>
                <path d="M47.3409163,54.9846361 L42.6277339,54.9846361 C42.539796,54.9846361 42.4685299,55.0559022 42.4685299,55.1438401 C42.4685299,55.231778 42.539796,55.303044 42.6277339,55.303044 L47.3409163,55.303044 C47.4288542,55.303044 47.5001202,55.231778 47.5001202,55.1438401 C47.5001202,55.0559022 47.4288542,54.9846361 47.3409163,54.9846361 Z" id="Path"></path>
                <path d="M47.3409163,58.045205 L38.6947719,58.045205 C38.606834,58.045205 38.5355679,58.116471 38.5355679,58.2044089 C38.5355679,58.2923468 38.606834,58.3636129 38.6947719,58.3636129 L47.3409163,58.3636129 C47.4288542,58.3636129 47.5001202,58.2923468 47.5001202,58.2044089 C47.5001202,58.116471 47.4288542,58.045205 47.3409163,58.045205 L47.3409163,58.045205 Z" id="Path"></path>
                <path d="M32.7195287,58.3636129 L37.4327111,58.3636129 C37.520649,58.3636129 37.5919151,58.2923468 37.5919151,58.2044089 C37.5919151,58.116471 37.520649,58.045205 37.4327111,58.045205 L32.7195287,58.045205 C32.6315908,58.045205 32.5603247,58.116471 32.5603247,58.2044089 C32.5603247,58.2923468 32.6315908,58.3636129 32.7195287,58.3636129 Z" id="Path"></path>
                <path d="M41.3656667,61.1057802 L32.7195223,61.1057802 C32.6315844,61.1057802 32.5603184,61.1770463 32.5603184,61.2649842 C32.5603184,61.3529221 32.6315844,61.4241881 32.7195223,61.4241881 L41.3656667,61.4241881 C41.4536046,61.4241881 41.5248707,61.3529221 41.5248707,61.2649842 C41.5248707,61.1770463 41.4536046,61.1057802 41.3656667,61.1057802 Z" id="Path"></path>
                <path d="M47.3409163,61.1057802 L42.6277339,61.1057802 C42.539796,61.1057802 42.4685299,61.1770463 42.4685299,61.2649842 C42.4685299,61.3529221 42.539796,61.4241881 42.6277339,61.4241881 L47.3409163,61.4241881 C47.4288542,61.4241881 47.5001202,61.3529221 47.5001202,61.2649842 C47.5001202,61.1770463 47.4288542,61.1057802 47.3409163,61.1057802 Z" id="Path"></path>
                <path d="M32.7195287,55.303044 L37.4327111,55.303044 C37.520649,55.303044 37.5919151,55.231778 37.5919151,55.1438401 C37.5919151,55.0559022 37.520649,54.9846361 37.4327111,54.9846361 L32.7195287,54.9846361 C32.6315908,54.9846361 32.5603247,55.0559022 32.5603247,55.1438401 C32.5603247,55.231778 32.6315908,55.303044 32.7195287,55.303044 Z" id="Path"></path>
                <path d="M38.6947719,55.303044 L41.0513663,55.303044 C41.1393042,55.303044 41.2105702,55.231778 41.2105702,55.1438401 C41.2105702,55.0559022 41.1393042,54.9846361 41.0513663,54.9846361 L38.6947719,54.9846361 C38.606834,54.9846361 38.5355679,55.0559022 38.5355679,55.1438401 C38.5355679,55.231778 38.606834,55.303044 38.6947719,55.303044 Z" id="Path"></path>
                <path d="M15.3291702,31.3555965 C15.3291702,26.6924105 17.1450888,22.3083982 20.4424768,19.0110102 C23.7398647,15.7136223 28.1238197,13.8977674 32.7870057,13.8977674 C37.3195935,13.8977674 41.5881893,15.6138142 44.8517432,18.7378799 L43.1925386,18.7378799 C43.1046007,18.7378799 43.0333346,18.809146 43.0333346,18.8970839 C43.0333346,18.9850218 43.1046007,19.0562879 43.1925386,19.0562879 L45.2298845,19.0562879 C45.2752512,19.0603635 45.3219871,19.0457486 45.3567191,19.0110166 C45.3879995,18.9797362 45.4033595,18.9387189 45.4033595,18.8977717 C45.4033595,18.8975233 45.4033595,18.8973068 45.4033595,18.8970903 L45.4033595,16.8454733 C45.4033595,16.7575354 45.3320934,16.6862694 45.2441555,16.6862694 C45.1562176,16.6862694 45.0849515,16.7575354 45.0849515,16.8454733 L45.0849515,18.520662 C41.7601996,15.3315455 37.4084612,13.5793658 32.7870057,13.5793658 C28.0388111,13.5793658 23.5748148,15.4284307 20.2172923,18.7858958 C16.8973293,22.1058589 15.0522445,26.5076001 15.01145,31.1964053 L4.31959201,31.1964053 C2.11331163,31.1964053 0.318407929,29.4015079 0.318407929,27.1952849 L0.318407929,7.38010354 C0.318407929,5.17388685 2.11330526,3.37898315 4.31959201,3.37898315 L15.1703993,3.37898315 C15.2583372,3.37898315 15.3296033,3.30771708 15.3296033,3.21977918 C15.3296033,3.13184128 15.2583372,3.06057522 15.1703993,3.06057522 L4.31959201,3.06057522 C1.93775424,3.06057522 0,4.99832308 0,7.38010354 L0,27.1952721 C0,29.5770526 1.93774787,31.5148004 4.31959201,31.5148004 L15.1699663,31.5148004 C15.2579042,31.5148004 15.3291702,31.4435344 15.3291702,31.3555965 Z" id="Path"></path>
                <path d="M59.6804717,31.1963861 L50.4041024,31.1963861 C50.3161645,31.1963861 50.2448985,31.2676586 50.2448985,31.3555965 C50.2448985,36.0187825 48.4289799,40.4028585 45.1315919,43.7001827 C41.8342677,46.9975706 37.4501853,48.8134893 32.7870057,48.8134893 C28.2560991,48.8134893 23.9888724,47.0986906 20.7257197,43.9766754 L22.3814728,43.9766754 C22.4694107,43.9766754 22.5406768,43.9054094 22.5406768,43.8174715 C22.5406768,43.7295336 22.4694107,43.6582675 22.3814728,43.6582675 L20.3663582,43.6582675 C20.3144895,43.646047 20.2577747,43.6597003 20.2172923,43.7001827 C20.1855789,43.7318961 20.1706519,43.7736267 20.1706519,43.8151726 C20.1706519,43.8159495 20.1706519,43.8166945 20.1706519,43.8174715 L20.1706519,45.8690884 C20.1706519,45.9570263 20.241918,46.0282923 20.3298559,46.0282923 C20.4177938,46.0282923 20.4890599,45.9570263 20.4890599,45.8690884 L20.4890599,44.1905437 C23.8138754,47.3797238 28.1656139,49.1318972 32.7870057,49.1318972 C37.5352002,49.1318972 41.9992539,47.2828323 45.3567828,43.9253672 C48.6767458,40.6053404 50.5218306,36.2035992 50.562625,31.5147941 L59.6804717,31.5147941 C61.8866884,31.5147941 63.6815921,33.3096914 63.6815921,35.5159145 L63.6815921,54.0440846 C63.6815921,56.2503013 61.8866947,58.045205 59.6804717,58.045205 L49.7638032,58.045205 C49.6758653,58.045205 49.6045992,58.116471 49.6045992,58.2044089 C49.6045992,58.2923468 49.6758653,58.3636129 49.7638032,58.3636129 L59.6804717,58.3636129 C62.0622521,58.3636129 64,56.425865 64,54.0440846 L64,35.5159145 C64,33.134134 62.0622521,31.1963861 59.6804717,31.1963861 L59.6804717,31.1963861 Z" id="Path"></path>
                <circle id="Oval" cx="43.1813434" cy="31.1616606" r="1"></circle>
                <path d="M40.8227621,31.3975117 L40.8227939,31.3975117 C40.9530483,31.3975117 41.0586451,31.2919149 41.0586451,31.1616606 C41.0586451,31.1382449 41.0541683,31.1160773 41.0478256,31.0947121 L40.8227939,31.1477589 L40.7638694,31.1616606 L40.5910121,31.2024232 C40.610384,31.3131845 40.7064668,31.3975117 40.8227621,31.3975117 L40.8227621,31.3975117 Z" id="Path"></path>
                <circle id="Oval" cx="42.0020496" cy="32.340948" r="1"></circle>
                <path d="M40.8227621,38.4732555 L40.8227939,38.4732555 C40.9530483,38.4732555 41.0586451,38.3676587 41.0586451,38.2374044 C41.0586451,38.10715 40.9530483,38.0015532 40.8227939,38.0015532 L40.8227621,38.0015532 C40.6925078,38.0015532 40.586911,38.10715 40.586911,38.2374044 C40.586911,38.3676587 40.6925078,38.4732555 40.8227621,38.4732555 Z" id="Path"></path>
                <path d="M39.6434683,32.5767991 C39.7737545,32.5767991 39.8793513,32.4712023 39.8793513,32.340948 C39.8793513,32.2106937 39.7737545,32.1050969 39.6434683,32.1050969 C39.5131821,32.1050969 39.4076172,32.2106937 39.4076172,32.340948 C39.4076172,32.4712023 39.513214,32.5767991 39.6434683,32.5767991 Z" id="Path"></path>
                <path d="M38.4641745,33.756093 L38.4642063,33.756093 C38.5944606,33.756093 38.7000574,33.6504962 38.7000574,33.5202418 C38.7000574,33.3899875 38.5944606,33.2843907 38.4642063,33.2843907 L38.4641745,33.2843907 C38.3339202,33.2843907 38.2283234,33.3899875 38.2283234,33.5202418 C38.2283234,33.6504962 38.3339202,33.756093 38.4641745,33.756093 Z" id="Path"></path>
                <path d="M39.6434683,34.9353868 C39.7737545,34.9353868 39.8793513,34.82979 39.8793513,34.6995357 C39.8793513,34.5692813 39.7737545,34.4636845 39.6434683,34.4636845 C39.5131821,34.4636845 39.4076172,34.5692813 39.4076172,34.6995357 C39.4076172,34.82979 39.513214,34.9353868 39.6434683,34.9353868 Z" id="Path"></path>
                <path d="M38.4641745,36.1146742 L38.4642063,36.1146742 C38.5944606,36.1146742 38.7000574,36.0090774 38.7000574,35.8788231 C38.7000574,35.7485688 38.5944606,35.642972 38.4642063,35.642972 L38.4641745,35.642972 C38.3339202,35.642972 38.2283234,35.7485688 38.2283234,35.8788231 C38.2283234,36.0090774 38.3339202,36.1146742 38.4641745,36.1146742 Z" id="Path"></path>
                <path d="M39.6434683,37.293968 C39.7737545,37.293968 39.8793513,37.1883712 39.8793513,37.0581169 C39.8793513,36.9278626 39.7737545,36.8222658 39.6434683,36.8222658 C39.5131821,36.8222658 39.4076172,36.9278626 39.4076172,37.0581169 C39.4076172,37.1883712 39.513214,37.293968 39.6434683,37.293968 Z" id="Path"></path>
                <path d="M38.4641745,38.4732555 L38.4642063,38.4732555 C38.5944606,38.4732555 38.7000574,38.3676587 38.7000574,38.2374044 C38.7000574,38.10715 38.5944606,38.0015532 38.4642063,38.0015532 L38.4641745,38.0015532 C38.3339202,38.0015532 38.2283234,38.10715 38.2283234,38.2374044 C38.2283234,38.3676587 38.3339202,38.4732555 38.4641745,38.4732555 Z" id="Path"></path>
                <path d="M39.6434683,39.6525493 C39.7737545,39.6525493 39.8793513,39.5469525 39.8793513,39.4166982 C39.8793513,39.2864439 39.7737545,39.180847 39.6434683,39.180847 C39.5131821,39.180847 39.4076172,39.2864439 39.4076172,39.4166982 C39.4076172,39.5469525 39.513214,39.6525493 39.6434683,39.6525493 Z" id="Path"></path>
                <path d="M37.284887,32.5767991 C37.4151732,32.5767991 37.52077,32.4712023 37.52077,32.340948 C37.52077,32.2106937 37.4151732,32.1050969 37.284887,32.1050969 C37.1546009,32.1050969 37.0490359,32.2106937 37.0490359,32.340948 C37.0490359,32.4712023 37.1546327,32.5767991 37.284887,32.5767991 Z" id="Path"></path>
                <path d="M36.1056251,33.2843907 L36.1055932,33.2843907 C35.9753389,33.2843907 35.8697421,33.3899875 35.8697421,33.5202418 C35.8697421,33.6504962 35.9753389,33.756093 36.1055932,33.756093 L36.1056251,33.756093 C36.2358794,33.756093 36.3414762,33.6504962 36.3414762,33.5202418 C36.3414762,33.3899875 36.2358794,33.2843907 36.1056251,33.2843907 Z" id="Path"></path>
                <path d="M37.284887,34.9353868 C37.4151732,34.9353868 37.52077,34.82979 37.52077,34.6995357 C37.52077,34.5692813 37.4151732,34.4636845 37.284887,34.4636845 C37.1546009,34.4636845 37.0490359,34.5692813 37.0490359,34.6995357 C37.0490359,34.82979 37.1546327,34.9353868 37.284887,34.9353868 Z" id="Path"></path>
                <path d="M36.1056251,35.642972 L36.1055932,35.642972 C35.9753389,35.642972 35.8697421,35.7485688 35.8697421,35.8788231 C35.8697421,36.0090774 35.9753389,36.1146742 36.1055932,36.1146742 L36.1056251,36.1146742 C36.2358794,36.1146742 36.3414762,36.0090774 36.3414762,35.8788231 C36.3414762,35.7485688 36.2358794,35.642972 36.1056251,35.642972 Z" id="Path"></path>
                <path d="M37.284887,37.293968 C37.4151732,37.293968 37.52077,37.1883712 37.52077,37.0581169 C37.52077,36.9278626 37.4151732,36.8222658 37.284887,36.8222658 C37.1546009,36.8222658 37.0490359,36.9278626 37.0490359,37.0581169 C37.0490359,37.1883712 37.1546327,37.293968 37.284887,37.293968 Z" id="Path"></path>
                <path d="M36.1056251,38.0015532 L36.1055932,38.0015532 C35.9753389,38.0015532 35.8697421,38.10715 35.8697421,38.2374044 C35.8697421,38.3676587 35.9753389,38.4732555 36.1055932,38.4732555 L36.1056251,38.4732555 C36.2358794,38.4732555 36.3414762,38.3676587 36.3414762,38.2374044 C36.3414762,38.10715 36.2358794,38.0015532 36.1056251,38.0015532 Z" id="Path"></path>
                <circle id="Oval" cx="34.9263376" cy="34.6995293" r="1"></circle>
                <circle id="Oval" cx="33.7470438" cy="35.8788231" r="1"></circle>
                <circle id="Oval" cx="34.9263376" cy="37.0581169" r="1"></circle>
                <circle id="Oval" cx="33.7470438" cy="38.2374044" r="1"></circle>
                <circle id="Oval" cx="33.7470438" cy="40.5959856" r="1"></circle>
                <circle id="Oval" cx="31.3884625" cy="35.8788231" r="1"></circle>
                <circle id="Oval" cx="32.5677564" cy="37.0581169" r="1"></circle>
                <circle id="Oval" cx="31.3884625" cy="38.2374044" r="1"></circle>
                <circle id="Oval" cx="32.5677564" cy="39.4166982" r="1"></circle>
                <circle id="Oval" cx="31.3884625" cy="40.5959856" r="1"></circle>
                <path d="M32.5677564,42.0111305 C32.6980107,42.0111305 32.8036075,41.9055337 32.8036075,41.7752794 C32.8036075,41.6450251 32.6980107,41.5393965 32.5677564,41.5393965 C32.437502,41.5393965 32.3319052,41.6449933 32.3319052,41.7752794 C32.3319052,41.9055656 32.437502,42.0111305 32.5677564,42.0111305 Z" id="Path"></path>
                <path d="M31.3884625,42.7186839 C31.2582082,42.7186839 31.1526114,42.8242807 31.1526114,42.954535 C31.1526114,43.0847893 31.2582082,43.190418 31.3884625,43.190418 C31.5187169,43.190418 31.6243137,43.0848212 31.6243137,42.954535 C31.6243137,42.8242489 31.5187169,42.7187157 31.3884625,42.7186839 Z" id="Path"></path>
                <circle id="Oval" cx="29.0298813" cy="35.8788231" r="1"></circle>
                <circle id="Oval" cx="30.2091687" cy="37.0581169" r="1"></circle>
                <circle id="Oval" cx="29.0298813" cy="38.2374044" r="1"></circle>
                <circle id="Oval" cx="30.2091687" cy="39.4166982" r="1"></circle>
                <circle id="Oval" cx="27.8505875" cy="34.6995293" r="1"></circle>
                <path d="M26.6713319,35.642972 L26.6713,35.642972 C26.5410457,35.642972 26.4354489,35.7485688 26.4354489,35.8788231 C26.4354489,36.0090774 26.5410457,36.1146742 26.6713,36.1146742 L26.6713319,36.1146742 C26.8015862,36.1146742 26.9071512,36.0090774 26.9071512,35.8788231 C26.9071512,35.7485688 26.8015862,35.642972 26.6713319,35.642972 Z" id="Path"></path>
                <circle id="Oval" cx="27.8505875" cy="37.0581169" r="1"></circle>
                <path d="M26.6713319,38.0015532 L26.6713,38.0015532 C26.5410457,38.0015532 26.4354489,38.10715 26.4354489,38.2374044 C26.4354489,38.3676587 26.5410457,38.4732555 26.6713,38.4732555 L26.6713319,38.4732555 C26.8015862,38.4732555 26.9071512,38.3676587 26.9071512,38.2374044 C26.9071512,38.10715 26.8015862,38.0015532 26.6713319,38.0015532 Z" id="Path"></path>
                <path d="M25.4920062,34.9353868 C25.6198343,34.9353868 25.723285,34.8335535 25.7271441,34.7066553 L25.2852576,34.8108511 C25.3251223,34.8846708 25.4022343,34.9353868 25.4920062,34.9353868 Z" id="Path"></path>
                <circle id="Oval" cx="25.4920062" cy="37.0581169" r="1"></circle>
                <path d="M24.3127506,38.0015532 L24.3127188,38.0015532 C24.1824645,38.0015532 24.0768677,38.10715 24.0768677,38.2374044 C24.0768677,38.3676587 24.1824645,38.4732555 24.3127188,38.4732555 L24.3127506,38.4732555 C24.4430049,38.4732555 24.5485699,38.3676587 24.5485699,38.2374044 C24.5485699,38.10715 24.4430049,38.0015532 24.3127506,38.0015532 Z" id="Path"></path>
                <circle id="Oval" cx="25.4920062" cy="39.4166982" r="1"></circle>
                <path d="M32.3766798,35.1238779 C34.6807814,35.1238779 36.5552871,33.2493786 36.5552871,30.9452706 C36.5552871,29.7483178 36.0486619,28.6681253 35.2394918,27.9055956 C35.2350787,27.9014309 35.2307229,27.8972024 35.2263097,27.8930313 C35.179421,27.8492183 35.1315324,27.8065899 35.0826823,27.7649867 C35.068252,27.7525815 35.0541402,27.7398006 35.0395826,27.7276438 C35.0124351,27.7051324 34.9843898,27.6837354 34.9566564,27.6619435 C34.5052877,27.3040148 33.9879385,27.0460216 33.4315971,26.9018083 C33.4258148,26.9003181 33.4201216,26.8987006 33.4143394,26.8972041 C33.3602036,26.8834298 33.3056667,26.8709927 33.2508433,26.8593645 C33.2296373,26.854824 33.2083995,26.8504427 33.187098,26.8462142 C33.1406104,26.8371333 33.09397,26.8286763 33.0470176,26.8211492 C33.015024,26.8159591 32.9828393,26.8115078 32.9506228,26.8070628 C32.9109492,26.8016499 32.871301,26.7961478 32.8313472,26.7918556 C32.7874706,26.7870986 32.7432246,26.7837108 32.6989786,26.7803165 C32.6684115,26.7780176 32.6380035,26.7749991 32.607309,26.7733179 C32.5309102,26.7691532 32.4541038,26.7666632 32.3766798,26.7666632 C30.0725781,26.7666632 28.1980724,28.6411625 28.1980724,30.9452706 C28.1980724,31.0226946 28.2005624,31.099501 28.2047271,31.1758998 C28.2064083,31.2065879 28.2094205,31.2370023 28.2117258,31.2675694 C28.2151136,31.3118154 28.2185015,31.3560614 28.2232649,31.399938 C28.227557,31.4398918 28.2330591,31.47954 28.238472,31.5192136 C28.242917,31.5514301 28.247362,31.5836084 28.2525584,31.6156084 C28.2600855,31.662529 28.2685425,31.7091439 28.2776235,31.7556251 C28.2818519,31.7769839 28.286265,31.7982536 28.2908055,31.8195232 C28.302402,31.874283 28.3148135,31.9287881 28.3285878,31.9828601 C28.3301098,31.9887061 28.3317592,31.9944884 28.3332812,32.0003025 C28.4774372,32.5564911 28.7353349,33.0736875 29.0931044,33.5249288 C29.1149981,33.5527895 29.1364843,33.5809622 29.1590849,33.6082307 C29.1712098,33.6227182 29.1839589,33.6367728 29.1962749,33.6511393 C29.2379418,33.7000213 29.2806021,33.7479672 29.3244468,33.7948878 C29.3286116,33.7993009 29.3328401,33.8036567 29.3370112,33.8080699 C29.5764731,34.0621721 29.847209,34.2861785 30.143201,34.4741793 C30.0452842,34.5028805 29.9733304,34.5923404 29.9733304,34.6995229 C29.9733304,34.8297772 30.0789272,34.935374 30.2091815,34.935374 C30.3394358,34.935374 30.4450326,34.8297772 30.4450326,34.6995229 C30.4450326,34.6807751 30.4422943,34.6627404 30.4381613,34.6452598 C31.0179822,34.9502946 31.6772776,35.1238779 32.3766861,35.1238779 L32.3766798,35.1238779 Z M32.3766798,34.8054763 C31.5244418,34.8054763 30.736223,34.5273279 30.0968917,34.0578036 C29.5999079,33.3868799 29.3371258,32.5948083 29.3371258,31.7659224 C29.3371258,29.6373781 31.068781,27.905723 33.1973253,27.905723 C34.026243,27.905723 34.8182509,28.1684732 35.4891491,28.6653934 C35.9587053,29.304731 36.2368792,30.0929753 36.2368792,30.9452769 C36.2368792,33.0738212 34.505224,34.8054763 32.3766798,34.8054763 L32.3766798,34.8054763 Z" id="Shape"></path>
                <path d="M45.5644229,34.2330235 L45.5887366,34.1031703 C45.7379935,33.3073352 45.8136727,32.5209568 45.8136727,31.7659224 C45.8136727,31.0108881 45.7379871,30.2245669 45.5887366,29.4287318 L45.5644229,29.2988787 L44.8787569,29.2988787 C44.8478777,29.0697141 44.811471,28.8393969 44.7680911,28.6080799 C44.7539729,28.5327701 44.6882407,28.4782268 44.6116254,28.4782268 L41.8970131,28.4782268 C41.7335489,28.0433389 41.5390844,27.6225055 41.3133714,27.2201398 L43.724127,24.8093842 L43.6504347,24.7004887 C43.0927878,23.8771686 42.4432228,23.1276363 41.7101968,22.4592599 C41.064612,21.7511779 40.3378714,21.1163489 39.5364387,20.5626185 C39.4731328,20.5188374 39.3877422,20.5266702 39.3333899,20.5810288 L37.0248051,22.88955 C36.6146065,22.6523297 36.1869019,22.4472941 35.7457604,22.2758059 L35.7457604,19.4120641 L35.6169644,19.3869991 C35.3864625,19.3421927 35.155706,19.3043786 34.9251086,19.2723213 L34.9251086,18.7226346 C34.9251086,18.6464523 34.8711257,18.5809048 34.7963126,18.5663536 C33.9859899,18.4088308 33.1718717,18.3289168 32.3766607,18.3289168 C31.6494233,18.3289168 30.9118568,18.398317 30.121874,18.5411675 C30.0460675,18.5548463 29.9909638,18.6208332 29.9909638,18.6978242 L29.9909638,21.9559715 C29.232567,22.156715 28.5070109,22.4500642 27.8309226,22.8292308 L26.2407807,21.239057 L26.2407807,21.239057 L25.5131039,20.5113802 C25.459121,20.457461 25.3745455,20.4493162 25.3112397,20.4921038 C24.0121735,21.3718904 22.8960646,22.4799755 21.9938876,23.7855753 C21.9501702,23.8488239 21.9579393,23.9342718 22.0122979,23.9886241 L22.7390385,24.7153965 L22.7390385,24.7154284 L24.3208191,26.2972089 C23.9253564,26.9812256 23.6192645,27.7138122 23.4095037,28.4782396 L20.1415303,28.4782396 C20.064915,28.4782396 19.9991765,28.5327765 19.9850647,28.6080927 C19.8359351,29.4033037 19.7603133,30.1896249 19.7603133,30.9452833 C19.7603133,31.7009417 19.8359351,32.4873202 19.9850647,33.2825312 C19.9991829,33.3578411 20.064915,33.4123843 20.1415303,33.4123843 L20.6950125,33.4123843 C20.7257961,33.6415807 20.7623303,33.8719298 20.8057102,34.1031831 L20.8300238,34.2330362 L23.6767244,34.2330362 C23.8541795,34.7031846 24.0692641,35.1581322 24.3208191,35.5933003 L22.0122979,37.9019425 C21.9579457,37.9562947 21.9501702,38.0417427 21.9938876,38.1049912 C22.5475862,38.9065768 23.1824152,39.6333174 23.8904653,40.2788704 C24.5588736,41.0120174 25.3084695,41.6615823 26.1319425,42.2191719 L26.2407743,42.2928642 L28.6515299,39.882045 C29.0794192,40.1220354 29.5275529,40.3265106 29.9909574,40.4958527 L29.9909574,43.1927424 C29.9909574,43.2697334 30.0460547,43.3357139 30.1218676,43.3493991 C30.3561649,43.3917473 30.585425,43.4268868 30.8116093,43.4564287 L30.8116093,44.1464187 L30.9425195,44.1700509 C31.7325087,44.3129015 32.4700688,44.3823017 33.1973061,44.3823017 C33.9925172,44.3823017 34.8066353,44.3023876 35.616958,44.1448649 L35.7457541,44.1197998 L35.7457541,40.7110964 C36.4798945,40.5022017 37.1852445,40.2034459 37.8454442,39.8216685 L40.2478702,42.2240945 L40.3570714,42.1486 C41.6624802,41.2466076 42.7705016,40.1305624 43.6504156,38.8314389 L43.7241079,38.7225434 L42.8104873,37.8089228 L41.3133459,36.3117815 C41.6784579,35.6609111 41.964401,34.9627125 42.1645267,34.2330489 L45.5644038,34.2330489 L45.5644229,34.2330235 Z M30.3093844,41.9880269 C30.3893303,41.9502764 30.4450199,41.8695536 30.4450199,41.7752794 C30.4450199,41.6810052 30.3893303,41.6002506 30.3093844,41.5625001 L30.3093844,39.8111929 C30.3093844,39.7381819 30.2596937,39.6745003 30.1888607,39.6567777 C29.3753029,39.4528629 28.5998077,39.1394285 27.8839503,38.7251225 C27.8215741,38.6891169 27.7426536,38.6994397 27.6916637,38.7503723 L25.3814677,41.0606319 C24.1970157,40.2400501 23.1720797,39.2224502 22.3317821,38.0327063 L23.0778628,37.2865937 C23.0956809,37.2911024 23.1141804,37.2939617 23.1334313,37.2939617 C23.2636856,37.2939617 23.3692825,37.1883649 23.3692825,37.0581105 C23.3692825,37.0388341 23.3665123,37.0203283 23.3619463,37.0025165 L24.2570356,36.1073954 C24.2748855,36.1119678 24.2934169,36.1146742 24.3127251,36.1146742 L24.312757,36.1146742 C24.4430113,36.1146742 24.5485763,36.0090774 24.5485763,35.8788231 C24.5485763,35.8595467 24.5456533,35.8410727 24.541272,35.8231654 L24.6330308,35.7314066 C24.6845874,35.67985 24.6945345,35.599936 24.6572234,35.5373115 C24.2256915,34.8135575 23.8988267,34.0315286 23.6857672,33.213061 C23.6675479,33.1429093 23.6041783,33.09397 23.5317278,33.09397 L20.2743255,33.09397 C20.1445361,32.3624406 20.0787403,31.6402404 20.0787403,30.9452769 C20.0787403,30.2503134 20.1445361,29.528177 20.2743255,28.7966475 L23.5317278,28.7966475 C23.604242,28.7966475 23.6675479,28.7477018 23.6857672,28.6775565 C23.8988267,27.8590253 24.2256278,27.0769963 24.6572234,26.3531787 C24.6945345,26.2905542 24.6845874,26.2106402 24.6330308,26.1590836 L22.3318521,23.8578412 C23.1723981,22.6681036 24.1972768,21.6505037 25.3814805,20.8299792 L27.6916764,23.1402389 C27.7426727,23.1912351 27.8215869,23.2015579 27.883963,23.1654886 C28.5999478,22.7511253 29.375443,22.4376909 30.1888734,22.2337697 C30.2597064,22.2160471 30.3093972,22.1523656 30.3093972,22.0793546 L30.3093972,18.8314091 C31.0312853,18.707593 31.7088382,18.6473311 32.3766861,18.6473311 C33.1094574,18.6473311 33.8590215,18.7170433 34.6067261,18.8545446 L34.6067261,22.1212125 C34.6067261,22.1931663 34.654984,22.2561602 34.7243906,22.2748826 C35.5128259,22.4880057 36.2679876,22.8079675 36.9688544,23.2259416 C37.0313515,23.2633163 37.1114566,23.2533692 37.1629495,23.2017489 L39.4641919,20.9005066 C40.6536174,21.7407405 41.671281,22.7657402 42.4919265,23.9500712 L40.1817305,26.2602672 C40.1307343,26.3112635 40.1203478,26.3901777 40.1565445,26.4526175 C40.5566686,27.1437856 40.8631999,27.8923562 41.0676751,28.6775565 C41.0858944,28.7477082 41.149264,28.7966475 41.2217145,28.7966475 L44.4788684,28.7966475 C44.6087788,29.5287374 44.6746383,30.2509375 44.6746383,30.9452769 C44.6746383,31.3906723 44.6472107,31.8475749 44.5934825,32.3111068 C44.5786829,32.1950917 44.4806706,32.1051033 44.3606499,32.1051033 C44.2303956,32.1051033 44.1247988,32.2107001 44.1247988,32.3409544 C44.1247988,32.4712087 44.2303956,32.5768055 44.3606499,32.5768055 C44.4592481,32.5768055 44.5434861,32.5161997 44.5787148,32.4302869 C44.5511343,32.650345 44.5183319,32.871613 44.4788684,33.09397 L41.2217145,33.09397 C41.149264,33.09397 41.0858944,33.1429157 41.0676751,33.213061 C41.0523151,33.2720492 41.0352421,33.3304134 41.0187295,33.3889941 C40.9763812,33.3259366 40.9044592,33.2843907 40.8228003,33.2843907 L40.8227685,33.2843907 C40.6925142,33.2843907 40.5869174,33.3899875 40.5869174,33.5202418 C40.5869174,33.6504962 40.6925142,33.756093 40.8227685,33.756093 L40.8228003,33.756093 C40.8548258,33.756093 40.8853293,33.7495656 40.9131581,33.7379947 C40.7194706,34.3325833 40.4664573,34.9026417 40.1565381,35.4379937 C40.1203415,35.5004335 40.1307279,35.5793477 40.1817242,35.6303439 L42.4919202,37.9405399 C41.6712747,39.1248073 40.6536111,40.1497433 39.4641855,40.9900409 L37.1629432,38.6887985 C37.1114502,38.6371846 37.0313515,38.6272949 36.9688481,38.6646059 C36.3952489,39.0066779 35.7848609,39.281897 35.1500701,39.487805 C35.1572534,39.4652299 35.1621951,39.4416613 35.1621951,39.4166918 C35.1621951,39.2864375 35.0565983,39.1808407 34.926344,39.1808407 C34.7960897,39.1808407 34.6904929,39.2864375 34.6904929,39.4166918 C34.6904929,39.4910401 34.7256005,39.5565557 34.7793605,39.5998082 C34.760982,39.6048773 34.7427946,39.6106914 34.7243842,39.6156649 C34.654984,39.6343809 34.6067197,39.6973811 34.6067197,39.7693349 L34.6067197,43.0360029 C34.3653028,43.0804081 34.1237268,43.1169422 33.8825264,43.1471336 C33.9431003,43.1044415 33.9829013,43.034258 33.9829013,42.954535 C33.9829013,42.8243126 33.8773045,42.7187157 33.7470502,42.7186839 C33.6167959,42.7186839 33.5111991,42.8242807 33.5111991,42.954535 C33.5111991,43.0536936 33.5725181,43.1382437 33.6592078,43.1730966 C33.2285165,43.2192084 32.7997547,43.2432164 32.3766861,43.2432164 C31.7088382,43.2432164 31.0312853,43.1829545 30.3093972,43.0591384 L30.3093972,41.9880269 L30.3093844,41.9880269 Z" id="Shape"></path>
            </g>
        </g>
    </g>
</svg>