<?xml version="1.0" encoding="UTF-8"?>
<svg viewBox="0 0 64 103" version="1.1" xmlns="http://www.w3.org/2000/svg" xmlns:xlink="http://www.w3.org/1999/xlink">
    <title>Logo-Red_Hat-AWS-B-Standard-RGB (1)@1x</title>
    <g id="Widgets" stroke="none" stroke-width="1" fill="none" fill-rule="evenodd">
        <g id="Explore" transform="translate(-1302, -3497)">
            <g id="Logo-Red_Hat-AWS-B-Standard-RGB-(1)" transform="translate(1302, 3497)">
                <path d="M63.6274256,55.8132988 L0.372574386,55.8132988 C0.166807234,55.8132988 0,55.6464916 0,55.4407245 C0,55.2349573 0.166807234,55.0681501 0.372574386,55.0681501 L63.6274256,55.0681501 C63.8331928,55.0681501 64,55.2349573 64,55.4407245 C64,55.6464916 63.8331928,55.8132988 63.6274256,55.8132988 Z" id="Path" fill="#000000" fill-rule="nonzero"></path>
                <path d="M42.2863648,10.283053 C42.3266501,10.4690023 42.3438906,10.6592038 42.3376973,10.8493661 C42.3376973,13.3149806 39.3405433,13.745511 37.2673739,13.7488228 C29.2065201,13.7488228 23.1923415,8.75135834 23.1923415,7.22297542 C23.1880619,7.1146647 23.2003466,7.00633553 23.228771,6.90173351 L22.6227167,8.40362225 C22.4580747,8.78705683 22.3735502,9.20009979 22.3743284,9.6173868 C22.3743284,12.6178525 29.163467,17.1483571 36.9212937,17.1417408 C40.348978,17.1417408 42.9569987,15.8501423 42.9536901,13.5285899 C42.9536901,13.3497542 42.9536901,13.207348 42.6672186,11.8495213 L42.2929884,10.283053 L42.2863648,10.283053 Z" id="Path" fill="#000000" fill-rule="nonzero"></path>
                <path d="M42.6605951,11.8495213 C42.9470634,13.207348 42.9470634,13.3497542 42.9470634,13.5285899 C42.9470634,15.8468305 40.3423545,17.1384217 36.9146701,17.1417335 C29.1618111,17.1417335 22.371022,12.6195084 22.3677102,9.6173868 C22.3669266,9.20009979 22.4514511,8.78705683 22.6160931,8.40362225 C19.8308926,8.54934023 16.2276843,9.05107374 16.2276843,12.232031 C16.2276843,17.4464166 28.5988098,23.8646313 38.3867529,23.8563599 C45.8879172,23.8563599 47.7772833,20.4551617 47.7756285,17.7759379 C47.7756285,15.6663389 45.9541527,13.2752393 42.662251,11.8495213 M37.2673739,13.7438551 C39.3405433,13.7438551 42.3410091,13.3100129 42.3376973,10.8443984 C42.3438906,10.6542362 42.3266501,10.4640347 42.2863648,10.2780854 L41.0461061,4.916326 C40.7596378,3.73733506 40.509599,3.20248383 38.4364295,2.16755498 C36.828564,1.35285899 33.3263648,0 32.2897801,0 C31.3260543,0 31.0412419,1.25019405 29.8970246,1.25184994 C28.7908926,1.25350582 27.9679172,0.331177232 26.9313325,0.331177232 C25.9378008,0.331177232 25.2886934,1.01174644 24.7902717,2.4043467 C24.7902717,2.4043467 23.4009832,6.33542044 23.2221475,6.90670116 C23.1937231,7.01130318 23.1814384,7.11963236 23.185718,7.22794308 C23.185718,8.756326 29.2065201,13.760414 37.2607503,13.753797" id="Shape" fill="#EE0000" fill-rule="nonzero"></path>
                <path d="M0,41.075912 L2.99715395,41.075912 L2.99715395,36.6331695 L5.27896507,36.6331695 L7.57899094,41.075912 L10.9288486,41.075912 L8.24134541,36.1976714 C9.63631265,35.6298537 10.5460742,34.2711104 10.5397154,32.7650194 C10.5397154,30.5709702 8.8159379,28.8803105 6.23441138,28.8803105 L0,28.8803105 L0,41.075912 Z M5.96119017,31.4419664 C6.95472186,31.4419664 7.5127555,32.0678913 7.5127555,32.8180078 C7.5127555,33.5681242 6.95472186,34.1940492 5.96119017,34.1940492 L2.99715395,34.1940492 L2.99715395,31.4419664 L5.96119017,31.4419664 Z M10.8228719,36.4758603 C10.8228719,39.1600517 13.0169211,41.2497801 15.840207,41.2497801 C17.3901164,41.2497801 18.5227426,40.8324968 19.6901423,39.8571798 L17.8256145,38.2012937 C17.3901164,38.6550065 16.7459767,38.8984217 15.9793014,38.8984217 C14.994162,38.9258855 14.093767,38.3440513 13.7140492,37.4346184 L20.2829495,37.4346184 L20.2829495,36.7374903 C20.2829495,33.8115395 18.3141009,31.7019405 15.6315653,31.7019405 C14.3573407,31.6836193 13.1295395,32.1797806 12.2257884,33.0782338 C11.3220374,33.976687 10.8186661,35.2015499 10.8294955,36.4758603 M15.5852005,34.0019664 C16.4744114,34.0019664 17.2228719,34.5782147 17.5192755,35.4657697 L13.6594049,35.4657697 C13.9375938,34.5417853 14.6347219,34.0019664 15.5752652,34.0019664 M28.363674,41.075912 L31.1505304,41.075912 L31.1505304,28.2709444 L28.3355239,28.8803105 L28.3355239,32.3477361 C27.6184027,31.94127 26.8067817,31.7310825 25.9825097,31.73837 C23.2999741,31.73837 21.192031,33.8115395 21.192031,36.4593014 C21.1764693,37.7148709 21.6659798,38.9240536 22.5505942,39.8152069 C23.4352087,40.7063602 24.6407536,41.2047624 25.8964036,41.1985069 C26.7824572,41.2028343 27.6467974,40.9243891 28.363674,40.4036223 L28.363674,41.0825356 L28.363674,41.075912 Z M23.955705,36.4593014 C23.955705,35.1345925 25.0005692,34.1245019 26.3766106,34.1245019 C27.093803,34.109417 27.7905271,34.3641143 28.3289004,34.8381889 L28.3289004,38.0621992 C27.8018405,38.5568514 27.0989564,38.8203584 26.3766106,38.7941009 C25.018784,38.7941009 23.955705,37.7840103 23.955705,36.4593014 M35.3813195,41.075912 L38.3784735,41.075912 L38.3784735,36.3019922 L43.3842173,36.3019922 L43.3842173,41.075912 L46.3813713,41.075912 L46.3813713,28.8803105 L43.3842173,28.8803105 L43.3842173,33.5664683 L38.3668823,33.5664683 L38.3668823,28.8803105 L35.3697283,28.8803105 L35.3697283,41.075912 L35.3813195,41.075912 Z M50.6966106,41.2332212 C51.6901423,41.2332212 52.4899353,41.0245796 53.2400517,40.5178784 L53.2400517,41.075912 L56.0269082,41.075912 L56.0269082,35.1693661 C56.0269082,32.9223286 54.5117723,31.6920052 51.98489,31.6920052 C50.574075,31.6920052 49.1798189,32.0231824 47.679586,32.7020957 L48.683053,34.7736093 C49.7626908,34.3215524 50.6701164,34.0417076 51.4699094,34.0417076 C52.6290298,34.0417076 53.2301164,34.4954204 53.2301164,35.4194049 L53.2301164,35.8714618 C52.5485719,35.6921922 51.8467712,35.6014757 51.142044,35.6015524 C48.7724709,35.6015524 47.345097,36.5950841 47.345097,38.3718499 C47.345097,39.9929625 48.6333765,41.2299094 50.6899871,41.2299094 M49.8289263,38.3205175 C49.8289263,37.7094955 50.4382924,37.4147477 51.3622768,37.4147477 C51.9260862,37.4173183 52.4875614,37.4873637 53.0347219,37.6233894 L53.0347219,38.807348 C52.4955372,39.1025107 51.8891424,39.2531111 51.2745149,39.2445019 C50.3687451,39.2445019 49.8289263,38.8967658 49.8289263,38.3221734 M58.6051229,38.269185 C58.6051229,40.2380336 59.7907374,41.1967917 61.9516688,41.1967917 C62.6153559,41.1798393 63.2748815,41.0864945 63.9172057,40.9186028 L63.9172057,38.6367917 C63.5054523,38.7672261 63.0757366,38.8320466 62.6438292,38.8288745 C61.7562743,38.8288745 61.425097,38.5506856 61.425097,37.7128072 L61.425097,34.2122639 L64,34.2122639 L64,31.8592497 L61.4217853,31.8592497 L61.4217853,28.8786546 L58.5984994,29.4880207 L58.5984994,31.8592497 L56.7356274,31.8592497 L56.7356274,34.2122639 L58.5984994,34.2122639 L58.5984994,38.2708409 L58.6051229,38.269185 Z" id="Shape" fill="#000000" fill-rule="nonzero"></path>
                <path d="M50.3240362,86.6111255 C49.3975537,86.6120861 48.4740649,86.5059571 47.5719534,86.2948512 C46.8541213,86.1483233 46.1598654,85.9037179 45.5087193,85.5679172 C45.278997,85.4589367 45.0882603,85.2820717 44.9622768,85.061216 C44.8904582,84.9025181 44.853205,84.7303629 44.8529884,84.5561708 L44.8529884,83.6388098 C44.8529884,83.2596119 44.9871151,83.0708409 45.2586805,83.0708409 C45.3719938,83.0713677 45.4842473,83.0926959 45.5898577,83.1337646 C45.7041138,83.1751617 45.8564554,83.2380854 46.0435705,83.3225356 C46.6749381,83.605748 47.3358311,83.8179002 48.014075,83.9550841 C48.7133119,84.1017501 49.4257804,84.1761043 50.1402329,84.1769728 C51.2662354,84.1769728 52.1366796,83.9766106 52.7515653,83.5758862 C53.3447159,83.2150973 53.6972649,82.5625336 53.6738939,81.8686675 C53.6878249,81.3990602 53.5130897,80.9434366 53.1887193,80.6035705 C52.8652695,80.2723933 52.2658387,79.956119 51.3904269,79.6547477 L48.7956533,78.8268047 C47.4819836,78.4051056 46.5281932,77.7935317 45.934282,76.9920828 C45.3566797,76.2420125 45.042407,75.322474 45.0401035,74.3757827 C45.0240495,73.6738337 45.1912734,72.9798261 45.5252781,72.3622251 C45.8458746,71.7828921 46.2821183,71.275632 46.806934,70.8719276 C47.3633719,70.4477784 47.9939949,70.131063 48.6664942,69.9380078 C49.3979275,69.7242772 50.1564892,69.6177439 50.9184994,69.6216255 C51.3210449,69.6229729 51.7231144,69.6495194 52.1223286,69.701216 C52.5296766,69.7542044 52.9154981,69.8237516 53.2814489,69.9065459 C53.6473997,69.9893402 53.9852005,70.0870375 54.298163,70.1913583 C54.5571736,70.2740934 54.8082227,70.3799441 55.0482794,70.5076326 C55.2538373,70.6170947 55.434748,70.7675718 55.5798189,70.9497542 C55.6925011,71.1292479 55.7468729,71.3392156 55.7354722,71.5508409 L55.7354722,72.4052781 C55.7354722,72.7844761 55.5996895,72.9732471 55.3297801,72.9732471 C55.0880717,72.9451227 54.8541251,72.8703272 54.6409314,72.7530142 C53.5578477,72.2765957 52.3847514,72.0393784 51.2016559,72.057542 C50.1794222,72.057542 49.3873566,72.2231307 48.8254592,72.5543079 C48.2635619,72.8854851 47.9820612,73.4230962 47.9809573,74.167141 C47.9714559,74.6493444 48.1642097,75.1135147 48.5124968,75.447141 C48.8668564,75.7948771 49.5236912,76.1260543 50.4830013,76.4406727 L53.0148512,77.2686158 C54.3086503,77.6903148 55.2315308,78.2698749 55.7834929,79.0072962 C56.3319891,79.7357695 56.6231929,80.6256882 56.611436,81.5374903 C56.6231388,82.2713275 56.4596507,82.9973736 56.1345408,83.6553687 C55.8229741,84.2754975 55.3799475,84.8202393 54.836326,85.2516429 C54.2455453,85.7140827 53.5707537,86.0576641 52.8492626,86.2633894 C52.0262684,86.5023776 51.1727072,86.619533 50.3157568,86.6111255 L50.3240362,86.6111255 Z M27.3717982,86.137542 C27.1298209,86.1570382 26.8881943,86.0959037 26.6846054,85.963674 C26.5372316,85.847762 26.4130401,85.6109702 26.3087193,85.2516429 L22.1193273,71.2759638 C22.0358124,71.0409853 21.9802342,70.7969967 21.9537387,70.5490298 C21.9359922,70.4280947 21.9760996,70.3058488 22.0620397,70.2189321 C22.1479799,70.1320154 22.2697648,70.0905293 22.3908926,70.1069082 L24.1428202,70.1069082 C24.4739974,70.1069082 24.7107891,70.1648642 24.8465718,70.2807762 C24.9823545,70.3966882 25.1015783,70.6334799 25.2058991,70.9911514 L28.2163001,82.9433376 L30.9998448,70.9911514 C31.0826391,70.6334799 31.1968952,70.3966882 31.3426132,70.2807762 C31.5574639,70.1461342 31.8103097,70.0851024 32.0629237,70.1069082 L33.5002329,70.1069082 C33.7528468,70.0851024 34.0056927,70.1461342 34.2205433,70.2807762 C34.3662613,70.3966882 34.4810694,70.6334799 34.5649677,70.9911514 L37.3799741,83.1023027 L40.4764812,70.9911514 C40.5802501,70.6334799 40.7000259,70.3966882 40.8358085,70.2807762 C40.9715912,70.1648642 41.2050712,70.1069082 41.5395602,70.1069082 L43.1954463,70.1069082 C43.3165742,70.0905293 43.4383591,70.1320154 43.5242992,70.2189321 C43.6102393,70.3058488 43.6503467,70.4280947 43.6326003,70.5490298 C43.6316373,70.6447789 43.6210975,70.7401915 43.6011384,70.8338422 C43.5683739,70.9835057 43.5269063,71.1311303 43.476947,71.2759638 L39.1617076,85.2516429 C39.0557309,85.6109702 38.9315395,85.847762 38.7858215,85.963674 C38.582132,86.0956732 38.3405849,86.1567875 38.0986287,86.137542 L36.5652781,86.137542 C36.3108459,86.159859 36.05662,86.0924949 35.8466235,85.9471151 C35.7009056,85.8212678 35.5849935,85.5778525 35.5021992,85.2201811 L32.7186546,73.5842691 L29.9715395,85.2201811 C29.8870893,85.5778525 29.7728331,85.8212678 29.6271151,85.9471151 C29.4165495,86.092614 29.161765,86.1599708 28.9068047,86.137542 L27.3717982,86.137542 Z M13.018577,84.1769728 C13.6475535,84.1694289 14.2709139,84.057515 14.8632342,83.8457956 C15.5195074,83.6169144 16.1026463,83.216721 16.552238,82.6866753 C16.8424323,82.3527392 17.0510424,81.9559264 17.1616041,81.527555 C17.2833256,81.0151501 17.3389738,80.4892747 17.3271928,79.9627426 L17.3271928,79.2043467 C16.7861283,79.0743305 16.238301,78.9742733 15.6862096,78.9046313 C15.1311487,78.8316237 14.5719496,78.794565 14.0121087,78.7936869 C12.8253903,78.7936869 11.942251,79.0359983 11.3626908,79.520621 C10.7831307,80.0052436 10.4911427,80.7007158 10.486727,81.6070375 C10.486727,82.4498836 10.7069599,83.0890556 11.1490815,83.519586 C11.5912031,83.9501164 12.2121604,84.1686934 13.0252005,84.1686934 L13.018577,84.1769728 Z M20.2730142,81.4265459 C20.255376,81.9709918 20.3241197,82.5147937 20.4766882,83.0377232 C20.6329196,83.4852332 20.8262251,83.9189245 21.0545925,84.334282 C21.1319356,84.4577149 21.1753455,84.5993681 21.1804398,84.7449418 C21.1804398,84.9353687 21.0661837,85.1142044 20.8360155,85.2831048 L19.7100129,86.0415006 C19.5729387,86.1405307 19.4102579,86.1980151 19.2413972,86.2070893 C19.0354859,86.1953839 18.8436355,86.0988592 18.7115136,85.9404916 C18.4630491,85.6896678 18.2476919,85.4080897 18.0706856,85.1026132 C17.8935058,84.7979301 17.7113583,84.4402587 17.5225873,84.0428461 C16.1261233,85.7086675 14.3752997,86.5415783 12.2701164,86.5415783 C10.7676757,86.5415783 9.57930142,86.109392 8.70499353,85.2450194 C7.83068564,84.3806468 7.39297973,83.2215265 7.39187581,81.7676585 C7.39187581,80.2298922 7.93390254,78.9912893 9.01795602,78.0518499 C10.1020095,77.1124105 11.5613972,76.6432428 13.396119,76.6443467 C14.0290465,76.6467257 14.6609955,76.6943156 15.287141,76.7867529 C15.9494955,76.8827943 16.6322725,77.0147132 17.3354722,77.1825097 L17.3354722,75.8578008 C17.3354722,74.4889349 17.0539715,73.5246572 16.4909702,72.9649677 C15.927969,72.4052781 14.9570677,72.1270893 13.5782665,72.130401 C12.9316557,72.1319973 12.2874871,72.2098089 11.6590944,72.3622251 C11.0036308,72.520642 10.360555,72.7265148 9.73495472,72.9782147 C9.53147546,73.0733795 9.3218054,73.1547027 9.10737387,73.22163 C9.0155582,73.2475129 8.92113984,73.2630641 8.82587322,73.2679948 C8.57583441,73.2679948 8.44998706,73.0792238 8.44998706,72.7000259 L8.44998706,71.8141268 C8.43259265,71.5956941 8.47615829,71.3767194 8.57583441,71.1815783 C8.70774187,71.0162729 8.87836357,70.8860317 9.07260026,70.8023803 C9.79231932,70.4499118 10.5464103,70.1724685 11.3229495,69.9744373 C12.2318155,69.7384284 13.1674996,69.6215375 14.1064942,69.6265373 C16.232652,69.6265373 17.7908409,70.1168435 18.7810608,71.0971281 C19.7712807,72.0774127 20.2680466,73.5583269 20.2713583,75.5398706 L20.2713583,81.4215783 L20.2730142,81.4265459 Z" id="Shape" fill="#232F3E" fill-rule="nonzero"></path>
                <path d="M53.7036999,95.5082018 C47.8203364,99.897956 39.2974903,102.232755 31.9470116,102.232755 C21.6540233,102.232755 12.3827167,98.386132 5.36838292,91.9811643 C4.81862872,91.4843984 5.30877102,90.792238 5.97112549,91.1813713 C13.5401811,95.6340492 22.8992497,98.3165847 32.5646572,98.3165847 C39.538112,98.2807065 46.4342997,96.8536179 52.8492626,94.1189133 C53.8427943,93.6916947 54.6707374,94.7812678 53.7036999,95.5082018 Z" id="Path" fill="#FF9900"></path>
                <path d="M56.1527555,92.68326 C55.3993273,91.7079431 51.185097,92.2212678 49.2824838,92.451436 C48.7078913,92.5209832 48.6201294,92.0126261 49.1367658,91.6450194 C52.5031824,89.2522639 58.022251,89.9444243 58.6630789,90.7425614 C59.3039069,91.5406986 58.4974903,97.1442173 55.3380595,99.8135058 C54.8528849,100.224166 54.3908926,100.005589 54.6061578,99.4641138 C55.316533,97.6707891 56.9061837,93.6552652 56.1527555,92.6749806 L56.1527555,92.68326 Z" id="Path" fill="#FF9900"></path>
                <path d="M53.7036999,95.5082018 C47.8203364,99.897956 39.2974903,102.232755 31.9470116,102.232755 C21.6540233,102.232755 12.3827167,98.386132 5.36838292,91.9811643 C4.81862872,91.4843984 5.30877102,90.792238 5.97112549,91.1813713 C13.5401811,95.6340492 22.8992497,98.3165847 32.5646572,98.3165847 C39.538112,98.2807065 46.4342997,96.8536179 52.8492626,94.1189133 C53.8427943,93.6916947 54.6707374,94.7812678 53.7036999,95.5082018 Z" id="Path" fill="#FF9900"></path>
                <path d="M56.1527555,92.68326 C55.3993273,91.7079431 51.185097,92.2212678 49.2824838,92.451436 C48.7078913,92.5209832 48.6201294,92.0126261 49.1367658,91.6450194 C52.5031824,89.2522639 58.022251,89.9444243 58.6630789,90.7425614 C59.3039069,91.5406986 58.4974903,97.1442173 55.3380595,99.8135058 C54.8528849,100.224166 54.3908926,100.005589 54.6061578,99.4641138 C55.316533,97.6707891 56.9061837,93.6552652 56.1527555,92.6749806 L56.1527555,92.68326 Z" id="Path" fill="#FF9900"></path>
            </g>
        </g>
    </g>
</svg>