<?xml version="1.0" encoding="UTF-8"?><svg xmlns="http://www.w3.org/2000/svg" viewBox="0 0 501.65 209.02"><defs><style>.f{stroke:#faaa4f;}.f,.g,.h,.i{fill:none;stroke-linecap:round;stroke-linejoin:round;stroke-width:10px;}.g{stroke:#ed1c24;}.h{stroke:#81c299;}.i{stroke:#4cb6d6;}</style></defs><g id="a"/><g id="b"/><g id="c"/><g id="d"><g><line class="g" x1="316.98" y1="34.52" x2="328.64" y2="46.24"/><path class="g" d="M235.02,18.46c9.33-6.1,20.47-9.65,32.45-9.65,12.7,0,22.83,4,31.81,10.1"/><path class="h" d="M384.25,34.2c-.95,.94-1.9,1.9-2.86,2.87-20.9,21.08-41.71,42.25-62.56,63.38"/><path class="f" d="M467.98,19.75c-9.69-6.89-21.55-10.95-34.35-10.95s-22.57,3.89-31.46,9.94"/><path class="g" d="M483.05,100.99c6.26-9.4,9.91-20.7,9.91-32.84s-3.74-23.71-10.13-33.18"/><path class="i" d="M401.9,118.3c9.45,6,20.54,9.19,31.73,9.19,12.29,0,23.71-3.74,33.18-10.13"/><line class="i" x1="372.46" y1="90.06" x2="383.44" y2="101.55"/></g><g><path class="g" d="M219.48,34.14c1.75-2.29-1.08,1.58,.52-.78"/><path class="h" d="M300.93,116.69c-2.36,1.5-4.83,2.82-7.37,3.97s-5.17,2.1-7.84,2.88"/></g></g><g id="e"><g><path d="M2.23,49.18H27.59c11.2,0,18.72,6.72,18.72,16.56,0,7.28-4.48,12.96-11.52,15.28l12.48,24.16h-9.28l-11.6-22.96H10.63v22.96H2.23V49.18Zm24.72,26c6.56,0,10.96-3.68,10.96-9.36s-4.4-9.28-10.96-9.28H10.63v18.64H26.95Z"/><path d="M49.75,84.78c0-11.76,8.96-21.04,20.4-21.04s19.68,9.36,19.68,21.44v2.24H57.75c1.12,6.72,6.64,11.68,13.68,11.68,4,0,7.76-1.28,10.32-3.6l5.12,5.04c-4.8,3.68-9.68,5.36-15.76,5.36-12,0-21.36-9.2-21.36-21.12Zm32.16-3.36c-1.12-6.24-6-10.88-11.92-10.88s-11.04,4.4-12.16,10.88h24.08Z"/><path d="M95.67,84.78c0-11.76,9.04-20.96,20.72-20.96,4.48,0,8.72,1.44,12.24,4.08v-18.72l8-1.52v57.52h-7.92v-3.92c-3.36,2.96-7.68,4.56-12.48,4.56-11.52,0-20.56-9.2-20.56-21.04Zm32.96,9.12v-18.32c-2.64-3.04-6.8-4.88-11.36-4.88-7.76,0-13.76,6-13.76,14s6,14.16,13.76,14.16c4.64,0,8.72-1.76,11.36-4.96Z"/><path d="M163.75,49.18h8.4v24h29.76v-24h8.4v56h-8.4v-24.4h-29.76v24.4h-8.4V49.18Z"/><path d="M217.91,93.5c0-7.68,6.24-12.4,16.48-12.4,3.92,0,7.76,.8,11.12,2.32v-4.32c0-5.76-3.44-8.72-9.92-8.72-3.76,0-7.6,1.04-12.64,3.44l-2.96-6c6.16-2.88,11.36-4.16,16.72-4.16,10.64,0,16.64,5.2,16.64,14.48v27.04h-7.84v-3.52c-3.6,2.88-7.68,4.24-12.64,4.24-8.8,0-14.96-5.04-14.96-12.4Zm16.8,6.4c4.32,0,7.84-1.2,10.8-3.84v-6.88c-3.04-1.76-6.4-2.56-10.48-2.56-5.84,0-9.44,2.64-9.44,6.72s3.68,6.56,9.12,6.56Z"/><path d="M266.63,95.1v-23.92h-8.64v-6.72h8.64v-10.4l7.92-1.92v12.32h12v6.72h-12v22.08c0,4.16,1.68,5.76,6,5.76,2.24,0,3.84-.24,5.84-.96v6.72c-2.16,.72-5.28,1.12-7.6,1.12-7.92,0-12.16-3.68-12.16-10.8Z"/><path d="M1.59,133.18H23.11c16.72,0,29.6,12.24,29.6,28.08s-12.88,27.92-29.6,27.92H1.59v-56Zm21.44,45.68c9.92,0,17.68-7.68,17.68-17.6s-7.76-17.76-17.68-17.76H13.19v35.36h9.84Z"/><path d="M57.99,168.38c0-12.08,9.44-21.6,21.44-21.6s20.64,9.6,20.64,22.4v2.88h-30.88c1.44,5.12,5.92,8.72,11.68,8.72,3.68,0,7.04-1.2,9.2-3.36l7.2,6.56c-5.12,4.16-10.24,6-16.96,6-12.56,0-22.32-9.44-22.32-21.6Zm31.28-4.16c-1.2-4.96-5.2-8.4-10.08-8.4s-8.96,3.28-10.16,8.4h20.24Z"/><path d="M101.27,147.5h11.92l11.44,27.76,11.36-27.76h11.68l-17.92,41.68h-10.64l-17.84-41.68Z"/><path d="M148.87,168.38c0-12.08,9.44-21.6,21.44-21.6s20.64,9.6,20.64,22.4v2.88h-30.88c1.44,5.12,5.92,8.72,11.68,8.72,3.68,0,7.04-1.2,9.2-3.36l7.2,6.56c-5.12,4.16-10.24,6-16.96,6-12.56,0-22.32-9.44-22.32-21.6Zm31.28-4.16c-1.2-4.96-5.2-8.4-10.08-8.4s-8.96,3.28-10.16,8.4h20.24Z"/><path d="M197.67,133.18l10.96-1.84v57.84h-10.96v-56Z"/><path d="M215.27,168.38c0-12.16,9.76-21.68,22.24-21.68s22.24,9.52,22.24,21.68-9.76,21.6-22.24,21.6-22.24-9.44-22.24-21.6Zm33.84,0c0-6.8-5.12-12.16-11.6-12.16s-11.52,5.36-11.52,12.16,5.04,12.08,11.52,12.08,11.6-5.28,11.6-12.08Z"/><path d="M266.47,147.5h10.8v3.44c3.36-2.64,7.44-4,11.84-4,11.84,0,21.2,9.44,21.2,21.44s-9.44,21.36-21.52,21.36c-4.16,0-8.08-1.12-11.36-3.28v19.04h-10.96v-58Zm33.04,20.88c0-6.88-5.36-12.08-12.16-12.08-4,0-7.52,1.36-9.92,4v16.24c2.4,2.48,6,3.92,9.92,3.92,6.88,0,12.16-5.2,12.16-12.08Z"/><path d="M315.11,168.38c0-12.08,9.44-21.6,21.44-21.6s20.64,9.6,20.64,22.4v2.88h-30.88c1.44,5.12,5.92,8.72,11.68,8.72,3.68,0,7.04-1.2,9.2-3.36l7.2,6.56c-5.12,4.16-10.24,6-16.96,6-12.56,0-22.32-9.44-22.32-21.6Zm31.28-4.16c-1.2-4.96-5.2-8.4-10.08-8.4s-8.96,3.28-10.16,8.4h20.24Z"/><path d="M363.91,147.5h10.96v4.64c2.64-3.6,6.48-5.6,11.12-5.6,2.24,.08,3.44,.32,4.56,.96v9.6c-1.6-.72-3.6-1.12-5.6-1.12-4.32,0-8,2.24-10.08,6.16v27.04h-10.96v-41.68Z"/></g></g></svg>