<svg id="Layer_1" data-name="Layer 1" xmlns="http://www.w3.org/2000/svg" viewBox="0 0 934.65 252.88"><defs><style>.cls-1{fill:#e00;}.cls-2{fill:#232f3e;}.cls-3{fill:#f8991d;}.cls-3,.cls-4{fill-rule:evenodd;}.cls-4{fill:#f90;}</style></defs><title>Logo-Red_Hat-AWS-A-Standard-RGB</title><path d="M473.76,250.88a2.25,2.25,0,0,1-2.25-2.25V4.25a2.25,2.25,0,0,1,4.5,0V248.63A2.25,2.25,0,0,1,473.76,250.88Z"/><path d="M257.13,64a14,14,0,0,1,.32,3.42c0,14.87-18.09,17.48-30.59,17.49-48.64,0-85-30.15-85-39.37a6.12,6.12,0,0,1,.22-1.94l-3.66,9.06A18.49,18.49,0,0,0,137,60c0,18.1,41,45.44,87.76,45.39,20.69,0,36.42-7.79,36.41-21.8,0-1.07,0-1.94-1.74-10.12L257.13,64Z"/><path class="cls-1" d="M259.39,73.5c1.73,8.18,1.73,9,1.74,10.12,0,14-15.72,21.79-36.41,21.8C178,105.47,137,78.13,137,60a18.49,18.49,0,0,1,1.5-7.33c-16.81.88-38.58,3.91-38.56,23.1,0,31.46,74.64,70.19,133.69,70.14,45.27-.05,56.67-20.53,56.65-36.69,0-12.72-11-27.15-30.85-35.75M226.86,85c12.5,0,30.6-2.62,30.59-17.49a14,14,0,0,0-.32-3.42l-7.47-32.35c-1.74-7.11-3.25-10.34-15.75-16.58C224.2,10.16,203.07,2,196.82,2c-5.82,0-7.53,7.55-14.43,7.55C175.71,9.56,170.75,4,164.5,4c-6,0-9.92,4.1-12.92,12.51,0,0-8.39,23.72-9.46,27.16a6.12,6.12,0,0,0-.22,1.94c0,9.22,36.32,39.41,85,39.37"/><path d="M2,249.83H20.08V223H33.85l13.88,26.8H67.91L51.72,220.4A22.27,22.27,0,0,0,65.6,199.69c0-13.25-10.41-23.44-26-23.44H2v73.58ZM38,191.7c6,0,9.36,3.78,9.36,8.3s-3.37,8.31-9.36,8.31H20.08V191.7Zm29.33,30.38c0,16.19,13.24,28.8,30.27,28.8,9.36,0,16.19-2.52,23.23-8.41l-11.24-10c-2.63,2.73-6.52,4.2-11.15,4.2a14.37,14.37,0,0,1-13.66-8.83h39.63v-4.2c0-17.66-11.88-30.38-28.07-30.38a28.56,28.56,0,0,0-29,28.8M96,207.15c5.36,0,9.88,3.47,11.66,8.83H84.41c1.69-5.57,5.89-8.83,11.57-8.83m77.15,42.68H190V172.57l-17,3.68v20.92a28.23,28.23,0,0,0-14.19-3.68c-16.19,0-28.91,12.51-28.91,28.48a28.25,28.25,0,0,0,28.39,28.6,25.1,25.1,0,0,0,14.92-4.84v4.1ZM146.54,222c0-8,6.3-14.08,14.61-14.08a17.19,17.19,0,0,1,11.77,4.31v19.44a16.33,16.33,0,0,1-11.77,4.42c-8.2,0-14.61-6.1-14.61-14.09m68.89,27.86h18.08V221h30.28v28.8h18.08V176.25H263.79v28.27H233.51V176.25H215.43v73.58Zm92.4.95c6,0,10.83-1.26,15.35-4.31v3.36H340V214.19c0-13.56-9.15-21-24.39-21-8.51,0-16.92,2-26,6.1l6.1,12.51c6.51-2.74,12-4.42,16.81-4.42,7.05,0,10.62,2.73,10.62,8.31v2.73a49.4,49.4,0,0,0-12.61-1.58c-14.3,0-22.92,6-22.92,16.72,0,9.77,7.78,17.24,20.18,17.24m-5.19-17.56c0-3.68,3.68-5.46,9.25-5.46A42.51,42.51,0,0,1,322,229v7.14a21.45,21.45,0,0,1-10.62,2.63c-5.46,0-8.72-2.1-8.72-5.57m52.92-.31c0,11.87,7.15,17.66,20.18,17.66a52,52,0,0,0,11.88-1.69V235.11a24.8,24.8,0,0,1-7.68,1.16c-5.36,0-7.35-1.68-7.35-6.73V208.41h15.55V194.22H372.59v-18l-17,3.68v14.29H344.31v14.19h11.25v24.5Z"/><path class="cls-2" d="M874.06,131.09a81.82,81.82,0,0,1-18.87-2.17q-9.23-2.16-14.16-5c-2-1.16-3.25-2.31-3.75-3.47a8.68,8.68,0,0,1-.75-3.47v-6.29q0-3.9,2.79-3.9a6.52,6.52,0,0,1,2.25.43c.78.29,1.82.73,3.11,1.3a64.18,64.18,0,0,0,13.51,4.34,71.49,71.49,0,0,0,14.58,1.52q11.58,0,17.91-4.12A13.19,13.19,0,0,0,897,98.57a12,12,0,0,0-3.32-8.67q-3.33-3.47-12.33-6.51l-17.8-5.63Q850,73.43,843.93,65.18a29.58,29.58,0,0,1-6.11-18,27.72,27.72,0,0,1,3.32-13.76,33.16,33.16,0,0,1,8.79-10.19,38.75,38.75,0,0,1,12.76-6.4,54.1,54.1,0,0,1,15.44-2.17,66.32,66.32,0,0,1,8.26.54q4.18.56,7.93,1.41c2.5.58,4.83,1.23,7,1.95a32.15,32.15,0,0,1,5.15,2.17,11.78,11.78,0,0,1,3.64,3,7,7,0,0,1,1.08,4.12v5.85c0,2.6-.94,3.9-2.79,3.9a12.85,12.85,0,0,1-4.72-1.51,56.46,56.46,0,0,0-23.59-4.77q-10.5,0-16.3,3.47c-3.85,2.31-5.79,6-5.79,11.05a11.82,11.82,0,0,0,3.65,8.78q3.64,3.59,13.51,6.83l17.37,5.64q13.29,4.34,19,11.93a28.22,28.22,0,0,1,5.68,17.34,31.56,31.56,0,0,1-3.22,14.42,32.66,32.66,0,0,1-8.9,11,39.85,39.85,0,0,1-13.61,6.94,60.14,60.14,0,0,1-17.37,2.38Zm-157.4-3.25a7.56,7.56,0,0,1-4.71-1.19c-1-.79-1.86-2.42-2.58-4.88L680.64,25.94a22,22,0,0,1-1.07-5c0-2,1-3,3-3h12q3.42,0,4.82,1.2c.93.79,1.75,2.42,2.47,4.87l20.58,82,19.09-82c.57-2.45,1.35-4.08,2.36-4.87s2.64-1.2,4.93-1.2h9.86q3.43,0,4.93,1.2c1,.79,1.79,2.42,2.36,4.87L785.28,107l21.23-83c.71-2.45,1.53-4.08,2.47-4.87s2.53-1.2,4.82-1.2h11.37c2,0,3,1,3,3A9.62,9.62,0,0,1,828,22.9a25.84,25.84,0,0,1-.85,3l-29.6,95.83q-1.07,3.69-2.57,4.88a7.59,7.59,0,0,1-4.72,1.19h-10.5q-3.44,0-4.94-1.3t-2.35-5L753.33,41.76l-18.87,79.79q-.86,3.69-2.36,5t-4.93,1.3ZM618.24,114.4a39,39,0,0,0,12.65-2.28,26.76,26.76,0,0,0,11.58-7.91,19.66,19.66,0,0,0,4.18-7.92,42.6,42.6,0,0,0,1.18-10.73v-5.2a104.76,104.76,0,0,0-11.26-2.06,89.05,89.05,0,0,0-11.47-.76q-12.23,0-18.23,5t-6,14.31q0,8.67,4.5,13.11t12.87,4.45ZM668,95.53a35.48,35.48,0,0,0,1.39,11.06,57.8,57.8,0,0,0,4,8.89,5.78,5.78,0,0,1,.85,2.82q0,2-2.35,3.69l-7.72,5.2a6.14,6.14,0,0,1-3.22,1.08,5.09,5.09,0,0,1-3.65-1.73,28.17,28.17,0,0,1-4.39-5.75q-1.83-3.14-3.75-7.26-14.37,17.13-36,17.13-15.44,0-24.44-8.89t-9-23.85q0-15.83,11.15-25.48t30-9.64a90.82,90.82,0,0,1,13,1q6.76,1,14.05,2.71v-9.1q0-14.1-5.79-19.84T622.1,31.79a55.93,55.93,0,0,0-13.19,1.63,93.72,93.72,0,0,0-13.19,4.22,33.12,33.12,0,0,1-4.29,1.63,8.52,8.52,0,0,1-1.93.33q-2.57,0-2.57-3.91V29.62a8.08,8.08,0,0,1,.86-4.33,8.8,8.8,0,0,1,3.43-2.61,79.92,79.92,0,0,1,15.44-5.63,74.21,74.21,0,0,1,19.08-2.39q21.87,0,32.06,10.08T668,55.21V95.53Z"/><path class="cls-3" d="M897.23,192.11c-40.34,30.1-98.83,46.11-149.2,46.11-70.58,0-134.15-26.38-182.25-70.3-3.78-3.45-.41-8.16,4.13-5.49C621.81,193,686,211.36,752.27,211.36a359.5,359.5,0,0,0,139.1-28.78c6.82-2.93,12.54,4.54,5.86,9.53Z"/><path class="cls-3" d="M914,172.73c-5.16-6.68-34.11-3.17-47.11-1.59-3.94.47-4.55-3-1-5.53,23.09-16.4,60.93-11.66,65.33-6.17s-1.17,43.9-22.81,62.2c-3.33,2.82-6.49,1.32-5-2.4,4.88-12.3,15.78-39.83,10.61-46.51Z"/><path class="cls-4" d="M897.23,192.11c-40.34,30.1-98.83,46.11-149.2,46.11-70.58,0-134.15-26.38-182.25-70.3-3.78-3.45-.41-8.16,4.13-5.49C621.81,193,686,211.36,752.27,211.36a359.5,359.5,0,0,0,139.1-28.78c6.82-2.93,12.54,4.54,5.86,9.53Z"/><path class="cls-4" d="M914,172.73c-5.16-6.68-34.11-3.17-47.11-1.59-3.94.47-4.55-3-1-5.53,23.09-16.4,60.93-11.66,65.33-6.17s-1.17,43.9-22.81,62.2c-3.33,2.82-6.49,1.32-5-2.4,4.88-12.3,15.78-39.83,10.61-46.51Z"/></svg>