<svg xmlns="http://www.w3.org/2000/svg" xmlns:xlink="http://www.w3.org/1999/xlink" width="202" height="28.493" viewBox="0 0 202 28.493"><defs><clipPath id="a"><rect width="202" height="28.493" fill="none"/></clipPath></defs><g transform="translate(0 0)"><g transform="translate(0 0)" clip-path="url(#a)"><path d="M154.5,28.489a.446.446,0,0,1-.446-.446V.469a.446.446,0,0,1,.893,0v27.58a.446.446,0,0,1-.446.446" transform="translate(-16.555 -0.003)"/><path d="M25.105,16.431c2.473,0,6.051-.51,6.051-3.451a2.774,2.774,0,0,0-.062-.676l-1.473-6.4c-.339-1.408-.638-2.046-3.113-3.282-1.919-.983-6.1-2.6-7.334-2.6-1.15,0-1.492,1.491-2.856,1.491-1.324,0-2.3-1.107-3.536-1.107-1.186,0-1.959.809-2.556,2.471,0,0-1.663,4.689-1.874,5.369A1.3,1.3,0,0,0,8.3,8.63c0,1.823,7.181,7.8,16.8,7.8m6.434-2.257a9.85,9.85,0,0,1,.34,2c0,2.767-3.111,4.3-7.2,4.3-9.261,0-17.35-5.412-17.35-8.991a3.644,3.644,0,0,1,.3-1.449C4.3,10.208,0,10.8,0,14.6c0,6.224,14.745,13.893,26.419,13.893,8.951,0,11.209-4.049,11.209-7.245,0-2.514-2.174-5.369-6.094-7.073" transform="translate(0 -0.003)" fill="#e00"/><path d="M32.418,15.162a9.837,9.837,0,0,1,.342,2c0,2.767-3.111,4.3-7.2,4.3-9.256,0-17.345-5.411-17.345-8.989a3.641,3.641,0,0,1,.3-1.449L9.236,9.24a1.281,1.281,0,0,0-.049.381c0,1.823,7.181,7.8,16.8,7.8,2.473,0,6.051-.51,6.051-3.451a2.774,2.774,0,0,0-.062-.676Z" transform="translate(-0.883 -0.993)"/><path d="M119.87,19.028c0,2.35,1.413,3.493,3.991,3.493a10.293,10.293,0,0,0,2.35-.332V19.468a4.915,4.915,0,0,1-1.517.229c-1.061,0-1.455-.332-1.455-1.331V14.186h3.076V11.379h-3.076V7.821l-3.36.727v2.831h-2.231v2.807h2.224Zm-10.477.063c0-.727.729-1.081,1.831-1.081a8.507,8.507,0,0,1,2,.249v1.413a4.253,4.253,0,0,1-2.1.519c-1.079,0-1.725-.415-1.725-1.1m1.028,3.471a5.149,5.149,0,0,0,3.035-.852v.666h3.325V15.324c0-2.678-1.807-4.151-4.82-4.151a12.264,12.264,0,0,0-5.139,1.206l1.206,2.475a8.968,8.968,0,0,1,3.326-.874c1.383,0,2.1.536,2.1,1.642v.536a9.8,9.8,0,0,0-2.495-.312c-2.828,0-4.532,1.186-4.532,3.307,0,1.933,1.538,3.408,3.991,3.408M92.15,22.375h3.576v-5.7h5.991v5.706h3.57V7.824h-3.57v5.593h-5.98V7.824H92.162ZM78.532,16.86a2.785,2.785,0,0,1,2.78-2.789c.037,0,.073,0,.11,0a3.4,3.4,0,0,1,2.329.854v3.838a3.234,3.234,0,0,1-2.33.882,2.8,2.8,0,0,1-2.888-2.7c0-.028,0-.054,0-.081m5.26,5.51h3.327V7.1l-3.36.727v4.138a5.669,5.669,0,1,0-3.015,10.565h.1a4.963,4.963,0,0,0,2.952-.955ZM68.528,13.929a2.433,2.433,0,0,1,2.307,1.745H66.247a2.291,2.291,0,0,1,2.288-1.746m-5.681,2.96a5.774,5.774,0,0,0,5.846,5.7l.139,0a6.6,6.6,0,0,0,4.6-1.665l-2.226-1.977a2.973,2.973,0,0,1-2.2.832,2.844,2.844,0,0,1-2.7-1.746H74.14V17.2c0-3.493-2.348-6.008-5.551-6.008a5.649,5.649,0,0,0-5.732,5.562v.133m-5.8-6.008a1.655,1.655,0,1,1,0,3.285H53.52V10.88Zm-7.115,11.5H53.52v-5.3h2.722l2.745,5.3h3.991l-3.2-5.822a4.4,4.4,0,0,0,2.744-4.1c0-2.62-2.058-4.636-5.139-4.636H49.95Z" transform="translate(-5.367 -0.763)"/><path d="M213.452,14.846a10.446,10.446,0,0,1-2.4-.277,6.83,6.83,0,0,1-1.8-.636.917.917,0,0,1-.573-.884v-.791c0-.332.119-.5.357-.5a.828.828,0,0,1,.286.054q.15.058.4.166a8.193,8.193,0,0,0,1.72.553,9.2,9.2,0,0,0,1.856.2,4.18,4.18,0,0,0,2.281-.524,1.681,1.681,0,0,0,.8-1.489,1.534,1.534,0,0,0-.423-1.1,4.035,4.035,0,0,0-1.569-.83l-2.268-.714a4.786,4.786,0,0,1-2.5-1.607,3.75,3.75,0,0,1-.777-2.3,3.514,3.514,0,0,1,.423-1.751,4.217,4.217,0,0,1,1.119-1.3,4.969,4.969,0,0,1,1.625-.814,6.964,6.964,0,0,1,1.964-.287,9.018,9.018,0,0,1,1.052.07c.357.047.692.109,1.01.179a9.056,9.056,0,0,1,.893.249,4.024,4.024,0,0,1,.652.275,1.5,1.5,0,0,1,.463.384.9.9,0,0,1,.138.524v.745c0,.33-.12.5-.357.5a1.592,1.592,0,0,1-.594-.2,7.179,7.179,0,0,0-3.012-.6,4.066,4.066,0,0,0-2.074.441,1.517,1.517,0,0,0-.737,1.408,1.5,1.5,0,0,0,.464,1.117,4.574,4.574,0,0,0,1.72.87l2.208.714a4.817,4.817,0,0,1,2.42,1.517,3.592,3.592,0,0,1,.721,2.208,4,4,0,0,1-.409,1.837,4.161,4.161,0,0,1-1.133,1.4,5.088,5.088,0,0,1-1.733.884,7.608,7.608,0,0,1-2.2.3Zm-20.041-.415a.958.958,0,0,1-.593-.15,1.264,1.264,0,0,1-.336-.625l-3.659-12.2a2.708,2.708,0,0,1-.135-.63.336.336,0,0,1,.285-.381.349.349,0,0,1,.1,0H190.6a.943.943,0,0,1,.613.153,1.344,1.344,0,0,1,.316.615l2.62,10.443L196.578,1.21a1.1,1.1,0,0,1,.3-.625A1.02,1.02,0,0,1,197.5.433h1.256a1.006,1.006,0,0,1,.625.153,1.12,1.12,0,0,1,.3.625l2.467,10.572L204.845,1.21a1.316,1.316,0,0,1,.314-.625.959.959,0,0,1,.615-.153h1.448a.336.336,0,0,1,.381.284.372.372,0,0,1,0,.089,1.186,1.186,0,0,1-.021.251,3.139,3.139,0,0,1-.107.381L203.7,13.654a1.227,1.227,0,0,1-.328.625.976.976,0,0,1-.594.153h-1.344a.948.948,0,0,1-.625-.166,1.194,1.194,0,0,1-.3-.636L198.081,3.472l-2.4,10.159a1.2,1.2,0,0,1-.3.636.938.938,0,0,1-.625.166Zm-12.531-1.71a4.981,4.981,0,0,0,1.607-.291,3.409,3.409,0,0,0,1.475-1.009,2.49,2.49,0,0,0,.536-1.009,5.25,5.25,0,0,0,.15-1.366V8.386a13.422,13.422,0,0,0-1.433-.261,11.271,11.271,0,0,0-1.461-.095,3.574,3.574,0,0,0-2.321.636,2.236,2.236,0,0,0-.763,1.821,2.269,2.269,0,0,0,.574,1.67,2.219,2.219,0,0,0,1.639.565Zm6.326-2.4a4.532,4.532,0,0,0,.179,1.409,7.521,7.521,0,0,0,.511,1.131.766.766,0,0,1,.109.357.592.592,0,0,1-.3.47l-.989.662a.78.78,0,0,1-.409.137.647.647,0,0,1-.467-.22,3.686,3.686,0,0,1-.558-.734c-.156-.268-.314-.573-.478-.923a5.744,5.744,0,0,1-4.584,2.174,4.231,4.231,0,0,1-3.111-1.133,4.078,4.078,0,0,1-1.144-3.035,4.077,4.077,0,0,1,1.419-3.243,5.648,5.648,0,0,1,3.838-1.224,11.657,11.657,0,0,1,1.654.129q.864.125,1.785.344V5.465a3.492,3.492,0,0,0-.737-2.526,3.567,3.567,0,0,0-2.55-.735,7.041,7.041,0,0,0-1.678.208,11.68,11.68,0,0,0-1.681.536,4.515,4.515,0,0,1-.545.208,1.155,1.155,0,0,1-.247.042q-.327,0-.327-.5V1.926A1.028,1.028,0,0,1,177,1.374a1.148,1.148,0,0,1,.446-.332,10.232,10.232,0,0,1,1.964-.714A9.516,9.516,0,0,1,181.835.02a5.611,5.611,0,0,1,4.082,1.285,5.249,5.249,0,0,1,1.3,3.878Z" transform="translate(-18.908 0)" fill="#232f3e"/><path d="M216.164,24.871c-5.139,3.833-12.585,5.871-19,5.871a34.158,34.158,0,0,1-23.206-8.951c-.482-.439-.054-1.04.526-.7a46.264,46.264,0,0,0,23.219,6.231,45.761,45.761,0,0,0,17.71-3.665c.868-.374,1.6.579.744,1.214" transform="translate(-18.671 -2.256)" fill="#f90" fill-rule="evenodd"/><path d="M222.89,22.291c-.658-.85-4.348-.4-6-.2-.5.062-.579-.381-.127-.7,2.939-2.088,7.757-1.484,8.318-.791s-.15,5.588-2.9,7.919c-.425.357-.827.168-.639-.306.625-1.566,2.01-5.071,1.352-5.93Z" transform="translate(-23.261 -2.144)" fill="#f90" fill-rule="evenodd"/></g></g></svg>