<svg id="e1f8149c-c672-4184-a257-7b24714815a4" data-name="Layer 1" xmlns="http://www.w3.org/2000/svg" viewBox="0 0 500 500">
  <defs>
    <style>
      .b39ff8d8-1472-45ab-8009-e93c8ac9aedb {
        fill: #e00;
      }
    </style>
  </defs>
  <g>
    <path class="b39ff8d8-1472-45ab-8009-e93c8ac9aedb" d="M251.25,163.44v-24.2c-.41,0-.83,0-1.25,0s-.84,0-1.25,0v24.2c.42,0,.83,0,1.25,0S250.83,163.43,251.25,163.44Z"/>
    <path class="b39ff8d8-1472-45ab-8009-e93c8ac9aedb" d="M227.6,263.31v-2.92L155,304.64c.47.69.9,1.4,1.3,2.13Z"/>
    <path class="b39ff8d8-1472-45ab-8009-e93c8ac9aedb" d="M273,262.25c0,.27,0,.53,0,.79l70.78,43.63c.41-.73.85-1.44,1.32-2.12L273,260.12Z"/>
    <circle class="b39ff8d8-1472-45ab-8009-e93c8ac9aedb" cx="250" cy="115.2" r="14.76"/>
    <circle class="b39ff8d8-1472-45ab-8009-e93c8ac9aedb" cx="364.84" cy="318.22" r="14.76"/>
    <circle class="b39ff8d8-1472-45ab-8009-e93c8ac9aedb" cx="135.16" cy="318.22" r="14.76"/>
    <path class="b39ff8d8-1472-45ab-8009-e93c8ac9aedb" d="M265.48,262.25V242.56a37.5,37.5,0,1,0-30.38.25v64.05a1.25,1.25,0,0,0,.36.88l11.15,11.16a1.28,1.28,0,0,0,.89.36,1.24,1.24,0,0,0,.88-.36l11.15-11.16a1.22,1.22,0,0,0,.37-.88V290.65l10.79-10.79a1.26,1.26,0,0,0,0-1.76l-10.27-10.27,4.69-4.7A1.26,1.26,0,0,0,265.48,262.25ZM250,193.78a4.2,4.2,0,1,1,4.2-4.2A4.2,4.2,0,0,1,250,193.78Z"/>
    <path class="b39ff8d8-1472-45ab-8009-e93c8ac9aedb" d="M159.64,171.88a1.09,1.09,0,1,0-1.09-1.09A1.09,1.09,0,0,0,159.64,171.88Z"/>
    <path class="b39ff8d8-1472-45ab-8009-e93c8ac9aedb" d="M154.21,177.31h0a1.09,1.09,0,0,0,0-2.17h0a1.09,1.09,0,1,0,0,2.17Z"/>
    <path class="b39ff8d8-1472-45ab-8009-e93c8ac9aedb" d="M154.21,166.44h0a1.09,1.09,0,0,0,0-2.17h0a1.09,1.09,0,1,0,0,2.17Z"/>
    <path class="b39ff8d8-1472-45ab-8009-e93c8ac9aedb" d="M159.64,182.74a1.09,1.09,0,1,0-1.09-1.08A1.08,1.08,0,0,0,159.64,182.74Z"/>
    <path class="b39ff8d8-1472-45ab-8009-e93c8ac9aedb" d="M154.21,188.18h0a1.09,1.09,0,0,0,0-2.18h0a1.09,1.09,0,0,0,0,2.18Z"/>
    <path class="b39ff8d8-1472-45ab-8009-e93c8ac9aedb" d="M143.34,177.31a1.09,1.09,0,1,0-1.09-1.09A1.09,1.09,0,0,0,143.34,177.31Z"/>
    <path class="b39ff8d8-1472-45ab-8009-e93c8ac9aedb" d="M148.77,171.88a1.09,1.09,0,1,0-1.08-1.09A1.09,1.09,0,0,0,148.77,171.88Z"/>
    <path class="b39ff8d8-1472-45ab-8009-e93c8ac9aedb" d="M143.34,199a1.09,1.09,0,1,0-1.09-1.08A1.08,1.08,0,0,0,143.34,199Z"/>
    <path class="b39ff8d8-1472-45ab-8009-e93c8ac9aedb" d="M143.34,188.18a1.09,1.09,0,1,0-1.09-1.09A1.09,1.09,0,0,0,143.34,188.18Z"/>
    <path class="b39ff8d8-1472-45ab-8009-e93c8ac9aedb" d="M137.91,193.61a1.09,1.09,0,1,0-1.09-1.09A1.08,1.08,0,0,0,137.91,193.61Z"/>
    <path class="b39ff8d8-1472-45ab-8009-e93c8ac9aedb" d="M148.77,193.61a1.09,1.09,0,1,0,0-2.17,1.09,1.09,0,0,0,0,2.17Z"/>
    <path class="b39ff8d8-1472-45ab-8009-e93c8ac9aedb" d="M137.91,182.74a1.09,1.09,0,1,0-1.09-1.08A1.08,1.08,0,0,0,137.91,182.74Z"/>
    <path class="b39ff8d8-1472-45ab-8009-e93c8ac9aedb" d="M148.77,182.74a1.09,1.09,0,1,0-1.08-1.08A1.08,1.08,0,0,0,148.77,182.74Z"/>
    <path class="b39ff8d8-1472-45ab-8009-e93c8ac9aedb" d="M132.47,196.87h0a1.09,1.09,0,0,0,0,2.17h0a1.09,1.09,0,1,0,0-2.17Z"/>
    <path class="b39ff8d8-1472-45ab-8009-e93c8ac9aedb" d="M132.47,186h0a1.09,1.09,0,0,0,0,2.18h0a1.09,1.09,0,0,0,0-2.18Z"/>
    <path class="b39ff8d8-1472-45ab-8009-e93c8ac9aedb" d="M121.61,196.87a1.09,1.09,0,1,0,1.08,1.09A1.09,1.09,0,0,0,121.61,196.87Z"/>
    <path class="b39ff8d8-1472-45ab-8009-e93c8ac9aedb" d="M127,191.44a1.09,1.09,0,1,0,1.09,1.08A1.08,1.08,0,0,0,127,191.44Z"/>
    <path class="b39ff8d8-1472-45ab-8009-e93c8ac9aedb" d="M133.91,294.19c.41,0,.83,0,1.25,0s.84,0,1.25,0V206.84a30.28,30.28,0,0,0,23.8-13.29l47.1,29c-.39-1.17-.72-2.36-1-3.56l-44.78-27.6a30.19,30.19,0,0,0,.86-27.93l67-35.85a22.09,22.09,0,0,1-1.18-2.2l-67,35.85a30.22,30.22,0,1,0-27.28,45.55Zm-5.8-90.73s0-.05,0-.07A1.09,1.09,0,0,0,127,202.3a1.07,1.07,0,0,0-.92.55,27.76,27.76,0,1,1,27.94-5.95,1.06,1.06,0,0,0-.89.79,27.51,27.51,0,0,1-14.48,6.44,1,1,0,0,0,.3-.74,1.09,1.09,0,1,0-2.17,0,1.07,1.07,0,0,0,.49.89c-.71.05-1.43.09-2.15.09A27.81,27.81,0,0,1,128.11,203.46Z"/>
    <path class="b39ff8d8-1472-45ab-8009-e93c8ac9aedb" d="M274.48,375.12a1.09,1.09,0,1,0-1.09-1.09A1.09,1.09,0,0,0,274.48,375.12Z"/>
    <path class="b39ff8d8-1472-45ab-8009-e93c8ac9aedb" d="M269.05,378.38h0a1.09,1.09,0,1,0,0,2.17h0a1.09,1.09,0,0,0,0-2.17Z"/>
    <path class="b39ff8d8-1472-45ab-8009-e93c8ac9aedb" d="M269.05,367.51a1.09,1.09,0,0,0,0,2.18h0a1.09,1.09,0,0,0,0-2.18Z"/>
    <path class="b39ff8d8-1472-45ab-8009-e93c8ac9aedb" d="M274.48,386a1.09,1.09,0,1,0-1.09-1.09A1.09,1.09,0,0,0,274.48,386Z"/>
    <path class="b39ff8d8-1472-45ab-8009-e93c8ac9aedb" d="M269.05,389.25h0a1.09,1.09,0,1,0,0,2.17h0a1.09,1.09,0,0,0,0-2.17Z"/>
    <path class="b39ff8d8-1472-45ab-8009-e93c8ac9aedb" d="M258.18,378.38a1.09,1.09,0,1,0,1.09,1.09A1.09,1.09,0,0,0,258.18,378.38Z"/>
    <path class="b39ff8d8-1472-45ab-8009-e93c8ac9aedb" d="M263.61,373a1.09,1.09,0,0,0,0,2.17,1.09,1.09,0,1,0,0-2.17Z"/>
    <path class="b39ff8d8-1472-45ab-8009-e93c8ac9aedb" d="M258.18,400.11a1.09,1.09,0,1,0,1.09,1.09A1.09,1.09,0,0,0,258.18,400.11Z"/>
    <path class="b39ff8d8-1472-45ab-8009-e93c8ac9aedb" d="M258.18,389.25a1.09,1.09,0,1,0,1.09,1.08A1.08,1.08,0,0,0,258.18,389.25Z"/>
    <path class="b39ff8d8-1472-45ab-8009-e93c8ac9aedb" d="M252.75,394.68a1.09,1.09,0,1,0,0,2.17,1.09,1.09,0,0,0,0-2.17Z"/>
    <path class="b39ff8d8-1472-45ab-8009-e93c8ac9aedb" d="M263.61,394.68a1.09,1.09,0,1,0,1.09,1.09A1.08,1.08,0,0,0,263.61,394.68Z"/>
    <path class="b39ff8d8-1472-45ab-8009-e93c8ac9aedb" d="M252.75,383.81a1.09,1.09,0,1,0,1.08,1.09A1.09,1.09,0,0,0,252.75,383.81Z"/>
    <path class="b39ff8d8-1472-45ab-8009-e93c8ac9aedb" d="M263.61,383.81a1.09,1.09,0,1,0,1.09,1.09A1.08,1.08,0,0,0,263.61,383.81Z"/>
    <path class="b39ff8d8-1472-45ab-8009-e93c8ac9aedb" d="M247.31,400.11h0a1.09,1.09,0,0,0,0,2.18h0a1.09,1.09,0,1,0,0-2.18Z"/>
    <path class="b39ff8d8-1472-45ab-8009-e93c8ac9aedb" d="M247.31,389.25h0a1.09,1.09,0,0,0,0,2.17h0a1.09,1.09,0,1,0,0-2.17Z"/>
    <path class="b39ff8d8-1472-45ab-8009-e93c8ac9aedb" d="M236.45,400.11a1.09,1.09,0,1,0,1.08,1.09A1.09,1.09,0,0,0,236.45,400.11Z"/>
    <path class="b39ff8d8-1472-45ab-8009-e93c8ac9aedb" d="M241.88,394.68a1.09,1.09,0,1,0,1.09,1.09A1.09,1.09,0,0,0,241.88,394.68Z"/>
    <path class="b39ff8d8-1472-45ab-8009-e93c8ac9aedb" d="M388.58,182.77a1.09,1.09,0,0,0-1.09,1.09h0a1.09,1.09,0,1,0,2.18,0h0A1.09,1.09,0,0,0,388.58,182.77Z"/>
    <path class="b39ff8d8-1472-45ab-8009-e93c8ac9aedb" d="M388.58,174.08a1.09,1.09,0,1,0-1.09-1.09A1.09,1.09,0,0,0,388.58,174.08Z"/>
    <path class="b39ff8d8-1472-45ab-8009-e93c8ac9aedb" d="M383.15,177.34a1.09,1.09,0,1,0,0,2.17,1.09,1.09,0,0,0,0-2.17Z"/>
    <path class="b39ff8d8-1472-45ab-8009-e93c8ac9aedb" d="M383.15,166.47a1.09,1.09,0,1,0,1.08,1.09A1.09,1.09,0,0,0,383.15,166.47Z"/>
    <rect class="b39ff8d8-1472-45ab-8009-e93c8ac9aedb" x="376.63" y="182.77" width="2.17" height="2.17" rx="1.09"/>
    <path class="b39ff8d8-1472-45ab-8009-e93c8ac9aedb" d="M377.71,171.91h0a1.09,1.09,0,0,0,0,2.17h0a1.09,1.09,0,1,0,0-2.17Z"/>
    <path class="b39ff8d8-1472-45ab-8009-e93c8ac9aedb" d="M383.15,188.21a1.09,1.09,0,1,0,1.08,1.08A1.08,1.08,0,0,0,383.15,188.21Z"/>
    <path class="b39ff8d8-1472-45ab-8009-e93c8ac9aedb" d="M377.71,193.64h0a1.09,1.09,0,0,0,0,2.17h0a1.09,1.09,0,1,0,0-2.17Z"/>
    <path class="b39ff8d8-1472-45ab-8009-e93c8ac9aedb" d="M366.85,182.77a1.09,1.09,0,0,0-1.09,1.09h0a1.09,1.09,0,1,0,2.17,0h0A1.08,1.08,0,0,0,366.85,182.77Z"/>
    <path class="b39ff8d8-1472-45ab-8009-e93c8ac9aedb" d="M372.28,177.34a1.09,1.09,0,1,0,1.09,1.09A1.09,1.09,0,0,0,372.28,177.34Z"/>
    <path class="b39ff8d8-1472-45ab-8009-e93c8ac9aedb" d="M366.85,193.64a1.09,1.09,0,1,0,0,2.17,1.09,1.09,0,0,0,0-2.17Z"/>
    <path class="b39ff8d8-1472-45ab-8009-e93c8ac9aedb" d="M361.41,199.07a1.09,1.09,0,1,0,1.09,1.09A1.08,1.08,0,0,0,361.41,199.07Z"/>
    <path class="b39ff8d8-1472-45ab-8009-e93c8ac9aedb" d="M372.28,199.07a1.09,1.09,0,1,0,1.09,1.09A1.09,1.09,0,0,0,372.28,199.07Z"/>
    <path class="b39ff8d8-1472-45ab-8009-e93c8ac9aedb" d="M361.41,188.21a1.09,1.09,0,0,0,0,2.17,1.09,1.09,0,1,0,0-2.17Z"/>
    <path class="b39ff8d8-1472-45ab-8009-e93c8ac9aedb" d="M372.28,188.21a1.09,1.09,0,1,0,1.09,1.08A1.08,1.08,0,0,0,372.28,188.21Z"/>
    <path class="b39ff8d8-1472-45ab-8009-e93c8ac9aedb" d="M356,193.64a1.09,1.09,0,1,0,1.09,1.09A1.09,1.09,0,0,0,356,193.64Z"/>
    <path class="b39ff8d8-1472-45ab-8009-e93c8ac9aedb" d="M350.55,199.07a1.09,1.09,0,1,0,1.08,1.09A1.09,1.09,0,0,0,350.55,199.07Z"/>
    <path class="b39ff8d8-1472-45ab-8009-e93c8ac9aedb" d="M343.07,328.49,276,364.5a30.23,30.23,0,0,0-24.76-14.82V325.91a8.4,8.4,0,0,1-2.5.75v23A30.23,30.23,0,0,0,224,364.5l-67.06-36a23.34,23.34,0,0,1-1.19,2.2l67.06,36a30.23,30.23,0,1,0,54.4,0l67.06-36A23.34,23.34,0,0,1,343.07,328.49Zm-65.34,51.39a27.63,27.63,0,0,1-8.83,20.26,1.07,1.07,0,0,0-.89.8,27.58,27.58,0,0,1-14.48,6.44,1.08,1.08,0,0,0-.78-1.83,1.09,1.09,0,0,0-1.09,1.09,1.07,1.07,0,0,0,.49.88c-.71.05-1.43.09-2.15.09a27.81,27.81,0,0,1-7.05-.91.14.14,0,0,0,0-.06,1.09,1.09,0,0,0-1.09-1.09,1.06,1.06,0,0,0-.92.54,27.73,27.73,0,1,1,36.77-26.21Z"/>
    <path class="b39ff8d8-1472-45ab-8009-e93c8ac9aedb" d="M364.84,147.92A30.26,30.26,0,0,0,339,162.54l-67.28-36.88a21.09,21.09,0,0,1-1.21,2.19l67.29,36.89a30.15,30.15,0,0,0,.65,28.07l-45,27.45c-.34,1.24-.75,2.46-1.19,3.66l47.51-29a30.25,30.25,0,0,0,23.88,13.41v85.84c.41,0,.83,0,1.25,0s.84,0,1.25,0V208.35a30.23,30.23,0,0,0-1.25-60.43ZM383,199.11a1.06,1.06,0,0,0-.84.7,27.61,27.61,0,0,1-14.22,5.9s0-.08,0-.12h0a1.09,1.09,0,0,0-2.17,0h0a1.17,1.17,0,0,0,.05.27l-1,0a27.73,27.73,0,1,1,22.67-43.66,1.08,1.08,0,0,0,.59.87,27.65,27.65,0,0,1-5.13,36Z"/>
  </g>
</svg>
