<svg width="18" height="24" viewBox="0 0 18 24" fill="none" xmlns="http://www.w3.org/2000/svg">
<path d="M3 0C1.34531 0 0 1.34531 0 3V21C0 22.6547 1.34531 24 3 24H15C16.6547 24 18 22.6547 18 21V3C18 1.34531 16.6547 0 15 0H3ZM7.5 15H10.5C12.5719 15 14.25 16.6781 14.25 18.75C14.25 19.1625 13.9125 19.5 13.5 19.5H4.5C4.0875 19.5 3.75 19.1625 3.75 18.75C3.75 16.6781 5.42812 15 7.5 15ZM6 10.5C6 9.70435 6.31607 8.94129 6.87868 8.37868C7.44129 7.81607 8.20435 7.5 9 7.5C9.79565 7.5 10.5587 7.81607 11.1213 8.37868C11.6839 8.94129 12 9.70435 12 10.5C12 11.2956 11.6839 12.0587 11.1213 12.6213C10.5587 13.1839 9.79565 13.5 9 13.5C8.20435 13.5 7.44129 13.1839 6.87868 12.6213C6.31607 12.0587 6 11.2956 6 10.5ZM6.75 3H11.25C11.6625 3 12 3.3375 12 3.75C12 4.1625 11.6625 4.5 11.25 4.5H6.75C6.3375 4.5 6 4.1625 6 3.75C6 3.3375 6.3375 3 6.75 3Z" fill="#0066CC"/>
</svg>
