<svg width="25" height="19" viewBox="0 0 25 19" fill="none" xmlns="http://www.w3.org/2000/svg">
<path d="M23.1424 9.80314C25.3861 7.5594 25.3861 3.92575 23.1424 1.68201C21.1568 -0.303592 18.0275 -0.561721 15.744 1.07045L15.6805 1.11413C15.1086 1.52316 14.9776 2.31741 15.3866 2.88529C15.7957 3.45317 16.5899 3.58819 17.1578 3.17916L17.2213 3.13548C18.4961 2.22607 20.2394 2.36903 21.3434 3.477C22.5944 4.72793 22.5944 6.75325 21.3434 8.00418L16.8877 12.4678C15.6368 13.7187 13.6115 13.7187 12.3606 12.4678C11.2526 11.3598 11.1096 9.61649 12.019 8.3457L12.0627 8.28216C12.4718 7.71031 12.3367 6.91607 11.7689 6.511C11.201 6.10594 10.4028 6.23699 9.9977 6.80487L9.95401 6.86841C8.31787 9.14789 8.576 12.2772 10.5616 14.2628C12.8053 16.5065 16.439 16.5065 18.6827 14.2628L23.1424 9.80314ZM2.508 8.87387C0.264262 11.1176 0.264262 14.7513 2.508 16.995C4.4936 18.9806 7.62291 19.2387 9.90636 17.6066L9.9699 17.5629C10.5418 17.1538 10.6728 16.3596 10.2638 15.7917C9.85473 15.2238 9.06049 15.0888 8.49261 15.4978L8.42907 15.5415C7.15431 16.4509 5.41095 16.308 4.30695 15.2C3.05602 13.9451 3.05602 11.9198 4.30695 10.6689L8.76265 6.20919C10.0136 4.95826 12.0389 4.95826 13.2898 6.20919C14.3978 7.31716 14.5408 9.06052 13.6314 10.3353L13.5877 10.3988C13.1786 10.9707 13.3137 11.7649 13.8815 12.17C14.4494 12.575 15.2476 12.444 15.6527 11.8761L15.6964 11.8126C17.3325 9.52912 17.0744 6.39981 15.0888 4.4142C12.8451 2.17047 9.2114 2.17047 6.96766 4.4142L2.508 8.87387Z" fill="#0066CC"/>
</svg>
