<svg xmlns="http://www.w3.org/2000/svg" viewBox="0 0 38 38">
    <rect width="36" height="36" x="1" y="1" rx="9" ry="9"/>
    <path d="M28 2.25c4.273 0 7.75 3.477 7.75 7.75v18c0 4.273-3.477 7.75-7.75 7.75H10c-4.273 0-7.75-3.477-7.75-7.75V10c0-4.273 3.477-7.75 7.75-7.75zM28 1H10a9 9 0 0 0-9 9v18a9 9 0 0 0 9 9h18a9 9 0 0 0 9-9V10a9 9 0 0 0-9-9" style="fill:#4d4d4d"/>
    <path d="M25.5 22.875a2.12 2.12 0 0 0-2.02 1.5h-1.855V22a.625.625 0 0 0-1.25 0v3c0 .345.28.625.625.625h2.48a2.12 2.12 0 0 0 2.02 1.5c1.172 0 2.125-.953 2.125-2.125s-.953-2.125-2.125-2.125m0 3a.876.876 0 0 1 0-1.75.876.876 0 0 1 0 1.75m-4.5-9.25c.345 0 .625-.28.625-.625v-2.375h1.914a2.13 2.13 0 0 0 1.961 1.308c1.172 0 2.125-.953 2.125-2.125s-.953-2.125-2.125-2.125c-1.024 0-1.88.727-2.08 1.692H21a.625.625 0 0 0-.625.625v3c0 .345.28.625.625.625m4.5-4.692a.876.876 0 0 1 0 1.75.876.876 0 0 1 0-1.75m3.5 4.903h-3a.625.625 0 0 0-.625.625v.914H23a.625.625 0 0 0 0 1.25h2.375v.836c0 .346.28.625.625.625h3c.345 0 .625-.28.625-.625v-3a.625.625 0 0 0-.625-.625m-.625 3h-1.75v-1.75h1.75zm-15.75.625v-.836H15a.625.625 0 0 0 0-1.25h-2.375v-.914a.625.625 0 0 0-.625-.625H9a.625.625 0 0 0-.625.625v3c0 .346.28.625.625.625h3c.345 0 .625-.28.625-.625m-1.25-.625h-1.75v-1.75h1.75zM17 21.375a.625.625 0 0 0-.625.625v2.375H14.52a2.12 2.12 0 0 0-2.02-1.5c-1.172 0-2.125.953-2.125 2.125s.953 2.125 2.125 2.125a2.12 2.12 0 0 0 2.02-1.5H17c.345 0 .625-.28.625-.625v-3a.625.625 0 0 0-.625-.625m-4.5 4.5a.876.876 0 0 1 0-1.75.876.876 0 0 1 0 1.75m4.5-13.5h-2.42a2.13 2.13 0 0 0-2.08-1.692c-1.172 0-2.125.953-2.125 2.125s.953 2.125 2.125 2.125c.882 0 1.64-.541 1.96-1.308h1.915V16a.625.625 0 0 0 1.25 0v-3a.625.625 0 0 0-.625-.625m-4.5 1.308a.876.876 0 0 1 0-1.75.876.876 0 0 1 0 1.75" style="fill:#e00"/>
    <path d="M19 23.125c-2.274 0-4.125-1.85-4.125-4.125s1.85-4.125 4.125-4.125 4.125 1.85 4.125 4.125-1.85 4.125-4.125 4.125m0-7c-1.585 0-2.875 1.29-2.875 2.875s1.29 2.875 2.875 2.875 2.875-1.29 2.875-2.875-1.29-2.875-2.875-2.875" style="fill:#fff"/>
</svg>
