<svg xmlns="http://www.w3.org/2000/svg" viewBox="0 0 38 38">
    <rect width="36" height="36" x="1" y="1" rx="9" ry="9"/>
    <path d="M28 2.25c4.273 0 7.75 3.477 7.75 7.75v18c0 4.273-3.477 7.75-7.75 7.75H10c-4.273 0-7.75-3.477-7.75-7.75V10c0-4.273 3.477-7.75 7.75-7.75zM28 1H10a9 9 0 0 0-9 9v18a9 9 0 0 0 9 9h18a9 9 0 0 0 9-9V10a9 9 0 0 0-9-9" style="fill:#4d4d4d"/>
    <path d="M21.349 18.337a5 5 0 0 1-4.993-4.992 4.95 4.95 0 0 1 2.387-4.26q.202-.123.417-.228a4.998 4.998 0 0 1 7.18 4.488 5 5 0 0 1-4.991 4.992m0-8.734a3.7 3.7 0 0 0-2.244.747 3.72 3.72 0 0 0-1.499 2.995c0 2.063 1.68 3.742 3.743 3.742s3.742-1.679 3.742-3.742-1.679-3.742-3.742-3.742M12.513 24.76a5 5 0 0 1-4.993-4.99 4.95 4.95 0 0 1 2.386-4.26q.202-.123.417-.228a4.998 4.998 0 0 1 7.18 4.488 5 5 0 0 1-4.991 4.992m0-8.734a3.7 3.7 0 0 0-2.245.749 3.71 3.71 0 0 0-1.497 2.994c0 2.063 1.678 3.742 3.742 3.742s3.742-1.679 3.742-3.742-1.679-3.743-3.742-3.743m9.975 13.174a5 5 0 0 1-4.992-4.993c0-1.584.728-3.04 1.996-3.993a4.7 4.7 0 0 1 .81-.495 4.998 4.998 0 0 1 7.179 4.489 5 5 0 0 1-4.993 4.992m0-8.735a3.7 3.7 0 0 0-1.952.55q-.152.092-.293.198a3.72 3.72 0 0 0-1.497 2.994c0 2.064 1.679 3.743 3.742 3.743s3.742-1.679 3.742-3.743-1.678-3.742-3.742-3.742" style="fill:#e00"/>
    <path d="M18.23 29.98c0-.35.28-.63.62-.63a.625.625 0 1 1 0 1.25c-.34 0-.62-.28-.62-.62m-1.48.43a.616.616 0 0 1-.5-.72c.06-.34.39-.57.73-.51.34.07.56.39.5.73a.62.62 0 0 1-.61.51c-.04 0-.08 0-.12-.01m-2.03-.57a.62.62 0 0 1-.36-.8c.12-.32.48-.48.8-.36.33.12.49.48.37.8-.1.25-.34.41-.59.41-.07 0-.15-.02-.22-.05m-1.9-.92a.64.64 0 0 1-.21-.86c.18-.29.57-.39.86-.21.3.18.39.56.21.86a.63.63 0 0 1-.53.3c-.11 0-.23-.03-.33-.09m-1.69-1.26a.62.62 0 0 1-.05-.88.62.62 0 0 1 .88-.05c.26.23.28.62.05.88-.12.14-.3.21-.47.21-.15 0-.3-.05-.41-.16m18.51-6.42a.63.63 0 0 1-.53-.71h.01a.622.622 0 0 1 1.23.19c-.05.31-.31.53-.61.53-.04 0-.07 0-.1-.01m-.42-2.59c-.01-.35.26-.63.61-.65.35 0 .63.27.64.61.01.35-.26.64-.6.64h-.02c-.34 0-.62-.26-.63-.6M29 16.78c-.08-.34.14-.67.48-.74a.625.625 0 0 1 .26 1.22c-.05.01-.09.01-.13.01a.62.62 0 0 1-.61-.49m-.57-1.8h.01c-.14-.32.01-.68.33-.81.32-.14.68.01.82.33a.63.63 0 0 1-.34.82c-.08.03-.16.05-.24.05a.64.64 0 0 1-.58-.39m-.88-1.66a.63.63 0 0 1 .18-.87c.29-.18.68-.1.87.19s.11.67-.18.86a.633.633 0 0 1-.87-.18m-18.26.18a.62.62 0 0 1-.18-.86c.19-.29.57-.37.86-.19.29.19.37.58.19.87a.633.633 0 0 1-.87.18m1.15-1.64a.62.62 0 0 1-.02-.88c.23-.25.63-.26.88-.02s.26.63.02.88h.01a.616.616 0 0 1-.89.02m1.43-1.4a.613.613 0 0 1 .13-.87c.28-.21.67-.15.88.13.2.28.14.67-.14.88v-.01c-.11.09-.24.13-.37.13-.19 0-.38-.09-.5-.26m1.65-1.12a.63.63 0 0 1 .29-.84.63.63 0 0 1 .84.29c.14.31.01.69-.3.84a.63.63 0 0 1-.83-.29m1.83-.81c-.09-.33.1-.68.44-.77.33-.09.67.11.77.44.09.33-.11.68-.44.77-.06.01-.11.02-.17.02-.27 0-.52-.18-.6-.46" style="fill:#fff"/>
</svg>
