<svg viewBox="0 0 38 38">
    <defs>
        <style>
            .red{fill:#e00}
        </style>
    </defs>
    <path d="M28 1H10a9 9 0 0 0-9 9v18a9 9 0 0 0 9 9h18a9 9 0 0 0 9-9V10a9 9 0 0 0-9-9"/>
    <path d="m27.13 11.089-8-1.7a.6.6 0 0 0-.26 0l-8 1.7a.625.625 0 0 0-.495.611v9.356c.125 3.925 2.287 6.949 5.786 8.088.922.3 1.874.444 2.817.444 2.125 0 4.191-.745 5.752-2.083v.715a.625.625 0 0 0 1.25 0v-2.25a.625.625 0 0 0-.625-.626H23.18a.625.625 0 0 0 0 1.25h.692c-1.928 1.626-4.755 2.196-7.324 1.361-3.02-.983-4.814-3.512-4.922-6.918v-8.83L19 10.638l7.375 1.567v8.81a9 9 0 0 1-.327 2.177.625.625 0 0 0 1.201.343q.332-1.162.376-2.5V11.7a.625.625 0 0 0-.495-.611" style="fill:#fff"/>
    <path d="M19 24.687a.6.6 0 0 1-.312-.085l-2-1.154a.62.62 0 0 1-.313-.541v-2.31c0-.223.12-.43.313-.54l2-1.155a.62.62 0 0 1 .625 0l2 1.155a.62.62 0 0 1 .312.54v2.31c0 .223-.12-.43-.312.54l-2 1.155a.6.6 0 0 1-.313.084m-1.375-2.141L19 23.34l1.375-.794v-1.587L19 20.165l-1.375.794z" class="red"/>
    <path d="M23 21.47a.624.624 0 0 1-.236-1.203.98.98 0 0 0 .611-.91.975.975 0 0 0-.879-.968.625.625 0 0 1-.559-.66l.01-.158a2.412 2.412 0 0 0-4.622-.96.63.63 0 0 1-.69.366 1.698 1.698 0 0 0-1.28 3.061.624.624 0 1 1-.712 1.027 2.95 2.95 0 0 1-1.268-2.422c0-1.648 1.358-3 3.017-2.946a3.66 3.66 0 0 1 6.792 1.58 2.22 2.22 0 0 1 1.44 2.08c0 .91-.544 1.723-1.388 2.067a.6.6 0 0 1-.236.047Z" class="red"/>
</svg>
