<svg xmlns="http://www.w3.org/2000/svg" viewBox="0 0 38 38">
    <rect width="36" height="36" x="1" y="1" rx="9" ry="9"/>
    <path d="M28 2.25c4.273 0 7.75 3.477 7.75 7.75v18c0 4.273-3.477 7.75-7.75 7.75H10c-4.273 0-7.75-3.477-7.75-7.75V10c0-4.273 3.477-7.75 7.75-7.75zM28 1H10a9 9 0 0 0-9 9v18a9 9 0 0 0 9 9h18a9 9 0 0 0 9-9V10a9 9 0 0 0-9-9" style="fill:#4d4d4d"/>
    <path d="M21.375 27.938c-1.654 0-3-1.346-3-3v-4.75a.626.626 0 0 1 1.25 0v4.75c0 .964.785 1.75 1.75 1.75s1.75-.786 1.75-1.75v-4.75c0-1.655 1.346-3 3-3s3 1.345 3 3v2.375a.626.626 0 0 1-1.25 0v-2.375c0-.965-.785-1.75-1.75-1.75s-1.75.785-1.75 1.75v4.75c0 1.654-1.346 3-3 3" style="fill:#fff"/>
    <path d="M11.875 20.813c-1.654 0-3-1.346-3-3v-2.375a.626.626 0 0 1 1.25 0v2.374c0 .965.785 1.75 1.75 1.75s1.75-.785 1.75-1.75v-4.75c0-1.654 1.346-3 3-3s3 1.346 3 3v3.563a.626.626 0 0 1-1.25 0v-3.562c0-.965-.785-1.75-1.75-1.75s-1.75.785-1.75 1.75v4.75c0 1.654-1.346 3-3 3" style="fill:#e00"/>
</svg>
