<svg xmlns="http://www.w3.org/2000/svg" viewBox="0 0 38 38">
    <path d="M28 1H10a9 9 0 0 0-9 9v18a9 9 0 0 0 9 9h18a9 9 0 0 0 9-9V10a9 9 0 0 0-9-9" style="fill:#fff"/>
    <path d="M28 2.25c4.273 0 7.75 3.477 7.75 7.75v18c0 4.273-3.477 7.75-7.75 7.75H10c-4.273 0-7.75-3.477-7.75-7.75V10c0-4.273 3.477-7.75 7.75-7.75zM28 1H10a9 9 0 0 0-9 9v18a9 9 0 0 0 9 9h18a9 9 0 0 0 9-9V10a9 9 0 0 0-9-9" style="fill:#e0e0e0"/>
    <path d="M19 18.375h-1.105a3.9 3.9 0 0 0-.697-1.688l.78-.78a.626.626 0 0 0-.885-.885l-.78.78a3.9 3.9 0 0 0-1.688-.697V14a.626.626 0 0 0-1.25 0v1.105c-.624.1-1.197.341-1.688.697l-.78-.78a.626.626 0 0 0-.885.885l.78.78a3.9 3.9 0 0 0-.697 1.688H9a.626.626 0 0 0 0 1.25h1.105c.1.624.341 1.197.697 1.688l-.78.78a.63.63 0 0 0 0 .885.623.623 0 0 0 .885 0l.78-.78a3.9 3.9 0 0 0 1.688.697V24a.626.626 0 0 0 1.25 0v-1.105a3.9 3.9 0 0 0 1.688-.697l.78.78a.623.623 0 0 0 .885 0 .63.63 0 0 0 0-.885l-.78-.78a3.9 3.9 0 0 0 .697-1.688H19a.626.626 0 0 0 0-1.25m-5 3.333c-1.493 0-2.708-1.215-2.708-2.708s1.215-2.708 2.708-2.708 2.708 1.215 2.708 2.708-1.215 2.708-2.708 2.708" style="fill:#e00"/>
    <path d="M29.577 21.24a.6.6 0 0 0 .042-.212c0-.01.006-.018.006-.028s-.005-.018-.006-.028a.6.6 0 0 0-.042-.211c-.02-.048-.054-.087-.085-.128-.018-.025-.028-.053-.05-.075-.027-.028-.062-.041-.093-.062-.036-.025-.068-.055-.108-.072a.6.6 0 0 0-.243-.049h-3.49l2.934-2.933c.022-.022.032-.05.05-.075.03-.04.065-.08.085-.128a.6.6 0 0 0 .042-.211c0-.01.006-.018.006-.028s-.005-.018-.006-.028a.6.6 0 0 0-.042-.211c-.02-.048-.054-.087-.085-.128-.018-.025-.028-.053-.05-.075-.027-.028-.062-.041-.093-.062-.036-.025-.068-.055-.108-.072a.6.6 0 0 0-.243-.049h-3.49l2.934-2.933a.626.626 0 0 0-.885-.885l-4 4A.626.626 0 0 0 23 17.626h3.49l-2.932 2.933A.626.626 0 0 0 24 21.625h3.49l-2.932 2.933a.63.63 0 0 0 0 .884.623.623 0 0 0 .884 0l4-4c.022-.022.032-.05.05-.075.03-.04.064-.08.084-.128"/>
</svg>
