<svg xmlns="http://www.w3.org/2000/svg" id="uuid-cb6aa006-7798-454d-8486-c21375d703b4" viewBox="0 0 38 38">
    <defs>
        <style>
            .uuid-89865283-9ba6-44d8-982f-205e56eeed76{fill:#e00}
        </style>
    </defs>
    <path d="M28 1H10a9 9 0 0 0-9 9v18a9 9 0 0 0 9 9h18a9 9 0 0 0 9-9V10a9 9 0 0 0-9-9" style="fill:#fff"/>
    <path d="M28 2.25c4.273 0 7.75 3.477 7.75 7.75v18c0 4.273-3.477 7.75-7.75 7.75H10c-4.273 0-7.75-3.477-7.75-7.75V10c0-4.273 3.477-7.75 7.75-7.75zM28 1H10a9 9 0 0 0-9 9v18a9 9 0 0 0 9 9h18a9 9 0 0 0 9-9V10a9 9 0 0 0-9-9" style="fill:#e0e0e0"/>
    <path d="M24 13.625H14a.626.626 0 0 1 0-1.25h10a.626.626 0 0 1 0 1.25m-5 8h-5a.626.626 0 0 1 0-1.25h5a.626.626 0 0 1 0 1.25" class="uuid-89865283-9ba6-44d8-982f-205e56eeed76"/>
    <path d="M22 17.625h-8a.626.626 0 0 1 0-1.25h8a.626.626 0 0 1 0 1.25m0 8h-8a.626.626 0 0 1 0-1.25h8a.626.626 0 0 1 0 1.25"/>
    <path d="M27 29.625H11a.626.626 0 0 1-.625-.625V9c0-.345.28-.625.625-.625h16c.345 0 .625.28.625.625v6a.626.626 0 0 1-1.25 0V9.625h-14.75v18.75h14.75V27a.626.626 0 0 1 1.25 0v2c0 .345-.28.625-.625.625"/>
    <path d="M31 20.375h-.771a3.3 3.3 0 0 0-.502-1.217l.544-.544a.626.626 0 0 0-.885-.885l-.544.544a3.3 3.3 0 0 0-1.217-.502V17a.626.626 0 0 0-1.25 0v.771a3.3 3.3 0 0 0-1.217.502l-.544-.544a.626.626 0 0 0-.885.885l.544.544a3.3 3.3 0 0 0-.502 1.217H23a.626.626 0 0 0 0 1.25h.771c.086.443.258.856.502 1.217l-.544.544a.63.63 0 0 0 0 .885.623.623 0 0 0 .885 0l.544-.544c.36.244.774.416 1.217.502V25a.626.626 0 0 0 1.25 0v-.771a3.3 3.3 0 0 0 1.217-.502l.544.544a.623.623 0 0 0 .884 0 .63.63 0 0 0 0-.885l-.543-.544c.244-.36.416.774.502-1.217H31a.626.626 0 0 0 0-1.25m-4 2.667c-1.126 0-2.042-.916-2.042-2.042s.916-2.042 2.042-2.042 2.042.916 2.042 2.042-.916 2.042-2.042 2.042" class="uuid-89865283-9ba6-44d8-982f-205e56eeed76"/>
</svg>
