<svg xmlns="http://www.w3.org/2000/svg" id="uuid-1657764b-6114-40f4-9c63-7462abf08405" viewBox="0 0 38 38">
    <defs>
        <style>
            .uuid-10e45128-ffff-4bf2-9e1c-7938f6809f98{fill:#e00}
        </style>
    </defs>
    <path d="M28 1H10a9 9 0 0 0-9 9v18a9 9 0 0 0 9 9h18a9 9 0 0 0 9-9V10a9 9 0 0 0-9-9" style="fill:#fff"/>
    <path d="M28 2.25c4.273 0 7.75 3.477 7.75 7.75v18c0 4.273-3.477 7.75-7.75 7.75H10c-4.273 0-7.75-3.477-7.75-7.75V10c0-4.273 3.477-7.75 7.75-7.75zM28 1H10a9 9 0 0 0-9 9v18a9 9 0 0 0 9 9h18a9 9 0 0 0 9-9V10a9 9 0 0 0-9-9" style="fill:#e0e0e0"/>
    <path d="M23 18.375h-.771a3.3 3.3 0 0 0-.502-1.217l.544-.544a.626.626 0 0 0-.885-.885l-.544.544a3.3 3.3 0 0 0-1.217-.502V15a.626.626 0 0 0-1.25 0v.771a3.3 3.3 0 0 0-1.217.502l-.544-.544a.626.626 0 0 0-.885.885l.544.544a3.3 3.3 0 0 0-.502 1.217H15a.626.626 0 0 0 0 1.25h.771c.086.443.258.856.502 1.217l-.544.544a.63.63 0 0 0 0 .885.623.623 0 0 0 .885 0l.544-.544c.36.244.774.416 1.217.502V23a.626.626 0 0 0 1.25 0v-.771a3.3 3.3 0 0 0 1.217-.502l.544.544a.623.623 0 0 0 .884 0 .63.63 0 0 0 0-.885l-.543-.544c.244-.36.416-.774.502-1.217H23c.345 0 .625.28.625.625s-.28-.625-.625-.625Zm-4 2.667c-1.126 0-2.042-.916-2.042-2.042s.916-2.042 2.042-2.042 2.042.916 2.042 2.042-.916 2.042-2.042 2.042" class="uuid-10e45128-ffff-4bf2-9e1c-7938f6809f98"/>
    <path d="M13.911 25.8a.62.62 0 0 1-.397-.142 8.62 8.62 0 0 1-2.33-10.305 8.62 8.62 0 0 1 9.395-4.834.625.625 0 1 1-.23 1.229 7.37 7.37 0 0 0-8.032 4.134 7.37 7.37 0 0 0 1.992 8.811.625.625 0 0 1-.398 1.108" class="uuid-10e45128-ffff-4bf2-9e1c-7938f6809f98"/>
    <path d="M19.007 27.629a8.6 8.6 0 0 1-1.586-.148.625.625 0 0 1 .23-1.228 7.37 7.37 0 0 0 8.032-4.135 7.37 7.37 0 0 0-1.992-8.81.624.624 0 1 1 .795-.966 8.62 8.62 0 0 1 2.33 10.305 8.62 8.62 0 0 1-7.81 4.982M27 12.075a.62.62 0 0 1-.454-.196C24.564 9.781 21.885 8.625 19 8.625s-5.564 1.156-7.546 3.254a.624.624 0 1 1-.908-.858C12.766 8.67 15.768 7.375 19 7.375s6.234 1.295 8.454 3.646A.625.625 0 0 1 27 12.075"/>
    <path d="M19 30.625C12.59 30.625 7.375 25.41 7.375 19c0-1.459.267-2.882.793-4.228a.624.624 0 1 1 1.164.456c-.469 1.2-.707 2.47-.707 3.772 0 5.72 4.654 10.375 10.375 10.375a.626.626 0 0 1 0 1.25"/>
    <path d="M23 29.875a.625.625 0 0 1-.228-1.207c1.025-.4 1.976-.959 2.83-1.664A10.35 10.35 0 0 0 29.375 19c0-1.51-.317-2.966-.943-4.328a.626.626 0 0 1 1.136-.522A11.5 11.5 0 0 1 30.625 19c0 3.48-1.541 6.749-4.227 8.968a11.6 11.6 0 0 1-3.17 1.864.6.6 0 0 1-.228.043" class="uuid-10e45128-ffff-4bf2-9e1c-7938f6809f98"/>
</svg>
