<svg xmlns="http://www.w3.org/2000/svg" viewBox="0 0 38 38">
    <path d="M28 1H10a9 9 0 0 0-9 9v18a9 9 0 0 0 9 9h18a9 9 0 0 0 9-9V10a9 9 0 0 0-9-9" style="fill:#fff"/>
    <path d="M28 2.25c4.273 0 7.75 3.477 7.75 7.75v18c0 4.273-3.477 7.75-7.75 7.75H10c-4.273 0-7.75-3.477-7.75-7.75V10c0-4.273 3.477-7.75 7.75-7.75zM28 1H10a9 9 0 0 0-9 9v18a9 9 0 0 0 9 9h18a9 9 0 0 0 9-9V10a9 9 0 0 0-9-9" style="fill:#e0e0e0"/>
    <path d="M27 29.625H11a.626.626 0 0 1-.625-.625V9c0-.345.28-.625.625-.625h16c.345 0 .625.28.625.625v5a.626.626 0 0 1-1.25 0V9.625h-14.75v18.75h14.75V24a.626.626 0 0 1 1.25 0v5c0 .345-.28.625-.625.625"/>
    <path d="M24 14.625H14a.626.626 0 0 1 0-1.25h10a.626.626 0 0 1 0 1.25m0 10H14a.626.626 0 0 1 0-1.25h10a.626.626 0 0 1 0 1.25m-5-5h-5a.626.626 0 0 1 0-1.25h5a.626.626 0 0 1 0 1.25"/>
    <path d="M25 21.625c-.16 0-.32-.06-.442-.183l-2-2a.626.626 0 0 1 .885-.885L25 20.118l4.558-4.56a.626.626 0 0 1 .884.885l-5 5a.62.62 0 0 1-.442.183" style="fill:#e00"/>
</svg>
