<svg viewBox="0 0 38 38">
    <rect width="34.75" height="34.75" x="1.625" y="1.625" rx="8.375"/>
    <path d="M28 2.25A7.76 7.76 0 0 1 35.75 10v18A7.76 7.76 0 0 1 28 35.75H10A7.76 7.76 0 0 1 2.25 28V10A7.76 7.76 0 0 1 10 2.25zM28 1H10a9 9 0 0 0-9 9v18a9 9 0 0 0 9 9h18a9 9 0 0 0 9-9V10a9 9 0 0 0-9-9"/>
    <path fill="#fff" d="M15 23.625a.6.6 0 0 1-.256-.056.625.625 0 0 1-.313-.826l2.02-4.481.009-.018 1.97-4.369a.65.65 0 0 1 1.14 0l4 8.868a.625.625 0 0 1-.945.757l-5.351-4.021-1.704 3.778a.63.63 0 0 1-.57.368m2.801-5.314 3.629 2.727L19 15.653Z"/>
    <path fill="#e00" d="M19 30.125A11.125 11.125 0 1 1 30.125 19 11.137 11.137 0 0 1 19 30.125m0-21A9.875 9.875 0 1 0 28.875 19 9.886 9.886 0 0 0 19 9.125"/>
</svg>
