<svg xmlns="http://www.w3.org/2000/svg" id="uuid-a1116dd9-3b69-4368-b1fa-5bd27a8245be" viewBox="0 0 38 38">
    <defs>
        <style>
            .uuid-51b23653-c745-4942-b656-3c72d0a746fd{fill:#e00}
        </style>
    </defs>
    <path d="M28 1H10a9 9 0 0 0-9 9v18a9 9 0 0 0 9 9h18a9 9 0 0 0 9-9V10a9 9 0 0 0-9-9" style="fill:#fff"/>
    <path d="M28 2.25c4.273 0 7.75 3.477 7.75 7.75v18c0 4.273-3.477 7.75-7.75 7.75H10c-4.273 0-7.75-3.477-7.75-7.75V10c0-4.273 3.477-7.75 7.75-7.75zM28 1H10a9 9 0 0 0-9 9v18a9 9 0 0 0 9 9h18a9 9 0 0 0 9-9V10a9 9 0 0 0-9-9" style="fill:#e0e0e0"/>
    <path d="M28 20.625h-3a.625.625 0 0 1 0-1.25h3a.625.625 0 0 1 0 1.25m-15 0h-3a.625.625 0 0 1 0-1.25h3a.625.625 0 0 1 0 1.25m9-7a.625.625 0 0 1-.625-.625v-2.375h-4.75V13a.625.625 0 0 1-1.25 0v-3c0-.345.28-.625.625-.625h6c.345 0 .625.28.625.625v3c0 .345-.28.625-.625.625"/>
    <path d="M28 27.625H10A.625.625 0 0 1 9.375 27V15c0-.166.065-.325.183-.442l2-2a.63.63 0 0 1 .442-.183h14c.166 0 .325.066.442.183l2 2a.63.63 0 0 1 .183.442v12c0 .345-.28.625-.625.625m-17.375-1.25h16.75V15.259l-1.634-1.634H12.26l-1.634 1.634z" class="uuid-51b23653-c745-4942-b656-3c72d0a746fd"/>
    <path d="M23 19.375h-.771a3.3 3.3 0 0 0-.503-1.217l.545-.545a.626.626 0 0 0-.885-.884l-.544.544a3.3 3.3 0 0 0-1.217-.501V16a.625.625 0 0 0-1.25 0v.772a3.3 3.3 0 0 0-1.217.501l-.544-.544a.626.626 0 0 0-.885.884l.545.545a3.3 3.3 0 0 0-.503 1.217H15a.625.625 0 0 0 0 1.25h.771c.086.443.258.856.503 1.217l-.545.545a.627.627 0 0 0 .443 1.067c.16 0 .32-.061.442-.183l.544-.544c.361.244.774.416 1.217.501V24c0 .345.28.625.625.625s-.625-.28-.625.625v-.772c.443-.085.856.258 1.217-.501l.544.544a.624.624 0 0 0 .884 0 .627.627 0 0 0 0-.884l-.544-.545c.245-.36-.416-.774-.502-1.217h.771a.625.625 0 0 0 0-1.25Zm-4 2.667c-1.126 0-2.042-.917-2.042-2.042s.916-2.041 2.042-2.041 2.042.916 2.042 2.041-.916 2.042-2.042 2.042" class="uuid-51b23653-c745-4942-b656-3c72d0a746fd"/>
</svg>
