<?xml version="1.0" encoding="UTF-8"?>
<svg id="uuid-7bd44790-b558-4fa9-ba8e-c9e352d676d1" xmlns="http://www.w3.org/2000/svg" viewBox="0 0 38 38">
    <defs>
        <style>
            .uuid-b954eb2b-8802-4888-8b54-5448f747bc6f {
                fill: #e00;
            }
            .uuid-8cea4b46-4d50-4bbb-acdf-d3e33b5f5f1b {
                fill: #fff;
            }
            .uuid-994eb27d-d10d-4309-a0ed-62525c5de426 {
                fill: #e0e0e0;
            }
        </style>
    </defs>
    <path class="uuid-8cea4b46-4d50-4bbb-acdf-d3e33b5f5f1b" d="m28,1H10C5.02944,1,1,5.02944,1,10v18c0,4.97057,4.02944,9,9,9h18c4.97056,0,9-4.02943,9-9V10c0-4.97056-4.02944-9-9-9h0Z" />
    <path class="uuid-994eb27d-d10d-4309-a0ed-62525c5de426" d="m28,2.25c4.27332,0,7.75,3.47662,7.75,7.75v18c0,4.27338-3.47668,7.75-7.75,7.75H10c-4.27332,0-7.75-3.47662-7.75-7.75V10c0-4.27338,3.47668-7.75,7.75-7.75h18m0-1.25H10C5.02942,1,1,5.02942,1,10v18c0,4.97058,4.02942,9,9,9h18c4.97058,0,9-4.02942,9-9V10c0-4.97058-4.02942-9-9-9h0Z" />
    <path class="uuid-b954eb2b-8802-4888-8b54-5448f747bc6f" d="m19,18.375h-1.10522c-.1001-.62384-.34106-1.1969-.69727-1.68781l.78003-.77997c.24316-.24414.24316-.64062,0-.88477-.24414-.24414-.64062-.24414-.88477,0l-.78003.77997c-.49084-.3562-1.06384-.59717-1.68774-.6972v-1.10522c0-.34473-.28027-.625-.625-.625s-.625.28027-.625.625v1.10522c-.6239.10004-1.1969.341-1.68774.6972l-.78003-.77997c-.24414-.24414-.64062-.24414-.88477,0-.24316.24414-.24316.64062,0,.88477l.78003.77997c-.3562.49091-.59717,1.06396-.69727,1.68781h-1.10522c-.34473,0-.625.28027-.625.625s.28027.625.625.625h1.10522c.1001.62384.34106,1.1969.69727,1.68781l-.78003.77997c-.24316.24414-.24316.64062,0,.88477.12207.12207.28223.18262.44238.18262s.32031-.06055.44238-.18262l.78003-.77997c.49084.3562,1.06384.59717,1.68774.6972v1.10522c0,.34473.28027.625.625.625s.625-.28027.625-.625v-1.10522c.6239-.10004,1.1969-.341,1.68774-.6972l.78003.77997c.12207.12207.28223.18262.44238.18262s.32031-.06055.44238-.18262c.24316-.24414.24316-.64062,0-.88477l-.78003-.77997c.3562-.49091.59717-1.06396.69727-1.68781h1.10522c.34473,0,.625-.28027.625-.625s-.28027-.625-.625-.625Zm-5,3.33301c-1.49316,0-2.70801-1.21484-2.70801-2.70801s1.21484-2.70801,2.70801-2.70801,2.70801,1.21484,2.70801,2.70801-1.21484,2.70801-2.70801,2.70801Z" />
    <path d="m29.57654,21.23944c.02795-.06769.03955-.13947.04285-.21149.00049-.00983.00562-.01807.00562-.02795s-.00513-.01813-.00562-.02795c-.0033-.07202-.01489-.1438-.04285-.21149-.02002-.04791-.05383-.08667-.08447-.12775-.01807-.02448-.02759-.05304-.04968-.0752-.02759-.02759-.0625-.04065-.09351-.06201-.03564-.0249-.06763-.05487-.10828-.0719-.07776-.03235-.16028-.04907-.24304-.04871h-3.48877l2.93359-2.93262c.02209-.02216.03162-.05072.04968-.0752.03064-.04108.06445-.07983.08447-.12775.02795-.06769.03955-.13947.04285-.21149.00049-.00983.00562-.01807.00562-.02795s-.00513-.01813-.00562-.02795c-.0033-.07202-.01489-.1438-.04285-.21149-.02002-.04791-.05383-.08667-.08447-.12775-.01807-.02448-.02759-.05304-.04968-.0752-.02759-.02759-.0625-.04065-.09351-.06201-.03564-.0249-.06763-.05487-.10828-.0719-.07776-.03235-.16028-.04907-.24304-.04871h-3.48877l2.93359-2.93262c.24316-.24414.24316-.64062,0-.88477-.24414-.24414-.64062-.24414-.88477,0l-4,4c-.17871.17871-.23145.44824-.13477.68164s.32422.38574.57715.38574h3.49023l-2.93262,2.93262c-.17871.17871-.23145.44824-.13477.68164s.32422.38574.57715.38574h3.49023l-2.93262,2.93262c-.24316.24414-.24316.64062,0,.88477.12207.12207.28223.18262.44238.18262s.32031-.06055.44238-.18262l4-4c.02209-.02216.03162-.05072.04968-.0752.03064-.04108.06445-.07983.08447-.12775Z" />
</svg>
