<svg xmlns="http://www.w3.org/2000/svg" viewBox="0 0 38 38">
    <path d="M28 1H10a9 9 0 0 0-9 9v18a9 9 0 0 0 9 9h18a9 9 0 0 0 9-9V10a9 9 0 0 0-9-9" style="fill:#fff"/>
    <path d="M28 2.25c4.273 0 7.75 3.477 7.75 7.75v18c0 4.273-3.477 7.75-7.75 7.75H10c-4.273 0-7.75-3.477-7.75-7.75V10c0-4.273 3.477-7.75 7.75-7.75zM28 1H10a9 9 0 0 0-9 9v18a9 9 0 0 0 9 9h18a9 9 0 0 0 9-9V10a9 9 0 0 0-9-9" style="fill:#e0e0e0"/>
    <path d="M14 14.625h-3a.625.625 0 0 1-.625-.625v-3c0-.345.28-.625.625-.625h3c.345 0 .625.28.625.625v3c0 .345-.28.625-.625.625m-2.375-1.25h1.75v-1.75h-1.75zM27 14.625h-3a.625.625 0 0 1-.625-.625v-3c0-.345.28-.625.625-.625h3c.345 0 .625.28.625.625v3c0 .345-.28.625-.625.625m-2.375-1.25h1.75v-1.75h-1.75zM27 27.625h-3a.625.625 0 0 1-.625-.625v-3c0-.345.28-.625.625-.625h3c.345 0 .625.28.625.625v3c0 .345-.28.625-.625.625m-2.375-1.25h1.75v-1.75h-1.75zM14 27.625h-3a.625.625 0 0 1-.625-.625v-3c0-.345.28-.625.625-.625h3c.345 0 .625.28.625.625v3c0 .345-.28.625-.625.625m-2.375-1.25h1.75v-1.75h-1.75z" style="fill:#e00"/>
    <path d="M21 11.877a.6.6 0 0 1-.155-.02 7.5 7.5 0 0 0-3.69 0 .625.625 0 1 1-.31-1.21c1.4-.36 2.91-.36 4.31 0a.625.625 0 0 1-.155 1.23m-9.748 9.748a.625.625 0 0 1-.606-.47 8.7 8.7 0 0 1 0-4.31.626.626 0 0 1 1.211.31 7.4 7.4 0 0 0 0 3.69.626.626 0 0 1-.605.78m7.748 6c-.73 0-1.455-.091-2.155-.271a.625.625 0 1 1 .31-1.211c1.2.308 2.49.308 3.69 0a.625.625 0 1 1 .31 1.21c-.7.18-1.426.272-2.155.272m7.748-6a.626.626 0 0 1-.605-.78 7.4 7.4 0 0 0 0-3.69.626.626 0 0 1 1.21-.31 8.7 8.7 0 0 1 0 4.31.625.625 0 0 1-.605.47m-4.891.294h-5a2.485 2.485 0 0 1-2.482-2.482 2.485 2.485 0 0 1 2.469-2.482 3.054 3.054 0 0 1 5.622 1.302c.687.292 1.159.97 1.159 1.751 0 .94-.684 1.725-1.58 1.882a.6.6 0 0 1-.188.029m-5-3.714a1.233 1.233 0 0 0 0 2.464h4.857a.66.66 0 0 0 .661-.66.656.656 0 0 0-.59-.651.625.625 0 0 1-.56-.657l.007-.121c0-.995-.81-1.804-1.803-1.804-.718 0-1.367.427-1.655 1.086a.625.625 0 0 1-.689.365 1.2 1.2 0 0 0-.228-.022"/>
</svg>
