<svg xmlns="http://www.w3.org/2000/svg" viewBox="0 0 38 38">
    <path d="M28 1H10a9 9 0 0 0-9 9v18a9 9 0 0 0 9 9h18a9 9 0 0 0 9-9V10a9 9 0 0 0-9-9" style="fill:#fff"/>
    <path d="M28 2.25c4.273 0 7.75 3.477 7.75 7.75v18c0 4.273-3.477 7.75-7.75 7.75H10c-4.273 0-7.75-3.477-7.75-7.75V10c0-4.273 3.477-7.75 7.75-7.75zM28 1H10a9 9 0 0 0-9 9v18a9 9 0 0 0 9 9h18a9 9 0 0 0 9-9V10a9 9 0 0 0-9-9" style="fill:#e0e0e0"/>
    <path d="M28 27.625H10A.625.625 0 0 1 9.375 27v-8c0-.345.28-.625.625-.625h18c.345 0 .625.28.625.625v8c0 .345-.28.625-.625.625m-17.375-1.25h16.75v-6.75h-16.75z" style="fill:#e00"/>
    <path d="M26 17.625a.625.625 0 0 1-.625-.625v-1.375h-12.75V17a.625.625 0 0 1-1.25 0v-2c0-.345.28-.625.625-.625h14c.345 0 .625.28.625.625v2c0 .345-.28.625-.625.625m-2-4a.625.625 0 0 1-.625-.625v-1.375h-8.75V13a.625.625 0 0 1-1.25 0v-2c0-.345.28-.625.625-.625h10c.345 0 .625.28.625.625v2c0 .345-.28.625-.625.625m-10 11a.62.62 0 0 1-.442-.183l-1-1a.626.626 0 0 1 .885-.884l.557.558 1.558-1.558a.626.626 0 0 1 .884.884l-2 2a.62.62 0 0 1-.442.183"/>
    f
    <path d="M25 22.625h-6a.625.625 0 0 1 0-1.25h6a.625.625 0 0 1 0 1.25m-2 2h-4a.625.625 0 0 1 0-1.25h4a.625.625 0 0 1 0 1.25"/>
</svg>
