<svg xmlns="http://www.w3.org/2000/svg" viewBox="0 0 38 38">
    <defs>
        <style>
            .cls-4{stroke-width:0;fill:#e00}
        </style>
    </defs>
    <g id="Bounding_shape">
        <rect width="36" height="36" x="1" y="1" rx="9" ry="9" style="stroke-width:0;fill:#fff"/>
        <path d="M28 2.25c4.27 0 7.75 3.48 7.75 7.75v18c0 4.27-3.48 7.75-7.75 7.75H10c-4.27 0-7.75-3.48-7.75-7.75V10c0-4.27 3.48-7.75 7.75-7.75zM28 1H10a9 9 0 0 0-9 9v18a9 9 0 0 0 9 9h18a9 9 0 0 0 9-9V10a9 9 0 0 0-9-9" style="stroke-width:0;fill:#e0e0e0"/>
    </g>
    <g id="Icons">
        <path d="M17 18.62c-1.72 0-3.12-1.4-3.12-3.12s1.4-3.12 3.12-3.12 3.12 1.4 3.12 3.12-1.4 3.12-3.12 3.12m0-5c-1.03 0-1.88.84-1.88 1.88s.84 1.88 1.88 1.88 1.88-.84 1.88-1.88-.84-1.88-1.88-1.88m6 5c-.34 0-.62-.28-.62-.62v-5c0-.35.28-.62.62-.62s.62.28.62.62v5c0 .35-.28.62-.62.62m-2 7c-1.72 0-3.12-1.4-3.12-3.12s1.4-3.12 3.12-3.12 3.12 1.4 3.12 3.12-1.4 3.12-3.12 3.12m0-5c-1.03 0-1.88.84-1.88 1.88s.84 1.88 1.88 1.88 1.88-.84 1.88-1.88-.84-1.88-1.88-1.88" class="cls-4"/>
        <path d="M11.44 9.56a.54.54 0 0 0-.29-.15c-.02 0-.05-.01-.07-.01a.7.7 0 0 0-.32.03q-.105.045-.18.12s-.01 0-.02.01l-2 2c-.24.24-.24.64 0 .88.12.12.28.18.44.18s.32-.06.44-.18l.93-.93V20c0 .35.28.62.62.62s.62-.28.62-.62v-8.49l.93.93c.24.24.64.24.88 0s.24-.64 0-.88l-2-2Zm18 16a.63.63 0 0 0-.88 0l-.93.93V18c0-.35-.28-.62-.62-.62s-.62.28-.62.62v8.49l-.93-.93a.63.63 0 0 0-.88 0c-.24.24-.24.64 0 .88l2 2c.06.06.13.11.21.14s.16.05.24.05.16-.02.24-.05q.105-.045.18-.12s.01 0 .02-.01l2-2c.24-.24.24-.64 0-.88Z" style="stroke-width:0"/>
        <path d="M15 25.62c-.35 0-.62-.28-.62-.62v-5c0-.35.28-.62.62-.62s.62.28.62.62v5c0 .35-.28.62-.62.62m12-7c-.34 0-.62-.28-.62-.62v-5c0-.35.28-.62.62-.62s.62.28.62.62v5c0 .35-.28.62-.62.62m-16 7c-.35 0-.62-.28-.62-.62v-5c0-.35.28-.62.62-.62s.62.28.62.62v5c0 .35-.28.62-.62.62m9.12-10.12c0-1.72-1.4-3.12-3.12-3.12s-3.12 1.4-3.12 3.12 1.4 3.12 3.12 3.12 3.12-1.4 3.12-3.12M17 17.38c-1.03 0-1.88-.84-1.88-1.88s.84-1.88 1.88-1.88 1.88.84 1.88 1.88-.84 1.88-1.88 1.88m6 1.24c.34 0 .62-.28.62-.62v-5c0-.35-.28-.62-.62-.62s-.62.28-.62.62v5c0 .35.28.62.62.62m-2 .76c-1.72 0-3.12 1.4-3.12 3.12s1.4 3.12 3.12 3.12 3.12-1.4 3.12-3.12-1.4-3.12-3.12-3.12m0 5c-1.03 0-1.88-.84-1.88-1.88s.84-1.88 1.88-1.88 1.88.84 1.88 1.88-.84 1.88-1.88 1.88" class="cls-4"/>
        <path d="M15 19.38c-.35 0-.62.28-.62.62v5c0 .35.28.62.62.62s.62-.28.62-.62v-5c0-.35-.28-.62-.62-.62m12-7c-.34 0-.62.28-.62.62v5c0 .35.28.62.62.62s.62-.28.62-.62v-5c0-.35-.28-.62-.62-.62m-16 7c-.35 0-.62.28-.62.62v5c0 .35.28.62.62.62s.62-.28.62-.62v-5c0-.35-.28-.62-.62-.62" class="cls-4"/>
    </g>
</svg>
