<svg viewBox="0 0 38 38">
    <path d="M27.5.5h-18a9 9 0 0 0-9 9v18a9 9 0 0 0 9 9h18a9 9 0 0 0 9-9v-18a9 9 0 0 0-9-9"/>
    <path fill="#fff" d="M25.51 22.17H12.64c-2.98 0-5.41-2.42-5.41-5.41 0-3.15 2.67-5.7 5.92-5.38a6.86 6.86 0 0 1 6.1-3.7c3.75 0 6.81 3.02 6.88 6.76 1.71.44 2.94 1.98 2.94 3.79 0 1.96-1.45 3.6-3.33 3.89-.06.03-.14.05-.23.05m-12.87-9.56c-2.29 0-4.16 1.86-4.16 4.15s1.86 4.16 4.16 4.16h12.5c1.48 0 2.68-1.2 2.68-2.68a2.66 2.66 0 0 0-2.4-2.65.63.63 0 0 1-.56-.66l.01-.12c.01-.08.01-.17.01-.25 0-3.1-2.52-5.63-5.63-5.63a5.62 5.62 0 0 0-5.16 3.39c-.12.27-.4.42-.69.37-.25-.06-.51-.08-.76-.08"/>
    <path fill="#e00" d="M25.5 23.87c-1.23 0-2.26.85-2.54 2h-1.92c-.23-.94-.97-1.68-1.92-1.92V16l.93.93c.12.12.28.18.44.18s.32-.06.44-.18c.24-.24.24-.64 0-.88l-2-2a.63.63 0 0 0-.88 0l-2 2c-.24.24-.24.64 0 .88s.64.24.88 0l.93-.93v7.95c-.94.23-1.68.97-1.92 1.92h-1.92a2.616 2.616 0 0 0-5.16.62c0 1.44 1.18 2.62 2.62 2.62 1.23 0 2.26-.85 2.54-2h1.92c.28 1.15 1.31 2 2.54 2s2.26-.85 2.54-2h1.92a2.616 2.616 0 0 0 5.16-.62c0-1.44-1.15-2.62-2.6-2.62m-14 4c-.76 0-1.38-.62-1.38-1.38s.62-1.38 1.38-1.38 1.38.62 1.38 1.38-.62 1.38-1.38 1.38m7 0c-.76 0-1.38-.62-1.38-1.38s.62-1.38 1.38-1.38 1.38.62 1.38 1.38-.62 1.38-1.38 1.38m7 0c-.76 0-1.38-.62-1.38-1.38s.62-1.38 1.38-1.38 1.38.62 1.38 1.38-.62 1.38-1.38 1.38"/>
</svg>
