<svg xmlns="http://www.w3.org/2000/svg" id="uuid-64522f25-9291-4a47-8352-e0227b0a2a73" viewBox="0 0 38 38">
    <defs>
        <style>
            .uuid-a5a51e48-58bb-407d-ac6d-d8cb3706e651{fill:#e00}
        </style>
    </defs>
    <path d="M28 1H10a9 9 0 0 0-9 9v18a9 9 0 0 0 9 9h18a9 9 0 0 0 9-9V10a9 9 0 0 0-9-9" style="fill:#fff"/>
    <path d="M28 2.25c4.273 0 7.75 3.477 7.75 7.75v18c0 4.273-3.477 7.75-7.75 7.75H10c-4.273 0-7.75-3.477-7.75-7.75V10c0-4.273 3.477-7.75 7.75-7.75zM28 1H10a9 9 0 0 0-9 9v18a9 9 0 0 0 9 9h18a9 9 0 0 0 9-9V10a9 9 0 0 0-9-9" style="fill:#e0e0e0"/>
    <path d="M13 25.625a.628.628 0 0 1-.442-1.067l12-12a.626.626 0 0 1 .884.884l-12 12a.62.62 0 0 1-.442.183"/>
    <path d="M29 21.625c-.16 0-.32-.06-.442-.183l-12-12a.626.626 0 0 1 .885-.885l12 12a.63.63 0 0 1 0 .885.62.62 0 0 1-.443.183m-8 8c-.16 0-.32-.06-.442-.183l-12-12a.626.626 0 0 1 .885-.885l12 12a.63.63 0 0 1 0 .885.62.62 0 0 1-.443.183" class="uuid-a5a51e48-58bb-407d-ac6d-d8cb3706e651"/>
    <path d="M17 29.625a.628.628 0 0 1-.442-1.067l12-12a.626.626 0 0 1 .884.884l-12 12a.62.62 0 0 1-.442.183m-8-8a.628.628 0 0 1-.442-1.067l12-12a.626.626 0 0 1 .884.884l-12 12a.62.62 0 0 1-.442.183"/>
    <path d="M25 25.625c-.16 0-.32-.06-.442-.183l-12-12a.626.626 0 0 1 .885-.885l12 12a.63.63 0 0 1 0 .885.62.62 0 0 1-.443.183" class="uuid-a5a51e48-58bb-407d-ac6d-d8cb3706e651"/>
    <path d="M18 20.625a.628.628 0 0 1-.442-1.067l2-2a.626.626 0 0 1 .884.884l-2 2a.62.62 0 0 1-.442.183"/>
</svg>
