<svg xmlns="http://www.w3.org/2000/svg" viewBox="0 0 38 38">
    <path d="M28 .9H10a9 9 0 0 0-9 9v18a9 9 0 0 0 9 9h18a9 9 0 0 0 9-9v-18a9 9 0 0 0-9-9" style="fill:#fff"/>
    <path d="M28 2.15c4.273 0 7.75 3.476 7.75 7.75v18c0 4.273-3.477 7.75-7.75 7.75H10c-4.273 0-7.75-3.477-7.75-7.75v-18c0-4.274 3.477-7.75 7.75-7.75zM28 .9H10a9 9 0 0 0-9 9v18a9 9 0 0 0 9 9h18a9 9 0 0 0 9-9v-18a9 9 0 0 0-9-9" style="fill:#e0e0e0"/>
    <path d="M26 27.524H12a.626.626 0 0 1-.625-.625v-14c0-.344.28-.625.625-.625h4.375a.626.626 0 0 1 0 1.25h-3.75v12.75h12.75v-12.75h-3.75a.626.626 0 0 1 0-1.25H26c.345 0 .625.28.625.625v14c0 .345-.28.625-.625.625" style="fill:#e00"/>
    <path d="M19 14.524a.626.626 0 0 1-.625-.625v-5a.626.626 0 0 1 1.25 0v5c0 .345-.28.625-.625.625m-.46 8.133a.625.625 0 0 1-.612-.755l.905-4.265a.625.625 0 1 1 1.223.26l-.907 4.265a.625.625 0 0 1-.61.495m2.967-.268a.628.628 0 0 1-.442-1.067l1.427-1.427-1.428-1.427a.626.626 0 0 1 .885-.885l1.87 1.87a.63.63 0 0 1 0 .884l-1.87 1.869a.62.62 0 0 1-.442.183m-5.012 0c-.16 0-.32-.06-.442-.183l-1.87-1.87a.63.63 0 0 1 0-.884l1.87-1.869a.626.626 0 0 1 .885.885l-1.428 1.427 1.428 1.426a.63.63 0 0 1 0 .885.62.62 0 0 1-.443.183"/>
</svg>
