<svg xmlns="http://www.w3.org/2000/svg" viewBox="0 0 38 38">
    <path d="M28 1H10a9 9 0 0 0-9 9v18a9 9 0 0 0 9 9h18a9 9 0 0 0 9-9V10a9 9 0 0 0-9-9" style="fill:#fff"/>
    <path d="M28 2.25c4.273 0 7.75 3.477 7.75 7.75v18c0 4.273-3.477 7.75-7.75 7.75H10c-4.273 0-7.75-3.477-7.75-7.75V10c0-4.273 3.477-7.75 7.75-7.75zM28 1H10a9 9 0 0 0-9 9v18a9 9 0 0 0 9 9h18a9 9 0 0 0 9-9V10a9 9 0 0 0-9-9" style="fill:#e0e0e0"/>
    <path d="M23 12.375h-.771a3.3 3.3 0 0 0-.502-1.217l.544-.544a.626.626 0 0 0-.885-.885l-.544.544a3.3 3.3 0 0 0-1.217-.502V9a.626.626 0 0 0-1.25 0v.771a3.3 3.3 0 0 0-1.217.502l-.544-.544a.626.626 0 0 0-.885.885l.544.544a3.3 3.3 0 0 0-.502 1.217H15a.626.626 0 0 0 0 1.25h.771c.086.443.258.856.502 1.217l-.544.544a.63.63 0 0 0 0 .885.623.623 0 0 0 .885 0l.544-.544c.36.244.774.416 1.217.502V17a.626.626 0 0 0 1.25 0v-.771a3.3 3.3 0 0 0 1.217-.502l.544.544a.623.623 0 0 0 .884 0 .63.63 0 0 0 0-.885l-.543-.544c.244-.36.416-.774.502-1.217H23a.626.626 0 0 0 0-1.25m-4 2.667c-1.126 0-2.042-.916-2.042-2.042s.916-2.042 2.042-2.042 2.042.916 2.042 2.042-.916 2.042-2.042 2.042m9 13.583h-4a.626.626 0 0 1-.625-.625v-4c0-.345.28-.625.625-.625h4c.345 0 .625.28.625.625v4c0 .345-.28.625-.625.625m-3.375-1.25h2.75v-2.75h-2.75zM21 28.625h-4a.626.626 0 0 1-.625-.625v-4c0-.345.28-.625.625-.625h4c.345 0 .625.28.625.625v4c0 .345-.28.625-.625.625m-3.375-1.25h2.75v-2.75h-2.75zM14 28.625h-4A.626.626 0 0 1 9.375 28v-4c0-.345.28-.625.625-.625h4c.345 0 .625.28.625.625v4c0 .345-.28.625-.625.625m-3.375-1.25h2.75v-2.75h-2.75z" style="fill:#e00"/>
    <path d="M26 20.375h-6.375V19a.626.626 0 0 0-1.25 0v1.375H12a.626.626 0 0 0 0 1.25h14a.626.626 0 0 0 0-1.25"/>
</svg>
