<svg xmlns="http://www.w3.org/2000/svg" id="uuid-2ad24b9f-0d9f-4ddd-8709-09ccacfc8f5d" viewBox="0 0 38 38">
    <defs>
        <style>
            .uuid-c9888a9b-3c63-4d29-9c84-ba6121467206{fill:#e00}.uuid-9f6969eb-8631-4377-96dd-35377bbfd90e{fill:#fff}
        </style>
    </defs>
    <path d="M10 .9a9 9 0 0 0-9 9v18a9 9 0 0 0 9 9h18a9 9 0 0 0 9-9v-18a9 9 0 0 0-9-9z" class="uuid-9f6969eb-8631-4377-96dd-35377bbfd90e"/>
    <path d="M28 2.15c4.273 0 7.75 3.476 7.75 7.75v18c0 4.273-3.477 7.75-7.75 7.75H10c-4.273 0-7.75-3.477-7.75-7.75v-18c0-4.274 3.477-7.75 7.75-7.75zM28 .9H10a9 9 0 0 0-9 9v18a9 9 0 0 0 9 9h18a9 9 0 0 0 9-9v-18a9 9 0 0 0-9-9" style="fill:#e0e0e0"/>
    <path d="M28 25.524H11a.626.626 0 0 1-.625-.625v-4a.626.626 0 0 1 1.25 0v3.375h15.75v-10.75H17a.626.626 0 0 1 0-1.25h11c.345 0 .625.28.625.625v12c0 .345-.28.625-.625.625"/>
    <path d="M25 16.524h-1a.626.626 0 0 1 0-1.25h1a.626.626 0 0 1 0 1.25"/>
    <path d="M21 16.524h-3a.626.626 0 0 1 0-1.25h3a.626.626 0 0 1 0 1.25m4 3h-4a.626.626 0 0 1 0-1.25h4a.626.626 0 0 1 0 1.25" class="uuid-c9888a9b-3c63-4d29-9c84-ba6121467206"/>
    <path d="M18 19.524h-1a.626.626 0 0 1 0-1.25h1a.626.626 0 0 1 0 1.25m7 3h-1a.626.626 0 0 1 0-1.25h1a.626.626 0 0 1 0 1.25"/>
    <path d="M21 22.524h-3a.626.626 0 0 1 0-1.25h3a.626.626 0 0 1 0 1.25" class="uuid-c9888a9b-3c63-4d29-9c84-ba6121467206"/>
    <path d="M15 22.524h-1a.626.626 0 0 1 0-1.25h1a.626.626 0 0 1 0 1.25"/>
    <path d="M12 19.524a.626.626 0 0 1-.625-.625v-8a.626.626 0 0 1 1.25 0v8c0 .345-.28.625-.625.625" class="uuid-c9888a9b-3c63-4d29-9c84-ba6121467206"/>
    <path d="M16 15.524H8a.626.626 0 0 1 0-1.25h8a.626.626 0 0 1 0 1.25" class="uuid-c9888a9b-3c63-4d29-9c84-ba6121467206"/>
    <path d="M14.828 18.353a.62.62 0 0 1-.442-.183l-5.657-5.656a.626.626 0 0 1 .885-.885l5.657 5.656a.63.63 0 0 1 0 .885.62.62 0 0 1-.443.183" class="uuid-c9888a9b-3c63-4d29-9c84-ba6121467206"/>
    <path d="M9.172 18.353a.628.628 0 0 1-.442-1.067l5.656-5.657a.626.626 0 0 1 .885.885L9.614 18.17a.62.62 0 0 1-.442.183" class="uuid-c9888a9b-3c63-4d29-9c84-ba6121467206"/>
    <circle cx="12" cy="14.899" r="2.667" class="uuid-9f6969eb-8631-4377-96dd-35377bbfd90e"/>
    <path d="M12 18.191c-1.815 0-3.292-1.476-3.292-3.292s1.477-3.292 3.292-3.292 3.292 1.477 3.292 3.292-1.477 3.292-3.292 3.292m0-5.334c-1.126 0-2.042.916-2.042 2.042s.916 2.042 2.042 2.042 2.042-.916 2.042-2.042-.916-2.042-2.042-2.042" class="uuid-c9888a9b-3c63-4d29-9c84-ba6121467206"/>
</svg>
