<svg xmlns="http://www.w3.org/2000/svg" viewBox="0 0 38 38">
    <defs>
        <style>
            .c{fill:#e00}.d{fill:#fff}
        </style>
    </defs>
    <g id="a">
        <rect width="36" height="36" x="1" y="1" class="d" rx="9" ry="9"/>
        <path d="M28 2.25c4.27 0 7.75 3.48 7.75 7.75v18c0 4.27-3.48 7.75-7.75 7.75H10c-4.27 0-7.75-3.48-7.75-7.75V10c0-4.27 3.48-7.75 7.75-7.75zM28 1H10a9 9 0 0 0-9 9v18a9 9 0 0 0 9 9h18a9 9 0 0 0 9-9V10a9 9 0 0 0-9-9" style="fill:#e0e0e0"/>
    </g>
    <g id="b">
        <circle cx="19" cy="19" r="7.38" class="d"/>
        <path d="M19 10.38c-4.76 0-8.62 3.87-8.62 8.62s3.87 8.62 8.62 8.62 8.62-3.87 8.62-8.62-3.87-8.62-8.62-8.62m0 16c-4.07 0-7.38-3.31-7.38-7.38s3.31-7.38 7.38-7.38 7.38 3.31 7.38 7.38-3.31 7.38-7.38 7.38" class="c"/>
        <path d="M15.38 16c0-.35.28-.62.62-.62h5.38v-4.75H10.62v10.75h4.75V16Z" class="d"/>
        <path d="M16.62 16.62h10.75v10.75H16.62z" class="d"/>
        <path d="M28 15.38h-5.38V10c0-.35-.28-.62-.62-.62H10c-.35 0-.62.28-.62.62v12c0 .35.28.62.62.62h5.38V28c0 .35.28.62.62.62h12c.34 0 .62-.28.62-.62V16c0-.35-.28-.62-.62-.62m-.62 12H16.63V16.63h10.75zM10.62 10.62h10.75v4.75h-5.38c-.35 0-.62.28-.62.62v5.38h-4.75z"/>
        <path d="M19.88 22 21 23.12v-2.24z" class="d"/>
        <path d="m21 20.88.44-.44c.24-.24.24-.64 0-.88a.63.63 0 0 0-.88 0l-2 2c-.24.24-.24.64 0 .88l2 2c.12.12.28.18.44.18s.32-.06.44-.18c.24-.24.24-.64 0-.88l-.44-.44L19.88 22z" class="c"/>
        <path d="M23 20.88v2.24L24.12 22z" class="d"/>
        <path d="m25.44 21.56-2-2a.63.63 0 0 0-.88 0c-.24.24-.24.64 0 .88l.44.44L24.12 22 23 23.12l-.44.44c-.24.24-.24.64 0 .88.12.12.28.18.44.18s.32-.06.44-.18l2-2c.24-.24.24-.64 0-.88" class="c"/>
    </g>
</svg>
