<svg xmlns="http://www.w3.org/2000/svg" viewBox="0 0 38 38">
    <path d="M28 1H10a9 9 0 0 0-9 9v18a9 9 0 0 0 9 9h18a9 9 0 0 0 9-9V10a9 9 0 0 0-9-9" style="fill:#fff"/>
    <path d="M28 2.25c4.273 0 7.75 3.477 7.75 7.75v18c0 4.273-3.477 7.75-7.75 7.75H10c-4.273 0-7.75-3.477-7.75-7.75V10c0-4.273 3.477-7.75 7.75-7.75zM28 1H10a9 9 0 0 0-9 9v18a9 9 0 0 0 9 9h18a9 9 0 0 0 9-9V10a9 9 0 0 0-9-9" style="fill:#e0e0e0"/>
    <path d="M19 24.625a.63.63 0 0 1-.312-.084l-4.33-2.5a.62.62 0 0 1-.313-.541v-5c0-.224.12-.43.312-.541l4.33-2.5a.63.63 0 0 1 .625 0l4.33 2.5a.62.62 0 0 1 .313.541v5c0 .224-.12.43-.312.541l-4.33 2.5a.63.63 0 0 1-.313.084m-3.705-3.485L19 23.278l3.705-2.138v-4.28L19 14.722l-3.705 2.138zm8.035.36h.01zM27 29.625c-1.447 0-2.625-1.178-2.625-2.625s1.178-2.625 2.625-2.625 2.625 1.178 2.625 2.625-1.178 2.625-2.625 2.625m0-4c-.758 0-1.375.617-1.375 1.375s.617 1.375 1.375 1.375 1.375-.617 1.375-1.375-.617-1.375-1.375-1.375"/>
    <path d="M21.568 30.323a.624.624 0 0 1-.144-1.232c.456-.11.909-.252 1.348-.423a.624.624 0 1 1 .455 1.164c-.493.192-1.001.352-1.512.474a.6.6 0 0 1-.147.017m-2.978.294h-.022a11.6 11.6 0 0 1-3.113-.543.626.626 0 0 1 .38-1.191c.897.287 1.832.45 2.778.484a.626.626 0 0 1-.022 1.25m-5.644-1.805a.6.6 0 0 1-.343-.104 11.7 11.7 0 0 1-2.376-2.081.625.625 0 1 1 .943-.82c.62.713 1.334 1.338 2.122 1.858a.625.625 0 0 1-.346 1.147m-3.887-4.47a.62.62 0 0 1-.565-.358 11.6 11.6 0 0 1-.953-3.013.626.626 0 0 1 .51-.722c.34-.054.664.17.722.51.16.933.446 1.839.85 2.69a.623.623 0 0 1-.564.893m20.932-5.157a.626.626 0 0 1-.625-.601 10.3 10.3 0 0 0-.491-2.775.625.625 0 0 1 1.19-.385c.324 1.002.51 2.049.551 3.111a.627.627 0 0 1-.6.65zm-21.933-.683-.065-.003a.626.626 0 0 1-.558-.686 11.5 11.5 0 0 1 .746-3.072.624.624 0 1 1 1.162.459 10.3 10.3 0 0 0-.664 2.74.626.626 0 0 1-.621.562m20.114-4.955a.62.62 0 0 1-.522-.28 10.4 10.4 0 0 0-1.865-2.117.626.626 0 0 1 .819-.945c.8.693 1.503 1.491 2.087 2.371a.624.624 0 0 1-.52.97m-17.944-.56a.624.624 0 0 1-.498-1.002 11.7 11.7 0 0 1 2.23-2.237.625.625 0 0 1 .758.994 10.4 10.4 0 0 0-1.992 1.997.62.62 0 0 1-.498.248m13.46-3.315a.6.6 0 0 1-.267-.06 10.3 10.3 0 0 0-2.69-.843.625.625 0 1 1 .207-1.233c1.044.176 2.06.494 3.016.945a.625.625 0 0 1-.266 1.19m-8.747-.274a.626.626 0 0 1-.23-1.206 11.5 11.5 0 0 1 3.07-.753c.357-.037.65.214.686.558s-.215.65-.558.687c-.94.096-1.86.322-2.737.67a.6.6 0 0 1-.23.044M29.25 23.625a.624.624 0 0 1-.582-.853c.17-.439.313-.892.423-1.348a.625.625 0 0 1 1.215.29 12 12 0 0 1-.474 1.514.62.62 0 0 1-.582.397" style="fill:#e00"/>
</svg>
