<svg xmlns="http://www.w3.org/2000/svg" width="38" height="38" viewBox="0 0 38 38">
    <rect width="36" height="36" x="1" y="1" fill="#fff" rx="9" ry="9"/>
    <path fill="#e0e0e0" d="M28 2.25c4.27 0 7.75 3.48 7.75 7.75v18c0 4.27-3.48 7.75-7.75 7.75H10c-4.27 0-7.75-3.48-7.75-7.75V10c0-4.27 3.48-7.75 7.75-7.75zM28 1H10a9 9 0 0 0-9 9v18a9 9 0 0 0 9 9h18a9 9 0 0 0 9-9V10a9 9 0 0 0-9-9"/>
    <path d="m20.22 11.9-5.33 5.33c.38.19.69.5.88.88l5.33-5.33c-.38-.19-.69-.5-.88-.88M12 18.38H9c-.34 0-.62.28-.62.62s.28.62.62.62h3s.07-.01.1-.02c-.06-.19-.1-.39-.1-.6s.04-.41.1-.6c-.03 0-.07-.02-.1-.02m12-6.76h4c.34 0 .62-.28.62-.62s-.28-.62-.62-.62h-4s-.07.01-.1.02c.06.19.1.39.1.6s-.04.41-.1.6c.03 0 .07.02.1.02m4 14.76h-4s-.07.01-.1.02c.06.19.1.39.1.6s-.04.41-.1.6c.03 0 .07.02.1.02h4c.34 0 .62-.28.62-.62s-.28-.62-.62-.62m0-8h-4s-.07.01-.1.02c.06.19.1.39.1.6s-.04.41-.1.6c.03 0 .07.02.1.02h4c.34 0 .62-.28.62-.62s-.28-.62-.62-.62"/>
    <path fill="#e00" d="M22 24.38c-1.45 0-2.62 1.18-2.62 2.62s1.18 2.62 2.62 2.62 2.62-1.18 2.62-2.62-1.18-2.62-2.62-2.62m0 4c-.76 0-1.38-.62-1.38-1.38s.62-1.38 1.38-1.38 1.38.62 1.38 1.38-.62 1.38-1.38 1.38m0-14.76c1.45 0 2.62-1.18 2.62-2.62S23.44 8.38 22 8.38 19.38 9.56 19.38 11s1.18 2.62 2.62 2.62m0-4c.76 0 1.38.62 1.38 1.38s-.62 1.38-1.38 1.38-1.38-.62-1.38-1.38.62-1.38 1.38-1.38m-8 6.76c-1.45 0-2.62 1.18-2.62 2.62s1.18 2.62 2.62 2.62 2.62-1.18 2.62-2.62-1.18-2.62-2.62-2.62m0 4c-.76 0-1.38-.62-1.38-1.38s.62-1.38 1.38-1.38 1.38.62 1.38 1.38-.62 1.38-1.38 1.38m8-4c-1.45 0-2.62 1.18-2.62 2.62s1.18 2.62 2.62 2.62 2.62-1.18 2.62-2.62-1.18-2.62-2.62-2.62m0 4c-.76 0-1.38-.62-1.38-1.38s.62-1.38 1.38-1.38 1.38.62 1.38 1.38-.62 1.38-1.38 1.38"/>
</svg>
