<svg xmlns="http://www.w3.org/2000/svg" width="38" height="38" viewBox="0 0 38 38">
    <rect width="36" height="36" x="1" y="1" fill="#fff" rx="9" ry="9"/>
    <path fill="#e0e0e0" d="M28 2.25c4.273 0 7.75 3.477 7.75 7.75v18c0 4.273-3.477 7.75-7.75 7.75H10c-4.273 0-7.75-3.477-7.75-7.75V10c0-4.273 3.477-7.75 7.75-7.75zM28 1H10a9 9 0 0 0-9 9v18a9 9 0 0 0 9 9h18a9 9 0 0 0 9-9V10a9 9 0 0 0-9-9"/>
    <path fill="#e00" d="m19.442 12.558-1-1a.63.63 0 0 0-.442-.183h-2.458a2.624 2.624 0 0 0-2.542-2c-1.447 0-2.625 1.178-2.625 2.625s1.178 2.625 2.625 2.625c1.23 0 2.26-.855 2.542-2h2.2l.816.817a.624.624 0 0 0 .884 0 .627.627 0 0 0 0-.884M13 13.375c-.758 0-1.375-.617-1.375-1.375s.617-1.375 1.375-1.375 1.375.617 1.375 1.375-.617 1.375-1.375 1.375m6.442 11.183a.626.626 0 0 0-.884 0l-.817.817h-2.2a2.624 2.624 0 0 0-2.541-2c-1.447 0-2.625 1.178-2.625 2.625s1.178 2.625 2.625 2.625c1.23 0 2.26-.855 2.541-2H18a.63.63 0 0 0 .442-.183l1-1a.627.627 0 0 0 0-.884M13 27.375c-.758 0-1.375-.617-1.375-1.375s.617-1.375 1.375-1.375 1.375.617 1.375 1.375-.617 1.375-1.375 1.375"/>
    <path d="M16 18.375h-2.375V17a.625.625 0 0 0-.625-.625H9a.625.625 0 0 0-.625.625v4c0 .345.28.625.625.625h4c.345 0 .625-.28.625-.625v-1.375H16a.625.625 0 0 0 0-1.25m-3.625 2h-2.75v-2.75h2.75zm17.067 5.183-3.773-3.774A4.58 4.58 0 0 0 26.625 19c0-2.55-2.075-4.625-4.625-4.625S17.375 16.45 17.375 19 19.45 23.625 22 23.625a4.58 4.58 0 0 0 2.784-.956l3.774 3.773a.624.624 0 0 0 .884 0 .627.627 0 0 0 0-.884M18.625 19c0-1.86 1.514-3.375 3.375-3.375s3.375 1.514 3.375 3.375-1.514 3.375-3.375 3.375-3.375-1.514-3.375-3.375"/>
</svg>
