<svg xmlns="http://www.w3.org/2000/svg" id="uuid-606e7993-15b1-4ba9-9bd6-1955f466b4ab" viewBox="0 0 38 38">
    <defs>
        <style>
            .uuid-85a22aac-eda4-43e5-bdd2-6fd2e983c268{fill:#151515}
        </style>
    </defs>
    <path d="M28 1H10a9 9 0 0 0-9 9v18a9 9 0 0 0 9 9h18a9 9 0 0 0 9-9V10a9 9 0 0 0-9-9" style="fill:#fff"/>
    <path d="M28 2.25c4.273 0 7.75 3.477 7.75 7.75v18c0 4.273-3.477 7.75-7.75 7.75H10c-4.273 0-7.75-3.477-7.75-7.75V10c0-4.273 3.477-7.75 7.75-7.75zM28 1H10a9 9 0 0 0-9 9v18a9 9 0 0 0 9 9h18a9 9 0 0 0 9-9V10a9 9 0 0 0-9-9" style="fill:#e0e0e0"/>
    <path d="M15 13.625h-4a.625.625 0 0 1-.442-1.067l4-4A.627.627 0 0 1 15.625 9v4c0 .345-.28.625-.625.625m-2.491-1.25h1.866v-1.866z"/>
    <path d="M27 8.375H15a.6.6 0 0 0-.242.049c-.027.011-.047.033-.072.048-.045.027-.092.049-.128.086l-4 4c-.037.037-.06.083-.086.128-.015.025-.037.045-.048.072a.6.6 0 0 0-.049.242v10a.626.626 0 0 0 1.25 0v-9.375H15c.345 0 .625-.28.625-.625V9.625h10.75V22.91a.626.626 0 0 0 1.25 0V9A.626.626 0 0 0 27 8.375m-14.491 4 1.866-1.866v1.866zm14.491 14a.626.626 0 0 0-.625.625v1.375h-14.73l-.02-1.384c-.005-.345-.26-.637-.634-.616a.626.626 0 0 0-.616.634l.028 2a.625.625 0 0 0 .625.616H27c.345 0 .625-.28.625-.625v-2a.626.626 0 0 0-.625-.625" class="uuid-85a22aac-eda4-43e5-bdd2-6fd2e983c268"/>
    <path d="M29 24.375H9a.626.626 0 0 0 0 1.25h20a.626.626 0 0 0 0-1.25m-14.442-1.933a.623.623 0 0 0 .884 0l2-2a.626.626 0 0 0-.885-.885L15 21.118l-.558-.56a.626.626 0 0 0-.884.885zm0-5a.623.623 0 0 0 .884 0l2-2a.626.626 0 0 0-.885-.885L15 16.118l-.558-.56a.626.626 0 0 0-.884.885z" style="fill:#e00"/>
    <path d="M24 21.625h-4a.626.626 0 0 1 0-1.25h4a.626.626 0 0 1 0 1.25m0-5h-4a.626.626 0 0 1 0-1.25h4a.626.626 0 0 1 0 1.25" class="uuid-85a22aac-eda4-43e5-bdd2-6fd2e983c268"/>
</svg>
