<svg xmlns="http://www.w3.org/2000/svg" viewBox="0 0 38 38">
    <path d="M28 1H10a9 9 0 0 0-9 9v18a9 9 0 0 0 9 9h18a9 9 0 0 0 9-9V10a9 9 0 0 0-9-9" style="fill:#fff"/>
    <path d="M28 2.25c4.273 0 7.75 3.477 7.75 7.75v18c0 4.273-3.477 7.75-7.75 7.75H10c-4.273 0-7.75-3.477-7.75-7.75V10c0-4.273 3.477-7.75 7.75-7.75zM28 1H10a9 9 0 0 0-9 9v18a9 9 0 0 0 9 9h18a9 9 0 0 0 9-9V10a9 9 0 0 0-9-9" style="fill:#e0e0e0"/>
    <path d="M28.856 21.375a.626.626 0 0 0-.625.625v.639l-.553.32a.624.624 0 1 0 .625 1.082l.866-.5A.62.62 0 0 0 29.48 23v-1a.626.626 0 0 0-.625-.625m.001-3.601a.626.626 0 0 0-.625.625v1.2a.626.626 0 0 0 1.25 0v-1.2a.626.626 0 0 0-.625-.625m.313-3.315-.866-.5a.624.624 0 1 0-.625 1.082l.553.32V16a.626.626 0 0 0 1.25 0v-1a.62.62 0 0 0-.312-.541m-2.944-1.7-1.04-.6a.625.625 0 0 0-.624 1.081l1.039.6a.625.625 0 1 0 .625-1.081m-4.85-.718.553-.32.553.32a.625.625 0 1 0 .625-1.082l-.866-.5a.62.62 0 0 0-.625 0l-.865.5a.625.625 0 1 0 .625 1.082m1.106 13.918-.553.32-.553-.32a.625.625 0 0 0-.625 1.082l.865.5a.63.63 0 0 0 .625 0l.866-.5a.624.624 0 1 0-.625-1.082m3.119-1.801-1.04.6a.625.625 0 1 0 .626 1.083l1.039-.6a.625.625 0 1 0-.625-1.083m-2.287-9.699-6.928-4a.62.62 0 0 0-.625 0l-6.929 4A.62.62 0 0 0 8.52 15v8c0 .224.119.43.312.541l6.929 4a.63.63 0 0 0 .625 0l6.927-4a.62.62 0 0 0 .313-.541v-8c0-.224-.12-.43-.312-.541m-.938 8.18-6.303 3.64-6.303-3.64V15.36l6.303-3.64 6.303 3.64z"/>
    <path d="M18.559 17.91a.63.63 0 0 0-.525-.285h-.962V14.5a.625.625 0 0 0-1.196-.254l-2.338 5.25a.626.626 0 0 0 .571.879h.963V23.5a.625.625 0 0 0 1.197.254l2.336-5.25a.63.63 0 0 0-.046-.595" style="fill:#e00"/>
</svg>
