<svg viewBox="0 0 38 38">
    <rect width="36" height="36" x="1" y="1" rx="9" ry="9"/>
    <path fill="#4d4d4d" d="M28 2.25c4.273 0 7.75 3.477 7.75 7.75v18c0 4.273-3.477 7.75-7.75 7.75H10c-4.273 0-7.75-3.477-7.75-7.75V10c0-4.273 3.477-7.75 7.75-7.75zM28 1H10a9 9 0 0 0-9 9v18a9 9 0 0 0 9 9h18a9 9 0 0 0 9-9V10a9 9 0 0 0-9-9"/>
    <path fill="#fff" d="m28.014 26.162-4.312-10.34v-4.197h.875a.626.626 0 0 0 0-1.25h-1.5a.626.626 0 0 0-.625.625v4.947c0 .017.009.032.01.048a.6.6 0 0 0 .038.192l2.163 5.188h-4.107a.626.626 0 0 0 0 1.25h4.629l1.672 4.012q.095.235.095.488c0 .69-.56 1.25-1.25 1.25h-9.75c-.69 0-1.25-.56-1.25-1.25 0-.17.031-.334.092-.482l1.018-2.44a.625.625 0 1 0-1.155-.481l-1.02 2.446a2.5 2.5 0 0 0-.185.957c0 1.379 1.121 2.5 2.5 2.5h9.75c1.38 0 2.5-1.121 2.5-2.5q0-.495-.188-.963M17.077 11.625h.875v4.322a.626.626 0 0 0 1.25 0V11a.626.626 0 0 0-.625-.625h-1.5a.626.626 0 0 0 0 1.25"/>
    <path fill="#e00" d="M14.77 16.572c-1.335 0-2.422-1.087-2.422-2.422s1.087-2.42 2.422-2.42a2.422 2.422 0 0 1 0 4.842m0-3.592a1.173 1.173 0 0 0 0 2.342 1.173 1.173 0 0 0 0-2.342m-3.797 3.592a.626.626 0 0 1-.625-.625v-3.592a.626.626 0 0 1 1.25 0v3.592c0 .345-.28.625-.625.625m1.247 6.053c-1.335 0-2.422-1.087-2.422-2.422s1.087-2.42 2.422-2.42a2.422 2.422 0 0 1 0 4.842m0-3.593a1.173 1.173 0 0 0 0 2.343 1.173 1.173 0 0 0 0-2.343m6.345 3.593A.626.626 0 0 1 17.94 22v-3.593a.626.626 0 0 1 1.25 0V22c0 .345-.28.625-.625.625m-2.272 0a.626.626 0 0 1-.625-.625v-3.593a.626.626 0 0 1 1.25 0V22c0 .345-.28.625-.625.625"/>
</svg>
