<svg xmlns="http://www.w3.org/2000/svg" viewBox="0 0 38 38">
    <path d="M10 1a9 9 0 0 0-9 9v18a9 9 0 0 0 9 9h18a9 9 0 0 0 9-9V10a9 9 0 0 0-9-9z" style="fill:#fff"/>
    <path d="M28 2.25c4.273 0 7.75 3.477 7.75 7.75v18c0 4.273-3.477 7.75-7.75 7.75H10c-4.273 0-7.75-3.477-7.75-7.75V10c0-4.273 3.477-7.75 7.75-7.75zM28 1H10a9 9 0 0 0-9 9v18a9 9 0 0 0 9 9h18a9 9 0 0 0 9-9V10a9 9 0 0 0-9-9" style="fill:#e0e0e0"/>
    <path d="M19 29.625c-4.776 0-8.663-3.887-8.663-8.663v-9.253c0-.295.206-.55.495-.611l8.038-1.71a.7.7 0 0 1 .26 0l8.038 1.71a.624.624 0 0 1 .495.611v9.253a8.7 8.7 0 0 1-.281 2.196.624.624 0 1 1-1.21-.316c.16-.609.241-1.24.241-1.88v-8.747L19 10.639l-7.413 1.576v8.747c0 4.088 3.325 7.413 7.413 7.413a7.33 7.33 0 0 0 4.611-1.608.624.624 0 1 1 .778.978A8.7 8.7 0 0 1 19 29.625"/>
    <path d="m26.442 25.558-3.773-3.774A4.58 4.58 0 0 0 23.625 19c0-2.55-2.075-4.625-4.625-4.625S14.375 16.45 14.375 19 16.45 23.625 19 23.625a4.58 4.58 0 0 0 2.784-.956l3.774 3.773a.623.623 0 0 0 .884 0 .63.63 0 0 0 0-.884M15.625 19c0-1.861 1.514-3.375 3.375-3.375s3.375 1.514 3.375 3.375-1.514 3.375-3.375 3.375-3.375-1.514-3.375-3.375" style="fill:#ed0000"/>
</svg>
