<svg xmlns="http://www.w3.org/2000/svg" width="38" height="38" viewBox="0 0 38 38">
    <rect width="36" height="36" x="1" y="1" rx="9" ry="9"/>
    <path fill="#4d4d4d" d="M28 2.25c4.273 0 7.75 3.477 7.75 7.75v18c0 4.273-3.477 7.75-7.75 7.75H10c-4.273 0-7.75-3.477-7.75-7.75V10c0-4.273 3.477-7.75 7.75-7.75zM28 1H10a9 9 0 0 0-9 9v18a9 9 0 0 0 9 9h18a9 9 0 0 0 9-9V10a9 9 0 0 0-9-9"/>
    <path fill="#e00" d="m26.442 25.558-3.773-3.774A4.58 4.58 0 0 0 23.625 19 4.63 4.63 0 0 0 19 14.375c-2.55 0-4.625 2.075-4.625 4.625S16.45 23.625 19 23.625a4.58 4.58 0 0 0 2.784-.956l3.774 3.773a.624.624 0 0 0 .884 0 .627.627 0 0 0 0-.884M15.625 19A3.38 3.38 0 0 1 19 15.625c1.861 0 3.375 1.514 3.375 3.375S20.861 22.375 19 22.375A3.38 3.38 0 0 1 15.625 19"/>
    <path fill="#fff" d="M27 13.625c1.447 0 2.625-1.178 2.625-2.625S28.447 8.375 27 8.375 24.375 9.553 24.375 11c0 .497.147.957.387 1.353l-1.204 1.205a.625.625 0 0 0 .884.884l1.204-1.205c.397.241.857.388 1.354.388m0-4c.758 0 1.375.617 1.375 1.375s-.617 1.375-1.375 1.375a1.37 1.37 0 0 1-.97-.402l-.002-.002-.002-.002a1.37 1.37 0 0 1-.401-.969c0-.758.617-1.375 1.375-1.375m-8-1.25c-1.172 0-2.125.953-2.125 2.125s.953 2.125 2.125 2.125 2.125-.953 2.125-2.125S20.172 8.375 19 8.375m0 3a.876.876 0 0 1 0-1.75.876.876 0 0 1 0 1.75m0 14c-1.172 0-2.125.953-2.125 2.125s.953 2.125 2.125 2.125 2.125-.953 2.125-2.125-.953-2.125-2.125-2.125m0 3a.876.876 0 0 1 0-1.75.876.876 0 0 1 0 1.75m8.5-11.5c-1.172 0-2.125.953-2.125 2.125s.953 2.125 2.125 2.125 2.125-.953 2.125-2.125-.953-2.125-2.125-2.125m0 3a.876.876 0 0 1 0-1.75.876.876 0 0 1 0 1.75M12.625 19c0-1.172-.953-2.125-2.125-2.125S8.375 17.828 8.375 19s.953 2.125 2.125 2.125 2.125-.953 2.125-2.125m-3 0a.876.876 0 0 1 1.75 0 .876.876 0 0 1-1.75 0m3.612-6.646c.241-.397.388-.857.388-1.354 0-1.447-1.178-2.625-2.625-2.625S8.375 9.553 8.375 11 9.553 13.625 11 13.625c.497 0 .957-.147 1.354-.388l1.204 1.205a.623.623 0 0 0 .884 0 .625.625 0 0 0 0-.884zM9.625 11c0-.758.617-1.375 1.375-1.375a1.377 1.377 0 0 1 .974 2.345l-.003.001q0 .002-.002.003A1.376 1.376 0 0 1 9.625 11m3.933 12.558-1.204 1.205A2.6 2.6 0 0 0 11 24.375c-1.447 0-2.625 1.178-2.625 2.625S9.553 29.625 11 29.625s2.625-1.178 2.625-2.625c0-.497-.147-.957-.388-1.354l1.205-1.204a.625.625 0 1 0-.884-.884M11 28.375A1.377 1.377 0 0 1 9.625 27a1.377 1.377 0 0 1 2.346-.972h.001A1.376 1.376 0 0 1 11 28.375"/>
</svg>
