<svg xmlns="http://www.w3.org/2000/svg" width="38" height="38" viewBox="0 0 38 38">
    <rect width="36" height="36" x="1" y="1" rx="9" ry="9"/>
    <path fill="#4d4d4d" d="M28 2.25c4.27 0 7.75 3.48 7.75 7.75v18c0 4.27-3.48 7.75-7.75 7.75H10c-4.27 0-7.75-3.48-7.75-7.75V10c0-4.27 3.48-7.75 7.75-7.75zM28 1H10a9 9 0 0 0-9 9v18a9 9 0 0 0 9 9h18a9 9 0 0 0 9-9V10a9 9 0 0 0-9-9"/>
    <path fill="#fff" d="M23.75 22.62H23c-.34 0-.62-.28-.62-.62s.28-.62.62-.62h.75c.9 0 1.62-.73 1.62-1.62a1.6 1.6 0 0 0-1.45-1.6.635.635 0 0 1-.56-.66c0-.12.01-.17.01-.23 0-2-1.63-3.62-3.62-3.62-1.44 0-2.75.86-3.32 2.18-.12.27-.4.42-.69.37-.16-.03-.32-.05-.49-.05-1.45 0-2.62 1.18-2.62 2.62 0 1.36 1.06 2.51 2.42 2.62.34.03.6.33.58.67-.03.34-.33.61-.67.58a3.887 3.887 0 0 1-3.58-3.86c0-2.14 1.74-3.88 3.88-3.88h.24a4.87 4.87 0 0 1 4.26-2.51 4.88 4.88 0 0 1 4.87 4.65c1.17.37 2 1.46 2 2.73a2.88 2.88 0 0 1-2.88 2.88Z"/>
    <path fill="#e00" d="M21.44 23.56a.63.63 0 0 0-.88 0l-.93.93v-5.98l.93.93c.12.12.28.18.44.18s.32-.06.44-.18c.24-.24.24-.64 0-.88l-2-2a.63.63 0 0 0-.88 0l-2 2c-.24.24-.24.64 0 .88s.64.24.88 0l.93-.93v5.98l-.93-.93c-.24-.24-.64-.24-.88 0s-.24.64 0 .88l2 2c.12.12.28.18.44.18s.32-.06.44-.18l2-2c.24-.24.24-.64 0-.88m-4.74 5.56a.62.62 0 0 0-.74.47c-.08.34.13.67.47.75h.14c.28 0 .54-.19.6-.48a.62.62 0 0 0-.47-.75Zm4.62 0c-.34.07-.55.41-.47.74.06.29.32.49.61.49.04 0 .09 0 .14-.02a.621.621 0 1 0-.28-1.21m-9.65-1.9c-.22.27-.18.66.09.88.12.09.26.14.39.14.19 0 .37-.09.49-.24a.623.623 0 0 0-.97-.78m13.8-.11c-.27.21-.31.61-.1.88.13.15.31.23.49.23.14 0 .28-.04.39-.13.27-.22.32-.61.1-.88a.62.62 0 0 0-.88-.1M8.82 23.23a.62.62 0 0 0-.29.83c.11.23.33.36.57.36.09 0 .18-.02.27-.07a.62.62 0 0 0 .29-.83.63.63 0 0 0-.84-.29m20.37-.02a.63.63 0 0 0-.84.29.62.62 0 0 0 .29.83c.09.05.18.07.27.07.24 0 .46-.13.57-.36a.62.62 0 0 0-.29-.83M8 18.4c-.35 0-.62.28-.62.62s.27.63.62.63.63-.28.63-.63A.64.64 0 0 0 8 18.4m.81-3.59c.08.04.18.07.27.07.23 0 .45-.14.56-.36.15-.31.02-.69-.29-.83-.31-.15-.69-.02-.84.29s-.02.68.3.83m20.09 0q.135 0 .27-.06a.62.62 0 0 0 .29-.83.63.63 0 0 0-.84-.29.62.62 0 0 0 .28 1.18m-16.78-3.77c.14 0 .28-.04.39-.13.27-.22.31-.61.1-.88a.63.63 0 0 0-.88-.1c-.27.22-.31.61-.1.88.13.15.31.23.49.23M25.83 11c.18 0 .37-.08.49-.23.21-.27.17-.67-.1-.88-.27-.22-.67-.17-.88.1s-.17.66.1.88c.12.09.25.13.39.13m-9.31-2.09s.09 0 .14-.02c.34-.08.55-.41.47-.75s-.41-.55-.75-.47-.55.41-.47.75c.07.29.33.49.61.49m4.76-.03h.14c.28 0 .54-.2.6-.49a.61.61 0 0 0-.47-.74.607.607 0 0 0-.74.47c-.08.34.13.67.47.75Zm8.71 9.52c-.35 0-.62.28-.62.62s.27.63.62.63.63-.28.63-.63a.64.64 0 0 0-.63-.62"/>
</svg>
