<?xml version="1.0" encoding="UTF-8"?><svg id="uuid-32daef88-15c0-460f-9764-a17608d2d9c5" xmlns="http://www.w3.org/2000/svg" viewBox="0 0 38 38"><defs><style>.uuid-fa633b78-8f94-42bd-b93a-5a4dbcea2fa8{fill:#e00;}.uuid-6ecbf259-6049-4d53-98de-f159f50d19aa{fill:#fff;}.uuid-72725ea4-b0eb-4a1a-a866-174f5fac14c5{fill:#e0e0e0;}</style></defs><path class="uuid-6ecbf259-6049-4d53-98de-f159f50d19aa" d="m28,1H10C5.02944,1,1,5.02944,1,10v18c0,4.97057,4.02944,9,9,9h18c4.97056,0,9-4.02943,9-9V10c0-4.97056-4.02944-9-9-9h0Z"/><path class="uuid-72725ea4-b0eb-4a1a-a866-174f5fac14c5" d="m28,2.25c4.27332,0,7.75,3.47665,7.75,7.75v18c0,4.27335-3.47668,7.75-7.75,7.75H10c-4.27332,0-7.75-3.47665-7.75-7.75V10c0-4.27335,3.47668-7.75,7.75-7.75h18m0-1.25H10C5.02942,1,1,5.02945,1,10v18c0,4.97058,4.02942,9,9,9h18c4.97058,0,9-4.02942,9-9V10c0-4.97055-4.02942-9-9-9h0Z"/><path class="uuid-fa633b78-8f94-42bd-b93a-5a4dbcea2fa8" d="m27,15.625c.34473,0,.625-.28027.625-.625v-4c0-.34473-.28027-.625-.625-.625h-4c-.34473,0-.625.28027-.625.625v1.375h-3.375c-.34473,0-.625.28027-.625.625s.28027.625.625.625h3.375v1.375c0,.34473.28027.625.625.625h1.375v6.75h-1.375c-.34473,0-.625.28027-.625.625v1.375h-6.75v-1.375c0-.34473-.28027-.625-.625-.625h-1.375v-3.375c0-.34473-.28027-.625-.625-.625s-.625.28027-.625.625v3.375h-1.375c-.34473,0-.625.28027-.625.625v4c0,.34473.28027.625.625.625h4c.34473,0,.625-.28027.625-.625v-1.375h6.75v1.375c0,.34473.28027.625.625.625h4c.34473,0,.625-.28027.625-.625v-4c0-.34473-.28027-.625-.625-.625h-1.375v-6.75h1.375Zm-12.625,10.75h-2.75v-2.75h2.75v2.75Zm12,0h-2.75v-2.75h2.75v2.75Zm-2.75-14.75h2.75v2.75h-2.75v-2.75Z"/><path d="m21.44238,20.55762l-3.05139-3.05139c.77014-.96259,1.23401-2.18048,1.23401-3.50623,0-3.10156-2.52344-5.625-5.625-5.625s-5.625,2.52344-5.625,5.625,2.52344,5.625,5.625,5.625c1.32568,0,2.5437-.46381,3.50623-1.23401l3.05139,3.05139c.12207.12207.28223.18262.44238.18262s.32031-.06055.44238-.18262c.24316-.24414.24316-.64062,0-.88477Zm-11.81738-6.55762c0-2.41211,1.96289-4.375,4.375-4.375s4.375,1.96289,4.375,4.375-1.96289,4.375-4.375,4.375-4.375-1.96289-4.375-4.375Z"/><path class="uuid-fa633b78-8f94-42bd-b93a-5a4dbcea2fa8" d="m14.88477,14l1.55762-1.55762c.24316-.24414.24316-.64062,0-.88477-.24414-.24414-.64062-.24414-.88477,0l-1.55762,1.55762-1.55762-1.55762c-.24414-.24414-.64062-.24414-.88477,0-.24316.24414-.24316.64062,0,.88477l1.55762,1.55762-1.55762,1.55762c-.24316.24414-.24316.64062,0,.88477.12207.12207.28223.18262.44238.18262s.32031-.06055.44238-.18262l1.55762-1.55762,1.55762,1.55762c.12207.12207.28223.18262.44238.18262s.32031-.06055.44238-.18262c.24316-.24414.24316-.64062,0-.88477l-1.55762-1.55762Z"/></svg>