<svg xmlns="http://www.w3.org/2000/svg" id="uuid-32daef88-15c0-460f-9764-a17608d2d9c5" viewBox="0 0 38 38">
    <defs>
        <style>
            .uuid-fa633b78-8f94-42bd-b93a-5a4dbcea2fa8{fill:#e00}
        </style>
    </defs>
    <path d="M28 1H10a9 9 0 0 0-9 9v18a9 9 0 0 0 9 9h18a9 9 0 0 0 9-9V10a9 9 0 0 0-9-9" style="fill:#fff"/>
    <path d="M28 2.25c4.273 0 7.75 3.477 7.75 7.75v18c0 4.273-3.477 7.75-7.75 7.75H10c-4.273 0-7.75-3.477-7.75-7.75V10c0-4.273 3.477-7.75 7.75-7.75zM28 1H10a9 9 0 0 0-9 9v18a9 9 0 0 0 9 9h18a9 9 0 0 0 9-9V10a9 9 0 0 0-9-9" style="fill:#e0e0e0"/>
    <path d="M27 15.625c.345 0 .625-.28.625-.625v-4a.626.626 0 0 0-.625-.625h-4a.626.626 0 0 0-.625.625v1.375H19a.626.626 0 0 0 0 1.25h3.375V15c0 .345.28.625.625.625h1.375v6.75H23a.626.626 0 0 0-.625.625v1.375h-6.75V23a.626.626 0 0 0-.625-.625h-1.375V19a.626.626 0 0 0-1.25 0v3.375H11a.626.626 0 0 0-.625.625v4c0 .345.28.625.625.625h4c.345 0 .625-.28.625-.625v-1.375h6.75V27c0 .345.28.625.625.625h4c.345 0 .625-.28.625-.625v-4a.626.626 0 0 0-.625-.625h-1.375v-6.75zm-12.625 10.75h-2.75v-2.75h2.75zm12 0h-2.75v-2.75h2.75zm-2.75-14.75h2.75v2.75h-2.75z" class="uuid-fa633b78-8f94-42bd-b93a-5a4dbcea2fa8"/>
    <path d="m21.442 20.558-3.051-3.052A5.6 5.6 0 0 0 19.625 14c0-3.102-2.523-5.625-5.625-5.625S8.375 10.898 8.375 14s2.523 5.625 5.625 5.625a5.6 5.6 0 0 0 3.506-1.234l3.052 3.051a.623.623 0 0 0 .884 0 .63.63 0 0 0 0-.884M9.625 14c0-2.412 1.963-4.375 4.375-4.375s4.375 1.963 4.375 4.375-1.963 4.375-4.375 4.375S9.625 16.412 9.625 14"/>
    <path d="m14.885 14 1.557-1.558a.626.626 0 0 0-.885-.885L14 13.116l-1.558-1.557a.626.626 0 0 0-.884.884L13.115 14l-1.557 1.558a.63.63 0 0 0 0 .884.623.623 0 0 0 .884 0L14 14.885l1.558 1.557a.623.623 0 0 0 .884 0 .63.63 0 0 0 0-.884z" class="uuid-fa633b78-8f94-42bd-b93a-5a4dbcea2fa8"/>
</svg>
