<svg viewBox="0 0 42 42">
    <g fill="none">
        <path fill="#000" d="M31.5 0h-21C4.701 0 0 4.701 0 10.5v21C0 37.299 4.701 42 10.5 42h21C37.299 42 42 37.299 42 31.5v-21C42 4.701 37.299 0 31.5 0"/>
        <path fill="#e00" d="M34.385 31.456H8.782c-.34 0-.615-.251-.615-.561s.275-.562.615-.562h25.603c.34 0 .615.252.615.562s-.276.561-.615.561"/>
        <path fill="#fff" d="M26.776 26.625h-8.914a3.872 3.872 0 1 1 .286-7.733 4.891 4.891 0 0 1 9.186 2.155 2.847 2.847 0 0 1-.359 5.543.6.6 0 0 1-.199.035m-8.914-6.622a2.75 2.75 0 0 0 0 5.499h8.66a1.725 1.725 0 0 0 .179-3.44.563.563 0 0 1-.502-.596c.008-.115.013-.18.013-.242a3.768 3.768 0 0 0-7.224-1.5.56.56 0 0 1-.62.328 2.7 2.7 0 0 0-.506-.05"/>
        <path fill="#e00" stroke="#e00" d="M9.708 20.941a.56.56 0 0 1-.32-.292.57.57 0 0 1-.021-.435.57.57 0 0 1 .292-.326.56.56 0 0 1 .435-.02c.29.11.438.434.333.728a.55.55 0 0 1-.53.372.7.7 0 0 1-.189-.027Zm23.089-.175a.57.57 0 0 1 .063-.8.55.55 0 0 1 .79.073.577.577 0 0 1-.062.8.55.55 0 0 1-.368.127.54.54 0 0 1-.423-.2Z"/>
        <g fill="#e00" stroke="#e00" transform="translate(8.167 24.5)">
            <path d="M25.707.76a.56.56 0 0 1 .332-.726c.29-.106.61.044.719.336a.57.57 0 0 1-.333.726.5.5 0 0 1-.198.037.56.56 0 0 1-.52-.373Z"/>
            <circle cx=".561" cy=".568" r="1"/>
        </g>
        <path fill="#e00" stroke="#e00" d="M11.874 16.194a.574.574 0 0 1-.066-.817.58.58 0 0 1 .823-.074c.242.209.27.572.065.817a.58.58 0 0 1-.448.213.6.6 0 0 1-.374-.139Zm18.751.065a.58.58 0 0 1-.215-.793.56.56 0 0 1 .796-.214.58.58 0 0 1 .216.792.58.58 0 0 1-.506.29.54.54 0 0 1-.29-.075ZM15.249 12.544a.55.55 0 0 1-.061-.442.6.6 0 0 1 .288-.352.65.65 0 0 1 .47-.065c.16.038.297.136.38.27a.576.576 0 0 1-.227.803.7.7 0 0 1-.306.075.64.64 0 0 1-.544-.29Zm11.977.28a.6.6 0 0 1-.396-.239.55.55 0 0 1-.099-.434.58.58 0 0 1 .252-.377.64.64 0 0 1 .46-.099c.337.058.562.362.504.682a.62.62 0 0 1-.613.476.5.5 0 0 1-.108-.01ZM21.01 11.156a.55.55 0 0 1 .449-.647.56.56 0 0 1 .655.458.564.564 0 0 1-.458.647c-.036 0-.063.01-.098.01a.56.56 0 0 1-.548-.468Z"/>
    </g>
</svg>
