<svg xmlns="http://www.w3.org/2000/svg" viewBox="0 0 38 38">
    <path d="M28 1H10a9 9 0 0 0-9 9v18a9 9 0 0 0 9 9h18a9 9 0 0 0 9-9V10a9 9 0 0 0-9-9" style="fill:#fff"/>
    <path d="M28 2.25c4.273 0 7.75 3.477 7.75 7.75v18c0 4.273-3.477 7.75-7.75 7.75H10c-4.273 0-7.75-3.477-7.75-7.75V10c0-4.273 3.477-7.75 7.75-7.75zM28 1H10a9 9 0 0 0-9 9v18a9 9 0 0 0 9 9h18a9 9 0 0 0 9-9V10a9 9 0 0 0-9-9" style="fill:#e0e0e0"/>
    <path d="M15 11.625h11.49l-.932.933a.63.63 0 0 0 0 .884.623.623 0 0 0 .884 0l2-2c.022-.022.032-.05.05-.075.03-.04.064-.08.085-.128a.6.6 0 0 0 .042-.211c0-.01.006-.018.006-.028s-.005-.018-.006-.028a.6.6 0 0 0-.042-.211c-.02-.048-.054-.087-.085-.128-.018-.025-.028-.053-.05-.075l-2-2a.626.626 0 0 0-.884.884l.933.933H15a.626.626 0 0 0 0 1.25m8 14.75H11.51l.932-.933a.626.626 0 0 0-.885-.885l-2 2c-.021.023-.031.051-.05.076-.03.04-.064.08-.084.128a.6.6 0 0 0-.042.211c0 .01-.006.018-.006.028s.005.018.006.028a.6.6 0 0 0 .042.211c.02.048.054.087.085.128.018.025.028.053.05.075l2 2a.623.623 0 0 0 .884 0 .63.63 0 0 0 0-.884l-.933-.933H23a.626.626 0 0 0 0-1.25M10.375 11.51V23a.626.626 0 0 0 1.25 0V11.51l.933.932a.623.623 0 0 0 .884 0 .63.63 0 0 0 0-.884l-2-2c-.027-.028-.062-.041-.093-.062-.036-.025-.068-.055-.108-.072a.63.63 0 0 0-.482 0c-.04.017-.072.047-.108.072-.03.021-.066.034-.093.062l-2 2a.626.626 0 0 0 .885.885zm19.067 14.048a.626.626 0 0 0-.884 0l-.933.933V15a.626.626 0 0 0-1.25 0v11.49l-.933-.932a.626.626 0 0 0-.884.884l2 2c.025.025.056.037.084.056.038.028.074.06.118.078a.63.63 0 0 0 .48 0c.044-.018.08-.05.118-.078.028-.02.06-.03.084-.056l2-2a.63.63 0 0 0 0-.884"/>
    <path d="M23 18.375h-.771a3.3 3.3 0 0 0-.502-1.217l.544-.544a.626.626 0 0 0-.885-.885l-.544.544a3.3 3.3 0 0 0-1.217-.502V15a.626.626 0 0 0-1.25 0v.771a3.3 3.3 0 0 0-1.217.502l-.544-.544a.626.626 0 0 0-.885.885l.544.544a3.3 3.3 0 0 0-.502 1.217H15a.626.626 0 0 0 0 1.25h.771c.086.443.258.856.502 1.217l-.544.544a.63.63 0 0 0 0 .885.623.623 0 0 0 .885 0l.544-.544c.36.244.774.416 1.217.502V23a.626.626 0 0 0 1.25 0v-.771a3.3 3.3 0 0 0 1.217-.502l.544.544a.623.623 0 0 0 .884 0 .63.63 0 0 0 0-.885l-.543-.544c.244-.36.416-.774.502-1.217H23a.626.626 0 0 0 0-1.25m-4 2.667c-1.126 0-2.042-.916-2.042-2.042s.916-2.042 2.042-2.042 2.042.916 2.042 2.042-.916 2.042-2.042 2.042" style="fill:#e00"/>
</svg>
