<svg xmlns="http://www.w3.org/2000/svg" viewBox="0 0 38 38">
    <path d="M10 1a9 9 0 0 0-9 9v18a9 9 0 0 0 9 9h18a9 9 0 0 0 9-9V10a9 9 0 0 0-9-9z" style="fill:#fff"/>
    <path d="M28 2.25c4.273 0 7.75 3.477 7.75 7.75v18c0 4.273-3.477 7.75-7.75 7.75H10c-4.273 0-7.75-3.477-7.75-7.75V10c0-4.273 3.477-7.75 7.75-7.75zM28 1H10a9 9 0 0 0-9 9v18a9 9 0 0 0 9 9h18a9 9 0 0 0 9-9V10a9 9 0 0 0-9-9" style="fill:#e0e0e0"/>
    <path d="M27.66 21.274a.626.626 0 0 0-.625.625v1.64L19 28.177l-8.035-4.64v-3.13l.932.934a.623.623 0 0 0 .885 0 .63.63 0 0 0 0-.885l-2-2c-.027-.028-.062-.04-.093-.062-.036-.025-.068-.055-.109-.072a.63.63 0 0 0-.48 0c-.041.017-.073.047-.109.072-.031.021-.066.034-.094.062l-2 2a.626.626 0 0 0 .885.885l.933-.933v3.49c0 .224.119.43.312.541l8.66 5a.63.63 0 0 0 .625 0l8.66-5a.62.62 0 0 0 .313-.54v-2a.626.626 0 0 0-.625-.626m2.443-4.816a.626.626 0 0 0-.885 0l-.933.933V13.9a.63.63 0 0 0-.312-.542l-8.66-5a.63.63 0 0 0-.626 0l-8.66 5a.62.62 0 0 0-.312.541v2a.626.626 0 0 0 1.25 0v-1.638L19 9.62l8.035 4.64v3.13l-.932-.934a.626.626 0 0 0-.885.885l2 2c.025.025.056.036.084.056.039.027.074.06.118.078a.63.63 0 0 0 .48 0c.044-.019.08-.05.118-.078.028-.02.06-.031.085-.056l2-2a.63.63 0 0 0 0-.885"/>
    <path d="M23 18.375h-.771a3.3 3.3 0 0 0-.502-1.217l.544-.544a.626.626 0 0 0-.885-.885l-.544.544a3.3 3.3 0 0 0-1.217-.502V15a.626.626 0 0 0-1.25 0v.771a3.3 3.3 0 0 0-1.217.502l-.544-.544a.626.626 0 0 0-.885.885l.544.544a3.3 3.3 0 0 0-.502 1.217H15a.626.626 0 0 0 0 1.25h.771c.086.443.258.856.502 1.217l-.544.544a.63.63 0 0 0 0 .885.623.623 0 0 0 .885 0l.544-.544c.36.244.774.416 1.217.502V23a.626.626 0 0 0 1.25 0v-.771a3.3 3.3 0 0 0 1.217-.502l.544.544a.623.623 0 0 0 .884 0 .63.63 0 0 0 0-.885l-.543-.544c.244-.36.416-.774.502-1.217H23a.626.626 0 0 0 0-1.25m-4 2.667c-1.126 0-2.042-.916-2.042-2.042s.916-2.042 2.042-2.042 2.042.916 2.042 2.042-.916 2.042-2.042 2.042" style="fill:#e00"/>
</svg>
