<svg xmlns="http://www.w3.org/2000/svg" viewBox="0 0 38 38">
    <path d="M10 1a9 9 0 0 0-9 9v18a9 9 0 0 0 9 9h18a9 9 0 0 0 9-9V10a9 9 0 0 0-9-9z" style="fill:#fff"/>
    <path d="M28 2.25c4.273 0 7.75 3.477 7.75 7.75v18c0 4.273-3.477 7.75-7.75 7.75H10c-4.273 0-7.75-3.477-7.75-7.75V10c0-4.273 3.477-7.75 7.75-7.75zM28 1H10a9 9 0 0 0-9 9v18a9 9 0 0 0 9 9h18a9 9 0 0 0 9-9V10a9 9 0 0 0-9-9" style="fill:#e0e0e0"/>
    <path d="M12 22.625H9a.626.626 0 0 1 0-1.25h3a.626.626 0 0 1 0 1.25"/>
    <path d="M29 18.375a.626.626 0 0 0-.625.625c0 5.169-4.206 9.375-9.375 9.375a9.3 9.3 0 0 1-7.5-3.749.625.625 0 0 0-1 .75 10.54 10.54 0 0 0 8.5 4.249c5.858 0 10.625-4.767 10.625-10.625a.626.626 0 0 0-.625-.625m-10-8.75a9.3 9.3 0 0 1 7.5 3.749.625.625 0 0 0 1-.75A10.54 10.54 0 0 0 19 8.375C13.142 8.375 8.375 13.142 8.375 19a.626.626 0 0 0 1.25 0c0-5.169 4.206-9.375 9.375-9.375" style="fill:#e00"/>
    <path d="M24.62 22.028c0-.01.005-.018.005-.028s-.005-.018-.006-.028a.6.6 0 0 0-.042-.211c-.02-.048-.054-.087-.085-.128-.018-.025-.028-.053-.05-.075l-2-2a.626.626 0 0 0-.884.884l.933.933H14a.626.626 0 0 0 0 1.25h8.49l-.932.933a.63.63 0 0 0 0 .884.623.623 0 0 0 .884 0l2-2c.022-.022.032-.05.05-.075.03-.04.064-.08.085-.128a.6.6 0 0 0 .042-.211M12 21.375H9a.626.626 0 0 0 0 1.25h3a.626.626 0 0 0 0-1.25m17-6h-3a.626.626 0 0 0 0 1.25h3a.626.626 0 0 0 0-1.25m-5 0h-8.49l.932-.933a.626.626 0 0 0-.885-.885l-2 2c-.021.023-.031.051-.05.076-.03.04-.064.08-.084.128a.6.6 0 0 0-.042.211c0 .01-.006.018-.006.028s.005.018.006.028a.6.6 0 0 0 .042.211c.02.048.054.087.085.128.018.025.028.053.05.075l2 2a.623.623 0 0 0 .884 0 .63.63 0 0 0 0-.884l-.933-.933H24a.626.626 0 0 0 0-1.25"/>
</svg>
