<svg viewBox="0 0 54 54">
    <rect width="50.25" height="50.25" x="1.875" y="1.875" fill="#fff" stroke="#e0e0e0" rx="12.125"/>
    <path d="M42.393 38.524h-8.517a2.992 2.992 0 1 0 0 1.416h3.242v1.575a.708.708 0 0 0 1.416 0V39.94h.867v1.575a.708.708 0 0 0 1.416 0V39.94h.868v.434a.708.708 0 0 0 1.416 0v-1.142a.71.71 0 0 0-.708-.708"/>
    <path fill="#e00" d="M27.55 26.24A14.1 14.1 0 0 1 41 36.023a.707.707 0 0 0 .902.456.71.71 0 0 0 .456-.89 15.5 15.5 0 0 0-10.994-10.276 8.129 8.129 0 1 0-7.604 0A15.56 15.56 0 0 0 12 40.374a.71.71 0 0 0 .708.708h12.559a.708.708 0 0 0 0-1.416H13.439A14.157 14.157 0 0 1 27.55 26.239m-6.713-8.13a6.713 6.713 0 1 1 6.713 6.713 6.725 6.725 0 0 1-6.713-6.713"/>
</svg>
