<svg xmlns="http://www.w3.org/2000/svg" viewBox="0 0 38 38">
    <rect width="36" height="36" x="1" y="1" rx="9" ry="9" style="stroke-width:0;fill:#fff"/>
    <path d="M28 2.25c4.27 0 7.75 3.48 7.75 7.75v18c0 4.27-3.48 7.75-7.75 7.75H10c-4.27 0-7.75-3.48-7.75-7.75V10c0-4.27 3.48-7.75 7.75-7.75zM28 1H10a9 9 0 0 0-9 9v18a9 9 0 0 0 9 9h18a9 9 0 0 0 9-9V10a9 9 0 0 0-9-9" style="stroke-width:0;fill:#e0e0e0"/>
    <path d="m28.84 12.96-9.53-5.5a.62.62 0 0 0-.62 0l-9.53 5.5a.63.63 0 0 0-.31.54v11c0 .22.12.43.31.54l9.53 5.5c.1.06.21.08.31.08s.22-.03.31-.08l9.53-5.5a.63.63 0 0 0 .31-.54v-11a.63.63 0 0 0-.31-.54m-.94 11.18L19 29.28l-8.9-5.14V13.86L19 8.72l8.9 5.14z" style="stroke-width:0;fill:#e00"/>
    <path d="M25 20.38H13c-.34 0-.62.28-.62.62v3c0 .35.28.62.62.62h12c.34 0 .62-.28.62-.62v-3c0-.35-.28-.62-.62-.62m-.62 3H13.63v-1.75h10.75zm.62-10h-6c-.34 0-.62.28-.62.62v4c0 .35.28.62.62.62h6c.34 0 .62-.28.62-.62v-4c0-.35-.28-.62-.62-.62m-.62 4h-4.75v-2.75h4.75zM13 18.62h3c.34 0 .62-.28.62-.62v-4c0-.35-.28-.62-.62-.62h-3c-.34 0-.62.28-.62.62v4c0 .35.28.62.62.62m.62-4h1.75v2.75h-1.75z" style="stroke-width:0"/>
</svg>
