<svg xmlns="http://www.w3.org/2000/svg" viewBox="0 0 38 38">
    <path d="M10 1a9 9 0 0 0-9 9v18a9 9 0 0 0 9 9h18a9 9 0 0 0 9-9V10a9 9 0 0 0-9-9z" style="fill:#fff"/>
    <path d="M28 2.25c4.273 0 7.75 3.477 7.75 7.75v18c0 4.273-3.477 7.75-7.75 7.75H10c-4.273 0-7.75-3.477-7.75-7.75V10c0-4.273 3.477-7.75 7.75-7.75zM28 1H10a9 9 0 0 0-9 9v18a9 9 0 0 0 9 9h18a9 9 0 0 0 9-9V10a9 9 0 0 0-9-9" style="fill:#e0e0e0"/>
    <path d="M10.5 13.375c-1.172 0-2.125.953-2.125 2.125s.953 2.125 2.125 2.125 2.125-.953 2.125-2.125-.953-2.125-2.125-2.125m0 3a.876.876 0 0 1 0-1.75.876.876 0 0 1 0 1.75m17 4c-1.172 0-2.125.953-2.125 2.125s.953 2.125 2.125 2.125 2.125-.953 2.125-2.125-.953-2.125-2.125-2.125m0 3a.876.876 0 0 1 0-1.75.876.876 0 0 1 0 1.75M16.896 11.55c-1.488.25-2.905.76-4.21 1.514a.625.625 0 0 0 .627 1.082 11.3 11.3 0 0 1 3.79-1.364.624.624 0 1 0-.207-1.232m7.791 12.304a11.3 11.3 0 0 1-3.79 1.364.624.624 0 1 0 .207 1.232c1.488-.25 2.905-.76 4.21-1.514a.625.625 0 0 0-.627-1.082" style="fill:#ed0000"/>
    <path d="M19 15.375c-1.999 0-3.625 1.626-3.625 3.625s1.626 3.625 3.625 3.625 3.625-1.626 3.625-3.625-1.626-3.625-3.625-3.625m0 6c-1.31 0-2.375-1.065-2.375-2.375S17.69 16.625 19 16.625 21.375 17.69 21.375 19 20.31 21.375 19 21.375m11.48-2.635a12.67 12.67 0 0 0-10.855-7.342V11a.626.626 0 0 0-1.25 0v2a.626.626 0 0 0 1.25 0v-.352a11.41 11.41 0 0 1 9.719 6.613.625.625 0 0 0 1.136-.522M19 24.375a.626.626 0 0 0-.625.625v.352a11.41 11.41 0 0 1-9.719-6.613.626.626 0 0 0-1.137.521 12.67 12.67 0 0 0 10.856 7.342V27a.626.626 0 0 0 1.25 0v-2a.626.626 0 0 0-.625-.625"/>
</svg>
