<svg xmlns="http://www.w3.org/2000/svg" id="uuid-be4ee8b9-4c30-4aa6-9d75-46348a5b4dca" viewBox="0 0 38 38">
    <defs>
        <style>
            .uuid-af23c787-f351-4e78-8b43-6a042b70aefe{fill:#ed0000}
        </style>
    </defs>
    <path d="M28 1H10a9 9 0 0 0-9 9v18a9 9 0 0 0 9 9h18a9 9 0 0 0 9-9V10a9 9 0 0 0-9-9" style="fill:#fff"/>
    <path d="M28 2.25c4.273 0 7.75 3.477 7.75 7.75v18c0 4.273-3.477 7.75-7.75 7.75H10c-4.273 0-7.75-3.477-7.75-7.75V10c0-4.273 3.477-7.75 7.75-7.75zM28 1H10a9 9 0 0 0-9 9v18a9 9 0 0 0 9 9h18a9 9 0 0 0 9-9V10a9 9 0 0 0-9-9" style="fill:#e0e0e0"/>
    <path d="M22 22.125h-6a.626.626 0 0 1 0-1.25h6a.626.626 0 0 1 0 1.25" class="uuid-af23c787-f351-4e78-8b43-6a042b70aefe"/>
    <path d="M22 20.125h-6a.626.626 0 0 1-.625-.625v-3c0-.345.28-.625.625-.625h6c.345 0 .625.28.625.625v3c0 .345-.28.625-.625.625m-5.375-1.25h4.75v-1.75h-4.75zm8.685 4.761-5.444 3.143c.347.246.58.637.62 1.084l5.456-3.15a1.5 1.5 0 0 1-.632-1.077m-13.252 1.077 5.456 3.15c.04-.447.273-.838.62-1.084l-5.444-3.143a1.5 1.5 0 0 1-.632 1.077m-1.477-8.833v6.24c.19-.087.401-.14.625-.14s.434.053.625.141V15.88c-.19.088-.401.14-.625.14s-.434-.052-.625-.14m6.933-5.743-5.456 3.15c.35.242.586.631.632 1.077l5.444-3.143a1.5 1.5 0 0 1-.62-1.084m2.352 1.085 5.444 3.142a1.49 1.49 0 0 1 .632-1.077l-5.456-3.15a1.5 1.5 0 0 1-.62 1.085m6.928 4.798c-.224 0-.434-.053-.625-.141v6.242c.19-.088.401-.14.625-.14s.434.052.625.14v-6.242c-.19.088-.401.14-.625.14"/>
    <path d="M19 7.875c-1.172 0-2.125.953-2.125 2.125s.953 2.125 2.125 2.125 2.125-.953 2.125-2.125S20.172 7.875 19 7.875m0 3a.876.876 0 0 1 0-1.75.876.876 0 0 1 0 1.75m0 15c-1.172 0-2.125.953-2.125 2.125s.953 2.125 2.125 2.125 2.125-.953 2.125-2.125-.953-2.125-2.125-2.125m0 3a.876.876 0 0 1 0-1.75.876.876 0 0 1 0 1.75m-7.794-16.48c-1.172 0-2.125.953-2.125 2.125s.953 2.125 2.125 2.125 2.125-.954 2.125-2.125-.953-2.125-2.125-2.125m0 3a.876.876 0 0 1 0-1.75.876.876 0 0 1 0 1.75m15.588 1.25c1.172 0 2.125-.954 2.125-2.125s-.953-2.125-2.125-2.125-2.125.953-2.125 2.125.953 2.125 2.125 2.125m0-3a.876.876 0 0 1 0 1.75.876.876 0 0 1 0-1.75m-15.588 7.71c-1.172 0-2.125.954-2.125 2.125s.953 2.125 2.125 2.125 2.125-.953 2.125-2.125-.953-2.125-2.125-2.125m0 3a.876.876 0 0 1 0-1.75.876.876 0 0 1 0 1.75m15.588-3c-1.172 0-2.125.954-2.125 2.125s.953 2.125 2.125 2.125 2.125-.953 2.125-2.125-.953-2.125-2.125-2.125m0 3a.876.876 0 0 1 0-1.75.876.876 0 0 1 0 1.75" class="uuid-af23c787-f351-4e78-8b43-6a042b70aefe"/>
</svg>
