<svg viewBox="0 0 38 38">
    <path d="M28 1H10a9 9 0 0 0-9 9v18a9 9 0 0 0 9 9h18a9 9 0 0 0 9-9V10a9 9 0 0 0-9-9"/>
    <path fill="#fff" d="M27.38 11.09a.6.6 0 0 0-.16-.31A11.54 11.54 0 0 0 19 7.38a.61.61 0 0 0-.62.62v8.46A2.62 2.62 0 1 0 21.62 19a2.56 2.56 0 0 0-.38-1.35l6-6a.61.61 0 0 0 .14-.56m-1.51.15-5.52 5.52a2.5 2.5 0 0 0-.73-.3V8.64a10.28 10.28 0 0 1 6.25 2.6M19 20.38A1.38 1.38 0 1 1 20.38 19 1.38 1.38 0 0 1 19 20.38"/>
    <path fill="#e00" d="M19 29.62a10.63 10.63 0 0 1-3.19-20.76.64.64 0 0 1 .79.41.62.62 0 0 1-.41.78 9.39 9.39 0 1 0 10.93 4.26.62.62 0 0 1 .23-.85.61.61 0 0 1 .85.23A10.62 10.62 0 0 1 19 29.62"/>
    <path fill="#e00" d="M19 25.62a6.62 6.62 0 0 1-3.31-12.36.62.62 0 1 1 .62 1.08 5.39 5.39 0 1 0 7.76 2.87.62.62 0 0 1 .38-.8.63.63 0 0 1 .8.38A6.64 6.64 0 0 1 19 25.62"/>
</svg>
