<svg viewBox="0 0 48 48">
    <g data-name="Layer 1">
        <rect width="48" height="48" rx="13" ry="13" style="stroke-width:0;fill:#fff"/>
        <path d="M12 0h24c6.63 0 12 5.37 12 12v24c0 6.63-5.37 12-12 12H12C5.37 48 0 42.63 0 36V12C0 5.37 5.37 0 12 0m33.86 12c0-5.44-4.42-9.85-9.86-9.86H12c-5.44 0-9.85 4.42-9.86 9.86v24c0 5.44 4.42 9.85 9.86 9.86h24c5.44 0 9.85-4.42 9.86-9.86z" style="stroke-width:0;fill:#000;fill-rule:evenodd"/>
        <path d="M16.15 11.35c-1.33.26-2.46 1.28-2.88 2.58-.21.66-.25 1.32-.11 1.96h-2.77c-.64 0-1.15.52-1.15 1.15v3.54c-.64-.14-1.3-.1-1.96.11-1.3.42-2.32 1.55-2.58 2.88-.23 1.15.06 2.32.8 3.22.73.89 1.82 1.41 2.97 1.41.26 0 .52-.03.77-.08v3.54c0 .64.52 1.15 1.15 1.15h3.89c.28 0 .53-.15.67-.39s.14-.53 0-.77c-.35-.59-.41-1.22-.21-1.87.25-.78.93-1.39 1.71-1.54.71-.14 1.4.03 1.94.48.84.69 1.11 1.93.52 2.94-.14.24-.14.53 0 .77s.39.39.67.39h3.89c.64 0 1.15-.52 1.15-1.15v-3.54c.64.14 1.3.1 1.96-.11 1.31-.42 2.32-1.55 2.58-2.88a3.86 3.86 0 0 0-.79-3.22 3.85 3.85 0 0 0-2.97-1.41c-.26 0-.52.03-.77.08v-3.54c0-.64-.52-1.15-1.15-1.15h-2.77c.29-1.37-.23-2.84-1.33-3.74a3.91 3.91 0 0 0-3.22-.8Zm2.24 1.99c.84.69 1.11 1.93.52 2.94-.14.24-.14.53 0 .77s.39.39.67.39h3.5v4.27c0 .28.15.53.39.67s.53.14.77 0c.37-.21.75-.32 1.15-.32a2.314 2.314 0 0 1 2.26 2.78c-.16.79-.76 1.46-1.54 1.71-.65.21-1.27.14-1.87-.21a.76.76 0 0 0-.77 0c-.24.14-.39.39-.39.67v4.27h-2.39c.29-1.37-.23-2.84-1.33-3.74a3.91 3.91 0 0 0-3.22-.8c-1.33.26-2.46 1.28-2.88 2.58-.21.66-.25 1.32-.11 1.96h-2.39v-4.27c0-.28-.15-.53-.39-.67a.76.76 0 0 0-.77 0c-.37.21-.75.32-1.15.32a2.314 2.314 0 0 1-2.26-2.78c.16-.79.76-1.46 1.54-1.71.65-.21 1.27-.14 1.87.21.24.14.53.14.77 0s.39-.39.39-.67v-4.27h3.5c.28 0 .53-.15.67-.39s.14-.53 0-.77c-.35-.59-.41-1.22-.21-1.87.25-.78.93-1.39 1.71-1.54.71-.14 1.4.03 1.94.48Z" style="fill:#e00;stroke-width:0"/>
        <path d="M43.3 23.64c-.26-1.33-1.28-2.46-2.58-2.88-.66-.21-1.32-.25-1.96-.11v-2.77c0-.64-.52-1.15-1.15-1.15h-3.54c.14-.64.1-1.3-.11-1.96-.42-1.3-1.55-2.32-2.88-2.58-1.15-.23-2.32.06-3.22.8-.89.73-1.41 1.82-1.41 2.97 0 .26.03.52.08.77h-.91v1.54h2.03c.28 0 .53-.15.67-.39s.14-.53 0-.77c-.21-.37-.32-.75-.32-1.15a2.314 2.314 0 0 1 2.78-2.26c.79.16 1.46.76 1.71 1.54.21.65.14 1.27-.21 1.87-.14.24-.14.53 0 .77s.39.39.67.39h4.27v3.5c0 .28.15.53.39.67s.53.14.77 0c.59-.35 1.22-.41 1.87-.21.78.25 1.39.93 1.54 1.71.14.71-.03 1.4-.48 1.94-.69.84-1.93 1.11-2.94.52a.76.76 0 0 0-.77 0c-.24.14-.39.39-.39.67v3.5h-4.27c-.28 0-.53.15-.67.39s-.14.53 0 .77c.21.37.32.75.32 1.15a2.314 2.314 0 0 1-2.78 2.26c-.79-.16-1.46-.76-1.71-1.54-.21-.65-.14-1.27.21-1.87.14-.24.14-.53 0-.77a.77.77 0 0 0-.67-.39h-2.03v1.54h.91c-.14.64-.1 1.3.11 1.96.42 1.31 1.55 2.32 2.88 2.58a3.86 3.86 0 0 0 3.22-.79c.89-.73 1.41-1.82 1.41-2.97 0-.26-.03-.52-.08-.77h3.54c.64 0 1.15-.52 1.15-1.15V28.2c1.37.29 2.84-.23 3.74-1.33.73-.89 1.02-2.07.8-3.22Z" style="stroke-width:0;fill:#151515"/>
    </g>
</svg>
