<svg xmlns="http://www.w3.org/2000/svg" id="uuid-f0e4473c-a402-45db-be51-17fefc5268ac" viewBox="0 0 38 38">
    <defs>
        <style>
            .uuid-09a01491-f073-4da1-9b74-f78b2b604bf8{fill:#fff}
        </style>
    </defs>
    <rect width="36" height="36" x="1" y="1" rx="9" ry="9"/>
    <path d="M28 2.25c4.273 0 7.75 3.477 7.75 7.75v18c0 4.273-3.477 7.75-7.75 7.75H10c-4.273 0-7.75-3.477-7.75-7.75V10c0-4.273 3.477-7.75 7.75-7.75zM28 1H10a9 9 0 0 0-9 9v18a9 9 0 0 0 9 9h18a9 9 0 0 0 9-9V10a9 9 0 0 0-9-9" style="fill:#4d4d4d"/>
    <path d="M23 26.625a.626.626 0 0 1-.625-.625v-7a.626.626 0 0 1 1.25 0v7c0 .345-.28.625-.625.625m-8-7a.626.626 0 0 1-.625-.625v-7a.626.626 0 0 1 1.25 0v7c0 .345-.28.625-.625.625" class="uuid-09a01491-f073-4da1-9b74-f78b2b604bf8"/>
    <path d="M13 20.375H9.625v-2.75H21a.626.626 0 0 0 0-1.25H9a.626.626 0 0 0-.625.625v4c0 .345.28.625.625.625h4a.626.626 0 0 0 0-1.25m16-4h-4a.626.626 0 0 0 0 1.25h3.375v2.75H17a.626.626 0 0 0 0 1.25h12c.345 0 .625-.28.625-.625v-4a.626.626 0 0 0-.625-.625" style="fill:#ed0000"/>
    <path d="M17.442 24.558a.626.626 0 0 0-.884 0l-.933.933V19a.626.626 0 0 0-1.25 0v6.49l-.933-.932a.626.626 0 0 0-.884.884l2 2c.025.025.056.037.084.056.038.028.074.06.118.078a.63.63 0 0 0 .48 0c.044-.018.08-.05.118-.078.028-.02.06-.03.084-.056l2-2a.63.63 0 0 0 0-.884m8-12-2-2c-.027-.028-.062-.041-.093-.062-.036-.025-.068-.055-.108-.072a.63.63 0 0 0-.482 0c-.04.017-.072.047-.108.072-.03.021-.066.034-.093.062l-2 2a.626.626 0 0 0 .885.885l.932-.934V19a.626.626 0 0 0 1.25 0v-6.49l.933.932a.623.623 0 0 0 .884 0 .63.63 0 0 0 0-.884" class="uuid-09a01491-f073-4da1-9b74-f78b2b604bf8"/>
</svg>
