<svg viewBox="0 0 48 48">
    <path fill="#fff" d="M36 0H12C5.373 0 0 5.373 0 12v24c0 6.627 5.373 12 12 12h24c6.627 0 12-5.373 12-12V12c0-6.627-5.373-12-12-12"/>
    <path fill-rule="evenodd" d="M36 2H12C6.477 2 2 6.477 2 12v24c0 5.523 4.477 10 10 10h24c5.523 0 10-4.477 10-10V12c0-5.523-4.477-10-10-10M12 0h24c6.627 0 12 5.373 12 12v24c0 6.627-5.373 12-12 12H12C5.373 48 0 42.627 0 36V12C0 5.373 5.373 0 12 0"/>
    <path fill="#151515" d="M26.576 8c1.888 0 3.372 1.6 3.372 3.518v22.184l-2.306-1.45-6.67-4.194-6.667 4.194L12 33.703V11.518C12 9.598 13.483 8 15.372 8zm0 1.504H15.372c-1.032 0-1.868.902-1.868 2.014v19.461l7.47-4.697 7.47 4.697V11.518c0-1.112-.837-2.014-1.868-2.014"/>
    <path fill="#fff" fill-rule="evenodd" d="M33.112 15.106H21.907c-1.03 0-1.867.902-1.867 2.014v19.46l7.47-4.697 7.47 4.697V17.12c0-1.112-.837-2.014-1.868-2.014"/>
    <path fill="#e00" d="M33.112 13.602c1.888 0 3.372 1.6 3.372 3.518v22.184l-2.306-1.45-6.67-4.194-6.667 4.195-2.305 1.45V17.12c0-1.919 1.483-3.518 3.372-3.518zm0 1.504H21.908c-1.032 0-1.868.902-1.868 2.014v19.46l7.47-4.698 7.47 4.698V17.12c0-1.112-.837-2.014-1.868-2.014"/>
</svg>
