<svg xmlns="http://www.w3.org/2000/svg" id="uuid-46701468-6641-48cb-987a-ad8aaaa4cc57" viewBox="0 0 38 38">
    <defs>
        <style>
            .uuid-05c8f53d-396a-4a77-b610-4cae1607b37f{fill:#e00}
        </style>
    </defs>
    <path d="M28 1H10a9 9 0 0 0-9 9v18a9 9 0 0 0 9 9h18a9 9 0 0 0 9-9V10a9 9 0 0 0-9-9" style="fill:#fff"/>
    <path d="M28 2.25c4.273 0 7.75 3.477 7.75 7.75v18c0 4.273-3.477 7.75-7.75 7.75H10c-4.273 0-7.75-3.477-7.75-7.75V10c0-4.273 3.477-7.75 7.75-7.75zM28 1H10a9 9 0 0 0-9 9v18a9 9 0 0 0 9 9h18a9 9 0 0 0 9-9V10a9 9 0 0 0-9-9" style="fill:#e0e0e0"/>
    <path d="M20 15.625a.626.626 0 0 1-.625-.625V8a.626.626 0 0 1 1.25 0v7c0 .345-.28.625-.625.625m-4 4H9a.626.626 0 0 1 0-1.25h7a.626.626 0 0 1 0 1.25m4 11a.626.626 0 0 1-.625-.625v-7a.626.626 0 0 1 1.25 0v7c0 .345-.28.625-.625.625" class="uuid-05c8f53d-396a-4a77-b610-4cae1607b37f"/>
    <path d="M30.577 19.24a.6.6 0 0 0 .042-.212c0-.01.006-.018.006-.028s-.005-.018-.006-.028a.6.6 0 0 0-.042-.211c-.02-.048-.054-.087-.085-.128-.018-.025-.028-.053-.05-.075l-2-2a.626.626 0 0 0-.884.884l.933.933H19a.626.626 0 0 0 0 1.25h9.49l-.932.933a.63.63 0 0 0 0 .884.623.623 0 0 0 .884 0l2-2c.022-.022.032-.05.05-.075.03-.04.065-.08.085-.128M17 16.625c-.16 0-.32-.06-.442-.183l-4-4a.626.626 0 0 1 .885-.885l4 4a.63.63 0 0 1 0 .885.62.62 0 0 1-.443.183m-4 10a.628.628 0 0 1-.442-1.067l4-4a.626.626 0 0 1 .884.884l-4 4a.62.62 0 0 1-.442.183"/>
    <path d="M17.424 13.625a.625.625 0 0 1-.61-.495l-.425-2a.625.625 0 1 1 1.222-.26l.425 2a.625.625 0 0 1-.612.755m-3.423 3.425a.6.6 0 0 1-.13-.014l-2-.425a.625.625 0 0 1-.482-.74.62.62 0 0 1 .74-.482l2 .424a.625.625 0 0 1-.128 1.237m3 10.575a.625.625 0 0 1-.612-.755l.424-2a.625.625 0 1 1 1.223.26l-.425 2a.625.625 0 0 1-.61.495m-5.002-5a.625.625 0 0 1-.129-1.236l2-.425a.625.625 0 0 1 .26 1.223l-2 .424a.6.6 0 0 1-.131.014" class="uuid-05c8f53d-396a-4a77-b610-4cae1607b37f"/>
    <path d="M9 15.63c-.16 0-.32-.07-.44-.19a.7.7 0 0 1-.14-.2.7.7 0 0 1-.05-.24c0-.16.07-.32.19-.44.23-.23.65-.24.88 0 .12.12.19.28.19.44 0 .08-.02.16-.05.24s-.08.14-.14.2a.63.63 0 0 1-.44.19m0 8c-.16 0-.32-.07-.44-.19-.12-.11-.19-.28-.19-.44s.07-.32.19-.44c.23-.23.64-.24.88 0 .12.12.19.28.19.44s-.07.33-.19.44a.63.63 0 0 1-.44.19"/>
</svg>
