<svg xmlns="http://www.w3.org/2000/svg" viewBox="0 0 38 38">
    <rect width="36" height="36" x="1" y="1" rx="9" ry="9" style="fill:#fff"/>
    <path d="M28 2.25c4.273 0 7.75 3.477 7.75 7.75v18c0 4.273-3.477 7.75-7.75 7.75H10c-4.273 0-7.75-3.477-7.75-7.75V10c0-4.273 3.477-7.75 7.75-7.75zM28 1H10a9 9 0 0 0-9 9v18a9 9 0 0 0 9 9h18a9 9 0 0 0 9-9V10a9 9 0 0 0-9-9" style="fill:#e0e0e0"/>
    <path d="M27 15.913H16.818l.779-.778a.626.626 0 0 0-.885-.885l-1.847 1.847a.625.625 0 0 0 .001.884l1.847 1.846a.62.62 0 0 0 .884 0 .625.625 0 0 0-.001-.885l-.78-.779h9.559v9.212h-9.212V24.89a.626.626 0 0 0-1.25 0V27c0 .345.28.625.625.625H27c.345 0 .625-.28.625-.625V16.538a.626.626 0 0 0-.625-.625"/>
    <path d="m23.134 21.019-1.847-1.846a.625.625 0 1 0-.883.885l.78.779h-9.559v-9.212h9.212v1.485a.626.626 0 0 0 1.25 0V11a.626.626 0 0 0-.625-.625H11a.626.626 0 0 0-.625.625v10.462c0 .345.28.625.625.625h10.182l-.779.778a.63.63 0 0 0 0 .885.623.623 0 0 0 .885 0l1.847-1.847a.625.625 0 0 0-.001-.884" style="fill:#e00"/>
</svg>
