<svg viewBox="0 0 48 48">
    <path fill="#fff" d="M36 0H12C5.373 0 0 5.373 0 12v24c0 6.627 5.373 12 12 12h24c6.627 0 12-5.373 12-12V12c0-6.627-5.373-12-12-12"/>
    <path fill-rule="evenodd" d="M36 2H12C6.477 2 2 6.477 2 12v24c0 5.523 4.477 10 10 10h24c5.523 0 10-4.477 10-10V12c0-5.523-4.477-10-10-10M12 0h24c6.627 0 12 5.373 12 12v24c0 6.627-5.373 12-12 12H12C5.373 48 0 42.627 0 36V12C0 5.373 5.373 0 12 0"/>
    <path fill-rule="evenodd" d="M24.413 37.507a3.29 3.29 0 0 0 2.84-1.626c.427-.734-.173-1.667-1.026-1.667H22.6c-.92 0-1.454 1.027-.96 1.8a3.28 3.28 0 0 0 2.76 1.507z"/>
    <path fill="#e00" d="M24 12.294c.8 0 1.44.653 1.44 1.454v.946c3.32.693 5.787 3.507 5.787 7.013 0 4.627 1.64 6.04 2.506 6.974.267.293.387.64.387.986 0 .747-.587 1.454-1.453 1.454h-17.36c-.867 0-1.44-.707-1.454-1.453 0-.347.12-.694.387-.987.88-.934 2.507-2.347 2.507-6.974 0-3.506 2.466-6.32 5.786-7.013v-.947c0-.8.654-1.453 1.44-1.453m0-1.8a3.24 3.24 0 0 0-3.213 2.84c-3.48 1.307-5.813 4.573-5.813 8.374 0 3.8-1.067 4.733-1.84 5.56l-.187.2c-.88.946-1.133 2.32-.573 3.573.533 1.186 1.8 1.88 3.093 1.88h17.053c1.307 0 2.56-.694 3.107-1.88.573-1.267.307-2.64-.573-3.573l-.187-.2c-.773-.814-1.84-1.934-1.84-5.56 0-3.627-2.333-7.054-5.813-8.374a3.25 3.25 0 0 0-3.214-2.84"/>
</svg>
