<svg xmlns="http://www.w3.org/2000/svg" viewBox="0 0 38 38">
    <path d="M28 37a9 9 0 0 0 9-9V10a9 9 0 0 0-9-9H10a9 9 0 0 0-9 9v18a9 9 0 0 0 9 9z" style="fill:#fff"/>
    <path d="M28 2.25c4.273 0 7.75 3.477 7.75 7.75v18c0 4.273-3.477 7.75-7.75 7.75H10c-4.273 0-7.75-3.477-7.75-7.75V10c0-4.273 3.477-7.75 7.75-7.75zM28 1H10a9 9 0 0 0-9 9v18a9 9 0 0 0 9 9h18a9 9 0 0 0 9-9V10a9 9 0 0 0-9-9" style="fill:#e0e0e0"/>
    <path d="M28 17.375c-.497 0-.957.146-1.353.387l-1.41-1.409c.242-.396.388-.856.388-1.353 0-1.447-1.178-2.625-2.625-2.625S20.375 13.553 20.375 15c0 1.23.855 2.26 2 2.542v4.916a2.625 2.625 0 0 0-2 2.542c0 1.447 1.178 2.625 2.625 2.625s2.625-1.178 2.625-2.625c0-1.23-.855-2.26-2-2.542v-4.917a2.6 2.6 0 0 0 .728-.303l1.41 1.409A2.6 2.6 0 0 0 25.375 20c0 1.447 1.178 2.625 2.625 2.625s2.625-1.178 2.625-2.625-1.178-2.625-2.625-2.625M21.625 15c0-.758.617-1.375 1.375-1.375s1.375.617 1.375 1.375-.617 1.375-1.375 1.375-1.375-.617-1.375-1.375m2.75 10c0 .758-.617 1.375-1.375 1.375s-1.375-.617-1.375-1.375.617-1.375 1.375-1.375 1.375.617 1.375 1.375M28 21.375c-.758 0-1.375-.617-1.375-1.375s.617-1.375 1.375-1.375 1.375.617 1.375 1.375-.617 1.375-1.375 1.375" style="fill:#ed0000"/>
    <path d="M21.25 19.012a4.4 4.4 0 0 1-.874-.511.624.624 0 1 0-.752.998c.348.262.727.483 1.126.657a.624.624 0 1 0 .5-1.145"/>
    <path d="M23 9.375A5.63 5.63 0 0 0 17.375 15v6a4.34 4.34 0 0 1-1.75 3.5.625.625 0 1 0 .75 1 5.58 5.58 0 0 0 2.25-4.5v-6A4.38 4.38 0 0 1 23 10.625a4.38 4.38 0 0 1 4.288 5.251.625.625 0 0 0 1.225.248A5.63 5.63 0 0 0 23 9.375M12.477 23.458a.626.626 0 0 0-.885.885l.99.99c-2.214-.214-3.957-2.064-3.957-4.333A4.38 4.38 0 0 1 13 16.625c.956 0 1.863.303 2.624.874a.624.624 0 1 0 .752-.998A5.58 5.58 0 0 0 13 15.375 5.63 5.63 0 0 0 7.375 21a5.63 5.63 0 0 0 5.078 5.597l-.861.861a.63.63 0 0 0 0 .885.623.623 0 0 0 .885 0l2-2a.63.63 0 0 0 0-.885z"/>
</svg>
