<svg xmlns="http://www.w3.org/2000/svg" width="38" height="38" viewBox="0 0 38 38">
    <rect width="36" height="36" x="1" y="1" rx="9" ry="9"/>
    <path fill="#4d4d4d" d="M28 2.25c4.273 0 7.75 3.477 7.75 7.75v18c0 4.273-3.477 7.75-7.75 7.75H10c-4.273 0-7.75-3.477-7.75-7.75V10c0-4.273 3.477-7.75 7.75-7.75zM28 1H10a9 9 0 0 0-9 9v18a9 9 0 0 0 9 9h18a9 9 0 0 0 9-9V10a9 9 0 0 0-9-9"/>
    <path fill="#fff" d="M25.733 14.019a5.817 5.817 0 0 0-10.945-2.572c-2.726-.236-4.969 1.924-4.969 4.58a4.603 4.603 0 0 0 4.598 4.598h10.694q.12-.001.225-.041a3.38 3.38 0 0 0 2.845-3.334 3.356 3.356 0 0 0-2.448-3.231m-.927 5.356H14.417c-1.846 0-3.348-1.501-3.348-3.347s1.502-3.347 3.348-3.347q.301 0 .62.06a.62.62 0 0 0 .689-.366 4.57 4.57 0 0 1 4.191-2.75c2.52 0 4.57 2.05 4.57 4.57 0 .078-.007.155-.016.29a.624.624 0 0 0 .557.666 2.114 2.114 0 0 1 1.903 2.099 2.127 2.127 0 0 1-2.125 2.125"/>
    <path fill="#e00" d="M24 23.625H11a.625.625 0 0 1 0-1.25h13a.625.625 0 0 1 0 1.25m4 3H15a.625.625 0 0 1 0-1.25h13a.625.625 0 0 1 0 1.25m-4 3H11a.625.625 0 0 1 0-1.25h13a.625.625 0 0 1 0 1.25"/>
</svg>
