<svg xmlns="http://www.w3.org/2000/svg" viewBox="0 0 38 38">
    <path d="M28 1H10a9 9 0 0 0-9 9v18a9 9 0 0 0 9 9h18a9 9 0 0 0 9-9V10a9 9 0 0 0-9-9" style="fill:#fff"/>
    <path d="M28 2.25c4.273 0 7.75 3.477 7.75 7.75v18c0 4.273-3.477 7.75-7.75 7.75H10c-4.273 0-7.75-3.477-7.75-7.75V10c0-4.273 3.477-7.75 7.75-7.75zM28 1H10a9 9 0 0 0-9 9v18a9 9 0 0 0 9 9h18a9 9 0 0 0 9-9V10a9 9 0 0 0-9-9" style="fill:#e0e0e0"/>
    <path d="M27 27.625h-6a.626.626 0 0 1-.625-.625v-6c0-.345.28-.625.625-.625h6c.345 0 .625.28.625.625v6c0 .345-.28.625-.625.625m-5.375-1.25h4.75v-4.75h-4.75zM27 17.625h-6a.626.626 0 0 1-.625-.625v-6c0-.345.28-.625.625-.625h6c.345 0 .625.28.625.625v6c0 .345-.28.625-.625.625m-5.375-1.25h4.75v-4.75h-4.75zM17 17.625h-6a.626.626 0 0 1-.625-.625v-6c0-.345.28-.625.625-.625h6c.345 0 .625.28.625.625v6c0 .345-.28.625-.625.625m-5.375-1.25h4.75v-4.75h-4.75z" style="fill:#e00"/>
    <path d="M17.62 20.972a.6.6 0 0 0-.043-.212c-.02-.047-.054-.086-.085-.127-.018-.025-.028-.053-.05-.075-.027-.028-.062-.041-.093-.062-.036-.025-.068-.055-.108-.072a.6.6 0 0 0-.243-.049H12a.626.626 0 0 0 0 1.25h3.49l-4.932 4.933a.63.63 0 0 0 0 .884.623.623 0 0 0 .884 0l4.933-4.932V26a.626.626 0 0 0 1.25 0v-5c0-.01-.005-.018-.006-.028"/>
</svg>
