<svg xmlns="http://www.w3.org/2000/svg" viewBox="0 0 38 38">
    <path d="M28 1H10a9 9 0 0 0-9 9v18a9 9 0 0 0 9 9h18a9 9 0 0 0 9-9V10a9 9 0 0 0-9-9" style="fill:#fff"/>
    <path d="M28 2.25c4.273 0 7.75 3.477 7.75 7.75v18c0 4.273-3.477 7.75-7.75 7.75H10c-4.273 0-7.75-3.477-7.75-7.75V10c0-4.273 3.477-7.75 7.75-7.75zM28 1H10a9 9 0 0 0-9 9v18a9 9 0 0 0 9 9h18a9 9 0 0 0 9-9V10a9 9 0 0 0-9-9" style="fill:#e0e0e0"/>
    <path d="M30.442 17.558a.626.626 0 0 0-.884 0l-.966.966c-.17-3.486-2.16-6.581-5.314-8.148a.625.625 0 1 0-.557 1.12c2.705 1.342 4.424 3.978 4.616 6.957l-.895-.895a.626.626 0 0 0-.884.884l2 2a.623.623 0 0 0 .884 0l2-2a.63.63 0 0 0 0-.884m-19.506-1.933a.625.625 0 0 1-.56-.903 9.7 9.7 0 0 1 4.21-4.278.626.626 0 0 1 .574 1.112 8.45 8.45 0 0 0-3.665 3.722.62.62 0 0 1-.56.347M15 27.69a.6.6 0 0 1-.278-.066 9.7 9.7 0 0 1-4.346-4.346.625.625 0 0 1 1.12-.556 8.44 8.44 0 0 0 3.782 3.783.625.625 0 0 1-.278 1.184m8.128-.064a.626.626 0 0 1-.288-1.18 8.45 8.45 0 0 0 3.665-3.723.625.625 0 0 1 1.12.557 9.7 9.7 0 0 1-4.21 4.277.6.6 0 0 1-.287.069" style="fill:#e00"/>
    <path d="M19 12.625c-1.447 0-2.625-1.178-2.625-2.625S17.553 7.375 19 7.375 21.625 8.553 21.625 10 20.447 12.625 19 12.625m0-4c-.758 0-1.375.617-1.375 1.375s.617 1.375 1.375 1.375 1.375-.617 1.375-1.375S19.758 8.625 19 8.625m-9 13c-1.447 0-2.625-1.178-2.625-2.625S8.553 16.375 10 16.375s2.625 1.178 2.625 2.625-1.178 2.625-2.625 2.625m0-4c-.758 0-1.375.617-1.375 1.375s.617 1.375 1.375 1.375 1.375-.617 1.375-1.375-.617-1.375-1.375-1.375m9 13c-1.447 0-2.625-1.178-2.625-2.625s1.178-2.625 2.625-2.625 2.625 1.178 2.625 2.625-1.178 2.625-2.625 2.625m0-4c-.758 0-1.375.617-1.375 1.375s.617 1.375 1.375 1.375 1.375-.617 1.375-1.375-.617-1.375-1.375-1.375"/>
</svg>
