<svg xmlns="http://www.w3.org/2000/svg" viewBox="0 0 38 38">
    <path d="M28 1H10a9 9 0 0 0-9 9v18a9 9 0 0 0 9 9h18a9 9 0 0 0 9-9V10a9 9 0 0 0-9-9" style="fill:#fff"/>
    <path d="M28 2.25c4.273 0 7.75 3.477 7.75 7.75v18c0 4.273-3.477 7.75-7.75 7.75H10c-4.273 0-7.75-3.477-7.75-7.75V10c0-4.273 3.477-7.75 7.75-7.75zM28 1H10a9 9 0 0 0-9 9v18a9 9 0 0 0 9 9h18a9 9 0 0 0 9-9V10a9 9 0 0 0-9-9" style="fill:#e0e0e0"/>
    <path d="M28.086 14.983c-.03.002-.055.017-.086.017a1 1 0 0 1-1-1 1 1 0 0 1 .115-.444c-4.66.94-6.667-2.563-7.29-4.024A.98.98 0 0 1 19 10a1 1 0 0 1-.903-.583c-1.784 4.489-6.08 4.082-7.478 3.817A.98.98 0 0 1 11 14a1 1 0 0 1-1 1c-.014 0-.025-.007-.039-.008 2.722 3.775.998 6.825.077 8.016A.996.996 0 0 1 11 24c0 .16-.046.307-.114.442 4.683-.948 6.679 2.58 7.289 4.026A.98.98 0 0 1 19 28c.359 0 .659.2.835.483 1.65-4.424 5.668-4.285 7.289-4.027A1 1 0 0 1 27 24a1 1 0 0 1 1-1c.024 0 .045.012.068.014-2.717-3.822-.884-6.896.018-8.031m-16.117 7.209c.728-1.563 1.189-3.823-.073-6.424L17.714 19zm6.406 4.101c-1-1.455-2.703-3.041-5.376-3.245l5.376-2.986zm0-8.355-5.979-3.321a9 9 0 0 0 1.47-.142c1.446-.272 3.216-1.02 4.509-2.898zm1.25-6.229c1 1.453 2.702 3.04 5.371 3.245l-5.371 2.984zm4.51 11.552c-1.448.271-3.217 1.019-4.51 2.897v-6.096l5.538 3.076a9 9 0 0 0-1.028.123m2.017-1.002L20.286 19l5.886-3.27c-.764 1.56-1.3 3.86-.02 6.529" style="fill:#e00"/>
    <path d="M19 10.625c-.896 0-1.625-.729-1.625-1.625S18.104 7.375 19 7.375s1.625.729 1.625 1.625-.729 1.625-1.625 1.625m0-2a.375.375 0 1 0 0 .75.375.375 0 0 0 0-.75m0 22c-.896 0-1.625-.729-1.625-1.625s.729-1.625 1.625-1.625 1.625.729 1.625 1.625-.729 1.625-1.625 1.625m0-2a.375.375 0 1 0 0 .75.375.375 0 0 0 0-.75m9-13c-.896 0-1.625-.729-1.625-1.625s.729-1.625 1.625-1.625 1.625.729 1.625 1.625-.729 1.625-1.625 1.625m0-2a.375.375 0 1 0 0 .75.375.375 0 0 0 0-.75m-18 2c-.896 0-1.625-.729-1.625-1.625s.729-1.625 1.625-1.625 1.625.729 1.625 1.625-.729 1.625-1.625 1.625m0-2a.375.375 0 1 0 0 .75.375.375 0 0 0 0-.75m18 12c-.896 0-1.625-.729-1.625-1.625s.729-1.625 1.625-1.625 1.625.729 1.625 1.625-.729 1.625-1.625 1.625m0-2a.375.375 0 1 0 0 .75.375.375 0 0 0 0-.75m-18 2c-.896 0-1.625-.729-1.625-1.625s.729-1.625 1.625-1.625 1.625.729 1.625 1.625-.729 1.625-1.625 1.625m0-2a.375.375 0 1 0 0 .75.375.375 0 0 0 0-.75"/>
</svg>
