<svg xmlns="http://www.w3.org/2000/svg" viewBox="0 0 38 38">
    <rect width="36" height="36" x="1" y="1" rx="9" ry="9"/>
    <path d="M28 2.25c4.273 0 7.75 3.477 7.75 7.75v18c0 4.273-3.477 7.75-7.75 7.75H10c-4.273 0-7.75-3.477-7.75-7.75V10c0-4.273 3.477-7.75 7.75-7.75zM28 1H10a9 9 0 0 0-9 9v18a9 9 0 0 0 9 9h18a9 9 0 0 0 9-9V10a9 9 0 0 0-9-9" style="fill:#4d4d4d"/>
    <path d="M22 25.625h-9a.626.626 0 0 1 0-1.25h9c1.31 0 2.375-1.065 2.375-2.375S23.31 19.625 22 19.625h-7c-1.999 0-3.625-1.626-3.625-3.625s1.626-3.625 3.625-3.625h10a.626.626 0 0 1 0 1.25H15c-1.31 0-2.375 1.065-2.375 2.375S13.69 18.375 15 18.375h7c1.999 0 3.625 1.626 3.625 3.625S23.999 25.625 22 25.625" style="fill:#fff"/>
    <path d="M25 16.625c-1.999 0-3.625-1.626-3.625-3.625S23.001 9.375 25 9.375s3.625 1.626 3.625 3.625-1.626 3.625-3.625 3.625m0-6c-1.31 0-2.375 1.065-2.375 2.375S23.69 15.375 25 15.375 27.375 14.31 27.375 13 26.31 10.625 25 10.625m-12 18c-1.999 0-3.625-1.626-3.625-3.625s1.626-3.625 3.625-3.625 3.625 1.626 3.625 3.625-1.626 3.625-3.625 3.625m0-6c-1.31 0-2.375 1.065-2.375 2.375S11.69 27.375 13 27.375 15.375 26.31 15.375 25 14.31 22.625 13 22.625" style="fill:#e00"/>
</svg>
