<svg xmlns="http://www.w3.org/2000/svg" viewBox="0 0 38 38">
    <path d="M28 1H10a9 9 0 0 0-9 9v18a9 9 0 0 0 9 9h18a9 9 0 0 0 9-9V10a9 9 0 0 0-9-9" style="fill:#fff"/>
    <path d="M28 2.25c4.273 0 7.75 3.477 7.75 7.75v18c0 4.273-3.477 7.75-7.75 7.75H10c-4.273 0-7.75-3.477-7.75-7.75V10c0-4.273 3.477-7.75 7.75-7.75zM28 1H10a9 9 0 0 0-9 9v18a9 9 0 0 0 9 9h18a9 9 0 0 0 9-9V10a9 9 0 0 0-9-9" style="fill:#e0e0e0"/>
    <path d="M14 23.625h-4A.626.626 0 0 1 9.375 23v-4c0-.345.28-.625.625-.625h4c.345 0 .625.28.625.625v4c0 .345-.28.625-.625.625m-3.375-1.25h2.75v-2.75h-2.75zM21 23.625h-4a.626.626 0 0 1-.625-.625v-4c0-.345.28-.625.625-.625h4c.345 0 .625.28.625.625v4c0 .345-.28.625-.625.625m-3.375-1.25h2.75v-2.75h-2.75zm-.125-5.75h-4a.626.626 0 0 1-.625-.625v-4c0-.345.28-.625.625-.625h4c.345 0 .625.28.625.625v4c0 .345-.28.625-.625.625m-3.375-1.25h2.75v-2.75h-2.75zm10.375 1.25h-4a.626.626 0 0 1-.625-.625v-4c0-.345.28-.625.625-.625h4c.345 0 .625.28.625.625v4c0 .345-.28.625-.625.625m-3.375-1.25h2.75v-2.75h-2.75zM28 23.625h-4a.626.626 0 0 1-.625-.625v-4c0-.345.28-.625.625-.625h4c.345 0 .625.28.625.625v4c0 .345-.28.625-.625.625m-3.375-1.25h2.75v-2.75h-2.75z" style="fill:#e00"/>
    <path d="M29 26.625H9a.626.626 0 0 1 0-1.25h20a.626.626 0 0 1 0 1.25"/>
</svg>
