<svg xmlns="http://www.w3.org/2000/svg" viewBox="0 0 38 38">
    <path d="M28 1H10a9 9 0 0 0-9 9v18a9 9 0 0 0 9 9h18a9 9 0 0 0 9-9V10a9 9 0 0 0-9-9" style="fill:#fff"/>
    <path d="M28 2.25c4.273 0 7.75 3.477 7.75 7.75v18c0 4.273-3.477 7.75-7.75 7.75H10c-4.273 0-7.75-3.477-7.75-7.75V10c0-4.273 3.477-7.75 7.75-7.75zM28 1H10a9 9 0 0 0-9 9v18a9 9 0 0 0 9 9h18a9 9 0 0 0 9-9V10a9 9 0 0 0-9-9" style="fill:#e0e0e0"/>
    <path d="M21 14.625h-9a.626.626 0 0 1-.625-.625v-4c0-.345.28-.625.625-.625h9c.345 0 .625.28.625.625v4c0 .345-.28.625-.625.625m-8.375-1.25h7.75v-2.75h-7.75z"/>
    <path d="m29.442 24.558-2-2c-.027-.028-.062-.041-.093-.062-.036-.025-.068-.055-.108-.072a.63.63 0 0 0-.482 0c-.04.017-.072.047-.108.072-.03.021-.066.034-.093.062l-2 2a.626.626 0 0 0 .885.885l.932-.934v1.866H21a.626.626 0 0 0 0 1.25h6c.345 0 .625-.28.625-.625v-2.49l.933.932a.623.623 0 0 0 .884 0 .63.63 0 0 0 0-.884M20 19.375h-5.375v-1.866l.933.933a.623.623 0 0 0 .884 0 .63.63 0 0 0 0-.884l-2-2c-.027-.028-.062-.041-.093-.062-.036-.025-.068-.055-.108-.072a.63.63 0 0 0-.482 0c-.04.017-.072.047-.108.072-.03.021-.066.034-.093.062l-2 2a.626.626 0 0 0 .885.885l.932-.934V20c0 .345.28.625.625.625h6a.626.626 0 0 0 0-1.25" style="fill:#ed0000"/>
    <path d="M21 28.625h-9a.626.626 0 0 1-.625-.625v-4c0-.345.28-.625.625-.625h9c.345 0 .625.28.625.625v4c0 .345-.28.625-.625.625m-8.375-1.25h7.75v-2.75h-7.75zM29 21.625h-9a.626.626 0 0 1-.625-.625v-4c0-.345.28-.625.625-.625h9c.345 0 .625.28.625.625v4c0 .345-.28.625-.625.625m-8.375-1.25h7.75v-2.75h-7.75z"/>
</svg>
