<svg xmlns="http://www.w3.org/2000/svg" viewBox="0 0 38 38">
    <path d="M28 1H10a9 9 0 0 0-9 9v18a9 9 0 0 0 9 9h18a9 9 0 0 0 9-9V10a9 9 0 0 0-9-9" style="fill:#fff"/>
    <path d="M28 2.25c4.273 0 7.75 3.477 7.75 7.75v18c0 4.273-3.477 7.75-7.75 7.75H10c-4.273 0-7.75-3.477-7.75-7.75V10c0-4.273 3.477-7.75 7.75-7.75zM28 1H10a9 9 0 0 0-9 9v18a9 9 0 0 0 9 9h18a9 9 0 0 0 9-9V10a9 9 0 0 0-9-9" style="fill:#e0e0e0"/>
    <path d="M26.543 24.69a.626.626 0 0 0-.854-.233l-6.7 3.829-6.861-3.675a.624.624 0 1 0-.59 1.102l7.152 3.83h.001l.014.008q.143.074.294.074h.002c.104 0 .21-.026.31-.082l7-4a.627.627 0 0 0 .232-.854" style="fill:#ed0000"/>
    <path d="M26.475 12.593h-.001a.6.6 0 0 0-.174-.142l-6.99-3.994c-.05-.029-.104-.038-.157-.052-.017-.004-.03-.012-.046-.015a.6.6 0 0 0-.315.027c-.01.004-.022-.001-.032.003-.023.01-.044.032-.066.046a.6.6 0 0 0-.108.075c-.008.008-.018.01-.026.019-.017.016-.024.037-.038.055-.021.026-.048.045-.065.074-.007.013-.007.028-.013.04a.6.6 0 0 0-.046.14c-.006.027-.015.052-.017.08-.002.017-.01.033-.01.051 0 .037.015.073.022.11q.005.04.017.08a.6.6 0 0 0 .058.118.6.6 0 0 0 .073.104c.007.008.01.02.019.027.018.019.04.027.06.043.024.02.041.045.07.061L24.74 13l-6.05 3.457c-.022.012-.032.037-.052.051-.026.019-.056.029-.078.052-.026.023-.04.057-.06.086-.017.024-.035.043-.049.07a.6.6 0 0 0-.08.284l.004.024V25c0 .023.015.042.017.064q.01.106.055.204c.017.035.039.063.062.095.018.025.028.054.05.076.026.026.058.04.087.06.016.012.023.032.04.042.01.005.02.003.03.008.015.008.028.024.044.031.08.03.16.05.24.05s.16-.02.24-.05c.017-.006.026-.021.042-.03.01-.004.02-.002.029-.007l7-4a.63.63 0 0 0 .314-.543v-8.007a.63.63 0 0 0-.15-.4m-1.1 8.045-5.75 3.285v-6.56l5.75-3.286zM13.32 11.56c-.12.12-.18.27-.18.44s.06.33.18.44c.11.12.27.19.44.19s.32-.07.44-.19c.12-.11.18-.27.18-.44s-.06-.32-.18-.44a.63.63 0 0 0-.88 0m1.88-1.1c-.3.17-.41.55-.23.85.11.2.32.32.54.32.1 0 .21-.03.31-.09a.621.621 0 1 0-.62-1.08m1.74-1c-.3.17-.4.55-.23.85.12.2.33.32.54.32.11 0 .22-.03.31-.09.3-.17.41-.55.24-.85-.18-.3-.56-.4-.86-.23m-2.88 12a.622.622 0 1 0-.62 1.08c.1.06.2.09.31.09.22 0 .43-.12.54-.32.17-.3.07-.68-.23-.85m1.75 1a.622.622 0 1 0-.62 1.08c.1.06.2.09.31.09.22 0 .43-.12.54-.32.17-.3.07-.68-.23-.85m1.75 1a.622.622 0 1 0-.62 1.08c.1.06.21.09.31.09.22 0 .43-.12.54-.32.17-.3.07-.68-.23-.85m-5.32-3.04a.66.66 0 0 0-.48 0c-.08.04-.14.08-.2.14a.63.63 0 0 0-.19.44c0 .08.02.16.05.24.03.07.08.14.14.2s.12.11.2.14.16.05.24.05.16-.02.24-.05.14-.08.2-.14.11-.12.14-.2.05-.16.05-.24c0-.16-.07-.32-.19-.44a.7.7 0 0 0-.2-.14M12 18.38a.61.61 0 0 0-.62.62c0 .34.27.63.62.63.34 0 .63-.29.63-.63 0-.35-.29-.62-.63-.62m0-4a.61.61 0 0 0-.62.62c0 .35.27.63.62.63.34 0 .63-.28.63-.63s-.29-.62-.63-.62m0 2a.61.61 0 0 0-.62.62c0 .35.27.63.62.63.34 0 .63-.28.63-.63s-.29-.62-.63-.62m.44-3.82a.61.61 0 0 0-.68-.14c-.07.04-.14.08-.2.14s-.11.13-.14.2c-.03.08-.05.16-.05.24 0 .16.07.32.19.44.06.06.13.11.2.14.08.03.16.05.24.05.16 0 .33-.07.44-.19.06-.06.11-.12.14-.2s.05-.16.05-.24-.02-.16-.05-.24a.6.6 0 0 0-.14-.2m1.62.9a.622.622 0 1 0-.62 1.08c.1.06.2.09.31.09.22 0 .43-.12.54-.32.17-.3.07-.68-.23-.85m3.5 2a.622.622 0 1 0-.62 1.08c.1.06.2.09.31.09.22 0 .43-.12.54-.32.18-.3.07-.68-.23-.85m-1.75-1a.622.622 0 1 0-.62 1.08c.1.06.2.09.31.09.21 0 .43-.12.54-.32.17-.3.07-.68-.23-.85"/>
</svg>
