<?xml version="1.0" encoding="UTF-8"?><svg id="uuid-907f1164-263a-482e-87f0-ff2cefd7ffbe" xmlns="http://www.w3.org/2000/svg" viewBox="0 0 38 38"><defs><style>.uuid-e66daaa0-87a5-401a-a0fb-4c9b4a1348f8{fill:#e00;}.uuid-3873e0ea-2192-43be-b962-90e082a7c48a{fill:#fff;}.uuid-5500ff06-2fa6-4017-a4b5-5fd77a0b0363{fill:#e0e0e0;}</style></defs><path class="uuid-3873e0ea-2192-43be-b962-90e082a7c48a" d="m28,1H10C5.02944,1,1,5.02944,1,10v18c0,4.97057,4.02944,9,9,9h18c4.97056,0,9-4.02943,9-9V10c0-4.97056-4.02944-9-9-9h0Z"/><path class="uuid-5500ff06-2fa6-4017-a4b5-5fd77a0b0363" d="m28,2.25c4.27332,0,7.75,3.47668,7.75,7.75v18c0,4.27332-3.47668,7.75-7.75,7.75H10c-4.27332,0-7.75-3.47668-7.75-7.75V10c0-4.27332,3.47668-7.75,7.75-7.75h18m0-1.25H10C5.02942,1,1,5.02942,1,10v18c0,4.97058,4.02942,9,9,9h18c4.97058,0,9-4.02942,9-9V10c0-4.97058-4.02942-9-9-9h0Z"/><path d="m22.99512,27.625c-.1084,0-.21582-.02832-.3125-.08398l-3.46387-2c-.19336-.11133-.3125-.31738-.3125-.54102v-4c0-.22363.11914-.42969.3125-.54102l3.46387-2c.19336-.11133.43164-.11133.625,0l3.46387,2c.19336.11133.3125.31738.3125.54102v4c0,.22363-.11914.42969-.3125.54102l-3.46387,2c-.09668.05566-.2041.08398-.3125.08398Zm-2.83887-2.98535l2.83887,1.63867,2.83887-1.63867v-3.2793l-2.83887-1.63867-2.83887,1.63867v3.2793Zm6.30273.36035h.00977-.00977Z"/><path d="m15,23.625h-5c-.34473,0-.625-.28027-.625-.625v-13c0-.34473.28027-.625.625-.625h13c.34473,0,.625.28027.625.625v5c0,.34473-.28027.625-.625.625s-.625-.28027-.625-.625v-4.375h-11.75v11.75h4.375c.34473,0,.625.28027.625.625s-.28027.625-.625.625Z"/><path class="uuid-e66daaa0-87a5-401a-a0fb-4c9b4a1348f8" d="m18.99902,30.55469c-.10547,0-.21289-.02734-.31152-.08398-2.66016-1.53809-4.3125-4.40039-4.3125-7.4707,0-4.75586,3.86914-8.625,8.625-8.625,2.47266,0,4.83105,1.06445,6.46875,2.9209.22852.25879.20312.65332-.05566.88184-.25684.22656-.65234.20508-.88184-.05566-1.40039-1.58691-3.41699-2.49707-5.53125-2.49707-4.06641,0-7.375,3.30859-7.375,7.375,0,2.625,1.41309,5.07324,3.6875,6.38867.29883.17285.40137.55469.22852.85352-.11621.2002-.32617.3125-.54199.3125Z"/></svg>