<svg viewBox="0 0 38 38">
    <path d="M28 1H10a9 9 0 0 0-9 9v18a9 9 0 0 0 9 9h18a9 9 0 0 0 9-9V10a9 9 0 0 0-9-9"/>
    <path fill="#fff" d="M10.099 22.19a.625.625 0 0 1-.255-1.196l2.74-1.22a.625.625 0 1 1 .51 1.142l-2.741 1.22a.6.6 0 0 1-.254.054m-1.267 3.3a.625.625 0 0 1-.255-1.195l2.74-1.22a.625.625 0 1 1 .51 1.141l-2.741 1.22a.6.6 0 0 1-.254.055M26.428 14.92a.625.625 0 0 1-.254-1.196l2.741-1.22a.625.625 0 1 1 .508 1.141l-2.741 1.22a.6.6 0 0 1-.254.054m-1.267 3.301a.625.625 0 0 1-.254-1.196l2.74-1.22a.625.625 0 1 1 .508 1.142l-2.74 1.22a.6.6 0 0 1-.254.054"/>
    <path fill="#e00" d="M18.952 28.634a9.6 9.6 0 0 1-6.123-2.218.625.625 0 0 1 .796-.963 8.38 8.38 0 0 0 13.713-6.105.61.61 0 0 1 .65-.598.625.625 0 0 1 .598.65 9.655 9.655 0 0 1-9.634 9.234m-8.977-9.408h-.03a.625.625 0 0 1-.595-.653 9.63 9.63 0 0 1 15.755-6.99.625.625 0 0 1-.796.964 8.378 8.378 0 0 0-13.71 6.082.625.625 0 0 1-.624.597"/>
</svg>
