<svg xmlns="http://www.w3.org/2000/svg" viewBox="0 0 38 38">
    <path d="M28 1H10a9 9 0 0 0-9 9v18a9 9 0 0 0 9 9h18a9 9 0 0 0 9-9V10a9 9 0 0 0-9-9" style="fill:#fff"/>
    <path d="M28 2.25c4.273 0 7.75 3.477 7.75 7.75v18c0 4.273-3.477 7.75-7.75 7.75H10c-4.273 0-7.75-3.477-7.75-7.75V10c0-4.273 3.477-7.75 7.75-7.75zM28 1H10a9 9 0 0 0-9 9v18a9 9 0 0 0 9 9h18a9 9 0 0 0 9-9V10a9 9 0 0 0-9-9" style="fill:#e0e0e0"/>
    <path d="M22.995 27.625a.6.6 0 0 1-.312-.084l-3.464-2a.62.62 0 0 1-.313-.541v-4c0-.224.12-.43.313-.541l3.464-2a.63.63 0 0 1 .625 0l3.463 2a.62.62 0 0 1 .313.541v4c0 .224-.12.43-.313.541l-3.463 2a.6.6 0 0 1-.313.084m-2.839-2.985 2.84 1.638 2.838-1.638v-3.28l-2.839-1.638-2.839 1.638zm6.303.36h.01zM15 23.625h-5A.626.626 0 0 1 9.375 23V10c0-.345.28-.625.625-.625h13c.345 0 .625.28.625.625v5a.626.626 0 0 1-1.25 0v-4.375h-11.75v11.75H15a.626.626 0 0 1 0 1.25"/>
    <path d="M18.999 30.555a.6.6 0 0 1-.311-.084A8.65 8.65 0 0 1 14.375 23c0-4.756 3.87-8.625 8.625-8.625a8.63 8.63 0 0 1 6.469 2.92.625.625 0 1 1-.938.827A7.38 7.38 0 0 0 23 15.625c-4.066 0-7.375 3.309-7.375 7.375a7.4 7.4 0 0 0 3.688 6.389.625.625 0 0 1-.314 1.166" style="fill:#e00"/>
</svg>
