<svg viewBox="0 0 38 38">
    <rect width="36" height="36" x="1" y="1" rx="9" ry="9"/>
    <path fill="#4d4d4d" d="M28 2.25c4.273 0 7.75 3.477 7.75 7.75v18c0 4.273-3.477 7.75-7.75 7.75H10c-4.273 0-7.75-3.477-7.75-7.75V10c0-4.273 3.477-7.75 7.75-7.75zM28 1H10a9 9 0 0 0-9 9v18a9 9 0 0 0 9 9h18a9 9 0 0 0 9-9V10a9 9 0 0 0-9-9"/>
    <path fill="#e00" d="M19 29.625a.6.6 0 0 1-.304-.079l-9-5a.626.626 0 0 1 .025-1.105l2-1a.626.626 0 0 1 .558 1.118l-.94.47L19 28.285l7.661-4.256-.94-.47a.624.624 0 1 1 .558-1.118l2 1a.623.623 0 0 1 .025 1.105l-9 5a.6.6 0 0 1-.304.079"/>
    <path fill="#fff" d="M19.153 21.394a.62.62 0 0 0-.759.453c-.2.794-.795 1.399-1.514 1.54-1.027.2-2.064-.657-2.272-1.531a1.6 1.6 0 0 1 .003-.723c.006-.03 0-.059.001-.089.003-.042.007-.082.002-.123s-.018-.077-.03-.115-.025-.075-.045-.11q-.031-.05-.07-.094c-.027-.03-.05-.06-.083-.086-.032-.026-.07-.044-.108-.063-.026-.014-.047-.034-.075-.044a4 4 0 0 1-1.356-.8c.052.004.1.016.153.016A2.63 2.63 0 0 0 15.625 17a.625.625 0 1 0-1.25 0 1.376 1.376 0 0 1-2.749.013l-.001-.015c-.006-1.67 1.328-3.188 2.479-3.382a3 3 0 0 1 .806.003c.769.112 1.326.514 1.658.832a.624.624 0 1 0 .864-.902 4.3 4.3 0 0 0-2.342-1.168 4.2 4.2 0 0 0-1.194.003c-.065.01-.131.04-.197.057A2.374 2.374 0 0 1 16 10.625 2.38 2.38 0 0 1 18.375 13c0 .025.011.046.014.07a.6.6 0 0 0 .025.122.6.6 0 0 0 .048.107.6.6 0 0 0 .366.291c.023.007.041.022.066.026q.052.009.105.009h.002c.08 0 .156-.018.228-.046.025-.01.045-.027.068-.04a.6.6 0 0 0 .123-.083c.022-.02.038-.043.057-.066a.6.6 0 0 0 .078-.116q.02-.042.033-.09c.008-.026.023-.05.028-.078.269-1.557 1.408-2.481 2.362-2.481h.015c.753.008 1.33.558 1.543.793a.625.625 0 1 0 .928-.836c-.323-.359-1.21-1.194-2.457-1.207h-.03c-1.145 0-2.207.69-2.892 1.746A3.62 3.62 0 0 0 16 9.375 3.63 3.63 0 0 0 12.375 13c0 .028.012.052.016.08-1.113.824-2.02 2.265-2.016 3.918v.004c.006 1.883 1.18 3.584 2.957 4.39-.01.256.002.508.06.753.307 1.292 1.629 2.523 3.17 2.523q.275 0 .558-.055c1.191-.234 2.167-1.199 2.485-2.46a.624.624 0 0 0-.452-.759"/>
    <path fill="#fff" d="m20.624 17.15.763-1.525h2.15c.273.589.865 1 1.555 1 .946 0 1.717-.77 1.717-1.717s-.77-1.717-1.717-1.717c-.76 0-1.398.5-1.624 1.184H21a.62.62 0 0 0-.559.346l-.786 1.573a1.7 1.7 0 0 0-.563-.103c-.947 0-1.717.77-1.717 1.717s.77 1.717 1.717 1.717a1.72 1.72 0 0 0 1.717-1.717c0-.274-.07-.529-.185-.759m4.468-2.709a.467.467 0 1 1 0 .935.467.467 0 0 1 0-.935m-6 3.934a.467.467 0 1 1 .001-.935.467.467 0 0 1-.001.935"/>
    <path fill="#fff" d="M25.092 17.375c-.69 0-1.282.412-1.555 1H22a.625.625 0 0 0-.625.625v2.537c-.588.273-1 .865-1 1.555 0 .947.77 1.717 1.717 1.717s1.717-.77 1.717-1.717c0-.76-.5-1.398-1.184-1.624v-1.843h.843a1.71 1.71 0 0 0 1.624 1.184c.946 0 1.717-.77 1.717-1.717s-.77-1.717-1.717-1.717m-3 6.184a.467.467 0 1 1 0-.935.467.467 0 0 1 0 .935m3-4a.467.467 0 1 1 0-.935.467.467 0 0 1 0 .935"/>
</svg>
