<svg xmlns="http://www.w3.org/2000/svg" viewBox="0 0 38 38">
    <rect width="36" height="36" x="1" y="1" rx="9" ry="9"/>
    <path d="M28 2.25c4.273 0 7.75 3.477 7.75 7.75v18c0 4.273-3.477 7.75-7.75 7.75H10c-4.273 0-7.75-3.477-7.75-7.75V10c0-4.273 3.477-7.75 7.75-7.75zM28 1H10a9 9 0 0 0-9 9v18a9 9 0 0 0 9 9h18a9 9 0 0 0 9-9V10a9 9 0 0 0-9-9" style="fill:#4d4d4d"/>
    <path d="M19 28.625c-5.958 0-10.625-2.69-10.625-6.125S13.042 16.375 19 16.375s10.625 2.69 10.625 6.125S24.958 28.625 19 28.625m0-11c-5.082 0-9.375 2.232-9.375 4.875s4.293 4.875 9.375 4.875 9.375-2.232 9.375-4.875-4.293-4.875-9.375-4.875" style="fill:#e00"/>
    <path d="M25.442 20.558a.626.626 0 0 0-.884 0l-1.933 1.933V10a.626.626 0 0 0-1.25 0v12.491l-1.933-1.933a.626.626 0 0 0-.884.884l3 3c.025.025.056.037.084.056.038.028.074.06.118.078a.63.63 0 0 0 .48 0c.044-.018.08-.05.118-.078.028-.02.06-.03.084-.056l3-3a.63.63 0 0 0 0-.884m-6.884-7.116a.623.623 0 0 0 .884 0 .63.63 0 0 0 0-.884l-3-3c-.027-.028-.062-.041-.093-.062-.036-.025-.068-.055-.108-.072a.63.63 0 0 0-.482 0c-.04.017-.072.047-.108.072-.03.021-.066.034-.093.062l-3 3a.626.626 0 0 0 .885.885l1.932-1.934V24a.626.626 0 0 0 1.25 0V11.509z" style="fill:#fff"/>
</svg>
