<?xml version="1.0" encoding="UTF-8"?><svg id="uuid-a565566d-36e6-4bd5-b08b-2e67d417f1a1" xmlns="http://www.w3.org/2000/svg" viewBox="0 0 38 38"><defs><style>.uuid-8cd34b09-19db-466b-85a5-e6e69e6ffd82{fill:#e00;}.uuid-47526ffc-b790-4d28-96b9-8b8aeebaa66f{fill:#fff;}.uuid-c7d180b3-e2d3-4c01-8a4f-718ff4760c7b{fill:#e0e0e0;}</style></defs><path class="uuid-47526ffc-b790-4d28-96b9-8b8aeebaa66f" d="m28,1H10C5.02944,1,1,5.02944,1,10v18c0,4.97057,4.02944,9,9,9h18c4.97056,0,9-4.02943,9-9V10c0-4.97056-4.02944-9-9-9h0Z"/><path class="uuid-c7d180b3-e2d3-4c01-8a4f-718ff4760c7b" d="m28,2.25c4.27332,0,7.75,3.47668,7.75,7.75v18c0,4.27332-3.47668,7.75-7.75,7.75H10c-4.27332,0-7.75-3.47668-7.75-7.75V10c0-4.27332,3.47668-7.75,7.75-7.75h18m0-1.25H10C5.02942,1,1,5.02942,1,10v18c0,4.97058,4.02942,9,9,9h18c4.97058,0,9-4.02942,9-9V10c0-4.97058-4.02942-9-9-9h0Z"/><path class="uuid-8cd34b09-19db-466b-85a5-e6e69e6ffd82" d="m14,23.625h-4c-.34473,0-.625-.28027-.625-.625v-4c0-.34473.28027-.625.625-.625h4c.34473,0,.625.28027.625.625v4c0,.34473-.28027.625-.625.625Zm-3.375-1.25h2.75v-2.75h-2.75v2.75Z"/><path class="uuid-8cd34b09-19db-466b-85a5-e6e69e6ffd82" d="m21,23.625h-4c-.34473,0-.625-.28027-.625-.625v-4c0-.34473.28027-.625.625-.625h4c.34473,0,.625.28027.625.625v4c0,.34473-.28027.625-.625.625Zm-3.375-1.25h2.75v-2.75h-2.75v2.75Z"/><path class="uuid-8cd34b09-19db-466b-85a5-e6e69e6ffd82" d="m17.5,16.625h-4c-.34473,0-.625-.28027-.625-.625v-4c0-.34473.28027-.625.625-.625h4c.34473,0,.625.28027.625.625v4c0,.34473-.28027.625-.625.625Zm-3.375-1.25h2.75v-2.75h-2.75v2.75Z"/><path class="uuid-8cd34b09-19db-466b-85a5-e6e69e6ffd82" d="m24.5,16.625h-4c-.34473,0-.625-.28027-.625-.625v-4c0-.34473.28027-.625.625-.625h4c.34473,0,.625.28027.625.625v4c0,.34473-.28027.625-.625.625Zm-3.375-1.25h2.75v-2.75h-2.75v2.75Z"/><path class="uuid-8cd34b09-19db-466b-85a5-e6e69e6ffd82" d="m28,23.625h-4c-.34473,0-.625-.28027-.625-.625v-4c0-.34473.28027-.625.625-.625h4c.34473,0,.625.28027.625.625v4c0,.34473-.28027.625-.625.625Zm-3.375-1.25h2.75v-2.75h-2.75v2.75Z"/><path d="m29,26.625H9c-.34473,0-.625-.28027-.625-.625s.28027-.625.625-.625h20c.34473,0,.625.28027.625.625s-.28027.625-.625.625Z"/></svg>