<svg xmlns="http://www.w3.org/2000/svg" viewBox="0 0 38 38">
    <path d="M28 1H10a9 9 0 0 0-9 9v18a9 9 0 0 0 9 9h18a9 9 0 0 0 9-9V10a9 9 0 0 0-9-9" style="fill:#fff"/>
    <path d="M28 2.25c4.273 0 7.75 3.477 7.75 7.75v18c0 4.273-3.477 7.75-7.75 7.75H10c-4.273 0-7.75-3.477-7.75-7.75V10c0-4.273 3.477-7.75 7.75-7.75zM28 1H10a9 9 0 0 0-9 9v18a9 9 0 0 0 9 9h18a9 9 0 0 0 9-9V10a9 9 0 0 0-9-9" style="fill:#e0e0e0"/>
    <path d="M22 15.375h-6a.626.626 0 0 0-.625.625v6c0 .345.28.625.625.625h3a.626.626 0 0 0 0-1.25h-2.375v-4.75h4.75V19a.626.626 0 0 0 1.25 0v-3a.626.626 0 0 0-.625-.625m-10.5-.25a2.12 2.12 0 0 0 2.02-1.5h1.221l.817.817a.623.623 0 0 0 .884 0 .63.63 0 0 0 0-.884l-1-1a.63.63 0 0 0-.442-.183h-1.48a2.12 2.12 0 0 0-2.02-1.5c-1.172 0-2.125.953-2.125 2.125s.953 2.125 2.125 2.125m0-3a.876.876 0 0 1 0 1.75.876.876 0 0 1 0-1.75m15-1.25a2.12 2.12 0 0 0-2.02 1.5H23a.63.63 0 0 0-.442.183l-1 1a.63.63 0 0 0 0 .884.623.623 0 0 0 .884 0l.817-.817h1.22a2.12 2.12 0 0 0 2.021 1.5c1.172 0 2.125-.953 2.125-2.125s-.953-2.125-2.125-2.125m0 3a.876.876 0 0 1 0-1.75.876.876 0 0 1 0 1.75m-10.942 9.683-.817.817h-1.22a2.12 2.12 0 0 0-2.021-1.5c-1.172 0-2.125.953-2.125 2.125s.953 2.125 2.125 2.125a2.12 2.12 0 0 0 2.02-1.5H15a.63.63 0 0 0 .442-.183l1-1a.626.626 0 0 0-.885-.885M11.5 25.875a.876.876 0 0 1 0-1.75.876.876 0 0 1 0 1.75m1.125-5.375v-.875H14a.626.626 0 0 0 0-1.25h-1.375V17.5a.626.626 0 0 0-.625-.625H9a.626.626 0 0 0-.625.625v3c0 .345.28.625.625.625h3c.345 0 .625-.28.625-.625m-1.25-.625h-1.75v-1.75h1.75z"/>
    <path d="m29.442 18.896-1.338-1.338a.626.626 0 0 0-.884 0l-7.588 7.588c-.031.03-.047.07-.07.105-.019.029-.045.05-.06.083l-1.073 2.412a.627.627 0 0 0 .571.879.6.6 0 0 0 .254-.054l2.412-1.074c.032-.014.054-.04.083-.059.035-.023.074-.039.105-.07l7.588-7.588a.63.63 0 0 0 0-.884m-8.391 7.506-.818.365.365-.818 7.064-7.065.454.454z" style="fill:#ed0000"/>
</svg>
