<svg viewBox="0 0 40 40">
    <path d="M28 1H10a9 9 0 0 0-9 9v18a9 9 0 0 0 9 9h18a9 9 0 0 0 9-9V10a9 9 0 0 0-9-9"/>
    <path fill="red" d="M27.432 14.517a2.658 2.658 0 1 1 2.658-2.658 2.66 2.66 0 0 1-2.658 2.658m0-3.708a1.05 1.05 0 1 0 1.05 1.05 1.05 1.05 0 0 0-1.05-1.05m-3.517 19.286a4.884 4.884 0 1 1 4.884-4.883 4.89 4.89 0 0 1-4.884 4.883m0-8.16a3.276 3.276 0 1 0 3.277 3.277 3.28 3.28 0 0 0-3.277-3.277"/>
    <path fill="#fff" d="M16.974 26.372a.804.804 0 0 1-.051-1.606q.29-.019.573-.058a.803.803 0 1 1 .229 1.59q-.346.05-.699.073zm-3.559-.62a.8.8 0 0 1-.318-.066 8.6 8.6 0 0 1-1.183-.625.804.804 0 0 1 .86-1.358 7 7 0 0 0 .96.507.804.804 0 0 1-.319 1.542M9.822 22.61a.8.8 0 0 1-.689-.388 8.5 8.5 0 0 1-.599-1.198.803.803 0 1 1 1.49-.602 7 7 0 0 0 .486.969.803.803 0 0 1-.688 1.22m-1.087-4.644q-.033 0-.065-.003a.803.803 0 0 1-.737-.865 8.5 8.5 0 0 1 .211-1.32.804.804 0 1 1 1.562.377 7 7 0 0 0-.17 1.071.804.804 0 0 1-.801.74M23.63 15.46a.8.8 0 0 1-.736-.48 7 7 0 0 0-.514-.957.804.804 0 0 1 1.354-.867 8.5 8.5 0 0 1 .632 1.178.804.804 0 0 1-.736 1.126m-13.07-1.904a.804.804 0 0 1-.613-1.324 8.6 8.6 0 0 1 .942-.948.804.804 0 1 1 1.049 1.218 7 7 0 0 0-.766.771.8.8 0 0 1-.613.283m9.901-1.665a.8.8 0 0 1-.41-.112 7 7 0 0 0-.973-.479.804.804 0 0 1 .593-1.494 8.6 8.6 0 0 1 1.201.59.804.804 0 0 1-.41 1.495m-5.849-.854a.803.803 0 0 1-.193-1.583 8.6 8.6 0 0 1 1.318-.22.804.804 0 0 1 .14 1.6 7 7 0 0 0-1.07.18.8.8 0 0 1-.195.023m9.597 8.673a1 1 0 0 1-.116-.008.803.803 0 0 1-.68-.91q.039-.28.056-.569a.82.82 0 0 1 .849-.755.804.804 0 0 1 .756.85q-.021.355-.072.703a.8.8 0 0 1-.793.689"/>
</svg>
