<svg viewBox="0 0 37 37">
    <rect width="36" height="36" x="1" y="1" fill="#fff" rx="9" ry="9"/>
    <path fill="#e0e0e0" d="M28 2.25c4.273 0 7.75 3.477 7.75 7.75v18c0 4.273-3.477 7.75-7.75 7.75H10c-4.273 0-7.75-3.477-7.75-7.75V10c0-4.273 3.477-7.75 7.75-7.75zM28 1H10a9 9 0 0 0-9 9v18a9 9 0 0 0 9 9h18a9 9 0 0 0 9-9V10a9 9 0 0 0-9-9"/>
    <path fill="#e00" d="M27.227 14.288a2.43 2.43 0 0 1-2.428-2.428 2.43 2.43 0 0 1 2.428-2.427 2.43 2.43 0 0 1 2.426 2.427 2.43 2.43 0 0 1-2.426 2.428m0-3.605a1.179 1.179 0 0 0 0 2.355 1.179 1.179 0 0 0 0-2.355m-3.418 19c-2.532 0-4.59-2.06-4.59-4.59s2.058-4.591 4.59-4.591 4.59 2.059 4.59 4.59-2.06 4.59-4.59 4.59m0-7.931c-1.842 0-3.34 1.499-3.34 3.34s1.498 3.34 3.34 3.34 3.34-1.498 3.34-3.34-1.499-3.34-3.34-3.34"/>
    <path d="M16.937 26.07a.624.624 0 0 1-.028-1.25q.345-.014.683-.063a.624.624 0 1 1 .178 1.237 8 8 0 0 1-.806.076zm-3.097-.51a.6.6 0 0 1-.229-.044 8.2 8.2 0 0 1-1.513-.785.625.625 0 1 1 .687-1.043 7 7 0 0 0 1.283.664.625.625 0 0 1-.228 1.207m-3.605-2.951a.63.63 0 0 1-.526-.286 8.3 8.3 0 0 1-.77-1.52.626.626 0 0 1 1.167-.447c.172.45.392.884.654 1.289a.626.626 0 0 1-.525.964m-1.194-4.501-.033-.001a.624.624 0 0 1-.592-.656 8 8 0 0 1 .265-1.685.624.624 0 1 1 1.207.323c-.123.462-.2.942-.224 1.426a.625.625 0 0 1-.623.593m14.593-2.405a.625.625 0 0 1-.58-.392 7 7 0 0 0-.674-1.28.625.625 0 0 1 1.04-.693c.314.472.582.978.794 1.507a.625.625 0 0 1-.58.858m-12.93-1.944a.625.625 0 0 1-.486-1.017 8 8 0 0 1 1.2-1.21.626.626 0 0 1 .791.968 7 7 0 0 0-1.02 1.026.62.62 0 0 1-.486.233m9.955-1.641a.6.6 0 0 1-.334-.098 7 7 0 0 0-1.294-.645.626.626 0 0 1 .438-1.17 8 8 0 0 1 1.526.76.624.624 0 0 1-.336 1.153m-6.061-.913a.625.625 0 0 1-.165-1.228 8.2 8.2 0 0 1 1.682-.275c.32-.017.64.242.66.587a.625.625 0 0 1-.587.66 7 7 0 0 0-1.425.234.6.6 0 0 1-.165.022m9.497 8.385a.624.624 0 0 1-.62-.714 7 7 0 0 0 .064-.684c.016-.345.355-.609.653-.595a.624.624 0 0 1 .595.654q-.019.407-.075.803a.624.624 0 0 1-.617.536"/>
</svg>
