<svg xmlns="http://www.w3.org/2000/svg" viewBox="0 0 38 38">
    <path d="M10 1a9 9 0 0 0-9 9v18a9 9 0 0 0 9 9h18a9 9 0 0 0 9-9V10a9 9 0 0 0-9-9z" style="fill:#fff"/>
    <path d="M28 2.25c4.273 0 7.75 3.477 7.75 7.75v18c0 4.273-3.477 7.75-7.75 7.75H10c-4.273 0-7.75-3.477-7.75-7.75V10c0-4.273 3.477-7.75 7.75-7.75zM28 1H10a9 9 0 0 0-9 9v18a9 9 0 0 0 9 9h18a9 9 0 0 0 9-9V10a9 9 0 0 0-9-9" style="fill:#e0e0e0"/>
    <path d="M14 10.476h-3a.626.626 0 0 0-.625.625v3c0 .344.28.625.625.625h3c.345 0 .625-.28.625-.625v-3a.626.626 0 0 0-.625-.625m-.625 3h-1.75v-1.75h1.75zm13.625-3h-3a.626.626 0 0 0-.625.625v3c0 .344.28.625.625.625h3c.345 0 .625-.28.625-.625v-3a.626.626 0 0 0-.625-.625m-.625 3h-1.75v-1.75h1.75zm.625 10h-3a.626.626 0 0 0-.625.625v3c0 .344.28.625.625.625h3c.345 0 .625-.28.625-.625v-3a.626.626 0 0 0-.625-.625m-.625 3h-1.75v-1.75h1.75zm-12.375-3h-3a.626.626 0 0 0-.625.625v3c0 .344.28.625.625.625h3c.345 0 .625-.28.625-.625v-3a.626.626 0 0 0-.625-.625m-.625 3h-1.75v-1.75h1.75z" style="fill:#e00"/>
    <path d="M21.155 10.747a8.75 8.75 0 0 0-4.31 0 .626.626 0 0 0 .31 1.211 7.5 7.5 0 0 1 3.69 0 .625.625 0 1 0 .31-1.21m-9.748 5.747a.62.62 0 0 0-.76.45 8.7 8.7 0 0 0 0 4.31.625.625 0 0 0 1.21-.31 7.4 7.4 0 0 1 0-3.69.625.625 0 0 0-.45-.76m9.438 9.748a7.5 7.5 0 0 1-3.69 0c-.337-.088-.675.116-.76.45s.116.675.45.761a8.7 8.7 0 0 0 4.31 0 .626.626 0 0 0-.31-1.21m6.509-9.299a.625.625 0 1 0-1.21.31 7.4 7.4 0 0 1-.001 3.69.626.626 0 0 0 1.21.31 8.7 8.7 0 0 0 0-4.31m-6.442.441a1.912 1.912 0 0 0-3.822 0c0 .627.308 1.18.777 1.53l-.759 3.033a.625.625 0 0 0 .606.776h2.573a.625.625 0 0 0 .607-.776l-.76-3.034c.47-.348.778-.902.778-1.53m-2.396 4.09L19 19.534l.485 1.942zm.485-3.43a.66.66 0 0 1-.661-.66.662.662 0 1 1 .661.66"/>
</svg>
