<svg viewBox="0 0 38 38">
    <g fill="none">
        <rect width="36" height="36" fill="#000" rx="9"/>
        <path fill="#e00" d="M14.5 28.525a.624.624 0 0 1-.546-.929l3.5-6.3a.624.624 0 1 1 1.092.608l-3.5 6.3a.62.62 0 0 1-.546.32"/>
        <path fill="#fff" d="M14.5 28.525a.62.62 0 0 1-.546-.321l-5.5-9.9a.63.63 0 0 1 0-.608l5.5-9.9a.625.625 0 0 1 1.093.607L9.714 18l5.331 9.596a.625.625 0 0 1-.545.929"/>
        <path fill="#e00" d="M21.499 28.525a.625.625 0 0 1-.545-.929l5.5-9.9a.623.623 0 1 1 1.092.608l-5.5 9.9a.62.62 0 0 1-.547.32m-3.498-13.499a.63.63 0 0 1-.547-.321l-3.5-6.3a.625.625 0 0 1 1.092-.608l3.5 6.3a.625.625 0 0 1-.545.929"/>
        <path fill="#fff" d="M21.501 28.525a.62.62 0 0 1-.547-.321l-5.5-9.9a.63.63 0 0 1 0-.608l5.5-9.9a.624.624 0 1 1 1.092.608L16.715 18l5.33 9.596a.625.625 0 0 1-.544.929"/>
        <path fill="#e00" d="M27.001 18.625a.62.62 0 0 1-.547-.321l-5.5-9.9a.625.625 0 1 1 1.092-.608l5.5 9.9a.625.625 0 0 1-.545.929"/>
    </g>
</svg>
