<svg viewBox="0 0 25 25">
    <g fill="none">
        <path fill="#fff" d="M18 1.071A4.934 4.934 0 0 1 22.929 6v12A4.934 4.934 0 0 1 18 22.929H6A4.934 4.934 0 0 1 1.071 18V6A4.934 4.934 0 0 1 6 1.071z"/>
        <path fill="#000" d="M18 1.071A4.934 4.934 0 0 1 22.929 6v12A4.934 4.934 0 0 1 18 22.929H6A4.934 4.934 0 0 1 1.071 18V6A4.934 4.934 0 0 1 6 1.071zM18 0H6a6 6 0 0 0-6 6v12a6 6 0 0 0 6 6h12a6 6 0 0 0 6-6V6a6 6 0 0 0-6-6"/>
        <path fill="#e00" d="M14.621 12.38c1.031 0 2.524-.213 2.524-1.44a1.2 1.2 0 0 0-.026-.281l-.614-2.668c-.142-.587-.266-.853-1.297-1.368-.8-.41-2.541-1.085-3.057-1.085-.48 0-.619.619-1.191.619-.55 0-.96-.462-1.475-.462-.494 0-.817.337-1.066 1.03 0 0-.693 1.956-.782 2.24a.5.5 0 0 0-.018.16c0 .76 2.992 3.252 7.002 3.252m2.682-.938c.143.675.143.746.143.835 0 1.154-1.298 1.794-3.004 1.794-3.855.003-7.231-2.256-7.231-3.749 0-.208.042-.413.124-.604-1.386.07-3.181.316-3.181 1.9 0 2.596 6.149 5.795 11.018 5.795 3.733 0 4.674-1.689 4.674-3.022 0-1.048-.907-2.239-2.541-2.95"/>
        <path fill="#000" d="M17.12 10.659q.03.139.025.282c0 1.226-1.493 1.44-2.524 1.44-4.01 0-7.002-2.493-7.002-3.256a.5.5 0 0 1 .018-.16l-.302.747c-.082.19-.125.396-.124.604 0 1.493 3.38 3.75 7.233 3.75 1.706 0 3.003-.64 3.003-1.796 0-.089 0-.16-.142-.835z"/>
    </g>
</svg>
