<svg viewBox="0 0 54 54">
    <g fill="none">
        <path fill="#000" stroke="#4d4d4d" d="M39 1c3.314 0 6.314 1.343 8.485 3.515A11.96 11.96 0 0 1 51 13v26c0 3.314-1.343 6.314-3.515 8.485A11.96 11.96 0 0 1 39 51H13a11.96 11.96 0 0 1-8.485-3.515A11.96 11.96 0 0 1 1 39V13c0-3.314 1.343-6.314 3.515-8.485A11.96 11.96 0 0 1 13 1z"/>
        <path fill="#e00" d="M25.375 39.375a.9.9 0 0 1-.429-.112L10.97 31.5a.88.88 0 0 1 0-1.542l5.507-3.059a.881.881 0 1 1 .858 1.541l-4.119 2.29 12.16 6.755 12.16-6.756-4.118-2.289a.881.881 0 1 1 .857-1.54l5.507 3.058a.88.88 0 0 1 0 1.542l-13.977 7.764a.9.9 0 0 1-.429.112m-.001-12.706a.9.9 0 0 1-.429-.112L10.97 18.793a.88.88 0 0 1 0-1.542l13.977-7.764a.881.881 0 1 1 .858 1.541l-12.589 6.994 12.16 6.756 13.548-7.527a.881.881 0 1 1 .858 1.541l-13.977 7.766a.9.9 0 0 1-.429.111"/>
        <path fill="#e00" d="M18.67 22.865a.883.883 0 0 1-.43-1.653l9.53-5.294a.881.881 0 1 1 .858 1.541l-9.53 5.295a.9.9 0 0 1-.428.111"/>
        <path fill="#fff" d="M25.375 33.1a.9.9 0 0 1-.429-.11L10.83 25.145a.881.881 0 1 1 .857-1.542l13.689 7.605 13.689-7.605a.882.882 0 0 1 .857 1.542l-14.117 7.843a.9.9 0 0 1-.429.112"/>
    </g>
</svg>
