<svg xmlns="http://www.w3.org/2000/svg" viewBox="0 0 38 38">
    <rect width="36" height="36" x="1" y="1" rx="9" ry="9"/>
    <path d="M28 2.25c4.273 0 7.75 3.477 7.75 7.75v18c0 4.273-3.477 7.75-7.75 7.75H10c-4.273 0-7.75-3.477-7.75-7.75V10c0-4.273 3.477-7.75 7.75-7.75zM28 1H10a9 9 0 0 0-9 9v18a9 9 0 0 0 9 9h18a9 9 0 0 0 9-9V10a9 9 0 0 0-9-9" style="fill:#4d4d4d"/>
    <path d="M27 14.375a.626.626 0 0 0-.625.625v9.299h-14.75v-8.75H17a.626.626 0 0 0 0-1.25h-6a.626.626 0 0 0-.625.625v10c0 .345.28.625.625.625h6.375v1.826H16a.626.626 0 0 0 0 1.25h7a.626.626 0 0 0 0-1.25h-1.48v-1.826H27c.345 0 .625-.28.625-.625V15a.626.626 0 0 0-.625-.625m-8.375 13v-1.75h1.645v1.75z" style="fill:#fff"/>
    <path d="m20.236 18.36 1.992-.778a.6.6 0 0 0 .293-.238l4-6.069a.624.624 0 0 0-.257-.91l-2-.931a.624.624 0 0 0-.786.222l-3.992 6.067a.63.63 0 0 0-.102.343v1.299l-4.628 2.083a.625.625 0 0 0 .01 1.145l4.625 1.981a.6.6 0 0 0 .492 0l4.624-1.981a.624.624 0 0 0-.007-1.152l-2.408-1a.624.624 0 1 0-.479 1.155l1.04.431-3.016 1.293-3.07-1.315 3.641-1.64q.016-.001.028-.005m.398-2.106 3.592-5.46.853.398-3.491 5.298-.954.373z" style="fill:#ed0000"/>
</svg>
