<svg viewBox="0 0 38 38">
    <defs>
        <style>
            .uuid-de0db12b-39a3-40f2-8eaf-54c1883cabcf{fill:#e00}.uuid-f460fd29-4665-465e-8c5b-a95aeccfba62{fill:#fff}
        </style>
    </defs>
    <rect width="36" height="36" x="1" y="1" rx="9" ry="9"/>
    <path d="M28 2.25c4.273 0 7.75 3.477 7.75 7.75v18c0 4.273-3.477 7.75-7.75 7.75H10c-4.273 0-7.75-3.477-7.75-7.75V10c0-4.273 3.477-7.75 7.75-7.75zM28 1H10a9 9 0 0 0-9 9v18a9 9 0 0 0 9 9h18a9 9 0 0 0 9-9V10a9 9 0 0 0-9-9" style="fill:#4d4d4d"/>
    <path d="M18 18.701a.62.62 0 0 1-.376-.126 4.4 4.4 0 0 0-.874-.51.623.623 0 0 1-.322-.823.623.623 0 0 1 .822-.322c.4.174.778.395 1.126.657A.625.625 0 0 1 18 18.701m7.547-8.222.861-.86a.626.626 0 0 0-.885-.885l-2 2a.63.63 0 0 0 0 .884l2 2a.623.623 0 0 0 .885 0 .63.63 0 0 0 0-.885l-.99-.99c2.214.214 3.957 2.064 3.957 4.333A4.38 4.38 0 0 1 25 20.451a4.34 4.34 0 0 1-2.624-.874.625.625 0 0 0-.752.998A5.58 5.58 0 0 0 25 21.701a5.63 5.63 0 0 0 5.625-5.625 5.63 5.63 0 0 0-5.078-5.597" class="uuid-f460fd29-4665-465e-8c5b-a95aeccfba62"/>
    <path d="M22.5 11.701a.624.624 0 0 0-.875-.125 5.58 5.58 0 0 0-2.25 4.5v6A4.38 4.38 0 0 1 15 26.451a4.35 4.35 0 0 1-2.55-.826H14a.626.626 0 0 0 0-1.25h-3a.626.626 0 0 0-.625.625v3a.626.626 0 0 0 1.25 0v-1.43A5.6 5.6 0 0 0 15 27.7a5.63 5.63 0 0 0 5.625-5.625v-6a4.34 4.34 0 0 1 1.75-3.5.625.625 0 0 0 .125-.875" class="uuid-de0db12b-39a3-40f2-8eaf-54c1883cabcf"/>
    <path d="M11.5 23.073a4.13 4.13 0 0 1-4.125-4.125V14.92c0-.295.206-.55.495-.611l3.5-.745a.7.7 0 0 1 .26 0l3.5.745a.624.624 0 0 1 .495.61v4.03a4.13 4.13 0 0 1-4.125 4.124m-2.875-7.647v3.522c0 1.585 1.29 2.875 2.875 2.875s2.875-1.29 2.875-2.875v-3.522l-2.875-.612z" class="uuid-de0db12b-39a3-40f2-8eaf-54c1883cabcf"/>
    <path d="M11 19.8c-.16 0-.32-.06-.442-.182l-1-1a.626.626 0 0 1 .885-.885l.557.559 1.558-1.559a.626.626 0 0 1 .884.885l-2 2a.62.62 0 0 1-.442.183" class="uuid-f460fd29-4665-465e-8c5b-a95aeccfba62"/>
</svg>
