<svg viewBox="0 0 38 38"><defs><style>.uuid-de0db12b-39a3-40f2-8eaf-54c1883cabcf{fill:#e00;}.uuid-f460fd29-4665-465e-8c5b-a95aeccfba62{fill:#fff;}.uuid-709a1162-22ce-493f-be02-ce806dc24b9b{fill:#4d4d4d;}</style></defs><rect x="1" y="1" width="36" height="36" rx="9" ry="9"/><path class="uuid-709a1162-22ce-493f-be02-ce806dc24b9b" d="m28,2.25c4.27338,0,7.75,3.47662,7.75,7.75v18c0,4.27338-3.47662,7.75-7.75,7.75H10c-4.27338,0-7.75-3.47662-7.75-7.75V10c0-4.27338,3.47662-7.75,7.75-7.75h18m0-1.25H10C5.02942,1,1,5.02942,1,10v18c0,4.97058,4.02942,9,9,9h18c4.97058,0,9-4.02942,9-9V10c0-4.97058-4.02942-9-9-9h0Z"/><path class="uuid-f460fd29-4665-465e-8c5b-a95aeccfba62" d="m18,18.70117c-.13086,0-.2627-.04102-.37598-.12598-.27051-.20312-.56445-.375-.87402-.51074-.31641-.1377-.46094-.50586-.32227-.82227.1377-.31738.50879-.46191.82227-.32227.39941.17383.77832.39551,1.12598.65723.27539.20703.33105.59863.12305.875-.12207.16309-.30957.24902-.49902.24902Z"/><path class="uuid-f460fd29-4665-465e-8c5b-a95aeccfba62" d="m25.54694,10.47888l.86127-.86072c.24316-.24414.24316-.64062,0-.88477-.24414-.24414-.64062-.24414-.88477,0l-2,2c-.24316.24414-.24316.64062,0,.88477l2,2c.12207.12207.28223.18262.44238.18262s.32031-.06055.44238-.18262c.24316-.24414.24316-.64062,0-.88477l-.9906-.98999c2.21393.21387,3.9574,2.06366,3.9574,4.33276,0,2.41211-1.96289,4.375-4.375,4.375-.95605,0-1.86328-.30273-2.62402-.87402-.27637-.20703-.66797-.15234-.875.12305-.20801.27637-.15234.66797.12305.875.97949.73633,2.14648,1.12598,3.37598,1.12598,3.10156,0,5.625-2.52344,5.625-5.625,0-2.91693-2.23236-5.32117-5.07806-5.59729Z"/><path class="uuid-de0db12b-39a3-40f2-8eaf-54c1883cabcf" d="m22.5,11.70117c-.20801-.27832-.60059-.33105-.875-.125-1.42969,1.07324-2.25,2.71387-2.25,4.5v6c0,2.41211-1.96289,4.375-4.375,4.375-.93176,0-1.81445-.29657-2.54907-.82617h1.54907c.34473,0,.625-.28027.625-.625s-.28027-.625-.625-.625h-3c-.34473,0-.625.28027-.625.625v3c0,.34473.28027.625.625.625s.625-.28027.625-.625v-1.43036c.96271.72595,2.13568,1.13153,3.375,1.13153,3.10156,0,5.625-2.52344,5.625-5.625v-6c0-1.38965.6377-2.66504,1.75-3.5.27637-.20703.33203-.59961.125-.875Z"/><path class="uuid-de0db12b-39a3-40f2-8eaf-54c1883cabcf" d="m11.5,23.07324c-2.27441,0-4.125-1.85059-4.125-4.125v-4.02832c0-.29492.20605-.5498.49512-.61133l3.5-.74414c.08594-.01758.17383-.01758.25977,0l3.5.74414c.28906.06152.49512.31641.49512.61133v4.02832c0,2.27441-1.85059,4.125-4.125,4.125Zm-2.875-7.64746v3.52246c0,1.58496,1.29004,2.875,2.875,2.875s2.875-1.29004,2.875-2.875v-3.52246l-2.875-.61133-2.875.61133Z"/><path class="uuid-f460fd29-4665-465e-8c5b-a95aeccfba62" d="m11,19.80078c-.16016,0-.32031-.06055-.44238-.18262l-1-1c-.24316-.24414-.24316-.64062,0-.88477.24414-.24414.64062-.24414.88477,0l.55762.55859,1.55762-1.55859c.24414-.24414.64062-.24414.88477,0,.24316.24414.24316.64062,0,.88477l-2,2c-.12207.12207-.28223.18262-.44238.18262Z"/></svg>