<svg xmlns="http://www.w3.org/2000/svg" id="uuid-909b7357-27c6-4194-b285-85720c1345f6" viewBox="0 0 38 38">
    <defs>
        <style>
            .uuid-475a9b6a-db7c-43e5-8f35-b1e165ed679b{fill:#ed0000}
        </style>
    </defs>
    <rect width="36" height="36" x="1" y="1" rx="9" ry="9"/>
    <path d="M28 2.25c4.273 0 7.75 3.477 7.75 7.75v18c0 4.273-3.477 7.75-7.75 7.75H10c-4.273 0-7.75-3.477-7.75-7.75V10c0-4.273 3.477-7.75 7.75-7.75zM28 1H10a9 9 0 0 0-9 9v18a9 9 0 0 0 9 9h18a9 9 0 0 0 9-9V10a9 9 0 0 0-9-9" style="fill:#4d4d4d"/>
    <path d="M28 27.625h-8a.626.626 0 0 1-.625-.625v-8c0-.345.28-.625.625-.625h8c.345 0 .625.28.625.625v8c0 .345-.28.625-.625.625m-7.375-1.25h6.75v-6.75h-6.75z" class="uuid-475a9b6a-db7c-43e5-8f35-b1e165ed679b"/>
    <path d="M17 23.625h-4A4.63 4.63 0 0 1 8.375 19a4.63 4.63 0 0 1 4.547-4.624A6.63 6.63 0 0 1 19 10.375a6.6 6.6 0 0 1 6.533 5.521.624.624 0 1 1-1.232.208A5.355 5.355 0 0 0 19 11.625a5.38 5.38 0 0 0-5.073 3.614.63.63 0 0 1-.645.418l-.156-.018c-.042-.006-.083-.014-.126-.014-1.861 0-3.375 1.514-3.375 3.375s1.514 3.375 3.375 3.375h4a.626.626 0 0 1 0 1.25" style="fill:#fff"/>
    <path d="M26 21.62a.6.6 0 0 1-.44-.18c-.12-.12-.19-.28-.19-.44s.07-.32.19-.44a.6.6 0 0 1 .2-.14c.15-.06.32-.06.48 0 .08.03.15.08.2.14.12.12.19.28.19.44s-.07.32-.19.44c-.06.06-.12.11-.2.14a.7.7 0 0 1-.24.04m-2 .01c-.08 0-.16-.02-.24-.05a.7.7 0 0 1-.2-.14.6.6 0 0 1-.14-.2c-.03-.08-.05-.16-.05-.24s.02-.16.05-.24c.03-.07.08-.15.14-.2.06-.06.13-.1.2-.14a.65.65 0 0 1 .82.34c.03.08.05.16.05.24s-.02.16-.05.24c-.03.07-.08.15-.14.2a.6.6 0 0 1-.44.19" class="uuid-475a9b6a-db7c-43e5-8f35-b1e165ed679b"/>
</svg>
