<svg xmlns="http://www.w3.org/2000/svg" viewBox="0 0 38 38">
    <defs>
        <style>
            .cls-4{stroke-width:0;fill:#e00}
        </style>
    </defs>
    <g id="Bounding_shape">
        <rect width="36" height="36" x="1" y="1" rx="9" ry="9" style="stroke-width:0"/>
        <path d="M28 2.25c4.27 0 7.75 3.48 7.75 7.75v18c0 4.27-3.48 7.75-7.75 7.75H10c-4.27 0-7.75-3.48-7.75-7.75V10c0-4.27 3.48-7.75 7.75-7.75zM28 1H10a9 9 0 0 0-9 9v18a9 9 0 0 0 9 9h18a9 9 0 0 0 9-9V10a9 9 0 0 0-9-9" style="stroke-width:0;fill:#4d4d4d"/>
    </g>
    <g id="Icons">
        <path d="m22.44 21.56-1-1a.63.63 0 0 0-.88 0c-.24.24-.24.64 0 .88l1 1c.12.12.28.18.44.18s.32-.06.44-.18c.24-.24.24-.64 0-.88m-6-6a.63.63 0 0 0-.88 0c-.24.24-.24.64 0 .88l1 1c.12.12.28.18.44.18s.32-.06.44-.18c.24-.24.24-.64 0-.88z" class="cls-4"/>
        <path d="M14 17.63c.16 0 .32-.06.44-.18l3-3c.24-.24.24-.64 0-.88l-4-4a.63.63 0 0 0-.88 0l-3 3c-.24.24-.24.64 0 .88l4 4c.12.12.28.18.44.18m-1-6.75L16.12 14 14 16.12 10.88 13zm15.44 13.68-4-4a.63.63 0 0 0-.88 0l-3 3c-.24.24-.24.64 0 .88l4 4c.12.12.28.18.44.18s.32-.06.44-.18l3-3c.24-.24.24-.64 0-.88M25 27.12 21.88 24 24 21.88 27.12 25zm1.44-12.56-3-3a.63.63 0 0 0-.88 0l-9 9c-.24.24-.24.64 0 .88l3 3c.12.12.28.18.44.18s.32-.06.44-.18l9-9c.24-.24.24-.64 0-.88M17 23.12 14.88 21 23 12.88 25.12 15z" style="stroke-width:0;fill:#fff"/>
        <path d="m28.44 12.56-3-3a.63.63 0 0 0-.88 0c-.24.24-.24.64 0 .88l3 3c.12.12.28.18.44.18s.32-.06.44-.18c.24-.24.24-.64 0-.88m-12.88 9.88c-1.37-1.37-3.76-1.37-5.13 0-.24.24-.24.64 0 .88L12.11 25l-1.56 1.56c-.24.24-.24.64 0 .88.12.12.28.18.44.18s.32-.06.44-.18l1.56-1.56 1.68 1.68c.12.12.28.18.44.18s.32-.06.44-.18c.69-.68 1.06-1.59 1.06-2.56s-.38-1.88-1.06-2.56Zm-.5 3.74-1.62-1.62-1.62-1.62c.89-.51 2.11-.36 2.86.38.45.45.7 1.04.7 1.68 0 .42-.11.82-.31 1.18Z" class="cls-4"/>
    </g>
</svg>
