<svg viewBox="0 0 54 54">
    <path fill="#fff" d="M0 0h52v52H0z"/>
    <rect width="50.25" height="50.25" x="1.875" y="1.875" fill="#fff" stroke="#e0e0e0" rx="12.125"/>
    <path fill="#e00" d="M33.768 28.76H31.15a10 10 0 0 0-.511-1.255l1.86-1.86a.72.72 0 0 0 .081-.92 12.4 12.4 0 0 0-3.255-3.244.72.72 0 0 0-.93.082l-1.85 1.849a10 10 0 0 0-1.279-.547v-2.628a.71.71 0 0 0-.58-.71 11.9 11.9 0 0 0-4.582 0 .73.73 0 0 0-.593.722v2.605q-.688.22-1.338.534l-1.86-1.86a.72.72 0 0 0-.919-.081 12.4 12.4 0 0 0-3.209 3.22.72.72 0 0 0 .081.93l1.85 1.85a9 9 0 0 0-.57 1.348H10.93a.744.744 0 0 0-.72.593 12.6 12.6 0 0 0 0 4.582.744.744 0 0 0 .72.593h2.617q.23.697.57 1.349l-1.85 1.814a.72.72 0 0 0-.08.93 12 12 0 0 0 3.243 3.22.72.72 0 0 0 .919-.08l1.86-1.861q.65.315 1.338.535v2.605a.73.73 0 0 0 .593.72q1.096.198 2.209.198c.78 0 1.56-.078 2.325-.233a.71.71 0 0 0 .582-.709v-2.628a10 10 0 0 0 1.279-.546l1.849 1.849a.72.72 0 0 0 .93.081 12.4 12.4 0 0 0 3.267-3.186.72.72 0 0 0-.081-.919l-1.86-1.86q.299-.61.511-1.256h2.616a.745.745 0 0 0 .721-.593c.28-1.514.28-3.067 0-4.581a.74.74 0 0 0-.72-.651m-.617 4.314h-2.546a.72.72 0 0 0-.698.547 8.3 8.3 0 0 1-.802 1.93.72.72 0 0 0 .116.872l1.814 1.814a11.4 11.4 0 0 1-2.012 2.023l-1.802-1.802a.72.72 0 0 0-.884-.105c-.61.363-1.268.64-1.953.826a.72.72 0 0 0-.535.698v2.558c-.945.134-1.904.134-2.849 0v-2.512a.73.73 0 0 0-.547-.709 7.8 7.8 0 0 1-2.011-.814.72.72 0 0 0-.872.116l-1.814 1.814a11.4 11.4 0 0 1-2.023-2.011l1.802-1.803a.72.72 0 0 0 .104-.883 7.8 7.8 0 0 1-.848-2.024.72.72 0 0 0-.698-.535h-2.546a9.8 9.8 0 0 1 0-2.86h2.546a.72.72 0 0 0 .698-.535 7.8 7.8 0 0 1 .848-2.023.72.72 0 0 0-.104-.884l-1.802-1.802a11.4 11.4 0 0 1 2.023-2.012l1.814 1.814a.72.72 0 0 0 .872.116 7.8 7.8 0 0 1 2.011-.814.73.73 0 0 0 .547-.709V20.83a10.2 10.2 0 0 1 2.849 0v2.558a.72.72 0 0 0 .535.698 7.8 7.8 0 0 1 1.953.826.72.72 0 0 0 .884-.105l1.802-1.802a11.4 11.4 0 0 1 2.012 2.023l-1.814 1.814a.72.72 0 0 0-.116.872c.348.607.617 1.255.802 1.93a.72.72 0 0 0 .698.547h2.546a9.8 9.8 0 0 1 0 2.86z"/>
    <path fill="#e00" d="M22.349 27.598a4.047 4.047 0 1 0 0 8.094 4.047 4.047 0 0 0 0-8.094m0 6.64a2.593 2.593 0 1 1 0-5.187 2.593 2.593 0 0 1 0 5.186"/>
    <path d="M43.826 18.156a.72.72 0 0 0-.71-.593h-2a7 7 0 0 0-.337-.826l1.419-1.372a.73.73 0 0 0 .093-.919 10.3 10.3 0 0 0-2.616-2.686.73.73 0 0 0-.93.082l-1.408 1.407a8 8 0 0 0-.849-.36v-2a.71.71 0 0 0-.593-.71 9.7 9.7 0 0 0-3.709 0 .71.71 0 0 0-.593.71v1.964a6 6 0 0 0-.895.36l-1.372-1.418a.73.73 0 0 0-.919-.093 10.3 10.3 0 0 0-2.686 2.617.73.73 0 0 0 .081.93l1.407 1.407a9 9 0 0 0-.546 1.453.733.733 0 0 0 1.071.812.72.72 0 0 0 .336-.44 6.3 6.3 0 0 1 .663-1.581.72.72 0 0 0-.105-.884l-1.349-1.349a8.6 8.6 0 0 1 1.419-1.407l1.349 1.36a.73.73 0 0 0 .883.117 5.7 5.7 0 0 1 1.559-.64.73.73 0 0 0 .558-.697v-1.907a8 8 0 0 1 1.988 0v1.93a.73.73 0 0 0 .535.71 6 6 0 0 1 1.523.639.72.72 0 0 0 .884-.105l1.349-1.348a8.5 8.5 0 0 1 1.407 1.418l-1.36 1.349a.734.734 0 0 0-.117.884c.28.471.49.98.628 1.511a.72.72 0 0 0 .697.535h1.907a7.2 7.2 0 0 1 0 2h-1.907a.72.72 0 0 0-.697.535 5.8 5.8 0 0 1-.628 1.512.73.73 0 0 0 .116.884l1.36 1.348a8.6 8.6 0 0 1-1.406 1.419l-1.35-1.349a.72.72 0 0 0-.883-.105 6 6 0 0 1-1.523.64.733.733 0 0 0 .384 1.407 7.4 7.4 0 0 0 1.383-.523l1.407 1.372a.72.72 0 0 0 .512.21.8.8 0 0 0 .419-.129 10.3 10.3 0 0 0 2.616-2.64.73.73 0 0 0-.093-.918l-1.419-1.419q.195-.402.337-.825h2a.72.72 0 0 0 .71-.593c.232-1.23.232-2.492 0-3.721z"/>
    <path d="M33.977 21.947a.733.733 0 0 0 0 1.453 3.383 3.383 0 1 0-3.384-3.384.732.732 0 0 0 1.454 0 1.93 1.93 0 1 1 1.93 1.93"/>
</svg>
