<svg xmlns="http://www.w3.org/2000/svg" viewBox="0 0 38 38">
    <rect width="36" height="36" x="1" y="1" rx="9" ry="9" style="fill:#fff"/>
    <path d="M28 2.25c4.273 0 7.75 3.477 7.75 7.75v18c0 4.273-3.477 7.75-7.75 7.75H10c-4.273 0-7.75-3.477-7.75-7.75V10c0-4.273 3.477-7.75 7.75-7.75zM28 1H10a9 9 0 0 0-9 9v18a9 9 0 0 0 9 9h18a9 9 0 0 0 9-9V10a9 9 0 0 0-9-9" style="fill:#e0e0e0"/>
    <path d="m27.651 12.657-1.187-1.154a.624.624 0 0 0-.871 0L20.83 16.13l-.002.002v.002l-4.737 4.603a.625.625 0 1 0 .87.897l4.316-4.194 1.94 1.885a.62.62 0 0 0 .884-.013.625.625 0 0 0-.013-.883l-1.914-1.861 1.479-1.437 1.939 1.885a.62.62 0 0 0 .884-.013.625.625 0 0 0-.013-.884l-1.914-1.86 1.478-1.437.752.73a.625.625 0 1 0 .871-.896" style="fill:#e00"/>
    <path d="M14.229 27.357a3.86 3.86 0 0 1-2.74-1.131 3.88 3.88 0 0 1 0-5.482 3.884 3.884 0 0 1 5.48 0v.001a3.88 3.88 0 0 1 0 5.48 3.86 3.86 0 0 1-2.74 1.132m0-6.497a2.626 2.626 0 1 0 1.856 4.48 2.63 2.63 0 0 0 0-3.712 2.62 2.62 0 0 0-1.856-.768"/>
</svg>
