<svg viewBox="0 0 44 44">
    <g fill="none">
        <path fill="#000" d="M31.5 0h-21C4.701 0 0 4.701 0 10.5v21C0 37.299 4.701 42 10.5 42h21C37.299 42 42 37.299 42 31.5v-21C42 4.701 37.299 0 31.5 0"/>
        <g transform="translate(8 8)">
            <circle cx="13" cy="13" r="13" stroke="#fff"/>
            <path stroke="#e00" d="M13 0C5.82 0 0 5.82 0 13s5.82 13 13 13"/>
        </g>
        <g transform="translate(12 12)">
            <circle cx="9" cy="9" r="9" stroke="#fff"/>
            <path stroke="#e00" d="M9 0a9 9 0 1 0 9 9"/>
        </g>
        <path stroke="#fff" d="M17 20.747 20.164 24 26 18"/>
    </g>
</svg>
