<?xml version="1.0" encoding="UTF-8"?><svg xmlns="http://www.w3.org/2000/svg" width="38" height="38" viewBox="0 0 38 38"><defs><style>.d{fill:#e00;}.e{fill:#fff;}.f{fill:#e0e0e0;}</style></defs><g id="a"><rect class="e" x="1" y="1" width="36" height="36" rx="9" ry="9"/><path class="f" d="m28,2.25c4.2734,0,7.75,3.4766,7.75,7.75v18c0,4.2734-3.4766,7.75-7.75,7.75H10c-4.2734,0-7.75-3.4766-7.75-7.75V10c0-4.2734,3.4766-7.75,7.75-7.75h18m0-1.25H10C5.0294,1,1,5.0294,1,10v18c0,4.9706,4.0294,9,9,9h18c4.9706,0,9-4.0294,9-9V10c0-4.9706-4.0294-9-9-9h0Z"/></g><g id="b"><path class="d" d="m28.4424,27.5581l-4.8185-4.8185c.7135-.6946,1.2776-1.5527,1.6232-2.5316.1152-.3252-.0557-.6821-.3809-.7974-.3223-.1162-.6826.0552-.7969.3813-.7578,2.1431-2.7949,3.583-5.0693,3.583-2.9639,0-5.375-2.4111-5.375-5.375s2.4111-5.375,5.375-5.375c.3447,0,.625-.2798.625-.625s-.2803-.625-.625-.625c-3.6533,0-6.625,2.9722-6.625,6.625s2.9717,6.625,6.625,6.625c1.3251,0,2.5777-.4074,3.6362-1.1045l4.9214,4.9214c.1221.1221.2822.1831.4424.1831s.3203-.061.4424-.1831c.2432-.2441.2432-.6396,0-.8838Z"/><path d="m20.4424,27.5581l-2-2c-.2441-.2441-.6406-.2441-.8848,0-.2432.2441-.2432.6396,0,.8838l.9062.9059c-4.9191-.2804-8.8388-4.3594-8.8388-9.3478,0-5.1694,4.2061-9.375,9.375-9.375.3447,0,.625-.2798.625-.625s-.2803-.625-.625-.625c-5.8584,0-10.625,4.7666-10.625,10.625,0,5.6949,4.5077,10.3445,10.1406,10.6005l-.9579.9576c-.2432.2441-.2432.6396,0,.8838.1221.1221.2822.1831.4424.1831s.3203-.061.4424-.1831l2-2c.2432-.2441.2432-.6396,0-.8838Z"/><path d="m25.5,17.625c-2.2744,0-4.125-1.8506-4.125-4.125v-4.0288c0-.2949.2061-.5498.4951-.6113l3.5-.7441c.0859-.0186.1738-.0186.2598,0l3.5.7441c.2891.061.4951.3164.4951.6113v4.0288c0,2.2744-1.8506,4.125-4.125,4.125Zm-2.875-7.6479v3.5229c0,1.5854,1.29,2.875,2.875,2.875s2.875-1.2896,2.875-2.875v-3.5229l-2.875-.6108-2.875.6108Z"/><path class="d" d="m25,14.3521c-.1602,0-.3203-.061-.4424-.1831l-1-1c-.2432-.2441-.2432-.6396,0-.8838.2441-.2441.6406-.2441.8848,0l.5576.5581,1.5576-1.5581c.2441-.2441.6406-.2441.8848,0,.2432.2441.2432.6396,0,.8838l-2,2c-.1221.1221-.2822.1831-.4424.1831Z"/></g></svg>