<svg viewBox="0 0 38 38">
    <defs>
        <style>
            .fill-white{fill:#fff}
        </style>
    </defs>
    <rect width="36" height="36" x="1" y="1" rx="9" ry="9"/>
    <path d="M28 2.25c4.273 0 7.75 3.477 7.75 7.75v18c0 4.273-3.477 7.75-7.75 7.75H10c-4.273 0-7.75-3.477-7.75-7.75V10c0-4.273 3.477-7.75 7.75-7.75zM28 1H10a9 9 0 0 0-9 9v18a9 9 0 0 0 9 9h18a9 9 0 0 0 9-9V10a9 9 0 0 0-9-9" style="fill:#4d4d4d"/>
    <path d="m28.442 27.558-4.818-4.819a6.6 6.6 0 0 0 1.623-2.531.624.624 0 1 0-1.178-.416A5.39 5.39 0 0 1 19 23.375c-2.964 0-5.375-2.411-5.375-5.375s2.411-5.375 5.375-5.375a.626.626 0 0 0 0-1.25c-3.653 0-6.625 2.972-6.625 6.625s2.972 6.625 6.625 6.625a6.6 6.6 0 0 0 3.636-1.104l4.922 4.921a.623.623 0 0 0 .884 0 .63.63 0 0 0 0-.884" class="fill-white"/>
    <path d="m20.442 27.558-2-2a.626.626 0 0 0-.884.884l.906.906c-4.92-.28-8.839-4.36-8.839-9.348 0-5.169 4.206-9.375 9.375-9.375a.626.626 0 0 0 0-1.25C13.142 7.375 8.375 12.142 8.375 18c0 5.695 4.508 10.344 10.14 10.6l-.957.958a.63.63 0 0 0 0 .884.623.623 0 0 0 .884 0l2-2a.63.63 0 0 0 0-.884m5.058-9.933a4.13 4.13 0 0 1-4.125-4.125V9.472c0-.295.206-.55.495-.612l3.5-.744a.7.7 0 0 1 .26 0l3.5.744a.626.626 0 0 1 .495.612V13.5a4.13 4.13 0 0 1-4.125 4.125m-2.875-7.647V13.5c0 1.585 1.29 2.875 2.875 2.875s2.875-1.29 2.875-2.875V9.978L25.5 9.366z" style="fill:#e00"/>
    <path d="M25 14.353a.62.62 0 0 1-.442-.183l-1-1a.626.626 0 0 1 .885-.885l.557.559 1.558-1.559a.626.626 0 0 1 .884.885l-2 2a.62.62 0 0 1-.442.183" class="fill-white"/>
</svg>
