<svg xmlns="http://www.w3.org/2000/svg" width="38" height="38" viewBox="0 0 38 38">
    <rect width="36" height="36" x="1" y="1" rx="9" ry="9"/>
    <path fill="#4d4d4d" d="M28 2.25c4.273 0 7.75 3.477 7.75 7.75v18c0 4.273-3.477 7.75-7.75 7.75H10c-4.273 0-7.75-3.477-7.75-7.75V10c0-4.273 3.477-7.75 7.75-7.75zM28 1H10a9 9 0 0 0-9 9v18a9 9 0 0 0 9 9h18a9 9 0 0 0 9-9V10a9 9 0 0 0-9-9"/>
    <path fill="#e00" d="M17 14.375h-.375V13.5c0-1.723-1.402-3.125-3.125-3.125s-3.125 1.402-3.125 3.125v.875H10a.625.625 0 0 0-.625.625v7c0 .345.28.625.625.625h7c.345 0 .625-.28.625-.625v-7a.625.625 0 0 0-.625-.625m-5.375-.875c0-1.034.84-1.875 1.875-1.875s1.875.841 1.875 1.875v.875h-3.75zm4.75 7.875h-5.75v-5.75h5.75z"/>
    <path fill="#fff" d="M29 24.375H9a.625.625 0 0 0 0 1.25h20a.625.625 0 0 0 0-1.25m-9-1.75a.6.6 0 0 0 .254-.054l3.59-1.598.002-.001.013-.006c.028-.013.047-.035.072-.051.04-.025.083-.044.117-.078l4.394-4.395a.626.626 0 0 0-.885-.884l-3.952 3.953-1.116-1.116 5.953-5.953a.626.626 0 0 0-.885-.884l-6.394 6.395c-.028.028-.041.063-.063.095-.021.031-.05.057-.066.093l-1.605 3.605a.627.627 0 0 0 .571.879m1.807-3.145.713.714-1.287.573z"/>
</svg>
