<svg viewBox="0 0 38 38">
    <rect width="36" height="36" x="1" y="1" rx="9" ry="9"/>
    <path fill="#4d4d4d" d="M28 2.25c4.273 0 7.75 3.477 7.75 7.75v18c0 4.273-3.477 7.75-7.75 7.75H10c-4.273 0-7.75-3.477-7.75-7.75V10c0-4.273 3.477-7.75 7.75-7.75zM28 1H10a9 9 0 0 0-9 9v18a9 9 0 0 0 9 9h18a9 9 0 0 0 9-9V10a9 9 0 0 0-9-9"/>
    <path fill="#e00" d="M10.625 12c0-.758.617-1.375 1.375-1.375h1a.625.625 0 1 0 0-1.25h-1A2.63 2.63 0 0 0 9.375 12v5c0 .758-.617 1.375-1.375 1.375a.625.625 0 1 0 0 1.25c.758 0 1.375.617 1.375 1.375v5A2.63 2.63 0 0 0 12 28.625h1a.625.625 0 1 0 0-1.25h-1A1.376 1.376 0 0 1 10.625 26v-5c0-.8-.36-1.518-.927-2a2.62 2.62 0 0 0 .927-2zM30 18.375A1.377 1.377 0 0 1 28.625 17v-5A2.63 2.63 0 0 0 26 9.375h-1a.625.625 0 0 0 0 1.25h1c.758 0 1.375.617 1.375 1.375v5c0 .8.36 1.518.927 2a2.62 2.62 0 0 0-.927 2v5c0 .758-.617 1.375-1.375 1.375h-1a.625.625 0 0 0 0 1.25h1A2.63 2.63 0 0 0 28.625 26v-5c0-.758.617-1.375 1.375-1.375a.625.625 0 0 0 0-1.25"/>
    <path fill="#fff" d="m24.442 23.558-2.773-2.774A4.58 4.58 0 0 0 22.625 18 4.63 4.63 0 0 0 18 13.375c-2.55 0-4.625 2.075-4.625 4.625S15.45 22.625 18 22.625a4.58 4.58 0 0 0 2.784-.956l2.774 2.773a.624.624 0 0 0 .884 0 .627.627 0 0 0 0-.884M14.625 18A3.38 3.38 0 0 1 18 14.625c1.861 0 3.375 1.514 3.375 3.375S19.861 21.375 18 21.375A3.38 3.38 0 0 1 14.625 18"/>
</svg>
