<?xml version="1.0" encoding="UTF-8"?>
<svg width="36px" height="37px" viewBox="0 0 36 37" version="1.1" xmlns="http://www.w3.org/2000/svg" xmlns:xlink="http://www.w3.org/1999/xlink">
    <title>Icon-Red_Hat-Insights-RGB@1x</title>
    <g id="Homepage-design" stroke="none" stroke-width="1" fill="none" fill-rule="evenodd">
        <g id="Icon-Red_Hat-Insights-RGB" transform="translate(-0.000000, 0.500000)" fill-rule="nonzero">
            <path d="M27,0 L9,0 C4.02943725,0 0,4.02943725 0,9 L0,27 C0,31.9705627 4.02943725,36 9,36 L27,36 C31.9705627,36 36,31.9705627 36,27 L36,9 C36,4.02943725 31.9705627,0 27,0 Z" id="Path" fill="#000000"></path>
            <path d="M26.38,10.09 C26.3574364,9.97348272 26.3019045,9.86588969 26.22,9.78 L26.22,9.78 C24.044452,7.5937309 21.0842613,6.36932112 18,6.37991654 C17.8347434,6.37726792 17.6754516,6.44171147 17.5585815,6.55858152 C17.4417115,6.67545157 17.3772679,6.83474337 17.38,7 L17.38,15.46 C16.0519489,15.7834621 15.1957178,17.0735339 15.4134636,18.4229539 C15.6312094,19.7723739 16.8497561,20.7276544 18.2121433,20.6169806 C19.5745305,20.5063069 20.6229127,19.366872 20.62,18 C20.6214693,17.5234006 20.4898636,17.0558539 20.24,16.65 L26.24,10.65 C26.3776223,10.4986213 26.4301943,10.2883329 26.38,10.09 L26.38,10.09 Z M24.87,10.24 L19.35,15.76 C19.1241631,15.6218267 18.8777349,15.5205549 18.62,15.46 L18.62,7.64 C20.9371165,7.77622091 23.1399365,8.69259401 24.87,10.24 L24.87,10.24 Z M18,19.38 C17.237847,19.38 16.62,18.762153 16.62,18 C16.62,17.237847 17.237847,16.62 18,16.62 C18.762153,16.62 19.38,17.237847 19.38,18 C19.38,18.762153 18.762153,19.38 18,19.38 L18,19.38 Z" id="Shape" fill="#FFFFFF"></path>
            <path d="M18,28.6200004 C12.7646272,28.6044108 8.32011208,24.7791747 7.52496904,19.6045134 C6.72982601,14.4298522 9.82083647,9.44670056 14.81,7.86 C15.1408155,7.76121059 15.4903609,7.94262024 15.6,8.27 C15.6499316,8.42779903 15.634697,8.59901189 15.5576886,8.74551578 C15.4806801,8.89201968 15.3482912,9.0016514 15.19,9.05 C11.3837759,10.2400738 8.74444693,13.7045142 8.60767512,17.6901021 C8.4709033,21.67569 10.8665274,25.3129128 14.5822149,26.761113 C18.2979024,28.2093133 22.5230232,27.1525455 25.1194076,24.1255989 C27.7157919,21.0986523 28.1170016,16.7618983 26.12,13.31 C26.0370595,13.1669487 26.0146993,12.9966925 26.0578896,12.837076 C26.10108,12.6774596 26.2062419,12.5417094 26.35,12.46 C26.4923871,12.3742407 26.6636045,12.3503005 26.8240533,12.393716 C26.9845022,12.4371316 27.1202856,12.5441427 27.2,12.69 C29.0973315,15.9762742 29.0970637,20.0251939 27.1992976,23.3112171 C25.3015315,26.5972403 21.7946625,28.6210042 18,28.6200004 Z" id="Path" fill="#EE0000"></path>
            <path d="M18,24.620011 C14.9989423,24.6254489 12.3696388,22.6114115 11.593312,19.712499 C10.8169851,16.8135865 12.0878652,13.7550824 14.69,12.26 C14.8829234,12.1492477 15.1202777,12.1498317 15.3126537,12.2615321 C15.5050298,12.3732325 15.6232011,12.5790794 15.6226537,12.8015321 C15.6221063,13.0239849 15.5029234,13.2292477 15.31,13.34 C12.8360391,14.7587923 11.8954644,17.8591928 13.1641306,20.4133933 C14.4327967,22.9675938 17.4715588,24.0914659 20.0968994,22.9774457 C22.7222399,21.8634255 24.0254055,18.8971275 23.07,16.21 C23.01254,16.0536063 23.0204447,15.8806675 23.0919321,15.7301677 C23.1634195,15.579668 23.2924726,15.4642747 23.45,15.41 C23.7757325,15.2962298 24.1323805,15.4656376 24.25,15.79 C24.9584465,17.8177648 24.6422366,20.0629712 23.4012853,21.8161872 C22.160334,23.5694032 20.1479504,24.6140337 18,24.620011 L18,24.620011 Z" id="Path" fill="#EE0000"></path>
        </g>
    </g>
</svg>