<?xml version="1.0" encoding="UTF-8"?>
<svg width="37px" height="37px" viewBox="0 0 37 37" version="1.1" xmlns="http://www.w3.org/2000/svg" xmlns:xlink="http://www.w3.org/1999/xlink">
    <title>Product_Icon-Red_Hat-OpenShift-RGB@1x</title>
    <g id="Homepage-design" stroke="none" stroke-width="1" fill="none" fill-rule="evenodd">
        <g id="Product_Icon-Red_Hat-OpenShift-RGB" transform="translate(0.283730, 0.500000)" fill-rule="nonzero">
            <path d="M27,0 L9,0 C4.02943725,0 0,4.02943725 0,9 L0,27 C0,31.9705627 4.02943725,36 9,36 L27,36 C31.9705627,36 36,31.9705627 36,27 L36,9 C36,4.02943725 31.9705627,0 27,0 Z" id="Path" fill="#000000"></path>
            <path d="M9.09863,21.1899403 C8.80355185,21.1900804 8.54857663,20.983825 8.48706368,20.6952296 C8.42555073,20.4066342 8.57426097,20.1143348 8.84375,19.99414 L11.58447,18.77393 C11.7883972,18.6830434 12.0253211,18.7078546 12.2059948,18.8390175 C12.3866685,18.9701803 12.4836433,19.187768 12.4603898,19.4098175 C12.4371363,19.6318669 12.2971872,19.8246434 12.09326,19.91553 L9.35254,21.13574 C9.27268649,21.1715529 9.18614651,21.1900259 9.09863,21.1899403 L9.09863,21.1899403 Z" id="Path" fill="#FFFFFF"></path>
            <path d="M7.832,24.4907208 C7.53692185,24.4908604 7.28194663,24.284605 7.22043368,23.9960096 C7.15892073,23.7074142 7.30763097,23.4151148 7.57712,23.29492 L10.31735,22.07471 C10.6325941,21.9342115 11.0020465,22.0758709 11.142545,22.391115 C11.2830435,22.7063591 11.1413841,23.0758115 10.82614,23.21631 L8.08594,24.43652 C8.00609333,24.4723862 7.91953201,24.4908615 7.832,24.4907208 Z" id="Path" fill="#FFFFFF"></path>
            <path d="M25.42773,13.9194313 C25.1324861,13.9197085 24.8773551,13.7132601 24.816034,13.4244544 C24.7547129,13.1356487 24.9039453,12.8433433 25.17383,12.72363 L27.915,11.50342 C28.1189272,11.4127085 28.3557577,11.4376814 28.5362798,11.5689318 C28.7168019,11.7001822 28.81359,11.9177699 28.7901848,12.1397318 C28.7667797,12.3616937 28.6267372,12.5543085 28.42281,12.64502 L25.6816,13.86523 C25.6017909,13.9011356 25.5152438,13.919613 25.42773,13.9194313 L25.42773,13.9194313 Z" id="Path" fill="#FFFFFF"></path>
            <path d="M24.16113,17.2202112 C23.8658861,17.2204885 23.6107551,17.0140401 23.549434,16.7252344 C23.4881129,16.4364287 23.6373453,16.1441233 23.90723,16.02441 L26.64746,14.8042 C26.8513872,14.7134885 27.0882177,14.7384614 27.2687398,14.8697118 C27.4492619,15.0009622 27.54605,15.2185499 27.5226448,15.4405118 C27.4992397,15.6624737 27.3591972,15.8550885 27.15527,15.9458 L24.415,17.166 C24.33519,17.2019037 24.2486439,17.2203843 24.16113,17.2202112 Z" id="Path" fill="#FFFFFF"></path>
            <path d="M17.95166,27.63379 C15.7147084,27.6311472 13.5490106,26.846838 11.8291,25.4165 C11.5642848,25.1963539 11.5274421,24.8034758 11.7467112,24.5379339 C11.9659803,24.2723921 12.3587345,24.2342503 12.625,24.45264 C15.0770876,26.4809393 18.4664822,26.9452182 21.3736832,25.6510338 C24.2808843,24.3568493 26.2041058,21.5275791 26.33789,18.34814 C26.3407857,18.1811852 26.4119887,18.0227145 26.534895,17.909682 C26.6578013,17.7966496 26.821667,17.7389361 26.98828,17.75 C27.3330389,17.7647305 27.6006009,18.0561181 27.58594,18.40088 C27.360095,23.5596088 23.1153263,27.6275378 17.95166,27.63379 Z" id="Path" fill="#EE0000"></path>
            <path d="M8.97461,18.22607 L8.9458,18.22559 C8.60094894,18.2098205 8.3340974,17.9176127 8.34961,17.57275 C8.51316385,13.9245676 10.7263818,10.6828478 14.0645308,9.20205538 C17.4026798,7.72126298 21.2912354,8.25625518 24.10547,10.5835 C24.3707978,10.8037779 24.4077092,11.1972774 24.1879747,11.4630554 C23.9682403,11.7288335 23.5748172,11.7665501 23.30859,11.54736 C20.8598766,9.52176543 17.4759193,9.05596776 14.5710009,10.3446413 C11.6660824,11.6333148 9.74033085,14.4545938 9.59859,17.62936 C9.58331043,17.9629755 9.30857501,18.2257041 8.97461,18.22607 Z" id="Path" fill="#EE0000"></path>
        </g>
    </g>
</svg>