<?xml version="1.0" encoding="UTF-8"?>
<svg width="36px" height="36px" viewBox="0 0 36 36" version="1.1" xmlns="http://www.w3.org/2000/svg" xmlns:xlink="http://www.w3.org/1999/xlink">
    <title>Product_Icon-Red_Hat-Generic-Service@1x</title>
    <g id="Homepage-design" stroke="none" stroke-width="1" fill="none" fill-rule="evenodd">
        <g id="Product_Icon-Red_Hat-Generic-Service" transform="translate(0.000000, 0.000000)" fill-rule="nonzero">
            <path d="M27,1.60714 C31.0810494,1.61175813 34.3882419,4.91895059 34.39286,9 L34.39286,27 C34.3882474,31.0810517 31.0810517,34.3882474 27,34.39286 L9,34.39286 C4.91895059,34.3882419 1.61175813,31.0810494 1.60714,27 L1.60714,9 C1.61175813,4.91895059 4.91895059,1.61175813 9,1.60714 L27,1.60714" id="Path" fill="#FFFFFF"></path>
            <path d="M27,1.60714 C31.0810494,1.61175813 34.3882419,4.91895059 34.39286,9 L34.39286,27 C34.3882474,31.0810517 31.0810517,34.3882474 27,34.39286 L9,34.39286 C4.91895059,34.3882419 1.61175813,31.0810494 1.60714,27 L1.60714,9 C1.61175813,4.91895059 4.91895059,1.61175813 9,1.60714 L27,1.60714 M27,0 L9,0 C4.02943725,0 0,4.02943725 0,9 L0,27 C0,31.9705627 4.02943725,36 9,36 L27,36 C31.9705627,36 36,31.9705627 36,27 L36,9 C36,4.02943725 31.9705627,0 27,0 L27,0 Z" id="Shape" fill="#000000"></path>
            <path d="M26.4316,13.5173 C24.9638472,13.5171233 23.7741093,12.3271928 23.77417,10.85944 C23.7742308,9.39168724 24.9640672,8.20185525 26.43182,8.20180002 C27.8995728,8.20174479 29.0894988,9.39148723 29.08967,10.85924 C29.0879507,12.3265372 27.8988972,13.5155862 26.4316,13.5173 L26.4316,13.5173 Z M26.4316,9.80895 C25.8513642,9.80912676 25.3811334,10.2796441 25.38131,10.85988 C25.3814868,11.4401158 25.8520042,11.9103466 26.43224,11.91017 C27.0124759,11.9099932 27.4827067,11.4394758 27.48253,10.85924 C27.4819948,10.2791609 27.0116793,9.80915426 26.4316,9.809 L26.4316,9.80895 Z" id="Shape" fill="#FF0000"></path>
            <path d="M22.91472,29.09466 C20.2175998,29.094312 18.0314313,26.9075869 18.0317701,24.2104667 C18.0321088,21.5133465 20.2188265,19.3271706 22.9159467,19.3275001 C25.6130669,19.3278296 27.7992503,21.5145398 27.79893,24.21166 C27.7955513,26.907538 25.6105988,29.0919492 22.91472,29.09466 L22.91472,29.09466 Z M22.91472,20.93464 C21.1053562,20.9350079 19.6387941,22.4019462 19.6389101,24.21131 C19.639026,26.0206738 21.1057762,27.487424 22.91514,27.4875399 C24.7245038,27.4876559 26.1914421,26.0210938 26.19179,24.21173 C26.1901856,22.402516 24.723934,20.9362554 22.91472,20.93464 L22.91472,20.93464 Z" id="Shape" fill="#FF0000"></path>
            <path d="M15.97388,25.37187 C15.5403409,25.371222 15.1854339,25.026867 15.1717046,24.5935449 C15.1579753,24.1602228 15.4903715,23.7940915 15.923,23.766 C16.11574,23.75344 16.30721,23.73461 16.49618,23.70824 C16.7816919,23.6641204 17.0688965,23.7767726 17.2482746,24.0032391 C17.4276527,24.2297055 17.4715513,24.5350741 17.3632304,24.802899 C17.2549096,25.0707239 17.0110682,25.259717 16.72469,25.29781 C16.49429,25.33171 16.26138,25.3559833 16.02596,25.37063 C16.0084,25.37187 15.99083,25.37187 15.97388,25.37187 Z" id="Path" fill="#000000"></path>
            <path d="M12.41493,24.75161 C12.3057397,24.7513365 12.1977167,24.7291341 12.09727,24.68632 C11.6872193,24.5088393 11.29157,24.2997842 10.91389,24.06104 C10.543604,23.8215382 10.4353454,23.3284658 10.6712399,22.9558713 C10.9071345,22.5832769 11.3991323,22.470235 11.774,22.7025 C12.0798831,22.8969843 12.4008762,23.0666151 12.73389,23.20976 C13.0838057,23.3610145 13.2793833,23.7372227 13.2021679,24.1105278 C13.1249526,24.483833 12.7961772,24.7515827 12.41497,24.75161 L12.41493,24.75161 Z M8.82209,21.6101503 C8.54040878,21.6103876 8.27914546,21.4631949 8.1334,21.22215 C7.9024367,20.8393235 7.70217321,20.4387965 7.53449,20.02433 C7.42609708,19.7581733 7.46815786,19.4543862 7.64478831,19.2276924 C7.82141875,19.0009985 8.10570336,18.8859422 8.39028355,18.9259739 C8.67486375,18.9660055 8.91637429,19.1550249 9.02361,19.42165 C9.1602387,19.756847 9.32269731,20.080925 9.50952,20.39096 C9.65953598,20.6390638 9.6642461,20.948747 9.52184483,21.2012984 C9.37944356,21.4538497 9.11202153,21.610091 8.82209,21.6101503 L8.82209,21.6101503 Z M7.73476,16.96575 C7.71341,16.96575 7.69207,16.96513 7.6701,16.96324 C7.45762909,16.9463061 7.26059546,16.8456351 7.12237054,16.6833868 C6.98414561,16.5211385 6.9160597,16.3106124 6.9331,16.09815 C6.9686506,15.6530104 7.03916818,15.2113577 7.144,14.77728 C7.21077164,14.4974671 7.42203562,14.2746983 7.69791833,14.1931971 C7.97380105,14.1116958 8.27220544,14.1838983 8.48031229,14.3825066 C8.68841915,14.5811149 8.77447337,14.8758233 8.70594,15.15521 C8.62109808,15.5071948 8.56400289,15.8652936 8.53518,16.22621 C8.50165631,16.6435428 8.15343683,16.9652767 7.73476,16.96575 Z M22.62976,14.4615 C22.310755,14.4615819 22.0219535,14.2728248 21.89399,13.98061 C21.7482537,13.648878 21.5765396,13.3291769 21.38045,13.02449 C21.1409707,12.6507305 21.2497752,12.1536066 21.6234886,11.9140553 C21.9972019,11.6745041 22.4943468,11.7832128 22.73397,12.15688 C22.9751741,12.5324331 23.1863503,12.926444 23.36553,13.33524 C23.4743768,13.5836834 23.4505708,13.870268 23.3022234,14.0973468 C23.1538759,14.3244256 22.9010011,14.4613627 22.62976,14.4615 L22.62976,14.4615 Z M9.55912,12.5574109 C9.24591856,12.5573766 8.96127846,12.3753609 8.82984777,12.0910704 C8.69841707,11.8067798 8.74415022,11.4720289 8.94702,11.23341 C9.23609469,10.8934799 9.55114629,10.5765259 9.88933,10.28541 C10.1068887,10.0981296 10.4078341,10.0411415 10.678803,10.1359126 C10.9497719,10.2306838 11.1495978,10.4628161 11.203008,10.7448676 C11.2564183,11.0269192 11.1552987,11.3160396 10.93774,11.50332 C10.6630303,11.7400479 10.4071672,11.9978033 10.17247,12.27425 C10.0195814,12.4542054 9.79525286,12.5577692 9.55912,12.5574109 L9.55912,12.5574109 Z M19.46125,10.89189 C19.317204,10.8917915 19.1758306,10.8529805 19.05193,10.77951 C18.74043,10.5947266 18.414856,10.4347717 18.07823,10.30113 C17.667328,10.1363802 17.46703,9.6703608 17.6302515,9.25884928 C17.7934729,8.84733775 18.2587447,8.64530914 18.67086,8.807 C19.0861283,8.97216012 19.4878774,9.16946887 19.87245,9.39713 C20.1833138,9.58228209 20.3322032,9.95227823 20.2362322,10.3011438 C20.1402613,10.6500094 19.8230754,10.8917909 19.46125,10.89189 L19.46125,10.89189 Z M13.61213,10.0380906 C13.2062299,10.0376984 12.8643697,9.73463417 12.8153225,9.33170814 C12.7662753,8.92878212 13.0254472,8.5525557 13.4194,8.4548 C13.8523053,8.34761711 14.2928686,8.27415701 14.73713,8.23508 C15.1791953,8.19624886 15.5690389,8.52313472 15.60787,8.9652 C15.6467011,9.40726528 15.3198153,9.79710886 14.87775,9.83594 C14.516496,9.86779774 14.1582287,9.92740365 13.80612,10.01423 C13.7426891,10.0301582 13.6775302,10.0381725 13.61213,10.0380906 L13.61213,10.0380906 Z" id="Shape" fill="#000000"></path>
            <path d="M23.20853,18.7097622 C23.1698792,18.7098512 23.1312732,18.7071207 23.09302,18.70159 C22.8819856,18.6712886 22.6916639,18.5583078 22.5640075,18.3875521 C22.436351,18.2167963 22.3818399,18.0022841 22.41249,17.7913 C22.4388633,17.6048467 22.4576967,17.4154633 22.46899,17.22315 C22.5033992,16.7844207 22.8780152,16.4510938 23.31777,16.46792 C23.5306729,16.4802352 23.7299508,16.5766683 23.8717189,16.7359828 C24.013487,16.8952973 24.086119,17.1044278 24.07362,17.31732 C24.0598133,17.5546533 24.03596,17.7892367 24.00206,18.02107 C23.9452405,18.41582 23.6073477,18.7090709 23.20853,18.7097622 Z" id="Path" fill="#000000"></path>
        </g>
    </g>
</svg>