<?xml version="1.0" encoding="utf-8"?>
<!-- Generator: Adobe Illustrator 23.0.1, SVG Export Plug-In . SVG Version: 6.00 Build 0)  -->
<svg version="1.1" id="InsightsLogo" xmlns="http://www.w3.org/2000/svg" xmlns:xlink="http://www.w3.org/1999/xlink" x="0px"
	 y="0px" viewBox="0 0 615 244" style="enable-background:new 0 0 615 244;" xml:space="preserve">
<style type="text/css">
	.st0{fill:#FFFFFF;}
	.st1{fill:#EE0000;}
</style>
<title>Logo-Red_Hat-Insights-A-Standard-RGB</title>
<path class="st0" d="M227.6,145.7h10.9v72.8h-10.9V145.7z"/>
<path class="st0" d="M252.2,165.6h10.4v5.3c4.2-4.2,10-6.5,15.9-6.4c12.2,0,20.7,8.4,20.7,20.7v33.3h-10.4V187
	c0-8.3-5.1-13.4-13.1-13.4c-5.3-0.2-10.3,2.4-13.1,6.9v38.1h-10.4V165.6z"/>
<path class="st0" d="M311.8,204.8c5.5,4.4,11.3,6.7,17.3,6.7c7.5,0,12.7-3.2,12.7-7.9c0-3.7-2.7-5.9-8.5-6.8l-9.6-1.4
	c-10.5-1.6-15.8-6.4-15.8-14.7c0-9.6,8.3-16,20.7-16c7.6,0,15.1,2.3,21.3,6.8l-5.3,6.9c-5.8-3.8-11.1-5.5-16.8-5.5
	c-6.3,0-10.6,2.9-10.6,7.2c0,3.9,2.5,5.7,8.7,6.6l9.6,1.4c10.5,1.6,16,6.6,16,14.8c0,9.5-9.6,16.6-22.1,16.6
	c-9.1,0-17.4-2.7-23.2-7.8L311.8,204.8z"/>
<path class="st0" d="M358.4,150.6c0-3.5,2.8-6.4,6.3-6.4c0,0,0,0,0,0c3.6-0.1,6.6,2.6,6.7,6.2c0.1,3.6-2.6,6.6-6.2,6.7
	c-0.2,0-0.3,0-0.5,0C361.2,157,358.4,154.2,358.4,150.6C358.4,150.6,358.4,150.6,358.4,150.6z M369.9,218.5h-10.4v-52.9h10.4V218.5z
	"/>
<path class="st0" d="M379.8,191.8c-0.2-14.7,11.5-26.9,26.3-27.1c0.2,0,0.4,0,0.6,0c5.7,0,11.2,1.9,15.7,5.3v-4.4h10.3v53.7
	c0,13.7-8.6,21.4-24.2,21.4c-7.4,0.1-14.8-1.7-21.3-5.2l4.1-8.1c6,3.1,11.3,4.6,17,4.6c9.2,0,14.1-4.4,14.1-12.7v-5.9
	c-4.5,3.7-10,5.7-15.8,5.7C391.5,219,379.8,207,379.8,191.8z M407.7,209.9c6,0,11.1-2.2,14.6-6.1v-23.9c-3.7-4.1-9-6.3-14.6-6.1
	c-10,0-17.7,7.9-17.7,18.1S397.7,209.9,407.7,209.9L407.7,209.9z"/>
<path class="st0" d="M444.9,145.7l10.4-2.3v27.5c4.2-4.2,10-6.5,15.9-6.4c12.2,0,20.7,8.4,20.7,20.7v33.3h-10.4V187
	c0-8.3-5.1-13.4-13.1-13.4c-5.3-0.2-10.3,2.4-13.1,6.9v38.1h-10.4V145.7z"/>
<path class="st0" d="M508.7,174.3h-11.2v-8.7h11.2v-13.5l10.3-2.5v16h15.6v8.7H519V203c0,5.4,2.2,7.4,7.8,7.4
	c2.6,0.1,5.2-0.4,7.6-1.2v8.7c-3.2,1-6.5,1.5-9.9,1.6c-10.3,0-15.8-4.9-15.8-14L508.7,174.3z"/>
<path class="st0" d="M543.9,204.8c5.5,4.4,11.3,6.7,17.3,6.7c7.5,0,12.7-3.2,12.7-7.9c0-3.7-2.7-5.9-8.5-6.8l-9.6-1.4
	c-10.5-1.6-15.8-6.4-15.8-14.7c0-9.6,8.3-16,20.7-16c7.6,0,15.1,2.3,21.3,6.7l-5.3,6.9c-5.8-3.8-11.1-5.5-16.7-5.5
	c-6.3,0-10.6,2.9-10.6,7.2c0,3.9,2.5,5.7,8.7,6.6l9.6,1.4c10.5,1.6,16,6.6,16,14.8c0,9.5-9.6,16.6-22.2,16.6
	c-9.2,0-17.4-2.7-23.2-7.8L543.9,204.8z"/>
<path class="st1" d="M128,84c12.5,0,30.6-2.6,30.6-17.5c0-1.1-0.1-2.3-0.3-3.4l-7.4-32.4c-1.7-7.1-3.2-10.4-15.7-16.6
	C125.4,9.2,104.3,1,98,1c-5.8,0-7.6,7.5-14.4,7.5c-6.7,0-11.6-5.6-17.9-5.6c-6,0-9.9,4.1-12.9,12.5c0,0-8.4,23.7-9.5,27.2
	c-0.2,0.6-0.3,1.3-0.2,1.9C43,53.8,79.3,84,128,84 M160.6,72.6c1.7,8.2,1.7,9.1,1.7,10.1c0,14-15.7,21.8-36.4,21.8
	C79,104.5,38.1,77.1,38.1,59c0-2.5,0.5-5,1.5-7.3C22.8,52.5,1,55.5,1,74.7C1,106.2,75.6,145,134.6,145c45.3,0,56.7-20.5,56.7-36.7
	C191.3,95.6,180.3,81.2,160.6,72.6"/>
<path d="M160.5,72.6c1.7,8.2,1.7,9.1,1.7,10.1c0,14-15.7,21.8-36.4,21.8C79,104.5,38.1,77.1,38.1,59c0-2.5,0.5-5,1.5-7.3l3.7-9.1
	c-0.2,0.6-0.3,1.3-0.2,1.9C43,53.8,79.3,84,128,84c12.5,0,30.6-2.6,30.6-17.5c0-1.1-0.1-2.3-0.3-3.4L160.5,72.6z"/>
<path class="st0" d="M580.2,93.3c0,11.9,7.2,17.7,20.2,17.7c4-0.1,8-0.7,11.9-1.7V95.5c-2.5,0.8-5.1,1.2-7.7,1.2
	c-5.4,0-7.4-1.7-7.4-6.7V68.8h15.6V54.6h-15.6v-18l-17,3.7v14.3H569v14.2h11.2L580.2,93.3z M527.2,93.6c0-3.7,3.7-5.5,9.3-5.5
	c3.4,0,6.8,0.4,10.1,1.3v7.2c-3.2,1.8-6.9,2.7-10.6,2.6C530.5,99.2,527.3,97.1,527.2,93.6 M532.5,111.2c6,0,10.8-1.3,15.4-4.3v3.4
	h16.8V74.6c0-13.6-9.1-21-24.4-21c-8.5,0-16.9,2-26,6.1l6.1,12.5c6.5-2.7,12-4.4,16.8-4.4c7,0,10.6,2.7,10.6,8.3v2.7
	c-4.1-1.1-8.4-1.6-12.6-1.6c-14.3,0-22.9,6-22.9,16.7C512.3,103.8,520,111.2,532.5,111.2 M440,110.3h18.1V81.4h30.3v28.8h18.1V36.6
	h-18.1v28.3h-30.3V36.6H440L440,110.3z M371.1,82.4c0-8,6.3-14.1,14.6-14.1c4.3-0.1,8.5,1.4,11.8,4.3V92c-3.2,3-7.4,4.6-11.8,4.4
	C377.5,96.4,371.1,90.3,371.1,82.4 M397.7,110.2h16.8V32.9l-17,3.7v20.9c-4.3-2.5-9.2-3.7-14.2-3.7c-16.2,0-28.9,12.5-28.9,28.5
	c-0.2,15.6,12.3,28.4,27.9,28.6c0.2,0,0.3,0,0.5,0c5.4,0,10.6-1.7,14.9-4.8V110.2z M320.5,67.5c5.4,0,9.9,3.5,11.7,8.8H309
	C310.7,70.8,314.9,67.5,320.5,67.5 M291.8,82.5c0,16.2,13.2,28.8,30.3,28.8c9.4,0,16.2-2.5,23.2-8.4l-11.3-10
	c-2.6,2.7-6.5,4.2-11.1,4.2c-5.9,0.2-11.4-3.3-13.7-8.8h39.6v-4.2c0-17.7-11.9-30.4-28.1-30.4c-15.8-0.2-28.8,12.4-29,28.1
	C291.8,82,291.8,82.2,291.8,82.5 M262.5,52.1c6,0,9.4,3.8,9.4,8.3s-3.4,8.3-9.4,8.3h-17.9V52.1H262.5z M226.5,110.2h18.1V83.4h13.8
	l13.9,26.8h20.2l-16.2-29.5c8.4-3.4,13.9-11.6,13.9-20.7c0-13.2-10.4-23.5-26-23.5h-37.6L226.5,110.2z"/>
</svg>
