<?xml version="1.0" encoding="utf-8"?>
<!-- Generator: Adobe Illustrator 24.1.3, SVG Export Plug-In . SVG Version: 6.00 Build 0)  -->
<svg version="1.1" id="Logos" xmlns="http://www.w3.org/2000/svg" xmlns:xlink="http://www.w3.org/1999/xlink" x="0px" y="0px"
	 viewBox="0 0 1189.13 244" style="enable-background:new 0 0 1189.13 244;" xml:space="preserve">
<style type="text/css">
	.st0{fill:#FFFFFF;}
	.st1{fill:#EE0000;}
</style>
<g>
	<g>
		<path d="M221.37,219.54l30.16-72.8h12.79l29.74,72.8h-11.86l-8.42-21.32h-32.55l-8.53,21.32H221.37z M244.88,189.17h25.38
			l-12.69-31.93L244.88,189.17z"/>
		<path d="M300.2,241.07V166.6h10.3v4.99c2.22-1.87,4.71-3.31,7.49-4.32c2.77-1,5.68-1.51,8.74-1.51c3.74,0,7.24,0.71,10.5,2.13
			c3.26,1.42,6.08,3.36,8.48,5.82c2.39,2.46,4.28,5.36,5.67,8.68c1.39,3.33,2.08,6.86,2.08,10.61c0,3.81-0.69,7.38-2.08,10.71
			c-1.39,3.33-3.28,6.22-5.67,8.68c-2.39,2.46-5.25,4.4-8.58,5.82c-3.33,1.42-6.9,2.13-10.71,2.13c-2.98,0-5.81-0.45-8.48-1.35
			c-2.67-0.9-5.11-2.18-7.33-3.85v25.9H300.2z M325.27,174.82c-3.05,0-5.82,0.56-8.32,1.66c-2.5,1.11-4.61,2.64-6.34,4.58v24.13
			c1.66,1.87,3.78,3.36,6.34,4.47c2.56,1.11,5.34,1.66,8.32,1.66c5.13,0,9.41-1.75,12.84-5.25c3.43-3.5,5.15-7.82,5.15-12.95
			c0-5.2-1.75-9.55-5.25-13.05C334.5,176.57,330.26,174.82,325.27,174.82z"/>
		<path d="M363.23,241.07V166.6h10.3v4.99c2.22-1.87,4.71-3.31,7.49-4.32c2.77-1,5.68-1.51,8.74-1.51c3.74,0,7.24,0.71,10.5,2.13
			c3.26,1.42,6.08,3.36,8.48,5.82c2.39,2.46,4.28,5.36,5.67,8.68c1.39,3.33,2.08,6.86,2.08,10.61c0,3.81-0.69,7.38-2.08,10.71
			c-1.39,3.33-3.28,6.22-5.67,8.68c-2.39,2.46-5.25,4.4-8.58,5.82c-3.33,1.42-6.9,2.13-10.71,2.13c-2.98,0-5.81-0.45-8.48-1.35
			c-2.67-0.9-5.11-2.18-7.33-3.85v25.9H363.23z M388.29,174.82c-3.05,0-5.82,0.56-8.32,1.66c-2.5,1.11-4.61,2.64-6.34,4.58v24.13
			c1.66,1.87,3.78,3.36,6.34,4.47c2.56,1.11,5.34,1.66,8.32,1.66c5.13,0,9.41-1.75,12.84-5.25c3.43-3.5,5.15-7.82,5.15-12.95
			c0-5.2-1.75-9.55-5.25-13.05C397.53,176.57,393.28,174.82,388.29,174.82z"/>
		<path d="M436.65,144.45v75.09h-10.4v-72.8L436.65,144.45z"/>
		<path d="M453.91,158.07c-1.73,0-3.24-0.64-4.52-1.92c-1.28-1.28-1.92-2.79-1.92-4.52c0-1.73,0.64-3.24,1.92-4.52
			c1.28-1.28,2.79-1.92,4.52-1.92c1.73,0,3.22,0.64,4.47,1.92c1.25,1.28,1.87,2.79,1.87,4.52c0,1.73-0.62,3.24-1.87,4.52
			C457.13,157.43,455.64,158.07,453.91,158.07z M459.11,166.6v52.94h-10.4V166.6H459.11z"/>
		<path d="M496.55,211.32c2.7,0,5.23-0.54,7.59-1.61c2.36-1.07,4.58-2.69,6.66-4.84l6.24,6.76c-2.77,2.77-5.96,4.94-9.57,6.5
			c-3.61,1.56-7.38,2.34-11.34,2.34c-3.81,0-7.38-0.71-10.71-2.13c-3.33-1.42-6.21-3.34-8.63-5.77c-2.43-2.43-4.35-5.32-5.77-8.68
			c-1.42-3.36-2.13-6.98-2.13-10.87c0-3.81,0.71-7.4,2.13-10.76c1.42-3.36,3.34-6.27,5.77-8.74c2.43-2.46,5.3-4.4,8.63-5.82
			c3.33-1.42,6.9-2.13,10.71-2.13c4.02,0,7.89,0.78,11.6,2.34c3.71,1.56,6.95,3.73,9.72,6.5l-6.55,7.07
			c-2.01-2.15-4.26-3.8-6.76-4.94s-5.1-1.72-7.8-1.72c-4.78,0-8.84,1.77-12.17,5.3s-4.99,7.84-4.99,12.9c0,5.2,1.68,9.55,5.04,13.05
			C487.59,209.57,491.7,211.32,496.55,211.32z"/>
		<path d="M542.31,220.47c-5.76,0-10.44-1.51-14.04-4.52c-3.61-3.02-5.41-6.88-5.41-11.6c0-5.27,2.03-9.27,6.08-12.01
			c4.06-2.74,9.17-4.11,15.34-4.11c2.56,0,5.08,0.26,7.54,0.78c2.46,0.52,4.77,1.23,6.92,2.13v-5.62c0-3.74-1.11-6.55-3.33-8.42
			c-2.22-1.87-5.41-2.81-9.57-2.81c-2.57,0-5.18,0.38-7.85,1.14c-2.67,0.76-5.53,1.87-8.58,3.33l-3.85-7.8
			c3.74-1.73,7.38-3.07,10.92-4c3.54-0.94,7.14-1.4,10.82-1.4c6.79,0,12.1,1.63,15.91,4.89c3.81,3.26,5.72,7.94,5.72,14.04v35.05
			h-10.19v-4.58c-2.29,1.87-4.8,3.26-7.54,4.16C548.46,220.02,545.5,220.47,542.31,220.47z M532.84,204.15
			c0,2.57,1.11,4.65,3.33,6.24c2.22,1.6,5.06,2.39,8.53,2.39c2.77,0,5.34-0.42,7.7-1.25c2.36-0.83,4.47-2.08,6.34-3.74v-9.26
			c-1.94-1.04-4.02-1.82-6.24-2.34c-2.22-0.52-4.68-0.78-7.38-0.78c-3.61,0-6.55,0.76-8.84,2.29
			C533.99,199.22,532.84,201.37,532.84,204.15z"/>
		<path d="M585.78,206.43v-31.1h-11.23v-8.74h11.23v-13.52l10.3-2.5v16.02h15.6v8.74h-15.6v28.7c0,2.7,0.61,4.61,1.82,5.72
			c1.21,1.11,3.21,1.66,5.98,1.66c1.52,0,2.84-0.09,3.95-0.26c1.11-0.17,2.32-0.5,3.64-0.99v8.74c-1.46,0.49-3.09,0.87-4.89,1.14
			c-1.8,0.28-3.47,0.42-4.99,0.42c-5.13,0-9.05-1.2-11.75-3.59S585.78,211.01,585.78,206.43z"/>
		<path d="M624.47,158.07c-1.73,0-3.24-0.64-4.52-1.92c-1.28-1.28-1.92-2.79-1.92-4.52c0-1.73,0.64-3.24,1.92-4.52
			c1.28-1.28,2.79-1.92,4.52-1.92c1.73,0,3.22,0.64,4.47,1.92c1.25,1.28,1.87,2.79,1.87,4.52c0,1.73-0.62,3.24-1.87,4.52
			C627.69,157.43,626.2,158.07,624.47,158.07z M629.67,166.6v52.94h-10.4V166.6H629.67z"/>
		<path d="M639.44,193.02c0-3.81,0.71-7.4,2.13-10.76c1.42-3.36,3.38-6.27,5.88-8.74c2.5-2.46,5.42-4.4,8.79-5.82
			c3.36-1.42,6.95-2.13,10.76-2.13c3.81,0,7.4,0.71,10.76,2.13c3.36,1.42,6.27,3.36,8.74,5.82c2.46,2.46,4.4,5.37,5.82,8.74
			c1.42,3.36,2.13,6.95,2.13,10.76c0,3.88-0.71,7.51-2.13,10.87c-1.42,3.36-3.36,6.28-5.82,8.74c-2.46,2.46-5.37,4.4-8.74,5.82
			c-3.36,1.42-6.95,2.13-10.76,2.13c-3.81,0-7.4-0.71-10.76-2.13c-3.36-1.42-6.29-3.36-8.79-5.82c-2.5-2.46-4.46-5.37-5.88-8.74
			C640.15,200.52,639.44,196.9,639.44,193.02z M684.37,193.02c0-5.13-1.7-9.46-5.1-13c-3.4-3.54-7.49-5.3-12.27-5.3
			s-8.88,1.77-12.27,5.3c-3.4,3.54-5.1,7.87-5.1,13c0,5.13,1.68,9.48,5.04,13.05c3.36,3.57,7.47,5.36,12.32,5.36
			c4.78,0,8.87-1.78,12.27-5.36C682.67,202.5,684.37,198.15,684.37,193.02z"/>
		<path d="M704.23,219.54V166.6h10.4v5.3c2.08-2.08,4.45-3.66,7.12-4.73c2.67-1.07,5.6-1.61,8.79-1.61c6.03,0,10.97,1.94,14.82,5.82
			c3.85,3.88,5.77,8.84,5.77,14.87v33.28h-10.3v-31.51c0-4.09-1.18-7.35-3.54-9.78c-2.36-2.43-5.58-3.64-9.67-3.64
			c-2.77,0-5.27,0.59-7.49,1.77c-2.22,1.18-4.06,2.88-5.51,5.1v38.06H704.23z"/>
		<path d="M779.74,207.47l6.66-7.7c3.88,3.81,7.89,6.67,12.01,8.58c4.12,1.91,8.48,2.86,13.05,2.86c5.27,0,9.53-1.14,12.79-3.43
			c3.26-2.29,4.89-5.2,4.89-8.74c0-3.19-1.11-5.67-3.33-7.44c-2.22-1.77-6.03-3.1-11.44-4l-12.17-1.98
			c-6.73-1.11-11.72-3.26-14.98-6.45c-3.26-3.19-4.89-7.35-4.89-12.48c0-6.24,2.44-11.28,7.33-15.13c4.89-3.85,11.39-5.77,19.5-5.77
			c5.13,0,10.26,0.85,15.39,2.55c5.13,1.7,9.78,4.14,13.94,7.33l-6.03,8.32c-3.95-2.98-7.92-5.22-11.91-6.71
			c-3.99-1.49-7.96-2.24-11.91-2.24c-4.72,0-8.53,1.01-11.44,3.02c-2.91,2.01-4.37,4.61-4.37,7.8c0,2.91,1,5.17,3.02,6.76
			c2.01,1.6,5.34,2.77,9.98,3.54l11.75,1.87c7.7,1.25,13.35,3.52,16.95,6.81c3.6,3.29,5.41,7.75,5.41,13.36
			c0,3.33-0.69,6.36-2.08,9.1c-1.39,2.74-3.35,5.1-5.88,7.07c-2.53,1.98-5.6,3.5-9.2,4.58c-3.61,1.07-7.56,1.61-11.86,1.61
			c-5.82,0-11.44-1.14-16.85-3.43C788.68,214.86,783.9,211.63,779.74,207.47z"/>
		<path d="M847.44,193.02c0-3.74,0.68-7.28,2.03-10.61c1.35-3.33,3.22-6.22,5.62-8.68c2.39-2.46,5.2-4.4,8.42-5.82
			c3.22-1.42,6.71-2.13,10.45-2.13c3.6,0,6.98,0.71,10.14,2.13c3.15,1.42,5.86,3.36,8.11,5.82c2.25,2.46,4.04,5.39,5.36,8.79
			c1.32,3.4,1.98,7.04,1.98,10.92v3.02h-41.81c0.69,4.37,2.7,7.99,6.03,10.87c3.33,2.88,7.28,4.32,11.86,4.32
			c2.56,0,5.03-0.42,7.38-1.25c2.36-0.83,4.37-1.98,6.03-3.43l6.66,6.55c-3.12,2.43-6.33,4.2-9.62,5.3
			c-3.29,1.11-6.92,1.66-10.87,1.66c-3.88,0-7.52-0.71-10.92-2.13c-3.4-1.42-6.34-3.34-8.84-5.77c-2.5-2.43-4.46-5.32-5.88-8.68
			C848.15,200.52,847.44,196.9,847.44,193.02z M873.75,174.51c-4.02,0-7.49,1.32-10.4,3.95c-2.91,2.64-4.75,6.03-5.51,10.19h31.41
			c-0.69-4.02-2.5-7.38-5.41-10.09C880.93,175.86,877.56,174.51,873.75,174.51z"/>
		<path d="M909.32,219.54V166.6h10.4v6.55c1.73-2.63,3.88-4.58,6.45-5.82c2.56-1.25,5.23-1.87,8.01-1.87c1.18,0,2.2,0.07,3.07,0.21
			c0.87,0.14,1.65,0.35,2.34,0.62v9.36c-0.83-0.28-1.8-0.54-2.91-0.78c-1.11-0.24-2.22-0.36-3.33-0.36c-2.77,0-5.37,0.75-7.8,2.24
			c-2.43,1.49-4.37,3.94-5.82,7.33v35.46H909.32z"/>
		<path d="M967.25,219.54l-22.88-52.94h11.44l16.54,39.62l16.54-39.62H1000l-22.88,52.94H967.25z"/>
		<path d="M1011.55,158.07c-1.73,0-3.24-0.64-4.52-1.92c-1.28-1.28-1.92-2.79-1.92-4.52c0-1.73,0.64-3.24,1.92-4.52
			c1.28-1.28,2.79-1.92,4.52-1.92c1.73,0,3.22,0.64,4.47,1.92c1.25,1.28,1.87,2.79,1.87,4.52c0,1.73-0.62,3.24-1.87,4.52
			C1014.77,157.43,1013.28,158.07,1011.55,158.07z M1016.75,166.6v52.94h-10.4V166.6H1016.75z"/>
		<path d="M1054.19,211.32c2.7,0,5.23-0.54,7.59-1.61c2.36-1.07,4.58-2.69,6.66-4.84l6.24,6.76c-2.77,2.77-5.96,4.94-9.57,6.5
			c-3.61,1.56-7.38,2.34-11.34,2.34c-3.81,0-7.38-0.71-10.71-2.13c-3.33-1.42-6.21-3.34-8.63-5.77c-2.43-2.43-4.35-5.32-5.77-8.68
			c-1.42-3.36-2.13-6.98-2.13-10.87c0-3.81,0.71-7.4,2.13-10.76c1.42-3.36,3.34-6.27,5.77-8.74c2.43-2.46,5.3-4.4,8.63-5.82
			c3.33-1.42,6.9-2.13,10.71-2.13c4.02,0,7.89,0.78,11.6,2.34c3.71,1.56,6.95,3.73,9.72,6.5l-6.55,7.07
			c-2.01-2.15-4.26-3.8-6.76-4.94s-5.1-1.72-7.8-1.72c-4.78,0-8.84,1.77-12.17,5.3s-4.99,7.84-4.99,12.9c0,5.2,1.68,9.55,5.04,13.05
			C1045.22,209.57,1049.33,211.32,1054.19,211.32z"/>
		<path d="M1078.73,193.02c0-3.74,0.68-7.28,2.03-10.61c1.35-3.33,3.22-6.22,5.62-8.68c2.39-2.46,5.2-4.4,8.42-5.82
			c3.22-1.42,6.71-2.13,10.45-2.13c3.6,0,6.98,0.71,10.14,2.13c3.15,1.42,5.86,3.36,8.11,5.82c2.25,2.46,4.04,5.39,5.36,8.79
			c1.32,3.4,1.98,7.04,1.98,10.92v3.02h-41.81c0.69,4.37,2.7,7.99,6.03,10.87c3.33,2.88,7.28,4.32,11.86,4.32
			c2.56,0,5.03-0.42,7.38-1.25c2.36-0.83,4.37-1.98,6.03-3.43l6.66,6.55c-3.12,2.43-6.33,4.2-9.62,5.3
			c-3.29,1.11-6.92,1.66-10.87,1.66c-3.88,0-7.52-0.71-10.92-2.13c-3.4-1.42-6.34-3.34-8.84-5.77c-2.5-2.43-4.46-5.32-5.88-8.68
			C1079.44,200.52,1078.73,196.9,1078.73,193.02z M1105.04,174.51c-4.02,0-7.49,1.32-10.4,3.95c-2.91,2.64-4.75,6.03-5.51,10.19
			h31.41c-0.69-4.02-2.5-7.38-5.41-10.09C1112.22,175.86,1108.85,174.51,1105.04,174.51z"/>
		<path d="M1136.24,212.67l5.62-6.86c2.22,1.87,4.8,3.45,7.75,4.73c2.95,1.28,6.12,1.92,9.52,1.92c4.16,0,7.31-0.78,9.46-2.34
			c2.15-1.56,3.22-3.41,3.22-5.56c0-1.87-0.68-3.36-2.03-4.47c-1.35-1.11-3.52-1.87-6.5-2.29l-9.57-1.35
			c-5.2-0.69-9.14-2.29-11.8-4.78s-4-5.79-4-9.88c0-4.78,1.94-8.65,5.82-11.6c3.88-2.95,8.84-4.42,14.87-4.42
			c3.95,0,7.7,0.57,11.23,1.72c3.54,1.14,6.9,2.83,10.09,5.04l-5.3,6.86c-2.57-1.73-5.2-3.08-7.9-4.06
			c-2.7-0.97-5.65-1.46-8.84-1.46c-3.05,0-5.58,0.64-7.59,1.92c-2.01,1.28-3.02,3.03-3.02,5.25c0,1.94,0.68,3.42,2.03,4.42
			c1.35,1.01,3.59,1.75,6.71,2.24l9.57,1.35c5.34,0.76,9.34,2.41,12.01,4.94c2.67,2.53,4,5.81,4,9.83c0,2.36-0.57,4.56-1.72,6.6
			c-1.14,2.05-2.7,3.81-4.68,5.3c-1.98,1.49-4.32,2.65-7.02,3.48s-5.62,1.25-8.74,1.25c-4.37,0-8.58-0.66-12.64-1.98
			C1142.74,217.18,1139.22,215.24,1136.24,212.67z"/>
	</g>
	<g>
		<g>
			<path class="st1" d="M128.97,84.99c12.5,0,30.61-2.59,30.61-17.46c0-1.16-0.03-2.29-0.31-3.42l-7.45-32.36
				c-1.73-7.11-3.23-10.35-15.74-16.6C126.39,10.19,105.26,2,99.01,2c-5.82,0-7.54,7.54-14.44,7.54c-6.68,0-11.64-5.6-17.89-5.6
				c-6.03,0-9.92,4.1-12.93,12.5c0,0-8.41,23.71-9.49,27.16c-0.22,0.65-0.22,1.37-0.22,1.94C44.03,54.76,80.33,84.99,128.97,84.99
				 M161.52,73.57c1.73,8.19,1.73,9.05,1.73,10.13c0,14.01-15.74,21.77-36.43,21.77c-46.78,0-87.74-27.38-87.74-45.48
				c0-2.8,0.65-5.39,1.51-7.33C23.77,53.52,2,56.54,2,75.72C2,107.2,76.59,146,135.65,146c45.27,0,56.69-20.48,56.69-36.65
				C192.35,96.63,181.36,82.19,161.52,73.57"/>
			<path d="M161.52,73.57c1.73,8.19,1.73,9.05,1.73,10.13c0,14.01-15.74,21.77-36.43,21.77c-46.78,0-87.74-27.38-87.74-45.48
				c0-2.8,0.65-5.39,1.51-7.33l3.67-9.06c-0.22,0.65-0.22,1.37-0.22,1.94c0,9.22,36.29,39.45,84.94,39.45
				c12.5,0,30.61-2.59,30.61-17.46c0-1.16-0.03-2.29-0.31-3.42L161.52,73.57z"/>
		</g>
		<path d="M581.24,94.3c0,11.88,7.15,17.67,20.19,17.67c3.16,0,8.62-0.74,11.89-1.68V96.51c-2.84,0.84-4.94,1.16-7.68,1.16
			c-5.36,0-7.36-1.68-7.36-6.73V69.8h15.56V55.6h-15.56V37.62l-17.04,3.68v14.3h-11.25v14.2h11.25V94.3z M528.29,94.62
			c0-3.68,3.68-5.47,9.25-5.47c3.68,0,7.05,0.53,10.1,1.26v7.15c-3.16,1.79-6.84,2.63-10.62,2.63
			C531.56,100.19,528.29,98.09,528.29,94.62 M533.49,112.18c5.99,0,10.83-1.26,15.35-4.31v3.37h16.83V75.58
			c0-13.57-9.15-21.03-24.4-21.03c-8.52,0-16.93,2-25.98,6.1l6.1,12.52c6.52-2.73,11.99-4.42,16.83-4.42
			c7.05,0,10.62,2.73,10.62,8.31v2.73c-4-1.05-8.2-1.58-12.62-1.58c-14.3,0-22.93,5.99-22.93,16.72
			C513.3,104.72,521.08,112.18,533.49,112.18 M441.05,111.24h18.09V82.42h30.29v28.82h18.09V37.62h-18.09v28.29h-30.29V37.62h-18.09
			V111.24z M372.12,83.37c0-7.99,6.31-14.09,14.62-14.09c4.63,0,8.83,1.58,11.78,4.31v19.46c-3.05,2.94-7.05,4.42-11.78,4.42
			C378.54,97.46,372.12,91.36,372.12,83.37 M398.73,111.24h16.83v-77.3l-17.04,3.68v20.93c-4.21-2.42-9.04-3.68-14.2-3.68
			c-16.2,0-28.92,12.52-28.92,28.5c0,15.99,12.52,28.61,28.4,28.61c5.47,0,10.62-1.68,14.93-4.84V111.24z M321.54,68.54
			c5.36,0,9.89,3.47,11.67,8.83h-23.24C311.65,71.8,315.86,68.54,321.54,68.54 M292.83,83.47c0,16.2,13.25,28.82,30.29,28.82
			c9.36,0,16.2-2.52,23.24-8.41l-11.25-9.99c-2.63,2.73-6.52,4.21-11.15,4.21c-6.31,0-11.46-3.47-13.67-8.83h39.65v-4.21
			c0-17.67-11.88-30.39-28.08-30.39C305.55,54.66,292.83,67.28,292.83,83.47 M263.49,53.08c5.99,0,9.36,3.79,9.36,8.31
			s-3.37,8.31-9.36,8.31h-17.88V53.08H263.49z M227.52,111.24h18.09V84.42h13.78l13.88,26.82h20.19l-16.2-29.45
			c8.73-3.79,13.88-11.67,13.88-20.72c0-13.25-10.41-23.45-25.98-23.45h-37.65V111.24z"/>
	</g>
</g>
</svg>
