<svg xmlns="http://www.w3.org/2000/svg" id="uuid-ab8d002f-c64f-447d-935a-24d74a3b651e" viewBox="0 0 38 38" width="100%" height="100%">
<desc>background:light</desc>
  <defs>
    <style> .uuid-d356d8db-1a9d-4205-a22a-bdd2de0d201d { fill: #e00; } .uuid-65f571fe-6bb4-4a1c-9d0a-0ca47222941a { fill: #fff; } .uuid-4000f8c7-3cce-4d7a-a0e5-c22411b9bc43 { fill: #4d4d4d; } </style>
  </defs>
  <rect x="1" y="1" width="36" height="36" rx="9" ry="9"/>
  <path class="uuid-4000f8c7-3cce-4d7a-a0e5-c22411b9bc43" d="m28,2.25c4.27338,0,7.75,3.47664,7.75,7.75v18c0,4.27336-3.47662,7.75-7.75,7.75H10c-4.27338,0-7.75-3.47664-7.75-7.75V10c0-4.27336,3.47662-7.75,7.75-7.75h18m0-1.25H10C5.02942,1,1,5.02943,1,10v18c0,4.97056,4.02942,9,9,9h18c4.97058,0,9-4.02944,9-9V10c0-4.97057-4.02942-9-9-9h0Z"/>
  <path class="uuid-d356d8db-1a9d-4205-a22a-bdd2de0d201d" d="m21.34863,18.33691c-2.75293,0-4.99219-2.23926-4.99219-4.99219,0-1.58496.72754-3.04053,1.99609-3.99316.12305-.09326.25488-.18262.39062-.26562.13379-.08252.27344-.15918.41699-.229.68555-.33496,1.42188-.50439,2.18848-.50439,2.75293,0,4.99219,2.23926,4.99219,4.99219s-2.23926,4.99219-4.99219,4.99219Zm0-8.73438c-.5752,0-1.12695.12695-1.63965.37744-.10645.05225-.21094.10938-.31152.17139-.10254.0625-.19922.12744-.29199.19824-.95312.71582-1.49902,1.80713-1.49902,2.99512,0,2.06348,1.67871,3.74219,3.74219,3.74219s3.74219-1.67871,3.74219-3.74219-1.67871-3.74219-3.74219-3.74219Z"/>
  <path class="uuid-d356d8db-1a9d-4205-a22a-bdd2de0d201d" d="m12.5127,24.76074c-2.75293,0-4.99219-2.23926-4.99219-4.99219,0-1.58496.72754-3.04053,1.99609-3.99316.12598-.09473.25586-.18262.39062-.26562.13379-.08252.27344-.15918.41699-.229.68555-.33496,1.42188-.50439,2.18848-.50439,2.75293,0,4.99219,2.23926,4.99219,4.99219s-2.23926,4.99219-4.99219,4.99219Zm0-8.73438c-.57522,0-1.12695.12695-1.63965.37744-.10645.05225-.21094.10938-.31152.17139-.10352.0625-.2002.12891-.29395.19971-.95117.71436-1.49707,1.80566-1.49707,2.99365,0,2.06348,1.67871,3.74219,3.74219,3.74219s3.74219-1.67871,3.74219-3.74219-1.67871-3.74219-3.74219-3.74219Z"/>
  <path class="uuid-d356d8db-1a9d-4205-a22a-bdd2de0d201d" d="m22.4873,29.20166c-2.75293,0-4.99219-2.23926-4.99219-4.99219,0-1.58496.72754-3.04053,1.99609-3.99316.12402-.09424.25488-.18311.38965-.26562s.27539-.15967.41992-.22998c.68066-.3335,1.41797-.50342,2.18652-.50342,2.75293,0,4.99219,2.23926,4.99219,4.99219s-2.23926,4.99219-4.99219,4.99219Zm0-8.73438c-.57715,0-1.12793.12695-1.63867.37744-.11035.05273-.21387.10938-.31348.17139-.10156.06201-.19922.12842-.29297.19873-.95117.71533-1.49707,1.80664-1.49707,2.99463,0,2.06348,1.67871,3.74219,3.74219,3.74219s3.74219-1.67871,3.74219-3.74219-1.67871-3.74219-3.74219-3.74219Z"/>
  <path class="uuid-65f571fe-6bb4-4a1c-9d0a-0ca47222941a" d="m18.22949,29.97998c0-.3501.28027-.63037.62012-.63037h0c.35059,0,.62988.28027.62988.63037h0c0,.33984-.2793.61963-.62988.61963h0c-.33984,0-.62012-.27979-.62012-.61963Zm-1.47949.42969c-.33984-.06006-.56055-.37988-.5-.71973h0c.05957-.34033.38965-.57031.72949-.51025h0c.33984.07031.56055.39014.5.72998h0c-.0498.30029-.31934.51025-.60938.51025h0c-.04004,0-.08008,0-.12012-.01025Zm-2.03027-.56982c-.32031-.12012-.47949-.47998-.36035-.7998h0c.12012-.32031.48047-.47998.80078-.36035h0c.33008.12012.48926.47998.37012.80029h0c-.10059.25-.34082.40967-.59082.40967h0c-.06934,0-.14941-.02002-.21973-.0498Zm-1.90039-.91992c-.28906-.18018-.37988-.57031-.20996-.85986h0c.18066-.29004.57031-.39014.86035-.21045h0c.2998.18018.38965.56006.20996.86035h0c-.12012.18994-.32031.2998-.53027.2998h0c-.10938,0-.22949-.02979-.33008-.08984Zm-1.68945-1.26025h0c-.25977-.22998-.28027-.61963-.0498-.87988h0c.22949-.25977.62012-.27979.87988-.0498h0c.25977.22998.28027.61963.0498.87988h0c-.12012.14014-.2998.20996-.46973.20996h0c-.15039,0-.2998-.0498-.41016-.16016Z"/>
  <path class="uuid-65f571fe-6bb4-4a1c-9d0a-0ca47222941a" d="m29.63965,21.23975c-.33984-.0498-.58008-.37012-.53027-.70996h.01074c.0498-.33984.35938-.56982.70996-.52002h0c.33984.05029.56934.37012.51953.70996h0c-.0498.31006-.30957.53027-.60938.53027h0c-.04004,0-.07031,0-.10059-.01025Zm-.41992-2.58984c-.00977-.3501.25977-.62988.61035-.6499h0c.34961,0,.62988.27002.63965.60986h0c.00977.3501-.25977.64014-.59961.64014h-.02051c-.33984,0-.62012-.26025-.62988-.6001Zm-.21973-1.87012h0c-.08008-.33984.13965-.66992.47949-.73975h0c.33008-.08008.66992.13965.74023.47998h0c.07031.32959-.13965.66992-.47949.73975h0c-.05078.01025-.09082.01025-.13086.01025h0c-.29004,0-.5498-.2002-.60938-.49023Zm-.57031-1.7998h.00977c-.13965-.32031.01074-.68018.33008-.81006h0c.32031-.14014.68066.00977.82031.33008h0c.12988.31982-.02051.68994-.33984.81982h0c-.08008.02979-.16016.0498-.24023.0498h0c-.24023,0-.47949-.1499-.58008-.38965Zm-.87988-1.66016c-.19043-.29004-.11035-.68018.17969-.87012h0c.29004-.17969.68066-.1001.87012.18994h0c.19043.29004.11035.67041-.17969.86035h0c-.11035.06982-.23047.09961-.33984.09961h0c-.20996,0-.41016-.09961-.53027-.27979Z"/>
  <path class="uuid-65f571fe-6bb4-4a1c-9d0a-0ca47222941a" d="m9.29004,13.5c-.29004-.18994-.37012-.58008-.18066-.86035h0c.19043-.29004.57031-.36963.86035-.18994h0c.29004.18994.37012.58008.19043.87012h0c-.12012.18018-.32031.27979-.53027.27979h0c-.11035,0-.23047-.02979-.33984-.09961Zm1.14941-1.64014c-.25-.22998-.25977-.62988-.01953-.87988h0c.22949-.25.62988-.26025.87988-.02002h0c.25.23975.25977.62988.01953.87988h.01074c-.12988.12988-.29004.2002-.45996.2002h0c-.15039,0-.31055-.06006-.43066-.18018Zm1.43066-1.3999c-.20996-.28027-.15039-.66992.12988-.87012h0c.28027-.20996.66992-.1499.87988.12988h0c.2002.28027.13965.66992-.13965.87988v-.00977c-.11035.08984-.24023.12988-.37012.12988h0c-.19043,0-.37988-.08984-.5-.25977Zm1.64941-1.12012c-.14941-.31006-.01953-.68994.29004-.83984h0c.31055-.15039.69043-.02002.83984.29004h0c.14062.30957.01074.68994-.2998.83984h0c-.08008.04004-.17969.06006-.26953.06006h0c-.23047,0-.4502-.12988-.56055-.3501Zm1.83008-.81006c-.08984-.33008.10059-.68018.44043-.77002h0c.33008-.08984.66992.10986.76953.43994h0c.08984.33008-.10938.68018-.43945.77002h0c-.06055.01025-.11035.02002-.16992.02002h0c-.27051,0-.52051-.17969-.60059-.45996Z"/>
</svg>
