<svg xmlns="http://www.w3.org/2000/svg" viewBox="0 0 54 54" width="100%" height="100%" fill="none">
  <desc>background:light</desc>
  <path d="M53.8327 26.9904C53.8327 41.8043 41.8194 53.814 26.9993 53.814C12.1793 53.814 0.166016 41.8043 0.166016 26.9904C0.166016 12.1764 12.1793 0.166626 26.9993 0.166626C41.8194 0.166626 53.8327 12.1764 53.8327 26.9904Z" fill="url(#paint0_linear_1960_10603)"/>
  <path d="M23.666 17.9904C27.2614 17.9904 30.3449 19.6776 31.6572 22.0773C35.8106 22.569 38.9978 25.3227 38.998 28.6554C38.998 30.201 38.3098 31.6181 37.1641 32.7472C37.8015 34.0262 38.7226 35.0179 38.7393 35.0304C39.0015 35.3095 39.0727 35.7174 38.9229 36.0714C38.7687 36.4255 38.4224 36.6544 38.0391 36.6544C35.8062 36.6543 34.0105 35.8089 32.8232 35.0382C32.0317 35.2215 31.1985 35.3214 30.332 35.3214C26.7408 35.3214 23.6705 33.6385 22.3623 31.2472C21.9582 31.1972 21.562 31.1306 21.1787 31.0431C19.9914 31.818 18.1916 32.6593 15.9629 32.6593C15.5797 32.6593 15.2301 32.4303 15.0801 32.0763C14.9259 31.7222 15.0002 31.3134 15.2627 31.0343C15.2797 31.0173 16.1967 30.026 16.834 28.7472C15.6883 27.614 15.001 26.1978 15.001 24.6564C15.001 20.9735 18.8791 17.9904 23.666 17.9904ZM32.3027 24.2394C32.3152 24.3769 32.332 24.5147 32.332 24.6564C32.3319 28.0266 29.0823 30.801 24.8623 31.2511C26.0747 32.4842 28.0824 33.3214 30.332 33.3214C31.0193 33.3214 31.7066 33.243 32.373 33.089L33.2021 32.8966L33.915 33.3595C34.5024 33.7386 35.1027 34.0387 35.7109 34.2511C35.5985 34.0553 35.4853 33.8464 35.377 33.6339L34.7314 32.339L35.7607 31.3224C36.3232 30.7641 36.998 29.8511 36.998 28.6554C36.9978 26.6058 34.9856 24.8435 32.3027 24.2394ZM23.666 19.9904C20.054 19.9904 17 22.1275 17 24.6564C17.0001 25.8518 17.6749 26.7641 18.2373 27.3224L19.2705 28.3429L18.625 29.6388C18.5167 29.8513 18.4045 30.0602 18.292 30.256C18.9 30.0435 19.4997 29.7433 20.0869 29.3644L20.7998 28.9015L21.625 29.089C22.2915 29.2431 22.9787 29.3224 23.666 29.3224C27.278 29.3224 30.3319 27.1852 30.332 24.6564C30.332 22.1275 27.2781 19.9904 23.666 19.9904Z" fill="white"/>
  <defs>
    <linearGradient id="paint0_linear_1960_10603" x1="26.9993" y1="0.166626" x2="26.9993" y2="53.814" gradientUnits="userSpaceOnUse">
      <stop stop-color="#F56E6E"/>
      <stop offset="1" stop-color="#5E40BE"/>
    </linearGradient>
  </defs>
</svg>
