<?xml version="1.0" encoding="UTF-8"?>
<svg id="uuid-1657764b-6114-40f4-9c63-7462abf08405" xmlns="http://www.w3.org/2000/svg" viewBox="0 0 38 38">
    <defs>
        <style>
            .uuid-10e45128-ffff-4bf2-9e1c-7938f6809f98 {
                fill: #e00;
            }
            .uuid-dbf8b27f-1a2f-4efc-b5c5-9a80b0d51d20 {
                fill: #fff;
            }
            .uuid-c751e8a9-a5f7-4be3-84ab-a2d765c378c0 {
                fill: #e0e0e0;
            }
        </style>
    </defs>
    <path class="uuid-dbf8b27f-1a2f-4efc-b5c5-9a80b0d51d20" d="m28,1H10C5.02944,1,1,5.02944,1,10v18c0,4.97057,4.02944,9,9,9h18c4.97056,0,9-4.02943,9-9V10c0-4.97056-4.02944-9-9-9h0Z" />
    <path class="uuid-c751e8a9-a5f7-4be3-84ab-a2d765c378c0" d="m28,2.25c4.27332,0,7.75,3.47664,7.75,7.75v18c0,4.27336-3.47668,7.75-7.75,7.75H10c-4.27332,0-7.75-3.47664-7.75-7.75V10c0-4.27336,3.47668-7.75,7.75-7.75h18m0-1.25H10C5.02942,1,1,5.02944,1,10v18c0,4.97057,4.02942,9,9,9h18c4.97058,0,9-4.02943,9-9V10c0-4.97056-4.02942-9-9-9h0Z" />
    <path class="uuid-10e45128-ffff-4bf2-9e1c-7938f6809f98" d="m23,18.375h-.77124c-.08569-.4433-.25732-.85614-.50195-1.2171l.5437-.54364c.24316-.24414.24316-.64062,0-.88477-.24414-.24414-.64062-.24414-.88477,0l-.5437.54364c-.36084-.24457-.77368-.4162-1.21704-.50189v-.77124c0-.34473-.28027-.625-.625-.625s-.625.28027-.625.625v.77124c-.44336.08569-.8562.25732-1.21704.50189l-.5437-.54364c-.24414-.24414-.64062-.24414-.88477,0-.24316.24414-.24316.64062,0,.88477l.5437.54364c-.24463.36096-.41626.7738-.50195,1.2171h-.77124c-.34473,0-.625.28027-.625.625s.28027.625.625.625h.77124c.08569.4433.25732.85614.50195,1.2171l-.5437.54364c-.24316.24414-.24316.64062,0,.88477.12207.12207.28223.18262.44238.18262s.32031-.06055.44238-.18262l.5437-.54364c.36084.24457.77368.4162,1.21704.50189v.77124c0,.34473.28027.625.625.625s.625-.28027.625-.625v-.77124c.44336-.08569.8562-.25732,1.21704-.50189l.5437.54364c.12207.12207.28223.18262.44238.18262s.32031-.06055.44238-.18262c.24316-.24414.24316-.64062,0-.88477l-.5437-.54364c.24463-.36096.41626-.7738.50195-1.2171h.77124c.34473,0,.625.28027.625.625s-.28027-.625-.625-.625Zm-4,2.66699c-1.12598,0-2.04199-.91602-2.04199-2.04199s.91602-2.04199,2.04199-2.04199,2.04199.91602,2.04199,2.04199-.91602,2.04199-2.04199,2.04199Z" />
    <path class="uuid-10e45128-ffff-4bf2-9e1c-7938f6809f98" d="m13.91113,25.80078c-.14062,0-.28125-.04688-.39746-.14258-3.03711-2.5-3.99512-6.73828-2.3291-10.30566,1.66504-3.56787,5.52344-5.55566,9.39453-4.8335.33887.06348.5625.38965.49902.729-.06348.33984-.39062.56299-.72949.49951-3.30566-.61572-6.60742,1.08203-8.03125,4.13428-1.4248,3.05078-.60547,6.67383,1.99121,8.81152.2666.21973.30469.61328.08496.87988-.12305.14941-.30273.22754-.48242.22754Z" />
    <path d="m19.00684,27.62891c-.52539,0-1.05469-.04785-1.58594-.14746-.33887-.06348-.5625-.38965-.49902-.72949.0625-.33887.39355-.56641.72949-.49902,3.29883.61816,6.60742-1.08301,8.03125-4.13477,1.4248-3.05078.60547-6.67383-1.99121-8.81104-.2666-.21924-.30469-.61328-.08496-.87939.21875-.26855.61523-.30273.87988-.08545,3.03711,2.49951,3.99512,6.73682,2.3291,10.30518-1.43652,3.0791-4.50977,4.98145-7.80859,4.98145Z" />
    <path d="m27,12.0752c-.16602,0-.33105-.06592-.4541-.1958-1.98145-2.09863-4.66113-3.25439-7.5459-3.25439s-5.56445,1.15576-7.5459,3.25439c-.2373.25146-.63379.26221-.88281.02539-.25098-.2373-.2627-.63281-.02539-.88379,2.21973-2.35107,5.22168-3.646,8.4541-3.646s6.23438,1.29492,8.4541,3.646c.2373.25098.22559.64648-.02539.88379-.12012.11377-.27441.17041-.42871.17041Z" />
    <path d="m19,30.625c-6.41016,0-11.625-5.21484-11.625-11.625,0-1.45898.2666-2.88184.79297-4.22754.12598-.32227.48828-.48047.80957-.35449s.48047.48828.35449.80957c-.46875,1.2002-.70703,2.46973-.70703,3.77246,0,5.7207,4.6543,10.375,10.375,10.375.34473,0,.625.28027.625.625s-.28027.625-.625.625Z" />
    <path class="uuid-10e45128-ffff-4bf2-9e1c-7938f6809f98" d="m23,29.875c-.25,0-.48633-.15137-.58203-.39746-.12598-.32227.0332-.68457.35449-.80957,1.02441-.39941,1.97559-.95898,2.8291-1.66406,2.39844-1.98047,3.77344-4.89746,3.77344-8.00391,0-1.50977-.31738-2.96582-.94336-4.32812-.14355-.31348-.00586-.68457.30762-.82861.30859-.14502.68457-.00781.8291.30713.70117,1.52637,1.05664,3.1582,1.05664,4.84961,0,3.48047-1.54102,6.74902-4.22656,8.96777-.95703.78906-2.02344,1.41699-3.1709,1.86426-.0752.0293-.15234.04297-.22754.04297Z" />
</svg>
