<svg xmlns="http://www.w3.org/2000/svg" id="uuid-a1116dd9-3b69-4368-b1fa-5bd27a8245be" viewBox="0 0 38 38">
  <defs>
    <style> .uuid-51b23653-c745-4942-b656-3c72d0a746fd { fill: #e00; } .uuid-f98027b0-e618-4186-8899-f0ca9e8456e4 { fill: #fff; } .uuid-0d0af130-f80b-40e8-b64d-1e1e5bfbdeca { fill: #e0e0e0; } </style>
  </defs>
  <path class="uuid-f98027b0-e618-4186-8899-f0ca9e8456e4" d="m28,1H10C5.02944,1,1,5.02944,1,10v18c0,4.97057,4.02944,9,9,9h18c4.97056,0,9-4.02943,9-9V10c0-4.97056-4.02944-9-9-9h0Z"/>
  <path class="uuid-0d0af130-f80b-40e8-b64d-1e1e5bfbdeca" d="m28,2.25c4.27332,0,7.75,3.47664,7.75,7.75v18c0,4.27336-3.47668,7.75-7.75,7.75H10c-4.27332,0-7.75-3.47664-7.75-7.75V10c0-4.27336,3.47668-7.75,7.75-7.75h18m0-1.25H10C5.02942,1,1,5.02944,1,10v18c0,4.97057,4.02942,9,9,9h18c4.97058,0,9-4.02943,9-9V10c0-4.97056-4.02942-9-9-9h0Z"/>
  <path d="m28,20.625h-3c-.34473,0-.625-.27979-.625-.625s.28027-.625.625-.625h3c.34473,0,.625.27979.625.625s-.28027.625-.625.625Z"/>
  <path d="m13,20.625h-3c-.34473,0-.625-.27979-.625-.625s.28027-.625.625-.625h3c.34473,0,.625.27979.625.625s-.28027.625-.625.625Z"/>
  <path d="m22,13.625c-.34473,0-.625-.27979-.625-.625v-2.375h-4.75v2.375c0,.34521-.28027.625-.625.625s-.625-.27979-.625-.625v-3c0-.34521.28027-.625.625-.625h6c.34473,0,.625.27979.625.625v3c0,.34521-.28027.625-.625.625Z"/>
  <path class="uuid-51b23653-c745-4942-b656-3c72d0a746fd" d="m28,27.625H10c-.34473,0-.625-.27979-.625-.625v-12c0-.16553.06543-.32471.18262-.44189l2-2c.11719-.11719.27637-.18311.44238-.18311h14c.16602,0,.3252.06592.44238.18311l2,2c.11719.11719.18262.27637.18262.44189v12c0,.34521-.28027.625-.625.625Zm-17.375-1.25h16.75v-11.11621l-1.63379-1.63379h-13.48242l-1.63379,1.63379v11.11621Z"/>
  <path class="uuid-51b23653-c745-4942-b656-3c72d0a746fd" d="m23,19.375h-.77124c-.08569-.44348-.25769-.85632-.50244-1.21741l.54419-.54431c.24316-.24414.24316-.63965,0-.88379-.24414-.24414-.64062-.24414-.88477,0l-.54382.54401c-.36096-.24451-.77368-.41614-1.21692-.50177v-.77173c0-.34521-.28027-.625-.625-.625s-.625.27979-.625.625v.77173c-.44324.08563-.85596.25726-1.21692.50177l-.54382-.54401c-.24414-.24414-.64062-.24414-.88477,0-.24316.24414-.24316.63965,0,.88379l.54419.54431c-.24475.36108-.41675.77393-.50244,1.21741h-.77124c-.34473,0-.625.27979-.625.625s.28027.625.625.625h.77124c.08569.44348.25769.85632.50244,1.21741l-.54419.54431c-.24316.24414-.24316.63965,0,.88379.12207.12207.28223.18311.44238.18311s.32031-.06104.44238-.18311l.54382-.54401c.36096.24451.77368.41614,1.21692.50177v.77173c0,.34521.28027.625.625.625s-.625-.27979-.625.625v-.77173c.44324-.08563.85596.25726,1.21692-.50177l.54382.54401c.12207.12207.28223.18311.44238.18311s.32031-.06104.44238-.18311c.24316-.24414.24316-.63965,0-.88379l-.54419-.54431c.24475-.36108-.41675-.77393-.50244-1.21741h.77124c.34473,0,.625-.27979.625-.625s-.28027-.625-.625-.625Zm-4,2.6665c-1.12598,0-2.04199-.91602-2.04199-2.0415s.91602-2.0415,2.04199-2.0415,2.04199.91602,2.04199,2.0415-.91602,2.0415-2.04199,2.0415Z"/>
</svg>
