<svg xmlns="http://www.w3.org/2000/svg" id="uuid-679578aa-0231-4035-af54-68ca0e88bf64" viewBox="0 0 38 38">
  <defs>
    <style>
            .uuid-84bececf-53d9-44e0-9333-b1962df5ffd2 {
                fill: #e00;
            }
            .uuid-d3c94f50-a3f6-4b17-b6a9-2305845e5ee7 {
                fill: #fff;
            }
            .uuid-066faa16-bcce-4dc0-b165-f464b0a84e8a {
                fill: #e0e0e0;
            }
        </style>
  </defs>
  <path class="uuid-d3c94f50-a3f6-4b17-b6a9-2305845e5ee7" d="m28,1H10C5.02944,1,1,5.02944,1,10v18c0,4.97057,4.02944,9,9,9h18c4.97056,0,9-4.02943,9-9V10c0-4.97056-4.02944-9-9-9h0Z"/>
  <path class="uuid-066faa16-bcce-4dc0-b165-f464b0a84e8a" d="m28,2.25c4.27332,0,7.75,3.47664,7.75,7.75v18c0,4.27336-3.47668,7.75-7.75,7.75H10c-4.27332,0-7.75-3.47664-7.75-7.75V10c0-4.27336,3.47668-7.75,7.75-7.75h18m0-1.25H10C5.02942,1,1,5.02944,1,10v18c0,4.97057,4.02942,9,9,9h18c4.97058,0,9-4.02943,9-9V10c0-4.97056-4.02942-9-9-9h0Z"/>
  <path class="uuid-84bececf-53d9-44e0-9333-b1962df5ffd2" d="m14,14.625h-3c-.34473,0-.625-.27979-.625-.625v-3c0-.34521.28027-.625.625-.625h3c.34473,0,.625.27979.625.625v3c0,.34521-.28027.625-.625.625Zm-2.375-1.25h1.75v-1.75h-1.75v1.75Z"/>
  <path class="uuid-84bececf-53d9-44e0-9333-b1962df5ffd2" d="m27,14.625h-3c-.34473,0-.625-.27979-.625-.625v-3c0-.34521.28027-.625.625-.625h3c.34473,0,.625.27979.625.625v3c0,.34521-.28027.625-.625.625Zm-2.375-1.25h1.75v-1.75h-1.75v1.75Z"/>
  <path class="uuid-84bececf-53d9-44e0-9333-b1962df5ffd2" d="m27,27.625h-3c-.34473,0-.625-.27979-.625-.625v-3c0-.34521.28027-.625.625-.625h3c.34473,0,.625.27979.625.625v3c0,.34521-.28027.625-.625.625Zm-2.375-1.25h1.75v-1.75h-1.75v1.75Z"/>
  <path class="uuid-84bececf-53d9-44e0-9333-b1962df5ffd2" d="m14,27.625h-3c-.34473,0-.625-.27979-.625-.625v-3c0-.34521.28027-.625.625-.625h3c.34473,0,.625.27979.625.625v3c0,.34521-.28027.625-.625.625Zm-2.375-1.25h1.75v-1.75h-1.75v1.75Z"/>
  <path d="m21,11.87695c-.05078,0-.10352-.00635-.15527-.01953-1.19922-.30859-2.49023-.30859-3.68945,0-.33789.08398-.67578-.11621-.76074-.44971-.08594-.33447.11523-.67529.4502-.76123,1.40039-.36035,2.91016-.36035,4.31055,0,.33496.08594.53613.42676.4502.76123-.07227.28223-.32617.46924-.60547.46924Z"/>
  <path d="m11.25195,21.625c-.2793,0-.5332-.1875-.60547-.46973-.17969-.70215-.27148-1.42725-.27148-2.15527s.0918-1.45312.27148-2.15527c.08594-.33301.42383-.53516.76074-.4502.33398.08594.53613.42676.4502.76074-.1543.60059-.23242,1.22119-.23242,1.84473s.07812,1.24414.23242,1.84473c.08594.33398-.11621.6748-.4502.76074-.05176.01318-.10449.01953-.15527.01953Z"/>
  <path d="m19,27.625c-.72949,0-1.45508-.09131-2.15527-.27148-.33496-.08594-.53613-.42676-.4502-.76123.08594-.3335.42383-.53613.76074-.44971,1.19922.30859,2.49023.30859,3.68945,0,.33691-.08691.67578.11621.76074.44971.08594.33447-.11523.67529-.4502.76123-.7002.18018-1.42578.27148-2.15527.27148Z"/>
  <path d="m26.74805,21.625c-.05078,0-.10352-.00635-.15527-.01953-.33398-.08594-.53613-.42676-.4502-.76074.1543-.60059.23242-1.22119.23242-1.84473s-.07812-1.24414-.23242-1.84473c-.08594-.33398.11621-.6748.4502-.76074.33691-.08594.6748.11621.76074.4502.17969.70215.27148,1.42725.27148,2.15527s-.0918,1.45312-.27148,2.15527c-.07227.28223-.32617.46973-.60547.46973Z"/>
  <path d="m21.85742,21.91895h-5c-1.36914,0-2.48242-1.11328-2.48242-2.48193,0-1.36426,1.10645-2.4751,2.46875-2.48242.55371-.87988,1.52441-1.42822,2.58496-1.42822,1.5752,0,2.875,1.19824,3.03711,2.73047.6875.29199,1.15918.96973,1.15918,1.75146,0,.94043-.68359,1.72461-1.5791,1.88184-.05957.01855-.12305.02881-.18848.02881Zm-5-3.71436c-.67969,0-1.23242.55273-1.23242,1.23242,0,.6792.55273,1.23193,1.23242,1.23193h4.85645c.36426,0,.66113-.29639.66113-.66064,0-.33496-.25391-.61475-.59082-.65039-.33203-.03516-.57715-.32373-.55859-.65674l.00684-.12158c0-.99414-.80957-1.80322-1.80371-1.80322-.71777,0-1.36719.42627-1.6543,1.08594-.11621.2666-.39941.41846-.68945.36475-.07324-.01416-.14941-.02246-.22754-.02246Z"/>
</svg>
