<svg xmlns="http://www.w3.org/2000/svg" id="uuid-79b5b148-1e30-4eee-8e71-98105b4ea6ab" viewBox="0 0 38 38">
  <defs>
    <style>.uuid-4006e068-e077-41b8-af6c-781bd3fec14d{fill:#e00;}.uuid-42af5725-3a6d-4c6f-a327-df908423ee48{fill:#fff;}.uuid-f59b7fb0-cffe-4cc3-8697-55ff2648c986{fill:#e0e0e0;}</style>
  </defs>
  <path class="uuid-42af5725-3a6d-4c6f-a327-df908423ee48" d="m28,1H10C5.02944,1,1,5.02944,1,10v18c0,4.97057,4.02944,9,9,9h18c4.97056,0,9-4.02943,9-9V10c0-4.97056-4.02944-9-9-9h0Z"/>
  <path class="uuid-f59b7fb0-cffe-4cc3-8697-55ff2648c986" d="m28,2.25c4.27332,0,7.75,3.47664,7.75,7.75v18c0,4.27336-3.47668,7.75-7.75,7.75H10c-4.27332,0-7.75-3.47664-7.75-7.75V10c0-4.27336,3.47668-7.75,7.75-7.75h18m0-1.25H10C5.02942,1,1,5.02944,1,10v18c0,4.97057,4.02942,9,9,9h18c4.97058,0,9-4.02943,9-9V10c0-4.97056-4.02942-9-9-9h0Z"/>
  <path d="m27,29.625H11c-.34473,0-.625-.28027-.625-.625V9c0-.34473.28027-.625.625-.625h16c.34473,0,.625.28027.625.625v5c0,.34473-.28027.625-.625.625s-.625-.28027-.625-.625v-4.375h-14.75v18.75h14.75v-4.375c0-.34473.28027-.625.625-.625s.625.28027.625.625v5c0,.34473-.28027.625-.625.625Z"/>
  <path d="m24,14.625h-10c-.34473,0-.625-.28027-.625-.625s.28027-.625.625-.625h10c.34473,0,.625.28027.625.625s-.28027.625-.625.625Z"/>
  <path d="m24,24.625h-10c-.34473,0-.625-.28027-.625-.625s.28027-.625.625-.625h10c.34473,0,.625.28027.625.625s-.28027.625-.625.625Z"/>
  <path d="m19,19.625h-5c-.34473,0-.625-.28027-.625-.625s.28027-.625.625-.625h5c.34473,0,.625.28027.625.625s-.28027.625-.625.625Z"/>
  <path class="uuid-4006e068-e077-41b8-af6c-781bd3fec14d" d="m25,21.625c-.16016,0-.32031-.06055-.44238-.18262l-2-2c-.24316-.24414-.24316-.64062,0-.88477.24414-.24414.64062-.24414.88477,0l1.55762,1.55859,4.55762-4.55859c.24414-.24414.64062-.24414.88477,0,.24316.24414.24316.64062,0,.88477l-5,5c-.12207.12207-.28223.18262-.44238.18262Z"/>
</svg>
