<?xml version="1.0" encoding="UTF-8"?><svg xmlns="http://www.w3.org/2000/svg" viewBox="0 0 38 38"><defs><style>.cls-1,.cls-2,.cls-3,.cls-4{stroke-width:0px;}.cls-2{fill:#e0e0e0;}.cls-3{fill:#fff;}.cls-4{fill:#e00;}</style></defs><g id="Bounding_shape"><rect class="cls-3" x="1" y="1" width="36" height="36" rx="9" ry="9"/><path class="cls-2" d="M28,2.25c4.27,0,7.75,3.48,7.75,7.75v18c0,4.27-3.48,7.75-7.75,7.75H10c-4.27,0-7.75-3.48-7.75-7.75V10c0-4.27,3.48-7.75,7.75-7.75h18M28,1H10C5.03,1,1,5.03,1,10v18c0,4.97,4.03,9,9,9h18c4.97,0,9-4.03,9-9V10c0-4.97-4.03-9-9-9h0Z"/></g><g id="Icons"><path class="cls-4" d="M17,18.62c-1.72,0-3.12-1.4-3.12-3.12s1.4-3.12,3.12-3.12,3.12,1.4,3.12,3.12-1.4,3.12-3.12,3.12ZM17,13.62c-1.03,0-1.88.84-1.88,1.88s.84,1.88,1.88,1.88,1.88-.84,1.88-1.88-.84-1.88-1.88-1.88Z"/><path class="cls-4" d="M23,18.62c-.34,0-.62-.28-.62-.62v-5c0-.35.28-.62.62-.62s.62.28.62.62v5c0,.35-.28.62-.62.62Z"/><path class="cls-4" d="M21,25.62c-1.72,0-3.12-1.4-3.12-3.12s1.4-3.12,3.12-3.12,3.12,1.4,3.12,3.12-1.4,3.12-3.12,3.12ZM21,20.62c-1.03,0-1.88.84-1.88,1.88s.84,1.88,1.88,1.88,1.88-.84,1.88-1.88-.84-1.88-1.88-1.88Z"/><path class="cls-1" d="M11.44,9.56c-.08-.08-.18-.13-.29-.15-.02,0-.05-.01-.07-.01-.11-.01-.22-.01-.32.03,0,0,0,0,0,0-.07.03-.13.07-.18.12,0,0-.01,0-.02.01l-2,2c-.24.24-.24.64,0,.88.12.12.28.18.44.18s.32-.06.44-.18l.93-.93v8.49c0,.35.28.62.62.62s.62-.28.62-.62v-8.49l.93.93c.24.24.64.24.88,0s.24-.64,0-.88l-2-2Z"/><path class="cls-1" d="M29.44,25.56c-.24-.24-.64-.24-.88,0l-.93.93v-8.49c0-.35-.28-.62-.62-.62s-.62.28-.62.62v8.49l-.93-.93c-.24-.24-.64-.24-.88,0-.24.24-.24.64,0,.88l2,2c.06.06.13.11.21.14.08.03.16.05.24.05s.16-.02.24-.05c0,0,0,0,0,0,.07-.03.13-.07.18-.12,0,0,.01,0,.02-.01l2-2c.24-.24.24-.64,0-.88Z"/><path class="cls-4" d="M15,25.62c-.35,0-.62-.28-.62-.62v-5c0-.35.28-.62.62-.62s.62.28.62.62v5c0,.35-.28.62-.62.62Z"/><path class="cls-4" d="M27,18.62c-.34,0-.62-.28-.62-.62v-5c0-.35.28-.62.62-.62s.62.28.62.62v5c0,.35-.28.62-.62.62Z"/><path class="cls-4" d="M11,25.62c-.35,0-.62-.28-.62-.62v-5c0-.35.28-.62.62-.62s.62.28.62.62v5c0,.35-.28.62-.62.62Z"/><path class="cls-4" d="M20.12,15.5c0-1.72-1.4-3.12-3.12-3.12s-3.12,1.4-3.12,3.12,1.4,3.12,3.12,3.12,3.12-1.4,3.12-3.12ZM17,17.38c-1.03,0-1.88-.84-1.88-1.88s.84-1.88,1.88-1.88,1.88.84,1.88,1.88-.84,1.88-1.88,1.88Z"/><path class="cls-4" d="M23,18.62c.34,0,.62-.28.62-.62v-5c0-.35-.28-.62-.62-.62s-.62.28-.62.62v5c0,.35.28.62.62.62Z"/><path class="cls-4" d="M21,19.38c-1.72,0-3.12,1.4-3.12,3.12s1.4,3.12,3.12,3.12,3.12-1.4,3.12-3.12-1.4-3.12-3.12-3.12ZM21,24.38c-1.03,0-1.88-.84-1.88-1.88s.84-1.88,1.88-1.88,1.88.84,1.88,1.88-.84,1.88-1.88,1.88Z"/><path class="cls-4" d="M15,19.38c-.35,0-.62.28-.62.62v5c0,.35.28.62.62.62s.62-.28.62-.62v-5c0-.35-.28-.62-.62-.62Z"/><path class="cls-4" d="M27,12.38c-.34,0-.62.28-.62.62v5c0,.35.28.62.62.62s.62-.28.62-.62v-5c0-.35-.28-.62-.62-.62Z"/><path class="cls-4" d="M11,19.38c-.35,0-.62.28-.62.62v5c0,.35.28.62.62.62s.62-.28.62-.62v-5c0-.35-.28-.62-.62-.62Z"/></g></svg>