<svg xmlns="http://www.w3.org/2000/svg" id="uuid-2ad24b9f-0d9f-4ddd-8709-09ccacfc8f5d" viewBox="0 0 38 38" width="100%" height="100%">
<desc>background:light</desc>
  <defs>
    <style>.uuid-c9888a9b-3c63-4d29-9c84-ba6121467206{fill:#e00;}.uuid-9f6969eb-8631-4377-96dd-35377bbfd90e{fill:#fff;}.uuid-1c2b2532-2d79-4cf6-8634-38cb109c159c{fill:#e0e0e0;}</style>
  </defs>
  <path class="uuid-9f6969eb-8631-4377-96dd-35377bbfd90e" d="m10,.89949c-4.97056,0-9,4.02944-9,9v18c0,4.97057,4.02944,9,9,9h18c4.97056,0,9-4.02943,9-9V9.89949c0-4.97056-4.02944-9-9-9H10Z"/>
  <path class="uuid-1c2b2532-2d79-4cf6-8634-38cb109c159c" d="m28,2.14949c4.27332,0,7.75,3.47664,7.75,7.75v18c0,4.27336-3.47668,7.75-7.75,7.75H10c-4.27332,0-7.75-3.47664-7.75-7.75V9.89949c0-4.27336,3.47668-7.75,7.75-7.75h18m0-1.25H10C5.02942.89949,1,4.92894,1,9.89949v18c0,4.97058,4.02942,9,9,9h18c4.97058,0,9-4.02942,9-9V9.89949c0-4.97055-4.02942-9-9-9h0Z"/>
  <path d="m28,25.52441H11c-.34473,0-.625-.28027-.625-.625v-4c0-.34473.28027-.625.625-.625s.625.28027.625.625v3.375h15.75v-10.75h-10.375c-.34473,0-.625-.28027-.625-.625s.28027-.625.625-.625h11c.34473,0,.625.28027.625.625v12c0,.34473-.28027.625-.625.625Z"/>
  <path d="m25,16.52441h-1c-.34473,0-.625-.28027-.625-.625s.28027-.625.625-.625h1c.34473,0,.625.28027.625.625s-.28027.625-.625.625Z"/>
  <path class="uuid-c9888a9b-3c63-4d29-9c84-ba6121467206" d="m21,16.52441h-3c-.34473,0-.625-.28027-.625-.625s.28027-.625.625-.625h3c.34473,0,.625.28027.625.625s-.28027.625-.625.625Z"/>
  <path class="uuid-c9888a9b-3c63-4d29-9c84-ba6121467206" d="m25,19.52441h-4c-.34473,0-.625-.28027-.625-.625s.28027-.625.625-.625h4c.34473,0,.625.28027.625.625s-.28027.625-.625.625Z"/>
  <path d="m18,19.52441h-1c-.34473,0-.625-.28027-.625-.625s.28027-.625.625-.625h1c.34473,0,.625.28027.625.625s-.28027.625-.625.625Z"/>
  <path d="m25,22.52441h-1c-.34473,0-.625-.28027-.625-.625s.28027-.625.625-.625h1c.34473,0,.625.28027.625.625s-.28027.625-.625.625Z"/>
  <path class="uuid-c9888a9b-3c63-4d29-9c84-ba6121467206" d="m21,22.52441h-3c-.34473,0-.625-.28027-.625-.625s.28027-.625.625-.625h3c.34473,0,.625.28027.625.625s-.28027.625-.625.625Z"/>
  <path d="m15,22.52441h-1c-.34473,0-.625-.28027-.625-.625s.28027-.625.625-.625h1c.34473,0,.625.28027.625.625s-.28027.625-.625.625Z"/>
  <path class="uuid-c9888a9b-3c63-4d29-9c84-ba6121467206" d="m12,19.52441c-.34473,0-.625-.28027-.625-.625v-8c0-.34473.28027-.625.625-.625s.625.28027.625.625v8c0,.34473-.28027.625-.625.625Z"/>
  <path class="uuid-c9888a9b-3c63-4d29-9c84-ba6121467206" d="m16,15.52441h-8c-.34473,0-.625-.28027-.625-.625s.28027-.625.625-.625h8c.34473,0,.625.28027.625.625s-.28027.625-.625.625Z"/>
  <path class="uuid-c9888a9b-3c63-4d29-9c84-ba6121467206" d="m14.82812,18.35254c-.16016,0-.32031-.06055-.44238-.18262l-5.65625-5.65625c-.24316-.24414-.24316-.64062,0-.88477.24414-.24414.64062-.24414.88477,0l5.65625,5.65625c.24316.24414.24316.64062,0,.88477-.12207.12207-.28223.18262-.44238.18262Z"/>
  <path class="uuid-c9888a9b-3c63-4d29-9c84-ba6121467206" d="m9.17188,18.35254c-.16016,0-.32031-.06055-.44238-.18262-.24316-.24414-.24316-.64062,0-.88477l5.65625-5.65625c.24414-.24414.64062-.24414.88477,0,.24316.24414.24316.64062,0,.88477l-5.65625,5.65625c-.12207.12207-.28223.18262-.44238.18262Z"/>
  <circle class="uuid-9f6969eb-8631-4377-96dd-35377bbfd90e" cx="12" cy="14.8995" r="2.66667"/>
  <path class="uuid-c9888a9b-3c63-4d29-9c84-ba6121467206" d="m12,18.19141c-1.81543,0-3.29199-1.47656-3.29199-3.29199s1.47656-3.29199,3.29199-3.29199,3.29199,1.47656,3.29199,3.29199-1.47656,3.29199-3.29199,3.29199Zm0-5.33398c-1.12598,0-2.04199.91602-2.04199,2.04199s.91602,2.04199,2.04199,2.04199,2.04199-.91602,2.04199-2.04199-.91602-2.04199-2.04199-2.04199Z"/>
</svg>
