<svg xmlns="http://www.w3.org/2000/svg" width="38" height="38" viewBox="0 0 38 38" width="100%" height="100%">
  <g id="uuid-0d27640d-fcaa-4e4f-83ac-f9a1aa738d0b">
    <rect x="1" y="1" width="36" height="36" rx="9" ry="9" fill="#fff" stroke-width="0"/>
    <path d="m28,2.25c4.27336,0,7.75,3.47664,7.75,7.75v18c0,4.27336-3.47664,7.75-7.75,7.75H10c-4.27336,0-7.75-3.47664-7.75-7.75V10c0-4.27336,3.47664-7.75,7.75-7.75h18m0-1.25H10C5.02944,1,1,5.02943,1,10v18c0,4.97056,4.02944,9,9,9h18c4.97057,0,9-4.02944,9-9V10c0-4.97057-4.02943-9-9-9h0Z" fill="#e0e0e0" stroke-width="0"/>
  </g>
  <g id="uuid-9fda8564-8be6-4870-bce4-2fb1e3f90795">
    <path d="m19.44238,12.55811l-1-1c-.11719-.11719-.27637-.18311-.44238-.18311h-2.4585c-.28229-1.14502-1.31067-2-2.5415-2-1.44727,0-2.625,1.17773-2.625,2.625s1.17773,2.625,2.625,2.625c1.23083,0,2.25922-.85498,2.5415-2h2.19971l.81641.81689c.12207.12207.28223.18311.44238.18311s.32031-.06104.44238-.18311c.24316-.24414.24316-.63965,0-.88379Zm-6.44238.81689c-.75781,0-1.375-.6167-1.375-1.375s.61719-1.375,1.375-1.375,1.375.6167,1.375,1.375-.61719,1.375-1.375,1.375Z" fill="#e00" stroke-width="0"/>
    <path d="m19.44238,24.55811c-.24414-.24414-.64062-.24414-.88477,0l-.81641.81689h-2.19971c-.28229-1.14502-1.31067-2-2.5415-2-1.44727,0-2.625,1.17773-2.625,2.625s1.17773,2.625,2.625,2.625c1.23083,0,2.25922-.85498,2.5415-2h2.4585c.16602,0,.3252-.06592.44238-.18311l1-1c.24316-.24414.24316-.63965,0-.88379Zm-6.44238,2.81689c-.75781,0-1.375-.6167-1.375-1.375s.61719-1.375,1.375-1.375,1.375.6167,1.375,1.375-.61719,1.375-1.375,1.375Z" fill="#e00" stroke-width="0"/>
    <path d="m16,18.375h-2.375v-1.375c0-.34521-.28027-.625-.625-.625h-4c-.34473,0-.625.27979-.625.625v4c0,.34521.28027.625.625.625h4c.34473,0,.625-.27979.625-.625v-1.375h2.375c.34473,0,.625-.27979.625-.625s-.28027-.625-.625-.625Zm-3.625,2h-2.75v-2.75h2.75v2.75Z" stroke-width="0"/>
    <path d="m29.44238,25.55811l-3.77374-3.77374c.59143-.77704.95636-1.7348.95636-2.78436,0-2.55029-2.0752-4.625-4.625-4.625s-4.625,2.07471-4.625,4.625,2.0752,4.625,4.625,4.625c1.04944,0,2.00726-.36493,2.78436-.95636l3.77325,3.77325c.12207.12207.28223.18311.44238.18311s.32031-.06104.44238-.18311c.24316-.24414.24316-.63965,0-.88379Zm-10.81738-6.55811c0-1.86084,1.51367-3.375,3.375-3.375s3.375,1.51416,3.375,3.375-1.51367,3.375-3.375,3.375-3.375-1.51416-3.375-3.375Z" stroke-width="0"/>
  </g>
</svg>
