<?xml version="1.0" encoding="UTF-8"?><svg xmlns="http://www.w3.org/2000/svg" viewBox="0 0 38 38"><defs><style>.c{fill:#e00;}.d{fill:#fff;}.e{fill:#e0e0e0;}</style></defs><g id="a"><g><rect class="d" x="1" y="1" width="36" height="36" rx="9" ry="9"/><path class="e" d="M28,2.25c4.27,0,7.75,3.48,7.75,7.75V28c0,4.27-3.48,7.75-7.75,7.75H10c-4.27,0-7.75-3.48-7.75-7.75V10c0-4.27,3.48-7.75,7.75-7.75H28m0-1.25H10C5.03,1,1,5.03,1,10V28c0,4.97,4.03,9,9,9H28c4.97,0,9-4.03,9-9V10c0-4.97-4.03-9-9-9h0Z"/></g></g><g id="b"><g><circle class="d" cx="19" cy="19" r="7.38"/><path class="c" d="M19,10.38c-4.76,0-8.62,3.87-8.62,8.62s3.87,8.62,8.62,8.62,8.62-3.87,8.62-8.62-3.87-8.62-8.62-8.62Zm0,16c-4.07,0-7.38-3.31-7.38-7.38s3.31-7.38,7.38-7.38,7.38,3.31,7.38,7.38-3.31,7.38-7.38,7.38Z"/></g><g><path class="d" d="M15.38,16c0-.35,.28-.62,.62-.62h5.38v-4.75H10.62v10.75h4.75v-5.38Z"/><rect class="d" x="16.62" y="16.62" width="10.75" height="10.75"/><path d="M28,15.38h-5.38v-5.38c0-.35-.28-.62-.62-.62H10c-.35,0-.62,.28-.62,.62v12c0,.35,.28,.62,.62,.62h5.38v5.38c0,.35,.28,.62,.62,.62h12c.34,0,.62-.28,.62-.62v-12c0-.35-.28-.62-.62-.62Zm-.62,12h-10.75v-10.75h10.75v10.75ZM10.62,10.62h10.75v4.75h-5.38c-.35,0-.62,.28-.62,.62v5.38h-4.75V10.62Z"/></g><g><polygon class="d" points="19.88 22 21 23.12 21 20.88 19.88 22"/><path class="c" d="M21,20.88l.44-.44c.24-.24,.24-.64,0-.88-.24-.24-.64-.24-.88,0l-2,2c-.24,.24-.24,.64,0,.88l2,2c.12,.12,.28,.18,.44,.18s.32-.06,.44-.18c.24-.24,.24-.64,0-.88l-.44-.44-1.12-1.12,1.12-1.12Z"/><polygon class="d" points="23 20.88 23 23.12 24.12 22 23 20.88"/><path class="c" d="M25.44,21.56l-2-2c-.24-.24-.64-.24-.88,0-.24,.24-.24,.64,0,.88l.44,.44,1.12,1.12-1.12,1.12-.44,.44c-.24,.24-.24,.64,0,.88,.12,.12,.28,.18,.44,.18s.32-.06,.44-.18l2-2c.24-.24,.24-.64,0-.88Z"/></g></g></svg>