<svg xmlns="http://www.w3.org/2000/svg" id="uuid-1ac6bc13-2bc8-4482-b6ae-0c762d97602a" viewBox="0 0 38 38">
  <defs>
    <style>.uuid-6d98b2ad-1a4b-4395-93d9-e11776c9b102{fill:#e00;}.uuid-b692f8fc-827c-428a-a0c8-6777474658ca{fill:#fff;}.uuid-f5427671-f9c4-4604-a661-6f6b11c4c7ea{fill:#e0e0e0;}</style>
  </defs>
  <path class="uuid-b692f8fc-827c-428a-a0c8-6777474658ca" d="m28,1H10C5.02944,1,1,5.02944,1,10v18c0,4.97057,4.02944,9,9,9h18c4.97056,0,9-4.02943,9-9V10c0-4.97056-4.02944-9-9-9h0Z"/>
  <path class="uuid-f5427671-f9c4-4604-a661-6f6b11c4c7ea" d="m28,2.25c4.27332,0,7.75,3.47662,7.75,7.75v18c0,4.27338-3.47668,7.75-7.75,7.75H10c-4.27332,0-7.75-3.47662-7.75-7.75V10c0-4.27338,3.47668-7.75,7.75-7.75h18m0-1.25H10C5.02942,1,1,5.02942,1,10v18c0,4.97058,4.02942,9,9,9h18c4.97058,0,9-4.02942,9-9V10c0-4.97058-4.02942-9-9-9h0Z"/>
  <path d="m19,24.625c-.10742,0-.21582-.02832-.3125-.08398l-4.33008-2.5c-.19336-.11133-.3125-.31738-.3125-.54102v-5c0-.22363.11914-.42969.3125-.54102l4.33008-2.5c.19336-.11133.43164-.11133.625,0l4.33008,2.5c.19336.11133.3125.31738.3125.54102v5c0,.22363-.11914.42969-.3125.54102l-4.33008,2.5c-.09668.05566-.20508.08398-.3125.08398Zm-3.70508-3.48535l3.70508,2.13867,3.70508-2.13867v-4.2793l-3.70508-2.13867-3.70508,2.13867v4.2793Zm8.03516.36035h.00977-.00977Z"/>
  <path d="m27,29.625c-1.44727,0-2.625-1.17773-2.625-2.625s1.17773-2.625,2.625-2.625,2.625,1.17773,2.625,2.625-1.17773,2.625-2.625,2.625Zm0-4c-.75781,0-1.375.61719-1.375,1.375s.61719,1.375,1.375,1.375,1.375-.61719,1.375-1.375-.61719-1.375-1.375-1.375Z"/>
  <path class="uuid-6d98b2ad-1a4b-4395-93d9-e11776c9b102" d="m21.56836,30.32324c-.28223,0-.53809-.19238-.60645-.47949-.08105-.33594.12598-.67285.46191-.75293.45605-.10938.90918-.25195,1.34863-.42285.32031-.12695.68457.03223.80957.35449.12598.32227-.0332.68457-.35449.80957-.49316.19238-1.00195.35156-1.5127.47363-.04883.01172-.09766.01758-.14648.01758Z"/>
  <path class="uuid-6d98b2ad-1a4b-4395-93d9-e11776c9b102" d="m18.59082,30.61719h-.02246c-1.06055-.03906-2.10742-.22168-3.11328-.54297-.3291-.10547-.50977-.45703-.40527-.78613.10547-.3291.45605-.50781.78613-.40527.89648.28711,1.83105.4502,2.77734.48438.34473.0127.61426.30273.60254.64746-.0127.33789-.29004.60254-.625.60254Zm-5.64453-1.80566c-.11816,0-.2373-.0332-.34375-.10352-.88184-.58203-1.68066-1.28223-2.37598-2.08105-.22656-.25977-.19922-.65527.06152-.88184.25977-.22461.65332-.2002.88184.06152.62012.71289,1.33398,1.33789,2.12207,1.8584.28809.19043.36719.57812.17676.86621-.12012.18164-.31934.28027-.52246.28027Zm-3.8877-4.46973c-.2334,0-.45801-.13184-.56445-.35742-.45312-.9541-.77441-1.96875-.95312-3.01367-.05762-.33984.1709-.66309.51074-.72168.33984-.05371.66309.16992.72168.51074.15918.93262.44531,1.83789.84961,2.68945.14844.31152.01562.68457-.29688.83203-.08594.04102-.17773.06055-.26758.06055Zm20.93262-5.15723c-.33398,0-.61133-.26367-.625-.60059-.03613-.94824-.20215-1.88184-.49121-2.77539-.10645-.32812.07422-.68066.40234-.78711.32715-.10547.68066.07422.78711.40234.32422,1.00195.50977,2.04883.55176,3.11133.0127.34473-.25586.63574-.60059.64941h-.02441Zm-21.93359-.68262c-.02148,0-.04297-.00098-.06445-.00293-.34277-.03516-.59375-.3418-.55859-.68555.10742-1.05664.3584-2.08984.74609-3.07227.12598-.32031.48828-.48047.81055-.35156.32129.12598.47852.48926.35156.81055-.34473.875-.56836,1.79688-.66406,2.74023-.0332.32129-.30469.56152-.62109.56152Zm20.11426-4.95508c-.20312,0-.40137-.09766-.52148-.2793-.52148-.78516-1.14941-1.49805-1.86523-2.11719-.26074-.22559-.28906-.62109-.06348-.88184.22754-.26172.62109-.28906.88184-.06348.80078.69336,1.50391,1.49121,2.08789,2.37109.19141.28711.11328.6748-.1748.86621-.10645.07031-.22656.10449-.34473.10449Zm-17.94434-.55957c-.13184,0-.26465-.04102-.37695-.12695-.27539-.20801-.33008-.60059-.12109-.875.63867-.84375,1.38965-1.59668,2.23047-2.2373.27344-.20703.66699-.15723.87598.11816.20898.27441.15625.66699-.11816.87598-.75098.57227-1.42188,1.24414-1.99219,1.99707-.12305.16309-.30957.24805-.49805.24805Zm13.45996-3.31543c-.08984,0-.18066-.01953-.2666-.05957-.85352-.40332-1.75879-.68652-2.69043-.84375-.34082-.05762-.57031-.37988-.5127-.71973.05664-.3418.38965-.56738.71973-.5127,1.04492.17578,2.05957.49414,3.0166.94531.3125.14746.44629.52051.29883.83203-.10645.22656-.33203.3584-.56543.3584Zm-8.74609-.27344c-.24805,0-.4834-.14941-.58105-.39453-.12695-.32031.0293-.68359.35059-.81152.9834-.39062,2.0166-.64453,3.06934-.75293.35742-.03711.65137.21387.68652.55762s-.21484.65039-.55762.68652c-.93945.09668-1.86035.32227-2.7373.6709-.0752.03027-.15332.04395-.23047.04395Z"/>
  <path class="uuid-6d98b2ad-1a4b-4395-93d9-e11776c9b102" d="m29.25,23.625c-.07617,0-.15234-.01367-.22754-.04297-.32129-.125-.48047-.4873-.35449-.80957.1709-.43945.31348-.89258.42285-1.34863.08008-.33691.42188-.54297.75293-.46191.33594.08008.54297.41699.46191.75293-.12207.51074-.28125,1.01953-.47363,1.5127-.0957.24707-.33203.39746-.58203.39746Z"/>
</svg>
