<?xml version="1.0" encoding="UTF-8"?><svg id="uuid-606e7993-15b1-4ba9-9bd6-1955f466b4ab" xmlns="http://www.w3.org/2000/svg" viewBox="0 0 38 38"><defs><style>.uuid-18d109d5-b2f6-4e64-91de-1cfdaa7699d4{fill:#e00;}.uuid-7d1175e6-8636-4133-9bd0-ae458c50708d{fill:#fff;}.uuid-580c0c04-aafa-486a-b0e2-cc5b35da42d1{fill:#e0e0e0;}.uuid-85a22aac-eda4-43e5-bdd2-6fd2e983c268{fill:#151515;}</style></defs><path class="uuid-7d1175e6-8636-4133-9bd0-ae458c50708d" d="m28,1H10C5.02944,1,1,5.02944,1,10v18c0,4.97057,4.02944,9,9,9h18c4.97056,0,9-4.02943,9-9V10c0-4.97056-4.02944-9-9-9h0Z"/><path class="uuid-580c0c04-aafa-486a-b0e2-cc5b35da42d1" d="m28,2.25c4.27332,0,7.75,3.47665,7.75,7.75v18c0,4.27335-3.47668,7.75-7.75,7.75H10c-4.27332,0-7.75-3.47665-7.75-7.75V10c0-4.27335,3.47668-7.75,7.75-7.75h18m0-1.25H10C5.02942,1,1,5.02945,1,10v18c0,4.97058,4.02942,9,9,9h18c4.97058,0,9-4.02942,9-9V10c0-4.97055-4.02942-9-9-9h0Z"/><path d="m15,13.625h-4c-.25293,0-.48047-.15234-.57715-.38574s-.04395-.50293.13477-.68164l4-4c.17969-.17871.44922-.23145.68164-.13477.2334.09668.38574.32422.38574.57715v4c0,.34473-.28027.625-.625.625Zm-2.49121-1.25h1.86621v-1.86621l-1.86621,1.86621Z"/><path class="uuid-85a22aac-eda4-43e5-bdd2-6fd2e983c268" d="m27,8.375h-12c-.08398,0-.16602.01721-.24194.04895-.0271.01147-.04736.03333-.07251.04834-.04419.02625-.09106.0484-.12793.08533l-4,4c-.03687.03693-.05908.0838-.08533.12799-.01501.02509-.03687.04529-.04834.07251-.03174.07593-.04895.1579-.04895.24188v10c0,.34473.28027.625.625.625s.625-.28027.625-.625v-9.375h3.375c.34473,0,.625-.28027.625-.625v-3.375h10.75v13.28516c0,.34473.28027.625.625.625s.625-.28027.625-.625v-13.91016c0-.34473-.28027-.625-.625-.625Zm-14.49121,4l1.86621-1.86621v1.86621h-1.86621Z"/><path class="uuid-85a22aac-eda4-43e5-bdd2-6fd2e983c268" d="m27,26.375c-.34473,0-.625.28027-.625.625v1.375h-14.73047l-.01953-1.38379c-.00488-.34473-.26074-.6377-.63379-.61621-.34473.00488-.62109.28906-.61621.63379l.02832,2c.00488.3418.2832.61621.625.61621h15.97168c.34473,0,.625-.28027.625-.625v-2c0-.34473-.28027-.625-.625-.625Z"/><path class="uuid-18d109d5-b2f6-4e64-91de-1cfdaa7699d4" d="m29,24.375H9c-.34473,0-.625.28027-.625.625s.28027.625.625.625h20c.34473,0,.625-.28027.625-.625s-.28027-.625-.625-.625Z"/><path class="uuid-18d109d5-b2f6-4e64-91de-1cfdaa7699d4" d="m14.55762,22.44238c.12207.12207.28223.18262.44238.18262s.32031-.06055.44238-.18262l2-2c.24316-.24414.24316-.64062,0-.88477-.24414-.24414-.64062-.24414-.88477,0l-1.55762,1.55859-.55762-.55859c-.24414-.24414-.64062-.24414-.88477,0-.24316.24414-.24316.64062,0,.88477l1,1Z"/><path class="uuid-18d109d5-b2f6-4e64-91de-1cfdaa7699d4" d="m14.55762,17.44238c.12207.12207.28223.18262.44238.18262s.32031-.06055.44238-.18262l2-2c.24316-.24414.24316-.64062,0-.88477-.24414-.24414-.64062-.24414-.88477,0l-1.55762,1.55859-.55762-.55859c-.24414-.24414-.64062-.24414-.88477,0-.24316.24414-.24316.64062,0,.88477l1,1Z"/><path class="uuid-85a22aac-eda4-43e5-bdd2-6fd2e983c268" d="m24,21.625h-4c-.34473,0-.625-.28027-.625-.625s.28027-.625.625-.625h4c.34473,0,.625.28027.625.625s-.28027.625-.625.625Z"/><path class="uuid-85a22aac-eda4-43e5-bdd2-6fd2e983c268" d="m24,16.625h-4c-.34473,0-.625-.28027-.625-.625s.28027-.625.625-.625h4c.34473,0,.625.28027.625.625s-.28027.625-.625.625Z"/></svg>