<svg xmlns="http://www.w3.org/2000/svg" id="uuid-a84d226b-1c58-4abe-a5d2-25cf42cfee72" viewBox="0 0 38 38" width="100%" height="100%">
<desc>background:light</desc>
  <defs>
    <style>.uuid-2689cdf8-42ed-4b41-9ae2-4d34cc7f9a8a{fill:#e00;}.uuid-82810a40-e578-4701-afea-8623b9eb6e54{fill:#fff;}.uuid-35081416-976f-4c51-a7e9-e452bcb0848f{fill:#e0e0e0;}</style>
  </defs>
  <path class="uuid-82810a40-e578-4701-afea-8623b9eb6e54" d="m28,1H10C5.02944,1,1,5.02944,1,10v18c0,4.97057,4.02944,9,9,9h18c4.97056,0,9-4.02943,9-9V10c0-4.97056-4.02944-9-9-9h0Z"/>
  <path class="uuid-35081416-976f-4c51-a7e9-e452bcb0848f" d="m28,2.25c4.27332,0,7.75,3.47665,7.75,7.75v18c0,4.27335-3.47668,7.75-7.75,7.75H10c-4.27332,0-7.75-3.47665-7.75-7.75V10c0-4.27335,3.47668-7.75,7.75-7.75h18m0-1.25H10C5.02942,1,1,5.02945,1,10v18c0,4.97058,4.02942,9,9,9h18c4.97058,0,9-4.02942,9-9V10c0-4.97055-4.02942-9-9-9h0Z"/>
  <path d="m28.85645,21.375c-.34473,0-.625.28027-.625.625v.63867l-.55371.32031c-.29883.17188-.40137.55469-.22852.85352.11523.2002.3252.3125.54199.3125.10547,0,.21289-.02734.31152-.08398l.86621-.5c.19336-.11133.3125-.31738.3125-.54102v-1c0-.34473-.28027-.625-.625-.625Z"/>
  <path d="m28.85645,17.77441c-.34473,0-.625.28027-.625.625v1.2002c0,.34473.28027.625.625.625s.625-.28027.625-.625v-1.2002c0-.34473-.28027-.625-.625-.625Z"/>
  <path d="m29.16895,14.45898l-.86621-.5c-.30273-.17383-.68262-.07031-.85352.22852-.17285.29883-.07031.68164.22852.85352l.55371.32031v.63867c0,.34473.28027.625.625.625s.625-.28027.625-.625v-1c0-.22363-.11914-.42969-.3125-.54102Z"/>
  <path d="m26.22461,12.75879l-1.03906-.60059c-.2998-.17285-.68164-.06934-.85352.22852-.17285.29883-.07031.68066.22852.85352l1.03906.60059c.09863.05664.20605.08398.31152.08398.21582,0,.42676-.1123.54199-.3125.17285-.29883.07031-.68066-.22852-.85352Z"/>
  <path d="m21.375,12.04102l.55273-.31934.55371.31934c.09863.05664.20605.08398.31152.08398.2168,0,.42676-.1123.54199-.3125.17285-.29883.07031-.68164-.22852-.85352l-.86621-.5c-.19434-.1123-.43262-.11133-.625,0l-.86523.5c-.29883.17285-.40137.55469-.22852.85352.1709.29785.55176.40137.85352.22852Z"/>
  <path d="m22.48145,25.95898l-.55371.31934-.55273-.31934c-.2998-.17285-.68164-.06934-.85352.22852-.17285.29883-.07031.68066.22852.85352l.86523.5c.09668.05566.2041.08398.3125.08398.10742,0,.21582-.02832.3125-.08398l.86621-.5c.29883-.17188.40137-.55469.22852-.85352-.17188-.29785-.55176-.40137-.85352-.22852Z"/>
  <path d="m25.59961,24.1582l-1.03906.60059c-.29883.17285-.40137.55469-.22852.85352.11523.2002.32617.3125.54199.3125.10547,0,.21289-.02734.31152-.08398l1.03906-.60059c.29883-.17285.40137-.55469.22852-.85352s-.55371-.40137-.85352-.22852Z"/>
  <path d="m23.3125,14.45898l-6.92773-4c-.19336-.11133-.43164-.1123-.625,0l-6.92871,4c-.19336.11133-.3125.31738-.3125.54102v8c0,.22363.11914.42969.3125.54102l6.92871,4c.09668.05566.20508.08398.3125.08398.1084,0,.21582-.02832.3125-.08398l6.92773-4c.19336-.11133.3125-.31738.3125-.54102v-8c0-.22363-.11914-.42969-.3125-.54102Zm-.9375,8.18066l-6.30273,3.63867-6.30371-3.63965v-7.27734l6.30371-3.63965,6.30273,3.63867v7.2793Z"/>
  <path class="uuid-2689cdf8-42ed-4b41-9ae2-4d34cc7f9a8a" d="m18.55859,17.90918c-.11523-.17676-.3125-.28418-.52441-.28418h-.96191v-3.125c0-.29492-.20605-.5498-.49512-.61133-.28613-.06055-.58008.08691-.70117.35742l-2.33789,5.25c-.08594.19336-.06836.41699.04688.59473.11523.17676.3125.28418.52441.28418h.96289v3.125c0,.29492.20605.5498.49512.61133.04395.00879.08691.01367.12988.01367.24316,0,.46875-.1416.57129-.37109l2.33691-5.25c.08594-.19336.06836-.41699-.04688-.59473Z"/>
</svg>
