<svg xmlns="http://www.w3.org/2000/svg" id="uuid-72635ff6-1136-4bce-bc3a-143b5939394a" viewBox="0 0 38 38" width="100%" height="100%">
<desc>background:light</desc>
  <defs>
    <style>.uuid-8d76f6af-875b-4405-a581-f8188e53565f{fill:#ed0000;}.uuid-9878abfe-8af3-4b10-9cc9-9942cc4e56ca{fill:#fff;}.uuid-6c7aff82-1324-401f-a057-ab5ba000b223{fill:#e0e0e0;}</style>
  </defs>
  <path class="uuid-9878abfe-8af3-4b10-9cc9-9942cc4e56ca" d="m10,1c-4.97056,0-9,4.02944-9,9v18c0,4.97057,4.02944,9,9,9h18c4.97056,0,9-4.02943,9-9V10c0-4.97056-4.02944-9-9-9H10Z"/>
  <path class="uuid-6c7aff82-1324-401f-a057-ab5ba000b223" d="m28,2.25c4.27332,0,7.75,3.47665,7.75,7.75v18c0,4.27335-3.47668,7.75-7.75,7.75H10c-4.27332,0-7.75-3.47665-7.75-7.75V10c0-4.27335,3.47668-7.75,7.75-7.75h18m0-1.25H10C5.02942,1,1,5.02945,1,10v18c0,4.97058,4.02942,9,9,9h18c4.97058,0,9-4.02942,9-9V10c0-4.97055-4.02942-9-9-9h0Z"/>
  <path d="m19,29.625c-4.77637,0-8.66309-3.88672-8.66309-8.66309v-9.25293c0-.29492.20605-.5498.49512-.61133l8.03809-1.70898c.08594-.01758.17383-.01758.25977,0l8.03809,1.70898c.28906.06152.49512.31641.49512.61133v9.25293c0,.74609-.09473,1.48535-.28125,2.19629-.08691.33398-.42676.5332-.7627.44629-.33398-.08789-.53418-.42969-.44629-.7627.15918-.6084.24023-1.24023.24023-1.87988v-8.74707l-7.41309-1.57617-7.41309,1.57617v8.74707c0,4.08789,3.3252,7.41309,7.41309,7.41309,1.69434,0,3.28906-.55566,4.61133-1.6084.26855-.21582.66113-.16992.87793.10059.21484.26953.16992.66309-.10059.87793-1.52344,1.21191-3.4375,1.87988-5.38867,1.87988Z"/>
  <path class="uuid-8d76f6af-875b-4405-a581-f8188e53565f" d="m26.44238,25.55762l-3.77368-3.77362c.59131-.77698.9563-1.73468.9563-2.784,0-2.5498-2.0752-4.625-4.625-4.625s-4.625,2.0752-4.625,4.625,2.0752,4.625,4.625,4.625c1.04932,0,2.00708-.36493,2.78394-.95624l3.77368,3.77362c.12207.12207.28223.18262.44238.18262s.32031-.06055.44238-.18262c.24316-.24414.24316-.64062,0-.88477Zm-10.81738-6.55762c0-1.86133,1.51367-3.375,3.375-3.375s3.375,1.51367,3.375,3.375-1.51367,3.375-3.375,3.375-3.375-1.51367-3.375-3.375Z"/>
</svg>
