<svg xmlns="http://www.w3.org/2000/svg" width="38" height="38" viewBox="0 0 38 38" width="100%" height="100%">
  <g id="uuid-7901f878-ce00-441f-ac26-ddd3654d4f79">
    <rect x="1" y="1" width="36" height="36" rx="9" ry="9" stroke-width="0"/>
    <path d="m28,2.25c4.27336,0,7.75,3.47664,7.75,7.75v18c0,4.27336-3.47664,7.75-7.75,7.75H10c-4.27336,0-7.75-3.47664-7.75-7.75V10c0-4.27336,3.47664-7.75,7.75-7.75h18m0-1.25H10C5.02944,1,1,5.02943,1,10v18c0,4.97057,4.02944,9,9,9h18c4.97056,0,9-4.02943,9-9V10c0-4.97057-4.02944-9-9-9h0Z" fill="#4d4d4d" stroke-width="0"/>
  </g>
  <g id="uuid-c3ca6891-6e18-42cb-852b-3dedd6c31e68">
    <path d="m26.44238,25.55811l-3.77374-3.77374c.59143-.77704.95636-1.7348.95636-2.78436,0-2.55029-2.0752-4.625-4.625-4.625-2.55029,0-4.625,2.07471-4.625,4.625s2.07471,4.625,4.625,4.625c1.04944,0,2.00726-.36493,2.78436-.95636l3.77325,3.77325c.12207.12207.28223.18311.44238.18311s.32031-.06104.44238-.18311c.24316-.24414.24316-.63965,0-.88379Zm-10.81738-6.55811c0-1.86084,1.51416-3.375,3.375-3.375,1.86133,0,3.375,1.51416,3.375,3.375s-1.51367,3.375-3.375,3.375c-1.86084,0-3.375-1.51416-3.375-3.375Z" fill="#e00" stroke-width="0"/>
    <path d="m27,13.625c1.44727,0,2.625-1.17773,2.625-2.625s-1.17773-2.625-2.625-2.625-2.625,1.17773-2.625,2.625c0,.4967.14661.95654.38727,1.35303l-1.20465,1.20508c-.24414.24414-.24316.63965.00098.88379.12109.12207.28125.18311.44141.18311s.32031-.06104.44238-.18311l1.2041-1.20447c.39661.24091.85663.38757,1.35352.38757Zm0-4c.75781,0,1.375.6167,1.375,1.375s-.61719,1.375-1.375,1.375c-.37811,0-.72107-.15369-.96997-.40173-.00073-.00073-.00098-.00183-.00171-.00256-.00061-.00061-.00153-.00079-.00214-.0014-.24762-.24878-.40118-.59137-.40118-.9693,0-.7583.61719-1.375,1.375-1.375Z" fill="#fff" stroke-width="0"/>
    <path d="m19,8.375c-1.17188,0-2.125.95312-2.125,2.125s.95312,2.125,2.125,2.125,2.125-.95312,2.125-2.125-.95312-2.125-2.125-2.125Zm0,3c-.48242,0-.875-.39258-.875-.875s.39258-.875.875-.875.875.39258.875.875-.39258.875-.875.875Z" fill="#fff" stroke-width="0"/>
    <path d="m19,25.375c-1.17188,0-2.125.95312-2.125,2.125s.95312,2.125,2.125,2.125,2.125-.95312,2.125-2.125-.95312-2.125-2.125-2.125Zm0,3c-.48242,0-.875-.39258-.875-.875s.39258-.875.875-.875.875.39258.875.875-.39258.875-.875.875Z" fill="#fff" stroke-width="0"/>
    <path d="m27.5,16.875c-1.17188,0-2.125.95312-2.125,2.125s.95312,2.125,2.125,2.125,2.125-.95312,2.125-2.125-.95312-2.125-2.125-2.125Zm0,3c-.48242,0-.875-.39258-.875-.875s.39258-.875.875-.875.875.39258.875.875-.39258.875-.875.875Z" fill="#fff" stroke-width="0"/>
    <path d="m12.625,19c0-1.17188-.95312-2.125-2.125-2.125s-2.125.95312-2.125,2.125.95312,2.125,2.125,2.125,2.125-.95312,2.125-2.125Zm-3,0c0-.48242.39258-.875.875-.875s.875.39258.875.875-.39258.875-.875.875-.875-.39258-.875-.875Z" fill="#fff" stroke-width="0"/>
    <path d="m13.23743,12.35364c.24091-.39661.38757-.85675.38757-1.35364,0-1.44727-1.17773-2.625-2.625-2.625s-2.625,1.17773-2.625,2.625,1.17773,2.625,2.625,2.625c.49689,0,.95703-.14667,1.35364-.38757l1.20447,1.20447c.12207.12207.28174.18311.44189.18311s.31982-.06104.44189-.18311c.24414-.24414.24414-.63965,0-.88379l-1.20447-1.20447Zm-3.61243-1.35364c0-.7583.6167-1.375,1.375-1.375s1.375.6167,1.375,1.375c0,.37799-.1535.72058-.40112.96936-.00079.00079-.00189.00104-.00269.00183s-.00104.00189-.00183.00269c-.24878.24762-.59137.40112-.96936.40112-.7583,0-1.375-.6167-1.375-1.375Z" fill="#fff" stroke-width="0"/>
    <path d="m13.55811,23.55811l-1.20447,1.20447c-.39661-.24091-.85675-.38757-1.35364-.38757-1.44727,0-2.625,1.17773-2.625,2.625s1.17773,2.625,2.625,2.625,2.625-1.17773,2.625-2.625c0-.49689-.14667-.95703-.38757-1.35364l1.20447-1.20447c.24414-.24414.24414-.63965,0-.88379s-.63965-.24414-.88379,0Zm-2.55811,4.81689c-.7583,0-1.375-.6167-1.375-1.375s.6167-1.375,1.375-1.375c.37885,0,.72229.15399.97119.40259.00024.00024.00024.00049.00049.00073s.00049.00024.00073.00049c.2486.2489.40259.59235.40259.97119,0,.7583-.6167,1.375-1.375,1.375Z" fill="#fff" stroke-width="0"/>
  </g>
</svg>
