<svg xmlns="http://www.w3.org/2000/svg" width="38" height="38" viewBox="0 0 38 38">
  <g id="uuid-bcac1274-29fc-4115-a150-cfa227bab1bf">
    <rect x="1" y="1" width="36" height="36" rx="9" ry="9" stroke-width="0"/>
    <path d="m28,2.25c4.27,0,7.75,3.48,7.75,7.75v18c0,4.27-3.48,7.75-7.75,7.75H10c-4.27,0-7.75-3.48-7.75-7.75V10c0-4.27,3.48-7.75,7.75-7.75h18m0-1.25H10C5.03,1,1,5.03,1,10v18c0,4.97,4.03,9,9,9h18c4.97,0,9-4.03,9-9V10c0-4.97-4.03-9-9-9h0Z" fill="#4d4d4d" stroke-width="0"/>
  </g>
  <g id="uuid-01eb3ef3-039f-40c4-ab7a-7a3d37a79179">
    <path d="m23.75,22.62h-.75c-.34,0-.62-.28-.62-.62s.28-.62.62-.62h.75c.9,0,1.62-.73,1.62-1.62,0-.83-.62-1.52-1.45-1.6-.33-.04-.58-.33-.56-.66,0-.12.01-.17.01-.23,0-2-1.63-3.62-3.62-3.62-1.44,0-2.75.86-3.32,2.18-.12.27-.4.42-.69.37-.16-.03-.32-.05-.49-.05-1.45,0-2.62,1.18-2.62,2.62,0,1.36,1.06,2.51,2.42,2.62.34.03.6.33.58.67-.03.34-.33.61-.67.58-2.01-.15-3.58-1.85-3.58-3.86,0-2.14,1.74-3.88,3.88-3.88.08,0,.16,0,.24,0,.85-1.54,2.48-2.51,4.26-2.51,2.61,0,4.75,2.06,4.87,4.65,1.17.37,2,1.46,2,2.73,0,1.59-1.29,2.88-2.88,2.88Z" fill="#fff" stroke-width="0"/>
    <path d="m21.44,23.56c-.24-.24-.64-.24-.88,0l-.93.93v-5.98l.93.93c.12.12.28.18.44.18s.32-.06.44-.18c.24-.24.24-.64,0-.88l-2-2c-.24-.24-.64-.24-.88,0l-2,2c-.24.24-.24.64,0,.88s.64.24.88,0l.93-.93v5.98l-.93-.93c-.24-.24-.64-.24-.88,0s-.24.64,0,.88l2,2c.12.12.28.18.44.18s.32-.06.44-.18l2-2c.24-.24.24-.64,0-.88Z" fill="#e00" stroke-width="0"/>
    <path d="m16.7,29.12c-.33-.08-.67.14-.74.47-.08.34.13.67.47.75.04,0,.09,0,.14,0,.28,0,.54-.19.6-.48.08-.34-.13-.67-.47-.75Z" fill="#e00" stroke-width="0"/>
    <path d="m21.32,29.12c-.34.07-.55.41-.47.74.06.29.32.49.61.49.04,0,.09,0,.14-.02.33-.07.54-.41.47-.74-.08-.34-.41-.55-.75-.47Z" fill="#e00" stroke-width="0"/>
    <path d="m11.67,27.22c-.22.27-.18.66.09.88.12.09.26.14.39.14.19,0,.37-.09.49-.24.22-.27.17-.66-.1-.88-.27-.21-.66-.17-.87.1Z" fill="#e00" stroke-width="0"/>
    <path d="m25.47,27.11c-.27.21-.31.61-.1.88.13.15.31.23.49.23.14,0,.28-.04.39-.13.27-.22.32-.61.1-.88-.21-.27-.61-.32-.88-.1Z" fill="#e00" stroke-width="0"/>
    <path d="m8.82,23.23c-.31.15-.44.52-.29.83.11.23.33.36.57.36.09,0,.18-.02.27-.07.31-.15.44-.52.29-.83-.15-.31-.53-.44-.84-.29Z" fill="#e00" stroke-width="0"/>
    <path d="m29.19,23.21c-.32-.15-.69-.02-.84.29-.15.31-.02.68.29.83.09.05.18.07.27.07.24,0,.46-.13.57-.36.15-.31.02-.68-.29-.83Z" fill="#e00" stroke-width="0"/>
    <path d="m8,18.4c-.35,0-.62.28-.62.62s.27.63.62.63.63-.28.63-.63c-.01-.34-.29-.62-.63-.62Z" fill="#e00" stroke-width="0"/>
    <path d="m8.81,14.81c.08.04.18.07.27.07.23,0,.45-.14.56-.36.15-.31.02-.69-.29-.83-.31-.15-.69-.02-.84.29s-.02.68.3.83Z" fill="#e00" stroke-width="0"/>
    <path d="m28.9,14.81c.09,0,.18-.02.27-.06.31-.15.44-.52.29-.83-.15-.31-.53-.44-.84-.29-.31.15-.44.52-.29.83.11.23.33.35.57.35Z" fill="#e00" stroke-width="0"/>
    <path d="m12.12,11.04c.14,0,.28-.04.39-.13.27-.22.31-.61.1-.88-.22-.27-.61-.31-.88-.1-.27.22-.31.61-.1.88.13.15.31.23.49.23Z" fill="#e00" stroke-width="0"/>
    <path d="m25.83,11c.18,0,.37-.08.49-.23.21-.27.17-.67-.1-.88-.27-.22-.67-.17-.88.1s-.17.66.1.88c.12.09.25.13.39.13Z" fill="#e00" stroke-width="0"/>
    <path d="m16.52,8.91s.09,0,.14-.02c.34-.08.55-.41.47-.75-.08-.34-.41-.55-.75-.47s-.55.41-.47.75c.07.29.33.49.61.49Z" fill="#e00" stroke-width="0"/>
    <path d="m21.28,8.88s.09,0,.14,0c.28,0,.54-.2.6-.49.08-.33-.13-.67-.47-.74-.34-.08-.67.13-.74.47-.08.34.13.67.47.75Z" fill="#e00" stroke-width="0"/>
    <path d="m29.99,18.4c-.35,0-.62.28-.62.62s.27.63.62.63.63-.28.63-.63c-.01-.34-.29-.62-.63-.62Z" fill="#e00" stroke-width="0"/>
  </g>
</svg>
