<svg xmlns="http://www.w3.org/2000/svg" id="uuid-4446e330-17e2-42a4-b9b3-6014314a2980" viewBox="0 0 38 38" width="100%" height="100%">
  <defs>
    <style>.uuid-5a118379-decc-4fde-be4c-cd959e4f8ac9{fill:#e00;}.uuid-97a02245-3cd3-4cc8-93be-b14bbf7cd8ce{fill:#fff;}.uuid-c9bbf40f-c421-4f2c-8c28-11a3aaea3ab5{fill:#e0e0e0;}</style>
  </defs>
  <path class="uuid-97a02245-3cd3-4cc8-93be-b14bbf7cd8ce" d="m10,1c-4.97056,0-9,4.02944-9,9v18c0,4.97057,4.02944,9,9,9h18c4.97056,0,9-4.02943,9-9V10c0-4.97056-4.02944-9-9-9H10Z"/>
  <path class="uuid-c9bbf40f-c421-4f2c-8c28-11a3aaea3ab5" d="m28,2.25c4.27332,0,7.75,3.47662,7.75,7.75v18c0,4.27338-3.47668,7.75-7.75,7.75H10c-4.27332,0-7.75-3.47662-7.75-7.75V10c0-4.27338,3.47668-7.75,7.75-7.75h18m0-1.25H10C5.02942,1,1,5.02942,1,10v18c0,4.97058,4.02942,9,9,9h18c4.97058,0,9-4.02942,9-9V10c0-4.97058-4.02942-9-9-9h0Z"/>
  <path d="m12,22.625h-3c-.34473,0-.625-.28027-.625-.625s.28027-.625.625-.625h3c.34473,0,.625.28027.625.625s-.28027.625-.625.625Z"/>
  <path class="uuid-5a118379-decc-4fde-be4c-cd959e4f8ac9" d="m29,18.375c-.34473,0-.625.28027-.625.625,0,5.16895-4.20605,9.375-9.375,9.375-2.97656,0-5.71094-1.36621-7.5-3.74902-.20801-.27734-.60059-.33105-.875-.125-.27637.20801-.33203.59961-.125.875,2.02832,2.7002,5.12598,4.24902,8.5,4.24902,5.8584,0,10.625-4.7666,10.625-10.625,0-.34473-.28027-.625-.625-.625Z"/>
  <path class="uuid-5a118379-decc-4fde-be4c-cd959e4f8ac9" d="m19,9.625c2.97656,0,5.71094,1.36621,7.5,3.74902.20703.27734.59863.3291.875.125.27637-.20801.33203-.59961.125-.875-2.02832-2.7002-5.12598-4.24902-8.5-4.24902-5.8584,0-10.625,4.7666-10.625,10.625,0,.34473.28027.625.625.625s.625-.28027.625-.625c0-5.16895,4.20605-9.375,9.375-9.375Z"/>
  <path d="m24.61938,22.02795c.00049-.00983.00562-.01807.00562-.02795s-.00513-.01813-.00562-.02795c-.0033-.07202-.01489-.1438-.04285-.21149-.02002-.04791-.05383-.08667-.08447-.12775-.01807-.02448-.02759-.05304-.04968-.0752l-2-2c-.24414-.24414-.64062-.24414-.88477,0-.24316.24414-.24316.64062,0,.88477l.93323.93262h-8.49084c-.34473,0-.625.28027-.625.625s.28027.625.625.625h8.49084l-.93323.93262c-.24316.24414-.24316.64062,0,.88477.12207.12207.28223.18262.44238.18262s.32031-.06055.44238-.18262l2-2c.02209-.02216.03162-.05072.04968-.0752.03064-.04108.06445-.07983.08447-.12775.02795-.06769.03955-.13947.04285-.21149Z"/>
  <path d="m12,21.375h-3c-.34473,0-.625.28027-.625.625s.28027.625.625.625h3c.34473,0,.625-.28027.625-.625s-.28027-.625-.625-.625Z"/>
  <path d="m29,15.375h-3c-.34473,0-.625.28027-.625.625s.28027.625.625.625h3c.34473,0,.625-.28027.625-.625s-.28027-.625-.625-.625Z"/>
  <path d="m24,15.375h-8.49084l.93323-.93262c.24316-.24414.24316-.64062,0-.88477-.24414-.24414-.64062-.24414-.88477,0l-2,2c-.02209.02216-.03162.05072-.04968.0752-.03064.04108-.06445.07983-.08447.12775-.02795.06769-.03955.13947-.04285.21149-.00049.00983-.00562.01807-.00562.02795s.00513.01813.00562.02795c.0033.07202.01489.1438.04285.21149.02002.04791.05383.08667.08447.12775.01807.02448.02759.05304.04968.0752l2,2c.12207.12207.28223.18262.44238.18262s.32031-.06055.44238-.18262c.24316-.24414.24316-.64062,0-.88477l-.93323-.93262h8.49084c.34473,0,.625-.28027.625-.625s-.28027-.625-.625-.625Z"/>
</svg>
