<svg xmlns="http://www.w3.org/2000/svg" viewBox="0 0 38 38" width="100%" height="100%">
<desc>background:light</desc>
  <defs>
    <style>.cls-1,.cls-2,.cls-3,.cls-4{stroke-width:0px;}.cls-2{fill:#e0e0e0;}.cls-3{fill:#fff;}.cls-4{fill:#e00;}</style>
  </defs>
  <g id="Bounding_shape">
    <rect class="cls-3" x="1" y="1" width="36" height="36" rx="9" ry="9"/>
    <path class="cls-2" d="M28,2.25c4.27,0,7.75,3.48,7.75,7.75v18c0,4.27-3.48,7.75-7.75,7.75H10c-4.27,0-7.75-3.48-7.75-7.75V10c0-4.27,3.48-7.75,7.75-7.75h18M28,1H10C5.03,1,1,5.03,1,10v18c0,4.97,4.03,9,9,9h18c4.97,0,9-4.03,9-9V10c0-4.97-4.03-9-9-9h0Z"/>
  </g>
  <g id="Icons">
    <path class="cls-4" d="M28.84,12.96l-9.53-5.5c-.19-.11-.43-.11-.62,0l-9.53,5.5c-.19.11-.31.32-.31.54v11c0,.22.12.43.31.54l9.53,5.5c.1.06.21.08.31.08s.22-.03.31-.08l9.53-5.5c.19-.11.31-.32.31-.54v-11c0-.22-.12-.43-.31-.54ZM27.9,24.14l-8.9,5.14-8.9-5.14v-10.28l8.9-5.14,8.9,5.14v10.28Z"/>
    <path class="cls-1" d="M25,20.38h-12c-.34,0-.62.28-.62.62v3c0,.35.28.62.62.62h12c.34,0,.62-.28.62-.62v-3c0-.35-.28-.62-.62-.62ZM24.38,23.38h-10.75v-1.75h10.75v1.75Z"/>
    <path class="cls-1" d="M25,13.38h-6c-.34,0-.62.28-.62.62v4c0,.35.28.62.62.62h6c.34,0,.62-.28.62-.62v-4c0-.35-.28-.62-.62-.62ZM24.38,17.38h-4.75v-2.75h4.75v2.75Z"/>
    <path class="cls-1" d="M13,18.62h3c.34,0,.62-.28.62-.62v-4c0-.35-.28-.62-.62-.62h-3c-.34,0-.62.28-.62.62v4c0,.35.28.62.62.62ZM13.62,14.62h1.75v2.75h-1.75v-2.75Z"/>
  </g>
</svg>
