<?xml version="1.0" encoding="UTF-8"?><svg id="uuid-be4ee8b9-4c30-4aa6-9d75-46348a5b4dca" xmlns="http://www.w3.org/2000/svg" viewBox="0 0 38 38"><defs><style>.uuid-af23c787-f351-4e78-8b43-6a042b70aefe{fill:#ed0000;}.uuid-f24432b2-aa73-4938-874b-9b83355ece19{fill:#fff;}.uuid-b45f6a04-be10-47ff-8c03-963f6a964217{fill:#e0e0e0;}</style></defs><path class="uuid-f24432b2-aa73-4938-874b-9b83355ece19" d="m28,1H10C5.02944,1,1,5.02944,1,10v18c0,4.97057,4.02944,9,9,9h18c4.97056,0,9-4.02943,9-9V10c0-4.97056-4.02944-9-9-9h0Z"/><path class="uuid-b45f6a04-be10-47ff-8c03-963f6a964217" d="m28,2.25c4.27332,0,7.75,3.47662,7.75,7.75v18c0,4.27338-3.47668,7.75-7.75,7.75H10c-4.27332,0-7.75-3.47662-7.75-7.75V10c0-4.27338,3.47668-7.75,7.75-7.75h18m0-1.25H10C5.02942,1,1,5.02942,1,10v18c0,4.97058,4.02942,9,9,9h18c4.97058,0,9-4.02942,9-9V10c0-4.97058-4.02942-9-9-9h0Z"/><path class="uuid-af23c787-f351-4e78-8b43-6a042b70aefe" d="m22,22.125h-6c-.34473,0-.625-.28027-.625-.625s.28027-.625.625-.625h6c.34473,0,.625.28027.625.625s-.28027.625-.625.625Z"/><path d="m22,20.125h-6c-.34473,0-.625-.28027-.625-.625v-3c0-.34473.28027-.625.625-.625h6c.34473,0,.625.28027.625.625v3c0,.34473-.28027.625-.625.625Zm-5.375-1.25h4.75v-1.75h-4.75v1.75Z"/><path d="m25.30981,23.63562l-5.44409,3.14288c.34729.24658.57935.63721.62048,1.08484l5.45569-3.14996c-.3501-.24274-.58569-.63171-.63208-1.07776Z"/><path d="m12.05811,24.71338l5.45569,3.14996c.04114-.44763.27319-.83826.62048-1.08484l-5.44409-3.14288c-.04639.44604-.28198.83502-.63208,1.07776Z"/><path d="m10.58105,15.87915v6.24164c.19067-.08783.401-.14001.62476-.14001.22388,0,.43433.05243.62524.14038v-6.24237c-.19092.08795-.40137.14038-.62524.14038-.22375,0-.43408-.05219-.62476-.14001Z"/><path d="m17.51379,10.13666l-5.45569,3.14996c.35022.24268.58569.63165.63208,1.07776l5.44409-3.14288c-.34729-.24658-.57935-.63721-.62048-1.08484Z"/><path d="m19.86572,11.2215l5.44409,3.14288c.04639-.44611.28186-.83508.63208-1.07776l-5.45569-3.14996c-.04114.44763-.27319.83826-.62048,1.08484Z"/><path d="m26.79419,16.01917c-.22388,0-.43433-.05243-.62524-.14038v6.24237c.19092-.08795.40137-.14038.62524-.14038.22375,0,.43408.05219.62476.14001v-6.24164c-.19067.08783-.401.14001-.62476.14001Z"/><path class="uuid-af23c787-f351-4e78-8b43-6a042b70aefe" d="m19,7.875c-1.17188,0-2.125.95312-2.125,2.125s.95312,2.125,2.125,2.125,2.125-.95312,2.125-2.125-.95312-2.125-2.125-2.125Zm0,3c-.48242,0-.875-.39258-.875-.875s.39258-.875.875-.875.875.39258.875.875-.39258.875-.875.875Z"/><path class="uuid-af23c787-f351-4e78-8b43-6a042b70aefe" d="m19,25.875c-1.17188,0-2.125.95312-2.125,2.125s.95312,2.125,2.125,2.125,2.125-.95312,2.125-2.125-.95312-2.125-2.125-2.125Zm0,3c-.48242,0-.875-.39258-.875-.875s.39258-.875.875-.875.875.39258.875.875-.39258.875-.875.875Z"/><path class="uuid-af23c787-f351-4e78-8b43-6a042b70aefe" d="m11.20605,12.39453c-1.17188,0-2.125.95312-2.125,2.125s.95312,2.125,2.125,2.125,2.125-.95312,2.125-2.125-.95312-2.125-2.125-2.125Zm0,3c-.48242,0-.875-.39258-.875-.875s.39258-.875.875-.875.875.39258.875.875-.39258.875-.875.875Z"/><path class="uuid-af23c787-f351-4e78-8b43-6a042b70aefe" d="m26.79395,16.64453c1.17188,0,2.125-.95312,2.125-2.125s-.95312-2.125-2.125-2.125-2.125.95312-2.125,2.125.95312,2.125,2.125,2.125Zm0-3c.48242,0,.875.39258.875.875s-.39258.875-.875.875-.875-.39258-.875-.875.39258-.875.875-.875Z"/><path class="uuid-af23c787-f351-4e78-8b43-6a042b70aefe" d="m11.20605,21.35547c-1.17188,0-2.125.95312-2.125,2.125s.95312,2.125,2.125,2.125,2.125-.95312,2.125-2.125-.95312-2.125-2.125-2.125Zm0,3c-.48242,0-.875-.39258-.875-.875s.39258-.875.875-.875.875.39258.875.875-.39258.875-.875.875Z"/><path class="uuid-af23c787-f351-4e78-8b43-6a042b70aefe" d="m26.79395,21.35547c-1.17188,0-2.125.95312-2.125,2.125s.95312,2.125,2.125,2.125,2.125-.95312,2.125-2.125-.95312-2.125-2.125-2.125Zm0,3c-.48242,0-.875-.39258-.875-.875s.39258-.875.875-.875.875.39258.875.875-.39258.875-.875.875Z"/></svg>