<svg xmlns="http://www.w3.org/2000/svg" id="uuid-87ab3f74-7bfd-4340-9d40-366ea6dc5a3d" viewBox="0 0 38 38" width="100%" height="100%">
<desc>background:light</desc>
  <defs>
    <style>.uuid-a33c8332-06a6-4a6c-9254-ac9b75a9a51e{fill:#ed0000;}.uuid-b5f78410-2b67-4f38-bbf9-d29dbd715f23{fill:#fff;}.uuid-c3d72c8b-6d93-40bf-b42c-5225fcd728a6{fill:#e0e0e0;}</style>
  </defs>
  <path class="uuid-b5f78410-2b67-4f38-bbf9-d29dbd715f23" d="m10,1c-4.97056,0-9,4.02944-9,9v18c0,4.97057,4.02944,9,9,9h18c4.97056,0,9-4.02943,9-9V10c0-4.97056-4.02944-9-9-9H10Z"/>
  <path class="uuid-c3d72c8b-6d93-40bf-b42c-5225fcd728a6" d="m28,2.25c4.27332,0,7.75,3.47662,7.75,7.75v18c0,4.27338-3.47668,7.75-7.75,7.75H10c-4.27332,0-7.75-3.47662-7.75-7.75V10c0-4.27338,3.47668-7.75,7.75-7.75h18m0-1.25H10C5.02942,1,1,5.02942,1,10v18c0,4.97058,4.02942,9,9,9h18c4.97058,0,9-4.02942,9-9V10c0-4.97058-4.02942-9-9-9h0Z"/>
  <path class="uuid-a33c8332-06a6-4a6c-9254-ac9b75a9a51e" d="m10.5,13.375c-1.17188,0-2.125.95312-2.125,2.125s.95312,2.125,2.125,2.125,2.125-.95312,2.125-2.125-.95312-2.125-2.125-2.125Zm0,3c-.48242,0-.875-.39258-.875-.875s.39258-.875.875-.875.875.39258.875.875-.39258.875-.875.875Z"/>
  <path class="uuid-a33c8332-06a6-4a6c-9254-ac9b75a9a51e" d="m27.5,20.375c-1.17188,0-2.125.95312-2.125,2.125s.95312,2.125,2.125,2.125,2.125-.95312,2.125-2.125-.95312-2.125-2.125-2.125Zm0,3c-.48242,0-.875-.39258-.875-.875s.39258-.875.875-.875.875.39258.875.875-.39258.875-.875.875Z"/>
  <path class="uuid-a33c8332-06a6-4a6c-9254-ac9b75a9a51e" d="m16.89648,11.5498c-1.48828.25-2.90527.75977-4.20996,1.51465-.29883.17285-.40039.55566-.22754.85449.11621.2002.32617.31152.54199.31152.10547,0,.21387-.02734.3125-.08398,1.17383-.67969,2.44922-1.13867,3.79004-1.36426.34082-.05664.57031-.37891.5127-.71973-.05664-.33984-.36914-.56543-.71973-.5127Z"/>
  <path class="uuid-a33c8332-06a6-4a6c-9254-ac9b75a9a51e" d="m24.68652,23.85352c-1.17383.67969-2.44922,1.13867-3.79004,1.36426-.34082.05664-.57031.37891-.5127.71973.05078.30566.31543.52148.61523.52148.03418,0,.06934-.00293.10449-.00879,1.48828-.25,2.90527-.75977,4.20996-1.51465.29883-.17285.40039-.55566.22754-.85449-.17383-.29883-.55469-.40137-.85449-.22754Z"/>
  <path d="m19,15.375c-1.99902,0-3.625,1.62598-3.625,3.625s1.62598,3.625,3.625,3.625,3.625-1.62598,3.625-3.625-1.62598-3.625-3.625-3.625Zm0,6c-1.30957,0-2.375-1.06543-2.375-2.375s1.06543-2.375,2.375-2.375,2.375,1.06543,2.375,2.375-1.06543,2.375-2.375,2.375Z"/>
  <path d="m30.48047,18.73926c-1.96631-4.28308-6.18237-7.10791-10.85547-7.34137v-.39789c0-.34473-.28027-.625-.625-.625s-.625.28027-.625.625v2c0,.34473.28027.625.625.625s.625-.28027.625-.625v-.35217c4.18652.23206,7.95557,2.77222,9.71875,6.61292.10547.22949.33203.36426.56836.36426.08789,0,.17676-.01855.26074-.05664.31348-.14453.45117-.51562.30762-.8291Z"/>
  <path d="m19,24.375c-.34473,0-.625.28027-.625.625v.35217c-4.18652-.23206-7.95557-2.77222-9.71875-6.61292-.14453-.31543-.52051-.44922-.8291-.30762-.31348.14453-.45117.51562-.30762.8291,1.96631,4.28308,6.18237,7.10791,10.85547,7.34137v.39789c0,.34473.28027.625.625.625s.625-.28027.625-.625v-2c0-.34473-.28027-.625-.625-.625Z"/>
</svg>
