<svg xmlns="http://www.w3.org/2000/svg" id="uuid-f0e4473c-a402-45db-be51-17fefc5268ac" viewBox="0 0 38 38" width="100%" height="100%">
<desc>background:light</desc>
  <defs>
    <style>.uuid-5c740f3d-2ccc-4135-a33a-3edd433db156{fill:#ed0000;}.uuid-09a01491-f073-4da1-9b74-f78b2b604bf8{fill:#fff;}.uuid-3b0426ce-8862-4529-8d1b-e25d717d674e{fill:#4d4d4d;}</style>
  </defs>
  <rect x="1" y="1" width="36" height="36" rx="9" ry="9"/>
  <path class="uuid-3b0426ce-8862-4529-8d1b-e25d717d674e" d="m28,2.25c4.27338,0,7.75,3.47665,7.75,7.75v18c0,4.27335-3.47662,7.75-7.75,7.75H10c-4.27338,0-7.75-3.47665-7.75-7.75V10c0-4.27335,3.47662-7.75,7.75-7.75h18m0-1.25H10C5.02942,1,1,5.02945,1,10v18c0,4.97055,4.02942,9,9,9h18c4.97058,0,9-4.02945,9-9V10c0-4.97055-4.02942-9-9-9h0Z"/>
  <path class="uuid-09a01491-f073-4da1-9b74-f78b2b604bf8" d="m23,26.625c-.34473,0-.625-.28027-.625-.625v-7c0-.34473.28027-.625.625-.625s.625.28027.625.625v7c0,.34473-.28027.625-.625.625Z"/>
  <path class="uuid-09a01491-f073-4da1-9b74-f78b2b604bf8" d="m15,19.625c-.34473,0-.625-.28027-.625-.625v-7c0-.34473.28027-.625.625-.625s.625.28027.625.625v7c0,.34473-.28027.625-.625.625Z"/>
  <path class="uuid-5c740f3d-2ccc-4135-a33a-3edd433db156" d="m13,20.375h-3.375v-2.75h11.375c.34473,0,.625-.28027.625-.625s-.28027-.625-.625-.625h-12c-.34473,0-.625.28027-.625.625v4c0,.34473.28027.625.625.625h4c.34473,0,.625-.28027.625-.625s-.28027-.625-.625-.625Z"/>
  <path class="uuid-5c740f3d-2ccc-4135-a33a-3edd433db156" d="m29,16.375h-4c-.34473,0-.625.28027-.625.625s.28027.625.625.625h3.375v2.75h-11.375c-.34473,0-.625.28027-.625.625s.28027.625.625.625h12c.34473,0,.625-.28027.625-.625v-4c0-.34473-.28027-.625-.625-.625Z"/>
  <path class="uuid-09a01491-f073-4da1-9b74-f78b2b604bf8" d="m17.44238,24.55762c-.24414-.24414-.64062-.24414-.88477,0l-.93262.93323v-6.49084c0-.34473-.28027-.625-.625-.625s-.625.28027-.625.625v6.49084l-.93262-.93323c-.24414-.24414-.64062-.24414-.88477,0-.24316.24414-.24316.64062,0,.88477l2,2c.0249.0249.05664.03613.08435.05591.03845.02771.07373.05963.11798.07812.07678.03174.1582.04858.24005.04858s.16327-.01685.24005-.04858c.04425-.01849.07953-.05042.11798-.07812.02771-.01978.05945-.03101.08435-.05591l2-2c.24316-.24414.24316-.64062,0-.88477Z"/>
  <path class="uuid-09a01491-f073-4da1-9b74-f78b2b604bf8" d="m25.44238,12.55762l-2-2c-.02759-.02759-.06244-.04065-.09344-.06201-.03577-.0249-.06769-.05487-.10834-.0719-.15381-.06403-.32739-.06403-.4812,0-.04065.01703-.07257.047-.10834.0719-.03101.02136-.06586.03442-.09344.06201l-2,2c-.24316.24414-.24316.64062,0,.88477.24414.24414.64062.24414.88477,0l.93262-.93323v6.49084c0,.34473.28027.625.625.625s.625-.28027.625-.625v-6.49084l.93262.93323c.12207.12207.28223.18262.44238.18262s.32031-.06055.44238-.18262c.24316-.24414.24316-.64062,0-.88477Z"/>
</svg>
