<?xml version="1.0" encoding="UTF-8"?><svg id="uuid-eb505b03-0ea6-411c-8e35-a331875574ea" xmlns="http://www.w3.org/2000/svg" viewBox="0 0 38 38"><defs><style>.uuid-626a31fe-38eb-4490-a60a-3a7be06f27fd{fill:#e00;}.uuid-3d425fa8-b0a0-4e71-9f0d-8ecb645e149b{fill:#fff;}.uuid-b7124b76-5bad-4960-8cc2-fff528c2e075{fill:#e0e0e0;}</style></defs><path class="uuid-3d425fa8-b0a0-4e71-9f0d-8ecb645e149b" d="m28,1H10C5.02944,1,1,5.02944,1,10v18c0,4.97057,4.02944,9,9,9h18c4.97056,0,9-4.02943,9-9V10c0-4.97056-4.02944-9-9-9h0Z"/><path class="uuid-b7124b76-5bad-4960-8cc2-fff528c2e075" d="m28,2.25c4.27332,0,7.75,3.47668,7.75,7.75v18c0,4.27332-3.47668,7.75-7.75,7.75H10c-4.27332,0-7.75-3.47668-7.75-7.75V10c0-4.27332,3.47668-7.75,7.75-7.75h18m0-1.25H10C5.02942,1,1,5.02942,1,10v18c0,4.97058,4.02942,9,9,9h18c4.97058,0,9-4.02942,9-9V10c0-4.97058-4.02942-9-9-9h0Z"/><path class="uuid-626a31fe-38eb-4490-a60a-3a7be06f27fd" d="m30.44238,17.55762c-.24414-.24414-.64062-.24414-.88477,0l-.9657.96631c-.17004-3.48584-2.16003-6.58105-5.3136-8.14795-.31152-.15625-.68457-.02832-.83789.28125s-.02734.68457.28125.83789c2.70435,1.34338,4.42334,3.97876,4.61523,6.95764l-.89453-.89514c-.24414-.24414-.64062-.24414-.88477,0-.24316.24414-.24316.64062,0,.88477l2,2c.12207.12207.28223.18262.44238.18262s.32031-.06055.44238-.18262l2-2c.24316-.24414.24316-.64062,0-.88477Z"/><path class="uuid-626a31fe-38eb-4490-a60a-3a7be06f27fd" d="m10.93555,15.625c-.09375,0-.18848-.02051-.27832-.06543-.30859-.15332-.43457-.52832-.28125-.83789.90527-1.82227,2.40039-3.3418,4.20996-4.27734.30859-.1582.68457-.03711.84277.26855.1582.30664.03809.68359-.26855.84277-1.5752.81348-2.87695,2.13574-3.66504,3.72266-.10938.21973-.33008.34668-.55957.34668Z"/><path class="uuid-626a31fe-38eb-4490-a60a-3a7be06f27fd" d="m15,27.68945c-.09375,0-.18848-.02051-.27832-.06543-1.87207-.93066-3.41504-2.47363-4.3457-4.3457-.15332-.30957-.02734-.68457.28125-.83789.31152-.1543.68457-.02832.83789.28125.80957,1.62988,2.15332,2.97363,3.7832,3.7832.30859.15332.43457.52832.28125.83789-.10938.21973-.33008.34668-.55957.34668Z"/><path class="uuid-626a31fe-38eb-4490-a60a-3a7be06f27fd" d="m23.12793,27.625c-.22656,0-.44531-.12305-.55664-.33789-.1582-.30664-.03809-.68359.26855-.84277,1.5752-.81348,2.87695-2.13574,3.66504-3.72266.15332-.30957.52832-.4375.83789-.28125.30859.15332.43457.52832.28125.83789-.90527,1.82227-2.40039,3.3418-4.20996,4.27734-.0918.04688-.19043.06934-.28613.06934Z"/><path d="m19,12.625c-1.44727,0-2.625-1.17773-2.625-2.625s1.17773-2.625,2.625-2.625,2.625,1.17773,2.625,2.625-1.17773,2.625-2.625,2.625Zm0-4c-.75781,0-1.375.61719-1.375,1.375s.61719,1.375,1.375,1.375,1.375-.61719,1.375-1.375-.61719-1.375-1.375-1.375Z"/><path d="m10,21.625c-1.44727,0-2.625-1.17773-2.625-2.625s1.17773-2.625,2.625-2.625,2.625,1.17773,2.625,2.625-1.17773,2.625-2.625,2.625Zm0-4c-.75781,0-1.375.61719-1.375,1.375s.61719,1.375,1.375,1.375,1.375-.61719,1.375-1.375-.61719-1.375-1.375-1.375Z"/><path d="m19,30.625c-1.44727,0-2.625-1.17773-2.625-2.625s1.17773-2.625,2.625-2.625,2.625,1.17773,2.625,2.625-1.17773,2.625-2.625,2.625Zm0-4c-.75781,0-1.375.61719-1.375,1.375s.61719,1.375,1.375,1.375,1.375-.61719,1.375-1.375-.61719-1.375-1.375-1.375Z"/></svg>