<svg xmlns="http://www.w3.org/2000/svg" id="uuid-657f0301-d3af-4247-a4d5-bd2eaed3cf0e" viewBox="0 0 38 38" width="100%" height="100%">
<desc>background:light</desc>
  <defs>
    <style>.uuid-e3eaad67-481f-452b-a2b5-b3453aefcb2c{fill:#ed0000;}.uuid-d0037452-1ae3-457a-ad58-6a1ea6f545f8{fill:#fff;}.uuid-db4e4b7b-df9e-4283-80d3-4e37f83765db{fill:#e0e0e0;}</style>
  </defs>
  <path class="uuid-d0037452-1ae3-457a-ad58-6a1ea6f545f8" d="m28,1H10C5.02944,1,1,5.02944,1,10v18c0,4.97057,4.02944,9,9,9h18c4.97056,0,9-4.02943,9-9V10c0-4.97056-4.02944-9-9-9h0Z"/>
  <path class="uuid-db4e4b7b-df9e-4283-80d3-4e37f83765db" d="m28,2.25c4.27332,0,7.75,3.47668,7.75,7.75v18c0,4.27332-3.47668,7.75-7.75,7.75H10c-4.27332,0-7.75-3.47668-7.75-7.75V10c0-4.27332,3.47668-7.75,7.75-7.75h18m0-1.25H10C5.02942,1,1,5.02942,1,10v18c0,4.97058,4.02942,9,9,9h18c4.97058,0,9-4.02942,9-9V10c0-4.97058-4.02942-9-9-9h0Z"/>
  <path d="m21,14.625h-9c-.34473,0-.625-.28027-.625-.625v-4c0-.34473.28027-.625.625-.625h9c.34473,0,.625.28027.625.625v4c0,.34473-.28027.625-.625.625Zm-8.375-1.25h7.75v-2.75h-7.75v2.75Z"/>
  <path class="uuid-e3eaad67-481f-452b-a2b5-b3453aefcb2c" d="m29.44238,24.55762l-2-2c-.02759-.02759-.0625-.04065-.09351-.06201-.03564-.0249-.06763-.05493-.10828-.0719-.15381-.06409-.32739-.06409-.4812,0-.04065.01697-.07263.047-.10828.0719-.03101.02136-.06592.03442-.09351.06201l-2,2c-.24316.24414-.24316.64062,0,.88477.24414.24414.64062.24414.88477,0l.93262-.93323v1.86584h-5.375c-.34473,0-.625.28027-.625.625s.28027.625.625.625h6c.34473,0,.625-.28027.625-.625v-2.49084l.93262.93323c.12207.12207.28223.18262.44238.18262s.32031-.06055.44238-.18262c.24316-.24414.24316-.64062,0-.88477Z"/>
  <path class="uuid-e3eaad67-481f-452b-a2b5-b3453aefcb2c" d="m20,19.375h-5.375v-1.86584l.93262.93323c.12207.12207.28223.18262.44238.18262s.32031-.06055.44238-.18262c.24316-.24414.24316-.64062,0-.88477l-2-2c-.02759-.02759-.0625-.04065-.09351-.06201-.03564-.0249-.06763-.05493-.10828-.0719-.15381-.06409-.32739-.06409-.4812,0-.04065.01697-.07263.047-.10828.0719-.03101.02136-.06592.03442-.09351.06201l-2,2c-.24316.24414-.24316.64062,0,.88477.24414.24414.64062.24414.88477,0l.93262-.93323v2.49084c0,.34473.28027.625.625.625h6c.34473,0,.625-.28027.625-.625s-.28027-.625-.625-.625Z"/>
  <path d="m21,28.625h-9c-.34473,0-.625-.28027-.625-.625v-4c0-.34473.28027-.625.625-.625h9c.34473,0,.625.28027.625.625v4c0,.34473-.28027.625-.625.625Zm-8.375-1.25h7.75v-2.75h-7.75v2.75Z"/>
  <path d="m29,21.625h-9c-.34473,0-.625-.28027-.625-.625v-4c0-.34473.28027-.625.625-.625h9c.34473,0,.625.28027.625.625v4c0,.34473-.28027.625-.625.625Zm-8.375-1.25h7.75v-2.75h-7.75v2.75Z"/>
</svg>
