<svg xmlns="http://www.w3.org/2000/svg" id="uuid-9dc9efcc-b543-4091-a427-49d429f84856" viewBox="0 0 38 38" width="100%" height="100%">
<desc>background:light</desc>
  <defs>
    <style>.uuid-91ba5627-5220-4eb4-a715-1cd191a9799d{fill:#e00;}.uuid-0ffcde4e-896a-467f-b43c-0f8520dc9950{fill:#fff;}.uuid-15bb1e0a-87e8-4a84-96d8-d74d90b96db0{fill:#4d4d4d;}</style>
  </defs>
  <rect x="1" y="1" width="36" height="36" rx="9" ry="9"/>
  <path class="uuid-15bb1e0a-87e8-4a84-96d8-d74d90b96db0" d="m28,2.25c4.27338,0,7.75,3.47665,7.75,7.75v18c0,4.27335-3.47662,7.75-7.75,7.75H10c-4.27338,0-7.75-3.47665-7.75-7.75V10c0-4.27335,3.47662-7.75,7.75-7.75h18m0-1.25H10C5.02942,1,1,5.02945,1,10v18c0,4.97055,4.02942,9,9,9h18c4.97058,0,9-4.02945,9-9V10c0-4.97055-4.02942-9-9-9h0Z"/>
  <path class="uuid-91ba5627-5220-4eb4-a715-1cd191a9799d" d="m19,28.625c-5.95801,0-10.625-2.69043-10.625-6.125s4.66699-6.125,10.625-6.125,10.625,2.69043,10.625,6.125-4.66699,6.125-10.625,6.125Zm0-11c-5.08203,0-9.375,2.23242-9.375,4.875s4.29297,4.875,9.375,4.875,9.375-2.23242,9.375-4.875-4.29297-4.875-9.375-4.875Z"/>
  <path class="uuid-0ffcde4e-896a-467f-b43c-0f8520dc9950" d="m25.44238,20.55762c-.24414-.24414-.64062-.24414-.88477,0l-1.93262,1.93335v-12.49097c0-.34473-.28027-.625-.625-.625s-.625.28027-.625.625v12.49097l-1.93262-1.93335c-.24414-.24414-.64062-.24414-.88477,0-.24316.24414-.24316.64062,0,.88477l3,3c.0249.0249.05664.03613.08435.05591.03845.02771.07373.05963.11798.07812.07678.03174.1582.04858.24005.04858s.16327-.01685.24005-.04858c.04425-.01849.07953-.05042.11798-.07812.02771-.01978.05945-.03101.08435-.05591l3-3c.24316-.24414.24316-.64062,0-.88477Z"/>
  <path class="uuid-0ffcde4e-896a-467f-b43c-0f8520dc9950" d="m18.55762,13.44238c.12207.12207.28223.18262.44238.18262s.32031-.06055.44238-.18262c.24316-.24414.24316-.64062,0-.88477l-3-3c-.02759-.02759-.06244-.04065-.09344-.06201-.03577-.0249-.06769-.05487-.10834-.0719-.15381-.06403-.32739-.06403-.4812,0-.04065.01703-.07257.047-.10834.0719-.03101.02136-.06586.03442-.09344.06201l-3,3c-.24316.24414-.24316.64062,0,.88477.24414.24414.64062.24414.88477,0l1.93262-1.93335v12.49097c0,.34473.28027.625.625.625s.625-.28027.625-.625v-12.49097l1.93262,1.93335Z"/>
</svg>
