<svg xmlns="http://www.w3.org/2000/svg" id="uuid-2074ea1d-f3e4-4976-8512-457d3505d06e" viewBox="0 0 38 38" width="100%" height="100%">
<desc>background:light</desc>
  <defs>
    <style>.uuid-b13ca3a9-13a7-4997-902c-f7ca389e9979{fill:#e00;}.uuid-989da6fd-310a-4408-bb69-3a3cb8053cfb{fill:#fff;}.uuid-c3c2ac93-21bd-48f4-9137-ec3866cef071{fill:#4d4d4d;}</style>
  </defs>
  <rect x="1" y="1" width="36" height="36" rx="9" ry="9"/>
  <path class="uuid-c3c2ac93-21bd-48f4-9137-ec3866cef071" d="m28,2.25c4.27338,0,7.75,3.47665,7.75,7.75v18c0,4.27335-3.47662,7.75-7.75,7.75H10c-4.27338,0-7.75-3.47665-7.75-7.75V10c0-4.27335,3.47662-7.75,7.75-7.75h18m0-1.25H10C5.02942,1,1,5.02945,1,10v18c0,4.97055,4.02942,9,9,9h18c4.97058,0,9-4.02945,9-9V10c0-4.97055-4.02942-9-9-9h0Z"/>
  <path class="uuid-989da6fd-310a-4408-bb69-3a3cb8053cfb" d="m22,25.625h-9c-.34473,0-.625-.28027-.625-.625s.28027-.625.625-.625h9c1.30957,0,2.375-1.06543,2.375-2.375s-1.06543-2.375-2.375-2.375h-7c-1.99902,0-3.625-1.62598-3.625-3.625s1.62598-3.625,3.625-3.625h10c.34473,0,.625.28027.625.625s-.28027.625-.625.625h-10c-1.30957,0-2.375,1.06543-2.375,2.375s1.06543,2.375,2.375,2.375h7c1.99902,0,3.625,1.62598,3.625,3.625s-1.62598,3.625-3.625,3.625Z"/>
  <path class="uuid-b13ca3a9-13a7-4997-902c-f7ca389e9979" d="m25,16.625c-1.99902,0-3.625-1.62598-3.625-3.625s1.62598-3.625,3.625-3.625,3.625,1.62598,3.625,3.625-1.62598,3.625-3.625,3.625Zm0-6c-1.30957,0-2.375,1.06543-2.375,2.375s1.06543,2.375,2.375,2.375,2.375-1.06543,2.375-2.375-1.06543-2.375-2.375-2.375Z"/>
  <path class="uuid-b13ca3a9-13a7-4997-902c-f7ca389e9979" d="m13,28.625c-1.99902,0-3.625-1.62598-3.625-3.625s1.62598-3.625,3.625-3.625,3.625,1.62598,3.625,3.625-1.62598,3.625-3.625,3.625Zm0-6c-1.30957,0-2.375,1.06543-2.375,2.375s1.06543,2.375,2.375,2.375,2.375-1.06543,2.375-2.375-1.06543-2.375-2.375-2.375Z"/>
</svg>
