<?xml version="1.0" encoding="UTF-8"?><svg id="uuid-2a1e137b-3d80-40b0-aebb-0acd466bcea4" xmlns="http://www.w3.org/2000/svg" viewBox="0 0 38 38"><defs><style>.uuid-aea8dfff-7c04-4c5a-b41e-fb8f1a2a9a80{fill:#e00;}.uuid-98f63cf0-9136-4778-b0a7-1b49c75c454e{fill:#fff;}.uuid-caa671ce-b6cd-46cb-a2ff-e5ddd20edb63{fill:#e0e0e0;}</style></defs><path class="uuid-98f63cf0-9136-4778-b0a7-1b49c75c454e" d="m28,1H10C5.02944,1,1,5.02944,1,10v18c0,4.97057,4.02944,9,9,9h18c4.97056,0,9-4.02943,9-9V10c0-4.97056-4.02944-9-9-9h0Z"/><path class="uuid-caa671ce-b6cd-46cb-a2ff-e5ddd20edb63" d="m28,2.25c4.27332,0,7.75,3.47668,7.75,7.75v18c0,4.27332-3.47668,7.75-7.75,7.75H10c-4.27332,0-7.75-3.47668-7.75-7.75V10c0-4.27332,3.47668-7.75,7.75-7.75h18m0-1.25H10C5.02942,1,1,5.02942,1,10v18c0,4.97058,4.02942,9,9,9h18c4.97058,0,9-4.02942,9-9V10c0-4.97058-4.02942-9-9-9h0Z"/><path class="uuid-aea8dfff-7c04-4c5a-b41e-fb8f1a2a9a80" d="m28.08594,14.98267c-.02979.00269-.05542.01733-.08594.01733-.55225,0-1-.44775-1-1,0-.16187.04712-.30872.11548-.44397-4.66138.93945-6.66797-2.56335-7.29028-4.02405-.17822.27515-.47302.46802-.8252.46802-.40234,0-.74414-.24072-.90283-.58325-1.78369,4.48901-6.08069,4.08228-7.47803,3.81689.22681.18335.38086.45203.38086.76636,0,.55225-.44775,1-1,1-.01367,0-.02515-.00732-.03882-.00781,2.72205,3.77466.99829,6.82471.07642,8.01538.53394.021.9624.45349.9624.99243,0,.16089-.04639.30713-.11389.44165,4.68311-.94788,6.67871,2.58118,7.2887,4.02637.17822-.27515.4729-.46802.8252-.46802.35889,0,.65894.19934.83545.48315,1.64868-4.42407,5.66711-4.2854,7.28833-4.02686-.07251-.13855-.12378-.28906-.12378-.4563,0-.55225.44775-1,1-1,.02417,0,.04456.01208.06836.01379-2.71741-3.82129-.88477-6.89612.01758-8.03113Zm-16.11719,7.20898c.72852-1.56226,1.18884-3.82251-.07251-6.42358l5.81738,3.23193-5.74487,3.19165Zm6.40625,4.10156c-1.00061-1.45544-2.70312-3.04126-5.37598-3.24475l5.37598-2.98669v6.23145Zm0-8.35498l-5.97876-3.32153c.46143-.00916.95361-.04541,1.46899-.14209,1.44727-.27173,3.21704-1.0188,4.50977-2.89771v6.36133Zm1.25-6.22876c1.00085,1.45276,2.7019,3.03979,5.37109,3.24475l-5.37109,2.98401v-6.22876Zm4.50977,11.55127c-1.44727.27173-3.21704,1.0188-4.50977,2.89771v-6.09668l5.5376,3.07654c-.33203.02209-.67322.05603-1.02783.12244Zm2.01733-1.00195l-5.86572-3.25879,5.88525-3.26953c-.76343,1.55933-1.29932,3.86035-.01953,6.52832Z"/><path d="m19,10.625c-.89648,0-1.625-.72852-1.625-1.625s.72852-1.625,1.625-1.625,1.625.72852,1.625,1.625-.72852,1.625-1.625,1.625Zm0-2c-.20703,0-.375.16797-.375.375s.16797.375.375.375.375-.16797.375-.375-.16797-.375-.375-.375Z"/><path d="m19,30.625c-.89648,0-1.625-.72852-1.625-1.625s.72852-1.625,1.625-1.625,1.625.72852,1.625,1.625-.72852,1.625-1.625,1.625Zm0-2c-.20703,0-.375.16797-.375.375s.16797.375.375.375.375-.16797.375-.375-.16797-.375-.375-.375Z"/><path d="m28,15.625c-.89648,0-1.625-.72852-1.625-1.625s.72852-1.625,1.625-1.625,1.625.72852,1.625,1.625-.72852,1.625-1.625,1.625Zm0-2c-.20703,0-.375.16797-.375.375s.16797.375.375.375.375-.16797.375-.375-.16797-.375-.375-.375Z"/><path d="m10,15.625c-.89648,0-1.625-.72852-1.625-1.625s.72852-1.625,1.625-1.625,1.625.72852,1.625,1.625-.72852,1.625-1.625,1.625Zm0-2c-.20703,0-.375.16797-.375.375s.16797.375.375.375.375-.16797.375-.375-.16797-.375-.375-.375Z"/><path d="m28,25.625c-.89648,0-1.625-.72852-1.625-1.625s.72852-1.625,1.625-1.625,1.625.72852,1.625,1.625-.72852,1.625-1.625,1.625Zm0-2c-.20703,0-.375.16797-.375.375s.16797.375.375.375.375-.16797.375-.375-.16797-.375-.375-.375Z"/><path d="m10,25.625c-.89648,0-1.625-.72852-1.625-1.625s.72852-1.625,1.625-1.625,1.625.72852,1.625,1.625-.72852,1.625-1.625,1.625Zm0-2c-.20703,0-.375.16797-.375.375s.16797.375.375.375.375-.16797.375-.375-.16797-.375-.375-.375Z"/></svg>