<svg xmlns="http://www.w3.org/2000/svg" id="uuid-d5b1e153-5c98-46d8-b489-f352bcd123ff" viewBox="0 0 38 38">
  <defs>
    <style>.uuid-a8dbf535-1c96-4d3b-8769-d36826712f6a{fill:#e00;}.uuid-f81301c3-80ec-4311-8cac-8c1d33dae045{fill:#fff;}.uuid-ae3b27be-a8fe-467a-8e0f-d9ff2098f7c7{fill:#e0e0e0;}</style>
  </defs>
  <path class="uuid-f81301c3-80ec-4311-8cac-8c1d33dae045" d="m28,1H10C5.02944,1,1,5.02944,1,10v18c0,4.97057,4.02944,9,9,9h18c4.97056,0,9-4.02943,9-9V10c0-4.97056-4.02944-9-9-9h0Z"/>
  <path class="uuid-ae3b27be-a8fe-467a-8e0f-d9ff2098f7c7" d="m28,2.25c4.27332,0,7.75,3.47668,7.75,7.75v18c0,4.27332-3.47668,7.75-7.75,7.75H10c-4.27332,0-7.75-3.47668-7.75-7.75V10c0-4.27332,3.47668-7.75,7.75-7.75h18m0-1.25H10C5.02942,1,1,5.02942,1,10v18c0,4.97058,4.02942,9,9,9h18c4.97058,0,9-4.02942,9-9V10c0-4.97058-4.02942-9-9-9h0Z"/>
  <path class="uuid-a8dbf535-1c96-4d3b-8769-d36826712f6a" d="m27,27.625h-6c-.34473,0-.625-.28027-.625-.625v-6c0-.34473.28027-.625.625-.625h6c.34473,0,.625.28027.625.625v6c0,.34473-.28027.625-.625.625Zm-5.375-1.25h4.75v-4.75h-4.75v4.75Z"/>
  <path class="uuid-a8dbf535-1c96-4d3b-8769-d36826712f6a" d="m27,17.625h-6c-.34473,0-.625-.28027-.625-.625v-6c0-.34473.28027-.625.625-.625h6c.34473,0,.625.28027.625.625v6c0,.34473-.28027.625-.625.625Zm-5.375-1.25h4.75v-4.75h-4.75v4.75Z"/>
  <path class="uuid-a8dbf535-1c96-4d3b-8769-d36826712f6a" d="m17,17.625h-6c-.34473,0-.625-.28027-.625-.625v-6c0-.34473.28027-.625.625-.625h6c.34473,0,.625.28027.625.625v6c0,.34473-.28027.625-.625.625Zm-5.375-1.25h4.75v-4.75h-4.75v4.75Z"/>
  <path d="m17.61938,20.97205c-.0033-.07202-.01489-.1438-.04285-.21155-.02002-.04785-.05383-.08667-.08447-.12769-.01807-.02441-.02759-.05298-.04968-.0752-.02759-.02759-.0625-.04065-.09351-.06201-.03564-.0249-.06763-.05493-.10828-.0719-.07776-.03235-.16028-.04907-.24304-.04871h-4.99756c-.34473,0-.625.28027-.625.625s.28027.625.625.625h3.49023l-4.93262,4.93262c-.24316.24414-.24316.64062,0,.88477.12207.12207.28223.18262.44238.18262s.32031-.06055.44238-.18262l4.93262-4.93262v3.49023c0,.34473.28027.625.625.625s.625-.28027.625-.625v-5c0-.00989-.00513-.01807-.00562-.02795Z"/>
</svg>
