<?xml version="1.0" encoding="UTF-8"?><svg xmlns="http://www.w3.org/2000/svg" width="38" height="38" viewBox="0 0 38 38"><g id="uuid-c9b57a80-5a78-4557-9001-5705500153ee"><rect x="1" y="1" width="36" height="36" rx="9" ry="9" stroke-width="0"/><path d="m28,2.25c4.27336,0,7.75,3.47664,7.75,7.75v18c0,4.27336-3.47664,7.75-7.75,7.75H10c-4.27336,0-7.75-3.47664-7.75-7.75V10c0-4.27336,3.47664-7.75,7.75-7.75h18m0-1.25H10C5.02944,1,1,5.02943,1,10v18c0,4.97057,4.02944,9,9,9h18c4.97057,0,9-4.02943,9-9V10c0-4.97057-4.02943-9-9-9h0Z" fill="#4d4d4d" stroke-width="0"/></g><g id="uuid-02eefdd1-f89e-4ee8-85da-661b82d334db"><path d="m25.7334,14.01855c-.09277-3.12793-2.66699-5.64355-5.81641-5.64355-2.15723,0-4.12207,1.19092-5.12891,3.07178-2.72559-.23535-4.96875,1.92432-4.96875,4.58105,0,2.53467,2.0625,4.59717,4.59766,4.59717h10.69434c.0791,0,.15527-.01465.22461-.0415,1.61035-.25537,2.84473-1.65283,2.84473-3.3335,0-1.52588-1.01855-2.82715-2.44727-3.23145Zm-.92773,5.35645h-10.38867c-1.8457,0-3.34766-1.50146-3.34766-3.34717s1.50195-3.34717,3.34766-3.34717c.2002,0,.4082.02002.61914.06006.29102.0542.57324-.09766.68945-.36523.72656-1.6709,2.37207-2.75049,4.19141-2.75049,2.51953,0,4.56934,2.0498,4.56934,4.56934,0,.07861-.00586.15576-.01562.29102-.02441.33594.22266.62988.55762.66553,1.08398.11475,1.90234,1.01709,1.90234,2.09912,0,1.17188-.95312,2.125-2.125,2.125Z" fill="#fff" stroke-width="0"/><path d="m24,23.625h-13c-.34473,0-.625-.27979-.625-.625s.28027-.625.625-.625h13c.34473,0,.625.27979.625.625s-.28027.625-.625.625Z" fill="#e00" stroke-width="0"/><path d="m28,26.625h-13c-.34473,0-.625-.27979-.625-.625s.28027-.625.625-.625h13c.34473,0,.625.27979.625.625s-.28027.625-.625.625Z" fill="#e00" stroke-width="0"/><path d="m24,29.625h-13c-.34473,0-.625-.27979-.625-.625s.28027-.625.625-.625h13c.34473,0,.625.27979.625.625s-.28027.625-.625.625Z" fill="#e00" stroke-width="0"/></g></svg>