<svg xmlns="http://www.w3.org/2000/svg" id="uuid-baf24497-6876-47a0-a885-432dad31fde2" viewBox="0 0 38 38" width="100%" height="100%">
  <defs>
    <style>.uuid-2729da0a-b0d9-484c-acbd-badb53d3f1cd{fill:#ed0000;}.uuid-6906720b-a988-476e-af15-f1b6d0615c1a{fill:#fff;}.uuid-b5f72c33-4c68-459d-8a04-1d82adc5fb73{fill:#e0e0e0;}</style>
  </defs>
  <path class="uuid-6906720b-a988-476e-af15-f1b6d0615c1a" d="m28,1H10C5.02944,1,1,5.02944,1,10v18c0,4.97057,4.02944,9,9,9h18c4.97056,0,9-4.02943,9-9V10c0-4.97056-4.02944-9-9-9h0Z"/>
  <path class="uuid-b5f72c33-4c68-459d-8a04-1d82adc5fb73" d="m28,2.25c4.27332,0,7.75,3.47662,7.75,7.75v18c0,4.27338-3.47668,7.75-7.75,7.75H10c-4.27332,0-7.75-3.47662-7.75-7.75V10c0-4.27338,3.47668-7.75,7.75-7.75h18m0-1.25H10C5.02942,1,1,5.02942,1,10v18c0,4.97058,4.02942,9,9,9h18c4.97058,0,9-4.02942,9-9V10c0-4.97058-4.02942-9-9-9h0Z"/>
  <path d="m22,15.375h-6c-.34473,0-.625.28027-.625.625v6c0,.34473.28027.625.625.625h3c.34473,0,.625-.28027.625-.625s-.28027-.625-.625-.625h-2.375v-4.75h4.75v2.375c0,.34473.28027.625.625.625s.625-.28027.625-.625v-3c0-.34473-.28027-.625-.625-.625Z"/>
  <path d="m11.5,15.125c.95288,0,1.75171-.6344,2.02051-1.5h1.2207l.81641.81738c.12207.12207.28223.18262.44238.18262s.32031-.06055.44238-.18262c.24316-.24414.24316-.64062,0-.88477l-1-1c-.11719-.11719-.27637-.18262-.44238-.18262h-1.47949c-.2688-.8656-1.06763-1.5-2.02051-1.5-1.17188,0-2.125.95312-2.125,2.125s.95312,2.125,2.125,2.125Zm0-3c.48242,0,.875.39258.875.875s-.39258.875-.875.875-.875-.39258-.875-.875.39258-.875.875-.875Z"/>
  <path d="m26.5,10.875c-.95288,0-1.75159.6344-2.02039,1.5h-1.47961c-.16602,0-.3252.06543-.44238.18262l-1,1c-.24316.24414-.24316.64062,0,.88477.12207.12207.28223.18262.44238.18262s.32031-.06055.44238-.18262l.81641-.81738h1.22083c.2688.8656,1.0675,1.5,2.02039,1.5,1.17188,0,2.125-.95312,2.125-2.125s-.95312-2.125-2.125-2.125Zm0,3c-.48242,0-.875-.39258-.875-.875s.39258-.875.875-.875.875.39258.875.875-.39258.875-.875.875Z"/>
  <path d="m15.55762,23.55762l-.81641.81738h-1.2207c-.2688-.8656-1.06763-1.5-2.02051-1.5-1.17188,0-2.125.95312-2.125,2.125s.95312,2.125,2.125,2.125c.95288,0,1.75171-.6344,2.02051-1.5h1.47949c.16602,0,.3252-.06543.44238-.18262l1-1c.24316-.24414.24316-.64062,0-.88477-.24414-.24414-.64062-.24414-.88477,0Zm-4.05762,2.31738c-.48242,0-.875-.39258-.875-.875s.39258-.875.875-.875.875.39258.875.875-.39258.875-.875.875Z"/>
  <path d="m12.625,20.5v-.875h1.375c.34473,0,.625-.28027.625-.625s-.28027-.625-.625-.625h-1.375v-.875c0-.34473-.28027-.625-.625-.625h-3c-.34473,0-.625.28027-.625.625v3c0,.34473.28027.625.625.625h3c.34473,0,.625-.28027.625-.625Zm-1.25-.625h-1.75v-1.75h1.75v1.75Z"/>
  <path class="uuid-2729da0a-b0d9-484c-acbd-badb53d3f1cd" d="m29.44238,18.89551l-1.33789-1.33789c-.24414-.24414-.64062-.24414-.88477,0l-7.58789,7.58789c-.03101.03113-.04663.07007-.0697.10547-.01892.02863-.0448.0506-.0592.08301l-1.07422,2.41211c-.10449.23633-.05371.5127.12891.69629.12012.11914.28027.18262.44238.18262.08594,0,.17285-.01758.25391-.05371l2.41211-1.07422c.03223-.01434.0542-.03998.08276-.05884.03552-.02319.07446-.03888.10571-.07007l7.58789-7.58789c.24316-.24414.24316-.64062,0-.88477Zm-8.3916,7.50684l-.81738.36426.36426-.81738,7.06445-7.06543.4541.4541-7.06543,7.06445Z"/>
</svg>
