<svg xmlns="http://www.w3.org/2000/svg" id="uuid-225ed4b3-159e-4d4c-9d33-0db7f7962a31" viewBox="0 0 38 38" width="100%" height="100%">
<desc>background:light</desc>
  <defs>
    <style>.uuid-eeb95a92-c376-4176-98c7-0e8867ade788{fill:#e00;}.uuid-7d1d29e2-f5f0-400b-b049-4026b9201aff{fill:#fff;}.uuid-119034c4-8aa8-4e8e-8f51-711bd804f27e{fill:#e0e0e0;}</style>
  </defs>
  <path class="uuid-7d1d29e2-f5f0-400b-b049-4026b9201aff" d="m10,1c-4.97056,0-9,4.02944-9,9v18c0,4.97057,4.02944,9,9,9h18c4.97056,0,9-4.02943,9-9V10c0-4.97056-4.02944-9-9-9H10Z"/>
  <path class="uuid-119034c4-8aa8-4e8e-8f51-711bd804f27e" d="m28,2.25c4.27332,0,7.75,3.47662,7.75,7.75v18c0,4.27338-3.47668,7.75-7.75,7.75H10c-4.27332,0-7.75-3.47662-7.75-7.75V10c0-4.27338,3.47668-7.75,7.75-7.75h18m0-1.25H10C5.02942,1,1,5.02942,1,10v18c0,4.97058,4.02942,9,9,9h18c4.97058,0,9-4.02942,9-9V10c0-4.97058-4.02942-9-9-9h0Z"/>
  <path class="uuid-eeb95a92-c376-4176-98c7-0e8867ade788" d="m14,10.47559h-3c-.34473,0-.625.28027-.625.625v3c0,.34473.28027.625.625.625h3c.34473,0,.625-.28027.625-.625v-3c0-.34473-.28027-.625-.625-.625Zm-.625,3h-1.75v-1.75h1.75v1.75Z"/>
  <path class="uuid-eeb95a92-c376-4176-98c7-0e8867ade788" d="m27,10.47559h-3c-.34473,0-.625.28027-.625.625v3c0,.34473.28027.625.625.625h3c.34473,0,.625-.28027.625-.625v-3c0-.34473-.28027-.625-.625-.625Zm-.625,3h-1.75v-1.75h1.75v1.75Z"/>
  <path class="uuid-eeb95a92-c376-4176-98c7-0e8867ade788" d="m27,23.47559h-3c-.34473,0-.625.28027-.625.625v3c0,.34473.28027.625.625.625h3c.34473,0,.625-.28027.625-.625v-3c0-.34473-.28027-.625-.625-.625Zm-.625,3h-1.75v-1.75h1.75v1.75Z"/>
  <path class="uuid-eeb95a92-c376-4176-98c7-0e8867ade788" d="m14,23.47559h-3c-.34473,0-.625.28027-.625.625v3c0,.34473.28027.625.625.625h3c.34473,0,.625-.28027.625-.625v-3c0-.34473-.28027-.625-.625-.625Zm-.625,3h-1.75v-1.75h1.75v1.75Z"/>
  <path d="m21.15527,10.74707c-1.4043-.35938-2.90625-.35938-4.31055,0-.33398.08594-.53613.42676-.4502.76074.08496.33301.42285.53906.76074.4502,1.20312-.30859,2.48633-.30859,3.68945,0,.05176.01367.10449.01953.15527.01953.2793,0,.5332-.1875.60547-.46973.08594-.33398-.11621-.6748-.4502-.76074Z"/>
  <path d="m11.40723,16.49512c-.33691-.08984-.6748.11719-.76074.4502-.17969.70117-.27148,1.42676-.27148,2.15527,0,.72754.0918,1.45312.27148,2.15527.07227.28223.32617.46973.60547.46973.05078,0,.10352-.00586.15527-.01953.33398-.08594.53613-.42676.4502-.76074-.1543-.60156-.23242-1.22168-.23242-1.84473,0-.62402.07812-1.24414.23242-1.84473.08594-.33398-.11523-.6748-.4502-.76074Z"/>
  <path d="m20.84473,26.24316c-1.20312.30859-2.48633.30859-3.68945,0-.33691-.08789-.6748.11621-.76074.4502s.11621.6748.4502.76074c.70215.17969,1.42773.27148,2.15527.27148s1.45312-.0918,2.15527-.27148c.33398-.08594.53613-.42676.4502-.76074-.08496-.33398-.42383-.53906-.76074-.4502Z"/>
  <path d="m27.35352,16.94531c-.08594-.33301-.42383-.54102-.76074-.4502-.33496.08594-.53613.42676-.4502.76074.1543.60059.23242,1.2207.23242,1.84473,0,.62305-.07812,1.24316-.23242,1.84473-.08594.33398.11621.6748.4502.76074.05176.01367.10449.01953.15527.01953.2793,0,.5332-.1875.60547-.46973.17969-.70215.27148-1.42773.27148-2.15527,0-.72852-.0918-1.4541-.27148-2.15527Z"/>
  <path d="m20.91113,17.38574c0-1.05371-.85742-1.91016-1.91113-1.91016s-1.91113.85645-1.91113,1.91016c0,.62775.30835,1.18103.77722,1.52966l-.75867,3.03381c-.04688.18652-.00488.38477.11426.53613.11816.15137.2998.24023.49219.24023h2.57227c.19238,0,.37402-.08887.49219-.24023.11914-.15137.16113-.34961.11426-.53613l-.75867-3.03381c.46887-.34863.77722-.90192.77722-1.52966Zm-2.39648,4.08984l.48535-1.94141.48535,1.94141h-.9707Zm.48535-3.42871c-.36426,0-.66113-.29688-.66113-.66113s.29688-.66016.66113-.66016.66113.2959.66113.66016-.29688.66113-.66113.66113Z"/>
</svg>
