<svg width="55" height="55" viewBox="0 0 55 55" fill="none" xmlns="http://www.w3.org/2000/svg">
<path d="M52.4249 12.0311C52.4249 12.528 52.0657 12.9525 51.5688 13.0448C47.7301 13.7464 44.6787 16.7979 43.9771 20.6365C43.8848 21.1334 43.4601 21.4925 42.9633 21.4925C42.4666 21.4925 42.0419 21.1332 41.9496 20.6365C41.2497 16.7979 38.1983 13.7464 34.3579 13.0448C33.861 12.9525 33.5018 12.5278 33.5018 12.0311C33.5018 11.5344 33.861 11.1097 34.3579 11.0174C38.1983 10.3158 41.2497 7.2643 41.9496 3.42564C42.0419 2.92875 42.4666 2.5697 42.9633 2.5697C43.4601 2.5697 43.8848 2.92892 43.9771 3.42564C44.6787 7.2643 47.7301 10.3158 51.5688 11.0174C52.0657 11.1097 52.4249 11.5344 52.4249 12.0311ZM44.751 29.1531C34.603 28.3473 26.6521 20.3966 25.8465 10.262C25.7827 9.36237 24.9636 8.5953 24.0622 8.5953C23.1659 8.5953 22.3485 9.35567 22.278 10.2486C21.4723 20.3966 13.5215 28.3475 3.38689 29.1531C2.48729 29.2169 1.72021 30.036 1.72021 30.9373C1.72021 31.8337 2.48059 32.6511 3.37348 32.7216C13.5215 33.5273 21.4724 41.4781 22.278 51.6127C22.3418 52.5123 23.1609 53.2794 24.0622 53.2794C24.9586 53.2794 25.776 52.519 25.8465 51.6261C26.6522 41.4781 34.603 33.5271 44.751 32.7216C45.6439 32.6494 46.4043 31.8354 46.4043 30.9373C46.4043 30.041 45.6439 29.2236 44.751 29.1531Z" fill="url(#paint0_linear_2913_93950)"/>
<defs>
<linearGradient id="paint0_linear_2913_93950" x1="27.0726" y1="2.5697" x2="27.0726" y2="53.2794" gradientUnits="userSpaceOnUse">
<stop stop-color="#F56E6E"/>
<stop offset="0.65" stop-color="#876FD4"/>
<stop offset="1" stop-color="#5E40BE"/>
</linearGradient>
</defs>
</svg>
