<?xml version="1.0" encoding="UTF-8"?><svg id="uuid-98509fdf-ffcb-44e8-a8fa-d1853a91b49d" xmlns="http://www.w3.org/2000/svg" width="36" height="36" viewBox="0 0 36 36"><title>AI experience icon</title>
<desc>automation, smart, technology, robotics, learning, machine learning, deep learning, algorithm, neural network, logic, brain, data, system, future, mind, computation, cyborg, innovation, digital, programming, AI, artificial intelligence, ML, sparkle, spark</desc>
<metadata><?xpacket begin="﻿" id="W5M0MpCehiHzreSzNTczkc9d"?>
<x:xmpmeta xmlns:x="adobe:ns:meta/" x:xmptk="Adobe XMP Core 8.0-c001 1.000000, 0000/00/00-00:00:00        ">
   <rdf:RDF xmlns:rdf="http://www.w3.org/1999/02/22-rdf-syntax-ns#">
      <rdf:Description rdf:about=""
            xmlns:xmp="http://ns.adobe.com/xap/1.0/"
            xmlns:tiff="http://ns.adobe.com/tiff/1.0/"
            xmlns:dc="http://purl.org/dc/elements/1.1/">
         <xmp:brand-content-type>Icon</xmp:brand-content-type>
         <xmp:rhcc-rights-restricted>no</xmp:rhcc-rights-restricted>
         <xmp:brand-content-subtype>Icon</xmp:brand-content-subtype>
         <xmp:rhcc-file-last-modified>2025-08-04T12:46:13.587Z</xmp:rhcc-file-last-modified>
         <xmp:brand-colorway>
            <rdf:Bag>
               <rdf:li>colorway:black</rdf:li>
            </rdf:Bag>
         </xmp:brand-colorway>
         <tiff:ImageLength>36</tiff:ImageLength>
         <tiff:ImageWidth>36</tiff:ImageWidth>
         <dc:format>image/svg+xml</dc:format>
         <dc:modified>2025-08-04T12:47:26.560Z</dc:modified>
         <dc:title>
            <rdf:Alt>
               <rdf:li xml:lang="x-default">AI experience icon</rdf:li>
            </rdf:Alt>
         </dc:title>
         <dc:description>
            <rdf:Alt>
               <rdf:li xml:lang="x-default">automation, smart, technology, robotics, learning, machine learning, deep learning, algorithm, neural network, logic, brain, data, system, future, mind, computation, cyborg, innovation, digital, programming, AI, artificial intelligence, ML, sparkle, spark</rdf:li>
            </rdf:Alt>
         </dc:description>
      </rdf:Description>
   </rdf:RDF>
</x:xmpmeta>
                                                                                                    
                                                                                                    
                                                                                                    
                                                                                                    
                                                                                                    
                                                                                                    
                                                                                                    
                                                                                                    
                                                                                                    
                                                                                                    
                                                                                                    
                                                                                                    
                                                                                                    
                                                                                                    
                                                                                                    
                                                                                                    
                                                                                                    
                          
<?xpacket end="w"?></metadata>
<path d="M16,31.62598c-.32373,0-.63867-.29297-.66748-.61523-.47607-5.51758-4.8252-9.86719-10.34082-10.34277-.32324-.02832-.61719-.34375-.61719-.66797,0-.32617.29639-.6416.62109-.66797,5.51172-.47559,9.86084-4.8252,10.33691-10.34082.02783-.32324.34326-.61719.66748-.61719.32373,0,.63867.29297.66748.61523.47607,5.51758,4.8252,9.86719,10.34082,10.34277.32324.02832.61719.34375.61719.66797s-.29395.63965-.61719.66797h0c-5.51562.47559-9.86475,4.8252-10.34082,10.34082-.02783.32324-.34326.61719-.66748.61719ZM7.94482,20c3.81494,1.24512,6.81104,4.24121,8.05518,8.05469,1.24414-3.81348,4.24121-6.81055,8.05518-8.05469-3.81494-1.24512-6.81104-4.24121-8.05518-8.05469-1.24414,3.81348-4.24121,6.81055-8.05518,8.05469Z"/><path d="M27,13.89941c-.26416,0-.53076-.23828-.56445-.5-.26611-1.99023-1.84424-3.56836-3.83789-3.83496-.26025-.03516-.49756-.30176-.49756-.56445s.23584-.52832.49561-.56445c1.99561-.2666,3.57373-1.84473,3.83984-3.8374.03516-.26074.30127-.49805.56445-.49805.26416,0,.53076.23828.56445.5.26611,1.99072,1.84424,3.56885,3.83789,3.83545.26025.03516.49756.30176.49756.56445s-.23584.52832-.49561.56445h-.00195c-1.99365.2666-3.57178,1.84473-3.83789,3.83691-.03516.26074-.30127.49805-.56445.49805ZM24.35352,9c1.16016.54688,2.09912,1.48633,2.64648,2.64648.54736-1.16016,1.48633-2.09863,2.64648-2.64648-1.16016-.54688-2.09912-1.48633-2.64648-2.64697-.54736,1.16064-1.48633,2.09912-2.64648,2.64697ZM31.26074,8.52344h0Z"/></svg>