<svg xmlns="http://www.w3.org/2000/svg" id="uuid-7cfd3db8-940d-43fe-bfd6-6ed9e98c7323" viewBox="0 0 38 38">
  <defs>
    <style>.uuid-e1d97633-c3f6-4fee-aced-8229d9342586{fill:#ed0000;}.uuid-a4a5240e-8d89-462c-8400-2331b7ab911a{fill:#fff;}.uuid-dc36d79a-611a-46d8-89bc-20ff7810560c{fill:#4d4d4d;}</style>
  </defs>
  <rect x="1" y="1" width="36" height="36" rx="9" ry="9"/>
  <path class="uuid-dc36d79a-611a-46d8-89bc-20ff7810560c" d="m28,2.25c4.27338,0,7.75,3.47664,7.75,7.75v18c0,4.27336-3.47662,7.75-7.75,7.75H10c-4.27338,0-7.75-3.47664-7.75-7.75V10c0-4.27336,3.47662-7.75,7.75-7.75h18m0-1.25H10C5.02942,1,1,5.02943,1,10v18c0,4.97057,4.02942,9,9,9h18c4.97058,0,9-4.02943,9-9V10c0-4.97057-4.02942-9-9-9h0Z"/>
  <path class="uuid-a4a5240e-8d89-462c-8400-2331b7ab911a" d="m27,14.375c-.34473,0-.625.28027-.625.625v9.29883h-14.75v-8.75h5.375c.34473,0,.625-.28027.625-.625s-.28027-.625-.625-.625h-6c-.34473,0-.625.28027-.625.625v10c0,.34473.28027.625.625.625h6.375v1.82617h-1.375c-.34473,0-.625.28027-.625.625s.28027.625.625.625h7c.34473,0,.625-.28027.625-.625s-.28027-.625-.625-.625h-1.48047v-1.82617h5.48047c.34473,0,.625-.28027.625-.625v-9.92383c0-.34473-.28027-.625-.625-.625Zm-8.375,13v-1.75h1.64453v1.75h-1.64453Z"/>
  <path class="uuid-e1d97633-c3f6-4fee-aced-8229d9342586" d="m20.23633,18.36035l1.99121-.77832c.12012-.04688.22363-.12988.29395-.23828l4-6.06836c.10059-.15137.12891-.33887.08008-.51367-.0498-.1748-.17285-.32031-.33789-.39648l-2-.93164c-.28027-.13281-.61523-.03613-.78613.22266l-3.99121,6.06641c-.06641.10254-.10254.22168-.10254.34375v1.29846l-4.62793,2.08337c-.22559.10254-.37012.32812-.36816.57617s.15137.4707.37891.56836l4.62402,1.98145c.07812.03418.16211.05078.24609.05078s.16797-.0166.24609-.05078l4.62402-1.98145c.23145-.09863.37988-.32617.37891-.57812-.00098-.25098-.15332-.47656-.38574-.57324l-2.4082-1c-.31836-.13184-.68457.01758-.81641.33789-.13281.31836.01855.68457.33789.81641l1.03906.43164-3.01562,1.29297-3.07031-1.31543,3.64154-1.63916c.00928-.00317.01923-.00171.02838-.00537Zm.39746-2.10645l3.5918-5.45898.85352.39746-3.49121,5.29785-.9541.37305v-.60938Z"/>
</svg>
