<svg xmlns="http://www.w3.org/2000/svg" id="uuid-909b7357-27c6-4194-b285-85720c1345f6" viewBox="0 0 38 38" width="100%" height="100%">
  <defs>
    <style>.uuid-475a9b6a-db7c-43e5-8f35-b1e165ed679b{fill:#ed0000;}.uuid-c5e96bd4-faca-4063-8325-9926f5a28327{fill:#fff;}.uuid-a9ec3f57-16e4-400b-a288-cfaebcde2e74{fill:#4d4d4d;}</style>
  </defs>
  <rect x="1" y="1" width="36" height="36" rx="9" ry="9"/>
  <path class="uuid-a9ec3f57-16e4-400b-a288-cfaebcde2e74" d="m28,2.25c4.27338,0,7.75,3.47662,7.75,7.75v18c0,4.27338-3.47662,7.75-7.75,7.75H10c-4.27338,0-7.75-3.47662-7.75-7.75V10c0-4.27338,3.47662-7.75,7.75-7.75h18m0-1.25H10C5.02942,1,1,5.02942,1,10v18c0,4.97058,4.02942,9,9,9h18c4.97058,0,9-4.02942,9-9V10c0-4.97058-4.02942-9-9-9h0Z"/>
  <path class="uuid-475a9b6a-db7c-43e5-8f35-b1e165ed679b" d="m28,27.625h-8c-.34473,0-.625-.28027-.625-.625v-8c0-.34473.28027-.625.625-.625h8c.34473,0,.625.28027.625.625v8c0,.34473-.28027.625-.625.625Zm-7.375-1.25h6.75v-6.75h-6.75v6.75Z"/>
  <path class="uuid-c5e96bd4-faca-4063-8325-9926f5a28327" d="m17,23.625h-4c-2.5498,0-4.625-2.0752-4.625-4.625,0-2.52441,2.03223-4.58203,4.54688-4.62402,1.04102-2.41211,3.42578-4.00098,6.07812-4.00098,3.25,0,5.99707,2.32227,6.5332,5.52148.05762.34082-.17285.66309-.5127.71973-.3418.06055-.66309-.17188-.71973-.5127-.43457-2.59473-2.66406-4.47852-5.30078-4.47852-2.2832,0-4.32227,1.45215-5.07324,3.61426-.09375.26953-.36133.44043-.64453.41797l-.15625-.01855c-.04199-.00586-.08301-.01367-.12598-.01367-1.86133,0-3.375,1.51367-3.375,3.375s1.51367,3.375,3.375,3.375h4c.34473,0,.625.28027.625.625s-.28027.625-.625.625Z"/>
  <path class="uuid-475a9b6a-db7c-43e5-8f35-b1e165ed679b" d="m26,21.62012c-.16992,0-.33008-.06055-.44043-.18066-.12012-.12012-.18945-.2793-.18945-.43945s.06934-.32031.18945-.44043c.06055-.05957.12012-.10938.2002-.13965.15039-.06055.32031-.06055.48047,0,.0791.03027.14941.08008.19922.13965.12012.12012.19043.28027.19043.44043s-.07031.31934-.19043.43945c-.05957.06055-.12012.11035-.19922.14062-.08008.0293-.16016.04004-.24023.04004Z"/>
  <path class="uuid-475a9b6a-db7c-43e5-8f35-b1e165ed679b" d="m24,21.62988c-.08008,0-.16016-.02051-.24023-.0498-.07031-.03027-.13965-.08008-.2002-.14062-.05957-.0498-.10938-.12988-.13965-.19922-.03027-.08008-.0498-.16016-.0498-.24023s.01953-.16016.0498-.24023c.03027-.07031.08008-.15039.13965-.2002.06055-.05957.12988-.09961.2002-.13965.23047-.08984.50977-.03027.67969.13965.06055.0498.11035.12988.14062.2002.0293.08008.0498.16016.0498.24023s-.02051.16016-.0498.24023c-.03027.06934-.08008.14941-.14062.19922-.10938.12012-.2793.19043-.43945.19043Z"/>
</svg>
