<svg xmlns="http://www.w3.org/2000/svg" viewBox="0 0 38 38" width="100%" height="100%" preserveAspectRatio="xMidYMid meet">
<desc>background:light</desc>
  <defs>
    <style>.cls-1,.cls-2,.cls-3,.cls-4{stroke-width:0px;}.cls-2{fill:#4d4d4d;}.cls-3{fill:#fff;}.cls-4{fill:#e00;}</style>
  </defs>
  <g id="Bounding_shape">
    <rect class="cls-1" x="1" y="1" width="36" height="36" rx="9" ry="9"/>
    <path class="cls-2" d="M28,2.25c4.27,0,7.75,3.48,7.75,7.75v18c0,4.27-3.48,7.75-7.75,7.75H10c-4.27,0-7.75-3.48-7.75-7.75V10c0-4.27,3.48-7.75,7.75-7.75h18M28,1H10C5.03,1,1,5.03,1,10v18c0,4.97,4.03,9,9,9h18c4.97,0,9-4.03,9-9V10c0-4.97-4.03-9-9-9h0Z"/>
  </g>
  <g id="Icons">
    <path class="cls-4" d="M22.44,21.56l-1-1c-.24-.24-.64-.24-.88,0-.24.24-.24.64,0,.88l1,1c.12.12.28.18.44.18s.32-.06.44-.18c.24-.24.24-.64,0-.88Z"/>
    <path class="cls-4" d="M16.44,15.56c-.24-.24-.64-.24-.88,0-.24.24-.24.64,0,.88l1,1c.12.12.28.18.44.18s.32-.06.44-.18c.24-.24.24-.64,0-.88l-1-1Z"/>
    <path class="cls-3" d="M14,17.63c.16,0,.32-.06.44-.18l3-3c.24-.24.24-.64,0-.88l-4-4c-.24-.24-.64-.24-.88,0l-3,3c-.24.24-.24.64,0,.88l4,4c.12.12.28.18.44.18ZM13,10.88l3.12,3.12-2.12,2.12-3.12-3.12,2.12-2.12Z"/>
    <path class="cls-3" d="M28.44,24.56l-4-4c-.24-.24-.64-.24-.88,0l-3,3c-.24.24-.24.64,0,.88l4,4c.12.12.28.18.44.18s.32-.06.44-.18l3-3c.24-.24.24-.64,0-.88ZM25,27.12l-3.12-3.12,2.12-2.12,3.12,3.12-2.12,2.12Z"/>
    <path class="cls-3" d="M26.44,14.56l-3-3c-.24-.24-.64-.24-.88,0l-9,9c-.24.24-.24.64,0,.88l3,3c.12.12.28.18.44.18s.32-.06.44-.18l9-9c.24-.24.24-.64,0-.88ZM17,23.12l-2.12-2.12,8.12-8.12,2.12,2.12-8.12,8.12Z"/>
    <path class="cls-4" d="M28.44,12.56l-3-3c-.24-.24-.64-.24-.88,0-.24.24-.24.64,0,.88l3,3c.12.12.28.18.44.18s.32-.06.44-.18c.24-.24.24-.64,0-.88Z"/>
    <path class="cls-4" d="M15.56,22.44c-1.37-1.37-3.76-1.37-5.13,0-.24.24-.24.64,0,.88l1.68,1.68-1.56,1.56c-.24.24-.24.64,0,.88.12.12.28.18.44.18s.32-.06.44-.18l1.56-1.56,1.68,1.68c.12.12.28.18.44.18s.32-.06.44-.18c.69-.68,1.06-1.59,1.06-2.56s-.38-1.88-1.06-2.56ZM15.06,26.18l-1.62-1.62s0,0,0,0c0,0,0,0,0,0l-1.62-1.62c.89-.51,2.11-.36,2.86.38.45.45.7,1.04.7,1.68,0,.42-.11.82-.31,1.18Z"/>
  </g>
</svg>
