<svg xmlns="http://www.w3.org/2000/svg" id="uuid-a3de8ae8-4c85-41c2-837c-a633e47aaf49" viewBox="0 0 38 38">
  <defs>
    <style>.uuid-d1d7f842-6446-4e89-9c59-7d7cc4a4bb10{fill:#e00;}.uuid-86065e89-0c79-4f7d-b10e-70c76011f9c1{fill:#fff;}.uuid-3bf11ad6-b5e8-435e-ad4f-cf1549b9118e{fill:#e0e0e0;}</style>
  </defs>
  <rect class="uuid-86065e89-0c79-4f7d-b10e-70c76011f9c1" x="1" y="1" width="36" height="36" rx="9" ry="9"/>
  <path class="uuid-3bf11ad6-b5e8-435e-ad4f-cf1549b9118e" d="m28,2.25c4.27332,0,7.75,3.47668,7.75,7.75v18c0,4.27332-3.47668,7.75-7.75,7.75H10c-4.27332,0-7.75-3.47668-7.75-7.75V10c0-4.27332,3.47668-7.75,7.75-7.75h18m0-1.25H10C5.02942,1,1,5.02942,1,10v18c0,4.97058,4.02942,9,9,9h18c4.97058,0,9-4.02942,9-9V10c0-4.97058-4.02942-9-9-9h0Z"/>
  <path class="uuid-d1d7f842-6446-4e89-9c59-7d7cc4a4bb10" d="m27.65137,12.65723l-1.1875-1.1543c-.24219-.23633-.62891-.23633-.87109,0l-4.7616,4.62842c-.00061.00073-.00146.00085-.00208.00146-.00049.00049-.00049.00122-.00098.00171l-4.73633,4.60376c-.24805.24023-.25293.63672-.0127.88379.12305.12598.28516.18945.44824.18945.15723,0,.31445-.05859.43555-.17676l4.31506-4.19421,1.93982,1.88562c.12109.11816.27832.17676.43555.17676.16309,0,.3252-.06348.44824-.18945.24023-.24707.23535-.64355-.0127-.88379l-1.91418-1.86072,1.47888-1.43738,1.93921,1.88501c.12109.11816.27832.17676.43555.17676.16309,0,.3252-.06348.44824-.18945.24023-.24707.23535-.64355-.0127-.88379l-1.91357-1.86011,1.47803-1.43677.75195.73047c.24707.24023.64258.23535.88379-.0127.24023-.24707.23535-.64355-.0127-.88379Z"/>
  <path d="m14.22852,27.35742c-.99219,0-1.98438-.37695-2.73926-1.13184-1.51172-1.51172-1.51172-3.96973-.00098-5.48145,1.5127-1.50977,3.9707-1.50879,5.48145,0v.00098c1.50977,1.51074,1.50977,3.96875,0,5.47949-.75586.75586-1.74805,1.13281-2.74121,1.13281Zm.00098-6.49707c-.67285,0-1.34473.25586-1.85645.76855-1.02441,1.02344-1.02441,2.68848,0,3.71191,1.02441,1.02441,2.68848,1.02246,3.71289,0,1.02246-1.02344,1.02246-2.68848-.00098-3.71289-.51172-.51172-1.18359-.76758-1.85547-.76758Z"/>
</svg>
