<svg xmlns="http://www.w3.org/2000/svg" id="uuid-0d793a03-fc60-4b5c-9470-514d99efbf87" viewBox="0 0 38 38">
  <defs>
    <style> .uuid-6783b8f1-3340-4b95-b47b-be491d902680 { fill: #e00; } .uuid-f84a3fc3-c473-4734-877b-54d769d15b04 { fill: #fff; } .uuid-df5fc6ae-4b6b-4ae1-854b-251108ec99a5 { fill: #4d4d4d; } </style>
  </defs>
  <rect x="1" y="1" width="36" height="36" rx="9" ry="9"/>
  <path class="uuid-df5fc6ae-4b6b-4ae1-854b-251108ec99a5" d="m28,2.25c4.27338,0,7.75,3.47664,7.75,7.75v18c0,4.27336-3.47662,7.75-7.75,7.75H10c-4.27338,0-7.75-3.47664-7.75-7.75V10c0-4.27336,3.47662-7.75,7.75-7.75h18m0-1.25H10C5.02942,1,1,5.02943,1,10v18c0,4.97057,4.02942,9,9,9h18c4.97058,0,9-4.02943,9-9V10c0-4.97057-4.02942-9-9-9h0Z"/>
  <path class="uuid-6783b8f1-3340-4b95-b47b-be491d902680" d="m25.5,22.875c-.95294,0-1.75159.6344-2.02039,1.5h-1.85461v-2.375c0-.34521-.28027-.625-.625-.625s-.625.27979-.625.625v3c0,.34521.28027.625.625.625h2.47961c.2688.8656,1.0675,1.5,2.02039,1.5,1.17188,0,2.125-.95312,2.125-2.125s-.95312-2.125-2.125-2.125Zm0,3c-.48242,0-.875-.39258-.875-.875s.39258-.875.875-.875.875.39258.875.875-.39258.875-.875.875Z"/>
  <path class="uuid-6783b8f1-3340-4b95-b47b-be491d902680" d="m21,16.625c.34473,0,.625-.27979.625-.625v-2.375h1.91443c.32098.76703,1.07837,1.30762,1.96057,1.30762,1.17188,0,2.125-.95312,2.125-2.125s-.95312-2.125-2.125-2.125c-1.02362,0-1.87982.72736-2.0802,1.69238h-2.4198c-.34473,0-.625.27979-.625.625v3c0,.34521.28027.625.625.625Zm4.5-4.69238c.48242,0,.875.39258.875.875s-.39258.875-.875.875-.875-.39258-.875-.875.39258-.875.875-.875Z"/>
  <path class="uuid-6783b8f1-3340-4b95-b47b-be491d902680" d="m29,16.83643h-3c-.34473,0-.625.27979-.625.625v.91357h-2.375c-.34473,0-.625.27979-.625.625s.28027.625.625.625h2.375v.83643c0,.34521.28027.625.625.625h3c.34473,0,.625-.27979.625-.625v-3c0-.34521-.28027-.625-.625-.625Zm-.625,3h-1.75v-1.75h1.75v1.75Z"/>
  <path class="uuid-6783b8f1-3340-4b95-b47b-be491d902680" d="m12.625,20.46143v-.83643h2.375c.34473,0,.625-.27979.625-.625s-.28027-.625-.625-.625h-2.375v-.91357c0-.34521-.28027-.625-.625-.625h-3c-.34473,0-.625.27979-.625.625v3c0,.34521.28027.625.625.625h3c.34473,0,.625-.27979.625-.625Zm-1.25-.625h-1.75v-1.75h1.75v1.75Z"/>
  <path class="uuid-6783b8f1-3340-4b95-b47b-be491d902680" d="m17,21.375c-.34473,0-.625.27979-.625.625v2.375h-1.85455c-.2688-.8656-1.0675-1.5-2.02045-1.5-1.17188,0-2.125.95312-2.125,2.125s.95312,2.125,2.125,2.125c.95288,0,1.75165-.6344,2.02045-1.5h2.47955c.34473,0,.625-.27979.625-.625v-3c0-.34521-.28027-.625-.625-.625Zm-4.5,4.5c-.48242,0-.875-.39258-.875-.875s.39258-.875.875-.875.875.39258.875.875-.39258.875-.875.875Z"/>
  <path class="uuid-6783b8f1-3340-4b95-b47b-be491d902680" d="m17,12.375h-2.41974c-.20038-.96503-1.05664-1.69238-2.08026-1.69238-1.17188,0-2.125.95312-2.125,2.125s.95312,2.125,2.125,2.125c.8822,0,1.63959-.54059,1.96057-1.30762h1.91443v2.375c0,.34521.28027.625.625.625s.625-.27979.625-.625v-3c0-.34521-.28027-.625-.625-.625Zm-4.5,1.30762c-.48242,0-.875-.39258-.875-.875s.39258-.875.875-.875.875.39258.875.875-.39258.875-.875.875Z"/>
  <path class="uuid-f84a3fc3-c473-4734-877b-54d769d15b04" d="m19,23.125c-2.27441,0-4.125-1.85059-4.125-4.125s1.85059-4.125,4.125-4.125,4.125,1.85059,4.125,4.125-1.85059,4.125-4.125,4.125Zm0-7c-1.58496,0-2.875,1.28955-2.875,2.875s1.29004,2.875,2.875,2.875,2.875-1.28955,2.875-2.875-1.29004-2.875-2.875-2.875Z"/>
</svg>
