<svg xmlns="http://www.w3.org/2000/svg" width="38" height="38" viewBox="0 0 38 38" width="100%" height="100%">
<desc>background:light</desc>
  <g id="uuid-046a7832-6925-4803-9782-f23c4ab2f3ea">
    <rect x="1" y="1" width="36" height="36" rx="9" ry="9" stroke-width="0"/>
    <path d="m28,2.25c4.27336,0,7.75,3.47664,7.75,7.75v18c0,4.27336-3.47664,7.75-7.75,7.75H10c-4.27336,0-7.75-3.47664-7.75-7.75V10c0-4.27336,3.47664-7.75,7.75-7.75h18m0-1.25H10C5.02944,1,1,5.02943,1,10v18c0,4.97057,4.02944,9,9,9h18c4.97057,0,9-4.02943,9-9V10c0-4.97057-4.02943-9-9-9h0Z" fill="#4d4d4d" stroke-width="0"/>
  </g>
  <g id="uuid-301afa73-9371-4634-802f-c47250fc09c0">
    <path d="m17,14.375h-.375v-.875c0-1.72314-1.40234-3.125-3.125-3.125s-3.125,1.40186-3.125,3.125v.875h-.375c-.34473,0-.625.27979-.625.625v7c0,.34521.28027.625.625.625h7c.34473,0,.625-.27979.625-.625v-7c0-.34521-.28027-.625-.625-.625Zm-5.375-.875c0-1.03369.84082-1.875,1.875-1.875s1.875.84131,1.875,1.875v.875h-3.75v-.875Zm4.75,7.875h-5.75v-5.75h5.75v5.75Z" fill="#e00" stroke-width="0"/>
    <path d="m29,24.375H9c-.34473,0-.625.27979-.625.625s.28027.625.625.625h20c.34473,0,.625-.27979.625-.625s-.28027-.625-.625-.625Z" fill="#fff" stroke-width="0"/>
    <path d="m20,22.625c.08594,0,.17285-.01758.25391-.0542l3.59033-1.59827c.00049-.00024.00104-.00043.00153-.00067l.01361-.00604c.02795-.01239.04657-.0351.07172-.0509.03986-.0249.08301-.04425.11676-.078l4.39453-4.39502c.24316-.24414.24316-.63965,0-.88379-.24414-.24414-.64062-.24414-.88477,0l-3.95215,3.95312-1.11621-1.11621,5.95312-5.95312c.24316-.24414.24316-.63965,0-.88379-.24414-.24414-.64062-.24414-.88477,0l-6.39453,6.39502c-.02783.02795-.04114.06323-.06262.09467-.02179.03143-.05017.0567-.06628.09283l-1.60547,3.60498c-.10449.23633-.05371.51318.12891.69629.12012.11963.28027.18311.44238.18311Zm1.80652-3.14465l.71375.71375-1.28687.57251.57312-1.28625Z" fill="#fff" stroke-width="0"/>
  </g>
</svg>
