<svg xmlns="http://www.w3.org/2000/svg" width="22" height="20" fill="none">
  <path d="M4.145 12.704a.562.562 0 1 0-.224-1.103 4.057 4.057 0 0 0-3.238 3.964 4.048 4.048 0 0 0 8.058.558h6.675a1.948 1.948 0 0 0 3.819-.558 1.958 1.958 0 0 0-1.952-1.951h-.125v.01a1.949 1.949 0 0 0-1.742 1.391H8.22a.555.555 0 0 0-.557.557 2.928 2.928 0 1 1-3.518-2.868Zm13.138 3.706a.84.84 0 0 1-.837-.838.84.84 0 0 1 .837-.837.84.84 0 0 1 .837.837.84.84 0 0 1-.837.838Z" fill="#06C" stroke="#06C" stroke-width=".25"/>
  <path d="M12.994.9V.898A4.05 4.05 0 0 0 9.921.525 4.004 4.004 0 0 0 7.483 2.43a4.023 4.023 0 0 0-.374 3.072 4.018 4.018 0 0 0 1.45 2.114l-3.42 6.054c-.13-.03-.265-.05-.406-.05-1.08 0-1.951.879-1.951 1.951 0 1.073.878 1.952 1.951 1.952a1.958 1.958 0 0 0 1.952-1.952c0-.53-.216-1.016-.568-1.368l3.661-6.476a.56.56 0 0 0-.214-.763A2.894 2.894 0 0 1 8.187 5.2a2.888 2.888 0 0 1 .273-2.22h.001a2.875 2.875 0 0 1 1.764-1.377 2.889 2.889 0 0 1 2.22.273A2.933 2.933 0 0 1 13.79 5.32a.56.56 0 0 0 .358.709h.003a.566.566 0 0 0 .706-.358v-.001a4.06 4.06 0 0 0-1.863-4.77Zm-8.26 15.51a.84.84 0 0 1-.838-.838.84.84 0 0 1 .837-.837.84.84 0 0 1 .838.837.84.84 0 0 1-.838.838Z" fill="#06C" stroke="#06C" stroke-width=".25"/>
  <path d="M20.815 13.616a4.053 4.053 0 0 0-4.997-1.812l-3.406-6.033a1.953 1.953 0 0 0-1.404-3.305 1.958 1.958 0 0 0-1.952 1.951c0 1.073.879 1.952 1.952 1.952.15 0 .292-.02.428-.054l3.66 6.481.013.023.02.015.002.002.006.004a.5.5 0 0 0 .138.138l.003.002c.02.013.054.036.1.049l.014.005c.032.01.072.024.122.032.011.006.039.017.074.017H15.61c.078 0 .171-.017.252-.066a2.93 2.93 0 0 1 3.976 1.138 2.931 2.931 0 0 1-1.144 3.978 2.946 2.946 0 0 1-3.644-.655.558.558 0 0 0-.79-.062.564.564 0 0 0-.063.789 4.054 4.054 0 0 0 5.037.914 4.052 4.052 0 0 0 1.672-5.318h.013l-.103-.185ZM10.171 4.424a.84.84 0 0 1 .837-.837.84.84 0 0 1 .837.837.84.84 0 0 1-.837.837.84.84 0 0 1-.837-.837Z" fill="#06C" stroke="#06C" stroke-width=".25"/>
</svg>
