<?xml version="1.0" encoding="UTF-8"?>
<svg width="48px" height="48px" viewBox="0 0 48 48" version="1.1" xmlns="http://www.w3.org/2000/svg" xmlns:xlink="http://www.w3.org/1999/xlink">
    <title>Extra icons / Product + service icons /4. 48px size/ 16. Trusted Artifact Signer Copy@2x</title>
    <g id="Extra-icons-/-Product-+-service-icons-/4.-48px-size/-16.-Trusted-Artifact-Signer-Copy" stroke="none" stroke-width="1" fill="none" fill-rule="evenodd">
        <path d="M36,1 C39.0375661,1 41.7875661,2.23121694 43.7781746,4.22182541 C45.7687831,6.21243388 47,8.96243388 47,12 L47,36 C47,39.0375661 45.7687831,41.7875661 43.7781746,43.7781746 C41.7875661,45.7687831 39.0375661,47 36,47 L12,47 C8.96243388,47 6.21243388,45.7687831 4.22182541,43.7781746 C2.23121694,41.7875661 1,39.0375661 1,36 L1,12 C1,8.96243388 2.23121694,6.21243388 4.22182541,4.22182541 C6.21243388,2.23121694 8.96243388,1 12,1 L36,1 Z" id="Path" stroke="#4D4D4D" stroke-width="2" fill="#000000" fill-rule="nonzero"></path>
        <g id="Group-9" transform="translate(12.5, 9.5)">
            <path d="M13.9685948,0 C15.7783686,0 17.1997645,1.53244245 17.1997645,3.37097985 L17.1997645,24.6312874 L14.990695,23.2419898 L8.59865604,19.2222778 L2.20906945,23.2419898 L0,24.6312874 L0,3.37097985 C0,1.53244245 1.4213959,0 3.23116962,0 L13.9685948,0 Z M13.9685948,1.44159876 L3.23116962,1.44159876 C2.24280455,1.44159876 1.44159876,2.30539875 1.44159876,3.37097985 L1.44159876,22.0216637 L8.59988223,17.5197745 L15.7581657,22.0216637 L15.7581657,3.37097985 C15.7581657,2.30539875 14.9569599,1.44159876 13.9685948,1.44159876 Z" id="Path-Copy" fill="#FFFFFF" fill-rule="nonzero"></path>
            <path d="M20.2320929,6.81031136 L9.49466766,6.81031136 C8.50630259,6.81031136 7.7050968,7.67411135 7.7050968,8.73969245 L7.7050968,27.3903764 L14.8633803,22.8884871 L22.0216637,27.3903764 L22.0216637,8.73969245 C22.0216637,7.67411135 21.220458,6.81031136 20.2320929,6.81031136 Z" id="Path" fill="#000000"></path>
            <path d="M20.2320929,5.36871261 C22.0418666,5.36871261 23.4632625,6.90115506 23.4632625,8.73969245 L23.4632625,30 L21.2541931,28.6107024 L14.8621541,24.5909904 L8.47256749,28.6107024 L6.26349804,30 L6.26349804,8.73969245 C6.26349804,6.90115506 7.68489394,5.36871261 9.49466766,5.36871261 L20.2320929,5.36871261 Z M20.2320929,6.81031136 L9.49466766,6.81031136 C8.50630259,6.81031136 7.7050968,7.67411135 7.7050968,8.73969245 L7.7050968,27.3903764 L14.8633803,22.8884871 L22.0216637,27.3903764 L22.0216637,8.73969245 C22.0216637,7.67411135 21.220458,6.81031136 20.2320929,6.81031136 Z" id="Path" fill="#EE0000" fill-rule="nonzero"></path>
        </g>
    </g>
</svg>