<svg width="48" height="48" viewBox="0 0 48 48" fill="none" xmlns="http://www.w3.org/2000/svg">
<path d="M36 0H12C5.37258 0 0 5.37258 0 12V36C0 42.6274 5.37258 48 12 48H36C42.6274 48 48 42.6274 48 36V12C48 5.37258 42.6274 0 36 0Z" fill="white"/>
<path fill-rule="evenodd" clip-rule="evenodd" d="M36 2H12C6.47715 2 2 6.47715 2 12V36C2 41.5228 6.47715 46 12 46H36C41.5228 46 46 41.5228 46 36V12C46 6.47715 41.5228 2 36 2ZM12 0H36C42.6274 0 48 5.37258 48 12V36C48 42.6274 42.6274 48 36 48H12C5.37258 48 0 42.6274 0 36V12C0 5.37258 5.37258 0 12 0Z" fill="black"/>
<path d="M26.5759 8C28.4644 8 29.9476 9.59907 29.9476 11.5175V33.7022L27.6425 32.2525L20.9725 28.058L14.3051 32.2525L12 33.7022V11.5175C12 9.59907 13.4832 8 15.3717 8H26.5759ZM26.5759 9.50428H15.3717C14.3403 9.50428 13.5043 10.4056 13.5043 11.5175V30.9791L20.9738 26.2815L28.4433 30.9791V11.5175C28.4433 10.4056 27.6073 9.50428 26.5759 9.50428Z" fill="#151515"/>
<path fill-rule="evenodd" clip-rule="evenodd" d="M33.1117 15.1063H21.9074C20.8761 15.1063 20.0401 16.0077 20.0401 17.1196V36.5812L27.5096 31.8836L34.9791 36.5812V17.1196C34.9791 16.0077 34.1431 15.1063 33.1117 15.1063Z" fill="white"/>
<path d="M33.1119 13.602C35.0004 13.602 36.4836 15.2011 36.4836 17.1196V39.3042L34.1785 37.8545L27.5085 33.66L20.8411 37.8545L18.536 39.3042V17.1196C18.536 15.2011 20.0192 13.602 21.9077 13.602H33.1119ZM33.1119 15.1063H21.9077C20.8763 15.1063 20.0403 16.0077 20.0403 17.1196V36.5811L27.5098 31.8835L34.9793 36.5811V17.1196C34.9793 16.0077 34.1433 15.1063 33.1119 15.1063Z" fill="#EE0000"/>
</svg>
