<svg width="54" height="54" viewBox="0 0 54 54" fill="none" xmlns="http://www.w3.org/2000/svg">
<path d="M14.2106 2.29602H39.7896C46.3698 2.29602 51.704 7.63026 51.704 14.2105V39.7894C51.704 46.3697 46.3698 51.7039 39.7896 51.7039H14.2106C7.63038 51.7039 2.29614 46.3697 2.29614 39.7894V14.2105C2.29614 7.63026 7.63038 2.29602 14.2106 2.29602Z" fill="black" stroke="#4D4D4D" stroke-width="1.75"/>
<path d="M36.8448 26.4671C36.4103 26.4671 36.0302 26.1479 35.9663 25.7045C35.4014 21.7529 32.2471 18.5979 28.2948 18.0324C27.8091 17.9631 27.4719 17.5135 27.5413 17.0277C27.612 16.542 28.0575 16.2027 28.5474 16.2742C33.2754 16.9507 37.0487 20.7246 37.7259 25.4534C37.7953 25.9392 37.4581 26.3888 36.9724 26.4581C36.9293 26.4644 36.8864 26.4671 36.8448 26.4671Z" fill="white"/>
<path d="M28.4195 43.4559C27.9658 43.4559 27.5785 43.1091 27.5369 42.6476C27.4926 42.1591 27.8534 41.7275 28.3418 41.6832C35.9814 40.9948 41.7433 34.6819 41.7433 27.0002C41.7433 19.3184 35.9814 13.0055 28.3418 12.3171C27.8532 12.2728 27.4924 11.8411 27.5369 11.3527C27.5812 10.8628 28.0532 10.5151 28.5 10.5478C37.0624 11.3194 43.5195 18.3927 43.5195 27.0002C43.5195 35.6076 37.0624 42.681 28.5 43.4525C28.4735 43.4547 28.4458 43.4559 28.4195 43.4559Z" fill="white"/>
<path d="M27.0001 37.8355C21.0251 37.8355 16.1646 32.975 16.1646 27C16.1646 21.6426 20.1579 17.0319 25.4534 16.274C25.9295 16.2033 26.3887 16.5405 26.4581 17.0276C26.5274 17.5133 26.1902 17.963 25.7045 18.0323C21.2784 18.6658 17.9407 22.521 17.9407 26.9999C17.9407 31.995 22.0048 36.0591 26.9999 36.0591C31.4782 36.0591 35.3334 32.7216 35.9662 28.2953C36.037 27.8096 36.4825 27.4758 36.9723 27.5417C37.458 27.611 37.7952 28.0607 37.7259 28.5464C36.9682 33.8421 32.3569 37.8355 27.0001 37.8355Z" fill="#EE0000"/>
<path d="M25.5797 43.4559C25.5533 43.4559 25.5263 43.4545 25.4993 43.4525C16.9369 42.6809 10.4805 35.6076 10.4805 27.0001C10.4805 18.3927 16.937 11.3193 25.4993 10.5478C25.9968 10.5131 26.4194 10.8648 26.4638 11.3527C26.5075 11.8412 26.1473 12.2728 25.6589 12.3171C18.0186 13.0055 12.2566 19.3184 12.2566 27.0001C12.2566 34.6819 18.0186 40.9948 25.6589 41.6832C26.1474 41.7275 26.5075 42.1592 26.4638 42.6476C26.4221 43.1091 26.0343 43.4559 25.5797 43.4559Z" fill="#EE0000"/>
<path d="M25.5789 30.7303C25.3512 30.7303 25.1244 30.6436 24.9509 30.4701L22.1088 27.628C21.7619 27.2811 21.7619 26.7191 22.1088 26.372C22.4557 26.025 23.0177 26.0252 23.3647 26.372L25.5789 28.5862L30.6344 23.5299C30.9813 23.1831 31.5447 23.1831 31.8917 23.5299C32.2373 23.8768 32.2373 24.4388 31.8917 24.7859L26.2068 30.4701C26.0333 30.6436 25.8065 30.7303 25.5789 30.7303Z" fill="white"/>
</svg>
