<svg xmlns="http://www.w3.org/2000/svg" viewBox="-140 150 620 250" width="100%" height="100%" preserveAspectRatio="xMidYMid meet">
<desc>background:light</desc>
  <style type="text/css"> .st0{fill:#0066CC;} </style>
  <path class="st0" d="M16.3,215.1l36.3,74.1l-75.7,0.1L16.3,215.1z M-19.6,163.1l-112.3,224h59.4l28.8-60.3H69.7l26.9,60.3h108.6 l-107.4-224H-19.6z"/>
  <g>
    <path class="st0" d="M461.5,188.5c-10.5-29-40.7-25.2-40.7-25.2h-85c0,0-30.2-3.8-40.7,25.2c-10.5,29-7,158.6,0,172.1 c7,13.5,14.6,26.5,40.2,26.5h45.8h40.1c25.6,0,33.1-13,40.2-26.5C468.5,347.1,472,217.5,461.5,188.5 M403.1,338 c0,7.1-5.8,12.8-12.8,12.8h-23.8c-7.1,0-12.8-5.7-12.8-12.8V212.7c0-7,5.7-12.7,12.8-12.7h23.8c7.1,0,12.8,5.7,12.8,12.7V338z"/>
    <path class="st0" d="M269.7,387.1H206l0-146.9h-42.8c-0.3,0.6,0-39.8,0-39.8l68.8-37h37.9L269.7,387.1z"/>
  </g>
</svg>
