<svg xmlns="http://www.w3.org/2000/svg" id="Layer_1" x="0px" y="0px" viewBox="0 0 1175.2 408.3" style="enable-background:new 0 0 1175.2 408.3;">
  <style type="text/css">
	.st0{fill:#00FF5A;}
</style>
  <g>
    <g>
      <path class="st0" d="M50.2,233.4H6.7V58.8h43.4V233.4z M411.9,189.8H273.5c3,29.5,18.7,49.1,49.3,49.1c20.9,0,36.4-9.4,44.8-27.3    l42.1,12.8c-14.9,35.2-48.3,54.5-84.4,54.5c-59,0-97.6-41.4-97.6-98.8c0-65.3,41.2-103.1,95.1-103.1    C385.3,77,416.5,124.8,411.9,189.8z M368.6,157.6c-3.3-27.7-15.7-43.2-44-43.2c-28.3,0-44.9,14-50.1,43.2H368.6z M955.7,189.8    H817.4c3,29.5,18.7,49.1,49.3,49.1c20.9,0,36.4-9.4,44.8-27.3l42.1,12.8c-14.9,35.2-48.3,54.5-84.4,54.5    c-59,0-97.6-41.4-97.6-98.8c0-65.3,41.2-103.1,95.1-103.1C929.1,77,960.3,124.8,955.7,189.8z M912.4,157.6    c-3.3-27.7-15.7-43.2-44-43.2c-28.3,0-44.9,14-50.1,43.2H912.4z M431,273.6h42.7v-255H431V273.6z M504.7,273.6h42.6V82.4h-42.6    V273.6z M504.7,63.3h42.6V18.6h-42.6V63.3z M679,77c-25.1,0-46.1,9.7-62.5,31.1V82.4h-38.1v191.2h43.2v-98.2    c0-32.7,12.1-58.3,44.8-58.3c35.4,0,44.6,29.4,44.6,64.5v92h43.2V166.8C754.2,120.3,735.5,77,679,77z M1137.8,156.2v117.4h-37.4    v-25.8c-17.3,22.8-38.6,31.1-67.2,31.1c-41.2,0-64.1-26-64.1-57.7c0-29.4,15-47.6,43.6-57.2c24.9-7.9,56.4-11.5,83.2-15.5    c-1.8-24.1-15.1-32.2-39.1-32.2c-15.3,0-35.9,6.3-41.8,26.7l-39-12.2c4.8-16.1,13.7-29.1,27-38.9c13.3-9.8,31.2-14.7,53.7-14.7    c60.4,0,77.6,33.5,79.9,56.3C1137.4,140.3,1137.8,148,1137.8,156.2z M1095.4,183.4c-14.1,2.2-28.4,4.5-43.7,7.5    c-18.9,3.8-40.7,10.3-40.7,29.6c0,12.9,9.4,24.3,30.8,24.3c31.5,0,52-21.1,53.2-50.4C1095.2,190.4,1095.4,183.4,1095.4,183.4z     M1095.4,182.7C1095.4,182.4,1095.4,182.3,1095.4,182.7L1095.4,182.7z M1095.4,183.1l0-0.4L1095.4,183.1z M100.7,18.6H50.2v40.2    c0,0,22.6-0.1,37.9,0c12.3,0.1,19.4,0,28.1,1.9c37.4,7.1,51.6,47.1,51.6,85.4s-14.2,78.2-51.6,85.4c-8.6,1.9-15.8,1.9-28.1,1.9    c-15.4,0.1-37.9,0-37.9,0v40.2h50.5c82.7,0,112.2-67.8,112.2-127.5S183.4,18.6,100.7,18.6z"/>
    </g>
    <g>
      <path class="st0" d="M1153.5,273.6v-9.7h-3.8v-1.1h8.6v1.1h-3.8v9.7H1153.5z"/>
      <path class="st0" d="M1159.5,273.6v-10.8h1l4.2,9.1l4.2-9.1h1v10.8h-1v-8.3l-3.8,8.3h-0.7l-3.8-8.3v8.3H1159.5z"/>
    </g>
    <path class="st0" d="M1095.5,185.1C1095.5,184.8,1095.5,184.7,1095.5,185.1L1095.5,185.1z M1095.5,185.5l0-0.4L1095.5,185.5z"/>
  </g>
  <g>
    <path class="st0" d="M24.9,391.9c-3.2,0-6.1-0.6-8.7-1.7s-4.7-2.8-6.3-4.9c-1.7-2.1-2.7-4.6-3.1-7.6l8.5-1.3   c0.6,2.5,1.8,4.4,3.7,5.7c1.9,1.3,4,2,6.4,2c1.3,0,2.6-0.2,3.9-0.6s2.3-1,3.1-1.9c0.8-0.8,1.2-1.8,1.2-3c0-0.4-0.1-0.9-0.2-1.3   c-0.1-0.4-0.3-0.8-0.6-1.2s-0.7-0.7-1.3-1s-1.2-0.6-2.1-0.9l-11.2-3.3c-0.8-0.2-1.8-0.6-2.9-1c-1.1-0.4-2.2-1.1-3.2-1.9   c-1-0.8-1.9-1.9-2.6-3.3s-1-3.1-1-5.1c0-2.9,0.7-5.3,2.2-7.2c1.5-1.9,3.4-3.4,5.9-4.3c2.4-0.9,5.2-1.4,8.1-1.4c3,0,5.7,0.6,8,1.5   c2.3,1,4.3,2.4,5.9,4.3c1.6,1.9,2.7,4.2,3.4,6.9l-8.8,1.5c-0.3-1.4-0.9-2.6-1.8-3.5c-0.9-1-1.9-1.7-3.1-2.2   c-1.2-0.5-2.4-0.8-3.7-0.8c-1.3,0-2.5,0.1-3.6,0.5c-1.1,0.4-2.1,1-2.8,1.7c-0.7,0.7-1.1,1.6-1.1,2.6c0,0.9,0.3,1.7,0.9,2.3   c0.6,0.6,1.3,1.1,2.2,1.4c0.9,0.4,1.8,0.7,2.7,0.9l7.5,2c1.1,0.3,2.4,0.7,3.7,1.2c1.4,0.5,2.7,1.2,3.9,2c1.3,0.9,2.3,2,3.1,3.4   c0.8,1.4,1.2,3.2,1.2,5.4c0,2.3-0.5,4.4-1.5,6.1c-1,1.7-2.3,3.2-3.9,4.3c-1.6,1.1-3.5,2-5.6,2.5C29.3,391.7,27.1,391.9,24.9,391.9z   "/>
    <path class="st0" d="M63.4,391.9c-3.3,0-6.3-0.7-8.8-2.1c-2.5-1.4-4.5-3.4-6-5.9s-2.1-5.4-2.1-8.6c0-3.5,0.7-6.6,2.1-9.3   c1.4-2.6,3.3-4.7,5.8-6.1c2.5-1.5,5.3-2.2,8.5-2.2c3.4,0,6.3,0.8,8.7,2.4c2.4,1.6,4.1,3.9,5.3,6.8c1.1,2.9,1.5,6.3,1.2,10.3H70v-3   c0-3.3-0.5-5.7-1.6-7.1c-1.1-1.5-2.8-2.2-5.2-2.2c-2.8,0-4.8,0.8-6.1,2.5c-1.3,1.7-2,4.2-2,7.5c0,3,0.7,5.4,2,7   c1.3,1.7,3.2,2.5,5.8,2.5c1.6,0,3-0.4,4.1-1.1c1.1-0.7,2-1.7,2.6-3l8.2,2.3c-1.2,3-3.2,5.3-5.8,6.9   C69.4,391.1,66.5,391.9,63.4,391.9z M52.7,377.1V371h21.5v6.1H52.7z"/>
    <path class="st0" d="M98.6,391.9c-3.4,0-6.3-0.8-8.7-2.3c-2.4-1.5-4.2-3.5-5.5-6.1s-1.9-5.5-1.9-8.7c0-3.3,0.7-6.2,2-8.8   c1.3-2.6,3.2-4.6,5.6-6.1s5.3-2.2,8.6-2.2c3.8,0,7,1,9.6,2.9c2.6,1.9,4.3,4.6,5,7.9l-8.2,2.2c-0.5-1.7-1.3-3-2.5-3.9   c-1.2-0.9-2.5-1.4-4-1.4c-1.7,0-3.1,0.4-4.2,1.2c-1.1,0.8-1.9,2-2.4,3.4c-0.5,1.4-0.8,3.1-0.8,4.9c0,2.8,0.6,5.1,1.9,6.9   c1.3,1.8,3.1,2.6,5.6,2.6c1.8,0,3.2-0.4,4.2-1.3c1-0.8,1.7-2,2.2-3.6l8.4,1.7c-0.9,3.4-2.7,6.1-5.2,8   C105.5,391,102.4,391.9,98.6,391.9z"/>
    <path class="st0" d="M130.8,392c-2.5,0-4.6-0.4-6.2-1.3c-1.6-0.9-2.9-2-3.7-3.3c-0.9-1.3-1.5-2.7-1.9-4.1c-0.4-1.4-0.6-2.7-0.7-3.9   c-0.1-1.2-0.1-2-0.1-2.6v-18.2h8.3v15.3c0,0.7,0,1.7,0.1,2.8s0.3,2.3,0.8,3.5s1.1,2.1,2.1,2.9c1,0.8,2.3,1.2,4,1.2   c0.7,0,1.5-0.1,2.3-0.3c0.8-0.2,1.6-0.6,2.3-1.3c0.7-0.6,1.3-1.6,1.7-2.8c0.5-1.2,0.7-2.9,0.7-4.9l4.7,2.2c0,2.6-0.5,5-1.6,7.2   c-1,2.2-2.6,4.1-4.7,5.4C136.7,391.3,134,392,130.8,392z M141.3,391v-10.8h-1v-21.7h8.2V391H141.3z"/>
    <path class="st0" d="M156.4,391v-32.5h7.2v7.9l-0.8-1c0.4-1.1,1-2.1,1.7-3.1c0.7-0.9,1.6-1.7,2.6-2.3c0.8-0.5,1.6-0.9,2.6-1.1   c0.9-0.3,1.9-0.4,2.9-0.5c1-0.1,2,0,2.9,0.1v7.6c-0.9-0.3-1.9-0.4-3.1-0.3c-1.2,0.1-2.3,0.4-3.2,0.8c-1,0.4-1.8,1-2.4,1.8   c-0.7,0.7-1.2,1.6-1.5,2.6s-0.5,2.1-0.5,3.4V391H156.4z"/>
    <path class="st0" d="M181.2,354.1v-7.2h8.2v7.2H181.2z M181.2,391v-32.5h8.2V391H181.2z"/>
    <path class="st0" d="M197.7,391v-32.5h7.3v10.8h1V391H197.7z M219.9,391v-15.3c0-0.7,0-1.7-0.1-2.8c-0.1-1.2-0.3-2.3-0.8-3.5   s-1.1-2.1-2.1-2.9c-1-0.8-2.3-1.2-4-1.2c-0.7,0-1.5,0.1-2.3,0.3c-0.8,0.2-1.6,0.6-2.3,1.3c-0.7,0.6-1.3,1.6-1.7,2.8   c-0.5,1.2-0.7,2.8-0.7,4.9l-4.7-2.2c0-2.6,0.5-5,1.6-7.2c1-2.2,2.6-4.1,4.7-5.4c2.1-1.4,4.7-2.1,7.9-2.1c2.5,0,4.6,0.4,6.2,1.3   c1.6,0.9,2.9,2,3.7,3.3c0.9,1.3,1.5,2.7,1.9,4.1c0.4,1.4,0.6,2.7,0.7,3.9c0.1,1.2,0.1,2,0.1,2.6V391H219.9z"/>
    <path class="st0" d="M248.6,391.9c-3,0-5.6-0.8-7.8-2.3s-4-3.5-5.2-6.1c-1.3-2.6-1.9-5.5-1.9-8.7c0-3.3,0.6-6.2,1.9-8.8   s3.1-4.6,5.4-6.1s5-2.2,8.1-2.2c3.1,0,5.7,0.8,7.8,2.3c2.1,1.5,3.7,3.5,4.8,6.1c1.1,2.6,1.6,5.5,1.6,8.8c0,3.2-0.5,6.2-1.6,8.7   c-1.1,2.6-2.7,4.6-4.9,6.1C254.5,391.2,251.8,391.9,248.6,391.9z M249.3,406.4c-1.8,0-3.6-0.3-5.3-0.9c-1.7-0.6-3.2-1.4-4.5-2.5   c-1.3-1.1-2.4-2.3-3.2-3.7l7.6-3.7c0.5,1,1.3,1.7,2.2,2.2c1,0.5,2,0.8,3.2,0.8c1.2,0,2.4-0.2,3.5-0.6c1.1-0.4,1.9-1,2.6-1.8   c0.7-0.8,1-1.8,0.9-3v-9.4h1v-25.1h7.2v34.7c0,0.8,0,1.6-0.1,2.3c-0.1,0.7-0.2,1.4-0.4,2.1c-0.5,2-1.5,3.6-2.9,4.9   s-3.1,2.2-5.2,2.9C253.9,406.1,251.7,406.4,249.3,406.4z M249.9,384.7c1.8,0,3.3-0.4,4.4-1.2c1.1-0.8,1.9-2,2.4-3.5   c0.5-1.5,0.7-3.2,0.7-5.2s-0.2-3.7-0.7-5.2c-0.5-1.5-1.2-2.6-2.3-3.5c-1.1-0.8-2.4-1.2-4.1-1.2c-1.8,0-3.3,0.4-4.5,1.3   c-1.2,0.9-2,2.1-2.6,3.6c-0.6,1.5-0.8,3.1-0.8,4.9c0,1.8,0.3,3.5,0.8,5c0.5,1.5,1.4,2.7,2.5,3.6   C246.7,384.2,248.1,384.7,249.9,384.7z"/>
    <path class="st0" d="M284.3,354.1v-7.2h8.2v7.2H284.3z M284.3,391v-32.5h8.2V391H284.3z"/>
    <path class="st0" d="M314.1,391.9c-3,0-5.6-0.8-7.8-2.3s-4-3.5-5.2-6.1c-1.3-2.6-1.9-5.5-1.9-8.7c0-3.3,0.6-6.2,1.9-8.8   s3.1-4.6,5.4-6.1s5-2.2,8.1-2.2c3.1,0,5.7,0.8,7.8,2.3c2.1,1.5,3.7,3.5,4.8,6.1c1.1,2.6,1.6,5.5,1.6,8.8c0,3.2-0.5,6.2-1.6,8.7   c-1.1,2.6-2.7,4.6-4.9,6.1C320,391.2,317.3,391.9,314.1,391.9z M315.4,384.7c1.8,0,3.3-0.4,4.4-1.2c1.1-0.8,1.9-2,2.4-3.5   c0.5-1.5,0.7-3.2,0.7-5.2s-0.2-3.7-0.7-5.2c-0.5-1.5-1.2-2.6-2.3-3.5c-1.1-0.8-2.4-1.2-4.1-1.2c-1.8,0-3.3,0.4-4.5,1.3   c-1.2,0.9-2,2.1-2.6,3.6c-0.6,1.5-0.8,3.1-0.8,4.9c0,1.8,0.3,3.5,0.8,5c0.5,1.5,1.4,2.7,2.5,3.6   C312.2,384.2,313.7,384.7,315.4,384.7z M322.9,391v-22.2h-1v-21h8.2V391H322.9z"/>
    <path class="st0" d="M353,391.9c-3.3,0-6.3-0.7-8.8-2.1c-2.5-1.4-4.5-3.4-6-5.9s-2.1-5.4-2.1-8.6c0-3.5,0.7-6.6,2.1-9.3   c1.4-2.6,3.3-4.7,5.8-6.1c2.5-1.5,5.3-2.2,8.5-2.2c3.4,0,6.3,0.8,8.7,2.4c2.4,1.6,4.1,3.9,5.3,6.8c1.1,2.9,1.5,6.3,1.2,10.3h-8.1   v-3c0-3.3-0.5-5.7-1.6-7.1c-1.1-1.5-2.8-2.2-5.2-2.2c-2.8,0-4.8,0.8-6.1,2.5c-1.3,1.7-2,4.2-2,7.5c0,3,0.7,5.4,2,7   c1.3,1.7,3.2,2.5,5.8,2.5c1.6,0,3-0.4,4.1-1.1c1.1-0.7,2-1.7,2.6-3l8.2,2.3c-1.2,3-3.2,5.3-5.8,6.9   C359,391.1,356.1,391.9,353,391.9z M342.3,377.1V371h21.5v6.1H342.3z"/>
    <path class="st0" d="M372.9,391v-32.5h7.3v10.8h1V391H372.9z M395.1,391v-15.3c0-0.7,0-1.7-0.1-2.8c-0.1-1.2-0.3-2.3-0.8-3.5   s-1.1-2.1-2.1-2.9c-1-0.8-2.3-1.2-4-1.2c-0.7,0-1.5,0.1-2.3,0.3c-0.8,0.2-1.6,0.6-2.3,1.3c-0.7,0.6-1.3,1.6-1.7,2.8   c-0.5,1.2-0.7,2.8-0.7,4.9l-4.7-2.2c0-2.6,0.5-5,1.6-7.2c1-2.2,2.6-4.1,4.7-5.4c2.1-1.4,4.7-2.1,7.9-2.1c2.5,0,4.6,0.4,6.2,1.3   c1.6,0.9,2.9,2,3.7,3.3c0.9,1.3,1.5,2.7,1.9,4.1c0.4,1.4,0.6,2.7,0.7,3.9c0.1,1.2,0.1,2,0.1,2.6V391H395.1z"/>
    <path class="st0" d="M407,364.9v-6.3h23.1v6.3H407z M430.1,391c-2.2,0.4-4.4,0.6-6.6,0.6c-2.2-0.1-4.1-0.4-5.8-1.1   c-1.7-0.7-3-1.9-3.9-3.4c-0.8-1.5-1.2-3-1.3-4.5c0-1.5-0.1-3.3-0.1-5.2v-27.7h8.2v27.2c0,1.3,0,2.4,0,3.4c0,1,0.2,1.8,0.6,2.4   c0.7,1.1,1.9,1.8,3.5,1.9c1.6,0.1,3.3,0,5.3-0.2V391z"/>
    <path class="st0" d="M437.3,354.1v-7.2h8.2v7.2H437.3z M437.3,391v-32.5h8.2V391H437.3z"/>
    <path class="st0" d="M450.3,364.9v-6.3h23.1v6.3H450.3z M473.4,391c-2.2,0.4-4.4,0.6-6.6,0.6c-2.2-0.1-4.1-0.4-5.8-1.1   c-1.7-0.7-3-1.9-3.9-3.4c-0.8-1.5-1.2-3-1.3-4.5c0-1.5-0.1-3.3-0.1-5.2v-27.7h8.2v27.2c0,1.3,0,2.4,0,3.4c0,1,0.2,1.8,0.6,2.4   c0.7,1.1,1.9,1.8,3.5,1.9c1.6,0.1,3.3,0,5.3-0.2V391z"/>
    <path class="st0" d="M480.6,354.1v-7.2h8.2v7.2H480.6z M480.6,391v-32.5h8.2V391H480.6z"/>
    <path class="st0" d="M512.3,391.9c-3.3,0-6.3-0.7-8.8-2.1c-2.5-1.4-4.5-3.4-6-5.9s-2.1-5.4-2.1-8.6c0-3.5,0.7-6.6,2.1-9.3   c1.4-2.6,3.3-4.7,5.8-6.1c2.5-1.5,5.3-2.2,8.5-2.2c3.4,0,6.3,0.8,8.7,2.4c2.4,1.6,4.1,3.9,5.3,6.8c1.1,2.9,1.5,6.3,1.2,10.3h-8.1   v-3c0-3.3-0.5-5.7-1.6-7.1c-1.1-1.5-2.8-2.2-5.2-2.2c-2.8,0-4.8,0.8-6.1,2.5c-1.3,1.7-2,4.2-2,7.5c0,3,0.7,5.4,2,7   c1.3,1.7,3.2,2.5,5.8,2.5c1.6,0,3-0.4,4.1-1.1c1.1-0.7,2-1.7,2.6-3l8.2,2.3c-1.2,3-3.2,5.3-5.8,6.9   C518.3,391.1,515.4,391.9,512.3,391.9z M501.5,377.1V371h21.5v6.1H501.5z"/>
    <path class="st0" d="M545.9,391.9c-4.1,0-7.4-0.9-9.9-2.8c-2.5-1.9-4-4.5-4.6-7.9l8.4-1.3c0.3,1.5,1.1,2.7,2.3,3.6   c1.2,0.9,2.7,1.3,4.5,1.3c1.5,0,2.6-0.3,3.4-0.9s1.2-1.4,1.2-2.4c0-0.6-0.2-1.2-0.5-1.5c-0.3-0.4-1-0.8-2.1-1.2   c-1.1-0.4-2.8-0.9-5.2-1.5c-2.6-0.7-4.8-1.4-6.3-2.3c-1.6-0.8-2.7-1.8-3.4-3s-1.1-2.6-1.1-4.3c0-2.1,0.5-3.9,1.6-5.4   c1.1-1.5,2.6-2.7,4.5-3.5c1.9-0.8,4.2-1.2,6.8-1.2c2.5,0,4.8,0.4,6.8,1.2c2,0.8,3.6,1.9,4.8,3.3c1.2,1.4,2,3.1,2.2,5.1l-8.4,1.5   c-0.1-1.2-0.7-2.2-1.6-2.9c-0.9-0.7-2.1-1.1-3.7-1.2c-1.5-0.1-2.7,0.1-3.6,0.6c-0.9,0.5-1.4,1.2-1.4,2.2c0,0.6,0.2,1,0.6,1.4   s1.2,0.8,2.4,1.2c1.2,0.4,3.1,0.9,5.6,1.6c2.5,0.6,4.4,1.4,5.9,2.2c1.5,0.9,2.6,1.9,3.3,3.1c0.7,1.2,1,2.6,1,4.3   c0,3.3-1.2,5.9-3.6,7.8C553.4,391,550.1,391.9,545.9,391.9z"/>
    <path class="st0" d="M585.9,391.9c-2.3,0-4.3-0.4-5.9-1.3c-1.6-0.9-2.8-2.1-3.7-3.6c-0.8-1.5-1.2-3.1-1.2-4.9   c0-1.5,0.2-2.9,0.7-4.1c0.5-1.2,1.2-2.3,2.2-3.3c1-1,2.4-1.7,4.2-2.4c1.2-0.4,2.6-0.8,4.3-1.2c1.7-0.3,3.5-0.7,5.7-1   c2.1-0.3,4.4-0.7,6.9-1l-2.9,1.6c0-1.9-0.5-3.3-1.4-4.2c-0.9-0.9-2.5-1.4-4.6-1.4c-1.2,0-2.5,0.3-3.8,0.9c-1.3,0.6-2.2,1.6-2.7,3.1   l-7.4-2.3c0.8-2.7,2.4-4.9,4.6-6.6c2.3-1.7,5.4-2.5,9.3-2.5c2.9,0,5.4,0.4,7.6,1.3s3.9,2.4,5.1,4.6c0.6,1.2,1,2.4,1.1,3.6   c0.1,1.2,0.2,2.5,0.2,4V391H597v-6.7l1,1.4c-1.6,2.2-3.3,3.8-5.1,4.7S588.7,391.9,585.9,391.9z M587.7,385.5c1.5,0,2.8-0.3,3.8-0.8   c1-0.5,1.9-1.1,2.5-1.8c0.6-0.7,1-1.3,1.2-1.7c0.4-0.9,0.7-1.9,0.7-3.1c0.1-1.2,0.1-2.1,0.1-2.9l2.4,0.6c-2.4,0.4-4.4,0.7-5.9,1   s-2.7,0.5-3.6,0.7c-0.9,0.2-1.7,0.5-2.4,0.7c-0.8,0.3-1.4,0.7-1.9,1c-0.5,0.4-0.9,0.8-1.1,1.2c-0.2,0.4-0.3,0.9-0.3,1.5   c0,0.7,0.2,1.4,0.6,1.9c0.4,0.5,0.9,0.9,1.6,1.2C585.9,385.4,586.7,385.5,587.7,385.5z"/>
    <path class="st0" d="M607.7,364.9v-6.3h23.1v6.3H607.7z M630.8,391c-2.2,0.4-4.4,0.6-6.6,0.6c-2.2-0.1-4.1-0.4-5.8-1.1   c-1.7-0.7-3-1.9-3.9-3.4c-0.8-1.5-1.2-3-1.3-4.5c0-1.5-0.1-3.3-0.1-5.2v-27.7h8.2v27.2c0,1.3,0,2.4,0,3.4c0,1,0.2,1.8,0.6,2.4   c0.7,1.1,1.9,1.8,3.5,1.9c1.6,0.1,3.3,0,5.3-0.2V391z"/>
    <path class="st0" d="M664,391.9c-3.3,0-6.3-0.7-8.8-2.1c-2.5-1.4-4.5-3.4-6-5.9s-2.1-5.4-2.1-8.6c0-3.5,0.7-6.6,2.1-9.3   c1.4-2.6,3.3-4.7,5.8-6.1c2.5-1.5,5.3-2.2,8.5-2.2c3.4,0,6.3,0.8,8.7,2.4c2.4,1.6,4.1,3.9,5.3,6.8c1.1,2.9,1.5,6.3,1.2,10.3h-8.1   v-3c0-3.3-0.5-5.7-1.6-7.1c-1.1-1.5-2.8-2.2-5.2-2.2c-2.8,0-4.8,0.8-6.1,2.5c-1.3,1.7-2,4.2-2,7.5c0,3,0.7,5.4,2,7   c1.3,1.7,3.2,2.5,5.8,2.5c1.6,0,3-0.4,4.1-1.1c1.1-0.7,2-1.7,2.6-3l8.2,2.3c-1.2,3-3.2,5.3-5.8,6.9   C670,391.1,667.1,391.9,664,391.9z M653.2,377.1V371h21.5v6.1H653.2z"/>
    <path class="st0" d="M692.4,391l-11.8-32.5h8.2l7.7,22.5l7.7-22.5h8.2L700.6,391H692.4z"/>
    <path class="st0" d="M731.1,391.9c-3.3,0-6.3-0.7-8.8-2.1c-2.5-1.4-4.5-3.4-6-5.9s-2.1-5.4-2.1-8.6c0-3.5,0.7-6.6,2.1-9.3   c1.4-2.6,3.3-4.7,5.8-6.1c2.5-1.5,5.3-2.2,8.5-2.2c3.4,0,6.3,0.8,8.7,2.4c2.4,1.6,4.1,3.9,5.3,6.8c1.1,2.9,1.5,6.3,1.2,10.3h-8.1   v-3c0-3.3-0.5-5.7-1.6-7.1c-1.1-1.5-2.8-2.2-5.2-2.2c-2.8,0-4.8,0.8-6.1,2.5c-1.3,1.7-2,4.2-2,7.5c0,3,0.7,5.4,2,7   c1.3,1.7,3.2,2.5,5.8,2.5c1.6,0,3-0.4,4.1-1.1c1.1-0.7,2-1.7,2.6-3l8.2,2.3c-1.2,3-3.2,5.3-5.8,6.9   C737.1,391.1,734.2,391.9,731.1,391.9z M720.3,377.1V371h21.5v6.1H720.3z"/>
    <path class="st0" d="M751.9,391v-32.5h7.2v7.9l-0.8-1c0.4-1.1,1-2.1,1.7-3.1c0.7-0.9,1.6-1.7,2.6-2.3c0.8-0.5,1.6-0.9,2.6-1.1   c0.9-0.3,1.9-0.4,2.9-0.5c1-0.1,2,0,2.9,0.1v7.6c-0.9-0.3-1.9-0.4-3.1-0.3c-1.2,0.1-2.3,0.4-3.2,0.8c-1,0.4-1.8,1-2.4,1.8   c-0.7,0.7-1.2,1.6-1.5,2.6s-0.5,2.1-0.5,3.4V391H751.9z"/>
    <path class="st0" d="M779.1,405.5l6.3-17.2l0.1,5.1l-14.1-34.8h8.5l9.5,24.6h-1.9l9.4-24.6h8.2l-18.3,46.9H779.1z"/>
    <path class="st0" d="M820.6,354.1v-7.2h8.2v7.2H820.6z M820.6,391v-32.5h8.2V391H820.6z"/>
    <path class="st0" d="M837.2,391v-32.5h7.3v10.8h1V391H837.2z M859.3,391v-15.3c0-0.7,0-1.7-0.1-2.8c-0.1-1.2-0.3-2.3-0.8-3.5   s-1.1-2.1-2.1-2.9c-1-0.8-2.3-1.2-4-1.2c-0.7,0-1.5,0.1-2.3,0.3c-0.8,0.2-1.6,0.6-2.3,1.3c-0.7,0.6-1.3,1.6-1.7,2.8   c-0.5,1.2-0.7,2.8-0.7,4.9l-4.7-2.2c0-2.6,0.5-5,1.6-7.2c1-2.2,2.6-4.1,4.7-5.4c2.1-1.4,4.7-2.1,7.9-2.1c2.5,0,4.6,0.4,6.2,1.3   c1.6,0.9,2.9,2,3.7,3.3c0.9,1.3,1.5,2.7,1.9,4.1c0.4,1.4,0.6,2.7,0.7,3.9c0.1,1.2,0.1,2,0.1,2.6V391H859.3z"/>
    <path class="st0" d="M871.3,364.9v-6.3h23.1v6.3H871.3z M894.3,391c-2.2,0.4-4.4,0.6-6.6,0.6c-2.2-0.1-4.1-0.4-5.8-1.1   c-1.7-0.7-3-1.9-3.9-3.4c-0.8-1.5-1.2-3-1.3-4.5c0-1.5-0.1-3.3-0.1-5.2v-27.7h8.2v27.2c0,1.3,0,2.4,0,3.4c0,1,0.2,1.8,0.6,2.4   c0.7,1.1,1.9,1.8,3.5,1.9c1.6,0.1,3.3,0,5.3-0.2V391z"/>
    <path class="st0" d="M914.2,391.9c-3.3,0-6.3-0.7-8.8-2.1c-2.5-1.4-4.5-3.4-6-5.9s-2.1-5.4-2.1-8.6c0-3.5,0.7-6.6,2.1-9.3   c1.4-2.6,3.3-4.7,5.8-6.1c2.5-1.5,5.3-2.2,8.5-2.2c3.4,0,6.3,0.8,8.7,2.4c2.4,1.6,4.1,3.9,5.3,6.8c1.1,2.9,1.5,6.3,1.2,10.3h-8.1   v-3c0-3.3-0.5-5.7-1.6-7.1c-1.1-1.5-2.8-2.2-5.2-2.2c-2.8,0-4.8,0.8-6.1,2.5c-1.3,1.7-2,4.2-2,7.5c0,3,0.7,5.4,2,7   c1.3,1.7,3.2,2.5,5.8,2.5c1.6,0,3-0.4,4.1-1.1c1.1-0.7,2-1.7,2.6-3l8.2,2.3c-1.2,3-3.2,5.3-5.8,6.9   C920.3,391.1,917.4,391.9,914.2,391.9z M903.5,377.1V371H925v6.1H903.5z"/>
    <path class="st0" d="M935.1,391v-32.5h7.2v7.9l-0.8-1c0.4-1.1,1-2.1,1.7-3.1c0.7-0.9,1.6-1.7,2.6-2.3c0.8-0.5,1.6-0.9,2.6-1.1   c0.9-0.3,1.9-0.4,2.9-0.5c1-0.1,2,0,2.9,0.1v7.6c-0.9-0.3-2-0.4-3.1-0.3c-1.2,0.1-2.3,0.4-3.2,0.8c-1,0.4-1.8,1-2.4,1.8   c-0.7,0.7-1.2,1.6-1.5,2.6s-0.5,2.1-0.5,3.4V391H935.1z"/>
    <path class="st0" d="M967.7,391.9c-2.3,0-4.3-0.4-5.9-1.3s-2.8-2.1-3.7-3.6c-0.8-1.5-1.2-3.1-1.2-4.9c0-1.5,0.2-2.9,0.7-4.1   c0.5-1.2,1.2-2.3,2.2-3.3s2.4-1.7,4.2-2.4c1.2-0.4,2.6-0.8,4.3-1.2s3.5-0.7,5.7-1c2.1-0.3,4.4-0.7,6.9-1l-2.9,1.6   c0-1.9-0.5-3.3-1.4-4.2c-0.9-0.9-2.5-1.4-4.6-1.4c-1.2,0-2.5,0.3-3.8,0.9c-1.3,0.6-2.2,1.6-2.7,3.1l-7.4-2.3   c0.8-2.7,2.4-4.9,4.6-6.6c2.3-1.7,5.4-2.5,9.3-2.5c2.9,0,5.4,0.4,7.6,1.3c2.2,0.9,3.9,2.4,5.1,4.6c0.6,1.2,1,2.4,1.1,3.6   s0.2,2.5,0.2,4V391h-7.2v-6.7l1,1.4c-1.6,2.2-3.3,3.8-5.1,4.7S970.5,391.9,967.7,391.9z M969.5,385.5c1.5,0,2.8-0.3,3.8-0.8   c1-0.5,1.9-1.1,2.5-1.8c0.6-0.7,1-1.3,1.2-1.7c0.4-0.9,0.7-1.9,0.7-3.1c0.1-1.2,0.1-2.1,0.1-2.9l2.4,0.6c-2.4,0.4-4.4,0.7-5.9,1   c-1.5,0.3-2.7,0.5-3.6,0.7c-0.9,0.2-1.7,0.5-2.4,0.7c-0.8,0.3-1.4,0.7-1.9,1c-0.5,0.4-0.9,0.8-1.1,1.2c-0.2,0.4-0.3,0.9-0.3,1.5   c0,0.7,0.2,1.4,0.6,1.9c0.4,0.5,0.9,0.9,1.6,1.2S968.5,385.5,969.5,385.5z"/>
    <path class="st0" d="M1007.5,391.9c-3.4,0-6.3-0.8-8.7-2.3s-4.2-3.5-5.5-6.1c-1.3-2.6-1.9-5.5-1.9-8.7c0-3.3,0.7-6.2,2-8.8   c1.3-2.6,3.2-4.6,5.6-6.1c2.4-1.5,5.3-2.2,8.6-2.2c3.8,0,7,1,9.6,2.9c2.6,1.9,4.3,4.6,5,7.9l-8.2,2.2c-0.5-1.7-1.3-3-2.5-3.9   c-1.2-0.9-2.5-1.4-4-1.4c-1.7,0-3.1,0.4-4.2,1.2c-1.1,0.8-1.9,2-2.4,3.4c-0.5,1.4-0.8,3.1-0.8,4.9c0,2.8,0.6,5.1,1.9,6.9   c1.3,1.8,3.1,2.6,5.6,2.6c1.8,0,3.2-0.4,4.2-1.3c1-0.8,1.7-2,2.2-3.6l8.4,1.7c-0.9,3.4-2.7,6.1-5.2,8   C1014.4,391,1011.2,391.9,1007.5,391.9z"/>
    <path class="st0" d="M1024,364.9v-6.3h23.1v6.3H1024z M1047.1,391c-2.2,0.4-4.4,0.6-6.6,0.6c-2.2-0.1-4.1-0.4-5.8-1.1   c-1.7-0.7-3-1.9-3.9-3.4c-0.8-1.5-1.2-3-1.3-4.5c0-1.5-0.1-3.3-0.1-5.2v-27.7h8.2v27.2c0,1.3,0,2.4,0,3.4c0,1,0.2,1.8,0.6,2.4   c0.7,1.1,1.9,1.8,3.5,1.9c1.6,0.1,3.3,0,5.3-0.2V391z"/>
    <path class="st0" d="M1054.3,354.1v-7.2h8.2v7.2H1054.3z M1054.3,391v-32.5h8.2V391H1054.3z"/>
    <path class="st0" d="M1085.5,391.9c-3.3,0-6.1-0.7-8.6-2.2c-2.5-1.5-4.4-3.5-5.8-6.1c-1.4-2.6-2.1-5.5-2.1-8.9   c0-3.4,0.7-6.4,2.1-8.9c1.4-2.6,3.3-4.6,5.8-6c2.5-1.4,5.3-2.2,8.5-2.2c3.3,0,6.1,0.7,8.6,2.2c2.5,1.5,4.4,3.5,5.8,6.1   c1.4,2.6,2.1,5.5,2.1,8.9c0,3.4-0.7,6.3-2.1,8.9c-1.4,2.6-3.3,4.6-5.8,6S1088.8,391.9,1085.5,391.9z M1085.5,384.3   c2.6,0,4.6-0.9,5.9-2.7s1.9-4.1,1.9-6.8c0-2.9-0.7-5.2-2-6.9c-1.3-1.7-3.3-2.6-5.8-2.6c-1.8,0-3.2,0.4-4.4,1.2   c-1.1,0.8-2,1.9-2.5,3.3c-0.6,1.4-0.8,3.1-0.8,5c0,2.9,0.7,5.2,2,6.9C1081,383.4,1083,384.3,1085.5,384.3z"/>
    <path class="st0" d="M1107.9,391v-32.5h7.3v10.8h1V391H1107.9z M1130.1,391v-15.3c0-0.7,0-1.7-0.1-2.8c-0.1-1.2-0.3-2.3-0.8-3.5   s-1.1-2.1-2.1-2.9s-2.3-1.2-4-1.2c-0.7,0-1.5,0.1-2.3,0.3c-0.8,0.2-1.6,0.6-2.3,1.3c-0.7,0.6-1.3,1.6-1.7,2.8   c-0.5,1.2-0.7,2.8-0.7,4.9l-4.7-2.2c0-2.6,0.5-5,1.6-7.2c1-2.2,2.6-4.1,4.7-5.4c2.1-1.4,4.7-2.1,7.9-2.1c2.5,0,4.6,0.4,6.2,1.3   s2.9,2,3.7,3.3c0.9,1.3,1.5,2.7,1.9,4.1c0.4,1.4,0.6,2.7,0.7,3.9c0.1,1.2,0.1,2,0.1,2.6V391H1130.1z"/>
  </g>
</svg>
