<svg xmlns="http://www.w3.org/2000/svg" id="svg1" width="2000" height="2000" viewBox="0 0 2000 2000">
  <defs id="defs1">
    <clipPath clipPathUnits="userSpaceOnUse" id="clipPath2">
      <path d="M 0,1500 H 1500 V 0 H 0 Z" transform="translate(-244.63821,-779.83692)" id="path2"/>
    </clipPath>
    <clipPath clipPathUnits="userSpaceOnUse" id="clipPath4">
      <path d="M 0,1500 H 1500 V 0 H 0 Z" transform="translate(-291.27451,-605.61009)" id="path4"/>
    </clipPath>
  </defs>
  <sodipodi:namedview id="namedview1" pagecolor="#ffffff" bordercolor="#000000" borderopacity="0.25" inkscape:showpageshadow="2" inkscape:pageopacity="0.0" inkscape:pagecheckerboard="0" inkscape:deskcolor="#d1d1d1">
    <inkscape:page x="0" y="0" inkscape:label="1" id="page1" width="2000" height="2000" margin="534.49866 181 549.77332 218.916" bleed="0"/>
  </sodipodi:namedview>
  <g id="layer-MC0" inkscape:groupmode="layer" inkscape:label="Layer 1">
    <path id="path1" d="m 0,0 v 213.42 h 63.132 c 53.38,0 96.653,-47.776 96.653,-106.71 C 159.785,47.776 116.512,0 63.132,0 Z m 63.132,-70.395 c 82.418,0 151.686,56.299 171.448,132.537 L 434.968,-94.418 635.23,62.044 V -70.395 H 863.734 V 0 H 715.682 V 283.814 H 635.23 V 151.376 L 443.135,1.295 400.174,34.86 l 91.964,71.85 100.131,78.231 -57.17,44.666 L 343.004,79.526 300.043,113.091 492.138,263.172 434.968,307.838 234.58,151.278 C 214.818,227.516 145.55,283.814 63.132,283.814 H -80.451 V -70.395 Z M 1119.614,0 V -70.395 H 891.11 v 354.209 h 80.451 V 0 Z" style="fill:#0076ce;fill-opacity:1;fill-rule:nonzero;stroke:none" transform="matrix(1.3333333,0,0,-1.3333333,326.18427,960.21747)" clip-path="url(#clipPath2)"/>
    <path id="path3" d="m 0,0 v 7.062 l -2.351,2.351 h -122.376 l -2.361,-2.351 V 0 l 2.361,-2.351 h 51.77 l 2.351,-2.351 v -148.265 l 2.361,-2.351 h 9.413 l 2.351,2.351 V -4.702 l 2.351,2.351 H -2.351 Z M 63.411,-89.423 H -7.185 l -2.351,2.351 c 0,16.476 9.413,40.004 37.644,40.004 28.25,0 37.664,-23.528 37.664,-40.004 z m 14.125,-11.775 2.361,2.361 v 7.053 c 0,32.952 -18.837,56.491 -51.789,56.491 -32.932,0 -51.77,-23.539 -51.77,-56.491 v -4.702 c 0,-32.942 16.477,-61.183 54.131,-61.183 32.942,0 44.706,21.178 47.067,35.303 l -2.361,2.351 h -9.403 l -2.361,-2.351 c -4.702,-14.125 -14.116,-23.538 -32.942,-23.538 -30.592,0 -40.005,28.24 -40.005,42.355 l 2.351,2.351 z m 25.89,4.712 c 0,32.952 16.466,49.418 40.005,49.418 23.528,0 32.942,-14.115 35.292,-28.23 l 2.351,-2.361 h 9.424 l 2.351,2.361 c -2.351,23.529 -21.188,40.005 -49.418,40.005 -30.592,0 -54.12,-18.837 -54.12,-61.193 0,-42.356 23.528,-61.183 54.12,-61.183 28.23,0 47.067,16.476 49.418,40.005 l -2.351,2.351 h -9.424 l -2.351,-2.351 c -2.35,-14.115 -11.764,-28.24 -35.292,-28.24 -23.539,0 -40.005,16.476 -40.005,49.418 m 202.375,-56.481 v 70.606 c 0,30.592 -16.477,47.068 -42.356,47.068 -16.476,0 -30.591,-7.073 -37.654,-18.837 H 223.44 V 7.062 l -2.35,2.351 h -9.414 l -2.361,-2.351 v -160.029 l 2.361,-2.351 h 9.414 l 2.35,2.351 v 63.544 c 0,25.889 11.775,42.355 37.654,42.355 18.827,0 30.591,-11.764 30.591,-35.293 v -70.606 l 2.351,-2.351 h 9.424 z m 120.025,0 v 70.606 c 0,30.592 -16.466,47.068 -42.356,47.068 -16.476,0 -30.602,-7.073 -37.654,-18.837 h -2.361 l -2.341,14.135 -2.361,2.351 h -7.062 l -2.351,-2.351 v -112.972 l 2.351,-2.351 h 9.423 l 2.341,2.351 v 63.544 c 0,25.889 11.774,42.355 37.654,42.355 18.827,0 30.591,-11.764 30.591,-35.293 v -70.606 l 2.361,-2.351 h 9.414 z m 68.245,-4.702 c 30.591,0 54.13,21.178 54.13,61.183 0,40.005 -23.539,61.193 -54.13,61.193 -30.592,0 -54.13,-21.188 -54.13,-61.193 0,-40.005 23.538,-61.183 54.13,-61.183 m 0,110.601 c 23.529,0 40.005,-18.827 40.005,-49.418 0,-30.591 -16.476,-49.418 -40.005,-49.418 -23.539,0 -40.015,18.827 -40.015,49.418 0,30.591 16.476,49.418 40.015,49.418 m 84.711,-105.899 V 7.062 l -2.351,2.351 h -9.413 l -2.361,-2.351 v -160.029 l 2.361,-2.351 h 9.413 z m 70.607,-4.702 c 30.591,0 54.12,21.178 54.12,61.183 0,40.005 -23.529,61.193 -54.12,61.193 -30.602,0 -54.131,-21.188 -54.131,-61.193 0,-40.005 23.529,-61.183 54.131,-61.183 m 0,110.601 c 23.528,0 39.994,-18.827 39.994,-49.418 0,-30.591 -16.466,-49.418 -39.994,-49.418 -23.539,0 -40.015,18.827 -40.015,49.418 0,30.591 16.476,49.418 40.015,49.418 m 152.956,-91.774 c 0,-30.591 -7.062,-54.13 -35.303,-54.13 -21.177,0 -28.24,9.413 -30.591,21.178 l -2.351,2.361 h -9.413 l -2.351,-2.361 c 2.351,-18.827 16.466,-32.942 44.706,-32.942 30.602,0 49.419,18.827 49.419,65.894 v 98.847 l -2.351,2.351 h -7.063 l -2.351,-2.351 -2.351,-14.135 h -2.361 c -4.701,9.413 -16.465,18.837 -37.653,18.837 -32.943,0 -49.419,-25.89 -49.419,-61.193 0,-35.293 16.476,-61.183 49.419,-61.183 21.188,0 32.952,9.404 37.653,18.827 z m -37.643,-7.062 c -23.539,0 -37.665,16.476 -37.665,49.418 0,32.952 14.126,49.418 37.665,49.418 23.518,0 37.643,-16.466 37.643,-49.418 0,-32.942 -14.125,-49.418 -37.643,-49.418 m 89.413,129.438 V -2.351 L 851.764,0 H 842.35 L 840,-2.351 v -14.115 l 2.35,-2.361 h 9.414 z m 0,-136.501 v 112.972 l -2.351,2.351 H 842.35 L 840,-39.995 v -112.972 l 2.35,-2.351 h 9.414 z m 103.548,63.544 h -70.596 l -2.361,2.351 c 0,16.476 9.414,40.004 37.654,40.004 28.241,0 37.654,-23.528 37.654,-40.004 z m 14.126,-11.775 2.34,2.361 v 7.053 c 0,32.952 -18.827,56.491 -51.769,56.491 -32.942,0 -51.769,-23.539 -51.769,-56.491 v -4.702 c 0,-32.942 16.476,-61.183 54.13,-61.183 32.942,0 44.707,21.178 47.068,35.303 l -2.361,2.351 h -9.414 l -2.351,-2.351 c -4.711,-14.125 -14.125,-23.538 -32.942,-23.538 -30.601,0 -40.015,28.24 -40.015,42.355 l 2.361,2.351 z m 101.187,-23.529 c 0,21.178 -11.774,30.592 -35.313,35.304 -23.529,4.701 -37.644,7.062 -37.644,23.528 0,11.765 9.413,18.827 25.889,18.827 21.179,0 28.241,-9.413 28.241,-21.178 l 2.351,-2.35 h 9.414 l 2.361,2.35 c 0,23.529 -18.838,32.953 -42.367,32.953 -25.889,0 -40.004,-14.126 -40.004,-30.602 0,-18.827 14.115,-28.24 37.644,-32.942 23.539,-4.712 35.303,-7.062 35.303,-25.89 0,-11.764 -7.053,-21.177 -30.592,-21.177 -21.177,0 -30.591,11.774 -30.591,25.889 l -2.351,2.351 h -9.413 l -2.351,-2.351 c 0,-21.178 16.466,-37.654 44.706,-37.654 30.592,0 44.717,14.115 44.717,32.942" style="fill:#808080;fill-opacity:1;fill-rule:nonzero;stroke:none" transform="matrix(1.3333333,0,0,-1.3333333,388.366,1192.5199)" clip-path="url(#clipPath4)"/>
  </g>
</svg>
