<?xml version="1.0" encoding="utf-8"?>
<!-- Generator: Adobe Illustrator 19.0.0, SVG Export Plug-In . SVG Version: 6.00 Build 0)  -->
<svg version="1.1" id="layer" xmlns="http://www.w3.org/2000/svg" xmlns:xlink="http://www.w3.org/1999/xlink" x="0px" y="0px"
	 viewBox="-153 -46 652 652" style="enable-background:new -153 -46 652 652;" xml:space="preserve">
<style type="text/css">
	.st0{fill:#762B8A;}
	.st1{fill:url(#Path_7_);}
	.st2{fill:#3F454F;}
</style>
<path id="Shape" class="st0" d="M168.1,335.8L83.6,287v-97.6l84.5-48.8l84.5,48.8V287L168.1,335.8z M239,279.2v-81.9l-70.9-40.9
	l-70.9,40.9v81.9l70.9,40.9L239,279.2z"/>
<linearGradient id="Path_7_" gradientUnits="userSpaceOnUse" x1="-289.0659" y1="554.4882" x2="-289.0659" y2="549.5491" gradientTransform="matrix(23.2105 0 0 -26.7996 6877.4238 15032.1035)">
	<stop  offset="0.2" style="stop-color:#C6168D"/>
	<stop  offset="0.8" style="stop-color:#762B8A"/>
</linearGradient>
<polygon id="Path" class="st1" points="181.4,283.3 181.4,269.7 225.3,244.1 225.3,230.5 181.4,255.8 181.4,242.2 225.4,217 
	225.4,205.2 168.1,172.1 110.7,205.2 110.7,271.3 168.1,304.4 225.4,271.3 225.4,257.7 "/>
<path class="st2" d="M-60.1,418.2h-66.2v-61.8h64V370h-49.3v9.3h34.3v13.6h-34.3v11.7h51.5V418.2z M-40.3,356.4v61.8h14.7v-45.7
	l37.3,45.7h19.4v-61.8H16.4v45.8l-37.3-45.8H-40.3z M48.5,356.4V370h27.9v48.2h14.7V370H119v-13.6H48.5z M403.2,356.4V370h27.9v48.2
	h14.7V370h27.9v-13.6H403.2z M185.3,356.4c6.7,0,12,1.8,16,5.5c4,3.7,5.9,8.6,5.9,14.7c0,9.8-4.5,16-13.5,18.8l0,0l16.3,22.8h-17.1
	l-15.3-21.5h-26.5v21.5h-14.7v-61.8L185.3,356.4L185.3,356.4z M151.1,370v13.1h31.6c8.8,0,9.5-3.1,9.5-6.6c0-4-2.5-6.5-9.1-6.5
	L151.1,370L151.1,370z M264.7,406.3c19.1,0,20.9-6.5,20.9-12.2v-37.7h14.7v40.9c0,14.6-15.7,22.6-35.6,22.6h0
	c-19.9,0-35.6-8-35.6-22.6v-40.9h14.7v37.7C243.8,399.7,245.6,406.3,264.7,406.3L264.7,406.3z M379.3,374.4l9.2-9.7
	c-12.4-9.9-28.1-9.6-32.5-9.9c-4.3-0.3-33.5-0.9-34.8,18.9c-0.9,13.4,11.9,17.8,32.6,18.3c20.6,0.5,21.5,4.1,21.5,6.3
	c0,2.4-2.6,7.9-21.1,7.6c-12-0.2-22.2-4.4-27.8-9.1l-8.2,10.8c9.7,7.7,22,11.5,37.4,11.5c18.5,0,34.4-4.8,35.2-19.9
	c1-17.6-17-19.7-33.3-21c-15.8-1.3-20.8-1.7-20.8-5.6c0.1-4.3,12-4.9,20.3-4.4C366.6,368.8,373.8,371.2,379.3,374.4z"/>
</svg>
