<?xml version="1.0" encoding="utf-8"?>
<svg version="1.1" id="logo" xmlns="http://www.w3.org/2000/svg" xmlns:xlink="http://www.w3.org/1999/xlink"
	 viewBox="53.3 53.3 76.4 53.3" xml:space="preserve">
<style type="text/css">
	.st1{fill:#DA291C;}
</style>
<path class="st1" d="M129.7,73.1v13.8h0h-21.5V73.1l0,0H129.7L129.7,73.1L129.7,73.1z M80.8,106.6L80.8,106.6l21.5,0v0V92.8H80.8
	 V106.6z M129.7,64.9c0-6.4-5.2-11.6-11.6-11.6l-9.9,0v13.8h21.5V64.9z M80.8,53.3v13.8l0,0h21.5l0,0V53.3v0L80.8,53.3L80.8,53.3z
	 M53.3,73.1L53.3,73.1v13.8l0,0h21.5V73.1l0,0H53.3L53.3,73.1z M108.2,106.6l9.9,0c6.4,0,11.6-5.2,11.6-11.6v-2.2h-21.5V106.6z
	 M53.3,95c0,6.4,5.2,11.6,11.6,11.6l9.9,0V92.8H53.3V95z M53.3,64.9v2.2h21.5V53.3l-9.9,0C58.5,53.3,53.3,58.5,53.3,64.9z"/>
</svg>