<svg xmlns="http://www.w3.org/2000/svg" viewBox="0 162 1024 683" width="100%" height="100%">
  <path d="M52.47 162.06H971.9q52.1 0 52.1 52.1v578.22q0 52.1-52.1 52.1H52.47q-52.11 0-52.11-52.1V214.16q0-52.11 52.11-52.1z" fill="#E60012"/>
  <path d="M387.08 503.44q0 40.45 0.1 80.93c0 4.25-0.75 5.82-5.44 5.74-16.49-0.33-33-0.24-49.48 0-3.84 0-5-0.94-5-4.93 0.19-23.41 0-46.82 0.19-70.23 0-4.38-0.74-6-5.69-6q-45.86 0.38-91.71 0c-4.18 0-5.29 1.07-5.26 5.23 0.21 23.41 0 46.82 0.21 70.23 0 4.24-0.74 5.8-5.45 5.71-16.46-0.32-32.94-0.24-49.47 0-3.84 0-5-0.95-5-4.95q0.21-81.89 0-163.64c0-3.74 0.77-5.12 4.81-5 16.69 0.24 33.37 0.27 50 0 4.5 0 5 1.59 5 5.44-0.17 20.48 0 40.95-0.15 61.3 0 3.69 0.68 5 4.77 5q46.44-0.28 92.92 0c3.82 0 5-0.89 4.93-4.84-0.21-20.63 0-41.26-0.17-61.9 0-3.77 0.83-5 4.83-5q24.72 0.35 49.47 0c4.35 0 5.65 0.88 5.6 5.46-0.17 27.05-0.05 54.23-0.05 81.41z m23.62-60.69v-20.88c0-2.54 1.18-2.78 3.26-2.88 49.15-2.34 98.31-4.68 147.36 1.35 11.15 1.38 22.4 3 32.6 8.53 22.18 11.82 23.88 37.53 3.62 52.27-10.16 7.39-21.77 11.17-33.73 14.16-1 0.24-1.93 0.44-2.87 0.75-0.32 0.1-0.58 0.48-1.24 1a201.1 201.1 0 0 1 32.67 8.31c14.26 5.12 24.75 13.31 25.93 29.72 1.29 18.29-6.26 32.09-22 41-13.19 7.38-28.12 9.26-42.91 10.88-42.73 4.71-85.52 2.92-128.29 0.24-5.72-0.36-13.24 1.93-16.64-1.71s-0.49-11.33-1.23-17.16c-0.66-5.29 1.71-5.58 6.09-5.12 29.38 3.11 58.76 6.25 88.38 5.67a111.1 111.1 0 0 0 32.79-5c14.94-4.95 21.63-15.36 19.24-29.11-1.7-9.45-8.22-14.53-16.27-18.23-15-6.83-31.1-7.44-47.12-7.89-17.85-0.47-35.73-0.32-53.59-0.18-4.08 0-5.85-0.43-5.77-5.31 0.29-15.12 0-15 15.36-15.15 20.83-0.21 41.68 0.85 62.47-1.23 8.93-0.9 17.68-2.32 25.59-6.94a23 23 0 0 0 11.91-23.41c-1.23-8.24-7.15-13.77-17.74-15.92-20.37-4.13-40.95-4-61.62-3a554.83 554.83 0 0 0-56.24 5.17zM786.5 590c-30.33-0.53-63.91-2.06-96.72-11.24-67.08-18.77-68.8-98-36.87-130.67 12.48-12.76 27.9-19.21 44.72-23.1 35.26-8.1 71.14-8.82 107.09-8.31 16.45 0.24 32.88 1.18 49.32 1.71 4 0.12 5.39 1.71 5.12 5.72a154.31 154.31 0 0 0 0 16.66c0.14 3.5-0.24 4.68-4.5 3.86a305.84 305.84 0 0 0-75.07-5.12c-17.06 1-33.85 3.72-49.22 11.94-13.73 7.37-22.66 18.22-25.49 33.83a87.7 87.7 0 0 0 0.75 37.71c4.25 16.56 16.26 26.24 31 33.1 19.6 9.11 40.49 10.37 61.64 9.72a425 425 0 0 0 57.43-5c2.56-0.43 3.58 0.29 3.51 3q-0.16 9.81 0 19.63c0 2.44-0.58 3.41-3.24 3.57-22.09 1.41-44.07 2.7-69.47 2.99z" fill="#FFFFFF"/>
</svg>
