<svg xmlns="http://www.w3.org/2000/svg" width="159" height="16" viewBox="0 0 159 16"><g><g clip-path="url(#clip-08aa172a-b4d9-46bd-b2e0-ae46bed01dba)"><path fill="#871bff" d="M2.55 15.89H0V0h2.55zm7.949 0V0H12.1l11.452 10.625c.554.513 1.138 1.181 1.75 2-.161-.983-.24-2.288-.24-3.91V0h2.374v15.89H26.01L14.236 4.837a41.26 41.26 0 0 1-.74-.708 5.167 5.167 0 0 1-.801-1.078c.119.944.178 2.106.178 3.48v9.36zm24.854 0V0h14.563v2.157H37.904v5.204h6.852v2.124h-6.852v6.406zm21.444 0h-2.551V0h2.55zm7.948 0V0h1.601l11.452 10.625c.554.513 1.136 1.181 1.75 2-.161-.983-.24-2.288-.24-3.91V0h2.372v15.89h-1.423L68.482 4.837a41.28 41.28 0 0 1-.74-.708 5.156 5.156 0 0 1-.802-1.078c.119.944.177 2.106.177 3.48v9.36zm27.405 0h-2.551V0h2.55zM108.52 0c2.692 0 4.647.412 5.874 1.231.988.66 1.765 1.572 2.329 2.743.562 1.171.844 2.461.844 3.878 0 3.102-1.057 5.368-3.173 6.807-1.208.82-3.163 1.232-5.874 1.232h-8.423V0zm4.745 3.36c-1.047-.821-2.747-1.234-5.1-1.234h-5.516v11.547h5.516c2.373 0 4.072-.41 5.1-1.234 1.129-.887 1.692-2.421 1.692-4.601 0-2.1-.563-3.591-1.692-4.477zm7.802 12.53L129.432 0h2.726l8.514 15.89h-2.82l-1.955-3.912h-10.352l-1.956 3.913zm5.546-5.942h8.246l-4.122-8.131zm24.942-7.79V15.89h-2.55V2.157h-6.999V0h16.578v2.157z"/></g></g></svg>