<svg xmlns="http://www.w3.org/2000/svg" width="585" height="126" viewBox="0 0 585 126" fill="none">
  <g clip-path="url(#clip0_6_26)">
    <path d="M38.3062 18.8429L23.3345 33.8146C22.4489 34.7002 21.0131 34.7002 20.1275 33.8146L5.15572 18.8429C4.27012 17.9573 4.27012 16.5215 5.15572 15.6359L20.1274 0.6642C21.013 -0.2214 22.4488 -0.2214 23.3344 0.6642L38.3061 15.6359C39.1918 16.5215 39.1918 17.9573 38.3062 18.8429Z" fill="#00BD4D"/>
    <path d="M536.896 80.7694L563.495 120.243C564.453 121.606 563.41 123.421 561.668 123.421H539.319C537.824 123.421 536.426 122.684 535.58 121.451L520.204 97.923L504.828 121.451C503.982 122.684 502.583 123.421 501.088 123.421H478.739C476.997 123.421 475.954 121.606 476.912 120.243L503.428 80.7694L476.912 41.296C475.954 39.9327 476.997 38.1179 478.739 38.1179H502.042C502.916 38.1179 503.727 38.52 504.18 39.1784L520.204 63.5808L535.239 39.1879C535.69 38.5242 536.504 38.118 537.383 38.118H560.914C562.653 38.118 563.697 39.9277 562.745 41.2914L536.896 80.7694Z" fill="#101820"/>
    <path d="M173.971 3.6571H155.435C153.631 3.6571 151.9 4.3738 150.624 5.6497L133.208 23.066C131.932 24.3418 131.215 26.0722 131.215 27.8765V41.5837H120.819C119.588 41.5837 118.591 42.5815 118.591 43.8123V59.1976C118.591 60.4284 119.588 61.4262 120.819 61.4262H131.215V121.153C131.215 122.406 132.231 123.421 133.483 123.421H153.042C154.294 123.421 155.31 122.406 155.31 121.153V61.4262H170.844C172.075 61.4262 173.072 60.4284 173.072 59.1976V43.8124C173.072 42.5816 172.075 41.5838 170.844 41.5838H155.31V31.8619C155.31 28.1046 158.356 25.0588 162.113 25.0588H173.971C175.224 25.0588 176.239 24.0435 176.239 22.791V5.9248C176.239 4.6724 175.224 3.6571 173.971 3.6571Z" fill="#101820"/>
    <path d="M584.92 115.347C584.92 120.571 580.74 124.75 575.498 124.75C570.368 124.75 566.15 120.533 566.15 115.347C566.15 110.142 570.33 105.981 575.535 105.981C580.74 105.981 584.92 110.142 584.92 115.347ZM583.477 115.385C583.477 110.883 579.924 107.311 575.535 107.311C571.147 107.311 567.595 110.845 567.595 115.366C567.595 119.83 571.186 123.421 575.498 123.421C579.924 123.421 583.477 119.868 583.477 115.385ZM577.549 116.866L579.904 120.533H578.348L575.726 116.373H575.383H573.332V120.533H572.021V110.009H576.106C578.119 110.009 579.43 111.092 579.43 113.105C579.43 114.739 578.441 115.746 577.036 116.145C577.227 116.354 577.416 116.619 577.549 116.866ZM575.668 115.138C577.15 115.138 578.062 114.435 578.062 113.2C578.062 112.003 577.436 111.243 576.144 111.243H573.332V115.138H575.668Z" fill="#101820"/>
    <path d="M386.202 123.421H366.643C365.391 123.421 364.376 122.406 364.376 121.153V5.9248C364.376 4.6724 365.391 3.6571 366.643 3.6571H386.202C387.455 3.6571 388.47 4.6724 388.47 5.9248V121.153C388.47 122.406 387.455 123.421 386.202 123.421Z" fill="#101820"/>
    <path d="M317.764 36.3203C306.64 36.3203 297.398 41.136 291.58 49.0449V5.9248C291.58 4.6724 290.565 3.6571 289.312 3.6571H269.753C268.501 3.6571 267.485 4.6724 267.485 5.9248V121.153C267.485 122.406 268.5 123.421 269.753 123.421H289.312C290.565 123.421 291.58 122.406 291.58 121.153V112.662C297.398 120.571 306.641 125.146 317.936 125.146C341.725 125.146 357.917 105.957 357.917 80.8534C357.917 55.75 341.725 36.3203 317.764 36.3203ZM312.972 102.518C300.65 102.518 291.58 92.5449 291.58 80.8533C291.58 69.1618 300.65 59.3596 312.972 59.3596C325.124 59.3596 334.023 69.1618 334.023 80.8533C334.023 92.5448 325.124 102.518 312.972 102.518Z" fill="#101820"/>
    <path d="M217.111 36.3203C192.286 36.3203 173.072 55.6603 173.072 80.6479C173.072 105.636 192.286 125.145 217.111 125.145C241.936 125.145 261.15 105.636 261.15 80.6479C261.15 55.6602 241.936 36.3203 217.111 36.3203ZM217.198 102.28C205.074 102.28 195.938 92.402 195.938 80.6483C195.938 68.8947 205.074 59.186 217.198 59.186C229.497 59.186 238.284 68.8947 238.284 80.6483C238.284 92.402 229.497 102.28 217.198 102.28Z" fill="#101820"/>
    <path d="M438.842 36.3203C414.017 36.3203 394.803 55.6603 394.803 80.6479C394.803 105.636 414.017 125.145 438.842 125.145C463.667 125.145 482.881 105.636 482.881 80.6479C482.881 55.6602 463.667 36.3203 438.842 36.3203ZM438.929 102.28C426.805 102.28 417.669 92.402 417.669 80.6483C417.669 68.8947 426.805 59.186 438.929 59.186C451.229 59.186 460.015 68.8947 460.015 80.6483C460.015 92.402 451.229 102.28 438.929 102.28Z" fill="#101820"/>
    <path d="M21.8268 123.421H2.2677C1.0153 123.421 0 122.406 0 121.153V60.4152C0 59.1946 0.492 58.0256 1.3647 57.1722L20.2414 38.716C21.6772 37.3122 24.0945 38.3294 24.0945 40.3375V121.153C24.0945 122.406 23.0792 123.421 21.8268 123.421Z" fill="#101820"/>
    <path d="M115.38 66.9307C115.38 50.3786 101.706 36.5025 84.4829 36.3016C73.2737 36.1707 65.7041 41.6657 60.8581 49.0825V40.3853C60.8581 39.133 59.843 38.1179 58.5905 38.1179H39.0309C37.7787 38.1179 36.7633 39.133 36.7633 40.3853V121.153C36.7633 122.406 37.7787 123.421 39.0309 123.421H58.5905C59.8429 123.421 60.8581 122.406 60.8581 121.153V74.1789C61.3986 65.1415 67.1257 59.515 76.07 59.515C85.3766 59.515 91.2853 65.8294 91.2853 75.2162V121.153C91.2853 122.406 92.3007 123.421 93.5531 123.421H113.112C114.365 123.421 115.38 122.406 115.38 121.153L115.38 66.9307Z" fill="#101820"/>
  </g>
  <defs>
    <clipPath id="clip0_6_26">
      <rect width="584.92" height="125.146" fill="white"/>
    </clipPath>
  </defs>
</svg>
