<svg height="156.963949" viewBox="0 0 18.289058 4.6263425" width="637.088968" xmlns="http://www.w3.org/2000/svg"><path d="m18.905941 149.50965h.956028c.109008-.68756.221191-1.38889.33408-2.07998.02293-.13899.08255-.19826.145345-.24483.05927-.0459.122061-.0691.211314-.0691h.7112l.353836-.59549h-1.332795c-.198261.004-.486127.0829-.710847.26811-.198261.16193-.330553.40676-.366889.6283l-.301272 1.88136zm0-2.77777v-.21167h.03351zm-.03634 2.77777h.03634v-.21167zm.03634-2.98944v.21167l-.449439 2.77777h-2.139597c-.251178 0-.462844-.11571-.591961-.28116-.112183-.14217-.194733-.34043-.14217-.64453.112537-.69462.218723-1.3723.330906-2.06375h.992011l-.32385 2.00413c-.02999.16863-.02011.2279.02928.29422.04339.0561.119238.0924.201788.0963.251531-.004.502709 0 .751064 0l.386292-2.39113zm-5.253919 2.98944v-.59478h.174977c.03316 0 .06985-.004.09913-.0138.04657-.0131.08643-.0363.122767-.0628.07267-.0561.118886-.13546.135466-.21484.0628-.39017.125589-.77717.188384-1.16381.01023-.0632.01305-.12594-.0032-.17851-.0099-.03-.02999-.06-.04939-.0829-.04022-.0529-.102659-.0825-.188736-.0825h-.479425v-.59549h.929216c.313973-.003.479425.10936.608189.248.0628.0663.116064.14923.148872.24483.03634.10901.05292.23495.02963.37712-.06597.42651-.135114.82973-.204964 1.25977-.04621.248-.174978.43639-.337256.58561-.07267.0656-.15875.12206-.251177.16828-.142523.0695-.3175.10583-.466373.10583zm0-2.98944v.59549h-.436739l-.290689 1.79917h.727428v.59478h-.386645c-.172155 0-.307975-.0201-.426861-.0695-.05292.37042-.109361.74401-.165453 1.11407l-.902758.2847v-.87313l.343958-2.13924.658284-.34396-.548923-.36689.09913-.59549zm-1.881717.59549h.04974l.0956-.59549h-.145344zm0-.59549v.59549h-1.7755304c-.122414 0-.2310702.0762-.2942172.17851-.02963.0529-.04621.11218-.04974.1718-.0063.0995.07973.25118.2511779.25118h1.0551587c.174978 0 .350309.073.4826.19226.105834.0991.185209.22472.21837.38664.01976.0924.02328.18521.0063.29422-.01305.10901-.05256.23178-.101953.33055-.07267.14253-.172156.25824-.297744.36054-.178506.139-.423334.22825-.641703.22825h-2.2119177l.09596-.59478h1.8252727c.0956-.004.171803-.0402.227894-.0963.0628-.0596.105834-.13864.115711-.22155.0099-.0727-.01658-.16862-.08255-.22824-.03986-.0363-.09913-.0561-.16898-.0561-.353484-.004-.6741587 0-1.0279955 0-.307622-.004-.5718522-.18204-.6847411-.45967-.04621-.10901-.05927-.23495-.05292-.37042.010231-.15558.07303-.3108.145697-.43991.195086-.32703.561975-.51894.912636-.52247zm0 3.44558v.87313l-.148519.043zm-6.7451116-.45614v-.2413l.439561-2.74814h2.1692309c.3633611.004.7704662.33091.720725.82021-.1157107.72425-.2314228 1.44815-.3471338 2.16923h-.9884831l.333728-2.08315c.01975-.10266-.0099-.17533-.05292-.22825-.04621-.0529-.115711-.0825-.195086-.0825h-.747183l-.38347 2.39395zm0-2.74461.03634-.24483h-.03634zm0-.24483v.24483l-.443089 2.74461h-.988836l.267758-1.6831.661459-.34396-.545747-.36689.09596-.59549zm0 2.74814-.03986.2413h.03986z" fill="#125cb3" transform="translate(-3.460977 -146.38787)"/></svg>