<?xml version="1.0" encoding="utf-8"?>
<svg version="1.1" id="Layer_1" xmlns="http://www.w3.org/2000/svg" xmlns:xlink="http://www.w3.org/1999/xlink" x="0px" y="0px" viewBox="0 0 718.2 196.3"
	 style="enable-background:new 0 0 718.2 196.3;" xml:space="preserve">
<style type="text/css">
	.Arched_x0020_Green{fill:url(#SVGID_1_);stroke:none;}
</style>
<linearGradient id="SVGID_1_" gradientUnits="userSpaceOnUse" x1="0" y1="0" x2="718.2" y2="196.3">
	<stop  offset="0" style="stop-color:#20AC4B"/>
	<stop  offset="0.9831" style="stop-color:#19361A"/>
</linearGradient>
<g>
	<g>
		<path d="M352.3,157.6h4.4l22.7,31.3v-31.3h3.9v38h-3.7l-23.4-32.3v32.3h-3.9V157.6z"/>
		<path d="M393,157.6h25.1v3.8h-21.1V174h20.6v3.8h-20.6v14.1h21.3v3.7H393V157.6z"/>
		<path d="M438.5,161.5h-14.3v-3.8h32.6v3.8h-14.3v34.2h-4.1V161.5z"/>
		<path d="M461.7,157.6h4.2l10,31.4l10.2-31.4h3.5l10.2,31.4l10.1-31.4h3.9l-12.2,38.3H498l-10.3-31.7l-10.2,31.7H474L461.7,157.6z"/>
		<path d="M517.4,176.6c0-13.5,6.9-19.6,19.1-19.6c12.2,0,19.2,6.1,19.2,19.6c0,13.6-7,19.6-19.2,19.6C524.3,196.3,517.4,190.2,517.4,176.6z M551.6,176.7c0-10.3-4.8-15.8-15.1-15.8c-10.3,0-15,5.5-15,15.8c0,10.3,4.7,15.9,15,15.9C546.8,192.5,551.6,187,551.6,176.7z"/>
		<path d="M579.2,180.1h-11.4v15.5h-4v-38h16.4c8.8,0,12.8,3.5,12.8,11.1c0,6.6-3.1,10.4-9.7,11.3l9.2,15.6h-4.3L579.2,180.1z M580.4,176.4c5.4,0,8.7-1.6,8.7-7.6c0-5.9-3.2-7.4-8.9-7.4h-12.4v15.1H580.4z"/>
		<path d="M613.3,175.5l-7.6,8.3v11.9h-3.9v-38h3.9v21l19.2-21h4.7L616,172.5l15.5,23.1h-4.6L613.3,175.5z"/>
		<path d="M634.8,191.8l2.1-3.1c4.6,2.9,9,3.8,13.6,3.8c7.9,0,11.3-2.2,11.3-7.4c0-5.4-4.5-6.2-11.3-7.4c-8.2-1.4-13.7-2.8-13.7-10.5c0-7.3,4.7-10.2,13.7-10.2c6,0,10.2,1.3,13.2,3.4l-2.2,3.3c-2.7-1.8-6.8-3-11.1-3c-6.8,0-9.7,1.9-9.7,6.4c0,4.8,4,5.7,10.7,7c8.3,1.5,14.3,2.7,14.3,10.9c0,7.5-4.8,11.2-15.2,11.2C644.8,196.1,639.7,195,634.8,191.8z"/>
	</g>
	<g>
		<g>
			<path d="M705.5,0.5c-53.4,0-55.7,23.9-55.7,57.7v82.9h12.6V58.2c0-25.5-1-45.9,43.1-45.9c4.7,0,8.9,0.2,12.7,0.7V1C714.3,0.7,710.1,0.5,705.5,0.5z"/>
			<path d="M82.2,87.2V3.3h12.9v84.2c0,24.2-0.2,44.6,44.1,44.6c44.1,0,43.1-20.4,43.1-45.9V3.3h12.6v82.9c0,33.8-2.3,57.7-55.7,57.7C85.5,143.9,82.2,120,82.2,87.2z"/>
			<path d="M328.9,57.2v83.9H316V57c0-24.2,0.3-44.6-44.1-44.6c-44.1,0-43.1,20.4-43.1,45.9v82.9h-12.6V58.2c0-33.8,2.3-57.7,55.7-57.7C325.6,0.5,328.9,24.5,328.9,57.2z"/>
			<path d="M352.3,3.5h12.3v137.6h-12.3V3.5z"/>
			<path d="M387.7,3.5h64.4c32,0,46.4,15.9,46.4,44.1c0,28.4-14.3,45.7-46.6,45.7h-51.9v47.8h-12.3V3.5z M452.3,81c22.3,0,33.3-10.8,33.3-32.8c0-21.9-11.9-32.3-33.9-32.3h-51.7V81H452.3z"/>
			<path d="M512.9,71.8c0-40.6,11.6-71.8,63.5-71.8c53.7,0,55.5,36,55.2,74.1H525.3c0.3,33.5,8.6,58.5,52.2,58.5c23.2,0,33.8-6.3,45.1-14.6l7.1,9.3c-12.6,9.3-27.5,16.6-52.2,16.6C523,143.9,512.9,112.4,512.9,71.8z M525.6,62.5h93.8c-1.3-27.5-3-50.9-43.1-50.9C537.7,11.6,527.1,32.5,525.6,62.5z"/>
			<path d="M4.8,171c53.4,0,55.7-23.9,55.7-57.7V3.3H47.9v110c0,25.5,1,45.9-43.1,45.9c-1.7,0-3.3,0-4.8-0.1V171C1.6,171,3.1,171,4.8,171z"/>
		</g>
		<g>
			<path d="M690,141.8c-4.8,0-8.7-3.9-8.7-8.7c0-4.8,3.9-8.7,8.7-8.7c4.8,0,8.7,3.9,8.7,8.7C698.7,137.9,694.8,141.8,690,141.8L690,141.8z M690,125.5c-4.2,0-7.6,3.4-7.6,7.6c0,4.2,3.4,7.6,7.6,7.6c4.2,0,7.6-3.4,7.6-7.6C697.6,128.9,694.2,125.5,690,125.5L690,125.5z"/>
			<g>
				<path d="M690.6,134.2h-2.8v3.8h-1.3v-10h4.4c2.5,0,3.5,1,3.5,3c0,1.6-0.7,2.7-2.4,3l2.3,3.9h-1.4L690.6,134.2z M690.9,133c1.4,0,2.1-0.4,2.1-1.9c0-1.4-0.8-1.8-2.2-1.8h-3.1v3.6H690.9z"/>
			</g>
		</g>
	</g>
</g>
</svg>