<svg version="1.1" id="Layer_1" xmlns:x="ns_extend;" xmlns:i="ns_ai;" xmlns:graph="ns_graphs;" xmlns="http://www.w3.org/2000/svg" xmlns:xlink="http://www.w3.org/1999/xlink" x="0px" y="0px" viewBox="0 0 42.4 44.6" style="enable-background:new 0 0 42.4 44.6;" xml:space="preserve">
 <style type="text/css">
  .st0{fill:#E05420;}
 </style>
 <metadata>
  <sfw xmlns="ns_sfw;">
   <slices>
   </slices>
   <sliceSourceBounds bottomLeftOrigin="true" height="44.6" width="42.4" x="0" y="0.4">
   </sliceSourceBounds>
  </sfw>
 </metadata>
 <g>
  <path class="st0" d="M41.1,19.1c-0.9-0.8-2-1.3-3.2-1.3c-1.2,0-2.4,0.4-3.2,1.3c-0.9,0.9-1.4,2-1.3,3.3c0,1.2,0.4,2.4,1.3,3.2
		c0.9,0.8,2,1.3,3.2,1.2c1.2,0,2.3-0.4,3.2-1.2c0.9-0.8,1.4-2,1.3-3.2C42.5,21.1,42,19.9,41.1,19.1z">
  </path>
  <path class="st0" d="M24.9,22.3L40.5,1.5c-0.7-0.4-1.4-0.8-2.2-1C37.4,0.2,36.5,0,35.6,0c-1.3,0-2.5,0.2-3.7,0.7
		c-1.1,0.6-2.1,1.4-2.9,2.5L14.8,22.3L29,41.4c0.8,1,1.8,1.9,2.9,2.5c1.2,0.5,2.4,0.8,3.7,0.7c0.9,0,1.8-0.1,2.7-0.4
		c0.8-0.2,1.5-0.6,2.2-1L24.9,22.3z">
  </path>
  <path class="st0" d="M25.7,1.5c-0.7-0.4-1.4-0.8-2.2-1C22.7,0.2,21.7,0,20.8,0c-1.3,0-2.5,0.2-3.7,0.7c-1.1,0.6-2.1,1.4-2.9,2.5
		L0,22.3l14.2,19.1c0.8,1,1.8,1.9,2.9,2.5c1.2,0.5,2.4,0.8,3.7,0.7c0.9,0,1.8-0.1,2.7-0.4c0.8-0.2,1.5-0.6,2.2-1L10.1,22.3L25.7,1.5
		z">
  </path>
 </g>
</svg>