<svg xmlns="http://www.w3.org/2000/svg" viewBox="0 0 1090.75 161.64"><defs><style>.cls-1{fill:#e00;}</style></defs><title>Logo-Red_Hat-Marketplace-A-Red-RGB</title><g id="Two_lines" data-name="Two lines"><g id="Two_line_logo" data-name="Two line logo"><path class="cls-1" d="M318.62,52.37h25.45c11.12,0,18.64,6.72,18.64,16.56,0,7.36-4.48,13-11.52,15.36l12.48,24.08h-9.28l-11.6-23H327v23h-8.41ZM327,59.73V78.45h16.32c6.56,0,10.88-3.76,10.88-9.36s-4.32-9.36-10.88-9.36Z"/><path class="cls-1" d="M387.51,109.09A21,21,0,0,1,366.14,88c0-11.76,9-21,20.41-21,11.2,0,19.68,9.28,19.68,21.28v2.32H374.07a13.73,13.73,0,0,0,13.76,11.68,15.84,15.84,0,0,0,10.32-3.6l5.12,5A24.29,24.29,0,0,1,387.51,109.09ZM374.15,84.61h24.16c-1.2-6.24-6-10.88-11.92-10.88C380.23,73.73,375.35,78.13,374.15,84.61Z"/><path class="cls-1" d="M445.19,104.53A19.24,19.24,0,0,1,432.7,109c-11.51,0-20.56-9.2-20.56-21a20.73,20.73,0,0,1,33-17V52.37l8-1.76v57.76h-7.92Zm-11.36-2.48a14.7,14.7,0,0,0,11.28-4.88V78.69a14.92,14.92,0,0,0-11.28-4.8,14.08,14.08,0,0,0,0,28.16Z"/><path class="cls-1" d="M480.22,52.37h8.4v24h29.76v-24h8.4v56h-8.4V84H488.62v24.4h-8.4Z"/><path class="cls-1" d="M534.38,96.69c0-7.68,6.24-12.4,16.49-12.4A28.74,28.74,0,0,1,562,86.53V82.21c0-5.76-3.44-8.64-9.92-8.64-3.76,0-7.6,1-12.64,3.44l-3-6c6.08-2.88,11.36-4.16,16.72-4.16,10.56,0,16.65,5.2,16.65,14.56v27H562v-3.52a19.32,19.32,0,0,1-12.64,4.24C540.46,109.09,534.38,104.05,534.38,96.69Zm16.8,6.48A15.64,15.64,0,0,0,562,99.33v-7a21.12,21.12,0,0,0-10.48-2.48c-5.84,0-9.44,2.64-9.44,6.72C542.06,100.45,545.74,103.17,551.18,103.17Z"/><path class="cls-1" d="M582.7,74.37h-8.64V67.65h8.64V57.25l7.92-1.92V67.65h12v6.72h-12V96.45c0,4.16,1.69,5.68,6,5.68a15.74,15.74,0,0,0,5.85-1v6.72a26.5,26.5,0,0,1-7.6,1.2c-7.92,0-12.17-3.76-12.17-10.8Z"/><path class="cls-1" d="M636.3,67.17v41.2H625.58v-56h14.88l15.36,30.08,15.37-30.08h14.88v56h-11V67.25l-19.45,37.12Z"/><path class="cls-1" d="M692.62,96.29c0-7.92,6.4-12.64,17.12-12.64a33.71,33.71,0,0,1,10.16,1.6v-3c0-4.8-3-7.28-8.8-7.28-3.52,0-7.44,1.12-12.72,3.44l-4-8.08a43.46,43.46,0,0,1,18.56-4.48c11.28,0,17.76,5.6,17.76,15.44v27H719.9v-2.88a19.81,19.81,0,0,1-12.08,3.6C698.86,109.09,692.62,103.89,692.62,96.29Zm18.08,5a15.78,15.78,0,0,0,9.2-2.64V92.37a24.22,24.22,0,0,0-8.8-1.52c-5,0-8,2-8,5.2S706.06,101.25,710.7,101.25Z"/><path class="cls-1" d="M739,66.69h11v4.56a13.26,13.26,0,0,1,11.12-5.52,9.44,9.44,0,0,1,4.56,1v9.6a14,14,0,0,0-5.6-1.12A11,11,0,0,0,750,81.41v27H739Z"/><path class="cls-1" d="M771.58,52.37l11-2.4V84.29l18-17.6h12.4L793.42,85.81l20.72,22.56h-14l-17.6-19v19h-11Z"/><path class="cls-1" d="M834.38,109.17c-12.64,0-22.4-9.44-22.4-21.6A21.28,21.28,0,0,1,833.42,66c11.84,0,20.64,9.6,20.64,22.4v2.88H823A12,12,0,0,0,834.86,100a13.12,13.12,0,0,0,9.2-3.36l7.2,6.56A25,25,0,0,1,834.38,109.17ZM822.94,83.41h20.4C842,78.45,838,75,833.18,75,828.14,75,824.3,78.29,822.94,83.41Z"/><path class="cls-1" d="M864.86,75.89H856.3v-9.2h8.56V56.05l11-2.48V66.69h11.84v9.2H875.82V94.37c0,3.92,1.52,5.36,5.76,5.36a16.82,16.82,0,0,0,5.84-1v9A33.93,33.93,0,0,1,879,109c-9.29,0-14.09-4.24-14.09-12.4Z"/><path class="cls-1" d="M893.1,66.69h10.8v3.44a18.9,18.9,0,0,1,11.84-4,21.4,21.4,0,0,1-.32,42.8,20.72,20.72,0,0,1-11.36-3.28v19.44h-11Zm11,12.72v16.4A14,14,0,0,0,914,99.65a12.08,12.08,0,1,0,0-24.16A13.44,13.44,0,0,0,904.06,79.41Z"/><path class="cls-1" d="M954.62,108.37h-11v-56l11-2.4Z"/><path class="cls-1" d="M961.18,96.29c0-7.92,6.4-12.64,17.12-12.64a33.71,33.71,0,0,1,10.16,1.6v-3c0-4.8-3-7.28-8.8-7.28-3.52,0-7.44,1.12-12.72,3.44l-4-8.08a43.46,43.46,0,0,1,18.56-4.48c11.28,0,17.76,5.6,17.76,15.44v27h-10.8v-2.88a19.81,19.81,0,0,1-12.08,3.6C967.42,109.09,961.18,103.89,961.18,96.29Zm18.08,5a15.78,15.78,0,0,0,9.2-2.64V92.37a24.22,24.22,0,0,0-8.8-1.52c-5,0-8,2-8,5.2S974.62,101.25,979.26,101.25Z"/><path class="cls-1" d="M1037.9,94.93l6.56,6.8a23.13,23.13,0,0,1-17,7.44,21.64,21.64,0,1,1,0-43.28,23.44,23.44,0,0,1,17.28,7.44l-6.72,7.12c-3-3.36-6.4-5-10.32-5-6.32,0-11.2,5.28-11.2,12.16s5,12,11.44,12A12.93,12.93,0,0,0,1037.9,94.93Z"/><path class="cls-1" d="M1069,109.17c-12.64,0-22.4-9.44-22.4-21.6A21.28,21.28,0,0,1,1068.06,66c11.84,0,20.64,9.6,20.64,22.4v2.88h-31A12,12,0,0,0,1069.5,100a13.12,13.12,0,0,0,9.2-3.36l7.2,6.56A25,25,0,0,1,1069,109.17Zm-11.44-25.76H1078c-1.36-5-5.36-8.4-10.16-8.4C1062.78,75,1058.94,78.29,1057.58,83.41Z"/><g id="Hat_icon" data-name="Hat icon"><path id="Red_hat" data-name="Red hat" class="cls-1" d="M129,91.41c12.5,0,30.61-2.58,30.61-17.46a14,14,0,0,0-.31-3.42l-7.45-32.36c-1.72-7.12-3.23-10.35-15.74-16.6-9.7-5-30.82-13.15-37.07-13.15C93.19,8.42,91.46,16,84.56,16c-6.68,0-11.64-5.61-17.89-5.61-6,0-9.92,4.1-12.93,12.5,0,0-8.41,23.72-9.49,27.17A6.36,6.36,0,0,0,44,52C44,61.18,80.32,91.41,129,91.41ZM161.52,80c1.73,8.19,1.73,9.05,1.73,10.13,0,14-15.74,21.77-36.44,21.77-46.77,0-87.73-27.37-87.73-45.48a18.32,18.32,0,0,1,1.51-7.33C23.77,59.94,2,63,2,82.14c0,31.48,74.59,70.28,133.65,70.28,45.27,0,56.7-20.48,56.7-36.65C192.35,103.05,181.35,88.61,161.52,80Z"/></g><path id="Dividing_line" data-name="Dividing line" class="cls-1" d="M255.47,159.64a2.25,2.25,0,0,1-2.25-2.25V3.42a2.25,2.25,0,0,1,4.5,0v154A2.25,2.25,0,0,1,255.47,159.64Z"/></g></g></svg>