<?xml version="1.0" encoding="UTF-8" standalone="no"?>
<svg xmlns:inkscape="http://www.inkscape.org/namespaces/inkscape" xmlns:sodipodi="http://sodipodi.sourceforge.net/DTD/sodipodi-0.dtd" xmlns="http://www.w3.org/2000/svg" xmlns:svg="http://www.w3.org/2000/svg" id="Layer_1" viewBox="0 0 1792.84 285.64999" version="1.1" sodipodi:docname="NetScaler_logo.svg" inkscape:version="1.1.1 (3bf5ae0d25, 2021-09-20)" width="1792.84" height="285.64999">
  <defs id="defs4">
    <style id="style2">.cls-1{fill:#0c8ce2;}</style>
  </defs>
  <g id="g875" transform="translate(-115.39,-88.3)">
    <g id="g36">
      <g id="g28">
        <g id="g10">
          <path d="m 436.11,157.1 c -64.09,0 -102.35,40.38 -102.35,108.02 0,100.98 78.96,108.83 103.16,108.83 49.79,0 83.14,-24.25 94.03,-68.32 h -44.43 c -6.37,20.42 -22.21,30.35 -48.38,30.35 -35.26,0 -53.94,-18.66 -57.1,-57.03 l -0.08,-0.92 h 151.98 c 0.68,-3.93 1.08,-7.8 1.08,-14.93 0,-67.36 -35.68,-105.99 -97.9,-105.99 z m 50.66,91.06 H 381.34 l 0.1,-0.94 c 3.61,-34.12 22.24,-52.16 53.86,-52.16 31.62,0 50.07,19.03 51.44,52.21 l 0.04,0.88 z" id="path6"></path>
          <path d="m 540.73,199.92 h 35.21 v 111.74 c 0,40.52 21.77,61.07 64.71,61.07 10.68,0 20.46,-1.16 29.1,-3.44 v -37.26 c -7.11,0.72 -10.76,0.72 -15.34,0.72 -23.55,0 -28.37,-11.66 -28.37,-29.18 V 199.92 h 41.28 v -38.77 h -41.28 v -53.83 h -50.1 v 53.83 h -35.21 z" id="path8"></path>
        </g>
        <g id="g24">
          <path d="m 848.78,305.23 c 0.39,22.32 8.58,39.62 24.34,51.44 15.29,11.47 36.91,17.28 64.24,17.28 57.25,0 91.42,-24.34 91.42,-65.12 0,-30.73 -18.39,-48.7 -59.64,-58.26 l -40.06,-8.9 c -17.35,-3.3 -26.16,-11.35 -26.16,-23.9 0,-10.54 6.19,-23.11 35.65,-23.11 25.43,0 38.8,9.78 42.01,30.76 h 41.3 c -1.18,-43.43 -31.65,-68.31 -83.71,-68.31 -52.06,0 -83.73,23.56 -83.73,61.47 0,30.6 19.66,50.61 58.43,59.47 l 38.84,8.5 c 17.53,3.51 25.35,10.75 25.35,23.49 0,16.99 -13.81,26.35 -38.89,26.35 -26.82,0 -41.9,-10.48 -44.86,-31.16 z" id="path12"></path>
          <path d="m 1145.29,157.1 c -27.94,0 -53.35,9.05 -71.57,25.48 -21.2,19.12 -32.4,47.94 -32.4,83.35 0,35.41 11.2,64.04 32.4,82.94 18.14,16.17 43.55,25.08 71.57,25.08 25.61,0 85.81,-7.98 93.36,-81.67 h -45.31 c -5.14,25.95 -21.88,39.66 -48.46,39.66 -35.5,0 -56.7,-24.68 -56.7,-66.01 0,-41.33 21.2,-66.82 56.7,-66.82 26.69,0 43.44,13.57 48.46,39.26 h 45.29 c -8.45,-70.68 -62.05,-81.27 -93.34,-81.27 z" id="path14"></path>
          <path d="m 1352.91,193.04 c 26.53,0 38.89,10.81 38.89,34.03 v 4.45 c 0,11.23 -6.16,15.32 -27.44,18.24 l -39.26,5.26 c -35.66,4.88 -72.11,15.9 -72.11,60.67 0,36.47 24.95,58.24 66.74,58.24 52.5,0 71.49,-37.47 73.09,-41.68 h 0.2 v 37.64 h 48.08 V 225.05 c 0,-46.99 -26.82,-67.95 -86.97,-67.95 -60.15,0 -89.8,20.51 -89.8,62.69 v 8.46 h 46.87 v -3.6 c 0,-20.68 14.43,-31.61 41.72,-31.61 z M 1336.72,338 c -21.69,0 -33.63,-9.5 -33.63,-26.75 0,-15.06 9.64,-23.81 29.46,-26.74 l 33.58,-5.26 c 8.94,-1.23 21.14,-3.45 24.08,-8.49 l 1.58,-2.71 v 29.85 c 0,9.03 -5.6,18.99 -14.98,26.66 -10.61,8.67 -24.85,13.45 -40.1,13.45 z" id="path16"></path>
          <path d="m 1476.22,369.9 h 50.1 V 88.3 h -50.1 v 281.59 z" id="path18"></path>
          <path d="m 1654.49,157.1 c -64.09,0 -102.35,40.38 -102.35,108.02 0,100.98 78.96,108.83 103.16,108.83 49.79,0 83.14,-24.25 94.03,-68.32 h -44.43 c -6.37,20.42 -22.21,30.35 -48.38,30.35 -35.26,0 -53.94,-18.66 -57.1,-57.03 l -0.08,-0.92 h 151.97 c 0.68,-3.93 1.08,-7.8 1.08,-14.93 0,-67.36 -35.68,-105.99 -97.9,-105.99 z m 50.66,91.06 h -105.43 l 0.1,-0.94 c 3.61,-34.12 22.24,-52.16 53.86,-52.16 31.62,0 50.07,19.03 51.44,52.21 l 0.04,0.88 z" id="path20"></path>
          <path d="m 1778.21,369.9 h 50.1 v -97.09 c 0,-44.63 24.07,-71.27 64.39,-71.27 4.75,0 9.39,0.33 15.34,1.1 v -42.09 c -4.53,-1.22 -9.55,-1.82 -15.34,-1.82 -14.7,0 -52.57,5.06 -63.96,51.96 l -0.16,0.65 h -0.27 v -50.18 h -50.1 v 208.75 z" id="path22"></path>
        </g>
        <polygon class="cls-1" points="694.11,370.58 756.68,370.58 844.32,266.29 756.68,161.97 694.07,161.97 781.71,266.29 " id="polygon26"></polygon>
      </g>
      <g id="g34">
        <path d="m 1856.16,347.65 v -3.98 h 20.93 v 3.98 h -8.11 v 22.25 h -4.71 v -22.25 z" id="path30"></path>
        <path d="m 1880.72,343.67 h 5.81 l 7.79,19 h 0.31 l 7.79,-19 h 5.81 v 26.23 h -4.56 v -18.02 h -0.24 l -7.25,17.94 h -3.41 l -7.25,-17.98 h -0.24 v 18.06 h -4.56 z" id="path32"></path>
      </g>
    </g>
    <path d="m 259.06,369.9 h 50.1 V 238.41 c 0,-26.92 -7.03,-47.74 -20.9,-61.88 -12.47,-12.71 -30.28,-19.42 -51.5,-19.42 -45.56,0 -67.39,30.54 -70.98,46.69 l -0.15,0.67 h -0.14 v -43.3 h -50.1 v 208.75 h 50.1 V 250.57 c 0,-32.72 18.62,-52.25 49.82,-52.25 28.62,0 43.75,18.07 43.75,52.25 v 119.35 z" id="path38"></path>
  </g>
</svg>
