<svg version="1.2" xmlns="http://www.w3.org/2000/svg" viewBox="0 0 1512 1512" width="1512" height="1512">
	<title>safari-pinned-tab (5)-svg</title>
	<style>
		.s0 { fill: #005aff } 
		.s1 { fill: #fdfeff } 
	</style>
	<path id="Layer" fill-rule="evenodd" class="s0" d="m702.8 1512c-235.2 0-468.9 0-702.8 0 0-503.9 0-1007.7 0-1511.8 503.7 0 1007.3 0 1511.5 0 0 503.8 0 1007.8 0 1511.8-268.9 0-538.1 0-808.7 0zm-505-1357c-18.5-15.5-36.9-30.9-56.9-47.7 0 422.3 0 841.3 0 1260.6 66.3 0 131.6 0 198.8 0 0-277.5 0-554 0-833.4 344.8 291.3 687.1 580.4 1030.9 870.7 1-4.8 1.5-6.1 1.5-7.5 0-81.2 0.2-162.4-0.4-243.6 0-5.7-4.6-12.7-9.2-16.7-25.5-22.4-51.7-44-77.6-65.9-361.9-305-723.7-610.1-1087.1-916.5z"/>
	<path id="Layer" class="s1" d="m198.6 155.7c362.6 305.7 724.4 610.8 1086.3 915.8 25.9 21.9 52.1 43.5 77.6 65.9 4.6 4 9.2 11 9.2 16.7 0.6 81.2 0.4 162.4 0.4 243.6 0 1.4-0.5 2.7-1.5 7.5-343.8-290.3-686.1-579.4-1030.9-870.7 0 279.4 0 555.9 0 833.4-67.2 0-132.5 0-198.8 0 0-419.3 0-838.3 0-1260.6 20 16.8 38.4 32.2 57.7 48.4z"/>
</svg>