<svg version="1.2" xmlns="http://www.w3.org/2000/svg" viewBox="0 0 1570 369" width="1570" height="369">
	<title>logo (47)-svg</title>
	<style>
		.s0 { fill: #005aff } 
	</style>
	<path id="Layer" fill-rule="evenodd" class="s0" d="m1085.3 11.2h52v346.6h-52zm-375.9 173.3c0.2 110.2-78.6 179.2-180 179.2-101.4 0-180-69-180-179.2 0-105.5 78.6-179.2 180-179.2 101.4 0 179.9 79.2 180 179.2zm-180-129.9c-70.7 0-128.1 53.2-128.1 129.9 0 78.1 57.4 129.8 128.1 129.8 70.7 0 128.1-51.7 128.1-129.8 0-76.7-57.4-129.9-128.1-129.9zm-200.3 240.2v74.2l-276-247.7v236.4h-53.1v-357.7zm612.6-283.6h77.4l-193.4 173.2 193.4 173.3h-77.4l-193.1-173.3zm628.3 346.6h-57.2l-41.9-76.8h-189.5l-41.9 76.8h-57.2l69.3-127.9h192.1l-95.8-177.8 28.3-52.1z"/>
</svg>