<svg xmlns="http://www.w3.org/2000/svg" xmlns:xlink="http://www.w3.org/1999/xlink" viewBox="0 0 100 100" width="100%" height="100%" preserveAspectRatio="xMidYMid meet">
<desc>background:light</desc>
  <defs id="defs4">
    <linearGradient id="linearGradient4671">
      <stop style="stop-color:#ffd43b;stop-opacity:1" offset="0" id="stop4673"/>
      <stop style="stop-color:#ffe873;stop-opacity:1" offset="1" id="stop4675"/>
    </linearGradient>
    <linearGradient id="linearGradient4689">
      <stop style="stop-color:#5a9fd4;stop-opacity:1" offset="0" id="stop4691"/>
      <stop style="stop-color:#306998;stop-opacity:1" offset="1" id="stop4693"/>
    </linearGradient>
    <linearGradient xlink:href="#linearGradient4671" id="linearGradient1475" gradientUnits="userSpaceOnUse" x1="0" y1="0" x2="100" y2="0"/>
    <linearGradient xlink:href="#linearGradient4689" id="linearGradient1478" gradientUnits="userSpaceOnUse" x1="0" y1="0" x2="100" y2="0"/>
  </defs>
  <g id="g3835" transform="translate(-5, -5) scale(0.85)">
    <g id="g3826">
      <g id="g3873">
        <path style="fill:url(#linearGradient1478);fill-opacity:1" d="M60.510156,6.3979729C36.524156,6.5735343,8.2637263,28.829815,8.2196901,62.141701C8.1931191,82.24179,20.811474,98.288704,30.947656,105.49172V77.241723c0,-8.849902,7.657144,-16.656248,16.75,-16.65625h26.78125c7.454951,0,13.406253,-6.138164,13.40625,-13.625c0,-13.064821,-0.01026,-18.814434,-0.01026,-34.576301C80.939174,8.9382486,75.814122,6.3979729,60.510156,6.3979729Z" id="path1948"/>
        <path style="fill:url(#linearGradient1475);fill-opacity:1" d="m91.228906,14.471789v32.488684c0,9.230755,-7.825895,16.999999,-16.75,17h-26.78125c-7.335833,0,-13.462899,6.278701,-13.40625,13.625l0.232974,30.212287c7.121825,5.28383,16.891405,8.8011,27.373942,9.06045c16.992885,0.25185,31.36141,-6.42831,41.150638,-16.963937c5.82799,-6.535095,15.37729,-17.640645,15.72573,-37.38436c0,-24.251398,-13.24237,-39.687095,-27.545784,-48.038124z" id="path1950"/>
      </g>
    </g>
  </g>
</svg>
