<svg xmlns="http://www.w3.org/2000/svg" role="img" viewBox="24.05 23.80 231.14 112.64">
  <title>Oracle_Cloud Infrastructure_stacked_rgb.svg</title>
  <style>svg {enable-background:new 0 0 279.8 160.3}</style>
  <style>.st0{fill:#c74634}</style>
  <path d="M124.7 47.2h14.7l-7.8-12.5-14.3 22.6h-6.5l17.4-27.2c.7-1.1 2-1.8 3.4-1.8s2.6.6 3.4 1.7l17.4 27.2h-6.5l-3.1-5.1h-14.9l-3.2-4.9m67.4 5.1V28.7h-5.5v25.9c0 .7.3 1.4.8 1.9s1.2.8 2 .8h25.1l3.3-5.1h-25.7M101 48c5.4 0 9.7-4.3 9.7-9.7s-4.3-9.7-9.7-9.7H76.9v28.7h5.5V33.7h18.2c2.6 0 4.6 2.1 4.6 4.6 0 2.6-2.1 4.7-4.6 4.7H85.1l16.5 14.3h8L98.5 48h2.5m-58 9.3h16.7C67.6 57.3 74 50.9 74 43s-6.4-14.3-14.3-14.3H43c-7.9 0-14.3 6.4-14.3 14.3S35.1 57.3 43 57.3m16.3-5H43.4c-5.1 0-9.3-4.2-9.3-9.3 0-5.1 4.1-9.3 9.3-9.3h15.9c5.1 0 9.3 4.1 9.3 9.3-.1 5.1-4.2 9.3-9.3 9.3m104.6 5h17l3.2-5h-19.8c-5.1 0-9.3-4.2-9.3-9.3 0-5.1 4.1-9.3 9.3-9.3h16.2l3.3-5.1H164c-7.9 0-14.4 6.4-14.4 14.3-.1 8 6.4 14.4 14.3 14.4m67.4-5c-4.2 0-7.8-2.9-8.9-6.7h23.5l3.2-5.1h-26.8c1.1-3.9 4.7-6.7 8.9-6.7h16.2l3.2-5.1h-19.8c-7.9 0-14.3 6.4-14.3 14.3s6.4 14.3 14.3 14.3h17l3.2-5h-19.7" class="st0"/>
  <path d="M124.7 47.2h14.7l-7.8-12.5-14.3 22.6h-6.5l17.4-27.2c.7-1.1 2-1.8 3.4-1.8s2.6.6 3.4 1.7l17.4 27.2h-6.5l-3.1-5.1h-14.9l-3.2-4.9m67.4 5.1V28.7h-5.5v25.9c0 .7.3 1.4.8 1.9s1.2.8 2 .8h25.1l3.3-5.1h-25.7M101 48c5.4 0 9.7-4.3 9.7-9.7s-4.3-9.7-9.7-9.7H76.9v28.7h5.5V33.7h18.2c2.6 0 4.6 2.1 4.6 4.6 0 2.6-2.1 4.7-4.6 4.7H85.1l16.5 14.3h8L98.5 48h2.5m-58 9.3h16.7C67.6 57.3 74 50.9 74 43s-6.4-14.3-14.3-14.3H43c-7.9 0-14.3 6.4-14.3 14.3S35.1 57.3 43 57.3m16.3-5H43.4c-5.1 0-9.3-4.2-9.3-9.3 0-5.1 4.1-9.3 9.3-9.3h15.9c5.1 0 9.3 4.1 9.3 9.3-.1 5.1-4.2 9.3-9.3 9.3m104.6 5h17l3.2-5h-19.8c-5.1 0-9.3-4.2-9.3-9.3 0-5.1 4.1-9.3 9.3-9.3h16.2l3.3-5.1H164c-7.9 0-14.4 6.4-14.4 14.3-.1 8 6.4 14.4 14.3 14.4m67.4-5c-4.2 0-7.8-2.9-8.9-6.7h23.5l3.2-5.1h-26.8c1.1-3.9 4.7-6.7 8.9-6.7h16.2l3.2-5.1h-19.8c-7.9 0-14.3 6.4-14.3 14.3s6.4 14.3 14.3 14.3h17l3.2-5h-19.7" class="st0"/>
  <path d="M31.2 131.6v-25.1h3.2v25.1h-3.2zm9.3 0v-18h2.1l.6 3.1c.8-1.1 1.7-2 2.8-2.6 1.1-.6 2.3-.9 3.7-.9 2.1 0 3.7.6 4.8 1.9 1.1 1.2 1.7 3 1.7 5.4v11.1H53v-11c0-3.1-1.4-4.7-4.1-4.7-1.1 0-2.2.4-3.2 1.1-1 .7-1.7 1.6-2.2 2.8v11.8h-3zm22.2 0v-15.4h-3.1v-1.6l3.1-1v-2c0-4 1.9-6.1 5.8-6.1.4 0 .9 0 1.3.1v2.4c-.3 0-.6-.1-1.1-.1-1.1 0-1.8.3-2.3.8-.4.6-.7 1.5-.7 2.7v2.1H70v2.6h-4.2v15.4h-3.1zm11.8 0v-18h2.1l.6 3.4c1.2-2.3 2.8-3.4 5-3.4.5 0 .9 0 1.2.1v2.7h-.8c-1.3 0-2.4.4-3.3 1.1-.9.7-1.5 1.8-1.8 3.2v10.9h-3zm24 0l-.5-2.9c-1.5 2.2-3.5 3.3-6 3.3-1.8 0-3.3-.5-4.4-1.5-1.1-1-1.6-2.4-1.6-4.1 0-1.9.6-3.3 1.9-4.4 1.3-1 3.1-1.6 5.4-1.6h4.1v-1.1c0-1.3-.3-2.2-.8-2.7-.6-.5-1.5-.8-2.9-.8-.9 0-1.8.1-2.8.3-1 .2-2.1.5-3.3.9v-2.5c.9-.4 1.9-.7 3-.9 1.1-.2 2.2-.3 3.2-.3 4.5 0 6.8 2 6.8 6v12.3h-2.1zm-6.2-2.1c1.1 0 2-.3 3-.9.9-.6 1.7-1.4 2.2-2.5v-3.4h-3.9c-1.6 0-2.7.3-3.5.8-.7.6-1.1 1.4-1.1 2.6 0 1 .3 1.9.9 2.5.6.6 1.4.9 2.4.9zm13 1.2v-2.6c1.1.5 2.1.8 2.9 1 .9.2 1.8.3 2.8.3 3 0 4.5-.9 4.5-2.7 0-.7-.2-1.3-.7-1.7-.4-.4-1.2-.8-2.3-1.1l-2.8-.8c-1.7-.5-2.9-1.1-3.6-1.9s-1.1-1.8-1.1-3.1c0-1.6.6-2.8 1.8-3.7 1.2-.9 2.9-1.4 5-1.4 1.1 0 2.2.1 3.1.3.9.2 1.8.4 2.4.8v2.6c-1.8-.7-3.6-1.1-5.4-1.1-2.6 0-3.9.8-3.9 2.3 0 .6.2 1.2.6 1.5s1.1.7 2.1 1l2.9.8c1.7.5 3 1.1 3.8 1.9.8.8 1.2 1.9 1.2 3.3 0 1.7-.7 3-2 4s-3.1 1.4-5.4 1.4c-1.1 0-2.2-.1-3.2-.3-1.1-.1-2-.4-2.7-.8zm18.6-4.6v-10h-3.1v-1.6l3.1-1 1.2-4.9h1.9v5h3.9v2.6H127v9.9c0 2 .8 3 2.6 3 .3 0 .5 0 .8-.1.3 0 .5-.1.7-.1v2.7c-.3.1-.6.1-1 .1H129c-1.8 0-3.1-.5-3.9-1.4-.8-.8-1.2-2.2-1.2-4.2zm11.8 5.5v-18h2.1l.6 3.4c1.2-2.3 2.8-3.4 5-3.4.5 0 .9 0 1.2.1v2.7h-.8c-1.3 0-2.4.4-3.3 1.1-.9.7-1.5 1.8-1.8 3.2v10.9h-3zm13.2-6.8v-11.1h3.1v11c0 1.5.3 2.7 1 3.5.7.8 1.6 1.2 2.9 1.2 1.1 0 2.1-.4 3.1-1.1 1-.7 1.7-1.7 2.2-3v-11.7h3.1v18h-2.1l-.6-3.1c-.7 1.1-1.7 2-2.8 2.6-1.1.6-2.3.9-3.6.9-2 0-3.5-.6-4.6-1.9-1.1-1.2-1.7-3-1.7-5.3zm33.9 3.4v2.6c-1.4.8-3.2 1.3-5.4 1.3-2.8 0-4.9-.8-6.3-2.4-1.4-1.6-2.1-4-2.1-7.2 0-2.9.7-5.2 2.2-6.8 1.5-1.6 3.6-2.4 6.3-2.4 1.7 0 3.3.4 4.7 1.1v2.6c-1.5-.8-2.9-1.1-4.2-1.1-3.9 0-5.9 2.2-5.9 6.6 0 2.4.5 4.2 1.4 5.3.9 1.1 2.3 1.7 4.3 1.7.8 0 1.6-.1 2.4-.3.8-.3 1.7-.6 2.6-1zm5.8-2.1v-10h-3.1v-1.6l3.1-1 1.2-4.9h1.9v5h3.9v2.6h-3.9v9.9c0 2 .8 3 2.6 3 .3 0 .5 0 .8-.1.3 0 .5-.1.7-.1v2.7c-.3.1-.6.1-1 .1h-1.1c-1.8 0-3.1-.5-3.9-1.4-.8-.8-1.2-2.2-1.2-4.2zm11.6-1.3v-11.1h3.1v11c0 1.5.3 2.7 1 3.5.7.8 1.6 1.2 2.9 1.2 1.1 0 2.1-.4 3.1-1.1 1-.7 1.7-1.7 2.2-3v-11.7h3.1v18h-2.1l-.6-3.1c-.7 1.1-1.7 2-2.8 2.6-1.1.6-2.3.9-3.6.9-2 0-3.5-.6-4.6-1.9-1.2-1.2-1.7-3-1.7-5.3zm21.2 6.8v-18h2.1l.6 3.4c1.2-2.3 2.8-3.4 5-3.4.5 0 .9 0 1.2.1v2.7h-.8c-1.3 0-2.4.4-3.3 1.1-.9.7-1.5 1.8-1.8 3.2v10.9h-3zm26.3-.9c-.6.4-1.5.7-2.6.9-1.1.2-2.2.3-3.5.3-2.8 0-5-.8-6.5-2.4-1.5-1.6-2.2-4-2.2-7.1 0-3 .7-5.3 2.1-6.9 1.4-1.6 3.4-2.3 6-2.3 5 0 7.5 2.8 7.5 8.3v2h-12.4c.1 2 .7 3.5 1.6 4.4.9.9 2.3 1.4 4.2 1.4 1 0 2-.1 2.9-.3.9-.2 1.9-.5 2.8-1v2.7zm-6.7-14.9c-1.5 0-2.7.5-3.5 1.4-.8.9-1.3 2.2-1.4 3.9h9.4c0-1.9-.4-3.2-1.1-4.1-.6-.8-1.8-1.2-3.4-1.2z" class="st0"/>
  <path d="M43 93.3h17l3.3-5H43.4c-2.4 0-4.8-1-6.5-2.8-1.7-1.7-2.7-4.1-2.7-6.5 0-2.4 1-4.8 2.7-6.5 1.7-1.7 4-2.7 6.5-2.8h16.2l3.3-5.1H43c-3.8 0-7.5 1.5-10.2 4.2-2.7 2.7-4.2 6.4-4.2 10.2 0 3.8 1.5 7.5 4.2 10.2 2.8 2.6 6.4 4.1 10.2 4.1zm28.4-4.9V64.7h-5.6v26c0 .3.1.7.2 1 .1.3.3.6.6.9.6.5 1.3.8 2 .8h25.2l3.3-5.1H71.4v.1zm130 0h-14.3V69.9h14.3c2.5 0 4.8 1 6.6 2.7 1.8 1.7 2.7 4.1 2.7 6.6 0 1.2-.3 2.4-.7 3.5-.5 1.1-1.2 2.1-2 3-.9.9-1.9 1.5-3 2s-2.3.7-3.6.7zm.5-23.7h-20.2v26c0 .3.1.7.2 1s.3.6.6.9c.6.5 1.3.8 2 .8h17.4c3.8 0 7.4-1.5 10.1-4.2 2.7-2.7 4.2-6.3 4.2-10.1s-1.5-7.4-4.2-10.1c-2.6-2.8-6.3-4.3-10.1-4.3zm-75.5 23.7h-15.9c-1.2 0-2.4-.2-3.6-.7s-2.2-1.2-3-2c-.9-.9-1.6-1.9-2-3s-.7-2.3-.7-3.6c0-1.2.2-2.4.7-3.6.5-1.1 1.2-2.2 2-3 .9-.9 1.9-1.6 3-2s2.3-.7 3.6-.7h15.9c2.5 0 4.9 1 6.6 2.7 1.8 1.8 2.7 4.1 2.7 6.6s-1 4.9-2.7 6.6-4.1 2.7-6.6 2.7zm-16.3 4.9h16.7c3.8 0 7.4-1.5 10.1-4.2 2.7-2.7 4.2-6.3 4.2-10.1s-1.5-7.4-4.2-10.1c-2.7-2.7-6.3-4.2-10.1-4.2h-16.7c-3.8 0-7.4 1.5-10.1 4.2-2.7 2.7-4.2 6.3-4.2 10.1s1.5 7.4 4.2 10.1c2.7 2.7 6.3 4.2 10.1 4.2zm53.8 0h-5.6c-1.9 0-3.7-.4-5.5-1.1-1.7-.7-3.3-1.8-4.6-3.1-1.3-1.3-2.4-2.9-3.1-4.6-.7-1.7-1.1-3.6-1.1-5.5V64.5h5.5V79c0 2.3 1 4.6 2.6 6.2 1.7 1.7 3.9 2.6 6.2 2.6h5.6c2.3 0 4.6-1 6.2-2.6 1.7-1.7 2.6-3.9 2.6-6.2V64.5h5.4V79c0 1.9-.4 3.7-1.1 5.5-.7 1.7-1.8 3.3-3.1 4.6-1.3 1.3-2.9 2.4-4.7 3.1-1.5.8-3.4 1.1-5.3 1.1z" class="st0"/>
</svg>
