<svg xmlns="http://www.w3.org/2000/svg" width="720" height="720" viewBox="0 0 720 720" fill="none">
  <rect width="720" height="720" rx="130" fill="#26C152"/>
  <path d="M182.702 557.898H135.032V319.247C134.754 310.453 136.273 301.695 139.496 293.507C142.719 285.319 147.579 277.873 153.779 271.624C166.903 259.522 184.125 252.832 201.985 252.895H276.971C303.752 252.895 319.285 263.597 327.319 272.694C338.862 285.796 344.82 302.886 343.924 320.317V410.213C343.924 435.897 333.211 451.415 324.641 459.976C311.551 471.602 294.475 477.736 276.971 477.099H182.702V557.898ZM278.042 429.476C282.855 429.553 287.56 428.049 291.433 425.195C293.124 423.117 294.376 420.718 295.113 418.143C295.849 415.567 296.055 412.87 295.718 410.213V317.642C295.88 312.822 294.366 308.095 291.433 304.264C286.985 300.923 281.434 299.393 275.9 299.984H200.913C182.167 299.984 182.167 314.431 182.167 318.712V429.476H278.042ZM518.535 467.467H443.549C416.768 467.467 401.77 456.766 393.201 447.669C381.805 434.482 375.867 417.452 376.596 400.046V310.15C376.121 300.967 377.592 291.786 380.915 283.21C384.238 274.635 389.337 266.857 395.879 260.387C409.053 248.902 426.07 242.79 443.549 243.264H537.282V163H584.952V401.116C585.294 409.918 583.805 418.695 580.578 426.892C577.351 435.089 572.457 442.528 566.205 448.739C553.217 460.715 536.21 467.397 518.535 467.467ZM424.266 402.721C424.148 407.535 425.657 412.248 428.551 416.099C432.999 419.44 438.551 420.97 444.084 420.379H519.071C537.817 420.379 537.817 405.932 537.817 401.651V291.422H442.477C437.653 291.26 432.921 292.773 429.087 295.703C427.395 297.781 426.144 300.18 425.407 302.755C424.67 305.331 424.465 308.028 424.802 310.685L424.266 402.721Z" fill="white"/>
</svg>
