<svg xmlns="http://www.w3.org/2000/svg" width="700" height="200" viewBox="0 0 700 200">
  <g id="Group_13643" transform="translate(17966 11791)">
    <g id="Group_13631" transform="translate(831 -52)">
      <rect id="Rectangle_13218" width="700" height="200" transform="translate(-18797 -11739)" fill="none"/>
    </g>
    <g id="Group_13634" transform="translate(-17960.9 -12234.84)">
      <g transform="translate(15.4 482.4)">
        <path id="Path_64516" d="M119.66,504.768h-.935A91.066,91.066,0,0,0,97.778,507.2a11.306,11.306,0,0,0-1.87-2.806,87.2,87.2,0,0,1,11.5-9.632,48.337,48.337,0,0,1,12.25,10.006m-53.4,62.842a10.007,10.007,0,0,0-5.33,2.431,83.57,83.57,0,0,1-11.409-14.214,10.794,10.794,0,0,0,1.029-16.833,90.507,90.507,0,0,1,28.242-21.789,8.894,8.894,0,0,0,1.4,1.87A93.371,93.371,0,0,0,66.263,567.61M80.1,487a53.05,53.05,0,0,1,24.314,5.891,88.146,88.146,0,0,0-10.941,9.445,10.729,10.729,0,0,0-5.424-1.5A10.855,10.855,0,0,0,77.2,511.688a11.788,11.788,0,0,0,.374,2.618,93.262,93.262,0,0,0-29.644,22.911,10.108,10.108,0,0,0-7.668-.655A95.608,95.608,0,0,1,35.59,510.94,53.569,53.569,0,0,1,80.1,487M32.785,515.8a93.615,93.615,0,0,0,4.582,21.976,10.979,10.979,0,0,0-5.05,9.071,10.731,10.731,0,0,0,3.554,7.949,85.151,85.151,0,0,0-3.741,8.416,53.055,53.055,0,0,1-5.33-23.1A53.708,53.708,0,0,1,32.785,515.8m1.309,51.153a92.331,92.331,0,0,1,4.489-10.287,11.108,11.108,0,0,0,4.676,1.122,12.675,12.675,0,0,0,3.367-.561,86.382,86.382,0,0,0,12.157,15.149,10.741,10.741,0,0,0-1.777,5.985,10.855,10.855,0,0,0,10.848,10.848c.281,0,.561-.093.842-.093l.842,3.367a53.631,53.631,0,0,1-35.442-25.53m38.809,26c-.468-1.5-.842-2.992-1.216-4.489a10.431,10.431,0,0,0,4.115-2.805,97.784,97.784,0,0,0,14.027,6.92,54.247,54.247,0,0,1-9.632.935,60.685,60.685,0,0,1-7.294-.561m22.444-1.683a88.773,88.773,0,0,1-17.861-8.229,11.192,11.192,0,0,0,1.122-4.769,10.783,10.783,0,0,0-9.258-10.661,89.936,89.936,0,0,1,13.279-46.664,10.388,10.388,0,0,0,5.33,1.5,10.856,10.856,0,0,0,10.848-10.848,9.215,9.215,0,0,0-.187-1.59,88.932,88.932,0,0,1,20.106-2.244c1.216,0,2.431.094,3.554.094a53.2,53.2,0,0,1-26.932,83.415" transform="translate(-16.139 -482.698)" fill="#006ca8"/>
        <path id="Path_64517" d="M131.546,515.972a57.439,57.439,0,1,1-52.181-33.385,45.7,45.7,0,0,1,5.05.281,68.884,68.884,0,0,0-7.668-.468,61.439,61.439,0,1,0,61.346,61.439A60.3,60.3,0,0,0,131.546,515.972Z" transform="translate(-15.4 -482.4)" fill="#c52127"/>
        <path id="Path_64518" d="M197.926,528.7H187.639c-4.582,0-8.136,1.4-10.193,3.928v-3.367H170.9V588.55h6.92V560.776c1.683,1.964,4.4,2.805,8.884,2.805h10.38c11.97,0,16.552-4.115,16.552-14.775v-5.7C213.636,533.469,208.493,528.7,197.926,528.7Zm-10.941,5.985h10.848c7.481,0,8.977,2.993,8.977,8.51v6.359c0,6.826-3.179,8.136-9.351,8.136h-9.726c-5.892,0-9.819-1.4-9.819-8.229v-6.172C177.82,537.491,180.813,534.685,186.985,534.685Z" transform="translate(-25.484 -485.403)" fill="#c52127"/>
        <g id="Group_13589" transform="translate(193.857 30.486)">
          <path id="Path_64519" d="M249.819,528.092h-7.762c-5.7,0-9.913.748-12.438,4.114V515H222.7v47.412h6.92V543.241c0-6.826,2.244-9.258,14.869-9.258h1.4c10.38,0,11.128,2.9,11.128,7.107v21.321h6.92v-22.63C264.034,535.386,262.163,528.092,249.819,528.092Z" transform="translate(-222.7 -515)" fill="#c52127"/>
          <path id="Path_64520" d="M301.471,529h-7.762c-8.7,0-18.609,1.59-18.609,13.84v7.107c0,12.251,9.913,13.84,18.609,13.84h7.762c8.7,0,18.61-1.59,18.61-13.84V542.84C320.081,530.5,310.168,529,301.471,529ZM282.02,543.121c0-6.827,3.834-8.229,10.006-8.229h11.128c6.172,0,10.006,1.4,10.006,8.229v6.453c0,6.827-3.834,8.229-10.006,8.229H292.026c-6.172,0-10.006-1.4-10.006-8.229Z" transform="translate(-226.098 -515.908)" fill="#c52127"/>
          <path id="Path_64521" d="M355.236,529h-8.79c-8.229,0-16.646,1.683-16.646,13.84v7.014c0,12.437,8.51,14.027,15.991,14.027H355.7c7.949,0,17.02-1.216,17.02-10.38v-1.4H365.8v.748c-.281,4.115-2.057,5.144-9.164,5.144h-7.481c-9.539,0-12.344-1.87-12.344-8.51V548.17h35.91v-4.395C372.817,530.683,363.933,529,355.236,529ZM365.8,540.783v1.4h-28.9c.561-6.172,2.338-7.2,10.38-7.2h7.949C362.156,534.891,365.8,536.949,365.8,540.783Z" transform="translate(-229.645 -515.908)" fill="#c52127"/>
          <path id="Path_64522" d="M410.519,529h-8.136c-5.7,0-9.913.748-12.438,4.115v-3.647H383.4V563.32h6.92v-19.17c0-6.827,2.244-9.258,14.869-9.258h1.4c10.38,0,11.128,2.9,11.128,7.107V563.32h6.92v-22.63C424.64,536.294,422.863,529,410.519,529Z" transform="translate(-233.122 -515.908)" fill="#c52127"/>
          <rect id="Rectangle_13199" width="6.92" height="7.481" transform="translate(201.057)" fill="#c52127"/>
          <rect id="Rectangle_13200" width="6.92" height="33.852" transform="translate(201.057 13.56)" fill="#c52127"/>
          <path id="Path_64523" d="M477.335,545.3l16.085-15.8h-9.632L472.379,541,460.97,529.5h-9.632l16.178,15.8L449,563.352h10.006l13.373-13.747,13.466,13.747h10.006Z" transform="translate(-237.376 -515.94)" fill="#c52127"/>
        </g>
        <g id="Group_13590" transform="translate(459.907 30.486)">
          <path id="Path_64524" d="M558.54,554.276,517.58,515H507.2v47.412h7.762V523.136l40.96,39.276h10.287V515H558.54Z" transform="translate(-507.2 -515)" fill="#006ca7"/>
          <path id="Path_64525" d="M611.951,515h-8.6L575.2,562.412h8.79l5.7-9.726H625.6l5.7,9.726h8.79l-27.961-47.038Zm9.819,31.14H593.622l14.121-23.846Z" transform="translate(-511.61 -515)" fill="#006ca7"/>
          <path id="Path_64526" d="M688.428,515H649.9v47.412h7.762V544.364h29.644c14.308,0,15.056-6.078,15.056-16.084C702.269,517.151,697.219,515,688.428,515Zm-30.766,6.546h29.363c5.7,0,7.575,1.5,7.575,5.985v4.4c0,4.021-2.151,5.8-7.107,5.8H657.662Z" transform="translate(-516.454 -515)" fill="#006ca7"/>
        </g>
        <g id="Group_13591" transform="translate(649.648 33.104)">
          <path id="Path_64527" d="M710.1,522.476a4.188,4.188,0,0,1,.374-1.87,5.346,5.346,0,0,1,1.028-1.5,4.073,4.073,0,0,1,1.5-.935,4.406,4.406,0,0,1,3.554,0,8.066,8.066,0,0,1,1.5.935,7.751,7.751,0,0,1,1.029,1.4,3.8,3.8,0,0,1,.374,1.777,4.188,4.188,0,0,1-.374,1.87,5.341,5.341,0,0,1-1.029,1.5,4.071,4.071,0,0,1-1.5.935,4.407,4.407,0,0,1-3.554,0,8.071,8.071,0,0,1-1.5-.935,7.731,7.731,0,0,1-1.028-1.4A3.56,3.56,0,0,1,710.1,522.476Zm.748,0a3.878,3.878,0,0,0,.28,1.5,4.136,4.136,0,0,0,2.058,2.057,4.129,4.129,0,0,0,2.992,0,4.131,4.131,0,0,0,2.057-2.057,4.371,4.371,0,0,0,.28-1.59,4.754,4.754,0,0,0-.28-1.59,2.852,2.852,0,0,0-.841-1.216,3.564,3.564,0,0,0-1.216-.842,4.13,4.13,0,0,0-2.992,0,4.136,4.136,0,0,0-2.058,2.057A5.758,5.758,0,0,0,710.848,522.476ZM713,519.857h1.964a1.94,1.94,0,0,1,1.4.374,1.549,1.549,0,0,1,.468,1.122,1.166,1.166,0,0,1-.374,1.029,1.7,1.7,0,0,1-1.029.374l1.5,2.338h-.841l-1.5-2.245h-.935v2.245h-.748v-5.237Zm.748,2.338h1.5a4.066,4.066,0,0,0,.468-.093c.094-.094.281-.187.281-.281a1.216,1.216,0,0,0,0-.935l-.281-.281a.564.564,0,0,0-.374-.093h-1.59Z" transform="translate(-710.1 -517.8)" fill="#231f20"/>
        </g>
      </g>
      <g transform="translate(178.49 573.016)">
        <g id="Group_13592" transform="translate(0 0)">
          <path id="Path_64528" d="M209.158,583.321a9.622,9.622,0,0,0-2.9-1.59,12.426,12.426,0,0,0-3.928-.561,11.517,11.517,0,0,0-4.115.655,9.9,9.9,0,0,0-3.086,1.777,8.752,8.752,0,0,0-1.964,2.619,8.049,8.049,0,0,0,0,6.359,7.726,7.726,0,0,0,1.964,2.618,8.364,8.364,0,0,0,3.086,1.777,11.516,11.516,0,0,0,4.115.655,15.769,15.769,0,0,0,6.64-1.4v-6.453h-5.7V588H211.4v9.445a21.082,21.082,0,0,1-4.489,1.5,20.341,20.341,0,0,1-4.676.468,16.684,16.684,0,0,1-4.956-.748,13.061,13.061,0,0,1-3.928-2.057,10.582,10.582,0,0,1-2.618-3.18,9.113,9.113,0,0,1,0-8.042,9.563,9.563,0,0,1,2.618-3.18,13.25,13.25,0,0,1,3.928-2.15,16.684,16.684,0,0,1,4.956-.748,15.544,15.544,0,0,1,4.956.654,11.038,11.038,0,0,1,3.741,1.964Z" transform="translate(-189.8 -579.3)" fill="#231f20"/>
          <path id="Path_64529" d="M229.831,597.187h11.222v1.777H227.4V579.7h2.431Z" transform="translate(-192.238 -579.326)" fill="#231f20"/>
          <path id="Path_64530" d="M276.575,589.4a8.23,8.23,0,0,1-.935,4.021,9.559,9.559,0,0,1-2.618,3.18,11.259,11.259,0,0,1-3.928,2.057,16.789,16.789,0,0,1-9.913,0,13.063,13.063,0,0,1-3.928-2.057,10.583,10.583,0,0,1-2.618-3.18,9.113,9.113,0,0,1,0-8.042,9.564,9.564,0,0,1,2.618-3.18,13.251,13.251,0,0,1,3.928-2.15,16.791,16.791,0,0,1,9.913,0,11.434,11.434,0,0,1,3.928,2.15,10.592,10.592,0,0,1,2.618,3.18A9.421,9.421,0,0,1,276.575,589.4Zm-2.712,0a7.457,7.457,0,0,0-.655-3.18,7.724,7.724,0,0,0-1.964-2.618,8.358,8.358,0,0,0-3.086-1.777,13.259,13.259,0,0,0-8.229,0,9.9,9.9,0,0,0-3.086,1.777,8.752,8.752,0,0,0-1.964,2.618,8.05,8.05,0,0,0,0,6.359,7.723,7.723,0,0,0,1.964,2.618,8.365,8.365,0,0,0,3.086,1.777,13.259,13.259,0,0,0,8.229,0,9.9,9.9,0,0,0,3.086-1.777,8.752,8.752,0,0,0,1.964-2.618A7.455,7.455,0,0,0,273.863,589.4Z" transform="translate(-193.814 -579.3)" fill="#231f20"/>
          <path id="Path_64531" d="M291.1,579.8h7.2a14.528,14.528,0,0,1,2.9.281,8.243,8.243,0,0,1,2.431.842,4.624,4.624,0,0,1,1.777,1.5,3.978,3.978,0,0,1-.467,4.956,5.957,5.957,0,0,1-3.18,1.5v.093a6.7,6.7,0,0,1,4.021,1.4,4.308,4.308,0,0,1,1.4,3.367,5.944,5.944,0,0,1-.28,1.4,4.046,4.046,0,0,1-1.216,1.777,7.716,7.716,0,0,1-2.618,1.5,12.515,12.515,0,0,1-4.582.655h-7.294V579.8Zm2.431,8.416h4.956a11.448,11.448,0,0,0,1.777-.187,4.609,4.609,0,0,0,1.59-.561,3.986,3.986,0,0,0,1.122-1.029,2.9,2.9,0,0,0,.468-1.59,4.752,4.752,0,0,0-.187-.841,3.5,3.5,0,0,0-.655-1.122,4.194,4.194,0,0,0-1.59-.935,7.277,7.277,0,0,0-2.712-.374h-4.676v6.639Zm0,8.978h4.676a19.8,19.8,0,0,0,2.432-.187,9.656,9.656,0,0,0,1.964-.655,3.109,3.109,0,0,0,1.309-1.122,2.448,2.448,0,0,0,.468-1.59,2.908,2.908,0,0,0-1.5-2.806,8.454,8.454,0,0,0-4.489-.935h-4.956v7.294Z" transform="translate(-196.369 -579.332)" fill="#231f20"/>
          <path id="Path_64532" d="M321.005,599.064H318.2L328.674,579.8h2.338l10.474,19.264H338.68l-2.618-5.05H323.624Zm3.554-6.92h10.38l-5.237-10.1Z" transform="translate(-198.127 -579.332)" fill="#231f20"/>
          <path id="Path_64533" d="M356.531,597.187h11.222v1.777H354.1V579.7h2.431Z" transform="translate(-200.455 -579.326)" fill="#231f20"/>
          <path id="Path_64534" d="M400.031,599.064H397.6V579.8h2.431Z" transform="translate(-203.276 -579.332)" fill="#231f20"/>
          <path id="Path_64535" d="M422.374,599.07h-2.431V581.677H411.9V579.9h18.516v1.777h-8.042Z" transform="translate(-204.203 -579.339)" fill="#231f20"/>
          <path id="Path_64536" d="M472.3,582.96a5.85,5.85,0,0,0-4.676-1.87,12.659,12.659,0,0,0-1.87.187,5.26,5.26,0,0,0-1.683.655,4.576,4.576,0,0,0-1.216,1.122,2.9,2.9,0,0,0-.468,1.59,2.408,2.408,0,0,0,.935,2.058,12.711,12.711,0,0,0,2.244,1.216c.935.281,1.87.561,2.992.841a28.019,28.019,0,0,1,2.992.935,5.739,5.739,0,0,1,2.244,1.59,3.689,3.689,0,0,1,.935,2.712,4.018,4.018,0,0,1-.654,2.338,5.7,5.7,0,0,1-1.87,1.777,10.341,10.341,0,0,1-2.525,1.122,9.652,9.652,0,0,1-2.805.374,12.412,12.412,0,0,1-4.208-.654A9.048,9.048,0,0,1,459.3,596.8l2.244-1.309a4.832,4.832,0,0,0,2.151,1.683,7.315,7.315,0,0,0,3.273.654,12.7,12.7,0,0,0,1.87-.187,9.009,9.009,0,0,0,1.683-.655,3.5,3.5,0,0,0,1.216-1.122,2.828,2.828,0,0,0,.468-1.5,2.611,2.611,0,0,0-.561-1.683,4.139,4.139,0,0,0-1.4-1.122,9.576,9.576,0,0,0-1.964-.748l-2.244-.561c-.748-.187-1.5-.468-2.244-.655a9.565,9.565,0,0,1-1.964-.935,4.331,4.331,0,0,1-1.4-1.5,3.992,3.992,0,0,1-.561-2.245,4.319,4.319,0,0,1,.655-2.431,6.133,6.133,0,0,1,1.777-1.683,10.2,10.2,0,0,1,2.525-1.029,14.261,14.261,0,0,1,2.806-.28,11.643,11.643,0,0,1,3.741.561,8.568,8.568,0,0,1,3.086,1.777Z" transform="translate(-207.277 -579.313)" fill="#231f20"/>
          <path id="Path_64537" d="M491.231,597.187h12.905v1.777H488.8V579.7h14.869v1.777H491.231v6.546h11.689V589.8H491.231Z" transform="translate(-209.19 -579.326)" fill="#231f20"/>
          <path id="Path_64538" d="M520.431,599.064H518V579.8h7.388a11.321,11.321,0,0,1,5.8,1.309,4.246,4.246,0,0,1,2.151,3.834,4.442,4.442,0,0,1-1.59,3.367,7.86,7.86,0,0,1-4.582,1.59l6.92,9.164h-2.993l-6.546-8.978h-4.115Zm0-10.754h4.3a12.358,12.358,0,0,0,2.806-.281,5.329,5.329,0,0,0,1.777-.748,3.593,3.593,0,0,0,1.029-1.029,2.087,2.087,0,0,0,.281-1.309,3.3,3.3,0,0,0-.281-1.309,2.7,2.7,0,0,0-1.029-1.029,6.351,6.351,0,0,0-1.777-.748,11.8,11.8,0,0,0-2.806-.281h-4.3Z" transform="translate(-211.084 -579.332)" fill="#231f20"/>
          <path id="Path_64539" d="M554.08,596.071h0l7.949-16.272h2.618L555.3,599.064h-2.431L543.7,579.8h2.712Z" transform="translate(-212.751 -579.332)" fill="#231f20"/>
          <path id="Path_64540" d="M579.631,599.064H577.2V579.8h2.431Z" transform="translate(-214.923 -579.332)" fill="#231f20"/>
          <path id="Path_64541" d="M614.021,595.952a10.93,10.93,0,0,1-1.5,1.4,7.244,7.244,0,0,1-2.057,1.122,16.2,16.2,0,0,1-2.525.748,14.3,14.3,0,0,1-2.805.281,16.674,16.674,0,0,1-4.956-.748,13.054,13.054,0,0,1-3.928-2.057,10.574,10.574,0,0,1-2.618-3.18,9.11,9.11,0,0,1,0-8.042,9.553,9.553,0,0,1,2.618-3.18,15.737,15.737,0,0,1,3.928-2.151,16.682,16.682,0,0,1,4.956-.748,15.048,15.048,0,0,1,4.489.748,8.525,8.525,0,0,1,3.834,2.338l-2.151,1.309a5.117,5.117,0,0,0-1.029-.935c-.468-.281-.935-.561-1.5-.842a5.645,5.645,0,0,0-1.777-.561,6.688,6.688,0,0,0-1.87-.187,11.517,11.517,0,0,0-4.115.655,9.9,9.9,0,0,0-3.086,1.777,8.75,8.75,0,0,0-1.964,2.618,8.049,8.049,0,0,0,0,6.359,7.726,7.726,0,0,0,1.964,2.618,8.369,8.369,0,0,0,3.086,1.777,11.515,11.515,0,0,0,4.115.654,12.57,12.57,0,0,0,1.87-.093,13.63,13.63,0,0,0,1.87-.468,6.814,6.814,0,0,0,3.179-2.244Z" transform="translate(-215.928 -579.306)" fill="#231f20"/>
          <path id="Path_64542" d="M630.031,597.187h12.905v1.777H627.6V579.7h14.869v1.777H630.031v6.546h11.69V589.8h-11.69Z" transform="translate(-218.191 -579.326)" fill="#231f20"/>
          <path id="Path_64543" d="M668,582.96a5.851,5.851,0,0,0-4.676-1.87,12.65,12.65,0,0,0-1.87.187,5.259,5.259,0,0,0-1.684.655,4.574,4.574,0,0,0-1.216,1.122,2.9,2.9,0,0,0-.468,1.59,2.408,2.408,0,0,0,.936,2.058,12.708,12.708,0,0,0,2.244,1.216c.935.281,1.871.561,2.993.841a28,28,0,0,1,2.992.935,5.743,5.743,0,0,1,2.245,1.59,3.689,3.689,0,0,1,.935,2.712,4.02,4.02,0,0,1-.654,2.338,5.7,5.7,0,0,1-1.871,1.777,10.333,10.333,0,0,1-2.525,1.122,9.654,9.654,0,0,1-2.805.374,12.414,12.414,0,0,1-4.208-.654A9.048,9.048,0,0,1,655,596.8l2.245-1.309a4.831,4.831,0,0,0,2.151,1.683,7.317,7.317,0,0,0,3.273.654,12.708,12.708,0,0,0,1.87-.187,9.008,9.008,0,0,0,1.683-.655,3.5,3.5,0,0,0,1.216-1.122,2.828,2.828,0,0,0,.467-1.5,2.611,2.611,0,0,0-.561-1.683,4.14,4.14,0,0,0-1.4-1.122,9.571,9.571,0,0,0-1.964-.748l-2.244-.561c-.748-.187-1.5-.468-2.245-.655a9.556,9.556,0,0,1-1.964-.935,4.327,4.327,0,0,1-1.4-1.5,3.99,3.99,0,0,1-.561-2.245,4.318,4.318,0,0,1,.655-2.431,6.136,6.136,0,0,1,1.777-1.683,10.193,10.193,0,0,1,2.525-1.029,14.263,14.263,0,0,1,2.806-.28,11.643,11.643,0,0,1,3.741.561,8.567,8.567,0,0,1,3.086,1.777Z" transform="translate(-219.968 -579.313)" fill="#231f20"/>
        </g>
      </g>
    </g>
  </g>
</svg>
