<svg xmlns="http://www.w3.org/2000/svg" viewBox="0 0 130 130">
  <g>
    <path id="Path_64516" data-name="Path 64516" d="M119.66,504.768h-.935A91.066,91.066,0,0,0,97.778,507.2a11.306,11.306,0,0,0-1.87-2.806,87.2,87.2,0,0,1,11.5-9.632,48.337,48.337,0,0,1,12.25,10.006m-53.4,62.842a10.007,10.007,0,0,0-5.33,2.431,83.57,83.57,0,0,1-11.409-14.214,10.794,10.794,0,0,0,1.029-16.833,90.507,90.507,0,0,1,28.242-21.789,8.894,8.894,0,0,0,1.4,1.87A93.371,93.371,0,0,0,66.263,567.61M80.1,487a53.05,53.05,0,0,1,24.314,5.891,88.146,88.146,0,0,0-10.941,9.445,10.729,10.729,0,0,0-5.424-1.5A10.855,10.855,0,0,0,77.2,511.688a11.788,11.788,0,0,0,.374,2.618,93.262,93.262,0,0,0-29.644,22.911,10.108,10.108,0,0,0-7.668-.655A95.608,95.608,0,0,1,35.59,510.94,53.569,53.569,0,0,1,80.1,487M32.785,515.8a93.615,93.615,0,0,0,4.582,21.976,10.979,10.979,0,0,0-5.05,9.071,10.731,10.731,0,0,0,3.554,7.949,85.151,85.151,0,0,0-3.741,8.416,53.055,53.055,0,0,1-5.33-23.1A53.708,53.708,0,0,1,32.785,515.8m1.309,51.153a92.331,92.331,0,0,1,4.489-10.287,11.108,11.108,0,0,0,4.676,1.122,12.675,12.675,0,0,0,3.367-.561,86.382,86.382,0,0,0,12.157,15.149,10.741,10.741,0,0,0-1.777,5.985,10.855,10.855,0,0,0,10.848,10.848c.281,0,.561-.093.842-.093l.842,3.367a53.631,53.631,0,0,1-35.442-25.53m38.809,26c-.468-1.5-.842-2.992-1.216-4.489a10.431,10.431,0,0,0,4.115-2.805,97.784,97.784,0,0,0,14.027,6.92,54.247,54.247,0,0,1-9.632.935,60.685,60.685,0,0,1-7.294-.561m22.444-1.683a88.773,88.773,0,0,1-17.861-8.229,11.192,11.192,0,0,0,1.122-4.769,10.783,10.783,0,0,0-9.258-10.661,89.936,89.936,0,0,1,13.279-46.664,10.388,10.388,0,0,0,5.33,1.5,10.856,10.856,0,0,0,10.848-10.848,9.215,9.215,0,0,0-.187-1.59,88.932,88.932,0,0,1,20.106-2.244c1.216,0,2.431.094,3.554.094a53.2,53.2,0,0,1-26.932,83.415" transform="translate(-16.139 -482.698)" fill="#006ca8"/>
    <path id="Path_64517" data-name="Path 64517" d="M131.546,515.972a57.439,57.439,0,1,1-52.181-33.385,45.7,45.7,0,0,1,5.05.281,68.884,68.884,0,0,0-7.668-.468,61.439,61.439,0,1,0,61.346,61.439A60.3,60.3,0,0,0,131.546,515.972Z" transform="translate(-15.4 -482.4)" fill="#c52127"/>
  </g>
</svg>
