<svg xmlns="http://www.w3.org/2000/svg" viewBox="0 0 40 40" width="100%" height="100%" preserveAspectRatio="xMidYMid meet">
  <defs>
    <linearGradient x1="-3.467%" y1="-4.306%" x2="210.392%" y2="212.161%" id="a">
      <stop stop-color="#00B388" offset="0%"/>
      <stop stop-color="#00B097" offset="13.16%"/>
      <stop stop-color="#00A9BF" offset="51.16%"/>
      <stop stop-color="#00A5D7" offset="81.43%"/>
      <stop stop-color="#00A3E0" offset="100%"/>
    </linearGradient>
    <linearGradient x1="-110.425%" y1="-109.345%" x2="103.434%" y2="104.514%" id="b">
      <stop stop-color="#00B388" offset="0%"/>
      <stop stop-color="#00B097" offset="13.16%"/>
      <stop stop-color="#00A9BF" offset="51.16%"/>
      <stop stop-color="#00A5D7" offset="81.43%"/>
      <stop stop-color="#00A3E0" offset="100%"/>
    </linearGradient>
    <linearGradient x1="-110.655%" y1="-109.117%" x2="103.204%" y2="104.742%" id="c">
      <stop stop-color="#00B388" offset="0%"/>
      <stop stop-color="#00B097" offset="13.16%"/>
      <stop stop-color="#00A9BF" offset="51.16%"/>
      <stop stop-color="#00A5D7" offset="81.43%"/>
      <stop stop-color="#00A3E0" offset="100%"/>
    </linearGradient>
    <linearGradient x1="-480.077%" y1="-332.966%" x2="349.632%" y2="250.643%" id="d">
      <stop stop-color="#00B388" offset="0%"/>
      <stop stop-color="#00B097" offset="13.16%"/>
      <stop stop-color="#00A9BF" offset="51.16%"/>
      <stop stop-color="#00A5D7" offset="81.43%"/>
      <stop stop-color="#00A3E0" offset="100%"/>
    </linearGradient>
    <linearGradient x1="-762.162%" y1="-487.336%" x2="67.552%" y2="88.137%" id="e">
      <stop stop-color="#00B388" offset="0%"/>
      <stop stop-color="#00B097" offset="13.16%"/>
      <stop stop-color="#00A9BF" offset="51.16%"/>
      <stop stop-color="#00A5D7" offset="81.43%"/>
      <stop stop-color="#00A3E0" offset="100%"/>
    </linearGradient>
    <linearGradient x1="-301.557%" y1="-301.641%" x2="101.859%" y2="101.775%" id="f">
      <stop stop-color="#00B388" offset="0%"/>
      <stop stop-color="#00B097" offset="13.16%"/>
      <stop stop-color="#00A9BF" offset="51.16%"/>
      <stop stop-color="#00A5D7" offset="81.43%"/>
      <stop stop-color="#00A3E0" offset="100%"/>
    </linearGradient>
    <linearGradient x1="-328.292%" y1="-480.073%" x2="247.159%" y2="349.604%" id="g">
      <stop stop-color="#00B388" offset="0%"/>
      <stop stop-color="#00B097" offset="13.16%"/>
      <stop stop-color="#00A9BF" offset="51.16%"/>
      <stop stop-color="#00A5D7" offset="81.43%"/>
      <stop stop-color="#00A3E0" offset="100%"/>
    </linearGradient>
    <linearGradient x1="-249.244%" y1="-150.288%" x2="580.442%" y2="433.302%" id="h">
      <stop stop-color="#00B388" offset="0%"/>
      <stop stop-color="#00B097" offset="13.16%"/>
      <stop stop-color="#00A9BF" offset="51.16%"/>
      <stop stop-color="#00A5D7" offset="81.43%"/>
      <stop stop-color="#00A3E0" offset="100%"/>
    </linearGradient>
    <linearGradient x1="13.253%" y1="34.814%" x2="580.333%" y2="905.173%" id="i">
      <stop stop-color="#00B388" offset="0%"/>
      <stop stop-color="#00B097" offset="13.16%"/>
      <stop stop-color="#00A9BF" offset="51.16%"/>
      <stop stop-color="#00A5D7" offset="81.43%"/>
      <stop stop-color="#00A3E0" offset="100%"/>
    </linearGradient>
    <linearGradient x1="-1.67%" y1="-1.53%" x2="401.752%" y2="401.895%" id="j">
      <stop stop-color="#00B388" offset="0%"/>
      <stop stop-color="#00B097" offset="13.16%"/>
      <stop stop-color="#00A9BF" offset="51.16%"/>
      <stop stop-color="#00A5D7" offset="81.43%"/>
      <stop stop-color="#00A3E0" offset="100%"/>
    </linearGradient>
    <linearGradient x1="34.126%" y1="12.206%" x2="847.967%" y2="587.686%" id="k">
      <stop stop-color="#00B388" offset="0%"/>
      <stop stop-color="#00B097" offset="13.16%"/>
      <stop stop-color="#00A9BF" offset="51.16%"/>
      <stop stop-color="#00A5D7" offset="81.43%"/>
      <stop stop-color="#00A3E0" offset="100%"/>
    </linearGradient>
    <linearGradient x1="-493.976%" y1="-766.939%" x2="89.538%" y2="62.639%" id="l">
      <stop stop-color="#00B388" offset="0%"/>
      <stop stop-color="#00B097" offset="13.16%"/>
      <stop stop-color="#00A9BF" offset="51.16%"/>
      <stop stop-color="#00A5D7" offset="81.43%"/>
      <stop stop-color="#00A3E0" offset="100%"/>
    </linearGradient>
    <linearGradient x1="-151.947%" y1="-151.257%" x2="251.475%" y2="252.164%" id="m">
      <stop stop-color="#00B388" offset="0%"/>
      <stop stop-color="#00B097" offset="13.16%"/>
      <stop stop-color="#00A9BF" offset="51.16%"/>
      <stop stop-color="#00A5D7" offset="81.43%"/>
      <stop stop-color="#00A3E0" offset="100%"/>
    </linearGradient>
    <linearGradient x1="-151.808%" y1="-249.109%" x2="442.927%" y2="580.577%" id="n">
      <stop stop-color="#00B388" offset="0%"/>
      <stop stop-color="#00B097" offset="13.16%"/>
      <stop stop-color="#00A9BF" offset="51.16%"/>
      <stop stop-color="#00A5D7" offset="81.43%"/>
      <stop stop-color="#00A3E0" offset="100%"/>
    </linearGradient>
    <linearGradient x1="-151.284%" y1="-151.916%" x2="252.132%" y2="251.5%" id="o">
      <stop stop-color="#00B388" offset="0%"/>
      <stop stop-color="#00B097" offset="13.16%"/>
      <stop stop-color="#00A9BF" offset="51.16%"/>
      <stop stop-color="#00A5D7" offset="81.43%"/>
      <stop stop-color="#00A3E0" offset="100%"/>
    </linearGradient>
    <linearGradient x1="-3.101%" y1="-3.457%" x2="210.758%" y2="213.01%" id="p">
      <stop stop-color="#00B388" offset="0%"/>
      <stop stop-color="#00B097" offset="13.16%"/>
      <stop stop-color="#00A9BF" offset="51.16%"/>
      <stop stop-color="#00A5D7" offset="81.43%"/>
      <stop stop-color="#00A3E0" offset="100%"/>
    </linearGradient>
  </defs>
  <g fill="none">
    <path d="M18.745 11.146c-.28.277-.836.277-1.115 0L12.613 6.16c-.28-.276-.28-.83 0-1.107L17.63.208c.28-.277.836-.277 1.115 0l5.017 4.985c.277.276.277.83 0 1.107l-5.018 4.845h.001z" fill="url(#a)" transform="translate(.487 .07)"/>
    <path d="M18.745 35.654c-.28.277-.836.277-1.115 0l-5.017-4.985c-.28-.276-.28-.83 0-1.107l5.017-4.984c.28-.277.836-.277 1.115 0l5.017 4.985c.277.278.277.832 0 1.108l-5.018 4.985.001-.002z" fill="url(#b)" transform="translate(.487 .07)"/>
    <path d="M31.148 23.33c-.28.278-.836.278-1.115 0l-5.017-4.984c-.28-.277-.28-.83 0-1.107l5.017-4.985c.28-.277.836-.277 1.115 0l5.017 4.985c.28.277.28.83 0 1.107l-5.017 4.985z" fill="url(#c)" transform="translate(.487 .07)"/>
    <path d="M11.916 31.085c0-.416-.28-.554-.557-.277l-2.09 2.215c-.28.277-.28.693.14.97l1.95.83c.418.14.696 0 .696-.415v-3.323h-.14.001z" fill="url(#d)" transform="translate(.487 .07)"/>
    <path d="M26.967 33.993c.418-.14.418-.554.14-.97l-2.23-2.215c-.28-.277-.558-.14-.558.277v3.323c0 .415.28.692.697.415l1.95-.83h.001z" fill="url(#e)" transform="translate(.487 .07)"/>
    <path d="M30.451 24.854c0-.415-.418-.83-.836-.83h-4.46c-.418 0-.836.415-.836.83v4.43c0 .416.418.832.836.832h4.46c.418 0 .836-.416.836-.83v-4.432z" fill="url(#f)" transform="translate(.487 .07)"/>
    <path d="M34.353 9.208c-.14-.415-.557-.415-.975-.14l-2.23 2.217c-.28.277-.14.554.28.554h3.343c.418 0 .697-.277.418-.693l-.836-1.938z" fill="url(#g)" transform="translate(.487 .07)"/>
    <path d="M27.106 2.839c.28-.416.28-.83-.14-.97l-1.95-.83c-.418-.14-.697 0-.697.415v3.323c0 .416.28.554.558.277l2.23-2.215h-.001z" fill="url(#h)" transform="translate(.487 .07)"/>
    <path d="M2.997 9.069c-.418-.276-.836-.276-.976.14l-.975 1.8c-.14.414.14.69.557.69h3.345c.418 0 .558-.276.28-.553l-2.23-2.077h-.001z" fill="url(#i)" transform="translate(.487 .07)"/>
    <path d="M11.916 6.577c0-.415-.418-.83-.836-.83H6.76c-.418 0-.836.415-.836.83v4.43c0 .416.42.832.837.832h4.46c.417 0 .835-.416.835-.83V6.576h-.14z" fill="url(#j)" transform="translate(.487 .07)"/>
    <path d="M11.916 1.454c0-.415-.28-.692-.697-.415l-1.81.83c-.42.14-.56.554-.14.97l2.23 2.215c.278.277.556.14.556-.277V1.454h-.14.001z" fill="url(#k)" transform="translate(.487 .07)"/>
    <path d="M35.189 24.854c.14-.415 0-.692-.418-.692h-3.344c-.418 0-.558.278-.28.555l2.231 2.214c.28.277.697.277.976-.138l.836-1.94h-.001z" fill="url(#l)" transform="translate(.487 .07)"/>
    <path d="M11.916 24.854c0-.415-.418-.83-.836-.83H6.76c-.418 0-.836.415-.836.83v4.43c0 .416.42.832.837.832h4.46c.417 0 .835-.416.835-.83v-4.432h-.14z" fill="url(#m)" transform="translate(.487 .07)"/>
    <path d="M5.087 24.577c.28-.277.14-.554-.278-.554H1.603c-.418 0-.696.277-.418.693l.836 1.938c.14.415.558.415.976.14l2.09-2.217z" fill="url(#n)" transform="translate(.487 .07)"/>
    <path d="M30.451 11.008c0 .415-.418.83-.836.83h-4.46c-.418 0-.836-.415-.836-.83v-4.43c0-.416.418-.832.836-.832h4.46c.418 0 .836.416.836.83v4.432z" fill="url(#o)" transform="translate(.487 .07)"/>
    <path d="M6.343 23.33c-.28.278-.837.278-1.116 0L.21 18.347c-.28-.277-.28-.83 0-1.107l5.017-4.846c.28-.277.836-.277 1.115 0l5.016 4.984c.278.277.278.83 0 1.108L6.343 23.33z" fill="url(#p)" transform="translate(.487 .07)"/>
  </g>
</svg>
