<?xml version="1.0" encoding="UTF-8"?>
<svg xmlns="http://www.w3.org/2000/svg" xmlns:xlink="http://www.w3.org/1999/xlink" version="1.1" viewBox="0 0 294.47 83.75">
  <defs>
    <style>
      .st0 {
        fill: url(#New_Gradient_Swatch_210);
      }

      .st1 {
        fill: url(#New_Gradient_Swatch_211);
      }

      .st2 {
        fill: url(#New_Gradient_Swatch_212);
      }

      .st3 {
        fill: url(#New_Gradient_Swatch_213);
      }

      .st4 {
        fill: #696969;
      }

      .st5 {
        fill: url(#New_Gradient_Swatch_21);
      }

      .st6 {
        fill: url(#New_Gradient_Swatch_22);
      }

      .st7 {
        fill: url(#New_Gradient_Swatch_23);
      }

      .st8 {
        fill: url(#New_Gradient_Swatch_24);
      }

      .st9 {
        fill: url(#New_Gradient_Swatch_25);
      }

      .st10 {
        fill: url(#New_Gradient_Swatch_26);
      }

      .st11 {
        fill: url(#New_Gradient_Swatch_27);
      }

      .st12 {
        fill: url(#New_Gradient_Swatch_28);
      }

      .st13 {
        fill: url(#New_Gradient_Swatch_29);
      }

      .st14 {
        fill: #fff;
      }

      .st15 {
        fill: url(#New_Gradient_Swatch_2);
      }

      .st16 {
        fill: #e15d28;
      }

      .st17 {
        display: none;
      }
    </style>
    <linearGradient id="New_Gradient_Swatch_2" data-name="New Gradient Swatch 2" x1="168.23" y1="31.82" x2="192.72" y2="31.82" gradientUnits="userSpaceOnUse">
      <stop offset="0" stop-color="#0f4d8e"></stop>
      <stop offset="1" stop-color="#059bd8"></stop>
    </linearGradient>
    <linearGradient id="New_Gradient_Swatch_21" data-name="New Gradient Swatch 2" x1="155.7" x2="180.19" xlink:href="#New_Gradient_Swatch_2"></linearGradient>
    <linearGradient id="New_Gradient_Swatch_22" data-name="New Gradient Swatch 2" x1="155.7" x2="180.19" xlink:href="#New_Gradient_Swatch_2"></linearGradient>
    <linearGradient id="New_Gradient_Swatch_23" data-name="New Gradient Swatch 2" x1="14.85" x2="77.16" xlink:href="#New_Gradient_Swatch_2"></linearGradient>
    <linearGradient id="New_Gradient_Swatch_24" data-name="New Gradient Swatch 2" x1="155.7" x2="180.19" xlink:href="#New_Gradient_Swatch_2"></linearGradient>
    <linearGradient id="New_Gradient_Swatch_25" data-name="New Gradient Swatch 2" x1="14.85" x2="77.16" xlink:href="#New_Gradient_Swatch_2"></linearGradient>
    <linearGradient id="New_Gradient_Swatch_26" data-name="New Gradient Swatch 2" x1="155.7" x2="180.19" xlink:href="#New_Gradient_Swatch_2"></linearGradient>
    <linearGradient id="New_Gradient_Swatch_27" data-name="New Gradient Swatch 2" x1="14.85" x2="77.16" xlink:href="#New_Gradient_Swatch_2"></linearGradient>
    <linearGradient id="New_Gradient_Swatch_28" data-name="New Gradient Swatch 2" x1="155.7" x2="180.19" xlink:href="#New_Gradient_Swatch_2"></linearGradient>
    <linearGradient id="New_Gradient_Swatch_29" data-name="New Gradient Swatch 2" x1="14.85" x2="77.16" xlink:href="#New_Gradient_Swatch_2"></linearGradient>
    <linearGradient id="New_Gradient_Swatch_210" data-name="New Gradient Swatch 2" x1="155.7" x2="180.19" xlink:href="#New_Gradient_Swatch_2"></linearGradient>
    <linearGradient id="New_Gradient_Swatch_211" data-name="New Gradient Swatch 2" x1="14.85" x2="77.16" xlink:href="#New_Gradient_Swatch_2"></linearGradient>
    <linearGradient id="New_Gradient_Swatch_212" data-name="New Gradient Swatch 2" x1="155.7" x2="180.19" xlink:href="#New_Gradient_Swatch_2"></linearGradient>
    <linearGradient id="New_Gradient_Swatch_213" data-name="New Gradient Swatch 2" x1="14.85" x2="77.16" xlink:href="#New_Gradient_Swatch_2"></linearGradient>
  </defs>
  <g id="bg_x5F_for_rendering" class="st17">
    <rect x="-15.92" y="-10.93" width="319.81" height="99.58"></rect>
  </g>
  <g id="white_x5F_acumera" class="st17">
    <g>
      <g>
        <g>
          <path class="st14" d="M94.77,59.47c1.07,0,1.85.34,2.58.99.1.09.1.21.01.3l-.65.67c-.07.09-.18.09-.27,0-.45-.39-1.04-.63-1.64-.63-1.36,0-2.37,1.14-2.37,2.48s1.02,2.46,2.38,2.46c.64,0,1.18-.24,1.63-.61.09-.07.2-.06.27,0l.66.68c.08.07.06.21-.01.29-.72.7-1.64,1.03-2.59,1.03-2.13,0-3.84-1.69-3.84-3.82s1.71-3.84,3.84-3.84Z"></path>
          <path class="st14" d="M116.91,59.47c2.13,0,3.83,1.71,3.83,3.84s-1.7,3.82-3.83,3.82-3.82-1.69-3.82-3.82,1.69-3.84,3.82-3.84ZM116.91,65.75c1.34,0,2.45-1.1,2.45-2.44s-1.11-2.46-2.45-2.46-2.44,1.12-2.44,2.46,1.1,2.44,2.44,2.44Z"></path>
          <path class="st14" d="M137.8,59.63c.01-.09.07-.16.19-.16h.17c.09,0,.15.04.18.11l2.34,5.02h.03l2.34-5.02c.03-.06.08-.11.18-.11h.17c.12,0,.18.07.19.16l1.25,7.15c.03.15-.05.24-.19.24h-.97c-.1,0-.18-.08-.2-.16l-.63-4.03h-.03l-1.86,4.18c-.02.06-.09.12-.18.12h-.19c-.1,0-.15-.05-.18-.12l-1.88-4.18h-.03l-.62,4.03c-.01.07-.1.16-.19.16h-.96c-.14,0-.22-.1-.2-.24l1.27-7.15Z"></path>
          <path class="st14" d="M161.21,59.77c0-.11.09-.2.2-.2h2.5c1.31,0,2.38,1.06,2.38,2.35s-1.07,2.39-2.37,2.39h-1.33v2.5c0,.11-.1.2-.2.2h-.98c-.12,0-.2-.1-.2-.2v-7.04ZM163.83,63.02c.6,0,1.1-.48,1.1-1.11,0-.59-.5-1.03-1.1-1.03h-1.23v2.14h1.23Z"></path>
          <path class="st14" d="M182.3,59.77c0-.11.1-.2.2-.2h1.01c.12,0,.2.1.2.2v4.35c0,.9.62,1.62,1.54,1.62s1.55-.71,1.55-1.61v-4.36c0-.11.09-.2.2-.2h1.01c.11,0,.2.1.2.2v4.43c0,1.62-1.29,2.93-2.97,2.93s-2.96-1.31-2.96-2.93v-4.43Z"></path>
          <path class="st14" d="M205.95,60.85h-1.63c-.12,0-.2-.1-.2-.2v-.87c0-.11.09-.2.2-.2h4.65c.12,0,.2.1.2.2v.87c0,.11-.08.2-.2.2h-1.63v5.97c0,.11-.1.2-.2.2h-.99c-.11,0-.2-.1-.2-.2v-5.97Z"></path>
          <path class="st14" d="M225.18,59.77c0-.11.1-.2.2-.2h.99c.11,0,.2.1.2.2v7.04c0,.11-.1.2-.2.2h-.99c-.11,0-.2-.1-.2-.2v-7.04Z"></path>
          <path class="st14" d="M243.41,59.66c0-.11.1-.19.2-.19h.27l4.43,4.7h.01v-4.4c0-.11.09-.2.2-.2h.98c.11,0,.2.1.2.2v7.16c0,.11-.1.19-.2.19h-.26l-4.45-4.88h0v4.58c0,.11-.09.2-.2.2h-.97c-.11,0-.2-.1-.2-.2v-7.16Z"></path>
          <path class="st14" d="M269.82,59.47c.96,0,1.87.37,2.6.99.08.09.1.21.01.3l-.66.69c-.09.08-.18.08-.28,0-.46-.4-1.02-.62-1.61-.62-1.33,0-2.38,1.14-2.38,2.47s1.05,2.44,2.39,2.44c.6,0,1.05-.18,1.27-.27v-.9h-.85c-.12,0-.2-.08-.2-.19v-.84c0-.12.09-.2.2-.2h2.04c.11,0,.19.1.19.2v2.72c0,.08-.04.14-.08.17,0,0-1.1.69-2.64.69-2.12,0-3.82-1.68-3.82-3.81s1.7-3.84,3.82-3.84Z"></path>
          <polygon class="st15" points="185.35 12.05 192.72 12.05 175.6 51.59 168.23 51.59 185.35 12.05"></polygon>
          <polygon class="st5" points="172.83 12.05 180.19 12.05 163.08 51.59 155.7 51.59 172.83 12.05"></polygon>
          <path class="st14" d="M148.74,41.25c-2.32,2.44-5.55,4.03-9.18,4.21-7.52.38-13.93-5.4-14.32-12.93-.38-7.52,5.4-13.93,12.93-14.32,4.42-.23,8.45,1.68,11.11,4.81l4.86-3.75c-3.84-4.67-9.77-7.52-16.28-7.19-10.9.56-19.29,9.84-18.74,20.75.56,10.9,9.84,19.29,20.75,18.74,5.62-.29,10.57-2.9,13.97-6.85l-5.11-3.49Z"></path>
          <polygon class="st14" points="195.86 21.6 208.86 51.71 201.69 51.71 188.68 21.6 195.86 21.6"></polygon>
          <polygon class="st14" points="239.74 45.28 221.77 45.28 221.77 12.17 215.35 12.17 215.35 51.71 217.02 51.71 221.77 51.71 239.74 51.71 239.74 45.28"></polygon>
          <path class="st14" d="M104.17,28.7c-5.28-1.97-6.97-3.48-6.97-6.22,0-3.17,3.15-4.59,6.27-4.59,2.64,0,4.74.67,6.17,1.33l2.32-5.37c-1.47-.71-4.2-1.65-8.33-1.65-7.76,0-13.18,4.45-13.18,10.83,0,5.17,3.38,8.73,10.61,11.21,4.86,1.8,6.58,3.48,6.58,6.44,0,3.3-2.7,5.35-7.06,5.35-2.79,0-5.86-.83-8.24-2.21l-2.33,5.39.06.04c2.27,1.46,6.45,2.48,10.17,2.48,4.41,0,8.07-1.17,10.6-3.37,2.32-2.03,3.59-4.89,3.59-8.05,0-5.44-3.07-8.91-10.27-11.58Z"></path>
          <polygon class="st14" points="252.62 18.6 272.72 18.6 272.72 12.17 252.62 12.17 247.87 12.17 246.2 12.17 246.2 51.71 247.87 51.71 252.62 51.71 272.72 51.71 272.72 45.28 252.62 45.28 252.62 40.35 252.62 35.35 252.62 35.3 266.1 35.3 266.1 28.87 252.62 28.87 252.62 27.14 252.62 18.6"></polygon>
          <path class="st14" d="M46.01.66c-17.21,0-31.16,13.95-31.16,31.16,0,17.21,13.95,31.16,31.16,31.16,17.19,0,31.14-13.93,31.16-31.12.02-17.21-13.91-31.17-31.12-31.19-.01,0-.02,0-.04,0ZM27.99,51.53L44.96,12.33h7.3l-16.97,39.2h-7.3ZM47.72,51.53h-7.33L57.38,12.33h7.31l-16.96,39.2Z"></path>
        </g>
        <g>
          <path class="st14" d="M94.77,59.47c1.07,0,1.85.34,2.58.99.1.09.1.21.01.3l-.65.67c-.07.09-.18.09-.27,0-.45-.39-1.04-.63-1.64-.63-1.36,0-2.37,1.14-2.37,2.48s1.02,2.46,2.38,2.46c.64,0,1.18-.24,1.63-.61.09-.07.2-.06.27,0l.66.68c.08.07.06.21-.01.29-.72.7-1.64,1.03-2.59,1.03-2.13,0-3.84-1.69-3.84-3.82s1.71-3.84,3.84-3.84Z"></path>
          <path class="st14" d="M116.91,59.47c2.13,0,3.83,1.71,3.83,3.84s-1.7,3.82-3.83,3.82-3.82-1.69-3.82-3.82,1.69-3.84,3.82-3.84ZM116.91,65.75c1.34,0,2.45-1.1,2.45-2.44s-1.11-2.46-2.45-2.46-2.44,1.12-2.44,2.46,1.1,2.44,2.44,2.44Z"></path>
          <path class="st14" d="M137.8,59.63c.01-.09.07-.16.19-.16h.17c.09,0,.15.04.18.11l2.34,5.02h.03l2.34-5.02c.03-.06.08-.11.18-.11h.17c.12,0,.18.07.19.16l1.25,7.15c.03.15-.05.24-.19.24h-.97c-.1,0-.18-.08-.2-.16l-.63-4.03h-.03l-1.86,4.18c-.02.06-.09.12-.18.12h-.19c-.1,0-.15-.05-.18-.12l-1.88-4.18h-.03l-.62,4.03c-.01.07-.1.16-.19.16h-.96c-.14,0-.22-.1-.2-.24l1.27-7.15Z"></path>
          <path class="st14" d="M161.21,59.77c0-.11.09-.2.2-.2h2.5c1.31,0,2.38,1.06,2.38,2.35s-1.07,2.39-2.37,2.39h-1.33v2.5c0,.11-.1.2-.2.2h-.98c-.12,0-.2-.1-.2-.2v-7.04ZM163.83,63.02c.6,0,1.1-.48,1.1-1.11,0-.59-.5-1.03-1.1-1.03h-1.23v2.14h1.23Z"></path>
          <path class="st14" d="M182.3,59.77c0-.11.1-.2.2-.2h1.01c.12,0,.2.1.2.2v4.35c0,.9.62,1.62,1.54,1.62s1.55-.71,1.55-1.61v-4.36c0-.11.09-.2.2-.2h1.01c.11,0,.2.1.2.2v4.43c0,1.62-1.29,2.93-2.97,2.93s-2.96-1.31-2.96-2.93v-4.43Z"></path>
          <path class="st14" d="M205.95,60.85h-1.63c-.12,0-.2-.1-.2-.2v-.87c0-.11.09-.2.2-.2h4.65c.12,0,.2.1.2.2v.87c0,.11-.08.2-.2.2h-1.63v5.97c0,.11-.1.2-.2.2h-.99c-.11,0-.2-.1-.2-.2v-5.97Z"></path>
          <path class="st14" d="M225.18,59.77c0-.11.1-.2.2-.2h.99c.11,0,.2.1.2.2v7.04c0,.11-.1.2-.2.2h-.99c-.11,0-.2-.1-.2-.2v-7.04Z"></path>
          <path class="st14" d="M243.41,59.66c0-.11.1-.19.2-.19h.27l4.43,4.7h.01v-4.4c0-.11.09-.2.2-.2h.98c.11,0,.2.1.2.2v7.16c0,.11-.1.19-.2.19h-.26l-4.45-4.88h0v4.58c0,.11-.09.2-.2.2h-.97c-.11,0-.2-.1-.2-.2v-7.16Z"></path>
          <path class="st14" d="M269.82,59.47c.96,0,1.87.37,2.6.99.08.09.1.21.01.3l-.66.69c-.09.08-.18.08-.28,0-.46-.4-1.02-.62-1.61-.62-1.33,0-2.38,1.14-2.38,2.47s1.05,2.44,2.39,2.44c.6,0,1.05-.18,1.27-.27v-.9h-.85c-.12,0-.2-.08-.2-.19v-.84c0-.12.09-.2.2-.2h2.04c.11,0,.19.1.19.2v2.72c0,.08-.04.14-.08.17,0,0-1.1.69-2.64.69-2.12,0-3.82-1.68-3.82-3.81s1.7-3.84,3.82-3.84Z"></path>
          <polygon class="st14" points="185.35 12.05 192.72 12.05 175.6 51.59 168.23 51.59 185.35 12.05"></polygon>
          <polygon class="st14" points="172.83 12.05 180.19 12.05 163.08 51.59 155.7 51.59 172.83 12.05"></polygon>
          <path class="st14" d="M148.74,41.25c-2.32,2.44-5.55,4.03-9.18,4.21-7.52.38-13.93-5.4-14.32-12.93-.38-7.52,5.4-13.93,12.93-14.32,4.42-.23,8.45,1.68,11.11,4.81l4.86-3.75c-3.84-4.67-9.77-7.52-16.28-7.19-10.9.56-19.29,9.84-18.74,20.75.56,10.9,9.84,19.29,20.75,18.74,5.62-.29,10.57-2.9,13.97-6.85l-5.11-3.49Z"></path>
          <polygon class="st14" points="195.86 21.6 208.86 51.71 201.69 51.71 188.68 21.6 195.86 21.6"></polygon>
          <polygon class="st14" points="239.74 45.28 221.77 45.28 221.77 12.17 215.35 12.17 215.35 51.71 217.02 51.71 221.77 51.71 239.74 51.71 239.74 45.28"></polygon>
          <path class="st14" d="M104.17,28.7c-5.28-1.97-6.97-3.48-6.97-6.22,0-3.17,3.15-4.59,6.27-4.59,2.64,0,4.74.67,6.17,1.33l2.32-5.37c-1.47-.71-4.2-1.65-8.33-1.65-7.76,0-13.18,4.45-13.18,10.83,0,5.17,3.38,8.73,10.61,11.21,4.86,1.8,6.58,3.48,6.58,6.44,0,3.3-2.7,5.35-7.06,5.35-2.79,0-5.86-.83-8.24-2.21l-2.33,5.39.06.04c2.27,1.46,6.45,2.48,10.17,2.48,4.41,0,8.07-1.17,10.6-3.37,2.32-2.03,3.59-4.89,3.59-8.05,0-5.44-3.07-8.91-10.27-11.58Z"></path>
          <polygon class="st14" points="252.62 18.6 272.72 18.6 272.72 12.17 252.62 12.17 247.87 12.17 246.2 12.17 246.2 51.71 247.87 51.71 252.62 51.71 272.72 51.71 272.72 45.28 252.62 45.28 252.62 40.35 252.62 35.35 252.62 35.3 266.1 35.3 266.1 28.87 252.62 28.87 252.62 27.14 252.62 18.6"></polygon>
        </g>
      </g>
      <g>
        <path class="st14" d="M169.76,78.91l3.11-6.73c.03-.06.08-.11.17-.11h.1c.1,0,.14.05.17.11l3.08,6.73c.06.13-.02.26-.17.26h-.87c-.15,0-.22-.06-.29-.2l-.49-1.08h-2.99l-.49,1.08c-.04.1-.13.2-.29.2h-.87c-.15,0-.23-.13-.17-.26ZM174.08,76.79l-1-2.2h-.03l-.98,2.2h2.01Z"></path>
        <path class="st14" d="M177.84,75.37c0-.11.09-.19.19-.19h.38c.09,0,.14.05.17.12l.14.37c.15-.16.64-.59,1.41-.59,1.27,0,1.78.95,1.78,1.99v1.92c0,.1-.09.19-.19.19h-.82c-.11,0-.19-.09-.19-.19v-1.98c0-.52-.27-.85-.75-.85-.52,0-.84.36-.94.63v2.2c0,.14-.06.19-.25.19h-.74c-.1,0-.19-.09-.19-.19v-3.62Z"></path>
        <path class="st14" d="M185.84,78.91l3.11-6.73c.03-.06.08-.11.17-.11h.1c.1,0,.14.05.17.11l3.08,6.73c.06.13-.02.26-.17.26h-.87c-.15,0-.22-.06-.29-.2l-.49-1.08h-2.99l-.49,1.08c-.04.1-.13.2-.29.2h-.87c-.15,0-.23-.13-.17-.26ZM190.16,76.79l-1-2.2h-.03l-.98,2.2h2.01Z"></path>
        <path class="st14" d="M195.63,75.08c.62,0,1.1.25,1.48.71.07.09.05.21-.05.28l-.46.44c-.09.08-.18.03-.25-.03-.16-.18-.41-.32-.69-.32-.54,0-.98.46-.98,1.02s.43,1.02.97,1.02c.43,0,.62-.21.8-.38.07-.07.17-.09.25-.03l.43.37c.1.08.14.18.07.28-.34.53-.87.84-1.58.84-1.13,0-2.12-.9-2.12-2.1s1.01-2.1,2.13-2.1Z"></path>
        <path class="st14" d="M198.82,75.37c0-.11.09-.19.19-.19h.82c.1,0,.19.08.19.19v1.97c0,.53.27.86.73.86.42,0,.74-.39.8-.75v-2.08c0-.15.06-.19.22-.19h.76c.1,0,.19.08.19.19v3.62c0,.1-.09.19-.19.19h-.37c-.1,0-.16-.07-.19-.15l-.12-.33c-.18.16-.55.58-1.34.58-1.24,0-1.69-.95-1.69-1.97v-1.94Z"></path>
        <path class="st14" d="M204.74,75.37c0-.11.09-.19.19-.19h.37c.09,0,.15.05.17.11l.14.38c.17-.19.63-.59,1.34-.59.57,0,.97.22,1.3.62.17-.18.69-.62,1.41-.62,1.28,0,1.75.95,1.75,2v1.91c0,.1-.08.19-.19.19h-.81c-.11,0-.19-.09-.19-.19v-1.98c0-.52-.25-.85-.75-.85-.58,0-.84.42-.84.42,0,0,0,.2,0,.38v2.03c0,.1-.09.19-.19.19h-.75c-.11,0-.19-.09-.19-.19v-1.98c0-.52-.23-.85-.74-.85s-.74.36-.84.63v2.2c0,.1-.09.19-.19.19h-.81c-.1,0-.19-.09-.19-.19v-3.62Z"></path>
        <path class="st14" d="M214.78,75.08c1.03,0,1.87.78,1.87,1.86,0,.07-.01.2-.02.27,0,.1-.1.17-.19.17h-2.56c.03.41.38.87.96.87.31,0,.6-.12.78-.25.1-.06.19-.08.26,0l.41.47c.07.07.09.18,0,.26-.33.31-.84.55-1.49.55-1.2,0-2.05-.95-2.05-2.1s.85-2.1,2.04-2.1ZM215.48,76.67c-.03-.37-.35-.68-.73-.68-.4,0-.73.3-.78.68h1.51Z"></path>
        <path class="st14" d="M218.41,75.37c0-.11.09-.19.19-.19h.38c.09,0,.15.05.18.13l.14.39c.14-.2.51-.62,1.13-.62.47,0,.89.15.77.4l-.37.65c-.05.09-.15.13-.23.09-.03-.01-.18-.06-.29-.06-.4,0-.64.27-.71.41v2.42c0,.14-.09.19-.23.19h-.77c-.1,0-.19-.09-.19-.19v-3.62Z"></path>
        <path class="st14" d="M223.7,76.65c.4,0,.73.11.73.11,0-.51-.15-.69-.52-.69s-.89.08-1.12.15c-.14.04-.21-.05-.23-.18l-.09-.52c-.03-.15.05-.22.14-.25.08-.03.72-.19,1.36-.19,1.25,0,1.54.65,1.54,1.74v2.17c0,.1-.09.19-.19.19h-.36c-.07,0-.12-.03-.17-.14l-.12-.27c-.23.21-.6.51-1.22.51-.8,0-1.35-.52-1.35-1.37,0-.71.58-1.26,1.6-1.26ZM223.72,78.42c.32,0,.63-.27.69-.39v-.55s-.27-.12-.56-.12c-.39,0-.65.22-.65.54,0,.3.21.52.52.52Z"></path>
        <path class="st14" d="M233.92,72.08c1.01,0,1.74.32,2.42.93.09.08.09.2,0,.28l-.61.63c-.07.08-.17.08-.25,0-.42-.37-.98-.59-1.54-.59-1.28,0-2.23,1.07-2.23,2.33s.96,2.31,2.24,2.31c.6,0,1.11-.23,1.53-.57.08-.07.19-.06.25,0l.62.64c.08.07.06.2,0,.27-.68.66-1.54.97-2.43.97-2,0-3.61-1.59-3.61-3.59s1.61-3.61,3.61-3.61Z"></path>
        <path class="st14" d="M239.54,75.08c1.13,0,2.05.96,2.05,2.09s-.92,2.11-2.05,2.11-2.05-.96-2.05-2.11.92-2.09,2.05-2.09ZM239.54,78.19c.53,0,.96-.46.96-1.03s-.43-1.01-.96-1.01-.96.45-.96,1.01.42,1.03.96,1.03Z"></path>
        <path class="st14" d="M243.3,75.37c0-.11.09-.19.19-.19h.37c.09,0,.15.05.17.11l.14.38c.17-.19.63-.59,1.34-.59.57,0,.97.22,1.3.62.17-.18.69-.62,1.41-.62,1.28,0,1.75.95,1.75,2v1.91c0,.1-.08.19-.19.19h-.81c-.11,0-.19-.09-.19-.19v-1.98c0-.52-.25-.85-.75-.85-.58,0-.84.42-.84.42,0,0,0,.2,0,.38v2.03c0,.1-.09.19-.19.19h-.75c-.11,0-.19-.09-.19-.19v-1.98c0-.52-.23-.85-.74-.85s-.74.36-.84.63v2.2c0,.1-.09.19-.19.19h-.81c-.1,0-.19-.09-.19-.19v-3.62Z"></path>
        <path class="st14" d="M252.96,81.98c0,.12-.06.19-.24.19h-.8c-.1,0-.19-.09-.19-.19v-6.62c0-.11.09-.19.19-.19h.39c.07,0,.14.04.17.12l.13.33c.15-.2.64-.55,1.29-.55,1.1,0,1.93.95,1.93,2.1s-.9,2.1-1.98,2.1c-.39,0-.75-.14-.89-.22v2.93ZM253.69,78.19c.56,0,.97-.46.97-1.02s-.38-1.02-.93-1.02c-.51,0-.76.4-.82.61v1.2s.28.23.78.23Z"></path>
        <path class="st14" d="M258.77,76.65c.4,0,.73.11.73.11,0-.51-.15-.69-.52-.69s-.89.08-1.12.15c-.14.04-.21-.05-.23-.18l-.09-.52c-.03-.15.05-.22.14-.25.08-.03.72-.19,1.36-.19,1.25,0,1.54.65,1.54,1.74v2.17c0,.1-.09.19-.19.19h-.36c-.07,0-.12-.03-.17-.14l-.12-.27c-.23.21-.6.51-1.22.51-.8,0-1.35-.52-1.35-1.37,0-.71.58-1.26,1.6-1.26ZM258.79,78.42c.32,0,.63-.27.69-.39v-.55s-.27-.12-.56-.12c-.39,0-.65.22-.65.54,0,.3.21.52.52.52Z"></path>
        <path class="st14" d="M262.55,75.37c0-.11.09-.19.19-.19h.38c.09,0,.14.05.17.12l.14.37c.15-.16.64-.59,1.41-.59,1.27,0,1.78.95,1.78,1.99v1.92c0,.1-.09.19-.19.19h-.82c-.11,0-.19-.09-.19-.19v-1.98c0-.52-.27-.85-.75-.85-.52,0-.84.36-.94.63v2.2c0,.14-.06.19-.25.19h-.74c-.1,0-.19-.09-.19-.19v-3.62Z"></path>
        <path class="st14" d="M267.77,75.44c-.06-.13.02-.26.17-.26h.9c.09,0,.14.05.17.11l1.01,2.26h0l1-2.26c.05-.1.12-.11.24-.11h.8c.16,0,.24.13.17.26l-3.06,6.62c-.03.06-.09.12-.17.12h-.86c-.15,0-.24-.13-.17-.27l1.42-3.01-1.63-3.46Z"></path>
      </g>
    </g>
  </g>
  <g id="white_x5F_edge" class="st17">
    <g>
      <g>
        <path class="st14" d="M94.77,59.47c1.07,0,1.85.34,2.58.99.1.09.1.21.01.3l-.65.67c-.07.09-.18.09-.27,0-.45-.39-1.04-.63-1.64-.63-1.36,0-2.37,1.14-2.37,2.48s1.02,2.46,2.38,2.46c.64,0,1.18-.24,1.63-.61.09-.07.2-.06.27,0l.66.68c.08.07.06.21-.01.29-.72.7-1.64,1.03-2.59,1.03-2.13,0-3.84-1.69-3.84-3.82s1.71-3.84,3.84-3.84Z"></path>
        <path class="st14" d="M116.91,59.47c2.13,0,3.83,1.71,3.83,3.84s-1.7,3.82-3.83,3.82-3.82-1.69-3.82-3.82,1.69-3.84,3.82-3.84ZM116.91,65.75c1.34,0,2.45-1.1,2.45-2.44s-1.11-2.46-2.45-2.46-2.44,1.12-2.44,2.46,1.1,2.44,2.44,2.44Z"></path>
        <path class="st14" d="M137.8,59.63c.01-.09.07-.16.19-.16h.17c.09,0,.15.04.18.11l2.34,5.02h.03l2.34-5.02c.03-.06.08-.11.18-.11h.17c.12,0,.18.07.19.16l1.25,7.15c.03.15-.05.24-.19.24h-.97c-.1,0-.18-.08-.2-.16l-.63-4.03h-.03l-1.86,4.18c-.02.06-.09.12-.18.12h-.19c-.1,0-.15-.05-.18-.12l-1.88-4.18h-.03l-.62,4.03c-.01.07-.1.16-.19.16h-.96c-.14,0-.22-.1-.2-.24l1.27-7.15Z"></path>
        <path class="st14" d="M161.21,59.77c0-.11.09-.2.2-.2h2.5c1.31,0,2.38,1.06,2.38,2.35s-1.07,2.39-2.37,2.39h-1.33v2.5c0,.11-.1.2-.2.2h-.98c-.12,0-.2-.1-.2-.2v-7.04ZM163.83,63.02c.6,0,1.1-.48,1.1-1.11,0-.59-.5-1.03-1.1-1.03h-1.23v2.14h1.23Z"></path>
        <path class="st14" d="M182.3,59.77c0-.11.1-.2.2-.2h1.01c.12,0,.2.1.2.2v4.35c0,.9.62,1.62,1.54,1.62s1.55-.71,1.55-1.61v-4.36c0-.11.09-.2.2-.2h1.01c.11,0,.2.1.2.2v4.43c0,1.62-1.29,2.93-2.97,2.93s-2.96-1.31-2.96-2.93v-4.43Z"></path>
        <path class="st14" d="M205.95,60.85h-1.63c-.12,0-.2-.1-.2-.2v-.87c0-.11.09-.2.2-.2h4.65c.12,0,.2.1.2.2v.87c0,.11-.08.2-.2.2h-1.63v5.97c0,.11-.1.2-.2.2h-.99c-.11,0-.2-.1-.2-.2v-5.97Z"></path>
        <path class="st14" d="M225.18,59.77c0-.11.1-.2.2-.2h.99c.11,0,.2.1.2.2v7.04c0,.11-.1.2-.2.2h-.99c-.11,0-.2-.1-.2-.2v-7.04Z"></path>
        <path class="st14" d="M243.41,59.66c0-.11.1-.19.2-.19h.27l4.43,4.7h.01v-4.4c0-.11.09-.2.2-.2h.98c.11,0,.2.1.2.2v7.16c0,.11-.1.19-.2.19h-.26l-4.45-4.88h0v4.58c0,.11-.09.2-.2.2h-.97c-.11,0-.2-.1-.2-.2v-7.16Z"></path>
        <path class="st14" d="M269.82,59.47c.96,0,1.87.37,2.6.99.08.09.1.21.01.3l-.66.69c-.09.08-.18.08-.28,0-.46-.4-1.02-.62-1.61-.62-1.33,0-2.38,1.14-2.38,2.47s1.05,2.44,2.39,2.44c.6,0,1.05-.18,1.27-.27v-.9h-.85c-.12,0-.2-.08-.2-.19v-.84c0-.12.09-.2.2-.2h2.04c.11,0,.19.1.19.2v2.72c0,.08-.04.14-.08.17,0,0-1.1.69-2.64.69-2.12,0-3.82-1.68-3.82-3.81s1.7-3.84,3.82-3.84Z"></path>
        <polygon class="st14" points="185.35 12.05 192.72 12.05 175.6 51.59 168.23 51.59 185.35 12.05"></polygon>
        <polygon class="st14" points="172.83 12.05 180.19 12.05 163.08 51.59 155.7 51.59 172.83 12.05"></polygon>
        <path class="st14" d="M148.74,41.25c-2.32,2.44-5.55,4.03-9.18,4.21-7.52.38-13.93-5.4-14.32-12.93-.38-7.52,5.4-13.93,12.93-14.32,4.42-.23,8.45,1.68,11.11,4.81l4.86-3.75c-3.84-4.67-9.77-7.52-16.28-7.19-10.9.56-19.29,9.84-18.74,20.75.56,10.9,9.84,19.29,20.75,18.74,5.62-.29,10.57-2.9,13.97-6.85l-5.11-3.49Z"></path>
        <polygon class="st14" points="195.86 21.6 208.86 51.71 201.69 51.71 188.68 21.6 195.86 21.6"></polygon>
        <polygon class="st14" points="239.74 45.28 221.77 45.28 221.77 12.17 215.35 12.17 215.35 51.71 217.02 51.71 221.77 51.71 239.74 51.71 239.74 45.28"></polygon>
        <path class="st14" d="M104.17,28.7c-5.28-1.97-6.97-3.48-6.97-6.22,0-3.17,3.15-4.59,6.27-4.59,2.64,0,4.74.67,6.17,1.33l2.32-5.37c-1.47-.71-4.2-1.65-8.33-1.65-7.76,0-13.18,4.45-13.18,10.83,0,5.17,3.38,8.73,10.61,11.21,4.86,1.8,6.58,3.48,6.58,6.44,0,3.3-2.7,5.35-7.06,5.35-2.79,0-5.86-.83-8.24-2.21l-2.33,5.39.06.04c2.27,1.46,6.45,2.48,10.17,2.48,4.41,0,8.07-1.17,10.6-3.37,2.32-2.03,3.59-4.89,3.59-8.05,0-5.44-3.07-8.91-10.27-11.58Z"></path>
        <polygon class="st14" points="252.62 18.6 272.72 18.6 272.72 12.17 252.62 12.17 247.87 12.17 246.2 12.17 246.2 51.71 247.87 51.71 252.62 51.71 272.72 51.71 272.72 45.28 252.62 45.28 252.62 40.35 252.62 35.35 252.62 35.3 266.1 35.3 266.1 28.87 252.62 28.87 252.62 27.14 252.62 18.6"></polygon>
        <path class="st14" d="M46.01.66c-17.21,0-31.16,13.95-31.16,31.16,0,17.21,13.95,31.16,31.16,31.16,17.19,0,31.14-13.93,31.16-31.12.02-17.21-13.91-31.17-31.12-31.19-.01,0-.02,0-.04,0ZM27.99,51.53L44.96,12.33h7.3l-16.97,39.2h-7.3ZM47.72,51.53h-7.33L57.38,12.33h7.31l-16.96,39.2Z"></path>
      </g>
      <g>
        <g>
          <path class="st14" d="M91.43,75.33c0-.08.07-.15.18-.15h.16c.08,0,.14.04.17.1l2.2,4.72h.03l2.2-4.72c.03-.06.08-.1.17-.1h.16c.11,0,.17.07.18.15l1.18,6.72c.03.14-.05.23-.18.23h-.91c-.09,0-.17-.08-.19-.15l-.59-3.79h-.03l-1.75,3.93c-.02.06-.08.11-.17.11h-.18c-.09,0-.14-.05-.17-.11l-1.77-3.93h-.03l-.58,3.79c-.01.07-.09.15-.18.15h-.9c-.13,0-.21-.09-.19-.23l1.19-6.72Z"></path>
          <path class="st14" d="M99.33,82.02l3.11-6.73c.03-.06.08-.11.17-.11h.1c.1,0,.14.05.17.11l3.08,6.73c.06.13-.02.26-.17.26h-.87c-.15,0-.22-.06-.29-.2l-.49-1.08h-2.99l-.49,1.08c-.04.1-.13.2-.29.2h-.87c-.15,0-.23-.13-.17-.26ZM103.65,79.89l-1-2.2h-.03l-.98,2.2h2.01Z"></path>
          <path class="st14" d="M107.68,75.52c0-.13.1-.24.24-.24h.88c.13,0,.24.11.24.24v2.7l2.52-2.84c.04-.05.1-.1.19-.1h1c.19,0,.29.21.16.36l-2.61,2.94,2.8,3.35c.1.13.02.35-.18.35h-1.09c-.1,0-.16-.04-.18-.07l-2.61-3.22v3.05c0,.13-.11.24-.24.24h-.88c-.14,0-.24-.11-.24-.24v-6.52Z"></path>
          <path class="st14" d="M115.01,75.47c0-.1.08-.19.19-.19h4.07c.11,0,.19.09.19.19v.82c0,.1-.08.19-.19.19h-2.96v1.64h2.47c.1,0,.19.09.19.19v.83c0,.11-.09.19-.19.19h-2.47v1.75h2.96c.11,0,.19.09.19.19v.82c0,.1-.08.19-.19.19h-4.07c-.11,0-.19-.09-.19-.19v-6.62Z"></path>
          <path class="st14" d="M127.81,75.18c2,0,3.6,1.61,3.6,3.61s-1.6,3.59-3.6,3.59-3.59-1.59-3.59-3.59,1.59-3.61,3.59-3.61ZM127.81,81.08c1.26,0,2.3-1.03,2.3-2.29s-1.04-2.31-2.3-2.31-2.29,1.05-2.29,2.31,1.03,2.29,2.29,2.29Z"></path>
          <path class="st14" d="M133.03,75.47c0-.1.09-.19.19-.19h.95c.11,0,.19.09.19.19v4.09c0,.85.58,1.52,1.45,1.52s1.46-.67,1.46-1.51v-4.1c0-.1.08-.19.19-.19h.95c.1,0,.19.09.19.19v4.16c0,1.52-1.21,2.75-2.79,2.75s-2.78-1.23-2.78-2.75v-4.16Z"></path>
          <path class="st14" d="M140.73,75.47c0-.1.08-.19.19-.19h2.86c1.2,0,2.18.96,2.18,2.15,0,.92-.61,1.67-1.48,2.02l1.37,2.54c.07.13,0,.29-.17.29h-1.05c-.09,0-.14-.05-.16-.09l-1.33-2.65h-1.11v2.55c0,.1-.09.19-.19.19h-.92c-.11,0-.19-.09-.19-.19v-6.62ZM143.67,78.47c.53,0,.99-.46.99-1.02,0-.53-.46-.97-.99-.97h-1.63v1.99h1.63Z"></path>
          <path class="st14" d="M182.41,78.91l-2.28-3.34c-.08-.13,0-.29.16-.29h1.02c.08,0,.13.05.16.09l1.6,2.3,1.6-2.3s.08-.09.16-.09h1.03c.16,0,.24.16.16.29l-2.31,3.33v3.19c0,.1-.09.19-.19.19h-.92c-.11,0-.19-.09-.19-.19v-3.18Z"></path>
          <path class="st14" d="M190.06,75.18c2,0,3.6,1.61,3.6,3.61s-1.6,3.59-3.6,3.59-3.59-1.59-3.59-3.59,1.59-3.61,3.59-3.61ZM190.06,81.08c1.26,0,2.3-1.03,2.3-2.29s-1.04-2.31-2.3-2.31-2.29,1.05-2.29,2.31,1.03,2.29,2.29,2.29Z"></path>
          <path class="st14" d="M195.08,75.47c0-.1.09-.19.19-.19h.95c.11,0,.19.09.19.19v4.09c0,.85.58,1.52,1.45,1.52s1.46-.67,1.46-1.51v-4.1c0-.1.08-.19.19-.19h.95c.1,0,.19.09.19.19v4.16c0,1.52-1.21,2.75-2.79,2.75s-2.78-1.23-2.78-2.75v-4.16Z"></path>
          <path class="st14" d="M202.57,75.47c0-.1.08-.19.19-.19h2.86c1.2,0,2.18.96,2.18,2.15,0,.92-.61,1.67-1.48,2.02l1.37,2.54c.07.13,0,.29-.17.29h-1.05c-.09,0-.14-.05-.16-.09l-1.33-2.65h-1.11v2.55c0,.1-.09.19-.19.19h-.92c-.11,0-.19-.09-.19-.19v-6.62ZM205.5,78.47c.53,0,.99-.46.99-1.02,0-.53-.46-.97-.99-.97h-1.63v1.99h1.63Z"></path>
          <path class="st14" d="M211.99,82.02l3.11-6.73c.03-.06.08-.11.17-.11h.1c.1,0,.14.05.17.11l3.08,6.73c.06.13-.02.26-.17.26h-.87c-.15,0-.22-.06-.29-.2l-.49-1.08h-2.99l-.49,1.08c-.04.1-.13.2-.29.2h-.87c-.15,0-.23-.13-.17-.26ZM216.3,79.89l-1-2.2h-.03l-.98,2.2h2.01Z"></path>
          <path class="st14" d="M220.44,75.47c0-.1.08-.19.18-.19h2.37c1.93,0,3.51,1.57,3.51,3.49s-1.58,3.51-3.51,3.51h-2.37c-.1,0-.18-.09-.18-.19v-6.62ZM222.86,81.06c1.3,0,2.25-.98,2.25-2.29s-.95-2.28-2.25-2.28h-1.14v4.57h1.14Z"></path>
          <path class="st14" d="M227.25,75.54c-.06-.13.02-.26.17-.26h1.02c.09,0,.15.06.17.11l1.92,4.3h.07l1.92-4.3s.08-.11.17-.11h1.02c.15,0,.23.13.17.26l-3.1,6.73c-.03.06-.08.11-.17.11h-.1c-.09,0-.14-.05-.17-.11l-3.09-6.73Z"></path>
          <path class="st14" d="M233.02,82.02l3.11-6.73c.03-.06.08-.11.17-.11h.1c.1,0,.14.05.17.11l3.08,6.73c.06.13-.02.26-.17.26h-.87c-.15,0-.22-.06-.29-.2l-.49-1.08h-2.99l-.49,1.08c-.04.1-.13.2-.29.2h-.87c-.15,0-.23-.13-.17-.26ZM237.33,79.89l-1-2.2h-.03l-.98,2.2h2.01Z"></path>
          <path class="st14" d="M240.95,75.36c0-.1.09-.18.19-.18h.25l4.16,4.42h.01v-4.13c0-.1.08-.19.19-.19h.92c.1,0,.19.09.19.19v6.73c0,.1-.09.18-.19.18h-.24l-4.18-4.59h0v4.3c0,.1-.08.19-.19.19h-.91c-.1,0-.19-.09-.19-.19v-6.73Z"></path>
          <path class="st14" d="M250.33,76.48h-1.53c-.11,0-.19-.09-.19-.19v-.82c0-.1.08-.19.19-.19h4.37c.11,0,.19.09.19.19v.82c0,.1-.08.19-.19.19h-1.53v5.61c0,.1-.09.19-.19.19h-.93c-.1,0-.19-.09-.19-.19v-5.61Z"></path>
          <path class="st14" d="M253.39,82.02l3.11-6.73c.03-.06.08-.11.17-.11h.1c.1,0,.14.05.17.11l3.08,6.73c.06.13-.02.26-.17.26h-.87c-.15,0-.22-.06-.29-.2l-.49-1.08h-2.99l-.49,1.08c-.04.1-.13.2-.29.2h-.87c-.15,0-.23-.13-.17-.26ZM257.7,79.89l-1-2.2h-.03l-.98,2.2h2.01Z"></path>
          <path class="st14" d="M263.89,75.18c.9,0,1.76.35,2.44.93.08.08.09.2,0,.28l-.62.65c-.08.08-.17.08-.26,0-.43-.38-.96-.58-1.51-.58-1.25,0-2.24,1.07-2.24,2.32s.99,2.29,2.25,2.29c.56,0,.99-.17,1.19-.25v-.85h-.8c-.11,0-.19-.08-.19-.18v-.79c0-.11.08-.19.19-.19h1.92c.1,0,.18.09.18.19v2.56c0,.08-.04.13-.08.16,0,0-1.03.65-2.48.65-1.99,0-3.59-1.58-3.59-3.58s1.6-3.61,3.59-3.61Z"></path>
          <path class="st14" d="M268.29,75.47c0-.1.08-.19.19-.19h4.07c.11,0,.19.09.19.19v.82c0,.1-.08.19-.19.19h-2.96v1.64h2.47c.1,0,.19.09.19.19v.83c0,.11-.09.19-.19.19h-2.47v1.75h2.96c.11,0,.19.09.19.19v.82c0,.1-.08.19-.19.19h-4.07c-.11,0-.19-.09-.19-.19v-6.62Z"></path>
        </g>
        <g>
          <path class="st14" d="M151.41,75.47c.01-.1.11-.19.22-.19h4.07c.11,0,.18.09.16.19l-.12.82c-.01.1-.11.19-.22.19h-2.96l-.23,1.64h2.47c.1,0,.18.09.16.19l-.12.83c-.02.11-.12.19-.22.19h-2.47l-.25,1.75h2.96c.11,0,.18.09.16.19l-.12.82c-.01.1-.11.19-.22.19h-4.07c-.11,0-.18-.09-.16-.19l.93-6.62Z"></path>
          <path class="st14" d="M157.46,75.47c.01-.1.1-.19.19-.19h2.2c1.79,0,3.05,1.57,2.8,3.49-.25,1.94-1.92,3.51-3.71,3.51h-2.2c-.09,0-.16-.09-.14-.19l.86-6.62ZM158.99,81.06c1.21,0,2.21-.98,2.38-2.29.17-1.3-.58-2.28-1.79-2.28h-1.06l-.6,4.57h1.06Z"></path>
          <path class="st14" d="M167.87,75.18c.81,0,1.54.35,2.08.93.06.08.06.2-.03.28l-.64.65c-.08.08-.16.08-.23,0-.34-.38-.79-.58-1.29-.58-1.13,0-2.15,1.07-2.31,2.32-.16,1.24.6,2.29,1.74,2.29.51,0,.91-.17,1.1-.25l.11-.85h-.72c-.1,0-.16-.08-.15-.18l.1-.79c.01-.11.1-.19.2-.19h1.73c.09,0,.15.09.14.19l-.32,2.56c0,.08-.05.13-.09.16,0,0-1.01.65-2.32.65-1.79,0-3.03-1.58-2.78-3.58.25-2,1.9-3.61,3.69-3.61Z"></path>
          <path class="st14" d="M172.51,75.47c.01-.1.11-.19.22-.19h4.07c.11,0,.18.09.16.19l-.12.82c-.01.1-.11.19-.22.19h-2.96l-.23,1.64h2.47c.1,0,.18.09.16.19l-.12.83c-.02.11-.12.19-.22.19h-2.47l-.25,1.75h2.96c.11,0,.18.09.16.19l-.12.82c-.01.1-.11.19-.22.19h-4.07c-.11,0-.18-.09-.16-.19l.93-6.62Z"></path>
        </g>
      </g>
    </g>
  </g>
  <g id="blue_x5F_grey_x5F_acumera">
    <g>
      <g>
        <g>
          <path class="st14" d="M94.77,59.47c1.07,0,1.85.34,2.58.99.1.09.1.21.01.3l-.65.67c-.07.09-.18.09-.27,0-.45-.39-1.04-.63-1.64-.63-1.36,0-2.37,1.14-2.37,2.48s1.02,2.46,2.38,2.46c.64,0,1.18-.24,1.63-.61.09-.07.2-.06.27,0l.66.68c.08.07.06.21-.01.29-.72.7-1.64,1.03-2.59,1.03-2.13,0-3.84-1.69-3.84-3.82s1.71-3.84,3.84-3.84Z"></path>
          <path class="st14" d="M116.91,59.47c2.13,0,3.83,1.71,3.83,3.84s-1.7,3.82-3.83,3.82-3.82-1.69-3.82-3.82,1.69-3.84,3.82-3.84ZM116.91,65.75c1.34,0,2.45-1.1,2.45-2.44s-1.11-2.46-2.45-2.46-2.44,1.12-2.44,2.46,1.1,2.44,2.44,2.44Z"></path>
          <path class="st14" d="M137.8,59.63c.01-.09.07-.16.19-.16h.17c.09,0,.15.04.18.11l2.34,5.02h.03l2.34-5.02c.03-.06.08-.11.18-.11h.17c.12,0,.18.07.19.16l1.25,7.15c.03.15-.05.24-.19.24h-.97c-.1,0-.18-.08-.2-.16l-.63-4.03h-.03l-1.86,4.18c-.02.06-.09.12-.18.12h-.19c-.1,0-.15-.05-.18-.12l-1.88-4.18h-.03l-.62,4.03c-.01.07-.1.16-.19.16h-.96c-.14,0-.22-.1-.2-.24l1.27-7.15Z"></path>
          <path class="st14" d="M161.21,59.77c0-.11.09-.2.2-.2h2.5c1.31,0,2.38,1.06,2.38,2.35s-1.07,2.39-2.37,2.39h-1.33v2.5c0,.11-.1.2-.2.2h-.98c-.12,0-.2-.1-.2-.2v-7.04ZM163.83,63.02c.6,0,1.1-.48,1.1-1.11,0-.59-.5-1.03-1.1-1.03h-1.23v2.14h1.23Z"></path>
          <path class="st14" d="M182.3,59.77c0-.11.1-.2.2-.2h1.01c.12,0,.2.1.2.2v4.35c0,.9.62,1.62,1.54,1.62s1.55-.71,1.55-1.61v-4.36c0-.11.09-.2.2-.2h1.01c.11,0,.2.1.2.2v4.43c0,1.62-1.29,2.93-2.97,2.93s-2.96-1.31-2.96-2.93v-4.43Z"></path>
          <path class="st14" d="M205.95,60.85h-1.63c-.12,0-.2-.1-.2-.2v-.87c0-.11.09-.2.2-.2h4.65c.12,0,.2.1.2.2v.87c0,.11-.08.2-.2.2h-1.63v5.97c0,.11-.1.2-.2.2h-.99c-.11,0-.2-.1-.2-.2v-5.97Z"></path>
          <path class="st14" d="M225.18,59.77c0-.11.1-.2.2-.2h.99c.11,0,.2.1.2.2v7.04c0,.11-.1.2-.2.2h-.99c-.11,0-.2-.1-.2-.2v-7.04Z"></path>
          <path class="st14" d="M243.41,59.66c0-.11.1-.19.2-.19h.27l4.43,4.7h.01v-4.4c0-.11.09-.2.2-.2h.98c.11,0,.2.1.2.2v7.16c0,.11-.1.19-.2.19h-.26l-4.45-4.88h0v4.58c0,.11-.09.2-.2.2h-.97c-.11,0-.2-.1-.2-.2v-7.16Z"></path>
          <path class="st14" d="M269.82,59.47c.96,0,1.87.37,2.6.99.08.09.1.21.01.3l-.66.69c-.09.08-.18.08-.28,0-.46-.4-1.02-.62-1.61-.62-1.33,0-2.38,1.14-2.38,2.47s1.05,2.44,2.39,2.44c.6,0,1.05-.18,1.27-.27v-.9h-.85c-.12,0-.2-.08-.2-.19v-.84c0-.12.09-.2.2-.2h2.04c.11,0,.19.1.19.2v2.72c0,.08-.04.14-.08.17,0,0-1.1.69-2.64.69-2.12,0-3.82-1.68-3.82-3.81s1.7-3.84,3.82-3.84Z"></path>
          <polygon class="st15" points="185.35 12.05 192.72 12.05 175.6 51.59 168.23 51.59 185.35 12.05"></polygon>
          <polygon class="st6" points="172.83 12.05 180.19 12.05 163.08 51.59 155.7 51.59 172.83 12.05"></polygon>
          <path class="st14" d="M148.74,41.25c-2.32,2.44-5.55,4.03-9.18,4.21-7.52.38-13.93-5.4-14.32-12.93-.38-7.52,5.4-13.93,12.93-14.32,4.42-.23,8.45,1.68,11.11,4.81l4.86-3.75c-3.84-4.67-9.77-7.52-16.28-7.19-10.9.56-19.29,9.84-18.74,20.75.56,10.9,9.84,19.29,20.75,18.74,5.62-.29,10.57-2.9,13.97-6.85l-5.11-3.49Z"></path>
          <polygon class="st14" points="195.86 21.6 208.86 51.71 201.69 51.71 188.68 21.6 195.86 21.6"></polygon>
          <polygon class="st14" points="239.74 45.28 221.77 45.28 221.77 12.17 215.35 12.17 215.35 51.71 217.02 51.71 221.77 51.71 239.74 51.71 239.74 45.28"></polygon>
          <path class="st14" d="M104.17,28.7c-5.28-1.97-6.97-3.48-6.97-6.22,0-3.17,3.15-4.59,6.27-4.59,2.64,0,4.74.67,6.17,1.33l2.32-5.37c-1.47-.71-4.2-1.65-8.33-1.65-7.76,0-13.18,4.45-13.18,10.83,0,5.17,3.38,8.73,10.61,11.21,4.86,1.8,6.58,3.48,6.58,6.44,0,3.3-2.7,5.35-7.06,5.35-2.79,0-5.86-.83-8.24-2.21l-2.33,5.39.06.04c2.27,1.46,6.45,2.48,10.17,2.48,4.41,0,8.07-1.17,10.6-3.37,2.32-2.03,3.59-4.89,3.59-8.05,0-5.44-3.07-8.91-10.27-11.58Z"></path>
          <polygon class="st14" points="252.62 18.6 272.72 18.6 272.72 12.17 252.62 12.17 247.87 12.17 246.2 12.17 246.2 51.71 247.87 51.71 252.62 51.71 272.72 51.71 272.72 45.28 252.62 45.28 252.62 40.35 252.62 35.35 252.62 35.3 266.1 35.3 266.1 28.87 252.62 28.87 252.62 27.14 252.62 18.6"></polygon>
          <path class="st7" d="M46.01.66c-17.21,0-31.16,13.95-31.16,31.16,0,17.21,13.95,31.16,31.16,31.16,17.19,0,31.14-13.93,31.16-31.12.02-17.21-13.91-31.17-31.12-31.19-.01,0-.02,0-.04,0Z"></path>
          <polygon class="st14" points="27.99 51.53 44.96 12.33 52.25 12.33 35.29 51.53 27.99 51.53"></polygon>
          <polygon class="st14" points="47.72 51.53 40.39 51.53 57.38 12.33 64.68 12.33 47.72 51.53"></polygon>
        </g>
        <g>
          <path class="st4" d="M94.77,59.47c1.07,0,1.85.34,2.58.99.1.09.1.21.01.3l-.65.67c-.07.09-.18.09-.27,0-.45-.39-1.04-.63-1.64-.63-1.36,0-2.37,1.14-2.37,2.48s1.02,2.46,2.38,2.46c.64,0,1.18-.24,1.63-.61.09-.07.2-.06.27,0l.66.68c.08.07.06.21-.01.29-.72.7-1.64,1.03-2.59,1.03-2.13,0-3.84-1.69-3.84-3.82s1.71-3.84,3.84-3.84Z"></path>
          <path class="st4" d="M116.91,59.47c2.13,0,3.83,1.71,3.83,3.84s-1.7,3.82-3.83,3.82-3.82-1.69-3.82-3.82,1.69-3.84,3.82-3.84ZM116.91,65.75c1.34,0,2.45-1.1,2.45-2.44s-1.11-2.46-2.45-2.46-2.44,1.12-2.44,2.46,1.1,2.44,2.44,2.44Z"></path>
          <path class="st4" d="M137.8,59.63c.01-.09.07-.16.19-.16h.17c.09,0,.15.04.18.11l2.34,5.02h.03l2.34-5.02c.03-.06.08-.11.18-.11h.17c.12,0,.18.07.19.16l1.25,7.15c.03.15-.05.24-.19.24h-.97c-.1,0-.18-.08-.2-.16l-.63-4.03h-.03l-1.86,4.18c-.02.06-.09.12-.18.12h-.19c-.1,0-.15-.05-.18-.12l-1.88-4.18h-.03l-.62,4.03c-.01.07-.1.16-.19.16h-.96c-.14,0-.22-.1-.2-.24l1.27-7.15Z"></path>
          <path class="st4" d="M161.21,59.77c0-.11.09-.2.2-.2h2.5c1.31,0,2.38,1.06,2.38,2.35s-1.07,2.39-2.37,2.39h-1.33v2.5c0,.11-.1.2-.2.2h-.98c-.12,0-.2-.1-.2-.2v-7.04ZM163.83,63.02c.6,0,1.1-.48,1.1-1.11,0-.59-.5-1.03-1.1-1.03h-1.23v2.14h1.23Z"></path>
          <path class="st4" d="M182.3,59.77c0-.11.1-.2.2-.2h1.01c.12,0,.2.1.2.2v4.35c0,.9.62,1.62,1.54,1.62s1.55-.71,1.55-1.61v-4.36c0-.11.09-.2.2-.2h1.01c.11,0,.2.1.2.2v4.43c0,1.62-1.29,2.93-2.97,2.93s-2.96-1.31-2.96-2.93v-4.43Z"></path>
          <path class="st4" d="M205.95,60.85h-1.63c-.12,0-.2-.1-.2-.2v-.87c0-.11.09-.2.2-.2h4.65c.12,0,.2.1.2.2v.87c0,.11-.08.2-.2.2h-1.63v5.97c0,.11-.1.2-.2.2h-.99c-.11,0-.2-.1-.2-.2v-5.97Z"></path>
          <path class="st4" d="M225.18,59.77c0-.11.1-.2.2-.2h.99c.11,0,.2.1.2.2v7.04c0,.11-.1.2-.2.2h-.99c-.11,0-.2-.1-.2-.2v-7.04Z"></path>
          <path class="st4" d="M243.41,59.66c0-.11.1-.19.2-.19h.27l4.43,4.7h.01v-4.4c0-.11.09-.2.2-.2h.98c.11,0,.2.1.2.2v7.16c0,.11-.1.19-.2.19h-.26l-4.45-4.88h0v4.58c0,.11-.09.2-.2.2h-.97c-.11,0-.2-.1-.2-.2v-7.16Z"></path>
          <path class="st4" d="M269.82,59.47c.96,0,1.87.37,2.6.99.08.09.1.21.01.3l-.66.69c-.09.08-.18.08-.28,0-.46-.4-1.02-.62-1.61-.62-1.33,0-2.38,1.14-2.38,2.47s1.05,2.44,2.39,2.44c.6,0,1.05-.18,1.27-.27v-.9h-.85c-.12,0-.2-.08-.2-.19v-.84c0-.12.09-.2.2-.2h2.04c.11,0,.19.1.19.2v2.72c0,.08-.04.14-.08.17,0,0-1.1.69-2.64.69-2.12,0-3.82-1.68-3.82-3.81s1.7-3.84,3.82-3.84Z"></path>
          <polygon class="st15" points="185.35 12.05 192.72 12.05 175.6 51.59 168.23 51.59 185.35 12.05"></polygon>
          <polygon class="st8" points="172.83 12.05 180.19 12.05 163.08 51.59 155.7 51.59 172.83 12.05"></polygon>
          <path class="st4" d="M148.74,41.25c-2.32,2.44-5.55,4.03-9.18,4.21-7.52.38-13.93-5.4-14.32-12.93-.38-7.52,5.4-13.93,12.93-14.32,4.42-.23,8.45,1.68,11.11,4.81l4.86-3.75c-3.84-4.67-9.77-7.52-16.28-7.19-10.9.56-19.29,9.84-18.74,20.75.56,10.9,9.84,19.29,20.75,18.74,5.62-.29,10.57-2.9,13.97-6.85l-5.11-3.49Z"></path>
          <polygon class="st4" points="195.86 21.6 208.86 51.71 201.69 51.71 188.68 21.6 195.86 21.6"></polygon>
          <polygon class="st4" points="239.74 45.28 221.77 45.28 221.77 12.17 215.35 12.17 215.35 51.71 217.02 51.71 221.77 51.71 239.74 51.71 239.74 45.28"></polygon>
          <path class="st4" d="M104.17,28.7c-5.28-1.97-6.97-3.48-6.97-6.22,0-3.17,3.15-4.59,6.27-4.59,2.64,0,4.74.67,6.17,1.33l2.32-5.37c-1.47-.71-4.2-1.65-8.33-1.65-7.76,0-13.18,4.45-13.18,10.83,0,5.17,3.38,8.73,10.61,11.21,4.86,1.8,6.58,3.48,6.58,6.44,0,3.3-2.7,5.35-7.06,5.35-2.79,0-5.86-.83-8.24-2.21l-2.33,5.39.06.04c2.27,1.46,6.45,2.48,10.17,2.48,4.41,0,8.07-1.17,10.6-3.37,2.32-2.03,3.59-4.89,3.59-8.05,0-5.44-3.07-8.91-10.27-11.58Z"></path>
          <polygon class="st4" points="252.62 18.6 272.72 18.6 272.72 12.17 252.62 12.17 247.87 12.17 246.2 12.17 246.2 51.71 247.87 51.71 252.62 51.71 272.72 51.71 272.72 45.28 252.62 45.28 252.62 40.35 252.62 35.35 252.62 35.3 266.1 35.3 266.1 28.87 252.62 28.87 252.62 27.14 252.62 18.6"></polygon>
          <path class="st9" d="M46.01.66c-17.21,0-31.16,13.95-31.16,31.16,0,17.21,13.95,31.16,31.16,31.16,17.19,0,31.14-13.93,31.16-31.12.02-17.21-13.91-31.17-31.12-31.19-.01,0-.02,0-.04,0Z"></path>
          <polygon class="st14" points="27.99 51.53 44.96 12.33 52.25 12.33 35.29 51.53 27.99 51.53"></polygon>
          <polygon class="st14" points="47.72 51.53 40.39 51.53 57.38 12.33 64.68 12.33 47.72 51.53"></polygon>
        </g>
      </g>
      <g>
        <path class="st4" d="M169.76,78.91l3.11-6.73c.03-.06.08-.11.17-.11h.1c.1,0,.14.05.17.11l3.08,6.73c.06.13-.02.26-.17.26h-.87c-.15,0-.22-.06-.29-.2l-.49-1.08h-2.99l-.49,1.08c-.04.1-.13.2-.29.2h-.87c-.15,0-.23-.13-.17-.26ZM174.08,76.79l-1-2.2h-.03l-.98,2.2h2.01Z"></path>
        <path class="st4" d="M177.84,75.37c0-.11.09-.19.19-.19h.38c.09,0,.14.05.17.12l.14.37c.15-.16.64-.59,1.41-.59,1.27,0,1.78.95,1.78,1.99v1.92c0,.1-.09.19-.19.19h-.82c-.11,0-.19-.09-.19-.19v-1.98c0-.52-.27-.85-.75-.85-.52,0-.84.36-.94.63v2.2c0,.14-.06.19-.25.19h-.74c-.1,0-.19-.09-.19-.19v-3.62Z"></path>
        <path class="st4" d="M185.84,78.91l3.11-6.73c.03-.06.08-.11.17-.11h.1c.1,0,.14.05.17.11l3.08,6.73c.06.13-.02.26-.17.26h-.87c-.15,0-.22-.06-.29-.2l-.49-1.08h-2.99l-.49,1.08c-.04.1-.13.2-.29.2h-.87c-.15,0-.23-.13-.17-.26ZM190.16,76.79l-1-2.2h-.03l-.98,2.2h2.01Z"></path>
        <path class="st4" d="M195.63,75.08c.62,0,1.1.25,1.48.71.07.09.05.21-.05.28l-.46.44c-.09.08-.18.03-.25-.03-.16-.18-.41-.32-.69-.32-.54,0-.98.46-.98,1.02s.43,1.02.97,1.02c.43,0,.62-.21.8-.38.07-.07.17-.09.25-.03l.43.37c.1.08.14.18.07.28-.34.53-.87.84-1.58.84-1.13,0-2.12-.9-2.12-2.1s1.01-2.1,2.13-2.1Z"></path>
        <path class="st4" d="M198.82,75.37c0-.11.09-.19.19-.19h.82c.1,0,.19.08.19.19v1.97c0,.53.27.86.73.86.42,0,.74-.39.8-.75v-2.08c0-.15.06-.19.22-.19h.76c.1,0,.19.08.19.19v3.62c0,.1-.09.19-.19.19h-.37c-.1,0-.16-.07-.19-.15l-.12-.33c-.18.16-.55.58-1.34.58-1.24,0-1.69-.95-1.69-1.97v-1.94Z"></path>
        <path class="st4" d="M204.74,75.37c0-.11.09-.19.19-.19h.37c.09,0,.15.05.17.11l.14.38c.17-.19.63-.59,1.34-.59.57,0,.97.22,1.3.62.17-.18.69-.62,1.41-.62,1.28,0,1.75.95,1.75,2v1.91c0,.1-.08.19-.19.19h-.81c-.11,0-.19-.09-.19-.19v-1.98c0-.52-.25-.85-.75-.85-.58,0-.84.42-.84.42,0,0,0,.2,0,.38v2.03c0,.1-.09.19-.19.19h-.75c-.11,0-.19-.09-.19-.19v-1.98c0-.52-.23-.85-.74-.85s-.74.36-.84.63v2.2c0,.1-.09.19-.19.19h-.81c-.1,0-.19-.09-.19-.19v-3.62Z"></path>
        <path class="st4" d="M214.78,75.08c1.03,0,1.87.78,1.87,1.86,0,.07-.01.2-.02.27,0,.1-.1.17-.19.17h-2.56c.03.41.38.87.96.87.31,0,.6-.12.78-.25.1-.06.19-.08.26,0l.41.47c.07.07.09.18,0,.26-.33.31-.84.55-1.49.55-1.2,0-2.05-.95-2.05-2.1s.85-2.1,2.04-2.1ZM215.48,76.67c-.03-.37-.35-.68-.73-.68-.4,0-.73.3-.78.68h1.51Z"></path>
        <path class="st4" d="M218.41,75.37c0-.11.09-.19.19-.19h.38c.09,0,.15.05.18.13l.14.39c.14-.2.51-.62,1.13-.62.47,0,.89.15.77.4l-.37.65c-.05.09-.15.13-.23.09-.03-.01-.18-.06-.29-.06-.4,0-.64.27-.71.41v2.42c0,.14-.09.19-.23.19h-.77c-.1,0-.19-.09-.19-.19v-3.62Z"></path>
        <path class="st4" d="M223.7,76.65c.4,0,.73.11.73.11,0-.51-.15-.69-.52-.69s-.89.08-1.12.15c-.14.04-.21-.05-.23-.18l-.09-.52c-.03-.15.05-.22.14-.25.08-.03.72-.19,1.36-.19,1.25,0,1.54.65,1.54,1.74v2.17c0,.1-.09.19-.19.19h-.36c-.07,0-.12-.03-.17-.14l-.12-.27c-.23.21-.6.51-1.22.51-.8,0-1.35-.52-1.35-1.37,0-.71.58-1.26,1.6-1.26ZM223.72,78.42c.32,0,.63-.27.69-.39v-.55s-.27-.12-.56-.12c-.39,0-.65.22-.65.54,0,.3.21.52.52.52Z"></path>
        <path class="st4" d="M233.92,72.08c1.01,0,1.74.32,2.42.93.09.08.09.2,0,.28l-.61.63c-.07.08-.17.08-.25,0-.42-.37-.98-.59-1.54-.59-1.28,0-2.23,1.07-2.23,2.33s.96,2.31,2.24,2.31c.6,0,1.11-.23,1.53-.57.08-.07.19-.06.25,0l.62.64c.08.07.06.2,0,.27-.68.66-1.54.97-2.43.97-2,0-3.61-1.59-3.61-3.59s1.61-3.61,3.61-3.61Z"></path>
        <path class="st4" d="M239.54,75.08c1.13,0,2.05.96,2.05,2.09s-.92,2.11-2.05,2.11-2.05-.96-2.05-2.11.92-2.09,2.05-2.09ZM239.54,78.19c.53,0,.96-.46.96-1.03s-.43-1.01-.96-1.01-.96.45-.96,1.01.42,1.03.96,1.03Z"></path>
        <path class="st4" d="M243.3,75.37c0-.11.09-.19.19-.19h.37c.09,0,.15.05.17.11l.14.38c.17-.19.63-.59,1.34-.59.57,0,.97.22,1.3.62.17-.18.69-.62,1.41-.62,1.28,0,1.75.95,1.75,2v1.91c0,.1-.08.19-.19.19h-.81c-.11,0-.19-.09-.19-.19v-1.98c0-.52-.25-.85-.75-.85-.58,0-.84.42-.84.42,0,0,0,.2,0,.38v2.03c0,.1-.09.19-.19.19h-.75c-.11,0-.19-.09-.19-.19v-1.98c0-.52-.23-.85-.74-.85s-.74.36-.84.63v2.2c0,.1-.09.19-.19.19h-.81c-.1,0-.19-.09-.19-.19v-3.62Z"></path>
        <path class="st4" d="M252.96,81.98c0,.12-.06.19-.24.19h-.8c-.1,0-.19-.09-.19-.19v-6.62c0-.11.09-.19.19-.19h.39c.07,0,.14.04.17.12l.13.33c.15-.2.64-.55,1.29-.55,1.1,0,1.93.95,1.93,2.1s-.9,2.1-1.98,2.1c-.39,0-.75-.14-.89-.22v2.93ZM253.69,78.19c.56,0,.97-.46.97-1.02s-.38-1.02-.93-1.02c-.51,0-.76.4-.82.61v1.2s.28.23.78.23Z"></path>
        <path class="st4" d="M258.77,76.65c.4,0,.73.11.73.11,0-.51-.15-.69-.52-.69s-.89.08-1.12.15c-.14.04-.21-.05-.23-.18l-.09-.52c-.03-.15.05-.22.14-.25.08-.03.72-.19,1.36-.19,1.25,0,1.54.65,1.54,1.74v2.17c0,.1-.09.19-.19.19h-.36c-.07,0-.12-.03-.17-.14l-.12-.27c-.23.21-.6.51-1.22.51-.8,0-1.35-.52-1.35-1.37,0-.71.58-1.26,1.6-1.26ZM258.79,78.42c.32,0,.63-.27.69-.39v-.55s-.27-.12-.56-.12c-.39,0-.65.22-.65.54,0,.3.21.52.52.52Z"></path>
        <path class="st4" d="M262.55,75.37c0-.11.09-.19.19-.19h.38c.09,0,.14.05.17.12l.14.37c.15-.16.64-.59,1.41-.59,1.27,0,1.78.95,1.78,1.99v1.92c0,.1-.09.19-.19.19h-.82c-.11,0-.19-.09-.19-.19v-1.98c0-.52-.27-.85-.75-.85-.52,0-.84.36-.94.63v2.2c0,.14-.06.19-.25.19h-.74c-.1,0-.19-.09-.19-.19v-3.62Z"></path>
        <path class="st4" d="M267.77,75.44c-.06-.13.02-.26.17-.26h.9c.09,0,.14.05.17.11l1.01,2.26h0l1-2.26c.05-.1.12-.11.24-.11h.8c.16,0,.24.13.17.26l-3.06,6.62c-.03.06-.09.12-.17.12h-.86c-.15,0-.24-.13-.17-.27l1.42-3.01-1.63-3.46Z"></path>
      </g>
    </g>
  </g>
  <g id="blue_x5F_grey_x5F_edge" class="st17">
    <g>
      <g>
        <path class="st4" d="M94.77,59.47c1.07,0,1.85.34,2.58.99.1.09.1.21.01.3l-.65.67c-.07.09-.18.09-.27,0-.45-.39-1.04-.63-1.64-.63-1.36,0-2.37,1.14-2.37,2.48s1.02,2.46,2.38,2.46c.64,0,1.18-.24,1.63-.61.09-.07.2-.06.27,0l.66.68c.08.07.06.21-.01.29-.72.7-1.64,1.03-2.59,1.03-2.13,0-3.84-1.69-3.84-3.82s1.71-3.84,3.84-3.84Z"></path>
        <path class="st4" d="M116.91,59.47c2.13,0,3.83,1.71,3.83,3.84s-1.7,3.82-3.83,3.82-3.82-1.69-3.82-3.82,1.69-3.84,3.82-3.84ZM116.91,65.75c1.34,0,2.45-1.1,2.45-2.44s-1.11-2.46-2.45-2.46-2.44,1.12-2.44,2.46,1.1,2.44,2.44,2.44Z"></path>
        <path class="st4" d="M137.8,59.63c.01-.09.07-.16.19-.16h.17c.09,0,.15.04.18.11l2.34,5.02h.03l2.34-5.02c.03-.06.08-.11.18-.11h.17c.12,0,.18.07.19.16l1.25,7.15c.03.15-.05.24-.19.24h-.97c-.1,0-.18-.08-.2-.16l-.63-4.03h-.03l-1.86,4.18c-.02.06-.09.12-.18.12h-.19c-.1,0-.15-.05-.18-.12l-1.88-4.18h-.03l-.62,4.03c-.01.07-.1.16-.19.16h-.96c-.14,0-.22-.1-.2-.24l1.27-7.15Z"></path>
        <path class="st4" d="M161.21,59.77c0-.11.09-.2.2-.2h2.5c1.31,0,2.38,1.06,2.38,2.35s-1.07,2.39-2.37,2.39h-1.33v2.5c0,.11-.1.2-.2.2h-.98c-.12,0-.2-.1-.2-.2v-7.04ZM163.83,63.02c.6,0,1.1-.48,1.1-1.11,0-.59-.5-1.03-1.1-1.03h-1.23v2.14h1.23Z"></path>
        <path class="st4" d="M182.3,59.77c0-.11.1-.2.2-.2h1.01c.12,0,.2.1.2.2v4.35c0,.9.62,1.62,1.54,1.62s1.55-.71,1.55-1.61v-4.36c0-.11.09-.2.2-.2h1.01c.11,0,.2.1.2.2v4.43c0,1.62-1.29,2.93-2.97,2.93s-2.96-1.31-2.96-2.93v-4.43Z"></path>
        <path class="st4" d="M205.95,60.85h-1.63c-.12,0-.2-.1-.2-.2v-.87c0-.11.09-.2.2-.2h4.65c.12,0,.2.1.2.2v.87c0,.11-.08.2-.2.2h-1.63v5.97c0,.11-.1.2-.2.2h-.99c-.11,0-.2-.1-.2-.2v-5.97Z"></path>
        <path class="st4" d="M225.18,59.77c0-.11.1-.2.2-.2h.99c.11,0,.2.1.2.2v7.04c0,.11-.1.2-.2.2h-.99c-.11,0-.2-.1-.2-.2v-7.04Z"></path>
        <path class="st4" d="M243.41,59.66c0-.11.1-.19.2-.19h.27l4.43,4.7h.01v-4.4c0-.11.09-.2.2-.2h.98c.11,0,.2.1.2.2v7.16c0,.11-.1.19-.2.19h-.26l-4.45-4.88h0v4.58c0,.11-.09.2-.2.2h-.97c-.11,0-.2-.1-.2-.2v-7.16Z"></path>
        <path class="st4" d="M269.82,59.47c.96,0,1.87.37,2.6.99.08.09.1.21.01.3l-.66.69c-.09.08-.18.08-.28,0-.46-.4-1.02-.62-1.61-.62-1.33,0-2.38,1.14-2.38,2.47s1.05,2.44,2.39,2.44c.6,0,1.05-.18,1.27-.27v-.9h-.85c-.12,0-.2-.08-.2-.19v-.84c0-.12.09-.2.2-.2h2.04c.11,0,.19.1.19.2v2.72c0,.08-.04.14-.08.17,0,0-1.1.69-2.64.69-2.12,0-3.82-1.68-3.82-3.81s1.7-3.84,3.82-3.84Z"></path>
        <polygon class="st15" points="185.35 12.05 192.72 12.05 175.6 51.59 168.23 51.59 185.35 12.05"></polygon>
        <polygon class="st10" points="172.83 12.05 180.19 12.05 163.08 51.59 155.7 51.59 172.83 12.05"></polygon>
        <path class="st4" d="M148.74,41.25c-2.32,2.44-5.55,4.03-9.18,4.21-7.52.38-13.93-5.4-14.32-12.93-.38-7.52,5.4-13.93,12.93-14.32,4.42-.23,8.45,1.68,11.11,4.81l4.86-3.75c-3.84-4.67-9.77-7.52-16.28-7.19-10.9.56-19.29,9.84-18.74,20.75.56,10.9,9.84,19.29,20.75,18.74,5.62-.29,10.57-2.9,13.97-6.85l-5.11-3.49Z"></path>
        <polygon class="st4" points="195.86 21.6 208.86 51.71 201.69 51.71 188.68 21.6 195.86 21.6"></polygon>
        <polygon class="st4" points="239.74 45.28 221.77 45.28 221.77 12.17 215.35 12.17 215.35 51.71 217.02 51.71 221.77 51.71 239.74 51.71 239.74 45.28"></polygon>
        <path class="st4" d="M104.17,28.7c-5.28-1.97-6.97-3.48-6.97-6.22,0-3.17,3.15-4.59,6.27-4.59,2.64,0,4.74.67,6.17,1.33l2.32-5.37c-1.47-.71-4.2-1.65-8.33-1.65-7.76,0-13.18,4.45-13.18,10.83,0,5.17,3.38,8.73,10.61,11.21,4.86,1.8,6.58,3.48,6.58,6.44,0,3.3-2.7,5.35-7.06,5.35-2.79,0-5.86-.83-8.24-2.21l-2.33,5.39.06.04c2.27,1.46,6.45,2.48,10.17,2.48,4.41,0,8.07-1.17,10.6-3.37,2.32-2.03,3.59-4.89,3.59-8.05,0-5.44-3.07-8.91-10.27-11.58Z"></path>
        <polygon class="st4" points="252.62 18.6 272.72 18.6 272.72 12.17 252.62 12.17 247.87 12.17 246.2 12.17 246.2 51.71 247.87 51.71 252.62 51.71 272.72 51.71 272.72 45.28 252.62 45.28 252.62 40.35 252.62 35.35 252.62 35.3 266.1 35.3 266.1 28.87 252.62 28.87 252.62 27.14 252.62 18.6"></polygon>
        <path class="st11" d="M46.01.66c-17.21,0-31.16,13.95-31.16,31.16,0,17.21,13.95,31.16,31.16,31.16,17.19,0,31.14-13.93,31.16-31.12.02-17.21-13.91-31.17-31.12-31.19-.01,0-.02,0-.04,0Z"></path>
        <polygon class="st14" points="27.99 51.53 44.96 12.33 52.25 12.33 35.29 51.53 27.99 51.53"></polygon>
        <polygon class="st14" points="47.72 51.53 40.39 51.53 57.38 12.33 64.68 12.33 47.72 51.53"></polygon>
      </g>
      <g>
        <g>
          <path class="st16" d="M91.43,75.33c0-.08.07-.15.18-.15h.16c.08,0,.14.04.17.1l2.2,4.72h.03l2.2-4.72c.03-.06.08-.1.17-.1h.16c.11,0,.17.07.18.15l1.18,6.72c.03.14-.05.23-.18.23h-.91c-.09,0-.17-.08-.19-.15l-.59-3.79h-.03l-1.75,3.93c-.02.06-.08.11-.17.11h-.18c-.09,0-.14-.05-.17-.11l-1.77-3.93h-.03l-.58,3.79c-.01.07-.09.15-.18.15h-.9c-.13,0-.21-.09-.19-.23l1.19-6.72Z"></path>
          <path class="st16" d="M99.33,82.02l3.11-6.73c.03-.06.08-.11.17-.11h.1c.1,0,.14.05.17.11l3.08,6.73c.06.13-.02.26-.17.26h-.87c-.15,0-.22-.06-.29-.2l-.49-1.08h-2.99l-.49,1.08c-.04.1-.13.2-.29.2h-.87c-.15,0-.23-.13-.17-.26ZM103.65,79.89l-1-2.2h-.03l-.98,2.2h2.01Z"></path>
          <path class="st16" d="M107.68,75.52c0-.13.1-.24.24-.24h.88c.13,0,.24.11.24.24v2.7l2.52-2.84c.04-.05.1-.1.19-.1h1c.19,0,.29.21.16.36l-2.61,2.94,2.8,3.35c.1.13.02.35-.18.35h-1.09c-.1,0-.16-.04-.18-.07l-2.61-3.22v3.05c0,.13-.11.24-.24.24h-.88c-.14,0-.24-.11-.24-.24v-6.52Z"></path>
          <path class="st16" d="M115.01,75.47c0-.1.08-.19.19-.19h4.07c.11,0,.19.09.19.19v.82c0,.1-.08.19-.19.19h-2.96v1.64h2.47c.1,0,.19.09.19.19v.83c0,.11-.09.19-.19.19h-2.47v1.75h2.96c.11,0,.19.09.19.19v.82c0,.1-.08.19-.19.19h-4.07c-.11,0-.19-.09-.19-.19v-6.62Z"></path>
          <path class="st16" d="M127.81,75.18c2,0,3.6,1.61,3.6,3.61s-1.6,3.59-3.6,3.59-3.59-1.59-3.59-3.59,1.59-3.61,3.59-3.61ZM127.81,81.08c1.26,0,2.3-1.03,2.3-2.29s-1.04-2.31-2.3-2.31-2.29,1.05-2.29,2.31,1.03,2.29,2.29,2.29Z"></path>
          <path class="st16" d="M133.03,75.47c0-.1.09-.19.19-.19h.95c.11,0,.19.09.19.19v4.09c0,.85.58,1.52,1.45,1.52s1.46-.67,1.46-1.51v-4.1c0-.1.08-.19.19-.19h.95c.1,0,.19.09.19.19v4.16c0,1.52-1.21,2.75-2.79,2.75s-2.78-1.23-2.78-2.75v-4.16Z"></path>
          <path class="st16" d="M140.73,75.47c0-.1.08-.19.19-.19h2.86c1.2,0,2.18.96,2.18,2.15,0,.92-.61,1.67-1.48,2.02l1.37,2.54c.07.13,0,.29-.17.29h-1.05c-.09,0-.14-.05-.16-.09l-1.33-2.65h-1.11v2.55c0,.1-.09.19-.19.19h-.92c-.11,0-.19-.09-.19-.19v-6.62ZM143.67,78.47c.53,0,.99-.46.99-1.02,0-.53-.46-.97-.99-.97h-1.63v1.99h1.63Z"></path>
          <path class="st16" d="M182.41,78.91l-2.28-3.34c-.08-.13,0-.29.16-.29h1.02c.08,0,.13.05.16.09l1.6,2.3,1.6-2.3s.08-.09.16-.09h1.03c.16,0,.24.16.16.29l-2.31,3.33v3.19c0,.1-.09.19-.19.19h-.92c-.11,0-.19-.09-.19-.19v-3.18Z"></path>
          <path class="st16" d="M190.06,75.18c2,0,3.6,1.61,3.6,3.61s-1.6,3.59-3.6,3.59-3.59-1.59-3.59-3.59,1.59-3.61,3.59-3.61ZM190.06,81.08c1.26,0,2.3-1.03,2.3-2.29s-1.04-2.31-2.3-2.31-2.29,1.05-2.29,2.31,1.03,2.29,2.29,2.29Z"></path>
          <path class="st16" d="M195.08,75.47c0-.1.09-.19.19-.19h.95c.11,0,.19.09.19.19v4.09c0,.85.58,1.52,1.45,1.52s1.46-.67,1.46-1.51v-4.1c0-.1.08-.19.19-.19h.95c.1,0,.19.09.19.19v4.16c0,1.52-1.21,2.75-2.79,2.75s-2.78-1.23-2.78-2.75v-4.16Z"></path>
          <path class="st16" d="M202.57,75.47c0-.1.08-.19.19-.19h2.86c1.2,0,2.18.96,2.18,2.15,0,.92-.61,1.67-1.48,2.02l1.37,2.54c.07.13,0,.29-.17.29h-1.05c-.09,0-.14-.05-.16-.09l-1.33-2.65h-1.11v2.55c0,.1-.09.19-.19.19h-.92c-.11,0-.19-.09-.19-.19v-6.62ZM205.5,78.47c.53,0,.99-.46.99-1.02,0-.53-.46-.97-.99-.97h-1.63v1.99h1.63Z"></path>
          <path class="st16" d="M211.99,82.02l3.11-6.73c.03-.06.08-.11.17-.11h.1c.1,0,.14.05.17.11l3.08,6.73c.06.13-.02.26-.17.26h-.87c-.15,0-.22-.06-.29-.2l-.49-1.08h-2.99l-.49,1.08c-.04.1-.13.2-.29.2h-.87c-.15,0-.23-.13-.17-.26ZM216.3,79.89l-1-2.2h-.03l-.98,2.2h2.01Z"></path>
          <path class="st16" d="M220.44,75.47c0-.1.08-.19.18-.19h2.37c1.93,0,3.51,1.57,3.51,3.49s-1.58,3.51-3.51,3.51h-2.37c-.1,0-.18-.09-.18-.19v-6.62ZM222.86,81.06c1.3,0,2.25-.98,2.25-2.29s-.95-2.28-2.25-2.28h-1.14v4.57h1.14Z"></path>
          <path class="st16" d="M227.25,75.54c-.06-.13.02-.26.17-.26h1.02c.09,0,.15.06.17.11l1.92,4.3h.07l1.92-4.3s.08-.11.17-.11h1.02c.15,0,.23.13.17.26l-3.1,6.73c-.03.06-.08.11-.17.11h-.1c-.09,0-.14-.05-.17-.11l-3.09-6.73Z"></path>
          <path class="st16" d="M233.02,82.02l3.11-6.73c.03-.06.08-.11.17-.11h.1c.1,0,.14.05.17.11l3.08,6.73c.06.13-.02.26-.17.26h-.87c-.15,0-.22-.06-.29-.2l-.49-1.08h-2.99l-.49,1.08c-.04.1-.13.2-.29.2h-.87c-.15,0-.23-.13-.17-.26ZM237.33,79.89l-1-2.2h-.03l-.98,2.2h2.01Z"></path>
          <path class="st16" d="M240.95,75.36c0-.1.09-.18.19-.18h.25l4.16,4.42h.01v-4.13c0-.1.08-.19.19-.19h.92c.1,0,.19.09.19.19v6.73c0,.1-.09.18-.19.18h-.24l-4.18-4.59h0v4.3c0,.1-.08.19-.19.19h-.91c-.1,0-.19-.09-.19-.19v-6.73Z"></path>
          <path class="st16" d="M250.33,76.48h-1.53c-.11,0-.19-.09-.19-.19v-.82c0-.1.08-.19.19-.19h4.37c.11,0,.19.09.19.19v.82c0,.1-.08.19-.19.19h-1.53v5.61c0,.1-.09.19-.19.19h-.93c-.1,0-.19-.09-.19-.19v-5.61Z"></path>
          <path class="st16" d="M253.39,82.02l3.11-6.73c.03-.06.08-.11.17-.11h.1c.1,0,.14.05.17.11l3.08,6.73c.06.13-.02.26-.17.26h-.87c-.15,0-.22-.06-.29-.2l-.49-1.08h-2.99l-.49,1.08c-.04.1-.13.2-.29.2h-.87c-.15,0-.23-.13-.17-.26ZM257.7,79.89l-1-2.2h-.03l-.98,2.2h2.01Z"></path>
          <path class="st16" d="M263.89,75.18c.9,0,1.76.35,2.44.93.08.08.09.2,0,.28l-.62.65c-.08.08-.17.08-.26,0-.43-.38-.96-.58-1.51-.58-1.25,0-2.24,1.07-2.24,2.32s.99,2.29,2.25,2.29c.56,0,.99-.17,1.19-.25v-.85h-.8c-.11,0-.19-.08-.19-.18v-.79c0-.11.08-.19.19-.19h1.92c.1,0,.18.09.18.19v2.56c0,.08-.04.13-.08.16,0,0-1.03.65-2.48.65-1.99,0-3.59-1.58-3.59-3.58s1.6-3.61,3.59-3.61Z"></path>
          <path class="st16" d="M268.29,75.47c0-.1.08-.19.19-.19h4.07c.11,0,.19.09.19.19v.82c0,.1-.08.19-.19.19h-2.96v1.64h2.47c.1,0,.19.09.19.19v.83c0,.11-.09.19-.19.19h-2.47v1.75h2.96c.11,0,.19.09.19.19v.82c0,.1-.08.19-.19.19h-4.07c-.11,0-.19-.09-.19-.19v-6.62Z"></path>
        </g>
        <g>
          <path class="st16" d="M151.41,75.47c.01-.1.11-.19.22-.19h4.07c.11,0,.18.09.16.19l-.12.82c-.01.1-.11.19-.22.19h-2.96l-.23,1.64h2.47c.1,0,.18.09.16.19l-.12.83c-.02.11-.12.19-.22.19h-2.47l-.25,1.75h2.96c.11,0,.18.09.16.19l-.12.82c-.01.1-.11.19-.22.19h-4.07c-.11,0-.18-.09-.16-.19l.93-6.62Z"></path>
          <path class="st16" d="M157.46,75.47c.01-.1.1-.19.19-.19h2.2c1.79,0,3.05,1.57,2.8,3.49-.25,1.94-1.92,3.51-3.71,3.51h-2.2c-.09,0-.16-.09-.14-.19l.86-6.62ZM158.99,81.06c1.21,0,2.21-.98,2.38-2.29.17-1.3-.58-2.28-1.79-2.28h-1.06l-.6,4.57h1.06Z"></path>
          <path class="st16" d="M167.87,75.18c.81,0,1.54.35,2.08.93.06.08.06.2-.03.28l-.64.65c-.08.08-.16.08-.23,0-.34-.38-.79-.58-1.29-.58-1.13,0-2.15,1.07-2.31,2.32-.16,1.24.6,2.29,1.74,2.29.51,0,.91-.17,1.1-.25l.11-.85h-.72c-.1,0-.16-.08-.15-.18l.1-.79c.01-.11.1-.19.2-.19h1.73c.09,0,.15.09.14.19l-.32,2.56c0,.08-.05.13-.09.16,0,0-1.01.65-2.32.65-1.79,0-3.03-1.58-2.78-3.58.25-2,1.9-3.61,3.69-3.61Z"></path>
          <path class="st16" d="M172.51,75.47c.01-.1.11-.19.22-.19h4.07c.11,0,.18.09.16.19l-.12.82c-.01.1-.11.19-.22.19h-2.96l-.23,1.64h2.47c.1,0,.18.09.16.19l-.12.83c-.02.11-.12.19-.22.19h-2.47l-.25,1.75h2.96c.11,0,.18.09.16.19l-.12.82c-.01.1-.11.19-.22.19h-4.07c-.11,0-.18-.09-.16-.19l.93-6.62Z"></path>
        </g>
      </g>
    </g>
  </g>
  <g id="blue_x5F_white_x5F_acumera" class="st17">
    <g>
      <g>
        <g>
          <path class="st14" d="M94.77,59.47c1.07,0,1.85.34,2.58.99.1.09.1.21.01.3l-.65.67c-.07.09-.18.09-.27,0-.45-.39-1.04-.63-1.64-.63-1.36,0-2.37,1.14-2.37,2.48s1.02,2.46,2.38,2.46c.64,0,1.18-.24,1.63-.61.09-.07.2-.06.27,0l.66.68c.08.07.06.21-.01.29-.72.7-1.64,1.03-2.59,1.03-2.13,0-3.84-1.69-3.84-3.82s1.71-3.84,3.84-3.84Z"></path>
          <path class="st14" d="M116.91,59.47c2.13,0,3.83,1.71,3.83,3.84s-1.7,3.82-3.83,3.82-3.82-1.69-3.82-3.82,1.69-3.84,3.82-3.84ZM116.91,65.75c1.34,0,2.45-1.1,2.45-2.44s-1.11-2.46-2.45-2.46-2.44,1.12-2.44,2.46,1.1,2.44,2.44,2.44Z"></path>
          <path class="st14" d="M137.8,59.63c.01-.09.07-.16.19-.16h.17c.09,0,.15.04.18.11l2.34,5.02h.03l2.34-5.02c.03-.06.08-.11.18-.11h.17c.12,0,.18.07.19.16l1.25,7.15c.03.15-.05.24-.19.24h-.97c-.1,0-.18-.08-.2-.16l-.63-4.03h-.03l-1.86,4.18c-.02.06-.09.12-.18.12h-.19c-.1,0-.15-.05-.18-.12l-1.88-4.18h-.03l-.62,4.03c-.01.07-.1.16-.19.16h-.96c-.14,0-.22-.1-.2-.24l1.27-7.15Z"></path>
          <path class="st14" d="M161.21,59.77c0-.11.09-.2.2-.2h2.5c1.31,0,2.38,1.06,2.38,2.35s-1.07,2.39-2.37,2.39h-1.33v2.5c0,.11-.1.2-.2.2h-.98c-.12,0-.2-.1-.2-.2v-7.04ZM163.83,63.02c.6,0,1.1-.48,1.1-1.11,0-.59-.5-1.03-1.1-1.03h-1.23v2.14h1.23Z"></path>
          <path class="st14" d="M182.3,59.77c0-.11.1-.2.2-.2h1.01c.12,0,.2.1.2.2v4.35c0,.9.62,1.62,1.54,1.62s1.55-.71,1.55-1.61v-4.36c0-.11.09-.2.2-.2h1.01c.11,0,.2.1.2.2v4.43c0,1.62-1.29,2.93-2.97,2.93s-2.96-1.31-2.96-2.93v-4.43Z"></path>
          <path class="st14" d="M205.95,60.85h-1.63c-.12,0-.2-.1-.2-.2v-.87c0-.11.09-.2.2-.2h4.65c.12,0,.2.1.2.2v.87c0,.11-.08.2-.2.2h-1.63v5.97c0,.11-.1.2-.2.2h-.99c-.11,0-.2-.1-.2-.2v-5.97Z"></path>
          <path class="st14" d="M225.18,59.77c0-.11.1-.2.2-.2h.99c.11,0,.2.1.2.2v7.04c0,.11-.1.2-.2.2h-.99c-.11,0-.2-.1-.2-.2v-7.04Z"></path>
          <path class="st14" d="M243.41,59.66c0-.11.1-.19.2-.19h.27l4.43,4.7h.01v-4.4c0-.11.09-.2.2-.2h.98c.11,0,.2.1.2.2v7.16c0,.11-.1.19-.2.19h-.26l-4.45-4.88h0v4.58c0,.11-.09.2-.2.2h-.97c-.11,0-.2-.1-.2-.2v-7.16Z"></path>
          <path class="st14" d="M269.82,59.47c.96,0,1.87.37,2.6.99.08.09.1.21.01.3l-.66.69c-.09.08-.18.08-.28,0-.46-.4-1.02-.62-1.61-.62-1.33,0-2.38,1.14-2.38,2.47s1.05,2.44,2.39,2.44c.6,0,1.05-.18,1.27-.27v-.9h-.85c-.12,0-.2-.08-.2-.19v-.84c0-.12.09-.2.2-.2h2.04c.11,0,.19.1.19.2v2.72c0,.08-.04.14-.08.17,0,0-1.1.69-2.64.69-2.12,0-3.82-1.68-3.82-3.81s1.7-3.84,3.82-3.84Z"></path>
          <polygon class="st15" points="185.35 12.05 192.72 12.05 175.6 51.59 168.23 51.59 185.35 12.05"></polygon>
          <polygon class="st12" points="172.83 12.05 180.19 12.05 163.08 51.59 155.7 51.59 172.83 12.05"></polygon>
          <path class="st14" d="M148.74,41.25c-2.32,2.44-5.55,4.03-9.18,4.21-7.52.38-13.93-5.4-14.32-12.93-.38-7.52,5.4-13.93,12.93-14.32,4.42-.23,8.45,1.68,11.11,4.81l4.86-3.75c-3.84-4.67-9.77-7.52-16.28-7.19-10.9.56-19.29,9.84-18.74,20.75.56,10.9,9.84,19.29,20.75,18.74,5.62-.29,10.57-2.9,13.97-6.85l-5.11-3.49Z"></path>
          <polygon class="st14" points="195.86 21.6 208.86 51.71 201.69 51.71 188.68 21.6 195.86 21.6"></polygon>
          <polygon class="st14" points="239.74 45.28 221.77 45.28 221.77 12.17 215.35 12.17 215.35 51.71 217.02 51.71 221.77 51.71 239.74 51.71 239.74 45.28"></polygon>
          <path class="st14" d="M104.17,28.7c-5.28-1.97-6.97-3.48-6.97-6.22,0-3.17,3.15-4.59,6.27-4.59,2.64,0,4.74.67,6.17,1.33l2.32-5.37c-1.47-.71-4.2-1.65-8.33-1.65-7.76,0-13.18,4.45-13.18,10.83,0,5.17,3.38,8.73,10.61,11.21,4.86,1.8,6.58,3.48,6.58,6.44,0,3.3-2.7,5.35-7.06,5.35-2.79,0-5.86-.83-8.24-2.21l-2.33,5.39.06.04c2.27,1.46,6.45,2.48,10.17,2.48,4.41,0,8.07-1.17,10.6-3.37,2.32-2.03,3.59-4.89,3.59-8.05,0-5.44-3.07-8.91-10.27-11.58Z"></path>
          <polygon class="st14" points="252.62 18.6 272.72 18.6 272.72 12.17 252.62 12.17 247.87 12.17 246.2 12.17 246.2 51.71 247.87 51.71 252.62 51.71 272.72 51.71 272.72 45.28 252.62 45.28 252.62 40.35 252.62 35.35 252.62 35.3 266.1 35.3 266.1 28.87 252.62 28.87 252.62 27.14 252.62 18.6"></polygon>
          <path class="st13" d="M46.01.66c-17.21,0-31.16,13.95-31.16,31.16,0,17.21,13.95,31.16,31.16,31.16,17.19,0,31.14-13.93,31.16-31.12.02-17.21-13.91-31.17-31.12-31.19-.01,0-.02,0-.04,0Z"></path>
          <polygon class="st14" points="27.99 51.53 44.96 12.33 52.25 12.33 35.29 51.53 27.99 51.53"></polygon>
          <polygon class="st14" points="47.72 51.53 40.39 51.53 57.38 12.33 64.68 12.33 47.72 51.53"></polygon>
        </g>
        <g>
          <path class="st14" d="M94.77,59.47c1.07,0,1.85.34,2.58.99.1.09.1.21.01.3l-.65.67c-.07.09-.18.09-.27,0-.45-.39-1.04-.63-1.64-.63-1.36,0-2.37,1.14-2.37,2.48s1.02,2.46,2.38,2.46c.64,0,1.18-.24,1.63-.61.09-.07.2-.06.27,0l.66.68c.08.07.06.21-.01.29-.72.7-1.64,1.03-2.59,1.03-2.13,0-3.84-1.69-3.84-3.82s1.71-3.84,3.84-3.84Z"></path>
          <path class="st14" d="M116.91,59.47c2.13,0,3.83,1.71,3.83,3.84s-1.7,3.82-3.83,3.82-3.82-1.69-3.82-3.82,1.69-3.84,3.82-3.84ZM116.91,65.75c1.34,0,2.45-1.1,2.45-2.44s-1.11-2.46-2.45-2.46-2.44,1.12-2.44,2.46,1.1,2.44,2.44,2.44Z"></path>
          <path class="st14" d="M137.8,59.63c.01-.09.07-.16.19-.16h.17c.09,0,.15.04.18.11l2.34,5.02h.03l2.34-5.02c.03-.06.08-.11.18-.11h.17c.12,0,.18.07.19.16l1.25,7.15c.03.15-.05.24-.19.24h-.97c-.1,0-.18-.08-.2-.16l-.63-4.03h-.03l-1.86,4.18c-.02.06-.09.12-.18.12h-.19c-.1,0-.15-.05-.18-.12l-1.88-4.18h-.03l-.62,4.03c-.01.07-.1.16-.19.16h-.96c-.14,0-.22-.1-.2-.24l1.27-7.15Z"></path>
          <path class="st14" d="M161.21,59.77c0-.11.09-.2.2-.2h2.5c1.31,0,2.38,1.06,2.38,2.35s-1.07,2.39-2.37,2.39h-1.33v2.5c0,.11-.1.2-.2.2h-.98c-.12,0-.2-.1-.2-.2v-7.04ZM163.83,63.02c.6,0,1.1-.48,1.1-1.11,0-.59-.5-1.03-1.1-1.03h-1.23v2.14h1.23Z"></path>
          <path class="st14" d="M182.3,59.77c0-.11.1-.2.2-.2h1.01c.12,0,.2.1.2.2v4.35c0,.9.62,1.62,1.54,1.62s1.55-.71,1.55-1.61v-4.36c0-.11.09-.2.2-.2h1.01c.11,0,.2.1.2.2v4.43c0,1.62-1.29,2.93-2.97,2.93s-2.96-1.31-2.96-2.93v-4.43Z"></path>
          <path class="st14" d="M205.95,60.85h-1.63c-.12,0-.2-.1-.2-.2v-.87c0-.11.09-.2.2-.2h4.65c.12,0,.2.1.2.2v.87c0,.11-.08.2-.2.2h-1.63v5.97c0,.11-.1.2-.2.2h-.99c-.11,0-.2-.1-.2-.2v-5.97Z"></path>
          <path class="st14" d="M225.18,59.77c0-.11.1-.2.2-.2h.99c.11,0,.2.1.2.2v7.04c0,.11-.1.2-.2.2h-.99c-.11,0-.2-.1-.2-.2v-7.04Z"></path>
          <path class="st14" d="M243.41,59.66c0-.11.1-.19.2-.19h.27l4.43,4.7h.01v-4.4c0-.11.09-.2.2-.2h.98c.11,0,.2.1.2.2v7.16c0,.11-.1.19-.2.19h-.26l-4.45-4.88h0v4.58c0,.11-.09.2-.2.2h-.97c-.11,0-.2-.1-.2-.2v-7.16Z"></path>
          <path class="st14" d="M269.82,59.47c.96,0,1.87.37,2.6.99.08.09.1.21.01.3l-.66.69c-.09.08-.18.08-.28,0-.46-.4-1.02-.62-1.61-.62-1.33,0-2.38,1.14-2.38,2.47s1.05,2.44,2.39,2.44c.6,0,1.05-.18,1.27-.27v-.9h-.85c-.12,0-.2-.08-.2-.19v-.84c0-.12.09-.2.2-.2h2.04c.11,0,.19.1.19.2v2.72c0,.08-.04.14-.08.17,0,0-1.1.69-2.64.69-2.12,0-3.82-1.68-3.82-3.81s1.7-3.84,3.82-3.84Z"></path>
          <polygon class="st15" points="185.35 12.05 192.72 12.05 175.6 51.59 168.23 51.59 185.35 12.05"></polygon>
          <polygon class="st0" points="172.83 12.05 180.19 12.05 163.08 51.59 155.7 51.59 172.83 12.05"></polygon>
          <path class="st14" d="M148.74,41.25c-2.32,2.44-5.55,4.03-9.18,4.21-7.52.38-13.93-5.4-14.32-12.93-.38-7.52,5.4-13.93,12.93-14.32,4.42-.23,8.45,1.68,11.11,4.81l4.86-3.75c-3.84-4.67-9.77-7.52-16.28-7.19-10.9.56-19.29,9.84-18.74,20.75.56,10.9,9.84,19.29,20.75,18.74,5.62-.29,10.57-2.9,13.97-6.85l-5.11-3.49Z"></path>
          <polygon class="st14" points="195.86 21.6 208.86 51.71 201.69 51.71 188.68 21.6 195.86 21.6"></polygon>
          <polygon class="st14" points="239.74 45.28 221.77 45.28 221.77 12.17 215.35 12.17 215.35 51.71 217.02 51.71 221.77 51.71 239.74 51.71 239.74 45.28"></polygon>
          <path class="st14" d="M104.17,28.7c-5.28-1.97-6.97-3.48-6.97-6.22,0-3.17,3.15-4.59,6.27-4.59,2.64,0,4.74.67,6.17,1.33l2.32-5.37c-1.47-.71-4.2-1.65-8.33-1.65-7.76,0-13.18,4.45-13.18,10.83,0,5.17,3.38,8.73,10.61,11.21,4.86,1.8,6.58,3.48,6.58,6.44,0,3.3-2.7,5.35-7.06,5.35-2.79,0-5.86-.83-8.24-2.21l-2.33,5.39.06.04c2.27,1.46,6.45,2.48,10.17,2.48,4.41,0,8.07-1.17,10.6-3.37,2.32-2.03,3.59-4.89,3.59-8.05,0-5.44-3.07-8.91-10.27-11.58Z"></path>
          <polygon class="st14" points="252.62 18.6 272.72 18.6 272.72 12.17 252.62 12.17 247.87 12.17 246.2 12.17 246.2 51.71 247.87 51.71 252.62 51.71 272.72 51.71 272.72 45.28 252.62 45.28 252.62 40.35 252.62 35.35 252.62 35.3 266.1 35.3 266.1 28.87 252.62 28.87 252.62 27.14 252.62 18.6"></polygon>
          <path class="st1" d="M46.01.66c-17.21,0-31.16,13.95-31.16,31.16,0,17.21,13.95,31.16,31.16,31.16,17.19,0,31.14-13.93,31.16-31.12.02-17.21-13.91-31.17-31.12-31.19-.01,0-.02,0-.04,0Z"></path>
          <polygon class="st14" points="27.99 51.53 44.96 12.33 52.25 12.33 35.29 51.53 27.99 51.53"></polygon>
          <polygon class="st14" points="47.72 51.53 40.39 51.53 57.38 12.33 64.68 12.33 47.72 51.53"></polygon>
        </g>
      </g>
      <g>
        <path class="st14" d="M169.76,78.91l3.11-6.73c.03-.06.08-.11.17-.11h.1c.1,0,.14.05.17.11l3.08,6.73c.06.13-.02.26-.17.26h-.87c-.15,0-.22-.06-.29-.2l-.49-1.08h-2.99l-.49,1.08c-.04.1-.13.2-.29.2h-.87c-.15,0-.23-.13-.17-.26ZM174.08,76.79l-1-2.2h-.03l-.98,2.2h2.01Z"></path>
        <path class="st14" d="M177.84,75.37c0-.11.09-.19.19-.19h.38c.09,0,.14.05.17.12l.14.37c.15-.16.64-.59,1.41-.59,1.27,0,1.78.95,1.78,1.99v1.92c0,.1-.09.19-.19.19h-.82c-.11,0-.19-.09-.19-.19v-1.98c0-.52-.27-.85-.75-.85-.52,0-.84.36-.94.63v2.2c0,.14-.06.19-.25.19h-.74c-.1,0-.19-.09-.19-.19v-3.62Z"></path>
        <path class="st14" d="M185.84,78.91l3.11-6.73c.03-.06.08-.11.17-.11h.1c.1,0,.14.05.17.11l3.08,6.73c.06.13-.02.26-.17.26h-.87c-.15,0-.22-.06-.29-.2l-.49-1.08h-2.99l-.49,1.08c-.04.1-.13.2-.29.2h-.87c-.15,0-.23-.13-.17-.26ZM190.16,76.79l-1-2.2h-.03l-.98,2.2h2.01Z"></path>
        <path class="st14" d="M195.63,75.08c.62,0,1.1.25,1.48.71.07.09.05.21-.05.28l-.46.44c-.09.08-.18.03-.25-.03-.16-.18-.41-.32-.69-.32-.54,0-.98.46-.98,1.02s.43,1.02.97,1.02c.43,0,.62-.21.8-.38.07-.07.17-.09.25-.03l.43.37c.1.08.14.18.07.28-.34.53-.87.84-1.58.84-1.13,0-2.12-.9-2.12-2.1s1.01-2.1,2.13-2.1Z"></path>
        <path class="st14" d="M198.82,75.37c0-.11.09-.19.19-.19h.82c.1,0,.19.08.19.19v1.97c0,.53.27.86.73.86.42,0,.74-.39.8-.75v-2.08c0-.15.06-.19.22-.19h.76c.1,0,.19.08.19.19v3.62c0,.1-.09.19-.19.19h-.37c-.1,0-.16-.07-.19-.15l-.12-.33c-.18.16-.55.58-1.34.58-1.24,0-1.69-.95-1.69-1.97v-1.94Z"></path>
        <path class="st14" d="M204.74,75.37c0-.11.09-.19.19-.19h.37c.09,0,.15.05.17.11l.14.38c.17-.19.63-.59,1.34-.59.57,0,.97.22,1.3.62.17-.18.69-.62,1.41-.62,1.28,0,1.75.95,1.75,2v1.91c0,.1-.08.19-.19.19h-.81c-.11,0-.19-.09-.19-.19v-1.98c0-.52-.25-.85-.75-.85-.58,0-.84.42-.84.42,0,0,0,.2,0,.38v2.03c0,.1-.09.19-.19.19h-.75c-.11,0-.19-.09-.19-.19v-1.98c0-.52-.23-.85-.74-.85s-.74.36-.84.63v2.2c0,.1-.09.19-.19.19h-.81c-.1,0-.19-.09-.19-.19v-3.62Z"></path>
        <path class="st14" d="M214.78,75.08c1.03,0,1.87.78,1.87,1.86,0,.07-.01.2-.02.27,0,.1-.1.17-.19.17h-2.56c.03.41.38.87.96.87.31,0,.6-.12.78-.25.1-.06.19-.08.26,0l.41.47c.07.07.09.18,0,.26-.33.31-.84.55-1.49.55-1.2,0-2.05-.95-2.05-2.1s.85-2.1,2.04-2.1ZM215.48,76.67c-.03-.37-.35-.68-.73-.68-.4,0-.73.3-.78.68h1.51Z"></path>
        <path class="st14" d="M218.41,75.37c0-.11.09-.19.19-.19h.38c.09,0,.15.05.18.13l.14.39c.14-.2.51-.62,1.13-.62.47,0,.89.15.77.4l-.37.65c-.05.09-.15.13-.23.09-.03-.01-.18-.06-.29-.06-.4,0-.64.27-.71.41v2.42c0,.14-.09.19-.23.19h-.77c-.1,0-.19-.09-.19-.19v-3.62Z"></path>
        <path class="st14" d="M223.7,76.65c.4,0,.73.11.73.11,0-.51-.15-.69-.52-.69s-.89.08-1.12.15c-.14.04-.21-.05-.23-.18l-.09-.52c-.03-.15.05-.22.14-.25.08-.03.72-.19,1.36-.19,1.25,0,1.54.65,1.54,1.74v2.17c0,.1-.09.19-.19.19h-.36c-.07,0-.12-.03-.17-.14l-.12-.27c-.23.21-.6.51-1.22.51-.8,0-1.35-.52-1.35-1.37,0-.71.58-1.26,1.6-1.26ZM223.72,78.42c.32,0,.63-.27.69-.39v-.55s-.27-.12-.56-.12c-.39,0-.65.22-.65.54,0,.3.21.52.52.52Z"></path>
        <path class="st14" d="M233.92,72.08c1.01,0,1.74.32,2.42.93.09.08.09.2,0,.28l-.61.63c-.07.08-.17.08-.25,0-.42-.37-.98-.59-1.54-.59-1.28,0-2.23,1.07-2.23,2.33s.96,2.31,2.24,2.31c.6,0,1.11-.23,1.53-.57.08-.07.19-.06.25,0l.62.64c.08.07.06.2,0,.27-.68.66-1.54.97-2.43.97-2,0-3.61-1.59-3.61-3.59s1.61-3.61,3.61-3.61Z"></path>
        <path class="st14" d="M239.54,75.08c1.13,0,2.05.96,2.05,2.09s-.92,2.11-2.05,2.11-2.05-.96-2.05-2.11.92-2.09,2.05-2.09ZM239.54,78.19c.53,0,.96-.46.96-1.03s-.43-1.01-.96-1.01-.96.45-.96,1.01.42,1.03.96,1.03Z"></path>
        <path class="st14" d="M243.3,75.37c0-.11.09-.19.19-.19h.37c.09,0,.15.05.17.11l.14.38c.17-.19.63-.59,1.34-.59.57,0,.97.22,1.3.62.17-.18.69-.62,1.41-.62,1.28,0,1.75.95,1.75,2v1.91c0,.1-.08.19-.19.19h-.81c-.11,0-.19-.09-.19-.19v-1.98c0-.52-.25-.85-.75-.85-.58,0-.84.42-.84.42,0,0,0,.2,0,.38v2.03c0,.1-.09.19-.19.19h-.75c-.11,0-.19-.09-.19-.19v-1.98c0-.52-.23-.85-.74-.85s-.74.36-.84.63v2.2c0,.1-.09.19-.19.19h-.81c-.1,0-.19-.09-.19-.19v-3.62Z"></path>
        <path class="st14" d="M252.96,81.98c0,.12-.06.19-.24.19h-.8c-.1,0-.19-.09-.19-.19v-6.62c0-.11.09-.19.19-.19h.39c.07,0,.14.04.17.12l.13.33c.15-.2.64-.55,1.29-.55,1.1,0,1.93.95,1.93,2.1s-.9,2.1-1.98,2.1c-.39,0-.75-.14-.89-.22v2.93ZM253.69,78.19c.56,0,.97-.46.97-1.02s-.38-1.02-.93-1.02c-.51,0-.76.4-.82.61v1.2s.28.23.78.23Z"></path>
        <path class="st14" d="M258.77,76.65c.4,0,.73.11.73.11,0-.51-.15-.69-.52-.69s-.89.08-1.12.15c-.14.04-.21-.05-.23-.18l-.09-.52c-.03-.15.05-.22.14-.25.08-.03.72-.19,1.36-.19,1.25,0,1.54.65,1.54,1.74v2.17c0,.1-.09.19-.19.19h-.36c-.07,0-.12-.03-.17-.14l-.12-.27c-.23.21-.6.51-1.22.51-.8,0-1.35-.52-1.35-1.37,0-.71.58-1.26,1.6-1.26ZM258.79,78.42c.32,0,.63-.27.69-.39v-.55s-.27-.12-.56-.12c-.39,0-.65.22-.65.54,0,.3.21.52.52.52Z"></path>
        <path class="st14" d="M262.55,75.37c0-.11.09-.19.19-.19h.38c.09,0,.14.05.17.12l.14.37c.15-.16.64-.59,1.41-.59,1.27,0,1.78.95,1.78,1.99v1.92c0,.1-.09.19-.19.19h-.82c-.11,0-.19-.09-.19-.19v-1.98c0-.52-.27-.85-.75-.85-.52,0-.84.36-.94.63v2.2c0,.14-.06.19-.25.19h-.74c-.1,0-.19-.09-.19-.19v-3.62Z"></path>
        <path class="st14" d="M267.77,75.44c-.06-.13.02-.26.17-.26h.9c.09,0,.14.05.17.11l1.01,2.26h0l1-2.26c.05-.1.12-.11.24-.11h.8c.16,0,.24.13.17.26l-3.06,6.62c-.03.06-.09.12-.17.12h-.86c-.15,0-.24-.13-.17-.27l1.42-3.01-1.63-3.46Z"></path>
      </g>
    </g>
  </g>
  <g id="blue_x5F_white_x5F_edge" class="st17">
    <g>
      <g>
        <path class="st14" d="M94.77,59.47c1.07,0,1.85.34,2.58.99.1.09.1.21.01.3l-.65.67c-.07.09-.18.09-.27,0-.45-.39-1.04-.63-1.64-.63-1.36,0-2.37,1.14-2.37,2.48s1.02,2.46,2.38,2.46c.64,0,1.18-.24,1.63-.61.09-.07.2-.06.27,0l.66.68c.08.07.06.21-.01.29-.72.7-1.64,1.03-2.59,1.03-2.13,0-3.84-1.69-3.84-3.82s1.71-3.84,3.84-3.84Z"></path>
        <path class="st14" d="M116.91,59.47c2.13,0,3.83,1.71,3.83,3.84s-1.7,3.82-3.83,3.82-3.82-1.69-3.82-3.82,1.69-3.84,3.82-3.84ZM116.91,65.75c1.34,0,2.45-1.1,2.45-2.44s-1.11-2.46-2.45-2.46-2.44,1.12-2.44,2.46,1.1,2.44,2.44,2.44Z"></path>
        <path class="st14" d="M137.8,59.63c.01-.09.07-.16.19-.16h.17c.09,0,.15.04.18.11l2.34,5.02h.03l2.34-5.02c.03-.06.08-.11.18-.11h.17c.12,0,.18.07.19.16l1.25,7.15c.03.15-.05.24-.19.24h-.97c-.1,0-.18-.08-.2-.16l-.63-4.03h-.03l-1.86,4.18c-.02.06-.09.12-.18.12h-.19c-.1,0-.15-.05-.18-.12l-1.88-4.18h-.03l-.62,4.03c-.01.07-.1.16-.19.16h-.96c-.14,0-.22-.1-.2-.24l1.27-7.15Z"></path>
        <path class="st14" d="M161.21,59.77c0-.11.09-.2.2-.2h2.5c1.31,0,2.38,1.06,2.38,2.35s-1.07,2.39-2.37,2.39h-1.33v2.5c0,.11-.1.2-.2.2h-.98c-.12,0-.2-.1-.2-.2v-7.04ZM163.83,63.02c.6,0,1.1-.48,1.1-1.11,0-.59-.5-1.03-1.1-1.03h-1.23v2.14h1.23Z"></path>
        <path class="st14" d="M182.3,59.77c0-.11.1-.2.2-.2h1.01c.12,0,.2.1.2.2v4.35c0,.9.62,1.62,1.54,1.62s1.55-.71,1.55-1.61v-4.36c0-.11.09-.2.2-.2h1.01c.11,0,.2.1.2.2v4.43c0,1.62-1.29,2.93-2.97,2.93s-2.96-1.31-2.96-2.93v-4.43Z"></path>
        <path class="st14" d="M205.95,60.85h-1.63c-.12,0-.2-.1-.2-.2v-.87c0-.11.09-.2.2-.2h4.65c.12,0,.2.1.2.2v.87c0,.11-.08.2-.2.2h-1.63v5.97c0,.11-.1.2-.2.2h-.99c-.11,0-.2-.1-.2-.2v-5.97Z"></path>
        <path class="st14" d="M225.18,59.77c0-.11.1-.2.2-.2h.99c.11,0,.2.1.2.2v7.04c0,.11-.1.2-.2.2h-.99c-.11,0-.2-.1-.2-.2v-7.04Z"></path>
        <path class="st14" d="M243.41,59.66c0-.11.1-.19.2-.19h.27l4.43,4.7h.01v-4.4c0-.11.09-.2.2-.2h.98c.11,0,.2.1.2.2v7.16c0,.11-.1.19-.2.19h-.26l-4.45-4.88h0v4.58c0,.11-.09.2-.2.2h-.97c-.11,0-.2-.1-.2-.2v-7.16Z"></path>
        <path class="st14" d="M269.82,59.47c.96,0,1.87.37,2.6.99.08.09.1.21.01.3l-.66.69c-.09.08-.18.08-.28,0-.46-.4-1.02-.62-1.61-.62-1.33,0-2.38,1.14-2.38,2.47s1.05,2.44,2.39,2.44c.6,0,1.05-.18,1.27-.27v-.9h-.85c-.12,0-.2-.08-.2-.19v-.84c0-.12.09-.2.2-.2h2.04c.11,0,.19.1.19.2v2.72c0,.08-.04.14-.08.17,0,0-1.1.69-2.64.69-2.12,0-3.82-1.68-3.82-3.81s1.7-3.84,3.82-3.84Z"></path>
        <polygon class="st15" points="185.35 12.05 192.72 12.05 175.6 51.59 168.23 51.59 185.35 12.05"></polygon>
        <polygon class="st2" points="172.83 12.05 180.19 12.05 163.08 51.59 155.7 51.59 172.83 12.05"></polygon>
        <path class="st14" d="M148.74,41.25c-2.32,2.44-5.55,4.03-9.18,4.21-7.52.38-13.93-5.4-14.32-12.93-.38-7.52,5.4-13.93,12.93-14.32,4.42-.23,8.45,1.68,11.11,4.81l4.86-3.75c-3.84-4.67-9.77-7.52-16.28-7.19-10.9.56-19.29,9.84-18.74,20.75.56,10.9,9.84,19.29,20.75,18.74,5.62-.29,10.57-2.9,13.97-6.85l-5.11-3.49Z"></path>
        <polygon class="st14" points="195.86 21.6 208.86 51.71 201.69 51.71 188.68 21.6 195.86 21.6"></polygon>
        <polygon class="st14" points="239.74 45.28 221.77 45.28 221.77 12.17 215.35 12.17 215.35 51.71 217.02 51.71 221.77 51.71 239.74 51.71 239.74 45.28"></polygon>
        <path class="st14" d="M104.17,28.7c-5.28-1.97-6.97-3.48-6.97-6.22,0-3.17,3.15-4.59,6.27-4.59,2.64,0,4.74.67,6.17,1.33l2.32-5.37c-1.47-.71-4.2-1.65-8.33-1.65-7.76,0-13.18,4.45-13.18,10.83,0,5.17,3.38,8.73,10.61,11.21,4.86,1.8,6.58,3.48,6.58,6.44,0,3.3-2.7,5.35-7.06,5.35-2.79,0-5.86-.83-8.24-2.21l-2.33,5.39.06.04c2.27,1.46,6.45,2.48,10.17,2.48,4.41,0,8.07-1.17,10.6-3.37,2.32-2.03,3.59-4.89,3.59-8.05,0-5.44-3.07-8.91-10.27-11.58Z"></path>
        <polygon class="st14" points="252.62 18.6 272.72 18.6 272.72 12.17 252.62 12.17 247.87 12.17 246.2 12.17 246.2 51.71 247.87 51.71 252.62 51.71 272.72 51.71 272.72 45.28 252.62 45.28 252.62 40.35 252.62 35.35 252.62 35.3 266.1 35.3 266.1 28.87 252.62 28.87 252.62 27.14 252.62 18.6"></polygon>
        <path class="st3" d="M46.01.66c-17.21,0-31.16,13.95-31.16,31.16,0,17.21,13.95,31.16,31.16,31.16,17.19,0,31.14-13.93,31.16-31.12.02-17.21-13.91-31.17-31.12-31.19-.01,0-.02,0-.04,0Z"></path>
        <polygon class="st14" points="27.99 51.53 44.96 12.33 52.25 12.33 35.29 51.53 27.99 51.53"></polygon>
        <polygon class="st14" points="47.72 51.53 40.39 51.53 57.38 12.33 64.68 12.33 47.72 51.53"></polygon>
      </g>
      <g>
        <g>
          <path class="st16" d="M91.43,75.33c0-.08.07-.15.18-.15h.16c.08,0,.14.04.17.1l2.2,4.72h.03l2.2-4.72c.03-.06.08-.1.17-.1h.16c.11,0,.17.07.18.15l1.18,6.72c.03.14-.05.23-.18.23h-.91c-.09,0-.17-.08-.19-.15l-.59-3.79h-.03l-1.75,3.93c-.02.06-.08.11-.17.11h-.18c-.09,0-.14-.05-.17-.11l-1.77-3.93h-.03l-.58,3.79c-.01.07-.09.15-.18.15h-.9c-.13,0-.21-.09-.19-.23l1.19-6.72Z"></path>
          <path class="st16" d="M99.33,82.02l3.11-6.73c.03-.06.08-.11.17-.11h.1c.1,0,.14.05.17.11l3.08,6.73c.06.13-.02.26-.17.26h-.87c-.15,0-.22-.06-.29-.2l-.49-1.08h-2.99l-.49,1.08c-.04.1-.13.2-.29.2h-.87c-.15,0-.23-.13-.17-.26ZM103.65,79.89l-1-2.2h-.03l-.98,2.2h2.01Z"></path>
          <path class="st16" d="M107.68,75.52c0-.13.1-.24.24-.24h.88c.13,0,.24.11.24.24v2.7l2.52-2.84c.04-.05.1-.1.19-.1h1c.19,0,.29.21.16.36l-2.61,2.94,2.8,3.35c.1.13.02.35-.18.35h-1.09c-.1,0-.16-.04-.18-.07l-2.61-3.22v3.05c0,.13-.11.24-.24.24h-.88c-.14,0-.24-.11-.24-.24v-6.52Z"></path>
          <path class="st16" d="M115.01,75.47c0-.1.08-.19.19-.19h4.07c.11,0,.19.09.19.19v.82c0,.1-.08.19-.19.19h-2.96v1.64h2.47c.1,0,.19.09.19.19v.83c0,.11-.09.19-.19.19h-2.47v1.75h2.96c.11,0,.19.09.19.19v.82c0,.1-.08.19-.19.19h-4.07c-.11,0-.19-.09-.19-.19v-6.62Z"></path>
          <path class="st16" d="M127.81,75.18c2,0,3.6,1.61,3.6,3.61s-1.6,3.59-3.6,3.59-3.59-1.59-3.59-3.59,1.59-3.61,3.59-3.61ZM127.81,81.08c1.26,0,2.3-1.03,2.3-2.29s-1.04-2.31-2.3-2.31-2.29,1.05-2.29,2.31,1.03,2.29,2.29,2.29Z"></path>
          <path class="st16" d="M133.03,75.47c0-.1.09-.19.19-.19h.95c.11,0,.19.09.19.19v4.09c0,.85.58,1.52,1.45,1.52s1.46-.67,1.46-1.51v-4.1c0-.1.08-.19.19-.19h.95c.1,0,.19.09.19.19v4.16c0,1.52-1.21,2.75-2.79,2.75s-2.78-1.23-2.78-2.75v-4.16Z"></path>
          <path class="st16" d="M140.73,75.47c0-.1.08-.19.19-.19h2.86c1.2,0,2.18.96,2.18,2.15,0,.92-.61,1.67-1.48,2.02l1.37,2.54c.07.13,0,.29-.17.29h-1.05c-.09,0-.14-.05-.16-.09l-1.33-2.65h-1.11v2.55c0,.1-.09.19-.19.19h-.92c-.11,0-.19-.09-.19-.19v-6.62ZM143.67,78.47c.53,0,.99-.46.99-1.02,0-.53-.46-.97-.99-.97h-1.63v1.99h1.63Z"></path>
          <path class="st16" d="M182.41,78.91l-2.28-3.34c-.08-.13,0-.29.16-.29h1.02c.08,0,.13.05.16.09l1.6,2.3,1.6-2.3s.08-.09.16-.09h1.03c.16,0,.24.16.16.29l-2.31,3.33v3.19c0,.1-.09.19-.19.19h-.92c-.11,0-.19-.09-.19-.19v-3.18Z"></path>
          <path class="st16" d="M190.06,75.18c2,0,3.6,1.61,3.6,3.61s-1.6,3.59-3.6,3.59-3.59-1.59-3.59-3.59,1.59-3.61,3.59-3.61ZM190.06,81.08c1.26,0,2.3-1.03,2.3-2.29s-1.04-2.31-2.3-2.31-2.29,1.05-2.29,2.31,1.03,2.29,2.29,2.29Z"></path>
          <path class="st16" d="M195.08,75.47c0-.1.09-.19.19-.19h.95c.11,0,.19.09.19.19v4.09c0,.85.58,1.52,1.45,1.52s1.46-.67,1.46-1.51v-4.1c0-.1.08-.19.19-.19h.95c.1,0,.19.09.19.19v4.16c0,1.52-1.21,2.75-2.79,2.75s-2.78-1.23-2.78-2.75v-4.16Z"></path>
          <path class="st16" d="M202.57,75.47c0-.1.08-.19.19-.19h2.86c1.2,0,2.18.96,2.18,2.15,0,.92-.61,1.67-1.48,2.02l1.37,2.54c.07.13,0,.29-.17.29h-1.05c-.09,0-.14-.05-.16-.09l-1.33-2.65h-1.11v2.55c0,.1-.09.19-.19.19h-.92c-.11,0-.19-.09-.19-.19v-6.62ZM205.5,78.47c.53,0,.99-.46.99-1.02,0-.53-.46-.97-.99-.97h-1.63v1.99h1.63Z"></path>
          <path class="st16" d="M211.99,82.02l3.11-6.73c.03-.06.08-.11.17-.11h.1c.1,0,.14.05.17.11l3.08,6.73c.06.13-.02.26-.17.26h-.87c-.15,0-.22-.06-.29-.2l-.49-1.08h-2.99l-.49,1.08c-.04.1-.13.2-.29.2h-.87c-.15,0-.23-.13-.17-.26ZM216.3,79.89l-1-2.2h-.03l-.98,2.2h2.01Z"></path>
          <path class="st16" d="M220.44,75.47c0-.1.08-.19.18-.19h2.37c1.93,0,3.51,1.57,3.51,3.49s-1.58,3.51-3.51,3.51h-2.37c-.1,0-.18-.09-.18-.19v-6.62ZM222.86,81.06c1.3,0,2.25-.98,2.25-2.29s-.95-2.28-2.25-2.28h-1.14v4.57h1.14Z"></path>
          <path class="st16" d="M227.25,75.54c-.06-.13.02-.26.17-.26h1.02c.09,0,.15.06.17.11l1.92,4.3h.07l1.92-4.3s.08-.11.17-.11h1.02c.15,0,.23.13.17.26l-3.1,6.73c-.03.06-.08.11-.17.11h-.1c-.09,0-.14-.05-.17-.11l-3.09-6.73Z"></path>
          <path class="st16" d="M233.02,82.02l3.11-6.73c.03-.06.08-.11.17-.11h.1c.1,0,.14.05.17.11l3.08,6.73c.06.13-.02.26-.17.26h-.87c-.15,0-.22-.06-.29-.2l-.49-1.08h-2.99l-.49,1.08c-.04.1-.13.2-.29.2h-.87c-.15,0-.23-.13-.17-.26ZM237.33,79.89l-1-2.2h-.03l-.98,2.2h2.01Z"></path>
          <path class="st16" d="M240.95,75.36c0-.1.09-.18.19-.18h.25l4.16,4.42h.01v-4.13c0-.1.08-.19.19-.19h.92c.1,0,.19.09.19.19v6.73c0,.1-.09.18-.19.18h-.24l-4.18-4.59h0v4.3c0,.1-.08.19-.19.19h-.91c-.1,0-.19-.09-.19-.19v-6.73Z"></path>
          <path class="st16" d="M250.33,76.48h-1.53c-.11,0-.19-.09-.19-.19v-.82c0-.1.08-.19.19-.19h4.37c.11,0,.19.09.19.19v.82c0,.1-.08.19-.19.19h-1.53v5.61c0,.1-.09.19-.19.19h-.93c-.1,0-.19-.09-.19-.19v-5.61Z"></path>
          <path class="st16" d="M253.39,82.02l3.11-6.73c.03-.06.08-.11.17-.11h.1c.1,0,.14.05.17.11l3.08,6.73c.06.13-.02.26-.17.26h-.87c-.15,0-.22-.06-.29-.2l-.49-1.08h-2.99l-.49,1.08c-.04.1-.13.2-.29.2h-.87c-.15,0-.23-.13-.17-.26ZM257.7,79.89l-1-2.2h-.03l-.98,2.2h2.01Z"></path>
          <path class="st16" d="M263.89,75.18c.9,0,1.76.35,2.44.93.08.08.09.2,0,.28l-.62.65c-.08.08-.17.08-.26,0-.43-.38-.96-.58-1.51-.58-1.25,0-2.24,1.07-2.24,2.32s.99,2.29,2.25,2.29c.56,0,.99-.17,1.19-.25v-.85h-.8c-.11,0-.19-.08-.19-.18v-.79c0-.11.08-.19.19-.19h1.92c.1,0,.18.09.18.19v2.56c0,.08-.04.13-.08.16,0,0-1.03.65-2.48.65-1.99,0-3.59-1.58-3.59-3.58s1.6-3.61,3.59-3.61Z"></path>
          <path class="st16" d="M268.29,75.47c0-.1.08-.19.19-.19h4.07c.11,0,.19.09.19.19v.82c0,.1-.08.19-.19.19h-2.96v1.64h2.47c.1,0,.19.09.19.19v.83c0,.11-.09.19-.19.19h-2.47v1.75h2.96c.11,0,.19.09.19.19v.82c0,.1-.08.19-.19.19h-4.07c-.11,0-.19-.09-.19-.19v-6.62Z"></path>
        </g>
        <g>
          <path class="st16" d="M151.41,75.47c.01-.1.11-.19.22-.19h4.07c.11,0,.18.09.16.19l-.12.82c-.01.1-.11.19-.22.19h-2.96l-.23,1.64h2.47c.1,0,.18.09.16.19l-.12.83c-.02.11-.12.19-.22.19h-2.47l-.25,1.75h2.96c.11,0,.18.09.16.19l-.12.82c-.01.1-.11.19-.22.19h-4.07c-.11,0-.18-.09-.16-.19l.93-6.62Z"></path>
          <path class="st16" d="M157.46,75.47c.01-.1.1-.19.19-.19h2.2c1.79,0,3.05,1.57,2.8,3.49-.25,1.94-1.92,3.51-3.71,3.51h-2.2c-.09,0-.16-.09-.14-.19l.86-6.62ZM158.99,81.06c1.21,0,2.21-.98,2.38-2.29.17-1.3-.58-2.28-1.79-2.28h-1.06l-.6,4.57h1.06Z"></path>
          <path class="st16" d="M167.87,75.18c.81,0,1.54.35,2.08.93.06.08.06.2-.03.28l-.64.65c-.08.08-.16.08-.23,0-.34-.38-.79-.58-1.29-.58-1.13,0-2.15,1.07-2.31,2.32-.16,1.24.6,2.29,1.74,2.29.51,0,.91-.17,1.1-.25l.11-.85h-.72c-.1,0-.16-.08-.15-.18l.1-.79c.01-.11.1-.19.2-.19h1.73c.09,0,.15.09.14.19l-.32,2.56c0,.08-.05.13-.09.16,0,0-1.01.65-2.32.65-1.79,0-3.03-1.58-2.78-3.58.25-2,1.9-3.61,3.69-3.61Z"></path>
          <path class="st16" d="M172.51,75.47c.01-.1.11-.19.22-.19h4.07c.11,0,.18.09.16.19l-.12.82c-.01.1-.11.19-.22.19h-2.96l-.23,1.64h2.47c.1,0,.18.09.16.19l-.12.83c-.02.11-.12.19-.22.19h-2.47l-.25,1.75h2.96c.11,0,.18.09.16.19l-.12.82c-.01.1-.11.19-.22.19h-4.07c-.11,0-.18-.09-.16-.19l.93-6.62Z"></path>
        </g>
      </g>
    </g>
  </g>
</svg>
