<svg xmlns="http://www.w3.org/2000/svg" xmlns:xlink="http://www.w3.org/1999/xlink" viewBox="0 0 294.47 75.66">
  <defs>
    <style> .a { fill: #696969; } .b { fill: url(#a); } .c { fill: url(#b); } .d { fill: none; } .e { fill: url(#c); } .f { fill: #fff; } </style>
    <linearGradient id="a" x1="0" y1="0" x2="1" y2="0" gradientUnits="objectBoundingBox">
      <stop offset="0" stop-color="#9b2d91"/>
      <stop offset="0.16" stop-color="#963093"/>
      <stop offset="0.34" stop-color="#893797"/>
      <stop offset="0.53" stop-color="#73439e"/>
      <stop offset="0.72" stop-color="#5455a9"/>
      <stop offset="0.92" stop-color="#2d6bb6"/>
      <stop offset="1" stop-color="#1b75bc"/>
    </linearGradient>
    <linearGradient id="b" x1="0" y1="0" x2="1" y2="0" gradientUnits="objectBoundingBox" xlink:href="#a"/>
    <linearGradient id="c" x1="1" y1="1" x2="0" y2="0" gradientUnits="objectBoundingBox">
      <stop offset="0" stop-color="#1b75bc"/>
      <stop offset="0.08" stop-color="#2d6bb6"/>
      <stop offset="0.28" stop-color="#5455a9"/>
      <stop offset="0.47" stop-color="#73439e"/>
      <stop offset="0.66" stop-color="#893797"/>
      <stop offset="0.84" stop-color="#963093"/>
      <stop offset="1" stop-color="#9b2d91"/>
    </linearGradient>
  </defs>
  <path class="a" d="M92.53,67a4.07,4.07,0,0,1,2.92,1.13.23.23,0,0,1,0,.34l-.74.76a.2.2,0,0,1-.31,0,2.82,2.82,0,0,0-1.86-.71,2.81,2.81,0,0,0,0,5.61,2.88,2.88,0,0,0,1.84-.69.22.22,0,0,1,.31,0l.75.77a.25.25,0,0,1,0,.33,4.21,4.21,0,0,1-2.94,1.17,4.36,4.36,0,1,1,0-8.71Z"/>
  <path class="a" d="M117.67,67a4.36,4.36,0,1,1-4.34,4.37A4.34,4.34,0,0,1,117.67,67Zm0,7.14a2.78,2.78,0,1,0-2.77-2.77A2.79,2.79,0,0,0,117.67,74.09Z"/>
  <path class="a" d="M141.41,67.14a.2.2,0,0,1,.22-.19h.19a.2.2,0,0,1,.2.13l2.66,5.7h0l2.66-5.7a.21.21,0,0,1,.21-.13h.19a.21.21,0,0,1,.22.19l1.42,8.12a.21.21,0,0,1-.21.28h-1.1a.26.26,0,0,1-.23-.18l-.72-4.59h0L145,75.53a.2.2,0,0,1-.2.13h-.22a.23.23,0,0,1-.21-.13l-2.14-4.76h0l-.71,4.59a.23.23,0,0,1-.21.18H140.2a.22.22,0,0,1-.23-.28Z"/>
  <path class="a" d="M168,67.31a.23.23,0,0,1,.23-.23h2.84a2.7,2.7,0,1,1,0,5.39h-1.51v2.84a.24.24,0,0,1-.23.23h-1.11a.23.23,0,0,1-.23-.23ZM171,71a1.24,1.24,0,0,0,1.25-1.25A1.21,1.21,0,0,0,171,68.56h-1.4V71Z"/>
  <path class="a" d="M192,67.31a.22.22,0,0,1,.22-.23h1.15a.22.22,0,0,1,.23.23v4.94a1.76,1.76,0,1,0,3.52,0v-5a.23.23,0,0,1,.23-.23h1.15a.23.23,0,0,1,.23.23v5a3.37,3.37,0,0,1-6.73,0Z"/>
  <path class="a" d="M218.83,68.53H217a.23.23,0,0,1-.23-.23v-1a.22.22,0,0,1,.23-.23h5.28a.23.23,0,0,1,.23.23v1a.23.23,0,0,1-.23.23h-1.85v6.78a.24.24,0,0,1-.23.23h-1.12a.23.23,0,0,1-.23-.23Z"/>
  <path class="a" d="M240.67,67.31a.23.23,0,0,1,.23-.23H242a.23.23,0,0,1,.23.23v8a.24.24,0,0,1-.23.23H240.9a.24.24,0,0,1-.23-.23Z"/>
  <path class="a" d="M261.38,67.17a.22.22,0,0,1,.23-.22h.3l5,5.35h0v-5a.23.23,0,0,1,.23-.23h1.11a.23.23,0,0,1,.23.23v8.13a.23.23,0,0,1-.23.22H268L263,70.11h0v5.2a.23.23,0,0,1-.23.23h-1.1a.23.23,0,0,1-.23-.23Z"/>
  <path class="a" d="M291.38,67a4.57,4.57,0,0,1,2.95,1.13.24.24,0,0,1,0,.34l-.75.78a.2.2,0,0,1-.31,0,2.74,2.74,0,0,0-1.83-.7,2.79,2.79,0,0,0,0,5.58,3.67,3.67,0,0,0,1.44-.31v-1h-1a.22.22,0,0,1-.23-.22v-1a.23.23,0,0,1,.23-.23h2.33a.22.22,0,0,1,.21.23v3.1a.26.26,0,0,1-.09.19,6.11,6.11,0,0,1-3,.79,4.35,4.35,0,0,1,0-8.7Z"/>
  <polygon class="b" points="193.42 13.09 201.78 13.09 182.34 58.01 173.96 58.01 193.42 13.09"/>
  <polygon class="c" points="179.18 13.09 187.55 13.09 168.11 58.01 159.73 58.01 179.18 13.09"/>
  <path class="a" d="M153.33,46.93A15.49,15.49,0,1,1,155,26.29l5.73-4a22.47,22.47,0,1,0-1.81,28.86Z"/>
  <polygon class="a" points="205.35 23.93 220.12 58.14 211.97 58.14 197.19 23.93 205.35 23.93"/>
  <polygon class="a" points="255.2 50.84 234.79 50.84 234.79 13.23 227.49 13.23 227.49 58.14 229.39 58.14 234.79 58.14 255.2 58.14 255.2 50.84"/>
  <path class="a" d="M102.57,32c-6-2.23-7.92-3.95-7.92-7.07,0-3.6,3.57-5.22,7.12-5.22a16.76,16.76,0,0,1,7,1.51l2.64-6.1A21.82,21.82,0,0,0,102,13.25c-8.81,0-15,5.06-15,12.3,0,5.87,3.84,9.92,12.06,12.73,5.51,2,7.47,4,7.47,7.31,0,3.76-3.07,6.09-8,6.09a19.45,19.45,0,0,1-9.36-2.51l-2.65,6.12.07,0c2.58,1.65,7.33,2.81,11.56,2.81,5,0,9.17-1.32,12-3.83a12,12,0,0,0,4.08-9.15C114.24,39,110.75,35,102.57,32Z"/>
  <polygon class="a" points="271.22 20.52 294.04 20.52 294.04 13.23 271.22 13.23 265.82 13.23 263.92 13.23 263.92 58.14 265.82 58.14 271.22 58.14 294.04 58.14 294.04 50.84 271.22 50.84 271.22 45.24 271.22 39.55 271.22 39.5 286.53 39.5 286.53 32.2 271.22 32.2 271.22 30.23 271.22 20.52"/>
  <polygon class="d" points="34.37 13.27 14.98 58.03 23.33 58.03 42.7 13.27 34.37 13.27"/>
  <polygon class="d" points="29.16 58.03 37.51 58.03 56.89 13.27 48.55 13.27 29.16 58.03"/>
  <path class="e" d="M35.57,0A35.57,35.57,0,1,0,71.14,35.57,35.56,35.56,0,0,0,35.57,0ZM15,58,34.37,13.27H42.7L23.33,58Zm22.53,0H29.16L48.55,13.27h8.34Z"/>
  <polygon class="f" points="14.98 58.03 34.37 13.27 42.7 13.27 23.33 58.03 14.98 58.03"/>
  <polygon class="f" points="37.51 58.03 29.16 58.03 48.55 13.27 56.89 13.27 37.51 58.03"/>
</svg>
