<svg viewBox="0 0 40 40" preserveAspectRatio="xMidYMid meet">
  <path fill="#FFFFFE" d="M19.8339681,1.51861586 C9.7079136,1.51861586 1.4993006,9.8195357 1.4993006,20.0591327 C1.4993006,30.2988757 9.7079136,38.5997956 19.8339681,38.5997956 C29.9598781,38.5997956 38.1686355,30.2988757 38.1686355,20.0591327 C38.1686355,9.8195357 29.9598781,1.51861586 19.8339681,1.51861586"/>
  <path fill="#32AECF" d="M30.4014094,20.2842751 C30.8780265,21.5527814 31.1396533,24.9214484 31.1396533,26.3590305 C31.1396533,32.7075485 30.9635028,27.5670901 19.772171,27.5670901 C8.79063157,27.5670901 8.40468872,32.7075485 8.40468872,26.3590305 C8.40468872,24.9214484 8.66631552,21.5527814 9.14293255,20.2842751 C6.33246586,18.129362 4.08192673,14.6416995 7.48192003,9.63133304 C7.87493777,9.0521244 8.71006437,9.48065411 8.56567872,10.1852825 C8.16399784,12.1449847 8.35819654,15.0708133 11.6510557,16.3235509 C13.714471,14.1930209 16.5903444,12.870638 19.772171,12.870638 C22.9539976,12.870638 25.829871,14.1930209 27.8932863,16.3235509 C31.1860011,15.0708133 31.3803441,12.1449847 30.9786633,10.1852825 C30.8342776,9.48065411 31.6692598,9.0521244 32.062422,9.63133304 C35.4624153,14.6416995 33.2118761,18.129362 30.4014094,20.2842751 Z M19.772171,-0.00584026865 C8.84751951,-0.00584026865 -0.00866313904,8.94977369 -0.00866313904,19.9970799 C-0.00866313904,31.044386 8.84751951,40 19.772171,40 C30.6968225,40 39.5530051,31.044386 39.5530051,19.9970799 C39.5530051,8.94977369 30.6968225,-0.00584026865 19.772171,-0.00584026865 L19.772171,-0.00584026865 Z"/>
</svg>
