<svg xmlns="http://www.w3.org/2000/svg" viewBox="35.39 46.87 320 270">
  <defs>
    <style>
      .cls-1 {
        fill: #0f2231;
      }

      .cls-1, .cls-2 {
        stroke-width: 0px;
      }

      .cls-2 {
        fill: #ff6333;
      }
    </style>
  </defs>
  <g>
    <path class="cls-2" d="M248.79,46.87c-.71,1.88-7.87,23.03-11.75,31.73h61.11c-21.74,58.87-52.76,112.69-92.6,159.93l-13.63,16.1-13.63-16.1c-39.84-47.24-70.86-101.06-92.6-159.93h58.05c-3.88-8.7-11.05-29.85-11.75-31.73H35.39c31.96,86.49,77.56,165.57,136.08,234.9l19.98,23.62,19.98-23.62c58.52-69.33,104.11-148.42,136.08-234.9h-98.71Z"/>
    <path class="cls-2" d="M232.81,99.28c-10.58,26.2-24.32,50.76-41.36,72.86-17.04-22.09-30.79-46.65-41.36-72.86h-32.08c15.04,40.66,36.55,77.91,64.04,110.46l9.4,11.16,9.4-11.16c27.5-32.67,49-69.8,64.04-110.46h-32.08Z"/>
  </g>
</svg>