<svg xmlns="http://www.w3.org/2000/svg" viewBox="35.39 46.87 1035.5 258.52">
  <defs>
    <style>
      .cls-1 {
        fill: #0f2231;
      }
      .cls-1, .cls-2 {
        stroke-width: 0px;
      }
      .cls-2 {
        fill: #ff6333;
      }
    </style>
  </defs>
  <g>
    <path class="cls-1" d="M671.03,164.45h-82.9c3,14.9,14.4,22.9,30.5,22.9,11.5,0,22.7-5,28.9-13.8l17.9,13.5c-9.9,15.6-28.9,24.3-48.3,24.3-31.8,0-56.1-22.9-56.1-56.4s25.4-56.2,56.1-56.2,54.5,21.8,54.5,55.2c-.2,3.2-.4,6.6-.6,10.5ZM645.13,145.85c-1.6-14.7-13.1-23.4-27.9-23.4s-25.9,7.1-29.1,23.4h57Z"/>
    <path class="cls-1" d="M795.53,148.65v60h-26.6v-58.2c0-17.2-10.3-26.4-22.2-26.4s-27.2,7.1-27.2,27.7v56.8h-26.6v-107h26.6v17c5.5-13.5,22.2-19.7,33.2-19.7,27.4.1,42.8,18.6,42.8,49.8Z"/>
    <path class="cls-1" d="M902.43,101.65h26.6v107h-26.6v-16.7c-7.1,11.7-21.3,19.5-36.6,19.5-28.6,0-51.5-23.2-51.5-56.4s22-56.2,52.2-56.2c14.7,0,28.9,6.4,36,17.7v-14.9h-.1ZM902.03,155.05c0-18.3-15.1-31.4-30.9-31.4-17.2,0-30.2,14.2-30.2,31.4s13.1,31.6,30.5,31.6c16.4,0,30.6-13.7,30.6-31.6Z"/>
    <path class="cls-1" d="M1066.93,101.65v107h-26.6v-85.9h-45.1v85.9h-26.6v-85.9h-20.4v-21.1h20.4v-1.7c0-30.7,14.7-49.3,44.4-49.3h6.9v24.8h-3.9c-16.3,0-21.1,9.4-20.8,21.3v4.9h71.7ZM1036.23,67.05c0-9.4,8-16.3,17.4-16.3s17.2,6.9,17.2,16.3-7.8,16.3-17.2,16.3-17.4-7.1-17.4-16.3Z"/>
    <path class="cls-1" d="M540.43,58.25c-10.9,38.2-28.4,73.8-51.1,105.6-22.7-31.8-40.2-67.4-51.1-105.6h-29.2c12.4,46.9,33.9,90.4,62.5,128.5,5.7,7.5,11.6,14.8,17.8,21.9,6.2-7.1,12.1-14.4,17.8-21.9,28.6-38.1,50.1-81.6,62.5-128.5h-29.2Z"/>
    <path class="cls-1" d="M469.99,289.6l14.9-40.58h7.77l14.84,40.58h-7.36l-11.42-32.47-11.42,32.47h-7.3ZM476.66,280.03l1.86-5.51h20l1.85,5.51h-23.71Z"/>
    <path class="cls-1" d="M545.24,290.29c-4.02,0-7.49-.88-10.41-2.64-2.92-1.76-5.15-4.21-6.7-7.36s-2.32-6.79-2.32-10.93.77-7.84,2.32-10.99c1.55-3.15,3.78-5.61,6.7-7.39,2.92-1.78,6.39-2.67,10.41-2.67,4.83,0,8.77,1.19,11.83,3.57,3.05,2.38,4.99,5.73,5.8,10.06h-7.65c-.5-2.28-1.6-4.08-3.3-5.39-1.7-1.31-3.94-1.97-6.73-1.97-2.55,0-4.75.59-6.58,1.77-1.84,1.18-3.25,2.88-4.23,5.1-.99,2.22-1.48,4.86-1.48,7.91s.49,5.67,1.48,7.86c.99,2.18,2.4,3.87,4.23,5.04,1.84,1.18,4.03,1.77,6.58,1.77,2.78,0,5.01-.61,6.7-1.83,1.68-1.22,2.79-2.91,3.33-5.07h7.65c-.81,4.1-2.75,7.32-5.8,9.65-3.05,2.34-7,3.51-11.83,3.51Z"/>
    <path class="cls-1" d="M573.01,302.35l7.07-16h-1.74l-11.65-25.97h7.59l8.64,19.89,8.23-19.89h7.36l-18.15,41.97h-7.36Z"/>
    <path class="cls-1" d="M620.38,290.29c-1.58,0-2.99-.21-4.2-.64s-2.3-.99-3.25-1.71c-.95-.71-1.75-1.52-2.41-2.41l-.64,4.06h-6.2v-41.74h6.96v16.81c.93-1.39,2.18-2.57,3.77-3.54,1.58-.97,3.54-1.45,5.86-1.45,2.74,0,5.18.67,7.3,2,2.12,1.33,3.79,3.15,4.99,5.45,1.2,2.3,1.8,4.92,1.8,7.86s-.6,5.57-1.8,7.88c-1.2,2.32-2.85,4.14-4.96,5.45-2.11,1.31-4.51,1.97-7.22,1.97ZM618.87,284.26c1.62,0,3.05-.39,4.29-1.16,1.24-.77,2.22-1.85,2.96-3.22.73-1.37,1.1-3,1.1-4.9,0-1.78-.37-3.37-1.1-4.78-.73-1.41-1.72-2.51-2.96-3.3-1.24-.79-2.67-1.19-4.29-1.19s-3.18.4-4.44,1.19c-1.26.79-2.23,1.88-2.93,3.28s-1.04,3-1.04,4.81.35,3.42,1.04,4.81,1.67,2.48,2.93,3.28c1.26.79,2.73,1.19,4.44,1.19Z"/>
    <path class="cls-1" d="M654.76,290.29c-2.9,0-5.45-.64-7.65-1.91-2.2-1.28-3.92-3.05-5.16-5.33s-1.85-4.91-1.85-7.88.61-5.74,1.83-8.06c1.22-2.32,2.94-4.14,5.16-5.45,2.22-1.31,4.8-1.97,7.74-1.97s5.34.64,7.45,1.91,3.75,2.98,4.93,5.1c1.18,2.13,1.77,4.54,1.77,7.25v1.25c0,.45-.04.94-.12,1.48h-23.77v-4.46h16.87c-.08-2.09-.79-3.75-2.14-4.99-1.35-1.24-3.04-1.85-5.04-1.85-1.43,0-2.75.33-3.94.99-1.2.66-2.14,1.63-2.84,2.93-.7,1.29-1.04,2.93-1.04,4.9v1.68c0,1.82.34,3.37,1.02,4.67.68,1.3,1.59,2.29,2.75,2.99,1.16.7,2.49,1.04,4,1.04,1.62,0,2.97-.35,4.03-1.04,1.06-.7,1.83-1.6,2.29-2.72h7.07c-.46,1.78-1.32,3.39-2.58,4.84-1.26,1.45-2.79,2.59-4.61,3.42-1.82.83-3.87,1.25-6.15,1.25Z"/>
    <path class="cls-1" d="M675.46,289.6v-29.22h6.2l.58,5.45c.73-1.28,1.6-2.37,2.61-3.28,1-.91,2.22-1.61,3.65-2.12,1.43-.5,3.02-.75,4.75-.75v7.3h-2.49c-1.16,0-2.26.14-3.3.43s-1.94.76-2.7,1.42c-.75.66-1.33,1.55-1.74,2.67s-.61,2.49-.61,4.12v13.97h-6.96Z"/>
    <path class="cls-1" d="M695.92,289.6l14.9-40.58h7.77l14.84,40.58h-7.36l-11.42-32.47-11.42,32.47h-7.3ZM702.59,280.03l1.86-5.51h20l1.85,5.51h-23.71Z"/>
    <path class="cls-1" d="M738.82,289.6v-29.22h6.2l.58,5.45c.73-1.28,1.6-2.37,2.61-3.28,1-.91,2.22-1.61,3.65-2.12,1.43-.5,3.01-.75,4.75-.75v7.3h-2.49c-1.16,0-2.26.14-3.3.43s-1.94.76-2.7,1.42-1.33,1.55-1.74,2.67c-.41,1.12-.61,2.49-.61,4.12v13.97h-6.96Z"/>
    <path class="cls-1" d="M761.84,289.6v-41.74h6.96v41.74h-6.96ZM780.62,289.6l-12.87-16,11.54-13.22h8.29l-14.44,16.06.06-5.39,16.06,18.55h-8.64Z"/>
    <path class="cls-1" d="M824.1,290.29c-4.02,0-7.49-.88-10.41-2.64-2.92-1.76-5.15-4.21-6.7-7.36-1.55-3.15-2.32-6.79-2.32-10.93s.77-7.84,2.32-10.99c1.54-3.15,3.78-5.61,6.7-7.39,2.92-1.78,6.39-2.67,10.41-2.67,4.83,0,8.77,1.19,11.83,3.57,3.05,2.38,4.99,5.73,5.8,10.06h-7.65c-.5-2.28-1.6-4.08-3.3-5.39-1.7-1.31-3.94-1.97-6.72-1.97-2.55,0-4.75.59-6.58,1.77-1.84,1.18-3.25,2.88-4.23,5.1-.99,2.22-1.48,4.86-1.48,7.91s.49,5.67,1.48,7.86c.99,2.18,2.4,3.87,4.23,5.04,1.83,1.18,4.03,1.77,6.58,1.77,2.78,0,5.01-.61,6.7-1.83,1.68-1.22,2.79-2.91,3.33-5.07h7.65c-.81,4.1-2.74,7.32-5.8,9.65-3.05,2.34-7,3.51-11.83,3.51Z"/>
    <path class="cls-1" d="M861.9,290.29c-2.78,0-5.29-.64-7.51-1.91-2.22-1.28-3.96-3.07-5.22-5.39-1.26-2.32-1.88-4.97-1.88-7.94s.64-5.74,1.91-8.06,3.02-4.12,5.25-5.39c2.22-1.28,4.73-1.91,7.51-1.91s5.28.64,7.48,1.91,3.95,3.06,5.25,5.36c1.29,2.3,1.94,4.98,1.94,8.03s-.66,5.68-1.97,8c-1.31,2.32-3.07,4.12-5.28,5.39s-4.7,1.91-7.48,1.91ZM861.9,284.32c1.39,0,2.66-.36,3.8-1.07,1.14-.71,2.06-1.77,2.75-3.16s1.04-3.09,1.04-5.1-.34-3.77-1.01-5.16c-.68-1.39-1.59-2.43-2.72-3.13-1.14-.7-2.39-1.04-3.74-1.04s-2.67.35-3.83,1.04c-1.16.7-2.09,1.74-2.78,3.13-.7,1.39-1.04,3.11-1.04,5.16s.35,3.71,1.04,5.1c.7,1.39,1.61,2.44,2.75,3.16,1.14.72,2.39,1.07,3.74,1.07Z"/>
    <path class="cls-1" d="M883.41,289.6v-29.22h6.15l.46,3.94c.93-1.43,2.17-2.56,3.74-3.39,1.57-.83,3.29-1.25,5.19-1.25,1.51,0,2.85.19,4.03.58,1.18.39,2.22.97,3.13,1.74.91.77,1.65,1.74,2.23,2.9,1.04-1.62,2.44-2.9,4.17-3.83,1.74-.93,3.65-1.39,5.74-1.39,2.44,0,4.5.49,6.2,1.48,1.7.99,2.99,2.43,3.86,4.35.87,1.91,1.3,4.26,1.3,7.04v17.04h-6.9v-16.41c0-2.47-.5-4.37-1.51-5.68-1.01-1.31-2.47-1.97-4.41-1.97-1.35,0-2.53.34-3.54,1.01-1.01.68-1.8,1.64-2.38,2.9-.58,1.26-.87,2.79-.87,4.61v15.54h-6.96v-16.41c0-2.47-.5-4.37-1.51-5.68-1.01-1.31-2.53-1.97-4.58-1.97-1.28,0-2.42.34-3.42,1.01-1.01.68-1.79,1.64-2.35,2.9-.56,1.26-.84,2.79-.84,4.61v15.54h-6.96Z"/>
    <path class="cls-1" d="M937.1,302.35v-41.97h6.2l.64,4.23c.66-.89,1.42-1.7,2.29-2.43s1.91-1.33,3.13-1.8,2.68-.7,4.38-.7c2.78,0,5.22.67,7.3,2,2.09,1.33,3.73,3.15,4.93,5.45,1.2,2.3,1.8,4.94,1.8,7.91s-.61,5.56-1.83,7.86c-1.22,2.3-2.88,4.11-4.99,5.42-2.11,1.31-4.51,1.97-7.22,1.97-2.24,0-4.18-.42-5.83-1.25-1.64-.83-2.93-2.02-3.86-3.57v16.87h-6.96ZM952.29,284.26c1.62,0,3.06-.4,4.32-1.19,1.25-.79,2.24-1.87,2.96-3.25s1.07-2.97,1.07-4.78-.36-3.43-1.07-4.84c-.71-1.41-1.7-2.51-2.96-3.3-1.26-.79-2.7-1.19-4.32-1.19s-3.18.4-4.44,1.19c-1.26.79-2.23,1.88-2.93,3.28-.7,1.39-1.04,3.01-1.04,4.87s.35,3.36,1.04,4.75c.7,1.39,1.67,2.48,2.93,3.28,1.26.79,2.73,1.19,4.44,1.19Z"/>
    <path class="cls-1" d="M984.23,290.29c-2.36,0-4.34-.41-5.94-1.22s-2.79-1.89-3.57-3.25c-.77-1.35-1.16-2.84-1.16-4.46,0-1.82.47-3.4,1.42-4.75.95-1.35,2.35-2.41,4.2-3.16,1.86-.75,4.15-1.13,6.9-1.13h7.36c0-1.55-.22-2.83-.67-3.86-.45-1.02-1.11-1.8-2-2.32-.89-.52-2.05-.78-3.48-.78-1.59,0-2.94.37-4.06,1.1s-1.82,1.84-2.09,3.3h-6.84c.23-2.09.94-3.88,2.12-5.39,1.18-1.51,2.72-2.67,4.64-3.48,1.91-.81,3.99-1.22,6.23-1.22,2.78,0,5.15.47,7.1,1.42,1.95.95,3.44,2.29,4.46,4.03,1.02,1.74,1.54,3.87,1.54,6.38v18.09h-5.97l-.7-4.64c-.39.77-.88,1.48-1.48,2.12-.6.64-1.3,1.2-2.09,1.68-.79.48-1.67.86-2.64,1.13-.97.27-2.07.41-3.3.41ZM985.8,284.79c1.12,0,2.12-.2,3.01-.61.89-.41,1.64-.99,2.26-1.74s1.11-1.6,1.48-2.55c.37-.95.59-1.94.67-2.99v-.12h-6.38c-1.39,0-2.52.17-3.39.52-.87.35-1.52.82-1.94,1.42-.43.6-.64,1.3-.64,2.12s.2,1.57.61,2.14c.41.58.98,1.02,1.74,1.33s1.61.46,2.58.46Z"/>
    <path class="cls-1" d="M1007.83,289.6v-29.22h6.15l.46,4.87c.89-1.7,2.16-3.05,3.83-4.06,1.66-1,3.63-1.51,5.91-1.51s4.37.49,6.03,1.48c1.66.99,2.94,2.43,3.83,4.32.89,1.89,1.33,4.25,1.33,7.07v17.04h-6.9v-16.35c0-2.51-.54-4.43-1.62-5.74-1.08-1.31-2.69-1.97-4.81-1.97-1.39,0-2.63.34-3.71,1.01-1.08.68-1.94,1.63-2.58,2.87-.64,1.24-.96,2.76-.96,4.58v15.6h-6.96Z"/>
    <path class="cls-1" d="M1045.39,302.35l7.07-16h-1.74l-11.65-25.97h7.59l8.64,19.89,8.23-19.89h7.36l-18.15,41.97h-7.36Z"/>
    <path class="cls-1" d="M671.03,164.45h-82.9c3,14.9,14.4,22.9,30.5,22.9,11.5,0,22.7-5,28.9-13.8l17.9,13.5c-9.9,15.6-28.9,24.3-48.3,24.3-31.8,0-56.1-22.9-56.1-56.4s25.4-56.2,56.1-56.2,54.5,21.8,54.5,55.2c-.2,3.2-.4,6.6-.6,10.5ZM645.13,145.85c-1.6-14.7-13.1-23.4-27.9-23.4s-25.9,7.1-29.1,23.4h57Z"/>
    <path class="cls-1" d="M795.53,148.65v60h-26.6v-58.2c0-17.2-10.3-26.4-22.2-26.4s-27.2,7.1-27.2,27.7v56.8h-26.6v-107h26.6v17c5.5-13.5,22.2-19.7,33.2-19.7,27.4.1,42.8,18.6,42.8,49.8Z"/>
    <path class="cls-1" d="M902.43,101.65h26.6v107h-26.6v-16.7c-7.1,11.7-21.3,19.5-36.6,19.5-28.6,0-51.5-23.2-51.5-56.4s22-56.2,52.2-56.2c14.7,0,28.9,6.4,36,17.7v-14.9h-.1ZM902.03,155.05c0-18.3-15.1-31.4-30.9-31.4-17.2,0-30.2,14.2-30.2,31.4s13.1,31.6,30.5,31.6c16.4,0,30.6-13.7,30.6-31.6Z"/>
    <path class="cls-1" d="M1066.93,101.65v107h-26.6v-85.9h-45.1v85.9h-26.6v-85.9h-20.4v-21.1h20.4v-1.7c0-30.7,14.7-49.3,44.4-49.3h6.9v24.8h-3.9c-16.3,0-21.1,9.4-20.8,21.3v4.9h71.7ZM1036.23,67.05c0-9.4,8-16.3,17.4-16.3s17.2,6.9,17.2,16.3-7.8,16.3-17.2,16.3-17.4-7.1-17.4-16.3Z"/>
    <path class="cls-1" d="M540.43,58.25c-10.9,38.2-28.4,73.8-51.1,105.6-22.7-31.8-40.2-67.4-51.1-105.6h-29.2c12.4,46.9,33.9,90.4,62.5,128.5,5.7,7.5,11.6,14.8,17.8,21.9,6.2-7.1,12.1-14.4,17.8-21.9,28.6-38.1,50.1-81.6,62.5-128.5h-29.2Z"/>
  </g>
  <g>
    <path class="cls-2" d="M248.79,46.87c-.71,1.88-7.87,23.03-11.75,31.73h61.11c-21.74,58.87-52.76,112.69-92.6,159.93l-13.63,16.1-13.63-16.1c-39.84-47.24-70.86-101.06-92.6-159.93h58.05c-3.88-8.7-11.05-29.85-11.75-31.73H35.39c31.96,86.49,77.56,165.57,136.08,234.9l19.98,23.62,19.98-23.62c58.52-69.33,104.11-148.42,136.08-234.9h-98.71Z"/>
    <path class="cls-2" d="M232.81,99.28c-10.58,26.2-24.32,50.76-41.36,72.86-17.04-22.09-30.79-46.65-41.36-72.86h-32.08c15.04,40.66,36.55,77.91,64.04,110.46l9.4,11.16,9.4-11.16c27.5-32.67,49-69.8,64.04-110.46h-32.08Z"/>
  </g>
</svg>
