<svg xmlns="http://www.w3.org/2000/svg" width="auto" height="100%" viewBox="0 0 665 200" fill="currentColor" preserveAspectRatio="xMidYMid meet" aria-hidden="true" role="img">
  <g clip-path="url(#clip0_2946_1264)">
    <path d="M243.328 72L209.649 160H183.879L150 72H179.429L197.749 129.85L216.069 72H243.328ZM327.396 113.72C327.396 87.31 312.337 69 285.257 69C254.098 69 240.188 89.65 240.188 116.39C240.188 145.29 256.058 162.96 289.067 163C299.807 163 311.227 161.23 321.276 156.11L323.426 133.82C314.007 138.18 303.737 140.38 293.367 140.26C280.247 140.26 272.087 137.19 269.188 125.96H326.736C327.076 122.7 327.416 117.09 327.396 113.72ZM268.478 108.93C269.508 97.35 273.947 91.54 284.827 91.57C294.357 91.57 299.987 97.53 300.157 108.93H268.478ZM380.665 69C373.685 69 365.135 73.48 361.056 83.88L359.296 72H335.316V160.01H363.236V102.97C366.135 96.14 371.935 92.58 380.775 92.58C383.855 92.6 386.875 93.47 389.755 94.58L392.515 73.17C388.975 71.1 384.765 68.94 380.665 69ZM466.473 63H494.393V40.07H466.473V63ZM466.473 160H494.393V72H466.473V160ZM550.302 163C557.561 162.96 564.741 161.16 571.411 158.28L573.521 135.5C567.071 138.28 560.101 139.67 553.082 139.58C542.512 139.58 531.282 133.14 531.282 116.43C531.282 99.72 541.672 93.57 553.762 93.57C559.951 93.45 566.101 94.32 571.821 96.69L573.971 75.06C566.681 71.65 558.601 68.83 550.552 68.99C520.912 68.99 502.693 88.14 502.693 116.4C502.693 144.66 520.692 163.02 550.302 163ZM429.404 125.96V92.57H454.034L455.804 72H429.404L429.504 40C429.504 40 404.635 40.06 400.705 57.24C400.295 59.12 400.105 61.03 400.125 62.95V129.52C400.125 150.8 412.734 162.2 434.874 162.2C441.034 162.2 447.124 161.68 453.044 159.99L454.954 138.02C450.644 139.29 446.164 139.86 441.684 139.72C432.814 139.55 429.404 135.13 429.404 125.96ZM664.999 113.72C664.999 87.31 649.929 69 622.85 69C591.691 69 577.781 89.65 577.781 116.39C577.781 145.29 593.651 162.96 626.66 163C637.4 163 648.82 161.23 658.869 156.11L661.019 133.82C651.6 138.18 641.33 140.38 630.96 140.26C617.84 140.26 609.68 137.19 606.78 125.96H664.329C664.669 122.7 665.019 117.09 664.999 113.72ZM606.08 108.93C607.11 97.35 611.54 91.54 622.42 91.57C631.95 91.57 637.58 97.53 637.75 108.93H606.08Z" fill="currentColor"/>
    <path d="M114.861 1.19C111.351 -0.189997 107.591 -0.419997 104.3 0.780003C102.75 1.35 100.56 2.26001 98.53 3.97001L40.4762 52.27C48.1767 61.52 59.6475 66.96 71.7182 67.05L43.8364 137.81C33.1058 106.66 20.1849 69.14 20.1849 69.14L13.3445 74.83C1.92376 84.08 -3.09656 99.82 1.97376 114.52L27.7254 189.22C29.2055 193.48 32.4457 197.1 36.976 198.88C45.1965 202.12 54.4871 198.08 57.7273 189.86L123.882 21.93C127.122 13.71 123.082 4.43 114.861 1.19Z" fill="url(#paint0_linear_2946_1264)"/>
  </g>
  <defs>
    <linearGradient id="paint0_linear_2946_1264" x1="0" y1="199.998" x2="36.3014" y2="-14.9753" gradientUnits="userSpaceOnUse">
      <stop stop-color="#0041C2"/>
      <stop offset="1" stop-color="#8B42FF"/>
    </linearGradient>
    <clipPath id="clip0_2946_1264">
      <rect width="665" height="200" fill="currentColor"/>
    </clipPath>
  </defs>
</svg>
