<?xml version="1.0" encoding="UTF-8"?>
<svg width="116px" height="46px" viewBox="0 0 116 46" version="1.1" xmlns="http://www.w3.org/2000/svg" xmlns:xlink="http://www.w3.org/1999/xlink">
    <title>WTI_logo</title>
    <g id="Desktop---Homepage" stroke="none" stroke-width="1" fill="none" fill-rule="evenodd">
        <g id="wti_homepage" transform="translate(-662.000000, -42.000000)" fill="#C41230" fill-rule="nonzero">
            <g id="Group-10">
                <g id="WTI_logo" transform="translate(662.000000, 42.000000)">
                    <rect id="_x31_87C_3_" x="102.954571" y="12.4265714" width="12.0717143" height="12.0717143"></rect>
                    <rect id="_x31_87C_2_" x="102.954571" y="27.5145714" width="12.0717143" height="18.1042857"></rect>
                    <polygon id="_x31_87C_1_" points="72.7785714 24.4982857 87.8665714 24.4982857 87.8665714 12.4265714 72.7785714 12.4265714 72.7785714 0.354857143 60.7002857 0.354857143 60.7002857 12.4265714 60.7002857 24.4982857 60.7002857 33.5471429 60.7002857 45.6188571 72.7785714 45.6188571 96.9154286 45.6188571 96.9154286 33.5471429 72.7785714 33.5471429"></polygon>
                    <polygon id="_x31_87C" points="42.596 33.5471429 33.5405714 33.5471429 33.5405714 12.4265714 21.4754286 12.4265714 21.4754286 33.5471429 12.42 33.5471429 12.42 12.4265714 0.348285714 12.4265714 0.348285714 33.5471429 0.348285714 45.6188571 12.42 45.6188571 21.4754286 45.6188571 33.5405714 45.6188571 42.596 45.6188571 54.6677143 45.6188571 54.6677143 33.5471429 54.6677143 12.4265714 42.596 12.4265714"></polygon>
                </g>
            </g>
        </g>
    </g>
</svg>