<svg version="1.2" xmlns="http://www.w3.org/2000/svg" viewBox="0 0 1534 319" width="1534" height="319">
	<title>logo (34)-svg</title>
	<style>
		.s0 { fill: #236bf5 } 
	</style>
	<g id="nav">
		<path id="Layer" fill-rule="evenodd" class="s0" d="m511.6 162.3c8.3 50.9-35.8 79.5-80.6 82.9-28.4 58.5-128.7 98.1-215.5 55.5-37 5.6-57.6-3.7-73.3-21.5 31.7-41 127.9-114.6 245.5-76.5 62.8 20.3 79.1-27.5 63.3-45.4-59.3-67.3-193-6.7-197.8-1.6 52.6-80.6 240.5-103.1 258.4 6.6zm-386.1 114.9q-0.4 0-0.8 0-0.3-0.1-0.7-0.1-0.4 0-0.8 0.1-0.4 0-0.8 0c-43 11.8-118.5-31.4-122-100.7-3.6-69.2 59-145.1 148.3-127.4 72.3-72.6 198.5-50.4 224.8-20.1-43.4-6.4-94.1 9.9-152 48.4q0.9 0.5 1.8 0.9 0.9 0.4 1.7 0.8 0.9 0.4 1.8 0.7 0.9 0.4 1.9 0.7c60.1-26 103.1-10.7 102.8-10.7-157.6 55.2-196.4 161.7-206 207.4zm457.6-50.7h90.2l-8.2 35.9h-142.6l7.5-32.8 110.5-97.7h-62.4c-2.5 0.2-5.1-0.2-7.5-1.3-2.3-1-4.4-2.6-6-4.6-1.6-2-2.7-4.4-3.2-6.9-0.5-2.5-0.3-5.1 0.5-7.6l3-13.7h134.4l-7.8 35.3zm198.2-64.9c11.4 2.9 54 10.2 44.8 48.4-13.2 52.3-63.4 55.5-88.1 55.5-64 0-62.2-36.5-57.2-57.5h42c-4.2 23 18 24.7 28.2 24.7 23 0 29.2-11.2 30.2-16.1 1.7-7.4-6.5-13.7-22.1-16.7-24.6-4.8-46.8-12.7-55.4-22.9-16.5-20.1-0.4-46.9 9-57.7 17.4-20.2 43.8-25.1 63.6-25.1 61.6 0 60.9 37.9 57.9 54.4h-26.5c-1.7 0.1-3.4 0-5-0.5-1.7-0.4-3.2-1.1-4.6-2-1.4-1-2.6-2.2-3.6-3.5-1.1-1.4-1.8-2.9-2.3-4.5-0.9-2.7-6.2-10.1-23-10.6-8.2-0.2-24.9 1.1-27.4 14.8-2.2 12.3 33.3 17.6 39.5 19.2zm148.3 58.2q1.7-2 3.7-3.5 2-1.6 4.3-2.6 2.3-1.1 4.8-1.6 2.5-0.6 5-0.5h30.8c-3.7 8.1-8.6 15.7-14.6 22.4-5.9 6.8-12.8 12.6-20.4 17.4-7.7 4.7-15.9 8.3-24.6 10.7-8.6 2.4-17.6 3.5-26.6 3.2-23.5 0-72.7-9.3-55-86.3 6.1-26.3 25.7-83 93.4-84.7 24.7-0.6 59.7 8.1 61.2 53.8h-43.1c-1.1-4.1-3.6-17.9-25-17.9-30.1 0-40.3 30.1-44.6 49.3-4.3 19.2-7.9 50.4 23.8 50.1q3.7 0.1 7.4-0.5 3.6-0.5 7.1-1.8 3.4-1.3 6.6-3.2 3.1-1.9 5.8-4.4zm176.5 15.7q-4.7 5.5-10.2 10.1-5.5 4.5-11.8 8.1-6.2 3.5-13 5.8-6.8 2.4-13.8 3.5c-37.6 6.2-89.2 4.7-76.2-49.3 4.2-17.3 10.6-28.6 23.6-37 21.6-14.2 50.4-16.3 59.8-17.3 3.2-0.3 26.8-2.1 30.8-16.1 4-14-17.8-14.8-23.8-14.8-18.5 0-24.7 7.2-28 11.7h-41.4c16.7-44 62.9-45.7 75.3-45.7 13.9 0 69.9 0 59.2 46.4-16.2 70.6-16.8 77.7-30.5 94.6zm-18.5-56q-3.1 1.3-6.3 2.4-3.2 1.2-6.5 2.2-3.2 1-6.5 1.8-3.3 0.9-6.6 1.6c-8.6 2.6-24.6 3.7-32.8 11.2-6.8 6.2-18.5 32.8 9.7 33.4 5.4 0.1 10.9-0.7 16-2.5 5.1-1.8 9.9-4.6 14.1-8 4.2-3.5 7.7-7.8 10.3-12.5 2.7-4.8 4.5-9.9 5.4-15.3 1.3-6.4 3.2-14.2 3.2-14.3zm106.3-129.7c2.6-0.3 5.2 0.1 7.6 1.1 2.4 1 4.6 2.6 6.2 4.6 1.6 2 2.7 4.4 3.2 7 0.5 2.6 0.3 5.2-0.5 7.7l-44.1 192.5h-43.1l48.5-212.7h22.2zm112 162.3h30.8c-3.8 8.1-8.8 15.6-14.7 22.3-6 6.7-12.9 12.5-20.5 17.3-7.6 4.7-15.8 8.3-24.5 10.7-8.6 2.4-17.5 3.6-26.5 3.5-65.7 0-61.6-58.8-54.9-86.4 18.5-77.4 70.3-84.7 93.3-84.7 30.8 0 78.9 12.8 54.5 97.1h-106.9c-2.6 11.2-4.8 38.6 24.7 38.3q3 0.2 6-0.1 2.9-0.3 5.8-1.1 2.9-0.8 5.7-2 2.7-1.3 5.2-3c3.9-2.7 7.6-11.9 22-12.2zm-63.1-48.2h63c5.4-30.2-13.3-33.4-23.9-33.4-9-0.3-30.5 3-39.1 33.2zm155.7-47.9q7.8-4.9 16.3-8.6 8.5-3.7 17.5-5.9 9-2.3 18.2-3.1 9.2-0.8 18.5-0.2l-10 37c-43.1-1.2-54.3 31-57.7 42.9-3.2 9.8-19.7 84.7-19.7 84.7h-43.1c0 0 15.5-67.8 18.2-79.8 3.3-15.3 12.9-47 41.8-66.7zm75.5-49.9l1.2-5.2h23.3l-1.1 5.2h-8.3l-4.8 22.7h-6.2l4.8-22.7zm38.2-5.3l2.1 20.2 10.9-20.2h8.6l-6.2 28h-5.7l5-22.2-11.7 22.2h-4.7l-2.7-22.2-4.1 22.2h-5.8l5.8-28z"/>
	</g>
</svg>