<svg width="21" height="21" viewBox="0 0 21 21" fill="none" xmlns="http://www.w3.org/2000/svg">
<g clip-path="url(#clip0_247_419)">
<mask id="mask0_247_419" style="mask-type:luminance" maskUnits="userSpaceOnUse" x="0" y="0" width="24" height="24">
<path d="M24 0H0V24H24V0Z" fill="white"/>
</mask>
<g mask="url(#mask0_247_419)">
<path d="M18.1968 11.2159L13.3571 10.1883L12.3296 5.34861C12.2936 5.16876 12.1344 5.04549 11.9545 5.04549C11.7747 5.04549 11.6155 5.17392 11.5795 5.34861L10.5519 10.1883L5.71218 11.2159C5.53233 11.2519 5.40906 11.4111 5.40906 11.5909C5.40906 11.7708 5.53749 11.93 5.71218 11.966L10.5519 12.9936L11.5795 17.8333C11.6155 18.0131 11.7747 18.1364 11.9545 18.1364C12.1344 18.1364 12.2936 18.008 12.3296 17.8333L13.3571 12.9936L18.1968 11.966C18.3767 11.93 18.5 11.7708 18.5 11.5909C18.5 11.4111 18.3715 11.2519 18.1968 11.2159Z" fill="url(#paint0_linear_247_419)"/>
<path d="M5.40909 8.68184C5.58647 8.68184 5.74356 8.55515 5.77905 8.38286L6.16931 6.53297L8.0192 6.14272C8.19658 6.10723 8.31818 5.95014 8.31818 5.77275C8.31818 5.59537 8.19149 5.43828 8.0192 5.40279L6.16931 5.01254L5.77905 3.16264C5.74356 2.98526 5.58647 2.86366 5.40909 2.86366C5.23171 2.86366 5.07462 2.99035 5.03913 3.16264L4.64887 5.01254L2.79898 5.40279C2.6216 5.43828 2.5 5.59537 2.5 5.77275C2.5 5.95014 2.62669 6.10723 2.79898 6.14272L4.64887 6.53297L5.03913 8.38286C5.07462 8.56024 5.23171 8.68184 5.40909 8.68184Z" fill="url(#paint1_linear_247_419)"/>
</g>
</g>
<defs>
<linearGradient id="paint0_linear_247_419" x1="11.9545" y1="5.04549" x2="11.9545" y2="18.1364" gradientUnits="userSpaceOnUse">
<stop stop-color="#F56E6E"/>
<stop offset="1" stop-color="#5E40BE"/>
</linearGradient>
<linearGradient id="paint1_linear_247_419" x1="5.40909" y1="2.86366" x2="5.40909" y2="8.68184" gradientUnits="userSpaceOnUse">
<stop stop-color="#F56E6E"/>
<stop offset="1" stop-color="#5E40BE"/>
</linearGradient>
<clipPath id="clip0_247_419">
<rect width="21" height="21" fill="white"/>
</clipPath>
</defs>
</svg>
